<svg
    xmlns="http://www.w3.org/2000/svg"
    height="60"
    width="60"
    viewbox="0 0 60 60"
>
    <rect
        x="0.25"
        y="0.25"
        width="59.5"
        height="59.5"
        rx="5"
        ry="5"
        style="fill:#cd7f32;stroke:#000000;stroke-width:0.5px"
    />
    <path
        d="m 6.1,20.5 c 0.1,-1.6 1.2,-2.8 2.7,-3.2 L 30.3,13 V 8 c 0,-3.4 2.8,-6.1 6.1,-6.1 h 1.4 c 0.6,0 1.1,0.5 1.1,1.1 v 5.3 c 0,2.1 -1.1,4 -2.7,5.1 9.2,2 16.4,9.8 17.6,19.3 0,0 0,0 0,0.1 0.1,0.9 0.2,1.8 0.2,2.8 0,2.6 -0.4,5.1 -1.3,7.4 l -0.1,0.2 c -1,2.9 -2.6,5.5 -4.6,7.7 -0.1,0.1 -0.1,0.2 -0.2,0.2 -4.1,4.4 -10,7.2 -16.5,7.2 -0.6,0 -1.1,-0.5 -1.1,-1.1 V 45.4 c -1.1,0.9 -2.5,1.4 -4,1.4 h -1.4 c -0.6,0 -1.1,-0.5 -1.1,-1.1 v -5.4 c 0,-3.4 2.8,-6.1 6.1,-6.1 h 0.5 v -6.8 l -0.1,0.1 c -1.2,1 -2.6,1.5 -4.1,1.5 -0.6,0 -1.3,-0.1 -1.9,-0.3 L 8.5,23.9 c -1.5,-0.5 -2.5,-1.8 -2.4,-3.4 z m 9.8,-2.3 c 1.7,0.6 3.3,0.7 4.6,0.5 1.4,-0.3 2.6,-1 3.8,-2.1 z m 31,30.6 c 1.3,-1.5 2.4,-3.2 3.2,-5 h -10.2 c -0.1,0.6 -0.2,1.2 -0.4,1.7 z m -7,-7.3 h 11 c 0.6,-1.9 1,-3.9 1,-6 0,-0.4 0,-0.7 0,-1.1 -1.4,0.6 -3.7,1.6 -6,2.5 -2.2,0.9 -3.9,1.6 -5.1,2.1 -0.5,0.2 -0.9,0.4 -1.2,0.5 0.2,0.6 0.4,1.3 0.5,2 z m -2.2,1.1 c 0,-3.1 -2.3,-5.8 -5.3,-6.3 v 12.6 c 3.1,-0.5 5.4,-3.1 5.4,-6.2 z m -0.9,-38.6 h -0.3 c -2.2,0 -3.9,1.8 -3.9,3.9 v 4.3 h 0.3 c 2.2,0 3.9,-1.8 3.9,-3.9 z m -4.3,11.1 v 19 c 2.4,0.3 4.5,1.6 5.8,3.5 2.2,-0.9 8.7,-3.6 13.3,-5.5 -1.6,-9.3 -9.5,-16.5 -19.1,-17 z m 12.7,35.4 -6.7,-3 c -1.3,2 -3.5,3.4 -6,3.7 v 4.7 c 4.9,-0.2 9.4,-2.3 12.8,-5.4 z m -14.9,-14.2 h -0.3 c -2.2,0 -3.9,1.8 -3.9,3.9 v 4.3 h 0.3 c 2.2,0 3.9,-1.8 3.9,-3.9 z M 9.2,21.7 24.8,26.5 c 1.4,0.4 2.8,0.1 4,-0.8 l 1.5,-1.2 v -9.2 l -2.6,0.5 c -1.8,2.8 -4,4.5 -6.6,5 -0.6,0.1 -1.2,0.2 -1.8,0.2 -2.1,0 -4.5,-0.7 -7.1,-2.1 l -2.9,0.6 c -0.8,0.2 -0.9,0.9 -0.9,1.1 0,0.2 0,0.9 0.8,1.2 z"
        style="fill:#000000;stroke:#222222;stroke-width:0.1px"
    />
</svg>