<svg
    xmlns="http://www.w3.org/2000/svg" 
    height="60"
    width="60"
    viewbox="0 0 60 60"
>
    <rect
        x="0.5"
        y="0.5"
        width="59"
        height="59"
        rx="5"
        ry="5"
        style="fill:#9966cc;stroke:#000000;stoke-width:0.5px"
    />
    <path
        d="m 30.0,4.6 a 12.5,12.5 0 0 0 -12.5,12.5 12.5,12.5 0 0 0 2.7,7.8 L 30.0,7.9 39.8,24.9 A 12.5,12.5 0 0 0 42.5,17.1 12.5,12.5 0 0 0 30.0,4.6 Z m 0,7.4 -4.5,7.7 h 8.9 z m -5.6,9.7 -3.0,5.1 h 7.6 V 21.7 Z m 6.6,0 v 5.1 h 7.6 L 35.6,21.7 Z m -10.7,7.2 -3.0,5.1 h 25.4 l -3.0,-5.1 z m -4.1,7.2 -3.0,5.1 h 15.8 v -5.1 z m 14.9,0 v 5.1 H 46.8 L 43.9,36.0 Z M 12.0,43.1 9.0,48.3 H 51.0 L 48.0,43.1 Z M 7.9,50.3 4.9,55.4 H 29.0 v -5.1 z m 23.1,0 v 5.1 h 24.1 l -3.0,-5.1 z"
        style="fill:#000000;stroke:none"
    />
</svg>