<svg
    xmlns="http://www.w3.org/2000/svg" 
    height="60"
    width="60"
    viewbox="0 0 60 60"
>
    <rect
        x="0.5"
        y="0.5"
        width="59"
        height="59"
        rx="5"
        ry="5"
        style="fill:#9966cc;stroke:#000000;stoke-width:0.5px"
    />
    <path
        d="M 55.8,5.6 54.7,9.0 H 38.0 L 36.9,5.6 Z m -32.7,0 -1.1,3.4 H 5.3 L 4.2,5.6 Z m 29.6,5.5 3.4,34.3 H 51.5 L 51.4,21.5 47.7,13.2 44.0,21.5 44.0,45.3 H 41.9 V 21.7 h -3.0 l 1.1,-10.7 z m -32.7,0 1.1,10.7 h -3.0 V 45.3 H 16.0 L 16.0,21.5 12.3,13.2 8.6,21.5 8.5,45.3 H 3.9 L 7.3,11.0 Z m 27.7,6.7 1.1,2.1 H 46.7 Z m -35.4,0 1.1,2.1 h -2.1 z m 37.1,4.2 v 23.4 h -3.4 v -23.4 z m -35.4,0 v 23.4 h -3.4 v -23.4 z m 25.9,1.8 v 3.4 H 20.1 v -3.4 z m 0,5.5 V 45.3 H 36.5 v -12.7 H 23.5 v 12.7 H 20.1 V 29.2 Z m 16.4,18.2 v 7.0 H 39.8 l -2.8,-7.0 z m -21.5,0 1.0,2.4 H 24.3 l 1.0,-2.4 z m -11.7,0 -2.8,7.0 H 3.8 v -7.0 z m 13.5,4.4 1.0,2.6 H 22.4 l 1.0,-2.6 z"
        style="fill:#000000;stroke:none"
    />
</svg>