<svg
    xmlns="http://www.w3.org/2000/svg" 
    height="60"
    width="60"
    viewbox="0 0 60 60"
>
    <rect
        x="0.5"
        y="0.5"
        width="59"
        height="59"
        rx="5"
        ry="5"
        style="fill:#9966cc;stroke:#000000;stroke-width:0.5px"
    />
    <path
        d="m 7.3,6.4 a 4.1,4.1 0 0 0 -4.2,4.1 4.1,4.1 0 0 0 8.1,0 A 4.1,4.1 0 0 0 7.3,6.4 Z M 32.9,16.7 7.4,41.5 l 1.6,0.3 7.9,-7.7 0.8,-0.8 0.8,0.8 11.5,12.0 8.9,1.8 -5.9,-31.4 z m 20.2,1.3 -8.2,8.0 12.1,12.7 -3.9,-20.6 z M 17.5,35.9 3.0,49.9 20.9,53.6 17.5,35.9 Z"
        style="fill:#000000;stroke:none"
    />
</svg>