<svg
    xmlns="http://www.w3.org/2000/svg" 
    height="60"
    width="60"
    viewbox="0 0 60 60"
>
    <rect
        x="0.5"
        y="0.5"
        width="59"
        height="59"
        rx="5"
        ry="5"
        style="fill:#5694c8;stroke:#000000;stroke-width:0.5px"
    />
    <path
        d="m 20.7,2.1 c -3.2,0.0 -6.3,0.7 -7.7,1.1 0,0 13.3,2.3 14.4,11.4 C 17.3,0.1 6.3,17.8 6.3,17.8 c 2.3,-0.6 8.9,-2.4 13.3,-1.6 3.0,0.5 5.9,3.2 5.8,3.2 -7.2,1.8 -18.6,33.7 -16.6,36.2 1.7,2.0 3.4,1.3 5.2,0.3 0.9,-6.8 7.5,-36.4 15.7,-34.0 0.0,0.0 0.0,0.0 0.0,0 0.7,0.2 1.3,0.6 1.4,1.3 0.1,1.2 -0.7,3.2 -0.5,4.5 0.4,3.2 1.0,4.3 1.9,5.4 2.1,-1.2 4.2,-5.6 4.6,-7.8 1.9,0.8 5.0,2.8 7.5,10.0 1.3,-6.8 -0.6,-12.2 -6.8,-14.5 2.7,-1.2 14.5,4.7 15.9,8.0 1.4,-5.9 -8.5,-13.2 -16.7,-12.8 1.6,-0.4 3.3,0.1 5.0,-1.1 2.2,-1.6 4.8,-3.0 7.2,-4.5 C 41.0,6.7 33.5,8.4 33.0,12.1 32.5,4.0 26.3,2.1 20.7,2.1 Z"
        style="fill:#000000;stroke:none"
    />
    <path
        d="m 52.8,47.8 c -0.5,0.5 -0.6,1.3 -0.1,1.8 0.1,-0.1 0.2,-0.2 0.3,-0.3 -0.3,-0.4 -0.2,-0.9 0.1,-1.3 l -0.3,-0.3 z m 2.0,0 -0.3,0.3 c 0.3,0.3 0.4,0.9 0.1,1.3 0.1,0.1 0.2,0.2 0.3,0.3 0.4,-0.6 0.4,-1.3 -0.1,-1.8 z m -1.0,1.6 c -0.6,0.0 -1.0,0.5 -1.0,1.1 0.0,0.0 0.0,0.0 0.0,0.1 l 0.0,0.0 c 0.3,0.1 0.6,0.2 1.0,0.2 0.4,0.0 0.8,-0.1 1.1,-0.2 l 0.0,-0.0 c 0.0,-0.1 0.1,-0.1 0.0,-0.1 0,-0.6 -0.5,-1.1 -1.0,-1.1 z m -2.7,0.3 c -0.9,0.5 -1.6,1.5 -1.6,3.3 v 0.2 h 1.6 c 0.0,-0.1 0.1,-0.3 0.2,-0.4 h -1.4 c 0.0,-1.5 0.6,-2.2 1.4,-2.7 l -0.2,-0.3 z m 5.4,0 -0.2,0.3 c 0.8,0.5 1.3,1.2 1.4,2.7 h -1.4 c 0.1,0.1 0.1,0.3 0.2,0.4 h 1.6 v -0.2 c 0,-1.7 -0.6,-2.7 -1.6,-3.3 z m -4.1,1.2 c -0.5,0.2 -0.8,0.6 -0.8,1.0 0.0,0.2 0.1,0.4 0.2,0.5 l 0.1,0.1 c 0.5,0.3 1.2,0.5 1.9,0.6 0.6,-0.1 1.2,-0.3 1.8,-0.6 l 0.1,-0.1 c 0.1,-0.2 0.2,-0.3 0.2,-0.5 0,-0.4 -0.3,-0.7 -0.8,-0.9 -0.4,0.2 -0.9,0.3 -1.4,0.3 -0.5,0.0 -1.0,-0.1 -1.3,-0.3 z m 3.4,1.9 c -0.6,0.3 -1.2,0.5 -1.9,0.6 v 3.5 c 1.2,-0.1 2.2,-1.3 2.2,-2.7 0,-0.5 -0.1,-1.0 -0.4,-1.4 z m -4.1,0.0 c -0.2,0.4 -0.4,0.9 -0.4,1.4 0,1.4 1.0,2.6 2.2,2.7 V 53.5 C 52.9,53.4 52.3,53.2 51.7,52.9 Z M 49.0,53.7 v 0.2 c 0,1.2 0.3,2.4 1.0,3.4 l 0.3,-0.2 c -0.6,-0.8 -0.9,-1.9 -0.9,-3.0 h 1.5 c 0.0,-0.1 0.0,-0.3 0.0,-0.4 h -2.0 z m 7.5,0 c 0.0,0.1 0.0,0.3 0.0,0.4 h 1.5 c 0.0,1.1 -0.3,2.1 -0.9,3.0 l 0.3,0.2 c 0.7,-1.0 1.0,-2.2 1.0,-3.4 v -0.2 h -2.0 z m -6.4,1.0 v 0.2 c 0,0.7 0.4,1.4 0.9,2.0 0.5,0.5 1.2,0.9 1.8,1.1 l 0.1,-0.4 C 52.3,57.4 51.7,57.1 51.3,56.6 50.9,56.2 50.6,55.6 50.5,55.1 h 0.5 C 51.0,55.0 51.0,54.8 51.0,54.7 h -0.9 z m 6.5,0 c 0.0,0.1 0.0,0.3 -0.1,0.4 h 0.5 c -0.1,0.5 -0.3,1.1 -0.7,1.5 -0.5,0.5 -1.0,0.8 -1.6,0.9 l 0.1,0.4 c 0.6,-0.1 1.3,-0.5 1.8,-1.1 0.5,-0.5 0.9,-1.2 0.9,-2.0 V 54.7 H 56.6 Z"
        style="fill:#ff0000;stoke:none"
    />
</svg>