<svg
    xmlns="http://www.w3.org/2000/svg" 
    height="60"
    width="60"
    viewbox="0 0 60 60"
>
    <rect
        x="0.5"
        y="0.5"
        width="59"
        height="59"
        rx="5"
        ry="5"
        style="fill:#5694c8;stroke:#000000;stroke-width:0.5px"
    />
    <path
        d="m 20.7,2.1 c -3.2,0.0 -6.3,0.7 -7.7,1.1 0,0 13.3,2.3 14.4,11.4 C 17.3,0.1 6.3,17.8 6.3,17.8 c 2.3,-0.6 8.9,-2.4 13.3,-1.6 3.0,0.5 5.9,3.2 5.8,3.2 -7.2,1.8 -18.6,33.7 -16.6,36.2 1.7,2.0 3.4,1.3 5.2,0.3 0.9,-6.8 7.5,-36.4 15.7,-34.0 0.0,0.0 0.0,0.0 0.0,0 0.7,0.2 1.3,0.6 1.4,1.3 0.1,1.2 -0.7,3.2 -0.5,4.5 0.4,3.2 1.0,4.3 1.9,5.4 2.1,-1.2 4.2,-5.6 4.6,-7.8 1.9,0.8 5.0,2.8 7.5,10.0 1.3,-6.8 -0.6,-12.2 -6.8,-14.5 2.7,-1.2 14.5,4.7 15.9,8.0 1.4,-5.9 -8.5,-13.2 -16.7,-12.8 1.6,-0.4 3.3,0.1 5.0,-1.1 2.2,-1.6 4.8,-3.0 7.2,-4.5 C 41.0,6.7 33.5,8.4 33.0,12.1 32.5,4.0 26.3,2.1 20.7,2.1 Z"
        style="fill:#000000;stroke:none"
    />
</svg>