<svg
    xmlns="http://www.w3.org/2000/svg" 
    height="60"
    width="60"
    viewbox="0 0 60 60"
>
    <rect
        x="0.5"
        y="0.5"
        width="59"
        height="59"
        rx="5"
        ry="5"
        style="fill:#9966cc;stroke:#000000;stoke-width:0.5px"
    />
    <path
        d="M 25.3,2.9 24.9,5.4 H 16.9 V 7.5 H 43.1 V 5.4 H 35.1 L 34.7,2.9 Z m -4.0,6.4 c 0.3,0.4 0.6,0.7 0.9,1.1 0.6,0.7 1.0,1.5 1.2,2.4 h 13.2 c 0.2,-0.9 0.7,-1.7 1.2,-2.4 0.3,-0.4 0.6,-0.8 0.9,-1.1 z m -4.4,5.4 v 2.1 h 26.2 v -2.1 z m 4.4,4.0 c 0.3,0.4 0.6,0.7 0.9,1.1 0.6,0.7 1.0,1.5 1.2,2.4 h 13.2 c 0.2,-0.9 0.7,-1.7 1.2,-2.4 0.3,-0.4 0.6,-0.8 0.9,-1.1 z m -4.4,5.4 v 2.1 h 26.2 v -2.1 z m 4.4,4.0 c 0.3,0.4 0.6,0.7 0.9,1.1 0.6,0.7 1.0,1.5 1.2,2.4 h 13.2 c 0.2,-0.9 0.7,-1.7 1.2,-2.4 0.3,-0.4 0.6,-0.8 0.9,-1.1 z m -4.4,5.4 v 2.1 h 26.2 v -2.1 z m 4.4,4.0 c 0.3,0.4 0.6,0.7 0.9,1.1 0.6,0.7 1.0,1.5 1.2,2.4 h 13.2 c 0.2,-0.9 0.7,-1.7 1.2,-2.4 0.3,-0.4 0.6,-0.8 0.9,-1.1 z m 2.3,5.6 v 1.9 c 0,2.2 -1.0,4.7 -2.5,7.1 -1.0,1.7 -2.3,3.4 -3.6,5.0 H 42.6 C 41.2,55.5 40.0,53.8 38.9,52.1 37.5,49.7 36.4,47.2 36.4,45.0 v -1.9 z"
        style="fill:#000000;stroke:none"
    />
</svg>