<svg xlmns="http://www.w3.org/2000/svg" width="1000px" height="840px" viewbox="0 0 1000 840">
    <polygon style="fill:#00ff00;stroke:#000000;stroke-width:1px" points="0,624 0,671 56,663 31,621"/>
    <polygon style="fill:#0099ff;stroke:#000000;stroke-width:1px" points="0,671 0,712 80,700 56,663"/>
    <text style="font:12px sans-serif;fill:#000000;align:center;text-anchor:middle" x="34" y="686">1</text>
    <polygon style="fill:#00ff00;stroke:#000000;stroke-width:1px" points="0,712 0,763 109,741 80,700"/>
    <polygon style="fill:#00ff00;stroke:#000000;stroke-width:1px" points="31,621 56,663 98,613 52,593"/>
    <polygon style="fill:#0099ff;stroke:#000000;stroke-width:1px" points="98,613 137,629 80,700 56,663"/>
    <text style="font:12px sans-serif;fill:#000000;align:center;text-anchor:middle" x="92" y="651">2</text>
    <polygon style="fill:#00ff00;stroke:#000000;stroke-width:1px" points="137,629 190,649 109,741 80,700"/>
    <polygon style="fill:#00ff00;stroke:#000000;stroke-width:1px" points="59,550 108,555 98,613 52,593"/>
    <polygon style="fill:#0099ff;stroke:#000000;stroke-width:1px" points="108,555 150,559 137,629 98,613"/>
    <text style="font:12px sans-serif;fill:#000000;align:center;text-anchor:middle" x="123" y="589">3</text>
    <polygon style="fill:#00ff00;stroke:#000000;stroke-width:1px" points="150,559 191,563 190,649 137,629"/>
    <polygon style="fill:#00ff00;stroke:#000000;stroke-width:1px" points="54,499 105,498 108,555 59,550"/>
    <polygon style="fill:#0099ff;stroke:#000000;stroke-width:1px" points="105,498 147,496 150,559 108,555"/>
    <text style="font:12px sans-serif;fill:#000000;align:center;text-anchor:middle" x="127" y="527">4</text>
    <polygon style="fill:#00ff00;stroke:#000000;stroke-width:1px" points="147,496 191,494 191,563 150,559"/>
    <polygon style="fill:#00ff00;stroke:#000000;stroke-width:1px" points="44,444 95,441 105,498 54,499"/>
    <polygon style="fill:#0099ff;stroke:#000000;stroke-width:1px" points="95,441 138,438 147,496 105,498"/>
    <text style="font:12px sans-serif;fill:#000000;align:center;text-anchor:middle" x="121" y="468">5</text>
    <polygon style="fill:#00ff00;stroke:#000000;stroke-width:1px" points="138,438 183,437 191,448 191,494 147,496"/>
    <polygon style="fill:#00ff00;stroke:#000000;stroke-width:1px" points="27,373 76,373 95,441 44,444"/>
    <polygon style="fill:#0099ff;stroke:#000000;stroke-width:1px" points="76,373 120,373 138,438 95,441"/>
    <text style="font:12px sans-serif;fill:#000000;align:center;text-anchor:middle" x="107" y="406">6</text>
    <polygon style="fill:#00ff00;stroke:#000000;stroke-width:1px" points="120,373 166,373 183,437 138,438"/>
    <polygon style="fill:#00ff00;stroke:#000000;stroke-width:1px" points="14,295 66,303 76,373 27,373"/>
    <polygon style="fill:#0099ff;stroke:#000000;stroke-width:1px" points="66,303 109,310 120,373 76,373"/>
    <text style="font:12px sans-serif;fill:#000000;align:center;text-anchor:middle" x="92" y="339">7</text>
    <polygon style="fill:#00ff00;stroke:#000000;stroke-width:1px" points="109,310 161,318 166,373 120,373"/>
    <polygon style="fill:#00ff00;stroke:#000000;stroke-width:1px" points="18,206 66,226 66,303 14,295"/>
    <polygon style="fill:#0099ff;stroke:#000000;stroke-width:1px" points="66,226 107,245 109,310 66,303"/>
    <text style="font:12px sans-serif;fill:#000000;align:center;text-anchor:middle" x="87" y="271">8</text>
    <polygon style="fill:#00ff00;stroke:#000000;stroke-width:1px" points="107,245 159,269 161,318 109,310"/>
    <polygon style="fill:#00ff00;stroke:#000000;stroke-width:1px" points="83,104 110,148 66,226 18,206"/>
    <polygon style="fill:#0099ff;stroke:#000000;stroke-width:1px" points="110,148 134,184 107,245 66,226"/>
    <text style="font:12px sans-serif;fill:#000000;align:center;text-anchor:middle" x="104" y="200">9</text>
    <polygon style="fill:#00ff00;stroke:#000000;stroke-width:1px" points="134,184 167,238 159,269 107,245"/>
    <polygon style="fill:#00ff00;stroke:#000000;stroke-width:1px" points="83,104 110,148 193,126 193,74"/>
    <polygon style="fill:#0099ff;stroke:#000000;stroke-width:1px" points="110,148 134,184 193,168 193,126"/>
    <text style="font:12px sans-serif;fill:#000000;align:center;text-anchor:middle" x="157" y="156">10</text>
    <polygon style="fill:#00ff00;stroke:#000000;stroke-width:1px" points="134,184 167,238 193,234 193,168"/>
    <polygon style="fill:#00ff00;stroke:#000000;stroke-width:1px" points="193,74 193,126 268,148 295,102"/>
    <polygon style="fill:#0099ff;stroke:#000000;stroke-width:1px" points="193,126 193,168 246,184 268,148"/>
    <text style="font:12px sans-serif;fill:#000000;align:center;text-anchor:middle" x="225" y="156">11</text>
    <polygon style="fill:#00ff00;stroke:#000000;stroke-width:1px" points="193,168 193,234 215,240 246,184"/>
    <polygon style="fill:#00ff00;stroke:#000000;stroke-width:1px" points="295,102 268,148 315,222 364,196"/>
    <polygon style="fill:#0099ff;stroke:#000000;stroke-width:1px" points="268,148 246,184 275,243 315,222"/>
    <text style="font:12px sans-serif;fill:#000000;align:center;text-anchor:middle" x="276" y="199">12</text>
    <polygon style="fill:#00ff00;stroke:#000000;stroke-width:1px" points="246,184 215,240 223,272 275,243"/>
    <polygon style="fill:#00ff00;stroke:#000000;stroke-width:1px" points="275,243 223,272 220,319 274,307"/>
    <polygon style="fill:#0099ff;stroke:#000000;stroke-width:1px" points="315,222 275,243 274,307 317,296"/>
    <text style="font:12px sans-serif;fill:#000000;align:center;text-anchor:middle" x="295" y="267">13</text>
    <polygon style="fill:#00ff00;stroke:#000000;stroke-width:1px" points="364,196 315,222 317,296 368,283"/>
    <polygon style="fill:#00ff00;stroke:#000000;stroke-width:1px" points="220,319 274,307 261,368 213,369"/>
    <polygon style="fill:#0099ff;stroke:#000000;stroke-width:1px" points="317,296 274,307 261,368 306,364"/>
    <text style="font:12px sans-serif;fill:#000000;align:center;text-anchor:middle" x="289" y="333">14</text>
    <polygon style="fill:#00ff00;stroke:#000000;stroke-width:1px" points="368,283 317,296 306,364 360,360"/>
    <polygon style="fill:#00ff00;stroke:#000000;stroke-width:1px" points="261,368 213,369 199,436 247,433"/>
    <polygon style="fill:#0099ff;stroke:#000000;stroke-width:1px" points="306,364 261,368 247,433 291,431"/>
    <text style="font:12px sans-serif;fill:#000000;align:center;text-anchor:middle" x="276" y="399">15</text>
    <polygon style="fill:#00ff00;stroke:#000000;stroke-width:1px" points="360,360 306,364 291,431 347,430"/>
    <polygon style="fill:#00ff00;stroke:#000000;stroke-width:1px" points="247,433 199,436 191,448 191,494 238,492"/>
    <polygon style="fill:#0099ff;stroke:#000000;stroke-width:1px" points="291,431 247,433 238,492 281,490"/>
    <text style="font:12px sans-serif;fill:#000000;align:center;text-anchor:middle" x="264" y="461">16</text>
    <polygon style="fill:#00ff00;stroke:#000000;stroke-width:1px" points="347,430 291,431 281,490 333,489"/>
    <polygon style="fill:#00ff00;stroke:#000000;stroke-width:1px" points="191,494 191,563 235,556 238,492"/>
    <polygon style="fill:#0099ff;stroke:#000000;stroke-width:1px" points="281,490 238,492 235,556 278,548"/>
    <text style="font:12px sans-serif;fill:#000000;align:center;text-anchor:middle" x="258" y="521">17</text>
    <polygon style="fill:#00ff00;stroke:#000000;stroke-width:1px" points="333,489 281,490 278,548 331,538"/>
    <polygon style="fill:#00ff00;stroke:#000000;stroke-width:1px" points="191,563 190,649 243,629 235,556"/>
    <polygon style="fill:#0099ff;stroke:#000000;stroke-width:1px" points="278,548 235,556 243,629 283,612"/>
    <text style="font:12px sans-serif;fill:#000000;align:center;text-anchor:middle" x="259" y="586">18</text>
    <polygon style="fill:#00ff00;stroke:#000000;stroke-width:1px" points="331,538 278,548 283,612 335,588"/>
    <polygon style="fill:#00ff00;stroke:#000000;stroke-width:1px" points="243,629 269,697 231,731 190,649"/>
    <polygon style="fill:#0099ff;stroke:#000000;stroke-width:1px" points="283,612 243,629 269,697 302,669"/>
    <text style="font:12px sans-serif;fill:#000000;align:center;text-anchor:middle" x="274" y="651">19</text>
    <polygon style="fill:#00ff00;stroke:#000000;stroke-width:1px" points="335,588 283,612 302,669 348,628"/>
    <polygon style="fill:#00ff00;stroke:#000000;stroke-width:1px" points="348,628 302,669 349,710 369,650"/>
    <polygon style="fill:#0099ff;stroke:#000000;stroke-width:1px" points="302,669 269,697 335,750 349,710"/>
    <text style="font:12px sans-serif;fill:#000000;align:center;text-anchor:middle" x="313" y="706">20</text>
    <polygon style="fill:#00ff00;stroke:#000000;stroke-width:1px" points="269,697 231,731 320,798 335,750"/>
    <polygon style="fill:#00ff00;stroke:#000000;stroke-width:1px" points="369,650 349,710 408,714 398,655"/>
    <polygon style="fill:#0099ff;stroke:#000000;stroke-width:1px" points="349,710 335,750 416,754 408,714"/>
    <text style="font:12px sans-serif;fill:#000000;align:center;text-anchor:middle" x="377" y="732">21</text>
    <polygon style="fill:#00ff00;stroke:#000000;stroke-width:1px" points="335,750 320,798 424,803 416,754"/>
    <polygon style="fill:#00ff00;stroke:#000000;stroke-width:1px" points="398,655 408,714 465,695 436,643"/>
    <polygon style="fill:#0099ff;stroke:#000000;stroke-width:1px" points="408,714 416,754 485,731 465,695"/>
    <text style="font:12px sans-serif;fill:#000000;align:center;text-anchor:middle" x="443" y="723">22</text>
    <polygon style="fill:#00ff00;stroke:#000000;stroke-width:1px" points="416,754 424,803 508,775 485,731"/>
    <polygon style="fill:#00ff00;stroke:#000000;stroke-width:1px" points="436,643 465,695 510,658 467,621"/>
    <polygon style="fill:#0099ff;stroke:#000000;stroke-width:1px" points="465,695 485,731 543,684 510,658"/>
    <text style="font:12px sans-serif;fill:#000000;align:center;text-anchor:middle" x="500" y="692">23</text>
    <polygon style="fill:#00ff00;stroke:#000000;stroke-width:1px" points="485,731 508,775 580,716 543,684"/>
    <polygon style="fill:#00ff00;stroke:#000000;stroke-width:1px" points="467,621 510,658 537,605 481,591"/>
    <polygon style="fill:#0099ff;stroke:#000000;stroke-width:1px" points="537,605 578,616 543,684 510,658"/>
    <text style="font:12px sans-serif;fill:#000000;align:center;text-anchor:middle" x="542" y="640">24</text>
    <polygon style="fill:#00ff00;stroke:#000000;stroke-width:1px" points="578,616 628,627 580,716 543,684"/>
    <polygon style="fill:#00ff00;stroke:#000000;stroke-width:1px" points="481,591 537,605 541,542 485,539"/>
    <polygon style="fill:#0099ff;stroke:#000000;stroke-width:1px" points="537,605 578,616 584,546 541,542"/>
    <text style="font:12px sans-serif;fill:#000000;align:center;text-anchor:middle" x="560" y="577">25</text>
    <polygon style="fill:#00ff00;stroke:#000000;stroke-width:1px" points="578,616 628,627 634,549 584,546"/>
    <polygon style="fill:#00ff00;stroke:#000000;stroke-width:1px" points="485,539 541,542 522,486 467,489"/>
    <polygon style="fill:#0099ff;stroke:#000000;stroke-width:1px" points="541,542 584,546 568,483 522,486"/>
    <text style="font:12px sans-serif;fill:#000000;align:center;text-anchor:middle" x="553" y="514">26</text>
    <polygon style="fill:#00ff00;stroke:#000000;stroke-width:1px" points="584,546 634,549 621,481 568,483"/>
    <polygon style="fill:#00ff00;stroke:#000000;stroke-width:1px" points="467,489 522,486 485,430 428,434"/>
    <polygon style="fill:#0099ff;stroke:#000000;stroke-width:1px" points="522,486 568,483 534,425 485,430"/>
    <text style="font:12px sans-serif;fill:#000000;align:center;text-anchor:middle" x="527" y="456">27</text>
    <polygon style="fill:#00ff00;stroke:#000000;stroke-width:1px" points="568,483 621,481 595,420 534,425"/>
    <polygon style="fill:#00ff00;stroke:#000000;stroke-width:1px" points="428,434 485,430 463,366 409,360"/>
    <polygon style="fill:#0099ff;stroke:#000000;stroke-width:1px" points="485,430 534,425 506,371 463,366"/>
    <text style="font:12px sans-serif;fill:#000000;align:center;text-anchor:middle" x="497" y="398">28</text>
    <polygon style="fill:#00ff00;stroke:#000000;stroke-width:1px" points="534,425 595,420 569,378 506,371"/>
    <polygon style="fill:#00ff00;stroke:#000000;stroke-width:1px" points="409,360 463,366 457,297 411,281"/>
    <polygon style="fill:#0099ff;stroke:#000000;stroke-width:1px" points="463,366 506,371 514,317 457,297"/>
    <text style="font:12px sans-serif;fill:#000000;align:center;text-anchor:middle" x="485" y="337">29</text>
    <polygon style="fill:#00ff00;stroke:#000000;stroke-width:1px" points="506,371 569,378 578,341 514,317"/>
    <polygon style="fill:#00ff00;stroke:#000000;stroke-width:1px" points="411,281 457,297 476,209 438,181"/>
    <polygon style="fill:#0099ff;stroke:#000000;stroke-width:1px" points="457,297 514,317 564,281 504,266 476,209"/>
    <text style="font:12px sans-serif;fill:#000000;align:center;text-anchor:middle" x="492" y="286">30</text>
    <polygon style="fill:#00ff00;stroke:#000000;stroke-width:1px" points="514,317 578,341 613,321 564,281"/>
    <polygon style="fill:#00ff00;stroke:#000000;stroke-width:1px" points="438,181 476,209 536,129 510,91"/>
    <polygon style="fill:#0099ff;stroke:#000000;stroke-width:1px" points="476,209 504,266 516,248 507,205 555,156 536,129"/>
    <text style="font:12px sans-serif;fill:#000000;align:center;text-anchor:middle" x="492" y="209">31</text>
    <polygon style="fill:#00ff00;stroke:#000000;stroke-width:1px" points="507,205 516,248 579,189 555,156"/>
    <polygon style="fill:#00ff00;stroke:#000000;stroke-width:1px" points="579,189 599,218 562,250 516,248"/>
    <polygon style="fill:#0099ff;stroke:#000000;stroke-width:1px" points="599,218 619,245 564,281 504,266 516,248 562,250"/>
    <text style="font:12px sans-serif;fill:#000000;align:center;text-anchor:middle" x="560" y="263">32</text>
    <polygon style="fill:#00ff00;stroke:#000000;stroke-width:1px" points="619,245 655,296 613,321 564,281"/>
    <polygon style="fill:#00ff00;stroke:#000000;stroke-width:1px" points="510,91 536,129 600,92 582,51"/>
    <polygon style="fill:#0099ff;stroke:#000000;stroke-width:1px" points="536,129 555,156 614,122 600,92"/>
    <text style="font:12px sans-serif;fill:#000000;align:center;text-anchor:middle" x="576" y="124">33</text>
    <polygon style="fill:#00ff00;stroke:#000000;stroke-width:1px" points="555,156 579,189 632,158 614,122"/>
    <polygon style="fill:#00ff00;stroke:#000000;stroke-width:1px" points="579,189 599,218 647,190 632,158"/>
    <polygon style="fill:#0099ff;stroke:#000000;stroke-width:1px" points="599,218 619,245 662,220 647,190"/>
    <text style="font:12px sans-serif;fill:#000000;align:center;text-anchor:middle" x="631" y="218">34</text>
    <polygon style="fill:#00ff00;stroke:#000000;stroke-width:1px" points="619,245 655,296 688,277 662,220"/>
    <polygon style="fill:#00ff00;stroke:#000000;stroke-width:1px" points="582,51 600,92 663,69 649,26"/>
    <polygon style="fill:#0099ff;stroke:#000000;stroke-width:1px" points="600,92 614,122 673,100 663,69"/>
    <text style="font:12px sans-serif;fill:#000000;align:center;text-anchor:middle" x="637" y="95">35</text>
    <polygon style="fill:#00ff00;stroke:#000000;stroke-width:1px" points="614,122 632,158 685,137 673,100"/>
    <polygon style="fill:#00ff00;stroke:#000000;stroke-width:1px" points="632,158 647,190 697,172 685,137"/>
    <polygon style="fill:#0099ff;stroke:#000000;stroke-width:1px" points="647,190 662,220 708,205 697,172"/>
    <text style="font:12px sans-serif;fill:#000000;align:center;text-anchor:middle" x="678" y="196">36</text>
    <polygon style="fill:#00ff00;stroke:#000000;stroke-width:1px" points="662,220 688,277 726,262 708,205"/>
    <polygon style="fill:#00ff00;stroke:#000000;stroke-width:1px" points="649,26 663,69 765,72 766,25"/>
    <polygon style="fill:#0099ff;stroke:#000000;stroke-width:1px" points="663,69 673,100 738,93 776,125 790,125 765,72"/>
    <text style="font:12px sans-serif;fill:#000000;align:center;text-anchor:middle" x="725" y="88">37</text>
    <polygon style="fill:#00ff00;stroke:#000000;stroke-width:1px" points="673,100 685,137 776,125 738,93"/>
    <polygon style="fill:#00ff00;stroke:#000000;stroke-width:1px" points="685,137 697,172 755,160 776,125"/>
    <polygon style="fill:#0099ff;stroke:#000000;stroke-width:1px" points="697,172 708,205 776,178 790,125 776,125 755,160"/>
    <text style="font:12px sans-serif;fill:#000000;align:center;text-anchor:middle" x="725" y="185">38</text>
    <polygon style="fill:#00ff00;stroke:#000000;stroke-width:1px" points="776,178 777,239 726,262 708,205"/>
    <polygon style="fill:#00ff00;stroke:#000000;stroke-width:1px" points="766,25 765,72 848,121 865,70"/>
    <polygon style="fill:#0099ff;stroke:#000000;stroke-width:1px" points="765,72 790,125 776,178 830,174 848,121"/>
    <text style="font:12px sans-serif;fill:#000000;align:center;text-anchor:middle" x="801" y="134">39</text>
    <polygon style="fill:#00ff00;stroke:#000000;stroke-width:1px" points="776,178 777,239 810,232 830,174"/>
    <polygon style="fill:#00ff00;stroke:#000000;stroke-width:1px" points="865,70 848,121 903,189 942,151"/>
    <polygon style="fill:#0099ff;stroke:#000000;stroke-width:1px" points="848,121 830,174 871,221 903,189"/>
    <text style="font:12px sans-serif;fill:#000000;align:center;text-anchor:middle" x="863" y="176">40</text>
    <polygon style="fill:#00ff00;stroke:#000000;stroke-width:1px" points="830,174 810,232 822,268 871,221"/>
    <polygon style="fill:#00ff00;stroke:#000000;stroke-width:1px" points="871,221 822,268 823,316 877,285"/>
    <polygon style="fill:#0099ff;stroke:#000000;stroke-width:1px" points="903,189 871,221 877,285 917,257"/>
    <text style="font:12px sans-serif;fill:#000000;align:center;text-anchor:middle" x="892" y="238">41</text>
    <polygon style="fill:#00ff00;stroke:#000000;stroke-width:1px" points="942,151 903,189 917,257 966,227"/>
    <polygon style="fill:#00ff00;stroke:#000000;stroke-width:1px" points="877,285 823,316 819,368 873,346"/>
    <polygon style="fill:#0099ff;stroke:#000000;stroke-width:1px" points="917,257 877,285 873,346 917,328"/>
    <text style="font:12px sans-serif;fill:#000000;align:center;text-anchor:middle" x="896" y="304">42</text>
    <polygon style="fill:#00ff00;stroke:#000000;stroke-width:1px" points="966,227 917,257 917,328 970,307"/>
    <polygon style="fill:#00ff00;stroke:#000000;stroke-width:1px" points="873,346 819,368 810,426 865,409"/>
    <polygon style="fill:#0099ff;stroke:#000000;stroke-width:1px" points="917,328 873,346 865,409 910,397"/>
    <text style="font:12px sans-serif;fill:#000000;align:center;text-anchor:middle" x="891" y="370">43</text>
    <polygon style="fill:#00ff00;stroke:#000000;stroke-width:1px" points="970,307 917,328 910,397 965,381"/>
    <polygon style="fill:#00ff00;stroke:#000000;stroke-width:1px" points="865,409 810,426 797,482 853,473"/>
    <polygon style="fill:#0099ff;stroke:#000000;stroke-width:1px" points="910,397 865,409 853,473 897,465"/>
    <text style="font:12px sans-serif;fill:#000000;align:center;text-anchor:middle" x="881" y="436">44</text>
    <polygon style="fill:#00ff00;stroke:#000000;stroke-width:1px" points="965,381 910,397 897,465 951,455"/>
    <polygon style="fill:#00ff00;stroke:#000000;stroke-width:1px" points="951,455 897,465 886,528 937,524"/>
    <polygon style="fill:#0099ff;stroke:#000000;stroke-width:1px" points="897,465 853,473 829,533 886,528"/>
    <text style="font:12px sans-serif;fill:#000000;align:center;text-anchor:middle" x="866" y="499">45</text>
    <polygon style="fill:#00ff00;stroke:#000000;stroke-width:1px" points="853,473 797,482 768,538 829,533"/>
    <polygon style="fill:#00ff00;stroke:#000000;stroke-width:1px" points="937,524 886,528 889,579 939,597"/>
    <polygon style="fill:#0099ff;stroke:#000000;stroke-width:1px" points="886,528 829,533 791,586 848,561 889,579"/>
    <text style="font:12px sans-serif;fill:#000000;align:center;text-anchor:middle" x="848" y="551">46</text>
    <polygon style="fill:#00ff00;stroke:#000000;stroke-width:1px" points="829,533 768,538 720,615 791,586"/>
    <polygon style="fill:#00ff00;stroke:#000000;stroke-width:1px" points="791,586 720,615 704,667 757,663"/>
    <polygon style="fill:#0099ff;stroke:#000000;stroke-width:1px" points="848,561 791,586 757,663 792,659 813,603 845,578"/>
    <text style="font:12px sans-serif;fill:#000000;align:center;text-anchor:middle" x="784" y="630">47</text>
    <polygon style="fill:#00ff00;stroke:#000000;stroke-width:1px" points="858,661 792,659 813,603 845,578 863,610"/>
    <polygon style="fill:#00ff00;stroke:#000000;stroke-width:1px" points="939,597 889,579 891,664 939,670"/>
    <polygon style="fill:#0099ff;stroke:#000000;stroke-width:1px" points="891,664 858,661 863,610 845,578 848,561 889,579"/>
    <text style="font:12px sans-serif;fill:#000000;align:center;text-anchor:middle" x="875" y="630">48</text>
    <polygon style="fill:#00ff00;stroke:#000000;stroke-width:1px" points="757,663 704,667 685,730 738,730"/>
    <polygon style="fill:#0099ff;stroke:#000000;stroke-width:1px" points="792,659 757,663 738,730 776,731"/>
    <text style="font:12px sans-serif;fill:#000000;align:center;text-anchor:middle" x="765" y="695">49</text>
    <polygon style="fill:#00ff00;stroke:#000000;stroke-width:1px" points="858,661 792,659 776,731 832,731"/>
    <polygon style="fill:#00ff00;stroke:#000000;stroke-width:1px" points="939,670 891,664 868,730 921,731"/>
    <polygon style="fill:#0099ff;stroke:#000000;stroke-width:1px" points="891,664 858,661 832,731 868,730"/>
    <text style="font:12px sans-serif;fill:#000000;align:center;text-anchor:middle" x="862" y="696">50</text>
    <polygon style="fill:#00ff00;stroke:#000000;stroke-width:1px" points="738,730 685,730 670,783 722,783"/>
    <polygon style="fill:#0099ff;stroke:#000000;stroke-width:1px" points="776,731 738,730 722,783 764,783"/>
    <text style="font:12px sans-serif;fill:#000000;align:center;text-anchor:middle" x="750" y="756">51</text>
    <polygon style="fill:#00ff00;stroke:#000000;stroke-width:1px" points="832,731 776,731 764,783 812,783"/>
    <polygon style="fill:#00ff00;stroke:#000000;stroke-width:1px" points="921,731 868,730 852,783 906,783"/>
    <polygon style="fill:#0099ff;stroke:#000000;stroke-width:1px" points="868,730 832,731 812,783 852,783"/>
    <text style="font:12px sans-serif;fill:#000000;align:center;text-anchor:middle" x="841" y="756">52</text>
    <polygon style="fill:#00ff00;stroke:#000000;stroke-width:1px" points="722,783 670,783 653,840 709,840"/>
    <polygon style="fill:#0099ff;stroke:#000000;stroke-width:1px" points="764,783 722,783 709,840 751,840"/>
    <text style="font:12px sans-serif;fill:#000000;align:center;text-anchor:middle" x="736" y="811">53</text>
    <polygon style="fill:#00ff00;stroke:#000000;stroke-width:1px" points="812,783 764,783 751,840 793,840"/>
    <polygon style="fill:#00ff00;stroke:#000000;stroke-width:1px" points="906,783 852,783 836,840 889,840"/>
    <polygon style="fill:#0099ff;stroke:#000000;stroke-width:1px" points="852,783 812,783 793,840 836,840"/>
    <text style="font:12px sans-serif;fill:#000000;align:center;text-anchor:middle" x="823" y="811">54</text>
    <circle cx="30" cy="613" r="20" style="fill:#cc9999;stroke:#000000;stroke-width:1px"/>
    <circle cx="192" cy="617" r="20" style="fill:#cc9999;stroke:#000000;stroke-width:1px"/>
    <circle cx="45" cy="502" r="20" style="fill:#cc9999;stroke:#000000;stroke-width:1px"/>
    <circle cx="164" cy="373" r="20" style="fill:#cc9999;stroke:#000000;stroke-width:1px"/>
    <circle cx="26" cy="207" r="20" style="fill:#cc9999;stroke:#000000;stroke-width:1px"/>
    <circle cx="190" cy="248" r="20" style="fill:#cc9999;stroke:#000000;stroke-width:1px"/>
    <circle cx="368" cy="199" r="20" style="fill:#cc9999;stroke:#000000;stroke-width:1px"/>
    <circle cx="215" cy="376" r="20" style="fill:#cc9999;stroke:#000000;stroke-width:1px"/>
    <circle cx="342" cy="491" r="20" style="fill:#cc9999;stroke:#000000;stroke-width:1px"/>
    <circle cx="355" cy="622" r="20" style="fill:#cc9999;stroke:#000000;stroke-width:1px"/>
    <circle cx="422" cy="792" r="20" style="fill:#cc9999;stroke:#000000;stroke-width:1px"/>
    <circle cx="458" cy="617" r="20" style="fill:#cc9999;stroke:#000000;stroke-width:1px"/>
    <circle cx="640" cy="549" r="20" style="fill:#cc9999;stroke:#000000;stroke-width:1px"/>
    <circle cx="428" cy="437" r="20" style="fill:#cc9999;stroke:#000000;stroke-width:1px"/>
    <circle cx="587" cy="347" r="20" style="fill:#cc9999;stroke:#000000;stroke-width:1px"/>
    <circle cx="544" cy="217" r="20" style="fill:#cc9999;stroke:#000000;stroke-width:1px"/>
    <circle cx="689" cy="280" r="20" style="fill:#cc9999;stroke:#000000;stroke-width:1px"/>
    <circle cx="579" cy="50" r="20" style="fill:#cc9999;stroke:#000000;stroke-width:1px"/>
    <circle cx="721" cy="131" r="20" style="fill:#cc9999;stroke:#000000;stroke-width:1px"/>
    <circle cx="865" cy="70" r="20" style="fill:#cc9999;stroke:#000000;stroke-width:1px"/>
    <circle cx="821" cy="316" r="20" style="fill:#cc9999;stroke:#000000;stroke-width:1px"/>
    <circle cx="965" cy="384" r="20" style="fill:#cc9999;stroke:#000000;stroke-width:1px"/>
    <circle cx="762" cy="540" r="20" style="fill:#cc9999;stroke:#000000;stroke-width:1px"/>
    <circle cx="823" cy="661" r="20" style="fill:#cc9999;stroke:#000000;stroke-width:1px"/>
    <circle cx="907" cy="784" r="20" style="fill:#cc9999;stroke:#000000;stroke-width:1px"/>
    <circle cx="665" cy="784" r="20" style="fill:#cc9999;stroke:#000000;stroke-width:1px"/>
</svg>
