<svg
    xmlns="http://www.w3.org/2000/svg" 
    height="90"
    width="65"
    viewbox="0 0 60 60"
>
    <rect
        x="0.5"
        y="0.5"
        width="64"
        height="89"
        rx="5"
        ry="5"
        style="fill:#ff6666;stroke:#222222;stroke-width:0.5px"
    />
    <path
        d="m 31.9,34.3 c -5.5,0 -9.9,4.4 -9.9,9.9 v 7.6 h 1.0 c 2.6,0 4.7,2.1 4.7,4.7 v 0.4 h 0.9 a 4.2,4.2 0 0 1 -0.3,-1.5 c 0.0,-2.3 1.9,-4.2 4.3,-4.2 2.3,0 4.2,1.9 4.3,4.2 a 4.2,4.2 0 0 1 -0.3,1.5 h 0.9 v -0.4 c 0.0,-2.6 2.1,-4.7 4.7,-4.7 h 1.0 V 44.2 c 0.0,-5.5 -4.4,-9.9 -9.9,-9.9 z m -4.2,8.9 a 3.6,3.6 0 0 1 1.4,0.3 c 1.3,0.6 2.2,1.8 2.2,3.3 0.0,2.0 -1.6,3.6 -3.6,3.6 -1.4,0.0 -2.7,-0.9 -3.3,-2.2 -0.6,-1.3 -0.2,-2.9 0.8,-3.9 a 3.6,3.6 0 0 1 2.5,-1.0 z m 9.4,0.0 a 3.6,3.6 0 0 1 1.4,0.3 c 1.3,0.6 2.2,1.8 2.2,3.3 0.0,2.0 -1.6,3.6 -3.6,3.6 -1.4,0.0 -2.7,-0.9 -3.3,-2.2 -0.6,-1.3 -0.2,-2.9 0.8,-3.9 a 3.6,3.6 0 0 1 2.5,-1.0 z m -4.5,9.0 a 3.1,3.1 0 0 0 -2.2,5.3 3.1,3.1 0 0 0 5.3,-2.2 h 0 c 0,-1.7 -1.4,-3.1 -3.1,-3.1 z m 0.0,0.7 a 1.0,1.0 0 0 1 1.0,1.0 1.0,1.0 0 0 1 -1.0,1.0 1.0,1.0 0 0 1 -1.0,-1.0 1.0,1.0 0 0 1 1.0,-1.0 z m -1.2,2.2 a 1.0,1.0 0 0 1 1.0,1.0 1.0,1.0 0 0 1 -1.0,1.0 1.0,1.0 0 0 1 -1.0,-1.0 1.0,1.0 0 0 1 1.0,-1.0 z m 2.3,0 a 1.0,1.0 0 0 1 1.0,1.0 1.0,1.0 0 0 1 -1.0,1.0 1.0,1.0 0 0 1 -1.0,-1.0 1.0,1.0 0 0 1 1.0,-1.0 z m -4.4,3.0 0.0,0.0 c 0.0,0.0 0.1,1.2 0.1,1.2 h 1.5 a 4.3,4.3 0 0 1 -1.6,-1.2 z m 6.5,0 0.0,0.0 0.0,0.0 z m 0.0,0.0 a 4.3,4.3 0 0 1 -1.6,1.2 h 1.5 c 0.1,-1.2 0.0,0.0 0.1,-1.2 z m -6.3,2.2 v 1.2 h 6.2 v -1.2 h -6.2 z m 0.0,2.2 v 1.2 h 6.2 v -1.2 h -6.2 z"
        style="fill:#000000;stroke:#222222;stroke-width:0.2px"
    />
    <text
        style="font-size:35px;font-family:sans-serif;fill:#000000;stroke:none"
        x="21.6"
        y="30.9"
        id="number"
    >3</text>
    <text
        style="font-size:10px;font-family:sans-serif;fill:#000000;stroke:none"
        x="18.4"
        y="78.0"
        id="name"
    >MASK</text>
</svg>