<svg
    xmlns="http://www.w3.org/2000/svg" 
    height="90"
    width="65"
    viewbox="0 0 60 60"
>
    <rect
        x="0.5"
        y="0.5"
        width="64"
        height="89"
        rx="5"
        ry="5"
        style="fill:#b2b2b2;stroke:#222222;stroke-width:0.5px"
    />
    <path
        d="m 35.5,33.5 c -1.9,0.3 -2.7,1.1 -3.4,1.6 l 0.0,0.0 0.0,0.0 c -5.2,4.0 -7.1,9.0 -7.6,13.7 -0.4,4.5 0.5,8.8 1.1,12.1 -2.4,1.1 -3.8,2.4 -5.1,4.4 3.5,0.1 8.0,0.3 10.8,-1.0 2.3,1.7 7.6,1.3 8.8,0.9 -1.0,-0.8 -2.2,-1.6 -3.8,-1.7 -0.1,-0.7 -0.2,-1.5 -0.2,-2.1 1.8,-7.0 4.1,-13.5 2.1,-22.0 1.9,-0.6 5.5,-1.8 6.2,-2.5 -1.4,-1.1 -6.3,-3.6 -8.9,-3.3 z m 4.2,2.6 0.1,1.0 c -1.7,0.9 -2.4,1.3 -4.2,1.7 -0.6,-1.1 -1.5,-2.1 -2.3,-3.0 2.4,-1.4 3.7,-1.1 6.4,0.4 z m -5.1,3.6 c -0.1,1.3 -0.5,2.6 -0.8,3.8 -0.6,-0.8 -1.4,-1.2 -2.3,-1.2 -0.3,0.0 -0.6,0.1 -1.0,0.2 -0.6,0.3 -1.1,0.8 -1.4,1.6 -0.3,0.8 -0.3,1.7 0.0,2.8 0.4,1.8 0.4,4.8 0.5,7.5 0.0,1.3 0.1,2.5 0.3,3.4 0.1,0.5 0.2,0.9 0.5,1.2 0.2,0.3 0.7,0.6 1.1,0.6 l 0.0,0.0 0.0,0.0 a 3.0,3.0 0 0 0 0.2,0.0 c -0.2,1.5 0.9,2.9 0.9,4.2 -0.7,-0.4 -1.0,-0.7 -1.5,-1.1 -2.6,1.5 -5.9,1.3 -8.4,1.2 1.4,-1.2 2.6,-1.8 4.1,-2.3 -1.0,-4.6 -1.6,-9.0 -1.3,-12.8 0.4,-4.3 2.0,-8.7 6.5,-12.4 1.4,0.4 2.4,2.8 2.4,3.2 z m -1.7,4.6 c 1.3,2.2 1.9,5.8 1.6,8.8 -0.1,1.5 -0.5,2.8 -1.0,3.8 -0.3,0.4 -1.6,1.9 -1.9,1.4 0.0,-0.1 -0.2,-0.4 -0.3,-0.8 -0.2,-0.8 -0.3,-1.9 -0.3,-3.2 -0.1,-2.6 0.0,-5.6 -0.6,-7.7 -0.2,-1.0 -0.2,-1.7 -0.1,-2.1 0.4,-1.3 2.0,-1.0 2.5,-0.2 z"
        style="fill:#000000;stroke:#222222;stroke-width:0.2px"
    />
    <text
        style="font-size:35px;font-family:sans-serif;fill:#000000;stroke:none"
        x="21.6"
        y="30.9"
        id="number"
    >7</text>
    <text
        style="font-size:10px;font-family:sans-serif;fill:#000000;stroke:none"
        x="10.1"
        y="78.0"
        id="name"
    >PENGUIN</text>
</svg>