<svg
    xmlns="http://www.w3.org/2000/svg" 
    height="90"
    width="65"
    viewbox="0 0 60 60"
>
    <rect
        x="0.5"
        y="0.5"
        width="64"
        height="89"
        rx="5"
        ry="5"
        style="fill:#7fbf7f;stroke:#222222;stroke-width:0.5px"
    />
    <path
        d="m 25.6,35.5 c -1.4,1.6 -2.2,3.7 -2.2,5.9 0.0,1.6 0.4,3.2 1.2,4.5 -1.5,0.0 -3.1,0.4 -4.5,1.2 -2.0,1.1 -3.3,2.9 -4.0,4.9 0.7,-1.1 1.6,-2.0 2.8,-2.7 1.6,-0.9 3.4,-1.2 5.1,-1.0 -0.2,0.7 -0.3,1.4 -0.3,2.2 0.0,4.0 2.7,7.4 6.3,8.4 -0.6,1.6 -1.8,3.0 -3.4,3.9 -1.2,0.7 -2.5,1.0 -3.7,1.0 2.1,0.4 4.3,0.1 6.3,-1.0 1.4,-0.8 2.5,-2.0 3.3,-3.3 0.8,1.3 1.9,2.5 3.3,3.3 2.0,1.1 4.2,1.4 6.3,1.0 -1.3,0.0 -2.5,-0.4 -3.7,-1.0 -1.6,-0.9 -2.7,-2.3 -3.4,-3.9 3.6,-1.1 6.3,-4.5 6.3,-8.4 0.0,-0.7 -0.1,-1.5 -0.3,-2.2 1.7,-0.3 3.6,0.0 5.2,0.9 1.2,0.7 2.1,1.6 2.8,2.7 -0.7,-2.0 -2.1,-3.8 -4.0,-4.9 -1.4,-0.8 -3.0,-1.2 -4.5,-1.2 0.8,-1.3 1.2,-2.9 1.2,-4.5 0.0,-2.3 -0.9,-4.3 -2.3,-5.9 0.6,1.1 1.0,2.4 1.0,3.7 0.0,1.9 -0.7,3.7 -1.8,5.0 -1.6,-1.5 -3.7,-2.4 -6.1,-2.4 -2.3,0.0 -4.4,0.9 -6.0,2.4 -1.1,-1.4 -1.7,-3.1 -1.7,-5.0 0.0,-1.4 0.3,-2.6 0.9,-3.7 z m 6.9,7.6 c 2.0,0 3.8,0.8 5.2,2.1 -1.2,1.0 -2.7,1.7 -4.4,1.9 v 1.4 c 0.9,0.3 1.6,1.1 1.6,2.1 0.0,0.2 0.0,0.3 -0.1,0.5 l 1.2,0.7 c 1.0,-1.4 2.3,-2.3 3.8,-2.8 0.1,0.6 0.2,1.2 0.2,1.8 0.0,3.4 -2.3,6.3 -5.4,7.2 C 34.3,56.1 34.4,54.3 35.2,52.7 l -1.2,-0.7 c -0.4,0.3 -0.9,0.5 -1.4,0.5 -0.6,0.0 -1.1,-0.2 -1.4,-0.6 l -1.4,0.8 c 0.8,1.6 1.0,3.4 0.6,5.0 -3.1,-0.9 -5.4,-3.8 -5.4,-7.2 0.0,-0.6 0.1,-1.3 0.2,-1.9 1.5,0.5 2.9,1.5 3.9,2.9 l 1.4,-0.8 c 0.0,-0.1 0.0,-0.3 0.0,-0.4 0.0,-0.9 0.6,-1.7 1.4,-2.0 V 47.0 C 30.2,46.9 28.6,46.2 27.4,45.1 c 1.3,-1.2 3.1,-2.0 5.1,-2.0 z"
        style="fill:#000000;stroke:#222222;stroke-width:0.2px"
    />
    <text
        style="font-size:35px;font-family:sans-serif;fill:#000000;stroke:none"
        x="21.6"
        y="30.9"
        id="number"
    >5</text>
    <text
        style="font-size:10px;font-family:sans-serif;fill:#000000;stroke:none"
        x="13.4"
        y="78.0"
        id="name"
    >POISON</text>
</svg>