<svg
    xmlns="http://www.w3.org/2000/svg" 
    height="90"
    width="65"
    viewbox="0 0 60 60"
>
    <rect
        x="0.5"
        y="0.5"
        width="64"
        height="89"
        rx="5"
        ry="5"
        style="fill:#ffff00;stroke:#222222;stroke-width:0.5px"
    />
    <path
        d="m 41.1,34.0 c -1.8,0.4 -2.6,0.9 -3.4,2.1 -0.7,1.0 -1.4,2.6 -2.3,4.7 0.4,0.0 0.9,0.0 1.3,0.0 l 0.0,1.3 c -7.9,-0.2 -13.0,5.2 -18.6,7.8 1.8,2.7 5.0,4.3 8.6,4.0 3.9,-0.3 8.2,-2.7 11.7,-8.3 l 1.1,0.7 c -3.6,5.9 -8.3,8.6 -12.7,9.0 -1.4,0.1 -2.8,-0.1 -4.1,-0.4 -1.3,1.0 -3.2,2.1 -6.0,3.0 3.9,1.9 9.2,-0.1 12.9,-1.3 2.7,0.4 4.7,0.4 7.0,0.1 -0.1,-0.5 0.0,-0.9 0.1,-1.5 0.3,-1.4 0.9,-3.3 1.9,-5.0 1.0,-1.8 2.2,-3.4 3.7,-4.3 1.0,-0.5 1.9,-0.8 2.9,-0.6 -0.5,-0.9 -1.0,-1.5 -1.6,-2.1 l 0.6,-2.9 c -0.4,-0.2 -0.7,-0.4 -1.0,-0.7 -0.2,-0.2 -0.4,-0.5 -0.5,-0.9 -0.1,-0.3 0.1,-0.8 0.3,-1.0 0.4,-0.4 0.8,-0.8 1.2,-1.2 0.3,-0.3 0.6,-0.6 0.8,-0.8 -0.7,-1.0 -2.0,-1.5 -3.1,-1.5 -0.3,0.0 -0.6,0.0 -0.8,0.1 z m -0.1,1.2 c 0.6,0.0 1.1,0.5 1.1,1.2 0,0.6 -0.5,1.2 -1.1,1.2 -0.6,0 -1.2,-0.5 -1.2,-1.2 0,-0.6 0.5,-1.2 1.2,-1.2 z m 4.9,1.3 c -0.6,0.7 -1.3,1.2 -1.9,1.8 0.2,0.4 0.8,0.6 1.1,0.8 l 3.3,-1.1 z m -3.0,10.3 c -1.1,0.7 -2.3,2.2 -3.2,3.8 -0.9,1.6 -1.5,3.4 -1.7,4.6 -0.1,0.5 -0.1,0.9 -0.1,1.1 4.1,-0.9 6.5,-3.0 7.5,-5.2 0.6,-1.4 0.7,-2.9 0.4,-4.4 -0.9,-0.6 -2.0,-0.4 -2.8,0.1 z m -4.8,10.8 c -0.4,0.1 -0.8,0.2 -1.3,0.2 l 0.7,3.1 -1.6,2.9 0.6,0.5 1.4,-1.6 0.9,2.1 0.6,-0.2 -0.2,-2.2 2.1,0.6 0.2,-0.5 -2.7,-1.6 z m -6.7,0.5 -0.3,3.0 -2.6,1.9 0.2,0.4 2.2,-0.8 0.1,2.2 0.6,-0.1 0.7,-2.1 1.9,1.4 0.3,-0.5 -2.1,-2.5 0.3,-3.0 c -0.5,0.0 -0.9,0.0 -1.3,-0.1 z"
        style="fill:#000000;stroke:#222222;stroke-width:0.2px"
    />
    <text
        style="font-size:35px;font-family:sans-serif;fill:#000000;stroke:none"
        x="21.6"
        y="30.9"
        id="number"
    >4</text>
    <text
        style="font-size:10px;font-family:sans-serif;fill:#000000;stroke:none"
        x="20.6"
        y="78.0"
        id="name"
    >BIRD</text>
</svg>