<svg
    xmlns="http://www.w3.org/2000/svg" 
    height="90"
    width="65"
    viewbox="0 0 60 60"
>
    <rect
        x="0.5"
        y="0.5"
        width="64"
        height="89"
        rx="5"
        ry="5"
        style="fill:#bf7fbf;stroke:#222222;stroke-width:0.5px"
    />
    <path
        d="m 22.8,34.9 c -1.1,0.0 -2.1,1.2 -2.1,2.7 v 25.6 c 0.0,1.5 0.9,2.7 2.1,2.7 h 19.4 c 1.1,0 2.1,-1.2 2.1,-2.7 V 37.7 c 0.0,-1.5 -0.9,-2.7 -2.1,-2.7 z m 1.9,0.8 0.8,2.3 2.4,0.0 -2.0,1.5 0.7,2.3 -2.0,-1.4 -2.0,1.4 0.7,-2.3 -2.0,-1.5 2.4,0.0 z m 15.4,8.1 c 0.5,0.7 0.9,1.5 1.2,2.3 0.3,0.7 0.4,1.5 0.5,2.2 0.0,1.3 -0.3,1.6 -1.0,2.6 l -0.5,-0.8 c -0.8,-0.9 -2.2,-3.4 -3.3,-3.1 -0.5,0.4 -0.6,0.9 -0.7,1.5 0.2,0.6 0.3,1.3 0.3,2.0 0.0,1.1 -0.3,2.1 -0.7,2.9 1.6,0.3 4.1,1.4 4.1,2.8 0.0,0.3 -0.1,0.5 -0.3,0.7 -0.8,0.9 -2.6,0.3 -3.2,0.7 0.1,0.5 0.3,1.0 0.3,1.4 0.0,0.3 -0.1,0.7 -0.5,1.0 -0.4,0.3 -0.9,0.3 -1.3,0.2 -0.8,-0.1 -1.3,-1.0 -2.5,-1.2 -1.0,0.2 -1.6,1.0 -2.5,1.2 -0.4,0.1 -0.9,0.1 -1.3,-0.2 -0.3,-0.2 -0.5,-0.7 -0.5,-1.0 0.0,-0.5 0.3,-1.0 0.3,-1.4 -1.1,-0.5 -2.4,0.1 -3.2,-0.7 -0.2,-0.2 -0.3,-0.5 -0.3,-0.7 0.4,-1.9 2.5,-2.4 4.1,-2.8 -0.5,-0.8 -0.7,-1.8 -0.7,-2.9 0.0,-0.8 0.1,-1.6 0.4,-2.3 -0.2,-0.6 -0.2,-1.1 -0.7,-1.6 -0.6,-0.1 -1.0,0.5 -1.3,0.9 -0.8,1.4 -1.3,2.2 -2.3,3.3 -1.2,-1.7 -1.4,-3.5 -0.9,-5.0 0.4,-1.4 1.4,-2.7 2.7,-3.4 1.5,-0.7 2.8,-0.7 4.2,0.0 0.4,-0.9 0.7,-1.8 1.3,-2.6 0.7,-0.9 1.7,-1.8 3.1,-1.8 2.7,0.0 5.2,3.6 5.2,5.8 z m -5.1,-4.5 c -2.5,0.2 -3.2,3.2 -3.9,5.0 l -0.7,-0.5 c -1.3,-0.9 -2.2,-1.0 -3.5,-0.3 -0.9,0.4 -1.7,1.5 -2.0,2.6 -0.2,0.8 -0.3,1.6 -0.1,2.4 0.7,-1.0 1.1,-2.1 2.0,-2.8 0.5,-0.6 1.9,-0.6 2.5,0.3 0.3,0.5 0.5,1.0 0.7,1.6 h 5.1 c 0.0,-0.1 0.1,-0.3 0.1,-0.4 0.2,-0.5 0.5,-1.1 1.3,-1.4 1.3,-0.3 2.3,0.5 3.1,1.3 0.3,0.3 0.6,0.7 0.9,1.0 0.0,-0.5 -0.2,-1.0 -0.4,-1.6 -0.9,-2.6 -2.7,-3.6 -5.0,-2.3 0.2,-1.2 1.2,-2.5 3.3,-1.9 -0.6,-1.2 -2.1,-3.0 -3.4,-3.0 z m -5.0,9.5 c -0.2,0.5 -0.3,1.0 -0.3,1.6 0.0,1.1 0.3,2.1 0.9,2.8 0.5,0.7 1.2,1.1 1.9,1.1 0.7,0.0 1.4,-0.4 1.9,-1.1 0.5,-0.7 0.9,-1.7 0.9,-2.8 0.0,-0.6 -0.1,-1.1 -0.3,-1.6 z m 0.8,3.3 h 3.4 c 0.0,0.0 -0.6,1.0 -1.7,1.0 -1.1,0 -1.7,-1.0 -1.7,-1.0 z M 29.9,54.5 c -1.0,0.2 -3.6,0.6 -3.7,1.5 0.7,0.1 1.4,0.1 2.0,0.2 0.4,0.1 0.9,0.2 1.2,0.7 0.2,0.3 0.3,0.7 0.2,1.0 0.0,0.4 -0.2,0.7 -0.3,1.2 1.1,-0.2 2.0,-1.2 2.9,-1.3 1.1,0.0 2.1,1.2 2.9,1.3 -0.1,-0.4 -0.2,-0.8 -0.3,-1.2 0.0,-0.3 0.0,-0.7 0.2,-1.0 0.3,-0.4 0.8,-0.6 1.2,-0.7 0.7,-0.2 1.4,0.0 2.0,-0.2 -0.4,-0.9 -2.8,-1.4 -3.7,-1.5 -0.7,0.7 -1.5,1.1 -2.5,1.1 -0.9,0.0 -1.8,-0.4 -2.5,-1.1 z m 8.3,4.6 2.0,1.4 2.0,-1.4 -0.7,2.3 2.0,1.5 -2.4,0.0 -0.8,2.3 -0.8,-2.3 -2.4,0.0 2.0,-1.5 z"
        style="fill:#000000;stroke:#222222;stroke-width:0.2px"
    />
    <text
        style="font-size:35px;font-family:sans-serif;fill:#000000;stroke:none"
        x="21.6"
        y="30.9"
        id="number"
    >8</text>
    <text
        style="font-size:10px;font-family:sans-serif;fill:#000000;stroke:none"
        x="18.7"
        y="78.0"
        id="name"
    >JOKER</text>
</svg>