<svg
    xmlns="http://www.w3.org/2000/svg" 
    height="90"
    width="65"
    viewbox="0 0 60 60"
>
    <rect
        x="0.5"
        y="0.5"
        width="64"
        height="89"
        rx="5"
        ry="5"
        style="fill:#ffd9df;stroke:#222222;stroke-width:0.5px"
    />
    <path
        d="m 19.2,32.5 -0.2,0.7 c -0.6,2.6 -1.0,5.4 -1.0,8.4 0.0,6.3 1.6,12.1 4.1,16.3 1.2,1.9 2.6,3.5 4.1,4.7 1.8,1.4 3.8,2.2 5.9,2.2 0.0,0.0 0.1,0.0 0.1,0.0 0.0,0.0 0.1,0.0 0.1,0.0 4.1,0.0 7.7,-2.7 10.3,-6.9 2.6,-4.2 4.1,-10.0 4.1,-16.3 0.0,-2.8 -0.3,-5.5 -0.9,-8.0 l -0.2,-0.7 -0.7,0.3 c -3.5,1.5 -7.7,2.4 -12.4,2.4 -0.1,0.0 -0.3,0.0 -0.4,0.0 v 0.0 c -0.1,0 -0.2,0.0 -0.3,0.0 -4.7,-0.1 -8.5,-1.2 -12.4,-2.8 l -0.6,-0.3 z m 25.9,2.0 c 0.5,2.2 0.7,4.6 0.7,7.1 0.0,6.1 -1.5,11.7 -4.0,15.7 -2.4,4.0 -5.7,6.3 -9.3,6.3 0.0,0.0 0.0,0.0 0.0,0.0 v -4.3 c -0.2,0.0 -0.4,0.0 -0.5,0.0 -3.8,-0.2 -7.4,-2.6 -8.3,-6.8 L 23.5,51.6 h 6.4 l 2.5,1.0 V 36.7 c 0.1,0.0 0.3,0.0 0.4,0.0 h 0.0 c 4.5,0.0 8.7,-0.8 12.2,-2.3 z M 26.0,41.1 c 2.4,0 4.3,0.9 4.3,2.0 0.0,1.1 -1.9,2.0 -4.3,2.0 -2.4,0.0 -4.3,-0.9 -4.3,-2.0 0.0,-1.1 1.9,-2.0 4.3,-2.0 z m 12.7,0.0 c -2.4,0.0 -4.3,0.9 -4.3,2.0 0,1.1 1.9,2.0 4.3,2.0 2.4,0.0 4.3,-0.9 4.3,-2.0 0.0,-1.1 -1.9,-2.0 -4.3,-2.0 z M 25.1,52.9 c 1.0,3.1 3.9,4.9 6.9,5.0 3.0,0.2 6.1,-1.3 7.5,-5.0 h -3.9 l -3.0,1.1 -2.9,-1.1 h -4.6 z"
        style="fill:#000000;stroke:#222222;stroke-width:0.2px"
    />
    <text
        style="font-size:35px;font-family:sans-serif;fill:#000000;stroke:none"
        x="21.6"
        y="30.9"
        id="number"
    >6</text>
    <text
        style="font-size:10px;font-family:sans-serif;fill:#000000;stroke:none"
        x="18.4"
        y="78.0"
        id="name"
    >FACE</text>
</svg>