<svg
    xmlns="http://www.w3.org/2000/svg" 
    height="40"
    width="40"
    viewbox="0 0 40 40"
>
    <rect
        x="0.5"
        y="0.5"
        width="39"
        height="39"
        rx="5"
        ry="5"
        style="fill:#ccac00;stroke:#222222;stroke-width:0.5px"
    />
    <path
        d="m 28.9,11.2 c 0.0,0.0 -0.6,4.6 -6.6,6.9 v -2.1 c -0.3,-0.1 -0.4,0.6 -0.6,0.8 h -3.3 c -0.2,-0.1 -0.3,-0.8 -0.6,-0.8 v 2.1 C 11.7,15.9 11.1,11.2 11.1,11.2 6.1,16.8 1.1,17.9 1.1,17.8 9.6,16.5 9.5,21.6 9.5,21.6 15.3,20.6 15.0,24.6 15.0,24.6 20.1,24.0 20.0,29.0 20.0,29.0 c 0.0,0.0 0.0,-4.9 5.1,-4.4 0.0,0.0 -0.3,-4.1 5.5,-3.0 0.0,0.0 -0.1,-5.1 8.5,-3.7 0.0,0.0 -5.1,-1.0 -10.1,-6.7 z"
        style="fill:#000000;stroke:#222222;stroke-width:0.2px"
    />
</svg>