<svg
    xmlns="http://www.w3.org/2000/svg" 
    height="30"
    width="30"
    viewbox="0 0 30 30"
>
    <rect
        x="0.5"
        y="0.5"
        width="29"
        height="29"
        rx="2"
        ry="2"
        style="fill:#8de48d;stroke:#222222;stroke-width:0.2px"
    />
    <path
        d="m 18.7,5.0 -5.1,3.3 0.5,0.3 4.6,-2.9 7.7,4.4 -4.4,2.8 0.2,0.1 v 0.4 l 3.5,-2.2 0.7,0.4 -4.2,2.7 v 0.6 l 3.4,-2.2 0.8,0.5 -4.2,2.7 v 0.6 l 3.4,-2.2 0.8,0.5 -4.2,2.7 v 0.6 l 5.3,-3.4 -1.3,-0.7 1.3,-0.8 -1.3,-0.7 1.3,-0.8 -1.2,-0.7 1.3,-0.8 -8.8,-5.0 z m 1.6,2.4 C 19.3,7.9 17.8,8.0 16.8,7.6 l -2.0,1.3 6.7,3.7 1.9,-1.2 C 22.6,10.7 22.6,9.8 23.5,9.1 L 20.4,7.3 Z m -6.9,1.9 -3.7,2.4 7.2,4.1 0.1,0.0 c 0.1,-0.1 0.3,-0.2 0.5,-0.3 0.4,-0.3 1.0,-0.7 1.6,-1.0 0.8,-0.5 1.3,-0.8 1.7,-1.1 z m 6.1,0.1 a 0.5,0.8 82.1 0 1 0.0,0 0.5,0.8 82.1 0 1 0.4,0.1 0.5,0.8 82.1 0 1 0.0,0.6 0.5,0.8 82.1 0 1 -1.1,0.1 0.5,0.8 82.1 0 1 0.0,-0.6 0.5,0.8 82.1 0 1 0.6,-0.2 z m -11.5,2.5 -5.6,3.6 1.2,0.7 -1.3,0.8 1.3,0.7 -1.3,0.8 1.3,0.7 -1.3,0.8 8.8,5.0 5.3,-3.4 V 21.0 l -5.2,3.4 -7.7,-4.4 0.8,-0.5 6.9,3.9 5.3,-3.4 v -0.6 l -5.2,3.4 -7.7,-4.4 0.8,-0.5 6.9,3.9 5.3,-3.4 v -0.6 l -5.2,3.4 -7.7,-4.4 0.7,-0.4 7.0,4.0 5.3,-3.4 v -0.3 l -0.3,-0.2 -4.9,3.2 L 3.6,15.3 8.6,12.1 8.1,11.8 Z m 1.1,0.6 -2.5,1.6 c 0.8,0.6 0.7,1.5 -0.2,2.2 l 3.1,1.8 c 1.1,-0.6 2.6,-0.7 3.6,-0.2 l 2.4,-1.6 -6.5,-3.8 z m 12.1,1.7 c -0.4,0.3 -0.8,0.5 -1.6,1.0 -0.6,0.4 -1.2,0.8 -1.6,1.0 -0.2,0.1 -0.4,0.3 -0.5,0.3 0.0,0.0 0.0,0.0 0.0,0.0 v 4.5 l 3.8,-2.5 v -4.4 z m -10.6,0.9 a 0.5,0.8 82.1 0 1 0.4,0.1 0.5,0.8 82.1 0 1 0.0,0.6 0.5,0.8 82.1 0 1 -1.1,0.1 0.5,0.8 82.1 0 1 0.0,-0.6 0.5,0.8 82.1 0 1 0.6,-0.2 z"
        style="fill:#70b670;stroke:none"
    />
</svg>