<svg
    xmlns="http://www.w3.org/2000/svg" 
    height="60"
    width="60"
    viewbox="0 0 60 60"
>
    <rect
        x="0.5"
        y="0.5"
        width="59"
        height="59"
        rx="5"
        ry="5"
        style="fill:#969696;stroke:#222222;stroke-width:0.5px"
    />
    <path
        d="m 8.6,12.1 c -2.6,3.2 -4.2,7.5 -4.4,11.1 -0.1,2.2 1.1,4.9 2.9,7.1 1.8,2.2 4.2,3.8 6.0,4.0 1.3,0.1 2.2,-1.1 2.9,-1.9 1.1,-1.4 2.2,-3.5 3.4,-5.6 1.2,-2.1 2.4,-4.2 3.9,-5.8 1.5,-1.6 3.5,-2.6 5.7,-2.1 0.4,0.1 0.4,0.2 1.4,1.0 1.5,1.2 3.0,2.5 4.8,4.5 l 0.4,0.4 1.2,-0.7 C 34.5,21.4 32.4,18.2 30.3,15.4 27.2,11.2 24.0,7.8 19.5,7.3 15.3,6.9 10.9,9.4 8.6,12.1 Z M 39.3,11.8 c -0.4,0.0 -0.8,0.1 -1.3,0.2 -0.8,0.2 -1.7,0.7 -2.5,1.3 l 7.0,1.4 c -0.1,-1.0 -0.5,-1.7 -1.1,-2.2 -0.5,-0.4 -1.2,-0.6 -1.9,-0.7 -0.1,0.0 -0.1,0.0 -0.2,0.0 z m 1.5,3.8 -0.8,1.8 2.1,1.1 z m -5.9,2.5 c 1.1,1.5 2.1,2.9 3.2,4.2 0.8,-0.5 1.7,-1.2 2.4,-2.1 a 9.9,9.9 0 0 0 0.3,-0.4 z m -7.2,2.7 c -1.0,0.0 -1.8,0.6 -2.8,1.6 -3.4,3.8 -6.5,10.7 -2.9,15.5 1.4,1.7 8.3,3.9 14.9,3.9 4.4,3.1 7.3,7.2 10.8,10.9 2.1,-3.1 4.0,-6.2 8.1,-9.0 l -2.3,-1.5 c -3.1,0.9 -4.2,3.0 -5.8,4.8 -2.1,-3.0 -4.7,-5.7 -7.6,-8.0 -2.0,-1.7 -4.4,-2.9 -6.7,-4.3 0.3,-0.1 -0.8,-2.3 -0.9,-2.5 -3.4,-0.8 -5.7,-2.6 -7.2,-4.5 l 1.6,-1.3 c 1.6,2.0 4.1,3.9 8.5,4.1 2.3,-0.3 3.4,-0.8 4.1,-1.3 0.6,-0.5 1.0,-1.3 1.5,-2.4 0.1,-0.7 0.0,-0.9 -0.3,-1.2 -0.2,-0.2 -0.6,-0.4 -1.0,-0.5 l -4.5,2.7 -0.6,-0.7 C 32.6,24.4 31.0,23.1 29.2,21.6 28.8,21.2 28.4,20.9 27.8,20.8 a 2.9,2.9 0 0 0 -0.2,0.0 z M 13.2,36.5 c -2.4,1.8 -4.9,3.2 -8.2,3.3 l 0.3,3.1 6.7,-2.2 c 2.3,2.7 3.8,5.9 7.5,7.9 4.3,-1.5 6.6,-3.7 8.9,-5.9 -2.5,-0.7 -4.9,-1.7 -7.1,-2.8 l -1.6,4.0 z"
        style="fill:#000000;stroke:#222222;stroke-width:0.1px"
    />
    <path
        d="m 47.0,35.2 c -6.2,0.0 -11.3,5.0 -11.3,11.3 0.0,6.2 5.0,11.3 11.3,11.3 6.2,0.0 11.3,-5.0 11.3,-11.3 0.0,-6.2 -5.0,-11.3 -11.3,-11.3 z m 0.0,2.8 c 4.7,0.0 8.4,3.8 8.4,8.4 0.0,4.7 -3.8,8.4 -8.4,8.4 -4.7,0.0 -8.4,-3.8 -8.4,-8.4 0.0,-4.7 3.8,-8.4 8.4,-8.4 z m -3.8,2.8 c -0.0,0.0 -0.1,0.0 -0.1,0.0 v 0.0 c -0.9,0.2 -2.1,1.6 -1.6,2.2 l 3.4,3.4 -3.4,3.4 c -0.7,0.7 1.4,2.7 2.1,2.1 l 3.4,-3.4 3.4,3.4 c 0.7,0.7 2.7,-1.4 2.1,-2.1 l -3.4,-3.4 3.4,-3.4 c 0.7,-0.7 -1.4,-2.7 -2.1,-2.1 l -3.4,3.4 -3.4,-3.4 c -0.1,-0.1 -0.2,-0.1 -0.4,-0.1 z"
        style="fill:#ffffff;stroke:#222222;stroke-width:0.1px"
    />
</svg>