<svg
    xmlns="http://www.w3.org/2000/svg" 
    height="60"
    width="60"
    viewbox="0 0 60 60"
>
    <rect
        x="0.5"
        y="0.5"
        width="59"
        height="59"
        rx="5"
        ry="5"
        style="fill:#f44336;stroke:#222222;stroke-width:0.5px"
    />
    <path
        d="m 8.5,3.1 c -1.7,0.0 -3.0,1.3 -3.0,3.0 0.0,1.7 1.3,3.0 3.0,3.0 1.7,0.0 3.0,-1.3 3.0,-3.0 0.0,-1.7 -1.3,-3.0 -3.0,-3.0 z m 43.0,0.0 c -1.7,0.0 -3.0,1.3 -3.0,3.0 0.0,1.7 1.3,3.0 3.0,3.0 1.7,0.0 3.0,-1.3 3.0,-3.0 0.0,-1.7 -1.3,-3.0 -3.0,-3.0 z M 8.5,11.2 c -1.7,0.0 -3.0,1.3 -3.0,3.0 0,1.7 1.3,3.0 3.0,3.0 1.7,0.0 3.0,-1.3 3.0,-3.0 0.0,-1.7 -1.3,-3.0 -3.0,-3.0 z m 43.0,0.0 c -1.7,0.0 -3.0,1.3 -3.0,3.0 0.0,1.7 1.3,3.0 3.0,3.0 1.7,0.0 3.0,-1.3 3.0,-3.0 0.0,-1.7 -1.3,-3.0 -3.0,-3.0 z m -41.0,8.1 c -1.7,0.0 -3.0,1.3 -3.0,3.0 0,1.7 1.3,3.0 3.0,3.0 1.7,0.0 3.0,-1.3 3.0,-3.0 0.0,-1.7 -1.3,-3.0 -3.0,-3.0 z m 39.0,0.0 c -1.7,0.0 -3.0,1.3 -3.0,3.0 0.0,1.7 1.3,3.0 3.0,3.0 1.7,0.0 3.0,-1.3 3.0,-3.0 0.0,-1.7 -1.3,-3.0 -3.0,-3.0 z m -34.9,8.1 c -1.7,0.0 -3.0,1.3 -3.0,3.0 0.0,1.7 1.3,3.0 3.0,3.0 1.7,0.0 3.0,-1.3 3.0,-3.0 0.0,-1.7 -1.3,-3.0 -3.0,-3.0 z m 30.8,0.0 c -1.7,0 -3.0,1.3 -3.0,3.0 0,1.7 1.3,3.0 3.0,3.0 1.7,0.0 3.0,-1.3 3.0,-3.0 0.0,-1.7 -1.3,-3.0 -3.0,-3.0 z m -23.6,5.0 c -1.7,0.0 -3.0,1.3 -3.0,3.0 0.0,1.7 1.3,3.0 3.0,3.0 1.7,0 3.0,-1.3 3.0,-3.0 0.0,-1.7 -1.3,-3.0 -3.0,-3.0 z m 16.3,0.0 c -1.7,0.0 -3.0,1.3 -3.0,3.0 0.0,1.7 1.3,3.0 3.0,3.0 1.7,0.0 3.0,-1.3 3.0,-3.0 0.0,-1.7 -1.3,-3.0 -3.0,-3.0 z M 30.0,34.5 c -1.7,0 -3.0,1.3 -3.0,3.0 0,1.7 1.3,3.0 3.0,3.0 1.7,0.0 3.0,-1.3 3.0,-3.0 0,-1.7 -1.3,-3.0 -3.0,-3.0 z m 0.0,8.1 c -3.9,0.0 -7.1,3.2 -7.1,7.1 0,3.9 3.2,7.1 7.1,7.1 3.9,0.0 7.1,-3.2 7.1,-7.1 0.0,-3.9 -3.2,-7.1 -7.1,-7.1 z"
        style="fill:#000000;stroke:#222222;stroke-width:0.1px"
    />
</svg>