<svg
    xmlns="http://www.w3.org/2000/svg" 
    height="60"
    width="60"
    viewbox="0 0 60 60"
>
    <rect
        x="0.5"
        y="0.5"
        width="59"
        height="59"
        rx="5"
        ry="5"
        style="fill:#ffa500;stroke:#222222;stroke-width:0.5px"
    />
    <path
        d="m 17.6,9.6 c -0.2,0.0 -0.4,0.1 -0.6,0.1 L 4.5,14.3 c -0.5,0.2 -1.0,0.6 -1.3,1.2 -0.2,0.5 -0.3,1.2 -0.1,1.7 l 8.0,21.7 c 0.2,0.5 0.6,1.0 1.2,1.3 0.5,0.2 1.2,0.3 1.7,0.1 l 12.4,-4.6 c 0.5,-0.2 1.0,-0.6 1.3,-1.2 l 0.0,0.0 c 0.2,-0.5 0.3,-1.2 0.1,-1.7 L 19.8,11.0 C 19.6,10.5 19.1,10.0 18.6,9.8 l 0.0,0.0 C 18.4,9.7 18.1,9.6 17.8,9.6 c -0.1,0.0 -0.1,0.0 -0.2,0.0 z m 4.7,1.6 7.6,20.8 c 0.4,1.1 0.4,2.3 -0.1,3.4 -0.5,1.1 -1.4,1.9 -2.5,2.3 l -3.3,1.2 7.2,0.3 c 0.6,0.0 1.2,-0.2 1.6,-0.6 0.4,-0.4 0.7,-1.0 0.7,-1.5 l 1.1,-23.1 c 0.0,-0.6 -0.2,-1.2 -0.6,-1.6 -0.4,-0.4 -1.0,-0.7 -1.5,-0.7 L 22.2,11.2 Z m 14.5,4.0 -1.0,22.1 c -0.1,1.2 -0.6,2.3 -1.5,3.1 -0.9,0.8 -2.0,1.2 -3.2,1.2 l -3.1,-0.1 8.3,2.8 c 0.5,0.2 1.2,0.1 1.7,-0.1 0.5,-0.3 0.9,-0.8 1.1,-1.3 L 46.3,20.7 c 0.2,-0.5 0.1,-1.2 -0.1,-1.7 -0.3,-0.5 -0.8,-0.9 -1.3,-1.1 l -8.2,-2.7 z m -24.5,2.2 c 2.9,3.0 8.1,2.1 9.7,5.4 1.4,3.1 -1.7,5.5 -4.5,4.6 l 2.0,3.7 -2.2,0.8 -1.3,-3.8 C 14.5,30.8 10.6,31.0 9.3,28.1 7.7,24.5 12.2,21.6 12.2,17.4 Z m 36.0,4.7 -7.1,21.4 c -0.4,1.1 -1.2,2.1 -2.2,2.6 l 0.0,0.0 c -1.1,0.5 -2.3,0.6 -3.4,0.2 l -2.4,-0.8 5.2,4.4 c 0.4,0.4 1.1,0.6 1.6,0.5 0.6,0.0 1.2,-0.3 1.5,-0.8 L 56.4,32.0 c 0.4,-0.4 0.6,-1.1 0.5,-1.6 0.0,-0.6 -0.3,-1.2 -0.8,-1.5 l -7.9,-6.8 z"
        style="fill:#000000;stroke:#222222;stroke-width:0.1px"
    />
</svg>