<svg
    xmlns="http://www.w3.org/2000/svg" 
    height="60"
    width="60"
    viewbox="0 0 60 60"
>
    <rect
        x="0.5"
        y="0.5"
        width="59"
        height="59"
        rx="5"
        ry="5"
        style="fill:#ffa500;stroke:#222222;stroke-width:0.5px"
    />
    <path
        d="m 30.0,7.2 c -2.4,0.0 -4.8,0.3 -6.5,0.8 -0.8,0.3 -1.5,0.6 -1.9,0.9 -0.4,0.3 -0.5,0.6 -0.5,0.9 l 0.0,0.9 H 8.0 v 1.4 H 52.0 V 10.7 H 38.9 l 0.0,-0.9 C 38.9,9.5 38.8,9.3 38.4,8.9 38.0,8.6 37.3,8.3 36.5,8.0 34.8,7.4 32.4,7.2 30.0,7.2 Z M 7.7,13.8 6.7,23.0 H 14.9 l 2.1,-8.5 -0.6,8.5 h 8.3 l 1.7,-8.5 -0.3,8.5 h 7.7 l -0.5,-8.5 1.9,8.5 h 8.3 l -0.6,-8.5 2.1,8.5 h 8.3 L 52.3,13.8 Z M 6.5,24.8 6.4,25.3 C 7.9,27.3 9.2,28.1 10.4,28.1 c 1.2,0 2.5,-0.9 4.1,-3.0 l 0.1,-0.3 z m 9.8,0.0 0.0,0.4 c 1.5,2.1 2.8,2.9 4.0,2.9 1.2,0.0 2.5,-0.9 4.1,-3.0 l 0.1,-0.3 z m 9.8,0.0 0.0,0.4 C 27.5,27.3 28.9,28.1 30.0,28.1 c 1.1,0.0 2.5,-0.8 4.0,-2.9 l 0.0,-0.4 h -7.9 z m 9.6,0.0 0.1,0.3 c 1.5,2.2 2.9,3.0 4.1,3.0 1.1,0.0 2.5,-0.8 4.0,-2.9 l 0.0,-0.4 h -8.1 z m 9.8,0.0 0.1,0.3 c 1.5,2.2 2.9,3.0 4.1,3.0 1.1,0 2.5,-0.8 4.0,-2.9 l -0.1,-0.4 h -8.0 z m -30.2,2.2 c -1.5,1.8 -3.1,2.9 -4.9,2.9 -1.4,0 -2.7,-0.7 -4.0,-1.9 v 24.8 H 38.9 V 32.5 h 11.7 v 20.4 h 3.1 v -24.8 c -1.2,1.2 -2.6,1.9 -4.0,1.9 -1.8,0.0 -3.4,-1.1 -4.9,-2.9 -1.5,1.8 -3.1,2.9 -4.9,2.9 -1.8,0.0 -3.4,-1.1 -4.9,-2.9 -1.5,1.8 -3.1,2.9 -4.9,2.9 -1.8,0.0 -3.4,-1.1 -4.9,-2.9 -1.5,1.8 -3.1,2.9 -4.9,2.9 -1.8,0.0 -3.4,-1.1 -4.9,-2.9 z M 9.5,32.5 H 35.8 v 17.5 H 9.5 Z m 1.8,1.8 V 48.1 H 34.0 V 34.2 Z m 29.4,0 v 7.0 l 8.0,0.1 V 34.2 Z M 12.8,35.7 H 25.9 C 14.8,36.5 14.0,38.0 12.8,46.8 Z m 27.9,7.3 v 1.4 l 8.0,0.1 V 43.0 l -8.0,-0.1 z m 0.0,3.1 v 6.8 h 8.0 V 46.1 l -8.0,-0.1 z"
        style="fill:#000000;stroke:#222222;stroke-width:0.1px"
    />
</svg>