<svg
    xmlns="http://www.w3.org/2000/svg" 
    height="60"
    width="60"
    viewbox="0 0 60 60"
>
    <rect
        x="0.5"
        y="0.5"
        width="59"
        height="59"
        rx="5"
        ry="5"
        style="fill:#a6a6ed;stroke:#222222;stroke-width:0.5px"
    />
    <path
        d="M 6.1,51.3 H 17.1 V 49.4 H 6.1 Z m 31.6,-20.7 v -5.9 l 2.0,-0.1 v 7.9 H 25.5 c 0.3,-0.6 0.5,-1.4 0.8,-2.0 z m 17.3,-22.0 1.8,1.1 h -1.8 z M 8.9,8.7 H 10.8 V 9.8 H 8.9 Z M 30.4,25.2 c 0.0,1.1 0.3,2.6 1.3,3.9 -1.2,-0.2 -2.7,-1.7 -3.6,-2.7 0.2,-0.4 0.3,-0.8 0.4,-1.1 z M 14.4,17.6 v -5.9 h 2.0 v 5.9 z m 7.9,0.0 v -5.9 h 2.0 v 5.9 z m -14.4,0.0 v -5.9 h 4.6 v 5.9 z m 10.5,0.0 V 11.7 H 20.3 v 5.9 z m -7.3,7.8 c 0.0,-1.5 -1.7,-4.0 -3.7,-4.0 -2.5,0 -1.4,-1.0 -0.2,-1.8 H 57.4 v 2.3 l -30.3,1.5 c -0.6,1.4 -2.7,6.8 -4.3,11.0 l 0.6,1.2 -1.1,0.2 c -0.4,1.1 -1.4,3.5 -1.8,4.6 l 0.4,1.2 -1.0,0.4 c -1.5,3.8 -2.1,5.5 -2.1,5.5 H 5.9 c 0.0,0.0 -3.3,-1.1 -3.3,-2.0 C 2.6,40.2 10.9,29.7 11.0,25.4 Z M 26.2,11.7 h 31.2 v 5.9 h -31.2 z"
        style="fill:#000000;stroke:#222222;stroke-width:0.1px"
    />
</svg>