<svg
    xmlns="http://www.w3.org/2000/svg" 
    height="60"
    width="60"
    viewbox="0 0 60 60"
>
    <rect
        x="0.5"
        y="0.5"
        width="59"
        height="59"
        rx="5"
        ry="5"
        style="fill:#ffa500;stroke:#222222;stroke-width:0.5px"
    />
    <path
        d="m 49.0,4.6 c -1.5,0.0 -4.3,1.1 -5.3,2.2 H 9.1 c -3.6,0.0 -3.6,7.1 0,7.1 H 43.6 c 1.0,1.1 3.8,2.2 5.3,2.2 1.9,0.0 3.7,-1.5 4.6,-3.1 h -4.4 l -2.4,-2.7 2.4,-2.7 h 4.4 C 52.6,6.0 50.9,4.6 49.0,4.6 Z M 10.9,8.6 c 1.0,0.0 1.8,0.8 1.8,1.8 0.0,1.0 -0.8,1.8 -1.8,1.8 -1.0,0.0 -1.8,-0.8 -1.8,-1.8 0.0,-1.0 0.8,-1.8 1.8,-1.8 z m 8.4,13.0 c -0.9,0.0 -1.5,0.4 -2.2,1.0 -0.7,0.5 -1.4,1.2 -2.2,2.0 -1.5,1.5 -3.2,3.1 -4.9,4.3 l 5.1,0.1 c 1.2,-2.3 2.0,-4.5 4.3,-5.3 h 7.9 v 5.6 l 2.0,0.1 v -5.7 h 2.6 c 1.3,0 3.4,1.2 5.6,2.9 1.2,0.9 2.3,2.0 3.5,3.1 l 5.5,0.1 5.5,-6.5 -1.5,-1.3 -6.6,7.7 c -1.6,-1.5 -3.3,-3.3 -5.2,-4.7 -2.3,-1.8 -4.6,-3.3 -6.9,-3.3 z M 6.8,30.7 c -0.6,0.0 -1.2,0.3 -1.7,0.8 -0.5,0.5 -0.8,1.2 -0.8,1.7 0,1.4 0.8,3.6 1.9,5.3 0.5,0.8 1.0,1.5 1.5,1.9 0.0,0.0 0.0,0.0 0.0,0.0 0.0,-3.5 2.9,-6.3 6.3,-6.3 3.5,0.0 6.3,2.9 6.3,6.3 0.0,0.3 0.0,0.5 0.0,0.8 h 21.3 a 6.3,6.3 0 0 1 0.0,-0.8 c 0.0,-3.5 2.9,-6.3 6.3,-6.3 3.5,0.0 6.3,2.9 6.3,6.3 0.0,0.3 -0.0,0.5 0.0,0.8 h 1.0 l 0.6,-5.0 c 0.0,-1.4 -0.7,-2.4 -1.6,-3.2 -0.9,-0.7 -2.2,-1.1 -2.7,-1.1 h 0.0 z m 7.1,5.3 c -2.4,0.0 -4.3,1.9 -4.3,4.3 0.0,2.4 1.9,4.3 4.3,4.3 2.4,0.0 4.3,-1.9 4.3,-4.3 0.0,-2.4 -1.9,-4.3 -4.3,-4.3 z m 33.8,0.0 c -2.4,0.0 -4.3,1.9 -4.3,4.3 0.0,2.4 1.9,4.3 4.3,4.3 2.4,0.0 4.3,-1.9 4.3,-4.3 0.0,-2.4 -1.9,-4.3 -4.3,-4.3 z m -23.9,7.1 v 1.6 h 12.2 v -1.6 z m 5.3,3.6 v 5.1 h 1.6 v -5.1 z m -3.9,7.1 -0.8,1.6 h 11.0 l -0.8,-1.6 z"
        style="fill:#000000;stroke:#222222;stroke-width:0.1px"
    />
</svg>