<svg
    xmlns="http://www.w3.org/2000/svg" 
    height="60"
    width="60"
    viewbox="0 0 60 60"
>
    <rect
        x="0.5"
        y="0.5"
        width="59"
        height="59"
        rx="5"
        ry="5"
        style="fill:#4CA64C;stroke:#222222;stroke-width:0.5px"
    />
    <path
        d="m 26.2,2.9 c -0.1,0.0 -0.4,0.1 -0.7,0.4 -0.3,0.3 -0.7,0.8 -1.0,1.3 -0.6,1.1 -1.1,2.5 -1.1,3.1 0.0,0.6 0.4,2.6 1.1,4.2 0.3,0.8 0.7,1.5 1.1,2.0 0.4,0.5 0.6,0.5 0.6,0.5 h 7.8 c -0.1,0.0 0.2,-0.1 0.6,-0.5 0.4,-0.5 0.8,-1.2 1.1,-2.0 0.7,-1.6 1.1,-3.6 1.1,-4.2 0.0,-0.6 -0.4,-2.0 -1.1,-3.1 C 35.5,4.0 35.1,3.6 34.8,3.3 34.4,3.0 34.2,2.9 34.0,2.9 h -7.8 z m 0.9,13.7 -1.0,4.6 7.7,-1.9 -0.6,-2.7 h -6.0 z m 7.1,4.9 -8.7,2.2 -1.3,5.9 11.2,-2.8 -1.2,-5.3 z m 1.6,7.4 -12.2,3.0 -1.3,5.9 14.6,-3.7 -1.2,-5.3 z m 1.6,7.4 -15.7,3.9 -1.3,5.9 18.1,-4.5 z m 1.6,7.4 -19.1,4.8 -0.4,1.7 4.3,2.9 16.4,-4.1 z m -0.9,8.0 -11.9,3.0 3.7,2.5 8.2,-5.4 z"
        style="fill:#000000;stroke:#222222;stroke-width:0.1px"
    />
</svg>