<svg
    xmlns="http://www.w3.org/2000/svg" 
    height="60"
    width="60"
    viewbox="0 0 60 60"
>
    <rect
        x="0.5"
        y="0.5"
        width="59"
        height="59"
        rx="5"
        ry="5"
        style="fill:#ffa500;stroke:#222222;stroke-width:0.5px"
    />
    <path
        d="m 16.2,3.7 v 2.6 h 5.9 V 3.7 Z m 0.0,4.7 v 10.2 c -2.9,2.0 -4.9,4.4 -4.9,6.4 v 29.4 c 0.0,0.0 0.0,1.9 2.0,1.9 H 25.0 c 2.0,0 2.0,-2.0 2.0,-2.0 V 25.0 c 0.0,-2.0 -2.0,-4.4 -4.9,-6.4 V 8.4 Z M 13.2,29.0 H 25.1 V 47.2 H 13.2 Z m 22.0,0.3 -0.2,0.7 c -1.0,2.9 -1.4,6.6 -0.7,9.8 0.4,1.6 1.1,3.1 2.2,4.2 1.0,0.9 2.3,1.5 3.8,1.7 v 8.4 c -2.2,0.5 -5.1,2.1 -5.1,2.1 h 12.2 c 0.0,0.0 -2.9,-1.7 -5.1,-2.1 v -8.4 c 1.6,-0.2 2.9,-0.8 3.8,-1.7 1.2,-1.1 1.9,-2.6 2.2,-4.2 0.7,-3.2 0.3,-6.9 -0.7,-9.8 L 47.4,29.3 H 35.1 Z m -19.9,1.7 v 14.2 h 7.9 V 31.0 Z m 21.4,0.3 h 9.3 c 0.3,1.0 0.5,2.2 0.6,3.4 H 35.9 c 0.1,-1.2 0.3,-2.3 0.6,-3.4 z m -0.7,5.4 h 10.8 c 0.0,0.9 -0.1,1.8 -0.3,2.6 -0.3,1.3 -0.9,2.4 -1.7,3.2 -0.8,0.8 -1.9,1.2 -3.4,1.2 -1.6,0 -2.6,-0.5 -3.4,-1.2 -0.8,-0.8 -1.3,-1.9 -1.7,-3.2 -0.2,-0.8 -0.3,-1.7 -0.3,-2.6 z"
        style="fill:#000000;stroke:#222222;stroke-width:0.1px"
    />
</svg>