<svg
    xmlns="http://www.w3.org/2000/svg" 
    height="60"
    width="60"
    viewbox="0 0 60 60"
>
    <rect
        x="0.5"
        y="0.5"
        width="59"
        height="59"
        rx="5"
        ry="5"
        style="fill:#f44336;stroke:#222222;stroke-width:0.5px"
    />
    <path
        d="m 11.9,10.0 6.7,8.8 8.6,-8.8 H 11.9 Z m 20.9,0.0 8.5,8.7 6.5,-8.7 H 32.8 Z M 30.0,10.0 20.6,19.6 h 18.7 l -9.4,-9.6 z m 19.7,0.9 -6.5,8.7 h 13.1 l -6.6,-8.7 z m -39.6,0.1 -6.4,8.6 H 16.6 Z M 3.6,21.7 26.7,46.9 17.5,21.7 H 3.6 Z m 16.0,0.0 L 30.0,50.0 40.3,21.7 H 19.7 Z m 22.9,0.0 -9.2,25.2 23.0,-25.2 H 42.5 Z"
        style="fill:#000000;stroke:#222222;stroke-width:0.1px"
    />
</svg>