<svg
    xmlns="http://www.w3.org/2000/svg" 
    height="60"
    width="60"
    viewbox="0 0 60 60"
>
    <rect
        x="0.5"
        y="0.5"
        width="59"
        height="59"
        rx="5"
        ry="5"
        style="fill:#ffa500;stroke:#222222;stroke-width:0.5px"
    />
    <path
        d="M 30.0,4.4 A 25.5,25.5 0 0 0 16.3,8.4 l 1.0,1.4 C 21.1,7.4 25.5,6.1 30.1,6.1 c 2.9,0.0 5.8,0.5 8.5,1.6 L 39.2,6.1 A 25.5,25.5 0 0 0 30.1,4.4 Z M 41.0,6.9 40.3,8.4 C 46.1,11.2 50.5,16.2 52.6,22.2 l 1.6,-0.5 C 52.7,14.8 48.3,9.2 41.0,6.9 Z M 30.0,8.1 C 25.9,8.1 21.9,9.3 18.4,11.5 L 29.8,28.0 C 33.2,22.0 35.7,15.8 37.8,9.5 35.3,8.6 32.7,8.1 30.1,8.1 Z m 3.1,1.0 2.0,2.5 -1.5,1.2 -2.0,-2.5 z M 14.7,9.5 C 6.8,13.8 5.0,20.3 4.6,27.4 l 1.7,0.1 C 7.0,20.9 10.4,14.9 15.7,10.9 Z m 11.7,0.8 c 0.9,0.0 1.7,0.2 2.3,0.7 0.6,0.4 1.2,1.1 1.2,2.0 0.0,0.9 -0.5,1.6 -1.2,2.0 -0.6,0.4 -1.5,0.7 -2.3,0.7 -0.9,0.0 -1.7,-0.2 -2.3,-0.7 -0.7,-0.4 -1.2,-1.1 -1.2,-2.0 0.0,-0.9 0.5,-1.6 1.2,-2.0 0.6,-0.4 1.5,-0.7 2.3,-0.7 z m 13.1,0.0 c -1.9,6.3 -4.4,12.4 -7.8,18.1 l 7.3,-2.2 c -0.3,-0.5 -0.5,-1.2 -0.5,-1.8 0.0,-1.6 1.1,-3.1 2.7,-3.1 1.6,0.0 2.7,1.5 2.7,3.1 0.0,0.1 0.0,0.3 0.0,0.4 L 50.7,22.8 C 48.8,17.3 44.8,12.8 39.5,10.3 Z m -13.1,1.9 c -0.5,0.0 -1.0,0.2 -1.3,0.3 -0.3,0.2 -0.3,0.3 -0.3,0.4 0.0,0.1 0.0,0.2 0.3,0.4 0.3,0.2 0.7,0.3 1.3,0.3 0.5,0.0 1.0,-0.1 1.3,-0.3 0.3,-0.2 0.3,-0.3 0.3,-0.4 0.0,-0.1 0.0,-0.2 -0.3,-0.4 -0.3,-0.2 -0.7,-0.3 -1.3,-0.3 z m -9.6,0.4 C 12.1,16.2 9.0,21.7 8.4,27.6 15.0,27.7 21.7,27.8 28.1,28.9 l -2.0,-2.9 -2.0,1.1 -0.9,-1.7 1.8,-1.0 -6.1,-8.7 -2.5,1.9 -1.2,-1.5 2.6,-2.0 z m 24.9,1.5 1.3,2.1 -1.6,1.0 -1.3,-2.1 z m -11.3,2.5 0.8,1.7 -3.2,1.5 -0.8,-1.7 z m -14.4,2.3 c 1.8,0.0 3.2,1.7 3.2,3.5 0.0,1.9 -1.3,3.5 -3.2,3.5 -1.8,0 -3.2,-1.7 -3.2,-3.5 0.0,-1.9 1.3,-3.5 3.2,-3.5 z m 31.7,1.0 0.4,2.9 -1.9,0.3 -0.4,-2.9 z m -31.7,0.9 c -0.6,0.0 -1.2,0.6 -1.2,1.6 0.0,1.0 0.6,1.6 1.2,1.6 0.6,0 1.2,-0.6 1.2,-1.6 0.0,-1.0 -0.6,-1.6 -1.2,-1.6 z m 25.2,2.6 c -0.3,0.0 -0.8,0.4 -0.8,1.1 0.0,0.7 0.4,1.1 0.8,1.1 0.3,0.0 0.8,-0.4 0.8,-1.1 0.0,-0.7 -0.4,-1.1 -0.8,-1.1 z m 13.6,0.3 -1.6,0.5 c 0.5,1.9 0.7,3.9 0.7,5.9 0.0,5.0 -1.6,9.9 -4.5,14.0 l 1.3,1.1 c 3.2,-4.4 4.9,-9.6 4.9,-15.0 0.0,-2.2 -0.3,-4.3 -0.8,-6.4 z m -3.6,1.1 -13.2,3.9 1.1,0.8 -1.1,1.6 -2.3,-1.6 -3.6,1.1 c 4.8,4.6 10.4,8.3 15.7,12.3 2.5,-3.7 3.3,-8.2 4.1,-12.7 0.3,-1.8 -0.2,-3.6 -0.7,-5.3 z M 4.5,29.3 c 0.0,0.2 0,0.4 0.0,0.6 -0.5,7.5 1.0,14.8 8.8,19.3 l 1.1,-1.3 C 9.2,43.4 6.2,36.8 6.2,29.9 v -0.5 z m 3.7,0.2 v 0.4 c 0.0,2.3 0.4,4.7 1.1,6.9 l 1.2,-2.5 1.7,0.8 -1.9,4.1 c 1.3,2.7 3.1,5.1 5.3,7.1 l 12.5,-15.5 -13.7,-0.9 -2.6,2.6 -1.4,-1.4 1.4,-1.4 z m 39.1,1.4 c 0.2,0.0 0.5,0.0 0.7,0.1 0.8,0.2 1.3,0.9 1.6,1.6 0.3,0.7 0.3,1.5 0.0,2.3 -0.2,0.8 -0.7,1.4 -1.3,1.9 -0.6,0.4 -1.4,0.6 -2.2,0.4 -0.3,-0.1 -0.5,-0.2 -0.7,-0.4 l -0.8,0.9 -2.9,-2.5 1.3,-1.4 1.5,1.3 c -0.1,-0.6 -0.1,-1.2 0.1,-1.7 0.2,-0.8 0.7,-1.4 1.3,-1.8 0.4,-0.3 0.9,-0.5 1.5,-0.5 z m -27.8,0.6 3.2,1.2 -0.7,1.8 -3.2,-1.2 z m 11.6,0.5 0.6,9.0 c 0.5,0.1 1.0,0.3 1.4,0.5 0.7,0.4 1.3,1.1 1.3,2.0 0.0,0.9 -0.6,1.6 -1.3,2.0 -0.3,0.2 -0.7,0.3 -1.1,0.4 l 0.4,5.6 c 1.2,-0.1 2.3,-0.4 3.5,-0.7 l 0.4,-3.1 1.9,0.2 -0.3,2.2 c 3.4,-1.3 6.4,-3.4 8.7,-6.2 -2.2,-1.7 -4.8,-3.0 -6.6,-5.2 l -0.8,2.1 -1.8,-0.6 1.0,-2.8 c -3.0,-1.5 -4.9,-3.8 -7.2,-5.7 z m -1.9,0.5 -12.1,15.1 c 3.7,2.8 8.3,4.2 12.9,4.2 h 0.4 l -0.4,-5.6 c -0.8,-0.1 -1.5,-0.3 -2.1,-0.6 -0.7,-0.4 -1.3,-1.1 -1.3,-2.0 0.0,-0.9 0.6,-1.6 1.3,-2.0 0.5,-0.3 1.1,-0.5 1.7,-0.6 z m 18.2,0.4 c -0.1,0.0 -0.2,0.0 -0.4,0.1 -0.2,0.2 -0.5,0.5 -0.6,0.9 -0.1,0.4 -0.1,0.8 0.0,1.0 0.1,0.3 0.2,0.4 0.3,0.4 0.1,0.0 0.3,0.0 0.5,-0.1 0.2,-0.1 0.5,-0.5 0.6,-0.9 0.1,-0.4 0.1,-0.8 0.0,-1.0 -0.1,-0.3 -0.2,-0.4 -0.3,-0.4 0.0,0.0 0.0,0.0 -0.1,0.0 z m -31.2,3.2 c 0.5,0.0 0.9,0.1 1.3,0.3 1.5,0.7 2.3,2.6 1.5,4.1 -0.7,1.5 -2.6,2.1 -4.2,1.4 -1.5,-0.7 -2.3,-2.6 -1.5,-4.1 0.5,-1.1 1.6,-1.7 2.8,-1.7 z m -0.1,1.9 c -0.4,0.0 -0.8,0.2 -1.0,0.6 -0.3,0.5 0.0,1.2 0.6,1.5 0.6,0.3 1.3,0.1 1.6,-0.5 0.3,-0.5 0.0,-1.2 -0.6,-1.5 -0.2,-0.1 -0.4,-0.1 -0.6,-0.1 z m 14.5,4.9 c -0.6,0 -1.2,0.2 -1.6,0.4 -0.3,0.2 -0.4,0.4 -0.4,0.4 0.0,0.0 0.0,0.2 0.4,0.4 0.3,0.2 0.9,0.4 1.6,0.4 0.6,0.0 1.2,-0.2 1.6,-0.4 0.3,-0.2 0.4,-0.4 0.4,-0.4 0.0,0.0 0.0,-0.2 -0.4,-0.4 -0.3,-0.2 -0.9,-0.4 -1.6,-0.4 z m 17.6,2.6 c -4.0,4.7 -9.6,7.6 -15.7,8.2 l 0.1,1.7 c 6.8,0.4 13.3,-1.2 16.9,-8.9 z m -26.2,0.3 3.0,0.3 -0.2,1.9 -3.0,-0.3 z m -6.2,3.4 -1.1,1.3 c 3.8,4.8 9.6,5.5 15.3,5.1 0.2,0.0 0.4,0.0 0.6,0.0 l -0.1,-1.7 c -0.2,0.0 -0.4,0.0 -0.5,0.0 -5.1,0.0 -10.1,-1.6 -14.2,-4.7 z"
        style="fill:#000000;stroke:#222222;stroke-width:0.1px"
    />
</svg>