<svg
    xmlns="http://www.w3.org/2000/svg" 
    height="60"
    width="60"
    viewbox="0 0 60 60"
>
    <rect
        x="0.5"
        y="0.5"
        width="59"
        height="59"
        rx="5"
        ry="5"
        style="fill:#ffa500;stroke:#222222;stroke-width:0.5px"
    />
    <path
        d="M 10.1,10.4 7.8,12.6 22.8,28.5 v 6.6 h 8.8 v -5.8 z m -2.9,4.5 v 9.1 l 0.5,0.3 c 1.2,0.8 1.7,1.6 1.8,2.2 0.1,0.7 0.0,1.2 -0.4,1.7 -0.8,0.9 -2.3,1.4 -3.7,-0.1 l -1.4,1.5 c 2.2,2.2 5.2,1.7 6.7,-0.1 0.7,-0.9 1.1,-2.1 0.9,-3.4 -0.2,-1.1 -1.0,-2.2 -2.2,-3.2 V 17.1 Z M 36.4,20.9 V 37.2 H 15.5 c 2.6,0.7 4.6,2.7 5.3,5.2 h 18.4 c 0.8,-3.1 3.7,-5.4 7.1,-5.4 3.4,0.0 6.3,2.3 7.1,5.4 h 2.8 V 32.8 L 49.3,20.9 Z m 4.1,1.6 h 7.0 l 6.2,10.4 H 40.5 V 23.5 Z M 4.1,37.2 5.4,42.4 h 1.2 c 0.7,-2.5 2.7,-4.6 5.3,-5.2 z m 9.6,1.8 c -3.0,0.0 -5.3,2.4 -5.3,5.3 0,3.0 2.4,5.3 5.3,5.3 3.0,0 5.3,-2.4 5.3,-5.3 0,-3.0 -2.4,-5.3 -5.3,-5.3 z m 32.6,0.0 c -3.0,0 -5.3,2.4 -5.3,5.3 0,3.0 2.4,5.3 5.3,5.3 3.0,0.0 5.3,-2.4 5.3,-5.3 0.0,-3.0 -2.4,-5.3 -5.3,-5.3 z"
        style="fill:#000000;stroke:#222222;stroke-width:0.1px"
    />
</svg>