<svg
    xmlns="http://www.w3.org/2000/svg" 
    height="60"
    width="60"
    viewbox="0 0 60 60"
>
    <rect
        x="0.5"
        y="0.5"
        width="59"
        height="59"
        rx="5"
        ry="5"
        style="fill:#4CA64C;stroke:#222222;stroke-width:0.5px"
    />
    <path
        d="m 22.4,20.2 c -3.2,0.0 -6.9,0.3 -11.1,0.9 -0.5,0.0 -5.3,2.8 -6.6,4.7 -1.3,1.9 -1.7,5.5 -1.7,5.5 -0.4,1.5 -0.1,3.9 0.0,4.2 0.1,0.5 0.9,0.9 2.2,1.3 0.1,-2.4 2.1,-4.2 4.5,-4.2 2.5,0.0 4.5,2.0 4.5,4.5 0.0,0.2 0.0,0.4 0.0,0.6 0.1,0.0 0.1,0.0 0.2,0.0 l 27.0,0.2 c 0.0,-0.3 -0.1,-0.5 -0.1,-0.8 0.0,-2.5 2.0,-4.5 4.5,-4.5 2.5,0.0 4.5,2.0 4.5,4.5 0.0,0.3 0.0,0.6 0.0,0.9 l 7.0,0.1 C 57.2,35.4 57.8,32.7 56.2,30.5 55.6,29.6 52.6,28.0 45.1,26.8 41.2,24.8 37.4,22.6 33.2,21.3 30.0,20.7 26.5,20.3 22.4,20.2 Z m -1.9,1.4 c 0.7,0.0 1.3,0.0 1.8,0.1 l 0.8,5.5 c -4.7,-0.6 -9.4,-1.1 -11.9,-3.1 0.0,-0.6 0.9,-1.5 1.9,-1.9 0.5,-0.2 4.5,-0.6 7.5,-0.6 z m 3.9,0.0 c 2.8,0.0 7.0,0.3 9.9,1.6 1.4,0.6 4.0,2.1 5.7,3.4 L 39.2,27.8 C 34.5,27.6 28.2,27.4 25.6,27.1 l -1.3,-5.4 z M 9.5,34.3 a 2.7,2.7 0 0 0 -2.7,2.7 2.7,2.7 0 0 0 2.7,2.7 2.7,2.7 0 0 0 2.7,-2.7 2.7,2.7 0 0 0 -2.7,-2.7 z m 36.1,0.0 a 2.7,2.7 0 0 0 -2.7,2.7 2.7,2.7 0 0 0 2.7,2.7 2.7,2.7 0 0 0 2.7,-2.7 2.7,2.7 0 0 0 -2.7,-2.7 z"
        style="fill:#000000;stroke:#222222;stroke-width:0.5px"
    />
</svg>