<svg
    xmlns="http://www.w3.org/2000/svg" 
    height="60"
    width="60"
    viewbox="0 0 60 60"
>
    <rect
        x="0.5"
        y="0.5"
        width="59"
        height="59"
        rx="5"
        ry="5"
        style="fill:#ffa500;stroke:#222222;stroke-width:0.5px"
    />
    <path
        d="M 21.4,6.6 V 12.8 H 38.6 V 6.6 Z m 1.7,8.1 -0.2,0.5 c -0.2,0.5 -1.1,1.3 -2.3,2.0 -1.2,0.8 -2.7,1.5 -4.2,2.3 -1.5,0.8 -3.0,1.6 -4.1,2.4 -1.1,0.9 -2.1,1.8 -2.1,3.1 v 22.6 c 0.0,2.0 1.5,3.5 3.0,4.3 1.5,0.9 3.1,1.3 4.2,1.3 h 25.4 c 1.1,0 2.7,-0.4 4.2,-1.3 1.5,-0.9 3.0,-2.3 3.0,-4.3 V 25.1 c 0.0,-1.3 -1.0,-2.2 -2.1,-3.1 -1.1,-0.9 -2.6,-1.7 -4.1,-2.4 -1.5,-0.8 -3.0,-1.6 -4.2,-2.3 -1.2,-0.8 -2.1,-1.5 -2.3,-2.0 l -0.2,-0.5 z m 1.1,1.8 h 11.7 c 0.6,0.9 1.6,1.5 2.7,2.2 1.3,0.8 2.9,1.6 4.3,2.4 1.5,0.8 2.9,1.6 3.9,2.3 1.0,0.7 1.4,1.4 1.4,1.7 H 11.9 c 0.0,-0.3 0.4,-0.9 1.4,-1.7 1.0,-0.7 2.4,-1.5 3.9,-2.3 1.5,-0.8 3.0,-1.6 4.3,-2.4 1.1,-0.7 2.1,-1.4 2.7,-2.2 z m 2.7,15.0 h 6.3 v 4.8 h 4.8 v 6.3 h -4.8 v 4.8 h -6.3 v -4.8 h -4.8 v -6.3 h 4.8 z"
        style="fill:#000000;stroke:#222222;stroke-width:0.1px"
    />
</svg>