<svg
    xmlns="http://www.w3.org/2000/svg" 
    height="60"
    width="60"
    viewbox="0 0 60 60"
>
    <rect
        x="0.5"
        y="0.5"
        width="59"
        height="59"
        rx="5"
        ry="5"
        style="fill:#0011ff;stroke:#222222;stroke-width:0.5px"
    />
    <path
        d="m 30.1,3.5 c 2.4,0.0 4.0,1.2 6.1,2.4 2.0,1.1 4.6,2.1 8.2,1.4 1.7,1.7 3.4,3.4 5.3,4.6 1.5,0.9 3.2,1.5 4.9,1.2 -0.5,3.8 -2.8,7.6 -5.2,9.5 -6.4,-2.1 -12.8,-3.2 -19.3,-3.2 -6.4,0 -12.9,1.1 -19.3,3.2 C 8.3,20.7 6.0,16.9 5.5,13.1 7.2,13.4 8.9,12.8 10.4,11.9 12.2,10.7 14.0,9.0 15.7,7.3 19.3,8.0 21.8,7.1 23.9,5.9 26.0,4.7 27.6,3.5 30.0,3.5 Z m 0.0,2.2 c -2.3,0 -6.1,3.1 -6.1,3.1 0,0 2.4,9.2 6.1,9.2 3.7,0 6.1,-9.2 6.1,-9.2 0.0,0.0 -3.8,-3.1 -6.1,-3.1 z m 0.0,15.7 c 6.0,0 12.1,1.0 18.2,2.9 0.2,1.5 -0.2,2.7 -1.1,3.7 -1.0,1.2 -2.7,2.2 -4.7,2.9 -4.0,1.5 -9.3,2.0 -12.3,2.0 -3.1,0 -8.3,-0.5 -12.3,-2.0 -2.0,-0.8 -3.7,-1.8 -4.7,-2.9 -0.9,-1.1 -1.3,-2.2 -1.1,-3.7 6.1,-2.0 12.1,-2.9 18.1,-2.9 z m 19.8,6.5 c 1.1,0.3 3.1,0.9 3.4,1.9 1.0,2.9 -1.9,7.3 -4.1,10.1 0.6,-2.5 0.9,-5.2 0.9,-8.0 0.0,-1.4 -0.1,-2.7 -0.2,-4.1 z m -39.7,0.0 a 35.0,35.0 0 0 0 -0.2,4.1 c 0.0,2.8 0.3,5.5 0.9,8.0 C 8.7,37.3 5.8,32.9 6.7,30.0 7.1,28.9 9.1,28.3 10.2,28.0 Z m 37.8,2.2 c 0.0,0.6 0.1,1.2 0.1,1.9 0.0,6.8 -2.1,12.9 -5.4,17.3 -3.3,4.4 -7.8,7.0 -12.6,7.0 -4.9,0 -9.3,-2.6 -12.6,-7.0 -3.3,-4.4 -5.4,-10.5 -5.4,-17.3 0,-0.6 0.0,-1.2 0.1,-1.9 0.9,0.9 2.1,1.6 3.3,2.2 -0.5,2.1 0.0,4.7 1.4,6.0 2.5,2.5 8.1,2.5 10.6,0 0.8,-0.7 1.1,-2.0 1.1,-3.2 0.6,0.0 1.1,0.0 1.6,0.0 0.5,0 1.0,0.0 1.6,0.0 0.0,1.2 0.3,2.5 1.0,3.2 2.5,2.5 8.1,2.5 10.6,0.0 1.4,-1.4 1.9,-3.9 1.4,-6.0 1.3,-0.6 2.4,-1.3 3.3,-2.2 z m -18.0,13.5 c -2.6,4.2 -7.9,4.8 -10.6,4.8 2.6,2.1 10.6,2.1 10.6,0.0 0.0,2.1 7.9,2.1 10.6,0.0 -2.6,0.0 -7.9,-0.5 -10.6,-4.8 z"
        style="fill:#ffffff;stroke:#000000;stroke-width:0.1px"
    />
</svg>