<svg
    xmlns="http://www.w3.org/2000/svg" 
    height="60"
    width="60"
    viewbox="0 0 60 60"
>
    <rect
        x="0.5"
        y="0.5"
        width="59"
        height="59"
        rx="5"
        ry="5"
        style="fill:#f44336;stroke:#222222;stroke-width:0.5px"
    />
    <path
        d="m 29.9,30.0 a 14.5,14.5 0 1 0 7.0,8.6 14.4,14.4 0 0 0 -7.0,-8.6 z m -3.5,24.1 a 11.8,11.8 0 0 1 -9.0,-0.9 11.9,11.9 0 1 1 9.0,0.9 z M 32.5,39.9 A 10.0,10.0 0 1 0 25.8,52.3 9.9,9.9 0 0 0 32.5,39.9 Z m -4.2,4.4 a 0.9,0.9 0 0 1 -1.1,0.8 l -4.2,-0.7 a 0.9,0.9 0 0 1 -0.1,0.0 h 0.0 a 0.9,0.9 0 0 1 -0.1,0.0 l 0.0,0.0 A 0.9,0.9 0 0 1 22.7,44.2 h 0.0 l -6.7,-4.2 a 0.9,0.9 0 0 1 1.0,-1.6 l 6.6,4.1 4.0,0.7 a 0.9,0.9 0 0 1 0.8,1.1 z m 18.7,-8.7 c 1.1,3.9 1.7,7.6 1.6,10.6 -0.1,3.0 -0.9,4.3 -1.6,4.5 -0.7,0.2 -2.1,-0.4 -3.8,-2.9 -1.7,-2.4 -3.3,-5.9 -4.5,-9.7 -2.6,-8.6 -1.7,-14.6 0.0,-15.1 1.7,-0.5 5.7,4.0 8.3,12.7 z M 44.1,24.7 a 15.5,15.5 0 0 0 -1.5,-1.8 q 1.6,0.5 3.0,1.9 c 2.2,2.1 4.0,5.5 5.0,9.5 1.0,3.9 1.2,7.9 0.4,11.0 a 11.3,11.3 0 0 1 -0.7,2.1 c 0.0,-0.4 0.1,-0.8 0.1,-1.2 0.1,-3.2 -0.5,-7.2 -1.7,-11.2 -1.2,-4.1 -2.9,-7.7 -4.7,-10.3 z M 41.5,2.8 h -1.9 v 0.0 A 1.0,1.0 0 0 1 39.5,3.6 1.0,1.0 0 0 1 38.9,4.1 1.0,1.0 0 0 1 37.6,3.4 l -0.2,-0.6 h -2.0 l 0.4,1.2 c 0.0,0.0 0.0,0.1 0.0,0.1 a 2.9,2.9 0 0 0 -1.3,1.2 l -1.3,2.2 a 2.9,2.9 0 0 0 -0.4,1.2 2.9,2.9 0 0 0 -0.9,0.1 L 29.8,9.6 A 2.9,2.9 0 0 0 29.0,8.3 L 27.1,6.5 A 2.9,2.9 0 0 0 25.0,5.8 2.9,2.9 0 0 0 24.6,5.9 2.9,2.9 0 0 0 21.9,3.7 h -2.6 a 2.9,2.9 0 0 0 -2.8,2.5 2.9,2.9 0 0 0 -0.6,0.0 2.9,2.9 0 0 0 -1.9,1.1 L 12.4,9.4 a 2.9,2.9 0 0 0 0.4,3.9 2.9,2.9 0 0 0 -0.5,2.5 l 0.7,2.5 a 2.9,2.9 0 0 0 1.0,1.5 3.7,3.7 0 0 0 2.9,5.8 h 0.1 l 0.5,1.6 a 17.2,17.2 0 0 1 0.7,-0.2 q 0.5,-0.2 1.1,-0.3 l -0.5,-1.7 a 3.7,3.7 0 0 0 -0.4,-6.5 2.9,2.9 0 0 0 0.1,-1.9 L 17.8,14.2 a 2.9,2.9 0 0 0 -0.8,-1.3 l 1.5,-2.0 a 2.9,2.9 0 0 0 0.5,-1.3 c 0.1,0 0.1,0.0 0.2,0.0 h 2.6 a 2.9,2.9 0 0 0 0.5,0.0 2.9,2.9 0 0 0 0.9,1.4 l 1.9,1.7 a 2.9,2.9 0 0 0 1.9,0.7 2.9,2.9 0 0 0 0.7,-0.1 c 0.0,0.0 0.0,0.1 0.0,0.1 a 2.9,2.9 0 0 0 2.7,2.0 2.9,2.9 0 0 0 0.9,-0.1 l 2.4,-0.8 a 2.9,2.9 0 0 0 2.0,-2.5 2.9,2.9 0 0 0 0.7,-0.1 2.9,2.9 0 0 0 1.7,-1.3 L 39.6,8.2 A 2.9,2.9 0 0 0 39.8,5.7 2.9,2.9 0 0 0 41.5,2.8 Z M 14.8,17.7 14.1,15.3 a 1.0,1.0 0 0 1 0.8,-1.3 c 0.0,0.0 0.1,0.0 0.1,0.0 h 0.0 a 1.0,1.0 0 0 1 1.0,0.7 l 0.7,2.5 a 1.0,1.0 0 0 1 -0.6,1.2 c -0.1,0.0 -0.1,0.0 -0.2,0.1 l 0.0,0.0 A 1.0,1.0 0 0 1 14.8,17.7 Z m 2.2,2.4 a 1.8,1.8 0 1 1 -0.6,0.1 2.9,2.9 0 0 0 0.2,-0.1 l 0.1,0.0 A 1.8,1.8 0 0 1 17.0,20.1 Z M 17.0,9.7 15.5,11.7 a 1.0,1.0 0 0 1 -0.6,0.4 c -0.1,0.0 -0.1,0.0 -0.2,0.0 A 1.0,1.0 0 0 1 13.9,10.5 l 1.6,-2.1 a 1.0,1.0 0 1 1 1.6,1.2 z m 5.7,-2.6 q -0.1,0.1 -0.1,0.2 A 1.0,1.0 0 0 1 21.9,7.6 h -2.6 a 1.0,1.0 0 1 1 0,-2.0 h 2.6 a 1.0,1.0 0 0 1 0.9,1.4 z m 5.0,4.0 a 1.0,1.0 0 0 1 -1.4,0.1 L 24.5,9.4 A 1.0,1.0 0 0 1 24.2,8.3 q 0.1,-0.1 0.1,-0.2 c 0.0,0.0 0.0,0.0 0.0,0.0 a 1.0,1.0 0 0 1 1.4,-0.1 l 1.9,1.7 a 1.0,1.0 0 0 1 0.1,1.4 z m 6.0,1.0 a 1.0,1.0 0 0 1 -0.6,0.5 l -2.4,0.8 a 1.0,1.0 0 1 1 -0.6,-1.9 l 2.4,-0.8 a 1.0,1.0 0 0 1 1.2,1.4 z m 4.1,-4.8 -1.3,2.2 A 1.0,1.0 0 0 1 34.9,8.4 l 1.3,-2.2 a 1.0,1.0 0 1 1 1.7,1.0 z"
        style="fill:#000000;stroke:#222222;stroke-width:0.1px"
    />
    <path
        d="m 47.0,35.2 c -6.2,0.0 -11.3,5.0 -11.3,11.3 0.0,6.2 5.0,11.3 11.3,11.3 6.2,0.0 11.3,-5.0 11.3,-11.3 0.0,-6.2 -5.0,-11.3 -11.3,-11.3 z m 0.0,2.8 c 4.7,0.0 8.4,3.8 8.4,8.4 0.0,4.7 -3.8,8.4 -8.4,8.4 -4.7,0.0 -8.4,-3.8 -8.4,-8.4 0.0,-4.7 3.8,-8.4 8.4,-8.4 z m -3.8,2.8 c -0.0,0.0 -0.1,0.0 -0.1,0.0 v 0.0 c -0.9,0.2 -2.1,1.6 -1.6,2.2 l 3.4,3.4 -3.4,3.4 c -0.7,0.7 1.4,2.7 2.1,2.1 l 3.4,-3.4 3.4,3.4 c 0.7,0.7 2.7,-1.4 2.1,-2.1 l -3.4,-3.4 3.4,-3.4 c 0.7,-0.7 -1.4,-2.7 -2.1,-2.1 l -3.4,3.4 -3.4,-3.4 c -0.1,-0.1 -0.2,-0.1 -0.4,-0.1 z"
        style="fill:#ffffff;stroke:#222222;stroke-width:0.1px"
    />
</svg>