<svg
    xmlns="http://www.w3.org/2000/svg" 
    height="60"
    width="60"
    viewbox="0 0 60 60"
>
    <rect
        x="0.5"
        y="0.5"
        width="59"
        height="59"
        rx="5"
        ry="5"
        style="fill:#f44336;stroke:#222222;stroke-width:0.5px"
    />
    <path
        d="M 22.7,4.0 20.1,7.9 h 3.5 l 2.6,-3.9 z m 5.9,0.0 L 26.0,7.9 h 8.0 L 31.4,4.0 h -2.8 z m 5.3,0.0 L 36.4,7.9 h 3.5 L 37.3,4.0 Z m -13.2,5.9 5.6,5.6 -2.8,-5.6 z m 5.1,0.0 L 30.0,18.4 34.3,9.9 h -8.5 z m 10.8,0.0 -2.8,5.6 5.6,-5.6 z M 21.4,13.5 C 13.5,16.9 7.9,24.7 7.9,33.9 c 0.0,12.2 9.9,22.1 22.1,22.1 12.2,0.0 22.1,-9.9 22.1,-22.1 0.0,-9.1 -5.6,-17.0 -13.5,-20.4 l -3.4,3.4 c 7.3,2.2 12.5,8.9 12.5,16.9 0.0,9.8 -7.9,17.7 -17.7,17.7 -9.8,0.0 -17.7,-7.9 -17.7,-17.7 0.0,-8.0 5.3,-14.7 12.5,-16.9 l -3.4,-3.4 z"
        style="fill:#000000;stroke:#222222;stroke-width:0.1px"
    />
</svg>