<svg
    xmlns="http://www.w3.org/2000/svg" 
    height="60"
    width="60"
    viewbox="0 0 60 60"
>
    <rect
        x="0.5"
        y="0.5"
        width="59"
        height="59"
        rx="5"
        ry="5"
        style="fill:#f44336;stroke:#222222;stroke-width:0.5px"
    />
    <path
        d="m 43.2,3.2 c -1.4,0.0 -3.0,0.6 -4.5,1.7 l 1.3,1.7 c 1.7,-1.3 3.1,-1.5 4.2,-1.2 1.1,0.2 1.9,1.0 2.4,2.0 0.9,2.0 0.4,5.0 -3.8,6.7 l -0.7,0.3 v 5.2 h 2.1 V 15.7 C 48.5,13.6 49.7,9.4 48.4,6.5 47.7,4.9 46.3,3.7 44.5,3.3 44.1,3.2 43.6,3.1 43.2,3.2 Z m -26.0,0.0 c -1.4,0.0 -3.0,0.6 -4.5,1.7 l 1.3,1.7 c 1.7,-1.3 3.1,-1.5 4.2,-1.2 1.1,0.2 1.9,1.0 2.4,2.0 0.9,2.0 0.4,5.0 -3.8,6.7 l -0.7,0.3 v 5.2 h 2.1 V 15.7 C 22.5,13.6 23.7,9.4 22.4,6.5 21.7,4.9 20.3,3.7 18.5,3.3 18.1,3.2 17.6,3.1 17.2,3.2 Z M 10.6,21.6 v 3.5 h 12.8 v -3.5 z m 26.0,0.0 v 3.5 h 12.8 v -3.5 z M 14.8,27.2 8.4,35.3 17.0,56.8 25.6,35.3 19.2,27.2 Z m 26.0,0.0 -6.5,8.1 8.6,21.6 8.6,-21.6 -6.5,-8.1 z m -24.9,1.9 v 3.6 l -3.6,0.9 z m 2.1,0.0 3.6,4.6 -3.6,-0.9 z m 23.9,0.0 v 3.6 l -3.6,0.9 z m 2.1,0.0 3.6,4.6 -3.6,-0.9 z M 15.9,34.9 V 48.6 L 11.0,36.2 Z m 2.1,0.0 5.0,1.2 -5.0,12.4 z m 23.9,0.0 V 48.6 L 37.0,36.2 Z m 2.1,0.0 5.0,1.2 -5.0,12.4 z"
        style="fill:#000000;stroke:#222222;stroke-width:0.1px"
    />
</svg>