<svg
    xmlns="http://www.w3.org/2000/svg" 
    height="62.622px"
    width="72.309px"
    viewbox="0 0 72.309 62.622"
>
    <polygon
        style="fill:#b8acac;stroke:#000000;stroke-width:2px"
        points="71.131,31.311 53.631,61.622 18.631,61.622 1.131,31.311 18.631,1.000 53.631,1.000"
    />
   <path
        style="fill:#000000;stroke:#000000;stroke-width:0.25px"
        d="m 22.733,32.915 c 0,0.550 -0.382,0.828 -1.153,0.828 -0.856,0 -1.288,-0.278 -1.288,-0.828 0,-2.551 -0.846,-4.625 -2.534,-6.220 -1.505,-1.352 -2.964,-2.027 -4.377,-2.027 -2.088,0 -3.394,0.828 -3.916,2.487 l -0.184,1.242 v 0.093 c 0,1.228 0.906,2.933 2.718,5.114 0.491,0.553 0.906,0.985 1.244,1.292 0.491,0.400 1.305,0.600 2.442,0.600 1.198,0 3.133,-0.232 5.806,-0.692 2.701,0.460 4.653,0.692 5.849,0.692 1.167,0 1.981,-0.200 2.441,-0.600 1.292,-1.138 2.365,-2.519 3.226,-4.147 0.492,-0.921 0.739,-1.674 0.739,-2.259 0,-1.934 -0.878,-3.147 -2.626,-3.640 -0.460,-0.121 -0.953,-0.182 -1.474,-0.182 -1.413,0 -2.858,0.689 -4.332,2.073 -1.720,1.534 -2.580,3.593 -2.580,6.174 m 9.999,-4.425 c 0,1.228 -0.846,2.673 -2.534,4.332 l -1.199,1.013 -0.460,0.275 c -0.585,0.093 -1.199,0.139 -1.841,0.139 -1.906,0 -2.858,-0.385 -2.858,-1.153 0.061,-2.366 0.767,-4.207 2.120,-5.528 1.167,-1.167 2.366,-1.752 3.593,-1.752 1.567,0 2.566,0.571 2.994,1.706 l 0.186,0.967 M 28.354,40.192 c 0,-0.796 -2.255,-1.195 -6.773,-1.195 -1.228,0 -2.316,0.046 -3.269,0.136 l -1.106,0.093 c -1.658,0.214 -2.488,0.525 -2.488,0.921 0,0.464 0.415,0.692 1.244,0.692 l 5.576,-0.460 5.528,0.460 c 0.860,0 1.288,-0.214 1.288,-0.646 m 2.580,1.106 c -0.061,2.088 -3.194,3.133 -9.396,3.133 -6.144,0 -9.261,-1.046 -9.353,-3.133 -0.030,-1.966 -0.323,-3.715 -0.875,-5.253 C 10.971,35.217 10.326,34.157 9.374,32.869 8.176,31.242 7.577,29.797 7.577,28.537 c 0,-1.966 0.844,-3.486 2.534,-4.561 0.952,-0.614 2.012,-0.921 3.179,-0.921,1.597,0 3.117,0.584 4.561,1.749 0,-1.411 0.138,-2.378 0.415,-2.901 0.215,-0.584 0.921,-1.290 2.120,-2.119 v -1.060 l -1.890,-1.152 v -1.658 h 1.704 l 0.553,-1.705 h 1.567 l 0.600,1.705 h 1.659 v 1.658 l -1.845,1.152 v 1.059 c 1.167,0.860 1.891,1.597 2.166,2.211 l 0.321,1.336 c 0.032,0.369 0.064,0.860 0.0928,1.473 1.445,-1.165 2.933,-1.749 4.468,-1.749 2.059,0 3.658,0.783 4.793,2.349 0.646,0.921 0.967,1.967 0.967,3.133 0,1.260 -0.600,2.719 -1.795,4.379 l -1.060,1.474 c -1.138,1.720 -1.720,4.022 -1.752,6.909 M 10.341,28.490 c 0,-1.288 0.645,-2.120 1.935,-2.487 0.369,-0.121 0.752,-0.186 1.152,-0.186 1.290,0 2.519,0.585 3.686,1.752 1.321,1.352 2.012,3.194 2.073,5.528 0.032,0.678 -0.675,1.060 -2.119,1.153 H 16.377 c -0.614,0 -1.244,-0.046 -1.889,-0.139 -1.014,-0.489 -2.027,-1.460 -3.041,-2.901 -0.737,-1.074 -1.106,-1.981 -1.106,-2.719"
    />
    <path
        style="fill:#000000;stroke:none"
        d="m 48.5,15.0 c -0.5,0 -1.7,0 -2.9,0.2 -1.1,0.2 -2.3,0.6 -2.8,1.2 -0.2,0.3 -0.2,1.0 0.1,1.4 0.1,0.1 0.5,0.3 0.9,0.5 0.4,0.2 0.8,0.2 0.8,0.2 l 0.5,0.1 v 0.5 c 0,0.3 -0.1,0.6 -0.2,0.7 -0.1,0.2 -0.2,0.3 -0.2,0.5 -0.1,0.3 -0.1,0.7 0.3,1.6 l 0.2,0.4 -0.5,0.4 c -1.4,1.4 -2.5,3.3 -3.3,5.2 -0.7,1.9 -0.9,3.8 -0.5,5.2 0.5,1.4 1.4,2.6 2.3,3.7 0.9,1.1 1.8,2.2 1.8,3.5 0,0.7 -0.4,1.1 -0.7,1.4 -0.2,0.2 -0.3,0.3 -0.3,0.6 0,0.1 0.3,0.9 1.1,1.4 0.8,0.6 1.9,1.0 3.3,1.0 1.4,0 2.5,-0.5 3.3,-1.0 0.8,-0.6 1.1,-1.3 1.1,-1.4 0,-0.3 -0.1,-0.3 -0.3,-0.6 -0.2,-0.2 -0.7,-0.7 -0.7,-1.4 0,-1.3 0.9,-2.4 1.8,-3.5 0.9,-1.1 1.8,-2.4 2.3,-3.7 0.5,-1.3 0.2,-3.2 -0.5,-5.2 -0.7,-1.9 -1.9,-3.9 -3.4,-5.3 l -0.3,-0.3 0.2,-0.3 c 0.5,-0.9 0.4,-1.2 0.3,-1.4 -0.1,-0.2 -0.4,-0.6 -0.4,-1.3 V 18.7 l 0.5,-0.1 c 0,0 0.4,-0.1 0.8,-0.2 0.4,-0.2 0.9,-0.5 0.9,-0.5 0.2,-0.3 0.2,-1.1 0.1,-1.4 -0.5,-0.6 -1.6,-1.0 -2.8,-1.2 -1.1,-0.2 -2.4,-0.2 -2.9,-0.2 z m -7.5,3.8 c -0.3,0 -0.6,0.1 -0.9,0.3 -2.4,1.5 -0.7,6.3 0.1,8.7 0.1,-0.1 0.1,-0.2 0.1,-0.3 0.2,-0.6 0.5,-1.3 0.9,-1.8 -0.7,-1.8 -1.9,-4.5 -0.5,-5.5 0.7,-0.5 1.9,0.4 2.8,1.1 -0.1,-0.4 -0.1,-0.8 -0.1,-1.1 -0.8,-0.8 -1.7,-1.3 -2.4,-1.3 z m 14.8,0 c -0.7,0 -1.5,0.5 -2.4,1.3 0.1,0.3 0.1,0.6 0,1.0 0.9,-0.7 1.9,-1.5 2.6,-1.0 1.5,1.0 0.3,3.6 -0.4,5.4 0.3,0.6 0.6,1.3 0.9,1.9 0,0.1 0.1,0.1 0.1,0.2 0.8,-2.5 2.4,-7.1 0.1,-8.6 -0.3,-0.2 -0.6,-0.3 -0.9,-0.3 z"
    />
</svg>
