<svg
    xmlns="http://www.w3.org/2000/svg" 
    height="62.622px"
    width="72.309px"
    viewbox="0 0 72.309 62.622"
>
    <polygon
        style="fill:#b8acac;stroke:#000000;stroke-width:2px"
        points="71.131,31.311 53.631,61.622 18.631,61.622 1.131,31.311 18.631,1.000 53.631,1.000"
    />
    <path
        style="fill:#000000;stroke:#000000;stroke-width:0.15144162px"
        d="m 34.936,25.700 -8.206,6.180 2.944,9.842 -8.413,-5.894 -8.451,5.841 3.006,-9.823 -8.166,-6.232 10.271,-0.177 3.403,-9.692 3.342,9.714 z"
    />
    <path
        style="fill:#000000;stroke:#000000;stroke-width:0.17142628px"
        d="m 48.426,15.671 c -5.279,0.017 -10.558,0.342 -10.558,0.925 0,0 2.207,3.695 2.657,5.684 0.188,0.829 0.214,1.701 0,2.526 -0.543,2.094 -2.631,3.803 -3.189,5.895 -0.805,3.021 -0.982,6.250 -0.132,9.264 0.332,1.179 1.992,3.263 1.992,3.263 0,1.356 18.459,1.168 18.459,0 0,0 1.660,-2.084 1.992,-3.263 0.849,-3.014 0.673,-6.243 -0.132,-9.264 -0.558,-2.092 -2.647,-3.801 -3.190,-5.895 -0.214,-0.825 -0.188,-1.697 0,-2.526 0.450,-1.989 2.658,-5.684 2.658,-5.684 0,-0.650 -5.279,-0.942 -10.558,-0.925 z m -8.034,2.292 c 0,0 3.696,0.676 5.581,0.737 3.197,0.104 7.290,-0.405 9.567,-0.631 0,0 -5.586,1.563 -8.505,1.789 -1.369,0.106 -4.119,-0.211 -4.119,-0.211 0,0 3.240,5.022 2.924,7.686 -0.341,2.875 -4.058,4.906 -5.050,7.684 -0.846,2.370 -0.664,7.369 -0.664,7.369 0,0 -2.319,-5.365 -1.992,-8.106 0.179,-1.505 1.427,-2.804 2.126,-4.211 0.853,-1.716 2.375,-3.318  2.524,-5.158 0.190,-2.344 -2.126,-6.843 -2.126,-6.843 l -0.266,-0.106 z"
    />
</svg>