<svg
    xmlns="http://www.w3.org/2000/svg"
    height="100px"
    width="100px"
    viewbox="0 0 100 100"
>
    <rect
        style="fill:#fffda4;stroke:#000000;stroke-width:3px"
        x="0px"
        y="0px"
        width="100px"
        height="100px"
    />
    <g>
        <g>
            <polygon
                style="fill:#fcefde;stroke:#ff0000;stroke-width:2.5px"
                points="9.055,3.714 19.346,3.714 24.491,12.626 19.346,21.538 9.055,21.538 3.910,12.626"
            />
            <polygon
                style="fill:none;stroke:#000000;stroke-width:1px"
                points="8.484,2.724 19.917,2.724 25.634,12.626 19.917,22.528 8.484,22.528 2.767,12.626"
            />
        </g>
        <g>
            <rect
                style="fill:#ff0000;fill-opacity:1;stroke:none"
                width="11.278"
                height="2.905"
                x="8.561"
                y="14.364"
            />
            <rect
                style="fill:#ff0000;fill-opacity:1;stroke:none"
                width="7.079"
                height="2.91"
                x="10.661"
                y="11.055"
            />
            <rect
                style="fill:#ff0000;fill-opacity:1;stroke:none"
                width="3.833"
                height="2.905"
                x="12.284"
                y="7.747"
            />
        </g>
    </g>
    <text
        style="font-size:20px;font-family:sans-serif;fill:#000000;stroke:none"
        x="67"
        y="19"
    >#7</text>
    <polygon
        style="fill:#b8acac;stroke:#000000;stroke-width:2px"
        points="31.571,27.854 40.146,42.706 31.571,57.559 14.421,57.559 5.846,42.706 14.421,27.854"
    />
    <polygon
        style="fill:#b8acac;stroke:#000000;stroke-width:2px"
        points="31.571,62.854 40.146,77.706 31.571,92.559 14.421,92.559 5.846,77.706 14.421,62.854"
    />
    <text
        style="font-size:70px;font-family:sans-serif;fill:#000000;stroke:none"
        x="29"
        y="79.661"
    >}</text>
    <text
        style="font-size:20px;font-family:sans-serif;fill:#000000;stroke:none"
        x="65.427"
        y="65.765"
    >+1</text>
</svg>