<svg
    xmlns="http://www.w3.org/2000/svg"
    height="100px"
    width="100px"
    viewbox="0 0 100 100"
>
    <rect
        style="fill:#fffda4;stroke:#000000;stroke-width:3px"
        x="0px"
        y="0px"
        width="100px"
        height="100px"
    />
    <g>
        <g>
            <polygon
                style="fill:#fcefde;stroke:#ff0000;stroke-width:2.5px"
                points="9.055,3.714 19.346,3.714 24.491,12.626 19.346,21.538 9.055,21.538 3.910,12.626"
            />
            <polygon
                style="fill:none;stroke:#000000;stroke-width:1px"
                points="8.484,2.724 19.917,2.724 25.634,12.626 19.917,22.528 8.484,22.528 2.767,12.626"
            />
        </g>
        <g>
            <rect
                style="fill:#ff0000;fill-opacity:1;stroke:none"
                width="11.278"
                height="2.905"
                x="8.561"
                y="14.364"
            />
            <rect
                style="fill:#ff0000;fill-opacity:1;stroke:none"
                width="7.079"
                height="2.91"
                x="10.661"
                y="11.055"
            />
            <rect
                style="fill:#ff0000;fill-opacity:1;stroke:none"
                width="3.833"
                height="2.905"
                x="12.284"
                y="7.747"
            />
        </g>
    </g>
    <text
        style="font-size:20px;font-family:sans-serif;fill:#000000;stroke:none"
        x="67"
        y="19"
    >#5</text>
    <text
        style="font-size:12px;font-family:sans-serif;fill:#000000;stroke:none"
        x="25"
        y="44"
    >3+</text>
    <g>
        <circle
            style="fill:#ffffff;stroke:#000000;stroke-width:1px"
            cy="40"
            cx="57"
            r="12"
        />
        <path
            style="fill:none;stroke:#000000;stroke-width:0.5px"
            d="m 50.701,36.851 c 0.415,0.396 0.393,1.092 0.393,1.092 0,0 -0.694,0.055 -1.109,-0.341 -0.415,-0.396 -0.393,-1.092 -0.393,-1.092 0,0 0.695,-0.055 1.109,0.341 z"
        />
        <path
            style="fill:none;stroke:#000000;stroke-width:0.5px"
            d="m 48.360,40.208 c 0.737,0.549 0.837,1.660 0.837,1.660 0,0 -1.094,0.222 -1.831,-0.327 -0.737,-0.549 -0.837,-1.660 -0.837,-1.660 0,0 1.094,-0.222 1.831,0.327 z"
        />
        <path
            style="fill:none;stroke:#000000;stroke-width:0.5px"
            d="m 51.954,45.506 c -1.100,0.349 -2.226,-0.404 -2.226,-0.404 0,0 0.657,-1.320 1.757,-1.670 1.100,-0.350 2.226,0.404 2.226,0.404 0,0 -0.658,1.320 -1.757,1.670 z"
        />
        <path
            style="fill:none;stroke:#000000;stroke-width:0.5px"
            d="m 53.614,41.053 c -0.872,0.250 -1.740,-0.367 -1.740,-0.367 0,0 0.545,-1.022 1.416,-1.273 0.872,-0.250 1.740,0.367 1.740,0.367 0,0 -0.546,1.022 -1.417,1.273 z"
        />
        <path
            style="fill:none;stroke:#000000;stroke-width:0.5px"
            d="m 51.433,38.689 c 0,1.140 -0.689,2.400 -1.164,3.134 -0.194,0.300 -0.415,0.579 -0.645,0.852 -0.614,0.728 -1.246,1.960 -0.924,3.786"
        />
        <circle
            style="fill:none;stroke:#000000;stroke-width:0.5px"
            r="1.02"
            cy="31.01"
            cx="56.67"
        />
        <path
            style="fill:none;stroke:#000000;stroke-width:0.5px"
            d="m 57.786,36.885 c 0,0 0.132,0.271 0.293,0.601 0.161,0.331 0.189,0.888 0.062,1.238 l -0.891,2.450 c -0.127,0.350 -0.236,0.941 -0.243,1.313 l -0.062,3.722 c -0.006,0.372 0.250,0.677 0.568,0.677 0.319,0 0.625,-0.301 0.681,-0.669 l 0.414,-2.722 c 0.056,-0.368 0.238,-0.941 0.404,-1.275 l 0.410,-0.820 c 0.167,-0.333 0.537,-0.800 0.823,-1.039 l 0.991,-0.825 c 0.286,-0.238 0.520,-0.738 0.520,-1.110 v 0 c 0,-0.372 -0.146,-0.944 -0.324,-1.271 l -1.706,-3.128"
        />
        <path
            style="fill:none;stroke:#000000;stroke-width:0.5px"
            d="M 57.019,34.704"
        />
        <path
            style="fill:none;stroke:#000000;stroke-width:0.5px"
            d="m 61.756,38.765 1.389,2.779 c 0.167,0.333 0.565,0.760 0.886,0.949 l 2.275,1.342 c 0.321,0.189 0.507,0.572 0.414,0.852 -0.093,0.279 -0.451,0.392 -0.795,0.250 l -2.865,-1.178 C 62.715,43.618 62.233,43.273 61.988,42.993 l -1.923,-2.198"
        />
        <path
            style="fill:none;stroke:#000000;stroke-width:0.5px"
            d="m 59.726309,34.027215 c -0.676801,-1.353601 -1.475208,-1.432412 -2.040954,-1.212491 -0.4032,0.15665 -0.652359,0.486283 -0.752146,0.862177"
        />
        <path
            style="fill:none;stroke:#000000;stroke-width:0.5px"
            d="m 58.034,34.027 -1.018,1.781 c -0.185,0.323 -0.633,0.655 -0.996,0.736 l -2.343,0.528"
        />
    </g>
    <text
        style="font-size:12px;font-family:sans-serif;fill:#000000;stroke:none"
        x="44.5"
        y="65"
    >+</text>
    <g>
        <circle
            style="fill:#ffffff;stroke:#000000;stroke-width:1px"
            cy="82"
            cx="15.4"
            r="12"
        />
        <path
            style="fill:#000000;stroke:#000000;stroke-width:0.2px"
            d="m 25.591,79.095 -6.120,4.610 2.196,7.341 -6.275,-4.396 -6.303,4.356 2.242,-7.327 -6.091,-4.648 7.661,-0.132 2.539,-7.229 2.493,7.245 z"
        />
    </g>
    <text
        style="font-size:12px;font-family:sans-serif;fill:#000000;stroke:none"
        x="30"
        y="85"
    >/</text>
    <g>
        <circle
            style="fill:#ffffff;stroke:#000000;stroke-width:1px"
            cy="82"
            cx="49.8"
            r="12"
        />
        <path
            style="fill:#000000;stroke:none"
            d="m 49.9,71.1 c -0.4,0 -1.2,0 -2.1,0.1 -0.8,0.1 -1.7,0.5 -2.0,0.9 -0.2,0.2 -0.1,0.8 0,1.0 0,0 0.3,0.3 0.6,0.4 0.3,0.1 0.6,0.3 0.6,0.2 l 0.3,0.1 v 0.3 c 0,0.2 -0.1,0.4 -0.2,0.5 -0.1,0.1 -0.1,0.2 -0.2,0.3 0,0.2 -0.1,0.5 0.3,1.2 l 0.2,0.3 -0.3,0.3 c -1.0,1.0 -1.8,2.4 -2.4,3.8 -0.5,1.4 -0.7,2.8 -0.4,3.8 0.3,1.0 1.0,1.9 1.7,2.7 0.6,0.8 1.3,1.6 1.3,2.6 0,0.5 -0.3,0.8 -0.5,1.0 -0.2,0.2 -0.3,0.2 -0.3,0.5 0,0.1 0.3,0.6 0.8,1.0 0.6,0.4 1.4,0.8 2.4,0.8 1.0,0 1.8,-0.3 2.4,-0.8 0.6,-0.4 0.8,-1.0 0.8,-1.0 0,-0.3 -0.1,-0.3 -0.3,-0.5 -0.2,-0.2 -0.5,-0.5 -0.5,-1.0 0,-1.0 0.6,-1.7 1.3,-2.6 0.6,-0.8 1.3,-1.7 1.7,-2.7 0.3,-1.0 0.2,-2.3 -0.4,-3.8 -0.5,-1.4 -1.4,-2.9 -2.5,-3.9 l -0.2,-0.2 0.1,-0.3 c 0.3,-0.7 0.3,-0.9 0.3,-1.0 0,-0.2 -0.3,-0.5 -0.3,-1.0 v -0.3 l 0.3,-0.1 c 0,0 0.3,-0.1 0.6,-0.2 0.3,-0.1 0.6,-0.3 0.6,-0.4 0.2,-0.3 0.2,-0.8 0,-1.0 0,-0.4 -0.8,-0.7 -1.7,-0.8 -0.8,-0.1 -1.7,-0.1 -2.1,-0.1 z m -5.4,2.8 c -0.2,0 -0.4,0.1 -0.7,0.2 -1.8,1.1 -0.5,4.6 0.1,6.3 0,-0.1 0,-0.1 0.1,-0.2 0.2,-0.5 0.4,-0.9 0.6,-1.3 -0.5,-1.3 -1.4,-3.3 -0.3,-4.0 0.5,-0.3 1.4,0.3 2.0,0.8 -0.1,-0.3 -0.1,-0.6 0,-0.8 -0.6,-0.5 -1.2,-1.0 -1.8,-1.0 z m 10.8,0 c -0.5,0 -1.1,0.4 -1.8,0.9 0,0.2 0.1,0.5 0,0.8 0.6,-0.5 1.4,-1.1 1.9,-0.8 1.1,0.8 0.3,2.6 -0.3,4.0 0.3,0.5 0.5,0.9 0.6,1.4 0,0 0,0.1 0,0.1 0.6,-1.8 1.8,-5.2 0,-6.3 -0.2,-0.1 -0.4,-0.2 -0.7,-0.2 z"
        />
    </g>
    <text
        style="font-size:12px;font-family:sans-serif;fill:#000000;stroke:none"
        x="65"
        y="85"
    >/</text>
    <g>
        <circle
            style="fill:#ffffff;stroke:#000000;stroke-width:1px"
            cy="82"
            cx="84.1"
            r="12"
        />
        <path
            style="fill:#000000;stroke:none"
            d="m 81.0,74.7 c -0.8,0 -1.4,0.7 -1.4,1.4 0,0.7 0.4,1.1 1.1,1.3 l -1.4,3.3 c 0.7,0.1 1.1,0.7 1.1,1.3 0,0.8 -0.6,1.3 -1.3,1.3 -0.8,0 -1.3,-0.6 -1.3,-1.3 0,-0.6 0.3,-1.1 0.8,-1.2 l -2.0,-3.2 c 0.4,-0.3 0.6,-0.6 0.6,-1.1 0,-0.7 -0.6,-1.2 -1.2,-1.2 -0.7,0 -1.2,0.6 -1.2,1.2 0,0.7 0.6,1.2 1.2,1.2 0,0 0,0 0.1,0 l 1.7,9.1 h 12.6 l 1.7,-9.1 c 0,0 0,0 0.1,0 0.7,0 1.2,-0.6 1.2,-1.2 0,-0.7 -0.6,-1.2 -1.2,-1.2 -0.7,0 -1.2,0.6 -1.2,1.2 0,0.4 0.2,0.8 0.6,1.1 l -2.0,3.2 c 0.4,0.2 0.7,0.7 0.7,1.2 0,0.8 -0.6,1.3 -1.3,1.3 -0.8,0 -1.3,-0.6 -1.3,-1.3 0,-0.7 0.5,-1.2 1.1,-1.3 l -1.4,-3.3 c 0.6,-0.1 1.1,-0.7 1.1,-1.3 0,-0.8 -0.7,-1.4 -1.4,-1.4 -0.8,0 -1.4,0.7 -1.4,1.4 0,0.6 0.4,1.1 0.9,1.3 l -1.7,3.1 c 0.6,0.2 1.1,0.7 1.1,1.3 0,0.8 -0.7,1.4 -1.4,1.4 -0.8,0 -1.4,-0.7 -1.4,-1.4 0,-0.6 0.4,-1.1 1.0,-1.3 l -2.5,-3.0 c 0.6,-0.2 1,-0.7 1,-1.3 0,-0.8 -0.7,-1.4 -1.4,-1.4 z m -3.6,13.0 c -1.0,0.2 -1.0,1.6 0.2,1.6 h 0.3 v 0 h 11.8 v 0 h 0.3 c 1.1,0 1.1,-1.4 0.2,-1.6 z"
        />
    </g>
</svg>
