<svg
    xmlns="http://www.w3.org/2000/svg"
    height="100px"
    width="100px"
    viewbox="0 0 100 100"
>
    <rect
        style="fill:#fffda4;stroke:#000000;stroke-width:3px"
        x="0px"
        y="0px"
        width="100px"
        height="100px"
    />
    <g>
        <g>
            <polygon
                style="fill:#fcefde;stroke:#ff0000;stroke-width:2.5px"
                points="9.055,3.714 19.346,3.714 24.491,12.626 19.346,21.538 9.055,21.538 3.910,12.626"
            />
            <polygon
                style="fill:none;stroke:#000000;stroke-width:1px"
                points="8.484,2.724 19.917,2.724 25.634,12.626 19.917,22.528 8.484,22.528 2.767,12.626"
            />
        </g>
        <g>
            <rect
                style="fill:#ff0000;fill-opacity:1;stroke:none"
                width="11.278"
                height="2.905"
                x="8.561"
                y="14.364"
            />
            <rect
                style="fill:#ff0000;fill-opacity:1;stroke:none"
                width="7.079"
                height="2.91"
                x="10.661"
                y="11.055"
            />
            <rect
                style="fill:#ff0000;fill-opacity:1;stroke:none"
                width="3.833"
                height="2.905"
                x="12.284"
                y="7.747"
            />
        </g>
    </g>
    <path
        style="fill:#000000;stroke:none"
        d="M 80.9,14.8 80.1,19.0 h -0.8 q -0.1,0 -0.2,-0.1 -0.1,-0.1 -0.2,-0.2 -0.1,-0.1 -0.1,-0.2 0,-0.1 0,-0.3 l 0.7,-3.5 h -2.5 l -0.7,3.6 Q 76.2,18.7 76.0,18.9 75.8,19.0 75.5,19.0 h -0.8 l 0.9,-4.2 h -1.5 q -0.3,0 -0.4,-0.2 -0.1,-0.2 -0.1,-0.6 l 0.1,-0.6 h 2.0 L 76.4,10.2 H 74.0 L 74.2,9.5 Q 74.2,9.2 74.4,9.0 74.6,8.9 75.0,8.9 h 1.6 l 0.7,-3.6 q 0.1,-0.3 0.3,-0.5 0.2,-0.2 0.5,-0.2 h 0.8 l -0.8,4.2 h 2.5 l 0.8,-4.2 h 0.8 q 0.3,0 0.5,0.2 0.2,0.2 0.1,0.5 l -0.7,3.6 h 2.1 l -0.1,0.8 q -0.1,0.3 -0.2,0.4 -0.2,0.1 -0.6,0.1 h -1.4 l -0.7,3.3 h 1.8 q 0.3,0 0.4,0.2 0.1,0.2 0.1,0.6 l -0.1,0.6 z m -3.8,-1.3 h 2.5 L 80.3,10.2 h -2.5 z"
    />
    <path
        style="fill:#000000;stroke:none"
        d="m 90.5,4.5 q 0.9,0 1.7,0.3 0.8,0.3 1.4,0.8 0.6,0.5 0.9,1.3 0.3,0.7 0.3,1.7 0,0.8 -0.2,1.5 -0.2,0.7 -0.7,1.3 -0.4,0.6 -1.0,1.2 -0.5,0.6 -1.1,1.2 l -3.8,3.9 q 0.4,-0.1 0.8,-0.2 0.4,-0.1 0.8,-0.1 h 4.8 q 0.3,0 0.5,0.2 0.2,0.2 0.2,0.4 V 19 h -9.6 v -0.6 q 0,-0.2 0.1,-0.4 0.1,-0.2 0.3,-0.4 l 4.6,-4.6 q 0.6,-0.6 1.0,-1.1 0.5,-0.5 0.8,-1.1 0.3,-0.5 0.5,-1.1 0.2,-0.6 0.2,-1.2 0,-0.6 -0.2,-1.1 -0.2,-0.5 -0.6,-0.8 -0.3,-0.3 -0.8,-0.5 -0.5,-0.2 -1.0,-0.2 -0.6,0 -1.0,0.2 -0.5,0.2 -0.8,0.5 -0.4,0.3 -0.6,0.7 -0.2,0.4 -0.3,0.9 -0.1,0.4 -0.3,0.5 -0.2,0.1 -0.6,0.1 l -0.9,-0.2 q 0.1,-1.0 0.5,-1.7 0.4,-0.8 1.0,-1.3 0.6,-0.5 1.4,-0.8 0.8,-0.3 1.7,-0.3 z"
    />
    <path
        style="fill:#000000;stroke:none"
        d="m 45.1,81.3 c -5.2,0 -10.2,-2.1 -13.8,-5.7 -3.7,-3.7 -5.7,-8.6 -5.7,-13.8 0,-5.2 2.1,-10.2 5.7,-13.8 3.7,-3.7 8.6,-5.7 13.8,-5.7 5.2,0 10.2,2.1 13.8,5.7 3.7,3.7 5.7,8.6 5.7,13.8 H 54.9 L 70.5,85.2 86.2,61.8 h -9.8 c 0,-8.3 -3.3,-16.2 -9.2,-22.1 -5.9,-5.9 -13.8,-9.2 -22.1,-9.2 -8.3,0 -16.2,3.3 -22.1,9.2 -5.9,5.9 -9.2,13.8 -9.2,22.1 0,8.3 3.3,16.2 9.2,22.1 5.9,5.9 13.8,9.2 22.1,9.2 z"
    />
</svg>
