<svg
    xmlns="http://www.w3.org/2000/svg"
    height="100px"
    width="100px"
    viewbox="0 0 100 100"
>
    <rect
        style="fill:#fffda4;stroke:#000000;stroke-width:3px"
        x="0px"
        y="0px"
        width="100px"
        height="100px"
    />
    <g>
        <g>
            <polygon
                style="fill:#fcefde;stroke:#ff0000;stroke-width:2.5px"
                points="9.055,3.714 19.346,3.714 24.491,12.626 19.346,21.538 9.055,21.538 3.910,12.626"
            />
            <polygon
                style="fill:none;stroke:#000000;stroke-width:1px"
                points="8.484,2.724 19.917,2.724 25.634,12.626 19.917,22.528 8.484,22.528 2.767,12.626"
            />
        </g>
        <g>
            <rect
                style="fill:#ff0000;fill-opacity:1;stroke:none"
                width="11.278"
                height="2.905"
                x="8.561"
                y="14.364"
            />
            <rect
                style="fill:#ff0000;fill-opacity:1;stroke:none"
                width="7.079"
                height="2.91"
                x="10.661"
                y="11.055"
            />
            <rect
                style="fill:#ff0000;fill-opacity:1;stroke:none"
                width="3.833"
                height="2.905"
                x="12.284"
                y="7.747"
            />
        </g>
    </g>
    <text
        style="font-size:20px;font-family:sans-serif;fill:#000000;stroke:none"
        x="67"
        y="19"
    >#2</text>
    <path
        d="M 71.429,39.370 C 66.072,33.630 58.419,30.186 50,30.186 c -16.837,0 -30.613,13.776 -30.613,30.613 0,16.837 13.776,30.613 30.613,30.613 14.159,0 26.021,-9.949 29.465,-22.960 H 71.429 C 68.368,77.254 59.949,83.760 50,83.760 c -12.628,0 -22.960,-10.332 -22.960,-22.960 0,-12.628 10.332,-22.960 22.960,-22.960 6.505,0 11.863,2.679 16.072,6.888 L 53.827,56.973 H 80.613 V 30.186 Z"
        style="stroke-width:3px"
    />
</svg>