<svg
    xmlns="http://www.w3.org/2000/svg"
    height="100px"
    width="100px"
    viewbox="0 0 100 100"
>
    <rect
        style="fill:#fffda4;stroke:#000000;stroke-width:3px"
        x="0px"
        y="0px"
        width="100px"
        height="100px"
    />
    <g>
        <g>
            <polygon
                style="fill:#fcefde;stroke:#ff0000;stroke-width:2.5px"
                points="9.055,3.714 19.346,3.714 24.491,12.626 19.346,21.538 9.055,21.538 3.910,12.626"
            />
            <polygon
                style="fill:none;stroke:#000000;stroke-width:1px"
                points="8.484,2.724 19.917,2.724 25.634,12.626 19.917,22.528 8.484,22.528 2.767,12.626"
            />
        </g>
        <g>
            <rect
                style="fill:#ff0000;fill-opacity:1;stroke:none"
                width="11.278"
                height="2.905"
                x="8.561"
                y="14.364"
            />
            <rect
                style="fill:#ff0000;fill-opacity:1;stroke:none"
                width="7.079"
                height="2.91"
                x="10.661"
                y="11.055"
            />
            <rect
                style="fill:#ff0000;fill-opacity:1;stroke:none"
                width="3.833"
                height="2.905"
                x="12.284"
                y="7.747"
            />
        </g>
    </g>
    <text
        style="font-size:20px;font-family:sans-serif;fill:#000000;stroke:none"
        x="67"
        y="19"
    >#6</text>
    <g>
        <circle
            style="fill:#ffffff;stroke:#000000;stroke-width:1px"
            cy="42"
            cx="15.4"
            r="12"
        />
        <path
            style="fill:#000000;stroke:#000000;stroke-width:0.2px"
            d="m 25.591,39.095 -6.120,4.610 2.196,7.341 -6.275,-4.396 -6.303,4.356 2.242,-7.327 -6.091,-4.648 7.661,-0.132 2.539,-7.229 2.493,7.245 z"
        />
    </g>
    <text
        style="font-size:12px;font-family:sans-serif;fill:#000000;stroke:none"
        x="30"
        y="45"
    >/</text>
    <g>
        <circle
            style="fill:#ffffff;stroke:#000000;stroke-width:1px"
            cy="42"
            cx="49.8"
            r="12"
        />
        <path
            style="fill:#000000;stroke:none"
            d="m 49.9,31.1 c -0.4,0 -1.2,0 -2.1,0.1 -0.8,0.1 -1.7,0.5 -2.0,0.9 -0.2,0.2 -0.1,0.8 0,1 0,0 0.3,0.3 0.6,0.4 0.3,0.1 0.6,0.3 0.6,0.2 l 0.3,0.1 v 0.3 c 0,0.2 -0.1,0.4 -0.2,0.5 -0.1,0.1 -0.1,0.2 -0.2,0.3 0,0.2 -0.1,0.5 0.3,1.2 l 0.2,0.3 -0.3,0.3 c -1.0,1.0 -1.8,2.4 -2.4,3.8 -0.5,1.4 -0.7,2.8 -0.4,3.8 0.3,1.0 1.0,1.9 1.7,2.7 0.6,0.8 1.3,1.6 1.3,2.6 0,0.5 -0.3,0.8 -0.5,1.0 -0.2,0.2 -0.3,0.2 -0.3,0.5 0,0.1 0.3,0.6 0.8,1.0 0.6,0.4 1.4,0.8 2.4,0.8 1.0,0 1.8,-0.3 2.4,-0.8 0.6,-0.4 0.8,-1.0 0.8,-1.0 0,-0.3 -0.1,-0.3 -0.3,-0.5 -0.2,-0.2 -0.5,-0.5 -0.5,-1.0 0,-1.0 0.6,-1.7 1.3,-2.6 0.6,-0.8 1.3,-1.7 1.7,-2.7 0.3,-1.0 0.2,-2.3 -0.4,-3.8 -0.5,-1.4 -1.4,-2.9 -2.5,-3.9 l -0.2,-0.2 0.1,-0.3 c 0.3,-0.7 0.3,-0.9 0.3,-1 0,-0.2 -0.3,-0.5 -0.3,-1 v -0.3 l 0.3,-0.1 c 0,0 0.3,-0.1 0.6,-0.2 0.3,-0.1 0.6,-0.3 0.6,-0.4 0.2,-0.3 0.2,-0.8 0,-1 0,-0.4 -0.8,-0.7 -1.7,-0.8 -0.8,-0.1 -1.7,-0.1 -2.1,-0.1 z m -5.4,2.8 c -0.2,0 -0.4,0.1 -0.7,0.2 -1.8,1.1 -0.5,4.6 0.1,6.3 0,-0.1 0,-0.1 0.1,-0.2 0.2,-0.5 0.4,-0.9 0.6,-1.3 -0.5,-1.3 -1.4,-3.3 -0.3,-4.0 0.5,-0.3 1.4,0.3 2,0.8 -0.1,-0.3 -0.1,-0.6 0,-0.8 -0.6,-0.5 -1.2,-1.0 -1.8,-1.0 z m 10.8,0 c -0.5,0 -1.1,0.4 -1.8,0.9 0,0.2 0.1,0.5 0,0.8 0.6,-0.5 1.4,-1.1 1.9,-0.8 1.1,0.8 0.3,2.6 -0.3,4.0 0.3,0.5 0.5,0.9 0.6,1.4 0,0 0,0.1 0,0.1 0.6,-1.8 1.8,-5.2 0,-6.3 -0.2,-0.1 -0.4,-0.2 -0.7,-0.2 z"
        />
    </g>
    <text
        style="font-size:12px;font-family:sans-serif;fill:#000000;stroke:none"
        x="65"
        y="45"
    >/</text>
    <g>
        <circle
            style="fill:#ffffff;stroke:#000000;stroke-width:1px"
            cy="42"
            cx="84.1"
            r="12"
        />
        <path
            style="fill:#000000;stroke:#000000;stroke-width:0.2px"
            d="m 84.849,44.610 c 0,0.361 -0.251,0.544 -0.757,0.544 -0.563,0 -0.846,-0.183 -0.846,-0.544 0,-1.676 -0.556,-3.039 -1.665,-4.087 -0.989,-0.889 -1.947,-1.332 -2.876,-1.332 -1.372,0 -2.230,0.544 -2.573,1.634 l -0.121,0.816 v 0.061 c 0,0.807 0.595,1.927 1.786,3.360 0.323,0.363 0.595,0.647 0.817,0.849 0.323,0.263 0.858,0.394 1.604,0.394 0.787,0 2.059,-0.152 3.815,-0.455 1.775,0.302 3.057,0.455 3.843,0.455 0.767,0 1.301,-0.131 1.604,-0.394 0.849,-0.748 1.554,-1.655 2.120,-2.724 0.324,-0.605 0.485,-1.100 0.485,-1.484 0,-1.271 -0.577,-2.068 -1.726,-2.391 -0.302,-0.080 -0.626,-0.120 -0.968,-0.120 -0.928,0 -1.878,0.453 -2.846,1.362 -1.130,1.008 -1.695,2.361 -1.695,4.056 m 6.570,-2.907 c 0,0.807 -0.556,1.756 -1.665,2.846 l -0.788,0.666 -0.302,0.181 c -0.385,0.061 -0.788,0.091 -1.210,0.091 -1.252,0 -1.878,-0.253 -1.878,-0.757 0.040,-1.554 0.504,-2.764 1.393,-3.632 0.767,-0.767 1.554,-1.151 2.361,-1.151 1.029,0 1.686,0.375 1.967,1.121 l 0.122,0.635 m -2.877,7.688 c 0,-0.523 -1.482,-0.785 -4.450,-0.785 -0.807,0 -1.522,0.030 -2.148,0.089 l -0.727,0.061 c -1.090,0.141 -1.634,0.345 -1.634,0.605 0,0.305 0.272,0.455 0.817,0.455 l 3.663,-0.302 3.632,0.302 c 0.565,0 0.846,-0.141 0.846,-0.424 m 1.695,0.727 c -0.040,1.372 -2.098,2.059 -6.173,2.059 -4.037,0 -6.085,-0.687 -6.145,-2.059 -0.020,-1.292 -0.212,-2.441 -0.575,-3.451 -0.222,-0.544 -0.646,-1.240 -1.271,-2.087 -0.787,-1.069 -1.181,-2.019 -1.181,-2.846 0,-1.292 0.555,-2.291 1.665,-2.996 0.626,-0.404 1.322,-0.605 2.089,-0.605 1.049,0 2.048,0.384 2.997,1.149 0,-0.927 0.091,-1.563 0.272,-1.906 0.141,-0.384 0.605,-0.848 1.393,-1.392 v -0.696 l -1.241,-0.757 v -1.090 h 1.120 l 0.363,-1.120 h 1.029 l 0.394,1.120 h 1.090 v 1.090 l -1.212,0.757 v 0.696 c 0.767,0.565 1.243,1.049 1.423,1.453 l 0.211,0.878 c 0.021,0.242 0.042,0.565 0.061,0.968 0.950,-0.766 1.927,-1.149 2.935,-1.149 1.353,0 2.403,0.515 3.149,1.543 0.424,0.605 0.635,1.292 0.635,2.059 0,0.828 -0.394,1.787 -1.179,2.877 l -0.696,0.968 c -0.748,1.130 -1.130,2.642 -1.151,4.539 M 76.707,41.703 c 0,-0.846 0.424,-1.393 1.271,-1.634 0.242,-0.080 0.494,-0.122 0.757,-0.122 0.848,0 1.655,0.385 2.421,1.151 0.868,0.889 1.322,2.098 1.362,3.632 0.021,0.445 -0.444,0.696 -1.392,0.757 h -0.454 c -0.404,0 -0.817,-0.030 -1.241,-0.091 -0.666,-0.321 -1.332,-0.959 -1.998,-1.906 C 76.949,42.783 76.707,42.188 76.707,41.703"
        />
    </g>
    <g>
        <polygon
            style="fill:#66c99c;stroke:#000000;stroke-width:2px"
            points="58.571,60.854 67.146,75.706 58.571,90.559 41.421,90.559 32.846,75.706 41.421,60.854"
        />
        <path
            style="fill:none;stroke:#000000;stroke-width:1px"
            d="m 49.550,77.327 c 1.089,1.089 1.036,2.891 -0.160,3.911 -1.062,0.905 -2.665,0.775 -3.661,-0.203 -2.556,-2.511 -5.689,-2.640 -6.060,-2.646 -0.014,0 -0.021,-0.016 -0.012,-0.027 0.390,-0.416 5.377,-5.544 9.782,-1.139 0.038,0.035 0.075,0.068 0.111,0.105 z"
        />
        <path
            style="fill:none;stroke:#000000;stroke-width:1px"
            d="m 44.559,74.358 c 0.174,-0.377 0.373,-0.731 0.577,-1.057 0.725,-1.153 1.534,-1.934 1.689,-2.081 0.009,-0.008 0.0254,-0.003 0.025,0.011 0.005,0.242 0.061,1.653 0.790,3.312 l 0.073,0.156"
        />
        <path
            style="fill:none;stroke:#000000;stroke-width:1px"
            d="m 44.174,72.340 c -1.570,-1.570 -3.144,-2.501 -4.328,-2.718 -0.178,-0.031 -0.344,-0.048 -0.502,-0.048 -0.437,0 -0.798,0.127 -1.054,0.381 -0.961,0.964 -0.070,3.428 2.385,5.884"
        />
    </g>
</svg>
