<svg
    xmlns="http://www.w3.org/2000/svg"
    height="100px"
    width="100px"
    viewbox="0 0 100 100"
>
    <rect
        style="fill:#fffda4;stroke:#000000;stroke-width:3px"
        x="0px"
        y="0px"
        width="100px"
        height="100px"
    />
    <g>
        <g>
            <polygon
                style="fill:#fcefde;stroke:#ff0000;stroke-width:2.5px"
                points="9.055,3.714 19.346,3.714 24.491,12.626 19.346,21.538 9.055,21.538 3.910,12.626"
            />
            <polygon
                style="fill:none;stroke:#000000;stroke-width:1px"
                points="8.484,2.724 19.917,2.724 25.634,12.626 19.917,22.528 8.484,22.528 2.767,12.626"
            />
        </g>
        <g>
            <rect
                style="fill:#ff0000;fill-opacity:1;stroke:none"
                width="11.278"
                height="2.905"
                x="8.561"
                y="14.364"
            />
            <rect
                style="fill:#ff0000;fill-opacity:1;stroke:none"
                width="7.079"
                height="2.91"
                x="10.661"
                y="11.055"
            />
            <rect
                style="fill:#ff0000;fill-opacity:1;stroke:none"
                width="3.833"
                height="2.905"
                x="12.284"
                y="7.747"
            />
        </g>
    </g>
    <path
        style="fill:#000000;stroke:none"
        d="M 80.9,14.8 80.1,19.0 h -0.8 q -0.1,0 -0.2,-0.1 -0.1,-0.1 -0.2,-0.2 -0.1,-0.1 -0.1,-0.2 0,-0.1 0,-0.3 l 0.7,-3.5 h -2.5 l -0.7,3.6 Q 76.2,18.7 76.0,18.9 75.8,19.0 75.5,19.0 h -0.8 l 0.9,-4.2 h -1.5 q -0.3,0 -0.4,-0.2 -0.1,-0.2 -0.1,-0.6 l 0.1,-0.6 h 2.0 L 76.4,10.2 H 74.0 L 74.2,9.5 Q 74.2,9.2 74.4,9.0 74.6,8.9 75.0,8.9 h 1.6 l 0.7,-3.6 q 0.1,-0.3 0.3,-0.5 0.2,-0.2 0.5,-0.2 h 0.8 l -0.8,4.2 h 2.5 l 0.8,-4.2 h 0.8 q 0.3,0 0.5,0.2 0.2,0.2 0.1,0.5 l -0.7,3.6 h 2.1 l -0.1,0.8 q -0.1,0.3 -0.2,0.4 -0.2,0.1 -0.6,0.1 h -1.4 l -0.7,3.3 h 1.8 q 0.3,0 0.4,0.2 0.1,0.2 0.1,0.6 l -0.1,0.6 z m -3.8,-1.3 h 2.5 L 80.3,10.2 h -2.5 z"
    />
    <path
        style="fill:#000000;stroke:none"
        d="m 95.4,4.7 v 0.8 q 0,0.3 -0.1,0.6 -0.1,0.2 -0.1,0.4 l -5.9,12.0 q -0.1,0.3 -0.4,0.5 -0.2,0.2 -0.6,0.2 h -1.3 l 6.0,-11.8 q 0.1,-0.3 0.3,-0.5 0.1,-0.2 0.3,-0.4 h -7.5 q -0.2,0 -0.3,-0.1 -0.1,-0.1 -0.1,-0.3 V 4.7 Z"
    />
    <polygon
        style="fill:#b8acac;stroke:#000000;stroke-width:2px"
        points="31.571,27.854 40.146,42.706 31.571,57.559 14.421,57.559 5.846,42.706 14.421,27.854"
    />
    <polygon
        style="fill:#b8acac;stroke:#000000;stroke-width:2px"
        points="31.571,62.854 40.146,77.706 31.571,92.559 14.421,92.559 5.846,77.706 14.421,62.854"
    />
    <path
        style="fill:#000000;stroke:none"
        d="m 37.75,86.155144 h 2.392578 q 4.785156,0 6.220703,-1.469727 1.469727,-1.469726 1.469727,-6.357422 v -8.476562 q 0,-5.332031 1.538086,-7.758789 1.538086,-2.426758 5.332031,-3.34961 -3.793945,-0.854492 -5.332031,-3.28125 -1.538086,-2.426757 -1.538086,-7.792968 v -8.476563 q 0,-4.853516 -1.469727,-6.323242 -1.435547,-1.503906 -6.220703,-1.503906 H 37.75 v -4.887696 h 2.15332 q 8.510742,0 11.347657,2.529297 2.871093,2.495117 2.871093,10.048828 v 8.203125 q 0,5.092774 1.845703,7.075196 1.845704,1.948242 6.699219,1.948242 h 2.119141 v 4.887695 h -2.119141 q -4.853515,0 -6.699219,1.982422 -1.845703,1.982422 -1.845703,7.143555 v 8.168945 q 0,7.553711 -2.871093,10.083008 -2.836915,2.529297 -11.347657,2.529297 H 37.75 Z"
    />
    <path
        style="fill:#000000;stroke:none"
        d="m 74.3,52.9 v 5.1 h 4.9 v 1.6 h -4.9 v 5.2 h -1.7 v -5.2 h -4.9 v -1.6 h 4.9 v -5.1 z"
    />
    <path
        style="fill:#000000;stroke:none"
        d="m 83.4,65.2 h 3.7 v -11.7 q 0,-0.5 0,-1.1 l -3.1,2.6 q -0.2,0.1 -0.3,0.2 -0.2,0 -0.3,0 -0.1,0 -0.3,-0.1 -0.1,-0.1 -0.2,-0.2 l -0.7,-0.9 5.1,-4.4 h 1.7 v 15.6 h 3.4 v 1.6 h -9.2 z"
    />
</svg>
