<svg
    xmlns="http://www.w3.org/2000/svg" 
    height="62.622px"
    width="72.309px"
    viewbox="0 0 72.309 62.622"
>
    <circle
        style="fill:#ff0000;stroke:#000000;stroke-width:1px"
        cy="31.311"
        cx="36.155"
        r="28"
    />
    <path
        style="fill:#000000;stroke:#000000;stroke-width:0.25px"
        d="m 36.155,10.527 c -7.699,0.025 -15.398,0.499 -15.398,1.348 0,0 3.218,5.389 3.874,8.290 0.273,1.209 0.312,2.481 0,3.684 -0.7913,3.054 -3.837,5.547 -4.650,8.597 -1.175,4.406 -1.431,9.115 -0.193,13.510 0.485,1.720 2.906,4.759 2.906,4.759 0,1.977 26.920,1.703 26.920,0 0,0 2.421,-3.039 2.906,-4.759 1.239,-4.396 0.982,-9.104 -0.193,-13.510 -0.813,-3.050 -3.861,-5.543 -4.652,-8.597 -0.312,-1.203 -0.274,-2.475 0,-3.684 0.656,-2.901 3.876,-8.290 3.876,-8.290 0,-0.949 -7.699,-1.373 -15.398,-1.348 z m -11.716,3.343 c 0,0 5.391,0.985 8.139,1.075 4.663,0.152 10.631,-0.591 13.952,-0.920 0,0 -8.146,2.279 -12.403,2.609 -1.997,0.155 -6.006,-0.307 -6.006,-0.307 0,0 4.725,7.324 4.264,11.208 -0.497,4.193 -5.918,7.154 -7.365,11.206 -1.234,3.456 -0.969,10.746 -0.969,10.746 0,0 -3.382,-7.824 -2.906,-11.821 0.261,-2.195 2.081,-4.089 3.101,-6.141 1.244,-2.502 3.463,-4.839 3.681,-7.522 0.278,-3.418 -3.101,-9.979 -3.101,-9.979 L 24.439,13.870 Z"
    />
</svg>