<svg
    xmlns="http://www.w3.org/2000/svg"
    height="100px"
    width="100px"
    viewbox="0 0 100 100"
>
    <rect
        style="fill:#fffda4;stroke:#000000;stroke-width:3px"
        x="0px"
        y="0px"
        width="100px"
        height="100px"
    />
    <g>
        <g>
            <polygon
                style="fill:#fcefde;stroke:#ff0000;stroke-width:2.5px"
                points="9.055,3.714 19.346,3.714 24.491,12.626 19.346,21.538 9.055,21.538 3.910,12.626"
            />
            <polygon
                style="fill:none;stroke:#000000;stroke-width:1px"
                points="8.484,2.724 19.917,2.724 25.634,12.626 19.917,22.528 8.484,22.528 2.767,12.626"
            />
        </g>
        <g>
            <rect
                style="fill:#ff0000;fill-opacity:1;stroke:none"
                width="11.278"
                height="2.905"
                x="8.561"
                y="14.364"
            />
            <rect
                style="fill:#ff0000;fill-opacity:1;stroke:none"
                width="7.079"
                height="2.91"
                x="10.661"
                y="11.055"
            />
            <rect
                style="fill:#ff0000;fill-opacity:1;stroke:none"
                width="3.833"
                height="2.905"
                x="12.284"
                y="7.747"
            />
        </g>
    </g>
    <text
        style="font-size:20px;font-family:sans-serif;fill:#000000;stroke:none"
        x="67"
        y="19"
    >#9</text>
    <g>
        <polygon
            style="fill:#67a7c4;stroke:#000000;stroke-width:2px"
            points="33.271,75.938 27.747,66.369 33.271,56.801 44.320,56.801 49.845,66.369 44.320,75.938"
        />
        <polygon
            style="fill:#67a7c4;stroke:#000000;stroke-width:2px"
            points="44.32,75.938 49.845,85.506 44.320,95.075 33.271,95.075 27.747,85.506 33.271,75.938"
        />
        <polygon
            style="fill:#67a7c4;stroke:#000000;stroke-width:2px"
            points="60.894,66.369 49.845,66.369 44.321,56.800 49.845,47.232 60.894,47.232 66.419,56.800"
        />
        <polygon
            style="fill:#67a7c4;stroke:#000000;stroke-width:2px"
            points="49.845,47.232 44.321,37.663 49.845,28.095 60.894,28.095 66.419,37.663 60.894,47.232"
        />
        <polygon
            style="fill:#67a7c4;stroke:#000000;stroke-width:2px"
            points="60.894,28.095 49.845,28.095 44.321,18.526 49.845,8.958 60.894,8.958 66.419,18.526"
        />
    </g>
</svg>