<svg
    xmlns="http://www.w3.org/2000/svg"
    width="800px"
    height="800px"
    viewbox="0 0 800 800"
>
    <g id="heart-of-darkness">
        <rect
            x="282.71"
            y="1"
            width="233.57"
            height="118.29"
            fill="#c2b280"
            stroke="#000000"
            stroke-width="2px"
        />
        <path
            d="m 471.74,16.58 q 0,-0.54 -0.40,-0.97 -0.39,-0.44 -1.82,-0.73 -1.65,-0.34 -2.63,-0.98 -0.98,-0.65 -0.98,-1.88 0,-1.17 0.99,-2.02 1.00,-0.86 2.66,-0.86 1.77,0 2.77,0.90 0.99,0.90 0.99,2.18 h -1.69 q 0,-0.61 -0.54,-1.15 -0.54,-0.55 -1.53,-0.55 -1.05,0 -1.50,0.46 -0.46,0.46 -0.46,0.99 0,0.54 0.42,0.88 0.43,0.33 1.80,0.64 1.81,0.41 2.70,1.08 0.89,0.67 0.89,1.88 0,1.30 -1.05,2.11 -1.04,0.81 -2.76,0.81 -1.96,0 -3.00,-1.00 -1.04,-1.00 -1.04,-2.22 h 1.70 q 0.05,1.05 0.80,1.45 0.76,0.39 1.54,0.39 1.03,0 1.58,-0.40 0.55,-0.40 0.55,-1.01 z m -9.63,0 q 0,-0.54 -0.40,-0.97 -0.39,-0.44 -1.82,-0.73 -1.65,-0.34 -2.63,-0.98 -0.98,-0.65 -0.98,-1.88 0,-1.17 0.99,-2.02 1.00,-0.86 2.66,-0.86 1.77,0 2.76,0.90 0.99,0.90 0.99,2.18 h -1.69 q 0,-0.61 -0.54,-1.15 -0.54,-0.55 -1.53,-0.55 -1.05,0 -1.50,0.46 -0.46,0.46 -0.46,0.99 0,0.54 0.42,0.88 0.43,0.33 1.80,0.64 1.81,0.41 2.70,1.08 0.89,0.67 0.89,1.88 0,1.30 -1.05,2.11 -1.04,0.81 -2.76,0.81 -1.96,0 -3.00,-1.00 -1.04,-1.00 -1.04,-2.22 h 1.70 q 0.05,1.05 0.80,1.45 0.76,0.39 1.54,0.39 1.03,0 1.58,-0.40 0.55,-0.40 0.55,-1.01 z m -7.84,0.89 q -0.48,0.73 -1.37,1.32 -0.88,0.58 -2.34,0.58 -2.06,0 -3.30,-1.34 -1.23,-1.34 -1.23,-3.43 v -0.38 q 0,-1.61 0.61,-2.74 0.62,-1.14 1.60,-1.73 0.98,-0.60 2.10,-0.60 2.11,0 3.08,1.39 0.98,1.38 0.98,3.45 v 0.76 h -6.67 q 0.04,1.36 0.80,2.32 0.77,0.95 2.12,0.95 0.89,0 1.51,-0.36 0.62,-0.36 1.08,-0.98 z m -3.93,-6.94 q -1.00,0 -1.70,0.73 -0.69,0.73 -0.87,2.10 h 4.93 v -0.13 q -0.06,-0.98 -0.57,-1.84 -0.50,-0.86 -1.80,-0.86 z m -10.09,0.04 q -0.81,0 -1.43,0.44 -0.62,0.44 -0.98,1.14 v 7.05 h -1.69 V 9.33 h 1.60 l 0.05,1.23 q 1.12,-1.41 2.94,-1.41 1.45,0 2.30,0.81 0.86,0.81 0.87,2.73 v 6.51 h -1.70 v -6.48 q 0,-1.16 -0.51,-1.65 -0.50,-0.49 -1.46,-0.49 z m -7.37,8.62 -3.42,-4.58 -1.07,1.10 v 3.47 h -1.70 V 5.19 h 1.70 v 8.46 l 0.90,-1.08 3.06,-3.24 h 2.06 l -3.85,4.11 4.29,5.75 z m -8.57,-8.42 q -1.65,0 -2.25,1.42 v 7.00 h -1.69 V 9.33 h 1.64 l 0.04,1.13 q 0.81,-1.31 2.34,-1.31 0.47,0 0.75,0.13 l 0,1.57 q -0.37,-0.07 -0.82,-0.07 z m -8.00,8.42 q -0.16,-0.36 -0.24,-1.04 -0.47,0.50 -1.18,0.87 -0.71,0.36 -1.62,0.36 -1.51,0 -2.42,-0.85 -0.91,-0.85 -0.91,-2.08 0,-1.59 1.20,-2.41 1.20,-0.83 3.24,-0.83 h 1.67 v -0.78 q 0,-0.88 -0.53,-1.39 -0.52,-0.53 -1.55,-0.53 -0.96,0 -1.55,0.47 -0.58,0.46 -0.58,1.08 h -1.69 q 0,-1.06 1.07,-1.99 1.07,-0.93 2.85,-0.93 1.60,0 2.63,0.82 1.03,0.82 1.03,2.48 v 4.43 q 0,1.37 0.35,2.17 v 0.15 z m -2.80,-1.29 q 0.91,0 1.58,-0.46 0.67,-0.46 0.95,-1.01 v -2.03 h -1.57 q -2.84,0.05 -2.84,1.82 0,0.70 0.47,1.19 0.47,0.48 1.41,0.48 z m -15.29,1.29 V 5.92 h 3.76 q 2.62,0 4.23,1.69 1.62,1.68 1.62,4.56 v 0.79 q 0,2.88 -1.63,4.56 -1.62,1.68 -4.38,1.68 z M 399.98,7.36 V 17.76 h 1.83 q 2.12,0 3.20,-1.31 1.08,-1.31 1.08,-3.49 v -0.81 q 0,-2.29 -1.08,-3.54 -1.08,-1.25 -3.04,-1.25 z m -8.52,3.26 h -2.10 v 8.57 h -1.69 v -8.57 h -1.56 V 9.33 h 1.56 V 8.23 q 0.02,-1.57 0.88,-2.40 0.87,-0.83 2.36,-0.83 0.56,0 1.17,0.15 l -0.09,1.38 q -0.38,-0.08 -0.91,-0.08 -1.69,0 -1.71,1.80 v 1.09 h 2.10 z m -15.70,3.54 q 0,-2.14 1.20,-3.57 1.20,-1.44 3.27,-1.44 2.07,0 3.27,1.41 1.20,1.40 1.23,3.51 v 0.30 q 0,2.14 -1.21,3.57 -1.20,1.43 -3.27,1.43 -2.08,0 -3.29,-1.43 -1.20,-1.43 -1.20,-3.57 z m 1.69,0.21 q 0,1.47 0.69,2.54 0.70,1.08 2.11,1.08 1.38,0 2.08,-1.06 0.70,-1.07 0.71,-2.53 v -0.24 q 0,-1.45 -0.70,-2.53 -0.70,-1.09 -2.11,-1.09 -1.39,0 -2.10,1.09 -0.69,1.08 -0.69,2.53 z m -7.80,4.82 q -0.57,0.18 -1.30,0.18 -0.94,0 -1.60,-0.57 -0.67,-0.57 -0.67,-2.06 v -6.12 h -1.80 V 9.33 h 1.80 V 6.93 h 1.69 v 2.40 h 1.84 v 1.29 h -1.84 v 6.13 q 0,0.76 0.3313,0.97 0.33,0.21 0.76,0.21 0.32,0 0.79,-0.11 z m -7.02,-8.42 q -1.65,0 -2.25,1.42 v 7.00 h -1.69 V 9.33 h 1.64 l 0.04,1.13 q 0.81,-1.31 2.34,-1.31 0.47,0 0.75,0.13 l 0,1.57 q -0.37,-0.07 -0.82,-0.07 z m -8.00,8.42 q -0.16,-0.36 -0.24,-1.04 -0.47,0.50 -1.18,0.87 -0.71,0.36 -1.62,0.36 -1.51,0 -2.42,-0.85 -0.91,-0.85 -0.91,-2.08 0,-1.59 1.20,-2.41 1.20,-0.83 3.24,-0.83 h 1.67 v -0.78 q 0,-0.88 -0.53,-1.39 -0.52,-0.53 -1.55,-0.53 -0.96,0 -1.55,0.47 -0.58,0.46 -0.58,1.08 h -1.69 q 0,-1.06 1.07,-1.99 1.07,-0.93 2.85,-0.93 1.60,0 2.63,0.82 1.03,0.82 1.03,2.48 v 4.43 q 0,1.37 0.35,2.17 v 0.15 z m -2.80,-1.29 q 0.91,0 1.58,-0.46 0.67,-0.46 0.95,-1.01 v -2.03 h -1.57 q -2.84,0.05 -2.84,1.82 0,0.70 0.47,1.19 0.47,0.48 1.41,0.48 z m -5.39,-0.43 q -0.48,0.73 -1.37,1.32 -0.88,0.58 -2.34,0.58 -2.06,0 -3.30,-1.34 -1.23,-1.34 -1.23,-3.43 v -0.38 q 0,-1.61 0.61,-2.74 0.62,-1.14 1.60,-1.73 0.98,-0.60 2.10,-0.60 2.11,0 3.08,1.39 0.98,1.38 0.98,3.45 v 0.76 h -6.67 q 0.04,1.36 0.80,2.32 0.77,0.95 2.12,0.95 0.89,0 1.51,-0.36 0.62,-0.36 1.08,-0.98 z m -3.93,-6.94 q -1.00,0 -1.70,0.73 -0.69,0.73 -0.87,2.10 h 4.93 v -0.13 q -0.06,-0.98 -0.57,-1.84 -0.50,-0.86 -1.80,-0.86 z m -8.49,8.66 v -6.13 h -6.69 v 6.13 h -1.76 V 5.92 h 1.76 v 5.71 h 6.69 V 5.92 h 1.75 V 19.19 Z"
            fill="#000000"
            stroke="none"
        />
    </g>
    <g id="battle-plain">
        <polygon
            points="282.71,119.29 400,119.29 400,232.57 168.43,232.57"
            fill="#a9ba9d"
            stroke="#000000"
            stroke-width="2px"
        />
        <path
            d="m 375.62,128.67 q -0.81,0 -1.43,0.44 -0.62,0.44 -0.98,1.14 v 7.05 h -1.69 v -9.86 h 1.60 l 0.05,1.23 q 1.12,-1.41 2.94,-1.41 1.45,0 2.30,0.81 0.86,0.81 0.87,2.73 v 6.51 h -1.70 v -6.48 q 0,-1.16 -0.51,-1.65 -0.50,-0.49 -1.46,-0.49 z m -8.62,-3.86 q 0,-0.41 0.25,-0.69 0.26,-0.28 0.75,-0.28 0.48,0 0.74,0.28 0.26,0.28 0.26,0.69 0,0.39 -0.26,0.67 -0.26,0.27 -0.74,0.27 -0.49,0 -0.75,-0.27 -0.25,-0.28 -0.25,-0.67 z m 1.82,2.62 v 9.86 h -1.70 v -9.86 z m -5.90,9.86 q -0.16,-0.36 -0.24,-1.04 -0.47,0.50 -1.18,0.87 -0.71,0.36 -1.62,0.36 -1.51,0 -2.42,-0.85 -0.91,-0.85 -0.91,-2.08 0,-1.59 1.20,-2.41 1.20,-0.83 3.24,-0.83 h 1.67 v -0.78 q 0,-0.88 -0.53,-1.39 -0.52,-0.53 -1.55,-0.53 -0.96,0 -1.55,0.47 -0.58,0.46 -0.58,1.08 h -1.69 q 0,-1.06 1.07,-1.99 1.07,-0.93 2.85,-0.93 1.60,0 2.63,0.82 1.03,0.82 1.03,2.48 v 4.43 q 0,1.37 0.35,2.17 v 0.15 z m -2.80,-1.29 q 0.91,0 1.58,-0.46 0.67,-0.46 0.95,-1.01 v -2.03 h -1.57 q -2.84,0.05 -2.84,1.82 0,0.70 0.47,1.19 0.47,0.48 1.41,0.48 z M 354.13,123.29 v 14.00 h -1.70 V 123.29 Z m -11.59,8.80 v 5.20 h -1.76 v -13.27 h 4.89 q 2.26,0 3.45,1.14 1.20,1.14 1.20,2.91 0,1.92 -1.20,2.97 -1.19,1.05 -3.45,1.05 z m 0,-6.63 v 5.20 h 3.14 q 1.55,0 2.22,-0.72 0.67,-0.72 0.67,-1.85 0,-1.02 -0.67,-1.82 -0.67,-0.80 -2.22,-0.80 z m -8.74,10.11 q -0.48,0.73 -1.37,1.32 -0.88,0.58 -2.34,0.58 -2.06,0 -3.30,-1.34 -1.23,-1.34 -1.23,-3.43 v -0.38 q 0,-1.61 0.61,-2.74 0.62,-1.14 1.60,-1.73 0.98,-0.60 2.10,-0.60 2.11,0 3.08,1.39 0.98,1.38 0.98,3.45 v 0.76 h -6.67 q 0.04,1.36 0.80,2.32 0.77,0.95 2.12,0.95 0.89,0 1.51,-0.36 0.62,-0.36 1.08,-0.98 z m -3.93,-6.94 q -1.00,0 -1.70,0.73 -0.69,0.73 -0.87,2.10 h 4.93 v -0.13 q -0.06,-0.98 -0.57,-1.84 -0.50,-0.86 -1.80,-0.86 z M 323.29,123.29 v 14.00 h -1.70 V 123.29 Z m -3.76,14.00 q -0.57,0.18 -1.30,0.18 -0.94,0 -1.60,-0.57 -0.67,-0.57 -0.67,-2.06 v -6.12 h -1.80 v -1.29 h 1.80 v -2.40 h 1.69 v 2.40 h 1.84 v 1.29 h -1.84 v 6.13 q 0,0.76 0.33,0.97 0.33,0.21 0.76,0.21 0.32,0 0.79,-0.11 z m -6.11,0 q -0.57,0.18 -1.30,0.18 -0.94,0 -1.60,-0.57 -0.67,-0.57 -0.67,-2.06 v -6.12 h -1.80 v -1.29 h 1.80 v -2.40 h 1.69 v 2.40 h 1.84 v 1.29 h -1.84 v 6.13 q 0,0.76 0.33,0.97 0.33,0.21 0.76,0.21 0.32,0 0.79,-0.11 z m -8.24,0 q -0.16,-0.36 -0.24,-1.04 -0.47,0.50 -1.18,0.87 -0.71,0.36 -1.62,0.36 -1.51,0 -2.42,-0.85 -0.91,-0.85 -0.91,-2.08 0,-1.59 1.20,-2.41 1.20,-0.83 3.24,-0.83 h 1.67 v -0.78 q 0,-0.88 -0.53,-1.39 -0.52,-0.53 -1.55,-0.53 -0.96,0 -1.55,0.47 -0.58,0.46 -0.58,1.08 h -1.69 q 0,-1.06 1.07,-1.99 1.07,-0.93 2.85,-0.93 1.60,0 2.63,0.82 1.03,0.82 1.03,2.48 v 4.43 q 0,1.37 0.35,2.17 v 0.15 z m -2.80,-1.29 q 0.91,0 1.58,-0.46 0.67,-0.46 0.95,-1.01 v -2.03 h -1.57 q -2.84,0.05 -2.84,1.82 0,0.70 0.47,1.19 0.47,0.48 1.41,0.48 z m -5.63,-2.53 q 0,1.86 -1.20,2.84 -1.19,0.98 -3.18,0.98 h -4.65 v -13.27 h 4.35 q 2.04,0 3.18,0.85 1.15,0.84 1.15,2.69 0,0.92 -0.53,1.64 -0.52,0.71 -1.43,1.10 1.12,0.31 1.71,1.18 0.60,0.87 0.60,1.99 z m -7.27,-8.00 v 4.21 h 2.64 q 1.13,0 1.82,-0.57 0.69,-0.57 0.69,-1.57 0,-2.03 -2.46,-2.08 z m 5.52,8.02 q 0,-1.11 -0.61,-1.75 -0.60,-0.65 -1.94,-0.65 h -2.97 v 4.78 h 2.89 q 1.25,0 1.94,-0.64 0.69,-0.65 0.69,-1.74 z"
            fill="#000000"
            stroke="none"
        />
    </g>
    <g id="empty-throne">
        <polygon
            points="400,119.29 516.28,119.29 631.57,232.57 400,232.57"
            fill="#b2ec5d"
            stroke="#000000"
            stroke-width="2px"
        />
        <path
            d="m 518.81,135.57 q -0.48,0.73 -1.37,1.32 -0.88,0.58 -2.34,0.58 -2.06,0 -3.30,-1.34 -1.23,-1.34 -1.23,-3.43 v -0.38 q 0,-1.61 0.61,-2.74 0.62,-1.14 1.60,-1.73 0.98,-0.60 2.10,-0.60 2.11,0 3.08,1.39 0.98,1.38 0.98,3.45 v 0.76 h -6.67 q 0.04,1.36 0.80,2.32 0.77,0.95 2.12,0.95 0.89,0 1.51,-0.36 0.62,-0.36 1.08,-0.98 z m -3.93,-6.94 q -1.00,0 -1.70,0.73 -0.69,0.73 -0.87,2.10 h 4.93 v -0.13 q -0.06,-0.98 -0.57,-1.84 -0.50,-0.86 -1.80,-0.86 z m -10.09,0.04 q -0.81,0 -1.43,0.44 -0.62,0.44 -0.98,1.14 v 7.05 h -1.69 v -9.86 h 1.60 l 0.05,1.23 q 1.12,-1.41 2.94,-1.41 1.45,0 2.30,0.81 0.86,0.81 0.87,2.73 v 6.51 h -1.70 v -6.48 q 0,-1.16 -0.51,-1.65 -0.50,-0.49 -1.46,-0.49 z m -15.18,3.59 q 0,-2.14 1.20,-3.57 1.20,-1.44 3.27,-1.44 2.07,0 3.27,1.41 1.203,1.40 1.23,3.51 v 0.30 q 0,2.14 -1.21,3.57 -1.20,1.43 -3.27,1.43 -2.08,0 -3.29,-1.43 -1.20,-1.43 -1.20,-3.57 z m 1.69,0.21 q 0,1.47 0.69,2.54 0.70,1.08 2.11,1.08 1.38,0 2.08,-1.06 0.70,-1.07 0.71,-2.53 v -0.24 q 0,-1.45 -0.70,-2.53 -0.70,-1.09 -2.11,-1.09 -1.39,0 -2.10,1.09 -0.69,1.08 -0.69,2.53 z m -3.45,-3.60 q -1.65,0 -2.25,1.42 v 7.00 h -1.69 v -9.86 h 1.64 l 0.04,1.13 q 0.81,-1.31 2.34,-1.31 0.47,0 0.75,0.13 l 0,1.57 q -0.37,-0.07 -0.82,-0.07 z m -10.13,-0.20 q -0.81,0 -1.43,0.44 -0.62,0.44 -0.98,1.14 v 7.05 h -1.69 V 123.29 h 1.69 v 5.31 q 1.12,-1.36 2.91,-1.36 1.45,0 2.30,0.81 0.86,0.81 0.87,2.73 v 6.51 h -1.70 v -6.48 q 0,-1.16 -0.51,-1.65 -0.50,-0.49 -1.46,-0.49 z m -16.06,-3.21 v -1.44 h 10.25 v 1.44 h -4.27 v 11.83 h -1.73 v -11.83 z m -8.90,13.35 q -0.88,2.32 -2.64,2.45 l -0.28,0 q -0.54,0 -0.95,-0.15 l 0,-1.37 0.46,0.04 q 0.86,0 1.34,-0.36 0.48,-0.35 0.79,-1.26 l 0.36,-1.00 -3.52,-9.75 h 1.84 l 2.47,7.38 2.29,-7.38 h 1.80 z m -5.30,-1.52 q -0.57,0.18 -1.30,0.18 -0.94,0 -1.60,-0.57 -0.67,-0.57 -0.67,-2.06 v -6.12 h -1.80 v -1.29 h 1.80 v -2.40 h 1.69 v 2.40 h 1.84 v 1.29 h -1.84 v 6.13 q 0,0.76 0.33,0.97 0.33,0.21 0.76,0.21 0.32,0 0.79,-0.11 z m -10.15,0.18 q -1.78,0 -2.82,-1.14 v 4.75 h -1.70 v -13.65 h 1.55 l 0.08,1.08 q 1.04,-1.27 2.85,-1.27 1.87,0 2.86,1.39 0.99,1.39 0.99,3.65 v 0.19 q 0,2.16 -1.00,3.58 -0.99,1.42 -2.83,1.42 z m -0.52,-8.80 q -1.53,0 -2.30,1.36 v 4.72 q 0.77,1.34 2.32,1.34 1.37,0 2.00,-1.08 0.64,-1.08 0.64,-2.54 v -0.19 q 0,-1.47 -0.64,-2.53 -0.63,-1.08 -2.01,-1.08 z m -16.40,0 q -1.66,0 -2.27,1.39 v 7.23 h -1.70 v -9.86 h 1.60 l 0.05,1.08 q 1.07,-1.26 2.92,-1.26 0.95,0 1.69,0.38 0.75,0.37 1.14,1.20 0.49,-0.71 1.28,-1.15 0.79,-0.44 1.86,-0.44 1.59,0 2.44,0.85 0.87,0.85 0.87,2.72 v 6.48 h -1.70 v -6.50 q 0,-1.24 -0.57,-1.68 -0.57,-0.45 -1.53,-0.45 -1.02,0 -1.60,0.61 -0.58,0.60 -0.67,1.47 v 6.54 h -1.69 v -6.49 q 0,-1.16 -0.57,-1.64 -0.57,-0.49 -1.53,-0.49 z m -14.30,8.62 v -13.27 h 8.34 v 1.44 h -6.58 v 4.27 h 5.74 v 1.43 h -5.74 v 4.70 h 6.67 v 1.43 z"
            fill="#000000"
            stroke="none"
 
        />
    </g>
    <g id="dark-forest">
        <polygon
            points="168.43,232.57 286.67,232.57 286.67,347.86 53.14,347.86"
            fill="#74c365"
            stroke="#000000"
            stroke-width="2px"
        />
        <path
            d="m 270.81,250.57 q -0.57,0.18 -1.30,0.18 -0.94,0 -1.60,-0.57 -0.67,-0.57 -0.67,-2.06 v -6.12 h -1.80 v -1.29 h 1.80 v -2.40 h 1.69 v 2.40 h 1.84 v 1.29 h -1.84 v 6.13 q 0,0.76 0.33,0.97 0.33,0.21 0.76,0.21 0.32,0 0.79,-0.11 z m -8.07,-2.62 q 0,-0.54 -0.40,-0.97 -0.39,-0.44 -1.82,-0.73 -1.65,-0.34 -2.63,-0.98 -0.98,-0.65 -0.98,-1.88 0,-1.17 0.99,-2.02 1.00,-0.86 2.66,-0.86 1.77,0 2.76,0.90 0.99,0.90 0.99,2.18 h -1.69 q 0,-0.61 -0.54,-1.15 -0.54,-0.55 -1.53,-0.55 -1.05,0 -1.50,0.46 -0.46,0.46 -0.46,0.99 0,0.54 0.42,0.88 0.43,0.33 1.80,0.64 1.81,0.41 2.70,1.08 0.89,0.67 0.89,1.88 0,1.30 -1.05,2.11 -1.04,0.81 -2.76,0.81 -1.96,0 -3.00,-1.00 -1.04,-1.00 -1.04,-2.22 h 1.70 q 0.05,1.05 0.80,1.45 0.76,0.39 1.54,0.39 1.03,0 1.58,-0.40 0.55,-0.40 0.55,-1.01 z m -7.84,0.89 q -0.48,0.73 -1.37,1.32 -0.88,0.58 -2.34,0.58 -2.06,0 -3.30,-1.34 -1.23,-1.34 -1.23,-3.43 v -0.38 q 0,-1.61 0.61,-2.74 0.62,-1.14 1.60,-1.73 0.98,-0.60 2.10,-0.60 2.11,0 3.08,1.39 0.98,1.38 0.98,3.45 v 0.76 h -6.67 q 0.04,1.36 0.80,2.32 0.77,0.95 2.12,0.95 0.89,0 1.51,-0.36 0.62,-0.36 1.08,-0.98 z m -3.93,-6.94 q -1.00,0 -1.70,0.73 -0.69,0.73 -0.87,2.10 h 4.93 v -0.13 q -0.06,-0.98 -0.57,-1.84 -0.50,-0.86 -1.80,-0.86 z m -6.09,0.24 q -1.65,0 -2.25,1.42 v 7.00 h -1.69 v -9.86 h 1.64 l 0.04,1.13 q 0.81,-1.31 2.34,-1.31 0.47,0 0.75,0.13 l 0,1.57 q -0.37,-0.07 -0.82,-0.07 z m -15.03,3.39 q 0,-2.14 1.20,-3.57 1.20,-1.44 3.27,-1.44 2.07,0 3.27,1.41 1.20,1.40 1.23,3.51 v 0.30 q 0,2.14 -1.21,3.57 -1.20,1.43 -3.27,1.43 -2.08,0 -3.29,-1.43 -1.20,-1.43 -1.20,-3.57 z m 1.69,0.21 q 0,1.47 0.69,2.54 0.70,1.08 2.11,1.08 1.38,0 2.08,-1.06 0.70,-1.07 0.71,-2.53 v -0.24 q 0,-1.45 -0.70,-2.53 -0.70,-1.09 -2.11,-1.09 -1.39,0 -2.10,1.09 -0.69,1.08 -0.69,2.53 z m -11.11,4.82 v -13.27 h 8.22 v 1.44 h -6.46 v 4.53 h 5.56 v 1.44 h -5.56 v 5.86 z m -8.17,0 -3.42,-4.58 -1.07,1.10 v 3.47 h -1.70 V 236.57 h 1.70 v 8.46 l 0.90,-1.08 3.06,-3.24 h 2.06 l -3.85,4.11 4.29,5.75 z m -8.57,-8.42 q -1.65,0 -2.25,1.42 v 7.00 h -1.69 v -9.86 h 1.64 l 0.04,1.13 q 0.81,-1.31 2.34,-1.31 0.47,0 0.75,0.13 l 0,1.57 q -0.37,-0.07 -0.82,-0.07 z m -8.00,8.42 q -0.16,-0.36 -0.24,-1.04 -0.47,0.50 -1.18,0.87 -0.71,0.36 -1.62,0.36 -1.51,0 -2.42,-0.85 -0.91,-0.85 -0.91,-2.08 0,-1.59 1.20,-2.41 1.20,-0.83 3.24,-0.83 h 1.67 v -0.78 q 0,-0.88 -0.53,-1.39 -0.52,-0.53 -1.55,-0.53 -0.96,0 -1.55,0.47 -0.58,0.46 -0.58,1.08 h -1.69 q 0,-1.06 1.07,-1.99 1.07,-0.93 2.85,-0.93 1.60,0 2.63,0.82 1.03,0.82 1.03,2.48 v 4.43 q 0,1.37 0.35,2.17 v 0.15 z m -2.80,-1.29 q 0.91,0 1.58,-0.46 0.67,-0.46 0.95,-1.01 v -2.03 h -1.57 q -2.84,0.05 -2.84,1.82 0,0.70 0.47,1.19 0.47,0.48 1.41,0.48 z m -15.29,1.29 v -13.27 h 3.76 q 2.62,0 4.23,1.69 1.62,1.68 1.62,4.56 v 0.79 q 0,2.88 -1.63,4.56 -1.62,1.68 -4.38,1.68 z m 1.76,-11.83 v 10.40 h 1.83 q 2.12,0 3.20,-1.31 1.08,-1.31 1.08,-3.49 v -0.81 q 0,-2.29 -1.08,-3.54 -1.08,-1.25 -3.04,-1.25 z"
            fill="#000000"
            stroke="none"
        />
    </g>
    <g id="ancient-forest">
       <rect
            x="286.67"
            y="232.57"
            width="226.67"
            height="115.29"
            fill="#74c365"
            stroke="#000000"
            stroke-width="2px"
        />
        <path
            d="m 459.70,250.02 q -0.57,0.18 -1.30,0.18 -0.94,0 -1.60,-0.57 -0.67,-0.57 -0.67,-2.06 v -6.12 h -1.80 v -1.29 h 1.80 v -2.40 h 1.69 v 2.40 h 1.84 v 1.29 h -1.84 v 6.13 q 0,0.76 0.33,0.97 0.33,0.21 0.76,0.21 0.32,0 0.79,-0.11 z m -8.07,-2.62 q 0,-0.54 -0.40,-0.97 -0.39,-0.44 -1.82,-0.73 -1.65,-0.34 -2.63,-0.98 -0.98,-0.65 -0.98,-1.88 0,-1.17 0.99,-2.02 1.00,-0.86 2.66,-0.86 1.77,0 2.76,0.90 0.99,0.90 0.99,2.18 h -1.69 q 0,-0.61 -0.54,-1.15 -0.54,-0.55 -1.53,-0.55 -1.05,0 -1.50,0.46 -0.46,0.46 -0.46,0.99 0,0.54 0.42,0.88 0.43,0.33 1.80,0.64 1.81,0.41 2.70,1.08 0.89,0.67 0.89,1.88 0,1.30 -1.05,2.11 -1.04,0.81 -2.76,0.81 -1.96,0 -3.00,-1.00 -1.04,-1.00 -1.04,-2.22 h 1.70 q 0.05,1.05 0.80,1.45 0.76,0.39 1.54,0.39 1.03,0 1.58,-0.40 0.55,-0.40 0.55,-1.01 z m -7.84,0.89 q -0.48,0.73 -1.37,1.32 -0.88,0.58 -2.34,0.58 -2.06,0 -3.30,-1.34 -1.23,-1.34 -1.23,-3.43 v -0.38 q 0,-1.61 0.61,-2.74 0.62,-1.14 1.60,-1.73 0.98,-0.60 2.10,-0.60 2.11,0 3.08,1.39 0.98,1.38 0.98,3.45 v 0.76 h -6.67 q 0.04,1.36 0.80,2.32 0.77,0.95 2.12,0.95 0.89,0 1.51,-0.36 0.62,-0.36 1.08,-0.98 z m -3.93,-6.94 q -1.00,0 -1.70,0.73 -0.69,0.73 -0.87,2.10 h 4.93 v -0.13 q -0.06,-0.98 -0.57,-1.84 -0.50,-0.86 -1.80,-0.86 z m -6.09,0.24 q -1.65,0 -2.25,1.42 v 7.00 h -1.69 v -9.86 h 1.64 l 0.04,1.13 q 0.81,-1.31 2.34,-1.31 0.47,0 0.75,0.13 l 0,1.57 q -0.37,-0.07 -0.82,-0.07 z m -15.03,3.39 q 0,-2.14 1.20,-3.57 1.20,-1.44 3.27,-1.44 2.07,0 3.27,1.41 1.20,1.40 1.23,3.51 v 0.30 q 0,2.14 -1.21,3.57 -1.20,1.43 -3.27,1.43 -2.08,0 -3.29,-1.43 -1.20,-1.43 -1.20,-3.57 z m 1.69,0.21 q 0,1.47 0.69,2.54 0.70,1.08 2.11,1.08 1.38,0 2.08,-1.06 0.70,-1.07 0.71,-2.53 v -0.24 q 0,-1.45 -0.70,-2.53 -0.70,-1.09 -2.11,-1.09 -1.39,0 -2.10,1.09 -0.69,1.08 -0.69,2.53 z m -11.11,4.82 v -13.27 h 8.22 v 1.44 h -6.46 v 4.53 h 5.56 v 1.44 h -5.56 v 5.86 z m -6.82,0 q -0.57,0.18 -1.30,0.18 -0.94,0 -1.60,-0.57 -0.67,-0.57 -0.67,-2.06 v -6.12 h -1.80 v -1.29 h 1.80 v -2.40 h 1.69 v 2.40 h 1.84 v 1.29 h -1.84 v 6.13 q 0,0.76 0.33,0.97 0.33,0.21 0.76,0.21 0.32,0 0.79,-0.11 z m -10.39,-8.62 q -0.81,0 -1.43,0.44 -0.62,0.44 -0.98,1.14 v 7.05 h -1.69 v -9.86 h 1.60 l 0.05,1.23 q 1.12,-1.41 2.94,-1.41 1.45,0 2.30,0.81 0.86,0.81 0.87,2.73 v 6.51 h -1.70 v -6.48 q 0,-1.16 -0.51,-1.65 -0.50,-0.49 -1.46,-0.49 z m -6.19,6.90 q -0.48,0.73 -1.37,1.32 -0.88,0.58 -2.34,0.58 -2.06,0 -3.30,-1.34 -1.23,-1.34 -1.23,-3.43 v -0.38 q 0,-1.61 0.61,-2.74 0.62,-1.14 1.60,-1.73 0.98,-0.60 2.10,-0.60 2.11,0 3.08,1.39 0.98,1.38 0.98,3.45 v 0.76 h -6.67 q 0.04,1.36 0.80,2.32 0.77,0.95 2.12,0.95 0.89,0 1.51,-0.36 0.62,-0.36 1.08,-0.98 z m -3.93,-6.94 q -1.00,0 -1.70,0.73 -0.69,0.73 -0.87,2.10 h 4.93 v -0.13 q -0.06,-0.98 -0.57,-1.84 -0.50,-0.86 -1.80,-0.86 z m -8.40,-3.82 q 0,-0.41 0.25,-0.69 0.26,-0.28 0.75,-0.28 0.48,0 0.74,0.28 0.26,0.28 0.26,0.69 0,0.39 -0.26,0.67 -0.26,0.27 -0.74,0.27 -0.49,0 -0.75,-0.27 -0.25,-0.28 -0.25,-0.67 z m 1.82,2.62 v 9.86 h -1.70 v -9.86 z m -7.66,8.66 q 0.90,0 1.58,-0.54 0.68,-0.54 0.75,-1.38 h 1.60 q -0.06,1.32 -1.21,2.32 -1.15,0.98 -2.72,0.98 -2.22,0 -3.31,-1.47 -1.08,-1.47 -1.08,-3.45 v -0.38 q 0,-1.99 1.08,-3.45 1.08,-1.47 3.31,-1.47 1.73,0 2.80,1.03 1.07,1.02 1.13,2.54 h -1.60 q -0.06,-0.91 -0.69,-1.55 -0.62,-0.64 -1.63,-0.64 -1.04,0 -1.63,0.53 -0.58,0.53 -0.83,1.34 -0.24,0.81 -0.24,1.67 v 0.38 q 0,0.87 0.24,1.68 0.24,0.81 0.82,1.34 0.59,0.52 1.64,0.52 z m -10.16,-7.42 q -0.81,0 -1.43,0.44 -0.62,0.44 -0.98,1.14 v 7.05 h -1.69 v -9.86 h 1.60 l 0.05,1.23 q 1.12,-1.41 2.94,-1.41 1.45,0 2.30,0.81 0.86,0.81 0.87,2.73 v 6.51 h -1.70 v -6.48 q 0,-1.16 -0.51,-1.65 -0.50,-0.49 -1.46,-0.49 z m -17.29,8.62 5.06,-13.27 h 1.54 l 5.08,13.27 h -1.80 l -1.27,-3.47 h -5.56 l -1.26,3.47 z m 3.58,-4.91 h 4.50 l -2.25,-6.19 z"
            fill="#000000"
            stroke="none"
        />
    </g>
    <g id="wartorn-kingdom">
        <polygon
            points="513.34,232.57 631.57,232.57 746.86,347.86 513.34,347.86"
            fill="#b2ec5d"
            stroke="#000000"
            stroke-width="2px"
        />
        <path
            d="m 639.97,257.95 q -1.66,0 -2.27,1.39 v 7.23 h -1.70 v -9.86 h 1.60 l 0.05,1.08 q 1.07,-1.26 2.92,-1.26 0.95,0 1.69,0.38 0.75,0.37 1.14,1.20 0.49,-0.71 1.28,-1.15 0.79,-0.44 1.86,-0.44 1.59,0 2.44,0.85 0.87,0.85 0.87,2.72 v 6.48 h -1.70 v -6.50 q 0,-1.24 -0.57,-1.68 -0.57,-0.45 -1.53,-0.45 -1.02,0 -1.60,0.61 -0.58,0.60 -0.67,1.47 v 6.54 h -1.69 v -6.49 q 0,-1.16 -0.57,-1.64 -0.57,-0.49 -1.53,-0.49 z m -15.04,3.59 q 0,-2.14 1.20,-3.57 1.20,-1.44 3.27,-1.44 2.07,0 3.27,1.41 1.20,1.40 1.23,3.51 v 0.30 q 0,2.14 -1.21,3.57 -1.20,1.43 -3.27,1.43 -2.08,0 -3.29,-1.43 -1.20,-1.43 -1.20,-3.57 z m 1.69,0.21 q 0,1.47 0.69,2.54 0.70,1.08 2.11,1.08 1.38,0 2.08,-1.06 0.70,-1.07 0.71,-2.53 v -0.24 q 0,-1.45 -0.70,-2.53 -0.70,-1.09 -2.11,-1.09 -1.39,0 -2.10,1.09 -0.69,1.08 -0.69,2.53 z m -5.40,4.82 -0.08,-1.06 q -1.01,1.24 -2.82,1.24 -1.73,0 -2.80,-1.40 -1.07,-1.40 -1.08,-3.53 v -0.26 q 0,-2.26 1.07,-3.65 1.08,-1.39 2.83,-1.39 1.74,0 2.73,1.17 V 252.57 h 1.70 v 14.00 z m -5.09,-4.82 q 0,1.47 0.62,2.52 0.62,1.05 1.99,1.05 1.57,0 2.33,-1.43 v -4.54 q -0.76,-1.40 -2.32,-1.40 -1.38,0 -2.01,1.08 -0.62,1.07 -0.62,2.53 z m -8.01,8.71 q -0.77,0 -1.88,-0.37 -1.11,-0.37 -1.78,-1.34 l 0.88,-1.00 q 1.09,1.33 2.64,1.33 1.19,0 1.90,-0.67 0.71,-0.67 0.71,-1.96 v -0.87 q -1.00,1.18 -2.76,1.18 -1.78,0 -2.83,-1.42 -1.05,-1.42 -1.05,-3.58 v -0.19 q 0,-2.26 1.04,-3.65 1.05,-1.39 2.85,-1.39 1.81,0 2.82,1.28 l 0.08,-1.09 h 1.53 v 9.65 q 0,1.96 -1.17,3.03 -1.17,1.08 -3.01,1.08 z m -2.46,-8.71 q 0,1.47 0.61,2.52 0.62,1.05 1.99,1.05 1.60,0 2.35,-1.46 v -4.49 q -0.32,-0.61 -0.88,-1.01 -0.57,-0.41 -1.45,-0.41 -1.38,0 -2.00,1.08 -0.62,1.07 -0.62,2.53 z m -7.50,-3.80 q -0.81,0 -1.43,0.44 -0.62,0.44 -0.98,1.14 v 7.05 h -1.69 v -9.86 h 1.60 l 0.05,1.23 q 1.12,-1.41 2.94,-1.41 1.45,0 2.30,0.81 0.86,0.81 0.87,2.73 v 6.51 h -1.70 v -6.48 q 0,-1.16 -0.51,-1.65 -0.50,-0.49 -1.46,-0.49 z m -8.62,-3.86 q 0,-0.41 0.25,-0.69 0.26,-0.28 0.75,-0.28 0.48,0 0.74,0.28 0.26,0.28 0.26,0.69 0,0.39 -0.26,0.67 -0.26,0.27 -0.74,0.27 -0.49,0 -0.75,-0.27 -0.25,-0.28 -0.25,-0.67 z m 1.82,2.62 v 9.86 h -1.70 v -9.86 z m -5.21,9.86 -4.69,-6.18 -1.62,1.69 v 4.49 h -1.76 v -13.27 h 1.76 v 6.54 l 5.90,-6.54 h 2.11 l -5.21,5.86 5.61,7.41 z m -5.18,-24.62 q -0.81,0 -1.43,0.44 -0.62,0.44 -0.98,1.14 v 7.05 h -1.69 v -9.86 h 1.60 l 0.05,1.23 q 1.12,-1.41 2.94,-1.41 1.45,0 2.30,0.81 0.86,0.81 0.87,2.73 v 6.51 h -1.70 v -6.48 q 0,-1.16 -0.51,-1.65 -0.50,-0.49 -1.46,-0.49 z m -6.48,0.20 q -1.65,0 -2.25,1.42 v 7.00 h -1.69 v -9.86 h 1.64 l 0.04,1.13 q 0.81,-1.31 2.34,-1.31 0.47,0 0.75,0.13 l -0.01,1.57 q -0.37,-0.07 -0.82,-0.07 z m -15.03,3.39 q 0,-2.14 1.20,-3.57 1.20,-1.44 3.27,-1.44 2.07,0 3.27,1.41 1.20,1.40 1.23,3.51 v 0.30 q 0,2.14 -1.21,3.57 -1.20,1.43 -3.27,1.43 -2.08,0 -3.29,-1.43 -1.20,-1.43 -1.20,-3.57 z m 1.69,0.21 q 0,1.47 0.69,2.54 0.70,1.08 2.11,1.08 1.38,0 2.08,-1.06 0.70,-1.07 0.71,-2.53 v -0.24 q 0,-1.45 -0.70,-2.53 -0.70,-1.09 -2.11,-1.09 -1.39,0 -2.10,1.09 -0.69,1.08 -0.69,2.53 z m -2.99,4.82 q -0.57,0.18 -1.30,0.18 -0.94,0 -1.60,-0.57 -0.67,-0.57 -0.67,-2.06 v -6.12 h -1.80 v -1.29 h 1.80 v -2.40 h 1.69 v 2.40 h 1.84 v 1.29 h -1.84 v 6.13 q 0,0.76 0.33,0.97 0.33,0.21 0.76,0.21 0.32,0 0.79,-0.11 z m -7.02,-8.42 q -1.65,0 -2.25,1.42 v 7.00 h -1.69 v -9.86 h 1.64 l 0.04,1.13 q 0.81,-1.31 2.34,-1.31 0.47,0 0.75,0.13 l 0,1.57 q -0.37,-0.07 -0.82,-0.07 z m -8.00,8.42 q -0.16,-0.36 -0.24,-1.04 -0.47,0.50 -1.18,0.87 -0.71,0.36 -1.62,0.36 -1.51,0 -2.42,-0.85 -0.91,-0.85 -0.91,-2.08 0,-1.59 1.20,-2.41 1.20,-0.83 3.24,-0.83 h 1.67 v -0.78 q 0,-0.88 -0.53,-1.39 -0.52,-0.53 -1.55,-0.53 -0.96,0 -1.55,0.47 -0.58,0.46 -0.58,1.08 h -1.69 q 0,-1.06 1.07,-1.99 1.07,-0.93 2.85,-0.93 1.60,0 2.63,0.82 1.03,0.82 1.03,2.48 v 4.43 q 0,1.37 0.35,2.17 v 0.15 z m -2.80,-1.29 q 0.91,0 1.58,-0.46 0.67,-0.46 0.95,-1.01 v -2.03 h -1.57 q -2.84,0.05 -2.84,1.82 0,0.70 0.47,1.19 0.47,0.48 1.41,0.48 z m -4.68,-11.98 -3.21,13.27 H 530.85 l -2.73,-9.67 -0.21,-1.01 -0.21,1.01 -2.83,9.67 h -1.60 l -3.22,-13.27 h 1.75 l 2.10,9.08 0.26,1.76 0.36,-1.58 2.63,-9.26 h 1.47 l 2.56,9.26 0.37,1.61 0.28,-1.80 2.05,-9.07 z"
            fill="#000000"
            stroke="none"
        />
    </g>
    <g id="high-pass">
        <polygon
            points="53.14,347.86 200,347.86 200,452.14 53.14,452.14 1,400"
            fill="#dcdcdc"
            stroke="#000000"
            stroke-width="2px"
        />
        <path
            d="m 161.55,363.24 q 0,-0.54 -0.40,-0.97 -0.39,-0.44 -1.82,-0.73 -1.65,-0.34 -2.63,-0.98 -0.98,-0.65 -0.98,-1.88 0,-1.17 0.99,-2.02 1.00,-0.86 2.66,-0.86 1.77,0 2.76,0.90 0.99,0.90 0.99,2.18 h -1.69 q 0,-0.61 -0.54,-1.15 -0.54,-0.55 -1.53,-0.55 -1.05,0 -1.50,0.46 -0.46,0.46 -0.46,0.99 0,0.54 0.42,0.88 0.43,0.33 1.80,0.64 1.81,0.41 2.70,1.08 0.89,0.67 0.89,1.88 0,1.30 -1.05,2.11 -1.04,0.81 -2.76,0.81 -1.96,0 -3.00,-1.00 -1.04,-1.00 -1.04,-2.22 h 1.70 q 0.05,1.05 0.80,1.45 0.76,0.39 1.54,0.39 1.03,0 1.58,-0.40 0.55,-0.40 0.55,-1.01 z m -9.63,0 q 0,-0.54 -0.40,-0.97 -0.39,-0.44 -1.82,-0.73 -1.65,-0.34 -2.63,-0.98 -0.98,-0.65 -0.98,-1.88 0,-1.17 0.99,-2.02 1.00,-0.86 2.66,-0.86 1.77,0 2.76,0.90 0.99,0.90 0.99,2.18 h -1.69 q 0,-0.61 -0.54,-1.15 -0.54,-0.55 -1.53,-0.55 -1.05,0 -1.50,0.46 -0.46,0.46 -0.46,0.99 0,0.54 0.42,0.88 0.43,0.33 1.80,0.64 1.81,0.41 2.70,1.08 0.89,0.67 0.89,1.88 0,1.30 -1.05,2.11 -1.04,0.81 -2.76,0.81 -1.96,0 -3.00,-1.00 -1.04,-1.00 -1.04,-2.22 h 1.70 q 0.05,1.05 0.80,1.45 0.76,0.39 1.54,0.39 1.03,0 1.58,-0.40 0.55,-0.40 0.55,-1.01 z m -9.81,2.62 q -0.16,-0.36 -0.24,-1.04 -0.47,0.50 -1.18,0.87 -0.71,0.36 -1.62,0.36 -1.51,0 -2.42,-0.85 -0.91,-0.85 -0.91,-2.08 0,-1.59 1.20,-2.41 1.20,-0.83 3.24,-0.83 h 1.67 v -0.78 q 0,-0.88 -0.53,-1.39 -0.52,-0.53 -1.55,-0.53 -0.96,0 -1.55,0.47 -0.58,0.46 -0.58,1.08 h -1.69 q 0,-1.06 1.07,-1.99 1.07,-0.93 2.85,-0.93 1.60,0 2.63,0.82 1.03,0.82 1.03,2.48 v 4.43 q 0,1.37 0.35,2.17 v 0.15 z m -2.80,-1.29 q 0.91,0 1.58,-0.46 0.67,-0.46 0.95,-1.01 v -2.03 h -1.57 q -2.84,0.05 -2.84,1.82 0,0.70 0.47,1.19 0.47,0.48 1.41,0.48 z m -12.95,-3.91 v 5.20 h -1.76 v -13.27 h 4.89 q 2.26,0 3.45,1.14 1.20,1.14 1.20,2.91 0,1.92 -1.20,2.97 -1.19,1.05 -3.45,1.05 z m 0,-6.63 v 5.20 h 3.14 q 1.55,0 2.22,-0.72 0.67,-0.72 0.67,-1.85 0,-1.02 -0.67,-1.82 -0.67,-0.80 -2.22,-0.80 z m -12.83,3.21 q -0.81,0 -1.43,0.44 -0.62,0.44 -0.98,1.14 v 7.05 h -1.69 v -14.00 h 1.69 v 5.31 q 1.12,-1.36 2.91,-1.36 1.45,0 2.30,0.81 0.86,0.81 0.87,2.73 v 6.51 h -1.70 v -6.48 q 0,-1.16 -0.51,-1.65 -0.50,-0.49 -1.46,-0.49 z m -10.83,12.51 q -0.77,0 -1.88,-0.37 -1.11,-0.37 -1.78,-1.34 l 0.88,-1.00 q 1.09,1.33 2.64,1.33 1.19,0 1.90,-0.67 0.71,-0.67 0.71,-1.96 v -0.87 q -1.00,1.18 -2.76,1.18 -1.78,0 -2.83,-1.42 -1.05,-1.42 -1.05,-3.58 v -0.19 q 0,-2.26 1.04,-3.65 1.05,-1.39 2.85,-1.39 1.81,0 2.82,1.28 l 0.08,-1.09 h 1.53 v 9.65 q 0,1.96 -1.17,3.03 -1.17,1.08 -3.01,1.08 z m -2.46,-8.71 q 0,1.47 0.61,2.52 0.62,1.05 1.99,1.05 1.60,0 2.35,-1.46 v -4.49 q -0.32,-0.61 -0.88,-1.01 -0.57,-0.41 -1.45,-0.41 -1.38,0 -2.00,1.08 -0.62,1.07 -0.62,2.53 z m -5.82,-7.66 q 0,-0.41 0.25,-0.69 0.26,-0.28 0.75,-0.28 0.48,0 0.74,0.28 0.26,0.28 0.26,0.69 0,0.39 -0.26,0.67 -0.26,0.27 -0.74,0.27 -0.49,0 -0.75,-0.27 -0.25,-0.28 -0.25,-0.67 z m 1.82,2.62 v 9.86 h -1.70 v -9.86 z m -6.44,9.86 v -6.13 h -6.69 v 6.13 h -1.76 v -13.27 h 1.76 v 5.71 h 6.69 v -5.71 h 1.75 v 13.27 z"
            fill="#000000"
            stroke="none"
        />
    </g>
    <g id="misty-mountains">
        <rect
            x="200"
            y="347.86"
            width="200"
            height="104.28"
            fill="#dcdcdc"
            stroke="#000000"
            stroke-width="2px"
        />
        <path
            d="m 366.24,362.70 q 0,-0.54 -0.40,-0.97 -0.39,-0.44 -1.82,-0.73 -1.65,-0.34 -2.63,-0.98 -0.98,-0.65 -0.98,-1.88 0,-1.17 0.99,-2.02 1.00,-0.86 2.66,-0.86 1.77,0 2.76,0.90 0.99,0.90 0.99,2.18 h -1.69 q 0,-0.61 -0.54,-1.15 -0.54,-0.55 -1.53,-0.55 -1.05,0 -1.50,0.46 -0.45,0.46 -0.46,0.99 0,0.54 0.42,0.88 0.43,0.33 1.80,0.64 1.81,0.41 2.70,1.08 0.89,0.67 0.89,1.88 0,1.30 -1.05,2.11 -1.04,0.81 -2.76,0.81 -1.96,0 -3.00,-1.00 -1.04,-1.00 -1.04,-2.22 h 1.70 q 0.05,1.05 0.80,1.45 0.76,0.39 1.54,0.39 1.03,0 1.58,-0.40 0.55,-0.40 0.55,-1.01 z m -11.96,-6.01 q -0.81,0 -1.43,0.44 -0.62,0.44 -0.98,1.14 v 7.05 h -1.69 v -9.86 h 1.60 l 0.05,1.23 q 1.12,-1.41 2.94,-1.41 1.45,0 2.30,0.81 0.86,0.81 0.87,2.73 v 6.51 h -1.70 v -6.48 q 0,-1.16 -0.51,-1.65 -0.50,-0.49 -1.46,-0.49 z m -8.62,-3.86 q 0,-0.41 0.25,-0.69 0.26,-0.28 0.75,-0.28 0.48,0 0.74,0.28 0.26,0.28 0.26,0.69 0,0.39 -0.26,0.67 -0.26,0.27 -0.74,0.27 -0.49,0 -0.75,-0.27 -0.25,-0.28 -0.25,-0.67 z m 1.82,2.62 v 9.86 h -1.70 v -9.86 z m -5.90,9.86 q -0.16,-0.36 -0.24,-1.04 -0.47,0.50 -1.18,0.87 -0.71,0.36 -1.62,0.36 -1.51,0 -2.42,-0.85 -0.91,-0.85 -0.91,-2.08 0,-1.59 1.20,-2.41 1.20,-0.83 3.24,-0.83 h 1.67 v -0.78 q 0,-0.88 -0.53,-1.39 -0.52,-0.53 -1.55,-0.53 -0.96,0 -1.55,0.47 -0.58,0.46 -0.58,1.08 h -1.69 q 0,-1.06 1.07,-1.99 1.07,-0.93 2.85,-0.93 1.60,0 2.63,0.82 1.03,0.82 1.03,2.48 v 4.43 q 0,1.37 0.35,2.17 v 0.15 z m -2.80,-1.29 q 0.91,0 1.58,-0.46 0.67,-0.46 0.95,-1.01 v -2.03 h -1.57 q -2.84,0.05 -2.84,1.82 0,0.70 0.47,1.19 0.47,0.48 1.41,0.48 z m -5.22,1.29 q -0.57,0.18 -1.30,0.18 -0.94,0 -1.60,-0.57 -0.67,-0.57 -0.67,-2.06 v -6.12 h -1.80 v -1.29 h 1.80 V 353.05 h 1.69 v 2.40 h 1.84 v 1.29 h -1.84 v 6.13 q 0,0.76 0.33,0.97 0.33,0.21 0.76,0.21 0.32,0 0.79,-0.11 z m -10.39,-8.62 q -0.81,0 -1.43,0.44 -0.62,0.44 -0.98,1.14 v 7.05 h -1.69 v -9.86 h 1.6006 l 0.05,1.23 q 1.12,-1.41 2.94,-1.41 1.45,0 2.30,0.81 0.86,0.81 0.87,2.73 v 6.51 h -1.70 v -6.48 q 0,-1.16 -0.51,-1.65 -0.50,-0.49 -1.46,-0.49 z m -8.27,8.62 -0.04,-0.98 q -0.97,1.16 -2.88,1.16 -1.45,0 -2.34,-0.86 -0.89,-0.86 -0.89,-2.83 v -6.36 h 1.69 v 6.38 q 0,1.33 0.56,1.79 0.57,0.45 1.26,0.45 1.90,0 2.57,-1.43 v -7.18 h 1.70 v 9.86 z m -17.21,-5.03 q 0,-2.14 1.20,-3.57 1.20,-1.44 3.27,-1.44 2.07,0 3.27,1.41 1.20,1.40 1.23,3.51 v 0.30 q 0,2.14 -1.21,3.57 -1.20,1.43 -3.27,1.43 -2.08,0 -3.29,-1.43 -1.20,-1.43 -1.20,-3.57 z m 1.69,0.21 q 0,1.47 0.69,2.54 0.70,1.08 2.11,1.08 1.38,0 2.08,-1.06 0.70,-1.07 0.71,-2.53 v -0.24 q 0,-1.45 -0.70,-2.53 -0.70,-1.09 -2.11,-1.09 -1.39,0 -2.10,1.09 -0.69,1.08 -0.69,2.53 z m -10.67,2.37 4.34,-10.82 h 2.26 v 13.27 h -1.75 v -5.18 l 0.17,-5.55 -4.37,10.73 h -1.33 l -4.36,-10.75 0.17,5.57 v 5.18 h -1.75 v -13.27 h 2.26 z m -16.96,3.97 q -0.88,2.32 -2.64,2.45 l -0.28,0.01 q -0.54,0 -0.95,-0.15 l -0.01,-1.37 0.46,0.04 q 0.86,0 1.34,-0.36 0.48,-0.35 0.79,-1.26 l 0.36,-1.00 -3.52,-9.75 h 1.84 l 2.47,7.38 2.29,-7.38 h 1.80 z m -5.30,-1.52 q -0.57,0.18 -1.30,0.18 -0.94,0 -1.60,-0.57 -0.67,-0.57 -0.67,-2.06 v -6.12 h -1.80 v -1.29 h 1.80 V 353.05 h 1.69 v 2.40 h 1.84 v 1.29 h -1.84 v 6.13 q 0,0.76 0.33,0.97 0.33,0.21 0.76,0.21 0.32,0 0.79,-0.11 z m -8.07,-2.62 q 0,-0.54 -0.40,-0.97 -0.39,-0.44 -1.82,-0.73 -1.65,-0.34 -2.63,-0.98 -0.98,-0.65 -0.98,-1.88 0,-1.17 0.99,-2.02 1.00,-0.86 2.66,-0.85 1.77,0 2.76,0.90 0.99,0.90 0.99,2.18 h -1.69 q 0,-0.61 -0.54,-1.15 -0.54,-0.55 -1.53,-0.55 -1.05,0 -1.50,0.46 -0.46,0.46 -0.46,0.99 0,0.54 0.42,0.88 0.43,0.33 1.80,0.64 1.81,0.41 2.70,1.08 0.89,0.67 0.89,1.88 0,1.30 -1.05,2.11 -1.04,0.81 -2.76,0.81 -1.96,0 -3.00,-1.00 -1.04,-1.00 -1.04,-2.22 h 1.70 q 0.05,1.05 0.80,1.45 0.76,0.39 1.54,0.39 1.03,0 1.58,-0.40 0.55,-0.40 0.55,-1.01 z m -10.27,-9.86 q 0,-0.41 0.25,-0.69 0.26,-0.28 0.75,-0.28 0.48,0 0.74,0.28 0.26,0.28 0.26,0.69 0,0.39 -0.26,0.67 -0.26,0.27 -0.74,0.27 -0.49,0 -0.75,-0.27 -0.25,-0.28 -0.25,-0.67 z m 1.82,2.62 v 9.86 h -1.70 v -9.86 z m -11.27,7.41 4.34,-10.82 h 2.26 v 13.27 h -1.75 v -5.18 l 0.17,-5.55 -4.37,10.73 h -1.33 l -4.36,-10.75 0.17,5.57 v 5.18 h -1.75 v -13.27 h 2.26 z"
            fill="#000000"
            stroke="none"
        />
    </g>
    <g id="abandoned-mines">
        <rect
            x="400"
            y="347.86"
            width="200"
            height="104.28"
            fill="#dcdcdc"
            stroke="#000000"
            stroke-width="2px"
        />
        <path
            d="m 576.89,363.24 q 0,-0.54 -0.40,-0.97 -0.39,-0.44 -1.82,-0.73 -1.65,-0.34 -2.63,-0.98 -0.98,-0.65 -0.98,-1.88 0,-1.17 0.99,-2.02 1.00,-0.86 2.66,-0.86 1.77,0 2.76,0.90 0.99,0.90 0.99,2.18 h -1.69 q 0,-0.61 -0.54,-1.15 -0.54,-0.55 -1.53,-0.55 -1.05,0 -1.50,0.46 -0.46,0.46 -0.46,0.99 0,0.54 0.42,0.88 0.43,0.33 1.80,0.64 1.81,0.41 2.70,1.08 0.89,0.67 0.89,1.88 0,1.30 -1.05,2.11 -1.04,0.81 -2.76,0.81 -1.96,0 -3.00,-1.00 -1.04,-1.00 -1.04,-2.22 h 1.70 q 0.05,1.05 0.80,1.45 0.76,0.39 1.54,0.39 1.03,0 1.58,-0.40 0.55,-0.40 0.55,-1.01 z m -7.84,0.89 q -0.48,0.73 -1.37,1.32 -0.88,0.58 -2.34,0.58 -2.06,0 -3.30,-1.34 -1.23,-1.34 -1.23,-3.43 v -0.38 q 0,-1.61 0.61,-2.74 0.62,-1.14 1.60,-1.73 0.98,-0.60 2.10,-0.60 2.11,0 3.08,1.39 0.98,1.38 0.98,3.45 v 0.76 h -6.67 q 0.04,1.36 0.80,2.32 0.77,0.95 2.12,0.95 0.89,0 1.51,-0.36 0.62,-0.36 1.08,-0.98 z m -3.93,-6.94 q -1.00,0 -1.70,0.73 -0.69,0.73 -0.87,2.10 h 4.93 v -0.13 q -0.06,-0.98 -0.57,-1.84 -0.50,-0.86 -1.80,-0.86 z m -10.09,0.04 q -0.81,0 -1.43,0.44 -0.62,0.44 -0.98,1.14 v 7.05 h -1.69 v -9.86 h 1.60 l 0.05,1.23 q 1.12,-1.41 2.94,-1.41 1.45,0 2.30,0.81 0.86,0.81 0.87,2.73 v 6.51 h -1.70 v -6.48 q 0,-1.16 -0.51,-1.65 -0.50,-0.49 -1.46,-0.49 z m -8.62,-3.86 q 0,-0.41 0.25,-0.69 0.26,-0.28 0.75,-0.28 0.48,0 0.74,0.28 0.26,0.28 0.26,0.69 0,0.39 -0.26,0.67 -0.26,0.27 -0.74,0.27 -0.49,0 -0.75,-0.27 -0.25,-0.28 -0.25,-0.67 z m 1.82,2.62 v 9.86 h -1.70 v -9.86 z m -11.27,7.41 4.34,-10.82 h 2.26 v 13.27 h -1.75 v -5.18 l 0.17,-5.55 -4.37,10.73 h -1.33 l -4.36,-10.75 0.17,5.57 v 5.18 h -1.75 v -13.27 h 2.26 z m -15.66,2.45 -0.08,-1.06 q -1.01,1.24 -2.82,1.24 -1.73,0 -2.80,-1.40 -1.07,-1.40 -1.08,-3.53 v -0.26 q 0,-2.26 1.07,-3.65 1.08,-1.39 2.83,-1.39 1.74,0 2.73,1.17 v -5.12 h 1.70 v 14.00 z m -5.09,-4.82 q 0,1.47 0.62,2.52 0.62,1.05 1.99,1.05 1.57,0 2.33,-1.43 v -4.54 q -0.76,-1.40 -2.32,-1.40 -1.38,0 -2.01,1.08 -0.62,1.07 -0.62,2.53 z m -3.37,3.10 q -0.48,0.73 -1.37,1.32 -0.88,0.58 -2.34,0.58 -2.06,0 -3.30,-1.34 -1.23,-1.34 -1.23,-3.43 v -0.38 q 0,-1.61 0.61,-2.74 0.62,-1.14 1.60,-1.73 0.98,-0.60 2.10,-0.60 2.11,0 3.08,1.39 0.98,1.38 0.98,3.45 v 0.76 h -6.67 q 0.04,1.36 0.80,2.32 0.77,0.95 2.12,0.95 0.89,0 1.51,-0.36 0.62,-0.36 1.08,-0.98 z m -3.93,-6.94 q -1.00,0 -1.70,0.73 -0.69,0.73 -0.87,2.10 h 4.93 v -0.13 q -0.06,-0.98 -0.57,-1.84 -0.50,-0.86 -1.80,-0.86 z m -10.09,0.04 q -0.81,0 -1.43,0.44 -0.62,0.44 -0.98,1.14 v 7.05 h -1.69 v -9.86 h 1.60 l 0.05,1.23 q 1.12,-1.41 2.94,-1.41 1.45,0 2.30,0.81 0.86,0.81 0.87,2.73 v 6.51 h -1.70 v -6.48 q 0,-1.16 -0.51,-1.65 -0.50,-0.49 -1.46,-0.49 z m -15.18,3.59 q 0,-2.14 1.20,-3.57 1.20,-1.44 3.27,-1.44 2.07,0 3.27,1.41 1.20,1.40 1.23,3.51 v 0.30 q 0,2.14 -1.21,3.57 -1.20,1.43 -3.27,1.43 -2.08,0 -3.29,-1.43 -1.20,-1.43 -1.20,-3.57 z m 1.69,0.21 q 0,1.47 0.69,2.54 0.70,1.08 2.11,1.08 1.38,0 2.08,-1.06 0.70,-1.07 0.71,-2.53 v -0.24 q 0,-1.45 -0.70,-2.53 -0.70,-1.09 -2.11,-1.09 -1.39,0 -2.10,1.09 -0.69,1.08 -0.69,2.53 z m -5.40,4.82 -0.08,-1.06 q -1.01,1.24 -2.82,1.24 -1.73,0 -2.80,-1.40 -1.07,-1.40 -1.08,-3.53 v -0.26 q 0,-2.26 1.07,-3.65 1.08,-1.39 2.83,-1.39 1.74,0 2.73,1.17 v -5.12 h 1.70 v 14.00 z m -5.09,-4.82 q 0,1.47 0.62,2.52 0.62,1.05 1.99,1.05 1.57,0 2.33,-1.43 v -4.54 q -0.76,-1.40 -2.32,-1.40 -1.38,0 -2.01,1.08 -0.62,1.07 -0.62,2.53 z m -7.49,-3.80 q -0.81,0 -1.43,0.44 -0.62,0.44 -0.98,1.14 v 7.05 h -1.69 v -9.86 h 1.60 l 0.05,1.23 q 1.12,-1.41 2.94,-1.41 1.45,0 2.30,0.81 0.86,0.81 0.87,2.73 v 6.51 h -1.70 v -6.48 q 0,-1.16 -0.51,-1.65 -0.50,-0.49 -1.46,-0.49 z m -8.16,8.62 q -0.16,-0.36 -0.24,-1.04 -0.47,0.50 -1.18,0.87 -0.71,0.36 -1.62,0.36 -1.51,0 -2.42,-0.85 -0.91,-0.85 -0.91,-2.08 0,-1.59 1.20,-2.41 1.20,-0.83 3.24,-0.83 h 1.67 v -0.78 q 0,-0.88 -0.53,-1.39 -0.52,-0.53 -1.55,-0.53 -0.96,0 -1.55,0.47 -0.58,0.46 -0.58,1.08 h -1.69 q 0,-1.06 1.07,-1.99 1.07,-0.93 2.85,-0.93 1.60,0 2.63,0.82 1.03,0.82 1.03,2.48 v 4.43 q 0,1.37 0.35,2.17 v 0.15 z m -2.80,-1.29 q 0.91,0 1.58,-0.46 0.67,-0.46 0.95,-1.01 v -2.03 h -1.57 q -2.84,0.05 -2.84,1.82 0,0.70 0.47,1.19 0.47,0.48 1.41,0.48 z m -5.42,-3.53 q 0,2.16 -1.00,3.58 -1.00,1.42 -2.83,1.42 -1.87,0 -2.88,-1.32 l -0.09,1.14 h -1.55 v -14.00 h 1.70 v 5.20 q 1.00,-1.25 2.81,-1.25 1.86,0 2.85,1.39 1.00,1.39 1.00,3.65 z m -4.27,-3.80 q -0.92,0 -1.49,0.45 -0.57,0.44 -0.89,1.08 v 4.29 q 0.33,0.66 0.91,1.10 0.58,0.45 1.49,0.45 1.37,0 1.96,-1.05 0.60,-1.06 0.60,-2.52 v -0.19 q 0,-1.47 -0.57,-2.53 -0.57,-1.08 -2.01,-1.08 z m -17.27,8.62 5.06,-13.27 h 1.54 l 5.08,13.27 h -1.80 l -1.27,-3.47 h -5.55 l -1.26,3.47 z m 3.58,-4.91 h 4.50 l -2.25,-6.19 z"
            fill="#000000"
            stroke="none"
        />
    </g>
    <g id="valley">
        <polygon
            points="600,347.86 746.86,347.86 799,400 746.86,452.14 600,452.14"
            fill="#dcdcdc"
            stroke="#000000"
            stroke-width="2px"
        />
        <path
            d="m 704.16,367.38 q -0.88,2.32 -2.64,2.45 l -0.28,0.01 q -0.54,0 -0.95,-0.15 l -0.01,-1.37 0.46,0.04 q 0.86,0 1.34,-0.36 0.48,-0.35 0.79,-1.26 l 0.36,-1.00 -3.52,-9.75 h 1.84 l 2.47,7.38 2.29,-7.38 h 1.80 z m -5.34,-3.24 q -0.48,0.73 -1.37,1.32 -0.88,0.58 -2.34,0.58 -2.06,0 -3.30,-1.34 -1.23,-1.34 -1.23,-3.43 v -0.38 q 0,-1.61 0.61,-2.74 0.62,-1.14 1.60,-1.73 0.98,-0.60 2.10,-0.60 2.11,0 3.08,1.39 0.98,1.38 0.98,3.45 v 0.76 h -6.67 q 0.04,1.36 0.80,2.32 0.77,0.95 2.12,0.95 0.89,0 1.51,-0.36 0.62,-0.36 1.08,-0.98 z m -3.93,-6.94 q -1.00,0 -1.70,0.73 -0.69,0.73 -0.87,2.10 h 4.93 v -0.13 q -0.06,-0.98 -0.57,-1.84 -0.50,-0.86 -1.80,-0.86 z m -6.58,-5.34 v 14.00 h -1.70 v -14.00 z m -4.54,0 v 14.00 h -1.70 v -14.00 z m -5.90,14.00 q -0.16,-0.36 -0.24,-1.04 -0.47,0.50 -1.18,0.87 -0.71,0.36 -1.62,0.36 -1.51,0 -2.42,-0.85 -0.91,-0.85 -0.91,-2.08 0,-1.59 1.20,-2.41 1.20,-0.83 3.24,-0.83 h 1.67 v -0.78 q 0,-0.88 -0.53,-1.39 -0.52,-0.53 -1.55,-0.53 -0.96,0 -1.55,0.47 -0.58,0.46 -0.58,1.08 h -1.69 q 0,-1.06 1.07,-1.99 1.07,-0.93 2.85,-0.93 1.60,0 2.63,0.82 1.03,0.82 1.03,2.48 v 4.43 q 0,1.37 0.35,2.17 v 0.15 z m -2.80,-1.29 q 0.91,0 1.58,-0.46 0.67,-0.46 0.95,-1.01 v -2.03 h -1.57 q -2.84,0.05 -2.84,1.82 0,0.70 0.47,1.19 0.47,0.48 1.41,0.48 z m -4.40,-11.98 -4.91,13.27 h -1.56 l -4.90,-13.27 h 1.90 l 3.76,10.94 3.80,-10.94 z"
            fill="#000000"
            stroke="none"
        />
    </g>
    <g id="east-forests">
        <polygon
            points="53.14,452.14 286.67,452.14 286.67,566.43 168.43,566.43"
            fill="#74c365"
            stroke="#000000"
            stroke-width="2px"
        />
        <path
            d="m 237.94,466.79 q 0,-0.54 -0.40,-0.97 -0.39,-0.44 -1.82,-0.73 -1.65,-0.34 -2.63,-0.98 -0.98,-0.65 -0.98,-1.88 0,-1.17 0.99,-2.02 1.00,-0.86 2.66,-0.86 1.77,0 2.76,0.90 0.99,0.90 0.99,2.18 h -1.69 q 0,-0.61 -0.54,-1.15 -0.54,-0.55 -1.53,-0.55 -1.05,0 -1.50,0.46 -0.46,0.46 -0.46,0.99 0,0.54 0.42,0.88 0.43,0.33 1.80,0.64 1.81,0.41 2.70,1.08 0.89,0.67 0.89,1.88 0,1.30 -1.05,2.11 -1.04,0.81 -2.76,0.81 -1.96,0 -3.00,-1.00 -1.04,-1.00 -1.04,-2.22 h 1.70 q 0.05,1.05 0.80,1.45 0.76,0.39 1.54,0.39 1.03,0 1.58,-0.40 0.55,-0.40 0.55,-1.01 z m -7.67,2.62 q -0.57,0.18 -1.30,0.18 -0.94,0 -1.60,-0.57 -0.67,-0.57 -0.67,-2.06 v -6.12 h -1.80 v -1.29 h 1.80 v -2.40 h 1.69 v 2.40 h 1.84 v 1.29 h -1.84 v 6.13 q 0,0.76 0.33,0.97 0.33,0.21 0.76,0.21 0.32,0 0.79,-0.11 z m -8.07,-2.62 q 0,-0.54 -0.40,-0.97 -0.39,-0.44 -1.82,-0.73 -1.65,-0.34 -2.63,-0.98 -0.98,-0.65 -0.98,-1.88 0,-1.17 0.99,-2.02 1.00,-0.86 2.66,-0.86 1.77,0 2.76,0.90 0.99,0.90 0.99,2.18 h -1.69 q 0,-0.61 -0.54,-1.15 -0.54,-0.55 -1.53,-0.55 -1.05,0 -1.50,0.46 -0.46,0.46 -0.46,0.99 0,0.54 0.42,0.88 0.43,0.33 1.80,0.64 1.81,0.41 2.70,1.08 0.89,0.67 0.89,1.88 0,1.30 -1.05,2.11 -1.04,0.81 -2.76,0.81 -1.96,0 -3.00,-1.00 -1.04,-1.00 -1.04,-2.22 h 1.70 q 0.05,1.05 0.80,1.45 0.76,0.39 1.54,0.39 1.03,0 1.58,-0.40 0.55,-0.40 0.55,-1.01 z m -7.84,0.89 q -0.48,0.73 -1.37,1.32 -0.88,0.58 -2.34,0.58 -2.06,0 -3.30,-1.34 -1.23,-1.34 -1.23,-3.43 v -0.38 q 0,-1.61 0.61,-2.74 0.62,-1.14 1.60,-1.73 0.98,-0.60 2.10,-0.60 2.11,0 3.08,1.39 0.98,1.38 0.98,3.45 v 0.76 h -6.67 q 0.04,1.36 0.80,2.32 0.77,0.95 2.12,0.95 0.89,0 1.51,-0.36 0.62,-0.36 1.08,-0.98 z m -3.93,-6.94 q -1.00,0 -1.70,0.73 -0.69,0.73 -0.87,2.10 h 4.93 v -0.13 q -0.06,-0.98 -0.57,-1.84 -0.50,-0.86 -1.80,-0.86 z m -6.09,0.24 q -1.65,0 -2.25,1.42 v 7.00 h -1.69 v -9.86 h 1.64 l 0.04,1.13 q 0.81,-1.31 2.34,-1.31 0.47,0 0.75,0.13 l -0.01,1.57 q -0.37,-0.07 -0.82,-0.07 z m -15.03,3.39 q 0,-2.14 1.20,-3.57 1.20,-1.44 3.27,-1.44 2.07,0 3.27,1.41 1.20,1.40 1.23,3.51 v 0.30 q 0,2.14 -1.21,3.57 -1.20,1.43 -3.27,1.43 -2.08,0 -3.29,-1.43 -1.20,-1.43 -1.20,-3.57 z m 1.69,0.21 q 0,1.47 0.69,2.54 0.70,1.08 2.11,1.08 1.38,0 2.08,-1.06 0.70,-1.07 0.71,-2.53 v -0.24 q 0,-1.45 -0.70,-2.53 -0.70,-1.09 -2.11,-1.09 -1.39,0 -2.10,1.09 -0.69,1.08 -0.69,2.53 z m -11.11,4.82 V 456.14 h 8.22 v 1.44 h -6.46 v 4.53 h 5.56 v 1.44 h -5.56 v 5.86 z m -6.82,0 q -0.57,0.18 -1.30,0.18 -0.94,0 -1.60,-0.57 -0.67,-0.57 -0.67,-2.06 v -6.12 h -1.80 v -1.29 h 1.80 v -2.40 h 1.69 v 2.40 h 1.84 v 1.29 h -1.84 v 6.13 q 0,0.76 0.33,0.97 0.33,0.21 0.76,0.21 0.32,0 0.79,-0.11 z m -8.07,-2.62 q 0,-0.54 -0.40,-0.97 -0.39,-0.44 -1.82,-0.73 -1.65,-0.34 -2.63,-0.98 -0.98,-0.65 -0.98,-1.88 0,-1.17 0.99,-2.02 1.00,-0.86 2.66,-0.86 1.77,0 2.76,0.90 0.99,0.90 0.99,2.18 h -1.69 q 0,-0.61 -0.54,-1.15 -0.54,-0.55 -1.53,-0.55 -1.05,0 -1.50,0.46 -0.46,0.46 -0.46,0.99 0,0.54 0.42,0.88 0.43,0.33 1.80,0.64 1.81,0.41 2.70,1.08 0.89,0.67 0.89,1.88 0,1.30 -1.05,2.11 -1.04,0.81 -2.76,0.81 -1.96,0 -3.00,-1.00 -1.04,-1.00 -1.04,-2.22 h 1.70 q 0.05,1.05 0.80,1.45 0.76,0.39 1.54,0.39 1.03,0 1.58,-0.40 0.55,-0.40 0.55,-1.01 z m -9.81,2.62 q -0.16,-0.36 -0.24,-1.04 -0.47,0.50 -1.18,0.87 -0.71,0.36 -1.62,0.36 -1.51,0 -2.42,-0.85 -0.91,-0.85 -0.91,-2.08 0,-1.59 1.20,-2.41 1.20,-0.83 3.24,-0.83 h 1.67 v -0.78 q 0,-0.88 -0.53,-1.39 -0.52,-0.53 -1.55,-0.53 -0.96,0 -1.55,0.47 -0.58,0.46 -0.58,1.08 h -1.69 q 0,-1.06 1.07,-1.99 1.07,-0.93 2.85,-0.93 1.60,0 2.63,0.82 1.03,0.82 1.03,2.48 v 4.43 q 0,1.37 0.35,2.17 v 0.15 z m -2.80,-1.29 q 0.91,0 1.58,-0.46 0.67,-0.46 0.95,-1.01 v -2.03 h -1.57 q -2.84,0.05 -2.84,1.82 0,0.70 0.47,1.19 0.47,0.48 1.41,0.48 z m -13.64,1.29 V 456.14 h 8.34 v 1.44 h -6.58 v 4.27 h 5.74 v 1.43 h -5.74 v 4.70 h 6.67 v 1.43 z"
            fill="#000000"
            stroke="none"
        />
    </g>
    <g id="land-of-the-holly">
        <rect
            x="286.67"
            y="452.14"
            width="226.67"
            height="114.29"
            fill="#b2ec5d"
            stroke="#000000"
            stroke-width="2px"
        />
        <path
            d="m 460.28,471.85 q -0.88,2.32 -2.64,2.45 l -0.28,0.01 q -0.54,0 -0.95,-0.15 l -0.01,-1.37 0.46,0.04 q 0.86,0 1.34,-0.36 0.48,-0.35 0.79,-1.26 l 0.36,-1.00 -3.52,-9.75 h 1.84 l 2.47,7.38 2.29,-7.38 h 1.80 z m -6.07,-15.52 v 14.00 h -1.70 V 456.33 Z m -4.54,0 v 14.00 h -1.70 V 456.33 Z m -12.92,8.97 q 0,-2.14 1.20,-3.57 1.20,-1.44 3.27,-1.44 2.07,0 3.27,1.41 1.20,1.40 1.23,3.51 v 0.30 q 0,2.14 -1.21,3.57 -1.20,1.43 -3.27,1.43 -2.08,0 -3.29,-1.43 -1.20,-1.43 -1.20,-3.57 z m 1.69,0.21 q 0,1.47 0.69,2.54 0.70,1.08 2.11,1.08 1.38,0 2.08,-1.06 0.70,-1.07 0.71,-2.53 v -0.24 q 0,-1.45 -0.70,-2.53 -0.70,-1.09 -2.11,-1.09 -1.39,0 -2.10,1.09 -0.69,1.08 -0.69,2.53 z m -5.85,4.82 v -6.13 h -6.69 v 6.13 h -1.76 v -13.27 h 1.76 v 5.71 h 6.69 v -5.71 h 1.75 v 13.27 z m -15.43,-1.72 q -0.48,0.73 -1.37,1.32 -0.88,0.58 -2.34,0.58 -2.06,0 -3.30,-1.34 -1.23,-1.34 -1.23,-3.43 v -0.38 q 0,-1.61 0.61,-2.74 0.62,-1.14 1.60,-1.73 0.98,-0.60 2.10,-0.60 2.11,0 3.08,1.39 0.98,1.38 0.98,3.45 v 0.76 h -6.67 q 0.04,1.36 0.80,2.32 0.78,0.95 2.12,0.95 0.89,0 1.51,-0.36 0.62,-0.36 1.08,-0.98 z m -3.93,-6.94 q -1.00,0 -1.70,0.73 -0.69,0.73 -0.87,2.10 h 4.93 v -0.13 q -0.06,-0.98 -0.57,-1.84 -0.50,-0.86 -1.80,-0.86 z m -10.06,0.04 q -0.81,0 -1.43,0.44 -0.62,0.44 -0.98,1.14 v 7.05 h -1.69 V 456.33 h 1.69 v 5.31 q 1.12,-1.36 2.91,-1.36 1.45,0 2.30,0.81 0.86,0.81 0.87,2.73 v 6.51 h -1.70 v -6.48 q 0,-1.16 -0.51,-1.65 -0.50,-0.49 -1.46,-0.49 z m -6.02,8.62 q -0.57,0.18 -1.30,0.18 -0.94,0 -1.60,-0.57 -0.67,-0.57 -0.67,-2.06 v -6.12 h -1.80 v -1.29 h 1.80 v -2.40 h 1.69 v 2.40 h 1.84 v 1.29 h -1.84 v 6.13 q 0,0.76 0.33,0.97 0.33,0.21 0.76,0.21 0.32,0 0.79,-0.11 z M 386.45,461.76 h -2.10 v 8.57 h -1.69 v -8.57 h -1.56 v -1.29 h 1.56 v -1.10 q 0.02,-1.57 0.88,-2.40 0.87,-0.83 2.36,-0.83 0.56,0 1.17,0.15 l -0.09,1.38 q -0.38,-0.08 -0.91,-0.08 -1.69,0 -1.71,1.80 v 1.09 h 2.10 z m -15.70,3.54 q 0,-2.14 1.20,-3.57 1.20,-1.44 3.27,-1.44 2.07,0 3.27,1.41 1.20,1.40 1.23,3.51 v 0.30 q 0,2.14 -1.21,3.57 -1.20,1.43 -3.27,1.43 -2.08,0 -3.29,-1.43 -1.20,-1.43 -1.20,-3.57 z m 1.69,0.21 q 0,1.47 0.69,2.54 0.70,1.08 2.11,1.08 1.38,0 2.08,-1.06 0.70,-1.07 0.71,-2.53 v -0.24 q 0,-1.45 -0.70,-2.53 -0.70,-1.09 -2.11,-1.09 -1.39,0 -2.10,1.09 -0.69,1.08 -0.69,2.53 z m -10.04,4.82 -0.08,-1.06 q -1.01,1.24 -2.82,1.24 -1.73,0 -2.80,-1.40 -1.07,-1.40 -1.08,-3.53 v -0.26 q 0,-2.26 1.07,-3.65 1.08,-1.39 2.83,-1.39 1.74,0 2.73,1.17 v -5.12 h 1.70 v 14.00 z m -5.09,-4.82 q 0,1.47 0.62,2.52 0.62,1.05 1.99,1.05 1.57,0 2.33,-1.43 v -4.54 q -0.76,-1.40 -2.32,-1.40 -1.38,0 -2.01,1.08 -0.62,1.07 -0.62,2.53 z m -7.49,-3.80 q -0.81,0 -1.43,0.44 -0.62,0.44 -0.98,1.14 v 7.05 h -1.69 v -9.86 h 1.60 l 0.05,1.23 q 1.12,-1.41 2.94,-1.41 1.45,0 2.30,0.81 0.86,0.81 0.87,2.73 v 6.51 h -1.70 v -6.48 q 0,-1.16 -0.51,-1.65 -0.50,-0.49 -1.46,-0.49 z m -8.16,8.62 q -0.16,-0.36 -0.24,-1.04 -0.47,0.50 -1.18,0.87 -0.71,0.36 -1.62,0.36 -1.51,0 -2.42,-0.85 -0.91,-0.85 -0.91,-2.08 0,-1.59 1.20,-2.41 1.20,-0.83 3.24,-0.83 h 1.67 v -0.78 q 0,-0.88 -0.53,-1.39 -0.52,-0.53 -1.55,-0.53 -0.96,0 -1.55,0.47 -0.58,0.46 -0.58,1.08 h -1.69 q 0,-1.06 1.07,-1.99 1.07,-0.93 2.85,-0.93 1.60,0 2.63,0.82 1.03,0.82 1.03,2.48 v 4.43 q 0,1.37 0.35,2.17 v 0.15 z m -2.80,-1.29 q 0.91,0 1.58,-0.46 0.67,-0.46 0.95,-1.01 v -2.03 h -1.57 q -2.84,0.05 -2.84,1.82 0,0.70 0.47,1.19 0.47,0.48 1.41,0.48 z m -5.04,-0.14 v 1.43 H 325.78 v -13.27 h 1.76 v 11.84 z"
            fill="#000000"
            stroke="none"
        />
    </g>
    <g id="wild-lands">
        <polygon
            points="513.34,452.14 746.86,452.14 631.57,566.43 513.34,566.43"
            fill="#b2ec5d"
            stroke="#000000"
            stroke-width="2px"
        />
        <path
            d="m 654.13,467.52 q 0,-0.54 -0.40,-0.97 -0.39,-0.44 -1.82,-0.73 -1.65,-0.34 -2.63,-0.98 -0.98,-0.65 -0.98,-1.88 0,-1.17 0.99,-2.02 1.00,-0.86 2.66,-0.86 1.77,0 2.76,0.90 0.99,0.90 0.99,2.18 h -1.69 q 0,-0.61 -0.54,-1.15 -0.54,-0.55 -1.53,-0.55 -1.05,0 -1.50,0.46 -0.46,0.46 -0.46,0.99 0,0.54 0.42,0.88 0.43,0.33 1.80,0.64 1.81,0.41 2.70,1.08 0.89,0.67 0.89,1.88 0,1.30 -1.05,2.11 -1.04,0.81 -2.76,0.81 -1.96,0 -3.00,-1.00 -1.04,-1.00 -1.04,-2.22 h 1.70 q 0.05,1.05 0.80,1.45 0.76,0.39 1.54,0.39 1.03,0 1.58,-0.40 0.55,-0.40 0.55,-1.01 z m -9.91,2.62 -0.08,-1.06 q -1.01,1.24 -2.82,1.24 -1.73,0 -2.80,-1.40 -1.07,-1.40 -1.08,-3.53 v -0.26 q 0,-2.26 1.07,-3.65 1.08,-1.39 2.83,-1.39 1.74,0 2.73,1.17 v -5.12 h 1.70 v 14.00 z m -5.09,-4.82 q 0,1.47 0.62,2.52 0.62,1.05 1.99,1.05 1.57,0 2.33,-1.43 v -4.54 q -0.76,-1.40 -2.32,-1.40 -1.38,0 -2.01,1.08 -0.62,1.07 -0.62,2.53 z m -7.49,-3.80 q -0.81,0 -1.43,0.44 -0.62,0.44 -0.98,1.14 v 7.05 h -1.69 v -9.86 h 1.60 l 0.05,1.23 q 1.12,-1.41 2.94,-1.41 1.45,0 2.30,0.81 0.86,0.81 0.87,2.73 v 6.51 h -1.70 v -6.48 q 0,-1.16 -0.51,-1.65 -0.50,-0.49 -1.46,-0.49 z m -8.16,8.62 q -0.16,-0.36 -0.24,-1.04 -0.47,0.50 -1.18,0.87 -0.71,0.36 -1.62,0.36 -1.51,0 -2.42,-0.85 -0.91,-0.85 -0.91,-2.08 0,-1.59 1.20,-2.41 1.20,-0.83 3.24,-0.83 h 1.67 v -0.78 q 0,-0.88 -0.53,-1.39 -0.52,-0.53 -1.55,-0.53 -0.96,0 -1.55,0.47 -0.58,0.46 -0.58,1.08 h -1.69 q 0,-1.06 1.07,-1.99 1.07,-0.93 2.85,-0.93 1.60,0 2.63,0.82 1.03,0.82 1.03,2.48 v 4.43 q 0,1.37 0.35,2.17 v 0.15 z m -2.80,-1.29 q 0.91,0 1.58,-0.46 0.67,-0.46 0.95,-1.01 v -2.03 h -1.57 q -2.84,0.05 -2.84,1.82 0,0.70 0.47,1.19 0.47,0.48 1.41,0.48 z m -5.04,-0.14 v 1.43 h -8.05 v -13.27 h 1.76 v 11.84 z m -17.10,1.43 -0.08,-1.06 q -1.01,1.24 -2.82,1.24 -1.73,0 -2.80,-1.40 -1.07,-1.40 -1.08,-3.53 v -0.26 q 0,-2.26 1.07,-3.65 1.08,-1.39 2.83,-1.39 1.74,0 2.73,1.17 v -5.12 h 1.70 v 14.00 z m -5.09,-4.82 q 0,1.47 0.62,2.52 0.62,1.05 1.99,1.05 1.57,0 2.33,-1.43 v -4.54 q -0.76,-1.40 -2.32,-1.40 -1.38,0 -2.01,1.08 -0.62,1.07 -0.62,2.53 z m -3.98,-9.18 v 14.00 H 587.78 v -14.00 z m -6.36,1.52 q 0,-0.41 0.25,-0.69 0.26,-0.28 0.75,-0.28 0.48,0 0.74,0.28 0.26,0.28 0.26,0.69 0,0.39 -0.26,0.67 -0.26,0.27 -0.74,0.27 -0.49,0 -0.75,-0.27 -0.25,-0.28 -0.25,-0.67 z m 1.82,2.62 v 9.86 h -1.70 v -9.86 z m -3.52,-3.41 -3.21,13.27 h -1.60 l -2.73,-9.67 -0.21,-1.01 -0.21,1.01 -2.83,9.67 h -1.60 l -3.22,-13.27 h 1.75 l 2.10,9.08 0.26,1.76 0.36,-1.58 2.63,-9.26 h 1.47 l 2.56,9.26 0.37,1.61 0.28,-1.80 2.05,-9.07 z"
            fill="#000000"
            stroke="none"
        />
    </g>
    <g id="the-downs">
        <polygon
            points="168.43,566.43 400,566.43 400,680.71 282.71,680.71"
            fill="#b2ec5d"
            stroke="#000000"
            stroke-width="2px"
        />
        <path
            d="m 341.54,582.81 q 0,-0.54 -0.40,-0.97 -0.39,-0.44 -1.82,-0.73 -1.65,-0.34 -2.63,-0.98 -0.98,-0.65 -0.98,-1.88 0,-1.17 0.99,-2.02 1.00,-0.86 2.66,-0.86 1.77,0 2.76,0.90 0.99,0.90 0.99,2.18 h -1.69 q 0,-0.61 -0.54,-1.15 -0.54,-0.55 -1.53,-0.55 -1.05,0 -1.50,0.46 -0.46,0.46 -0.46,0.99 0,0.54 0.42,0.88 0.43,0.33 1.80,0.64 1.81,0.41 2.70,1.08 0.89,0.67 0.89,1.88 0,1.30 -1.05,2.11 -1.04,0.81 -2.76,0.81 -1.96,0 -3.00,-1.00 -1.04,-1.00 -1.04,-2.22 h 1.70 q 0.05,1.05 0.80,1.45 0.76,0.39 1.54,0.39 1.03,0 1.58,-0.40 0.55,-0.40 0.55,-1.01 z m -11.96,-6.01 q -0.81,0 -1.43,0.44 -0.62,0.44 -0.98,1.14 v 7.05 h -1.69 v -9.86 h 1.60 l 0.05,1.23 q 1.12,-1.41 2.94,-1.41 1.45,0 2.30,0.81 0.86,0.81 0.87,2.73 v 6.51 h -1.70 v -6.48 q 0,-1.16 -0.51,-1.65 -0.50,-0.49 -1.46,-0.49 z m -5.82,-1.24 -2.86,9.86 h -1.37 l -2.40,-7.46 -2.33,7.46 h -1.38 l -2.86,-9.86 h 1.69 l 1.94,7.36 2.30,-7.36 h 1.36 l 2.33,7.52 1.90,-7.52 z m -23.40,4.83 q 0,-2.14 1.20,-3.57 1.20,-1.44 3.27,-1.44 2.07,0 3.27,1.41 1.20,1.40 1.23,3.51 v 0.30 q 0,2.14 -1.21,3.57 -1.20,1.43 -3.27,1.43 -2.08,0 -3.29,-1.43 -1.20,-1.43 -1.20,-3.57 z m 1.69,0.21 q 0,1.47 0.69,2.54 0.70,1.08 2.11,1.08 1.38,0 2.08,-1.06 0.70,-1.07 0.71,-2.53 v -0.24 q 0,-1.45 -0.70,-2.53 -0.70,-1.09 -2.11,-1.09 -1.39,0 -2.10,1.09 -0.69,1.08 -0.69,2.53 z m -13.23,4.82 V 572.16 h 3.76 q 2.62,0 4.23,1.69 1.62,1.68 1.62,4.56 v 0.79 q 0,2.88 -1.63,4.56 -1.62,1.68 -4.38,1.68 z m 1.76,-11.83 v 10.40 h 1.83 q 2.12,0 3.20,-1.31 1.08,-1.31 1.08,-3.49 v -0.81 q 0,-2.29 -1.08,-3.54 -1.08,-1.25 -3.04,-1.25 z m -8.74,10.11 q -0.48,0.73 -1.37,1.32 -0.88,0.58 -2.34,0.58 -2.06,0 -3.30,-1.34 -1.23,-1.34 -1.23,-3.43 v -0.38 q 0,-1.61 0.61,-2.74 0.62,-1.14 1.60,-1.73 0.98,-0.60 2.10,-0.60 2.11,0 3.08,1.39 0.98,1.38 0.98,3.45 v 0.76 h -6.67 q 0.04,1.36 0.80,2.32 0.77,0.95 2.12,0.95 0.89,0 1.51,-0.36 0.62,-0.36 1.08,-0.98 z m -3.93,-6.94 q -1.00,0 -1.70,0.73 -0.69,0.73 -0.87,2.10 h 4.93 v -0.13 q -0.06,-0.98 -0.57,-1.84 -0.50,-0.86 -1.80,-0.86 z m -10.06,0.04 q -0.81,0 -1.43,0.44 -0.62,0.44 -0.98,1.14 v 7.05 h -1.69 v -14.00 h 1.69 v 5.31 q 1.12,-1.36 2.91,-1.36 1.45,0 2.30,0.81 0.86,0.81 0.87,2.73 v 6.51 h -1.70 v -6.48 q 0,-1.16 -0.51,-1.65 -0.50,-0.49 -1.46,-0.49 z m -16.06,-3.21 v -1.44 H 262.04 v 1.44 h -4.27 v 11.83 h -1.73 V 573.60 Z"
            fill="#000000"
            stroke="none"
        />
    </g>
    <g id="red-hills">
        <polygon
            points="400,566.43 631.57,566.43 516.28,680.71 400,680.71"
            fill="#b2ec5d"
            stroke="#000000"
            stroke-width="2px"
        />
        <path
            d="m 534.15,582.81 q 0,-0.54 -0.40,-0.97 -0.39,-0.44 -1.82,-0.73 -1.65,-0.34 -2.63,-0.98 -0.98,-0.65 -0.98,-1.88 0,-1.17 0.99,-2.02 1.00,-0.86 2.66,-0.86 1.77,0 2.76,0.90 0.99,0.90 0.99,2.18 h -1.69 q 0,-0.61 -0.54,-1.15 -0.54,-0.55 -1.53,-0.55 -1.05,0 -1.50,0.46 -0.46,0.46 -0.46,0.99 0,0.54 0.42,0.88 0.43,0.33 1.80,0.64 1.81,0.41 2.70,1.08 0.89,0.67 0.89,1.88 0,1.30 -1.05,2.11 -1.04,0.81 -2.76,0.81 -1.96,0 -3.00,-1.00 -1.04,-1.00 -1.04,-2.22 h 1.70 q 0.05,1.05 0.80,1.45 0.76,0.39 1.54,0.39 1.03,0 1.58,-0.40 0.55,-0.40 0.55,-1.01 z m -8.45,-11.38 v 14.00 h -1.70 v -14.00 z m -4.54,0 v 14.00 h -1.70 v -14.00 z m -6.36,1.52 q 0,-0.41 0.25,-0.69 0.26,-0.28 0.75,-0.28 0.48,0 0.74,0.28 0.26,0.28 0.26,0.69 0,0.39 -0.26,0.67 -0.26,0.27 -0.74,0.27 -0.49,0 -0.75,-0.27 -0.25,-0.28 -0.25,-0.67 z m 1.82,2.62 v 9.86 h -1.70 v -9.86 z m -6.44,9.86 v -6.13 h -6.69 v 6.13 h -1.76 V 572.16 h 1.76 v 5.71 h 6.69 v -5.71 h 1.75 v 13.27 z m -17.50,0 -0.08,-1.06 q -1.01,1.24 -2.82,1.24 -1.73,0 -2.80,-1.40 -1.07,-1.40 -1.08,-3.53 v -0.26 q 0,-2.26 1.07,-3.65 1.08,-1.39 2.83,-1.39 1.74,0 2.73,1.17 v -5.12 h 1.70 v 14.00 z m -5.09,-4.82 q 0,1.47 0.62,2.52 0.62,1.05 1.99,1.05 1.57,0 2.33,-1.43 v -4.54 q -0.76,-1.40 -2.32,-1.40 -1.38,0 -2.01,1.08 -0.62,1.07 -0.62,2.53 z m -3.37,3.10 q -0.48,0.73 -1.37,1.32 -0.88,0.58 -2.34,0.58 -2.06,0 -3.30,-1.34 -1.23,-1.34 -1.23,-3.43 v -0.38 q 0,-1.61 0.61,-2.74 0.62,-1.14 1.60,-1.73 0.98,-0.60 2.10,-0.60 2.11,0 3.08,1.39 0.98,1.38 0.98,3.45 v 0.76 h -6.67 q 0.04,1.36 0.80,2.32 0.77,0.95 2.12,0.95 0.89,0 1.51,-0.36 0.62,-0.36 1.08,-0.98 z m -3.93,-6.94 q -1.00,0 -1.70,0.73 -0.70,0.73 -0.87,2.10 h 4.93 v -0.13 q -0.06,-0.98 -0.57,-1.84 -0.50,-0.86 -1.80,-0.86 z m -7.36,8.66 -2.88,-5.38 h -3.12 v 5.38 h -1.76 V 572.16 h 4.39 q 2.23,0 3.44,1.02 1.21,1.02 1.21,2.96 0,1.24 -0.67,2.17 -0.67,0.92 -1.85,1.38 l 3.12,5.63 v 0.11 z m -6.00,-11.83 v 5.02 h 2.69 q 1.41,0 2.12,-0.72 0.72,-0.73 0.72,-1.76 0,-1.15 -0.69,-1.84 -0.68,-0.70 -2.21,-0.70 z"
            fill="#000000"
            stroke="none"
        />
    </g>
    <g id="home-of-heroes">
        <rect
            x="282.71"
            y="680.71"
            width="233.57"
            height="118.29"
            fill="#b2ec5d"
            stroke="#000000"
            stroke-width="2px"
        />
        <path
            d="m 464.66,696.29 q 0,-0.54 -0.40,-0.97 -0.39,-0.44 -1.82,-0.73 -1.65,-0.34 -2.63,-0.98 -0.98,-0.65 -0.98,-1.88 0,-1.17 0.99,-2.02 1.00,-0.86 2.66,-0.86 1.77,0 2.76,0.90 0.99,0.90 0.99,2.18 h -1.69 q 0,-0.61 -0.54,-1.15 -0.54,-0.55 -1.53,-0.55 -1.05,0 -1.50,0.46 -0.46,0.46 -0.46,0.99 0,0.54 0.42,0.88 0.43,0.33 1.80,0.64 1.81,0.41 2.70,1.08 0.89,0.67 0.89,1.88 0,1.30 -1.05,2.11 -1.04,0.81 -2.76,0.81 -1.96,0 -3.00,-1.00 -1.04,-1.00 -1.04,-2.22 h 1.70 q 0.05,1.05 0.80,1.45 0.76,0.39 1.54,0.39 1.03,0 1.58,-0.40 0.55,-0.40 0.55,-1.01 z m -7.84,0.89 q -0.48,0.73 -1.37,1.32 -0.88,0.58 -2.34,0.58 -2.06,0 -3.30,-1.34 -1.23,-1.34 -1.23,-3.43 v -0.38 q 0,-1.61 0.61,-2.74 0.62,-1.14 1.60,-1.73 0.98,-0.60 2.10,-0.60 2.11,0 3.08,1.39 0.98,1.38 0.98,3.45 v 0.76 h -6.67 q 0.04,1.36 0.80,2.32 0.78,0.95 2.12,0.95 0.89,0 1.51,-0.36 0.62,-0.36 1.08,-0.98 z m -3.93,-6.94 q -1.00,0 -1.70,0.73 -0.69,0.73 -0.87,2.10 h 4.93 v -0.13 q -0.06,-0.98 -0.57,-1.84 -0.50,-0.86 -1.80,-0.86 z m -14.97,3.63 q 0,-2.14 1.20,-3.57 1.20,-1.44 3.27,-1.44 2.07,0 3.27,1.41 1.20,1.40 1.23,3.51 v 0.30 q 0,2.14 -1.21,3.57 -1.20,1.43 -3.27,1.43 -2.08,0 -3.29,-1.43 -1.20,-1.43 -1.20,-3.57 z m 1.69,0.21 q 0,1.47 0.69,2.54 0.70,1.08 2.11,1.08 1.38,0 2.08,-1.06 0.70,-1.07 0.71,-2.53 v -0.24 q 0,-1.45 -0.70,-2.53 -0.70,-1.09 -2.11,-1.09 -1.39,0 -2.10,1.09 -0.69,1.08 -0.69,2.53 z m -3.45,-3.60 q -1.65,0 -2.25,1.42 v 7.00 h -1.69 v -9.86 h 1.64 l 0.04,1.13 q 0.81,-1.31 2.34,-1.31 0.47,0 0.75,0.13 l -0.01,1.57 q -0.37,-0.07 -0.82,-0.07 z m -6.03,6.70 q -0.48,0.73 -1.37,1.32 -0.88,0.58 -2.34,0.58 -2.06,0 -3.30,-1.34 -1.23,-1.34 -1.23,-3.43 v -0.38 q 0,-1.61 0.61,-2.74 0.62,-1.14 1.60,-1.73 0.98,-0.60 2.10,-0.60 2.11,0 3.08,1.39 0.98,1.38 0.98,3.45 v 0.76 h -6.67 q 0.04,1.36 0.80,2.32 0.77,0.95 2.12,0.95 0.89,0 1.51,-0.36 0.62,-0.36 1.08,-0.98 z m -3.93,-6.94 q -1.00,0 -1.70,0.73 -0.69,0.73 -0.87,2.10 h 4.93 v -0.13 q -0.06,-0.98 -0.57,-1.84 -0.50,-0.86 -1.80,-0.86 z m -8.49,8.66 v -6.13 h -6.69 v 6.13 h -1.76 v -13.27 h 1.76 v 5.71 h 6.69 v -5.71 h 1.75 v 13.27 z M 402.51,690.33 H 400.41 v 8.57 h -1.69 v -8.57 h -1.56 v -1.29 h 1.56 v -1.10 q 0.02,-1.57 0.88,-2.40 0.87,-0.83 2.36,-0.83 0.56,0 1.17,0.15 l -0.09,1.38 q -0.38,-0.08 -0.91,-0.08 -1.69,0 -1.71,1.80 v 1.09 h 2.10 z m -15.70,3.54 q 0,-2.14 1.20,-3.57 1.20,-1.44 3.27,-1.44 2.07,0 3.27,1.41 1.20,1.40 1.23,3.51 v 0.30 q 0,2.14 -1.21,3.57 -1.20,1.43 -3.27,1.43 -2.08,0 -3.29,-1.43 -1.20,-1.43 -1.20,-3.57 z m 1.69,0.21 q 0,1.47 0.69,2.54 0.70,1.08 2.11,1.08 1.38,0 2.08,-1.06 0.70,-1.07 0.71,-2.53 v -0.24 q 0,-1.45 -0.70,-2.53 -0.70,-1.09 -2.11,-1.09 -1.39,0 -2.10,1.09 -0.69,1.08 -0.69,2.53 z m -7.97,3.10 q -0.48,0.73 -1.37,1.32 -0.88,0.58 -2.34,0.58 -2.06,0 -3.30,-1.34 -1.23,-1.34 -1.23,-3.43 v -0.38 q 0,-1.61 0.61,-2.74 0.62,-1.14 1.60,-1.73 0.98,-0.60 2.10,-0.60 2.11,0 3.08,1.39 0.98,1.38 0.98,3.45 v 0.76 h -6.67 q 0.04,1.36 0.80,2.32 0.77,0.95 2.12,0.95 0.89,0 1.51,-0.36 0.62,-0.36 1.08,-0.98 z m -3.93,-6.94 q -1.00,0 -1.70,0.73 -0.69,0.73 -0.87,2.10 h 4.93 v -0.13 q -0.06,-0.98 -0.57,-1.84 -0.50,-0.86 -1.80,-0.86 z m -16.30,0.04 q -1.66,0 -2.27,1.39 v 7.23 h -1.70 v -9.86 h 1.60 l 0.05,1.08 q 1.07,-1.26 2.92,-1.26 0.95,0 1.69,0.38 0.75,0.37 1.14,1.20 0.49,-0.71 1.28,-1.15 0.79,-0.44 1.86,-0.44 1.59,0 2.44,0.85 0.87,0.85 0.87,2.72 v 6.48 h -1.70 v -6.50 q 0,-1.24 -0.57,-1.68 -0.57,-0.45 -1.53,-0.45 -1.02,0 -1.60,0.61 -0.58,0.60 -0.67,1.47 v 6.54 h -1.69 v -6.49 q 0,-1.16 -0.57,-1.64 -0.57,-0.49 -1.53,-0.49 z m -15.04,3.59 q 0,-2.14 1.20,-3.57 1.20,-1.44 3.27,-1.44 2.07,0 3.27,1.41 1.20,1.40 1.23,3.51 v 0.30 q 0,2.14 -1.21,3.57 -1.20,1.43 -3.27,1.43 -2.08,0 -3.29,-1.43 -1.20,-1.43 -1.20,-3.57 z m 1.69,0.21 q 0,1.47 0.69,2.54 0.70,1.08 2.11,1.08 1.38,0 2.08,-1.06 0.70,-1.07 0.71,-2.53 v -0.24 q 0,-1.45 -0.70,-2.53 -0.70,-1.09 -2.11,-1.09 -1.39,0 -2.10,1.09 -0.70,1.08 -0.69,2.53 z m -5.85,4.82 v -6.13 h -6.69 v 6.13 h -1.76 v -13.27 h 1.76 v 5.71 h 6.69 v -5.71 h 1.75 v 13.27 z"
            fill="#000000"
            stroke="none"
        />
    </g>
    <g id="special-movement-mines">
        <line
            x1="420"
            y1="339"
            x2="420"
            y2="465"
            stroke="#592720"
            stroke-width="3px"
            stroke-dasharray="4,4"
        />
        <polygon
            points="420,330 411,339 429,339"
            stroke="none"
            fill="#592720"
        />
    </g>
    <g id="special-movement-river-left">
        <line
            x1="270"
            y1="290.2"
            x2="295"
            y2="290.2"
            stroke="#00008b"
            stroke-width="3px"
            stroke-dasharray="4,4"
        />
        <polygon
            points="304,290.2 295,281.2 295,299.2"
            stroke="none"
            fill="#00008b"
        />
    </g>
    <g id="special-movement-river-right">
        <line
            x1="496.7"
            y1="290.2"
            x2="521.7"
            y2="290.2"
            stroke="#00008b"
            stroke-width="3px"
            stroke-dasharray="4,4"
        />
        <polygon
            points="530.7,290.2 521.7,281.2 521.7,299.2"
            stroke="none"
            fill="#00008b"
        />
    </g>
</svg>
