<svg xmlns="http://www.w3.org/2000/svg" width="960" height="680" viewbox="0 0 960 680">
	<rect x="0" y="0" width="960" height="680" style="fill:#bcd4e6;stroke:#000000;stoke-width:2px"/>
	<polygon style="fill:#d0f0c0;stroke:#000000;stroke-width:2px" points="430.00,203.14 382.00,286.28 286.00,286.28 238.00,203.14 286.00,120.00 382.00,120.00"/>
	<polygon style="fill:#d0f0c0;stroke:#000000;stroke-width:2px" points="430.00,369.42 382.00,452.55 286.00,452.55 238.00,369.42 286.00,286.28 382.00,286.28"/>
	<polygon style="fill:#d0f0c0;stroke:#000000;stroke-width:2px" points="430.00,535.69 382.00,618.83 286.00,618.83 238.00,535.69 286.00,452.55 382.00,452.55"/>
	<polygon style="fill:#d0f0c0;stroke:#000000;stroke-width:2px" points="574.00,120.00 526.00,203.14 430.00,203.14 382.00,120.00 430.00,36.86 526.00,36.86"/>
	<polygon style="fill:#d0f0c0;stroke:#000000;stroke-width:2px" points="574.00,286.28 526.00,369.42 430.00,369.42 382.00,286.28 430.00,203.14 526.00,203.14"/>
	<polygon style="fill:#d0f0c0;stroke:#000000;stroke-width:2px" points="574.00,452.55 526.00,535.69 430.00,535.69 382.00,452.55 430.00,369.42 526.00,369.42"/>
	<polygon style="fill:#d0f0c0;stroke:#000000;stroke-width:2px" points="718.00,203.14 670.00,286.28 574.00,286.28 526.00,203.14 574.00,120.00 670.00,120.00"/>
	<polygon style="fill:#d0f0c0;stroke:#000000;stroke-width:2px" points="718.00,369.42 670.00,452.55 574.00,452.55 526.00,369.42 574.00,286.28 670.00,286.28"/>
	<line x1="497" y1="61" x2="530" y2="90" style="stroke:#708090;stroke-width:6px"/>
	<line x1="530" y1="90" x2="540" y2="135" style="stroke:#708090;stroke-width:6px"/>
	<line x1="540" y1="135" x2="515" y2="180" style="stroke:#708090;stroke-width:6px"/>
	<line x1="426" y1="87" x2="415" y2="130" style="stroke:#708090;stroke-width:6px"/>
	<line x1="515" y1="180" x2="560" y2="197" style="stroke:#708090;stroke-width:6px"/>
	<line x1="605" y1="140" x2="645" y2="150" style="stroke:#708090;stroke-width:6px"/>
	<line x1="682" y1="194" x2="660" y2="240" style="stroke:#708090;stroke-width:6px"/>
	<line x1="415" y1="130" x2="300" y2="147" style="stroke:#708090;stroke-width:6px"/>
	<line x1="300" y1="147" x2="305" y2="247" style="stroke:#708090;stroke-width:6px"/>
	<line x1="440" y1="175" x2="390" y2="195" style="stroke:#708090;stroke-width:6px"/>
	<line x1="438" y1="236" x2="483" y2="230" style="stroke:#708090;stroke-width:6px"/>
	<line x1="483" y1="230" x2="525" y2="257" style="stroke:#708090;stroke-width:6px"/>
	<line x1="525" y1="257" x2="509" y2="330" style="stroke:#708090;stroke-width:6px"/>
	<line x1="509" y1="330" x2="457" y2="332" style="stroke:#708090;stroke-width:6px"/>
	<line x1="457" y1="332" x2="417" y2="290" style="stroke:#708090;stroke-width:6px"/>
	<line x1="417" y1="290" x2="438" y2="236" style="stroke:#708090;stroke-width:6px"/>
	<line x1="305" y1="247" x2="325" y2="306" style="stroke:#708090;stroke-width:6px"/>
	<line x1="325" y1="306" x2="370" y2="308" style="stroke:#708090;stroke-width:6px"/>
	<line x1="390" y1="348" x2="396" y2="390" style="stroke:#708090;stroke-width:6px"/>
	<line x1="396" y1="390" x2="373" y2="425" style="stroke:#708090;stroke-width:6px"/>
	<line x1="373" y1="425" x2="337" y2="428" style="stroke:#708090;stroke-width:6px"/>
	<line x1="463" y1="390" x2="513" y2="392" style="stroke:#708090;stroke-width:6px"/>
	<line x1="513" y1="392" x2="575" y2="380" style="stroke:#708090;stroke-width:6px"/>
	<line x1="553" y1="452" x2="608" y2="416" style="stroke:#708090;stroke-width:6px"/>
	<line x1="514" y1="449" x2="553" y2="452" style="stroke:#708090;stroke-width:6px"/>
	<line x1="514" y1="449" x2="528" y2="488" style="stroke:#708090;stroke-width:6px"/>
	<line x1="553" y1="452" x2="528" y2="488" style="stroke:#708090;stroke-width:6px"/>
	<line x1="528" y1="488" x2="500" y2="514" style="stroke:#708090;stroke-width:6px"/>
	<line x1="500" y1="514" x2="457" y2="515" style="stroke:#708090;stroke-width:6px"/>
	<line x1="457" y1="515" x2="433" y2="490" style="stroke:#708090;stroke-width:6px"/>
	<line x1="433" y1="490" x2="412" y2="454" style="stroke:#708090;stroke-width:6px"/>
	<line x1="296" y1="482" x2="298" y2="427" style="stroke:#708090;stroke-width:6px"/>
	<line x1="333" y1="494" x2="367" y2="475" style="stroke:#708090;stroke-width:6px"/>
	<line x1="386" y1="508" x2="392" y2="546" style="stroke:#708090;stroke-width:6px"/>
	<line x1="392" y1="546" x2="381" y2="579" style="stroke:#708090;stroke-width:6px"/>
	<line x1="300" y1="588" x2="273" y2="553" style="stroke:#708090;stroke-width:6px"/>
	<circle cx="497" cy="61" r="12" style="fill:#ff2400;stroke:#000000;stroke-width:0.3px"/>
	<circle cx="530" cy="90" r="12" style="fill:#6495ed;stroke:#000000;stroke-width:0.3px"/>
	<circle cx="540" cy="135" r="12" style="fill:#ffff31;stroke:#000000;stroke-width:0.3px"/>
	<circle cx="515" cy="180" r="12" style="fill:#ff2400;stroke:#000000;stroke-width:0.3px"/>
	<circle cx="426" cy="87" r="12" style="fill:#ff2400;stroke:#000000;stroke-width:0.3px"/>
	<circle cx="415" cy="130" r="12" style="fill:#6495ed;stroke:#000000;stroke-width:0.3px"/>
	<circle cx="440" cy="175" r="12" style="fill:#ffff31;stroke:#000000;stroke-width:0.3px"/>
	<circle cx="605" cy="140" r="12" style="fill:#ffff31;stroke:#000000;stroke-width:0.3px"/>
	<circle cx="645" cy="150" r="12" style="fill:#6495ed;stroke:#000000;stroke-width:0.3px"/>
	<circle cx="682" cy="194" r="12" style="fill:#6495ed;stroke:#000000;stroke-width:0.3px"/>
	<circle cx="660" cy="240" r="12" style="fill:#ff2400;stroke:#000000;stroke-width:0.3px"/>
	<circle cx="560" cy="197" r="12" style="fill:#ff2400;stroke:#000000;stroke-width:0.3px"/>
	<circle cx="300" cy="147" r="12" style="fill:#ffff31;stroke:#000000;stroke-width:0.3px"/>
	<circle cx="390" cy="195" r="12" style="fill:#6495ed;stroke:#000000;stroke-width:0.3px"/>
	<circle cx="372" cy="238" r="12" style="fill:#6495ed;stroke:#000000;stroke-width:0.3px"/>
	<circle cx="305" cy="247" r="12" style="fill:#ff2400;stroke:#000000;stroke-width:0.3px"/>
	<circle cx="438" cy="236" r="12" style="fill:#ffff31;stroke:#000000;stroke-width:0.3px"/>
	<circle cx="483" cy="230" r="12" style="fill:#ff2400;stroke:#000000;stroke-width:0.3px"/>
	<circle cx="525" cy="257" r="12" style="fill:#6495ed;stroke:#000000;stroke-width:0.3px"/>
	<circle cx="509" cy="330" r="12" style="fill:#ffff31;stroke:#000000;stroke-width:0.3px"/>
	<circle cx="457" cy="332" r="12" style="fill:#ff2400;stroke:#000000;stroke-width:0.3px"/>
	<circle cx="417" cy="290" r="12" style="fill:#6495ed;stroke:#000000;stroke-width:0.3px"/>
	<circle cx="585" cy="320" r="12" style="fill:#ffff31;stroke:#000000;stroke-width:0.3px"/>
	<circle cx="575" cy="380" r="12" style="fill:#ff2400;stroke:#000000;stroke-width:0.3px"/>
	<circle cx="608" cy="416" r="12" style="fill:#6495ed;stroke:#000000;stroke-width:0.3px"/>
	<circle cx="325" cy="306" r="12" style="fill:#ff2400;stroke:#000000;stroke-width:0.3px"/>
	<circle cx="370" cy="308" r="12" style="fill:#ffff31;stroke:#000000;stroke-width:0.3px"/>
	<circle cx="390" cy="348" r="12" style="fill:#ffff31;stroke:#000000;stroke-width:0.3px"/>
	<circle cx="396" cy="390" r="12" style="fill:#6495ed;stroke:#000000;stroke-width:0.3px"/>
	<circle cx="373" cy="425" r="12" style="fill:#6495ed;stroke:#000000;stroke-width:0.3px"/>
	<circle cx="337" cy="428" r="12" style="fill:#ffff31;stroke:#000000;stroke-width:0.3px"/>
	<circle cx="298" cy="427" r="12" style="fill:#ff2400;stroke:#000000;stroke-width:0.3px"/>
	<circle cx="281" cy="385" r="12" style="fill:#ff2400;stroke:#000000;stroke-width:0.3px"/>
	<circle cx="281" cy="337" r="12" style="fill:#ff2400;stroke:#000000;stroke-width:0.3px"/>
	<circle cx="463" cy="390" r="12" style="fill:#ffff31;stroke:#000000;stroke-width:0.3px"/>
	<circle cx="513" cy="392" r="12" style="fill:#6495ed;stroke:#000000;stroke-width:0.3px"/>
	<circle cx="515" cy="449" r="12" style="fill:#ffff31;stroke:#000000;stroke-width:0.3px"/>
	<circle cx="553" cy="452" r="12" style="fill:#6495ed;stroke:#000000;stroke-width:0.3px"/>
	<circle cx="528" cy="488" r="12" style="fill:#ffff31;stroke:#000000;stroke-width:0.3px"/>
	<circle cx="500" cy="514" r="12" style="fill:#6495ed;stroke:#000000;stroke-width:0.3px"/>
	<circle cx="457" cy="515" r="12" style="fill:#ffff31;stroke:#000000;stroke-width:0.3px"/>
	<circle cx="433" cy="490" r="12" style="fill:#ff2400;stroke:#000000;stroke-width:0.3px"/>
	<circle cx="412" cy="454" r="12" style="fill:#6495ed;stroke:#000000;stroke-width:0.3px"/>
	<circle cx="296" cy="482" r="12" style="fill:#6495ed;stroke:#000000;stroke-width:0.3px"/>
	<circle cx="333" cy="494" r="12" style="fill:#ff2400;stroke:#000000;stroke-width:0.3px"/>
	<circle cx="367" cy="475" r="12" style="fill:#ffff31;stroke:#000000;stroke-width:0.3px"/>
	<circle cx="386" cy="508" r="12" style="fill:#ffff31;stroke:#000000;stroke-width:0.3px"/>
	<circle cx="392" cy="546" r="12" style="fill:#6495ed;stroke:#000000;stroke-width:0.3px"/>
	<circle cx="381" cy="579" r="12" style="fill:#ff2400;stroke:#000000;stroke-width:0.3px"/>
	<circle cx="343" cy="600" r="12" style="fill:#6495ed;stroke:#000000;stroke-width:0.3px"/>
	<circle cx="300" cy="588" r="12" style="fill:#ff2400;stroke:#000000;stroke-width:0.3px"/>
	<circle cx="273" cy="553" r="12" style="fill:#ff2400;stroke:#000000;stroke-width:0.3px"/>
	<circle cx="269" cy="517" r="12" style="fill:#ffff31;stroke:#000000;stroke-width:0.3px"/>
</svg>
