<svg xmlns="http://www.w3.org/2000/svg" width="960" height="680" viewbox="0 0 960 680">
	<rect x="0" y="0" width="960" height="680" style="fill:#bcd4e6;stroke:#000000;stoke-width:2px"/>
	<polygon style="fill:#d0f0c0;stroke:#000000;stroke-width:2px" points="430.00,203.14 382.00,286.28 286.00,286.28 238.00,203.14 286.00,120.00 382.00,120.00"/>
	<polygon style="fill:#d0f0c0;stroke:#000000;stroke-width:2px" points="430.00,369.42 382.00,452.55 286.00,452.55 238.00,369.42 286.00,286.28 382.00,286.28"/>
	<polygon style="fill:#d0f0c0;stroke:#000000;stroke-width:2px" points="430.00,535.69 382.00,618.83 286.00,618.83 238.00,535.69 286.00,452.55 382.00,452.55"/>
	<polygon style="fill:#d0f0c0;stroke:#000000;stroke-width:2px" points="574.00,120.00 526.00,203.14 430.00,203.14 382.00,120.00 430.00,36.86 526.00,36.86"/>
	<polygon style="fill:#d0f0c0;stroke:#000000;stroke-width:2px" points="574.00,286.28 526.00,369.42 430.00,369.42 382.00,286.28 430.00,203.14 526.00,203.14"/>
	<polygon style="fill:#d0f0c0;stroke:#000000;stroke-width:2px" points="574.00,452.55 526.00,535.69 430.00,535.69 382.00,452.55 430.00,369.42 526.00,369.42"/>
	<polygon style="fill:#d0f0c0;stroke:#000000;stroke-width:2px" points="718.00,203.14 670.00,286.28 574.00,286.28 526.00,203.14 574.00,120.00 670.00,120.00"/>
	<polygon style="fill:#d0f0c0;stroke:#000000;stroke-width:2px" points="718.00,369.42 670.00,452.55 574.00,452.55 526.00,369.42 574.00,286.28 670.00,286.28"/>
	<line x1="497" y1="61" x2="530" y2="90" style="stroke:#708090;stroke-width:6px"/>
	<line x1="530" y1="90" x2="540" y2="135" style="stroke:#708090;stroke-width:6px"/>
	<line x1="540" y1="135" x2="515" y2="180" style="stroke:#708090;stroke-width:6px"/>
	<line x1="426" y1="87" x2="415" y2="130" style="stroke:#708090;stroke-width:6px"/>
	<line x1="515" y1="180" x2="560" y2="197" style="stroke:#708090;stroke-width:6px"/>
	<line x1="605" y1="140" x2="645" y2="150" style="stroke:#708090;stroke-width:6px"/>
	<line x1="682" y1="194" x2="660" y2="240" style="stroke:#708090;stroke-width:6px"/>
	<line x1="415" y1="130" x2="300" y2="147" style="stroke:#708090;stroke-width:6px"/>
	<line x1="300" y1="147" x2="305" y2="247" style="stroke:#708090;stroke-width:6px"/>
	<line x1="440" y1="175" x2="390" y2="195" style="stroke:#708090;stroke-width:6px"/>
	<line x1="438" y1="236" x2="483" y2="230" style="stroke:#708090;stroke-width:6px"/>
	<line x1="483" y1="230" x2="525" y2="257" style="stroke:#708090;stroke-width:6px"/>
	<line x1="525" y1="257" x2="509" y2="330" style="stroke:#708090;stroke-width:6px"/>
	<line x1="509" y1="330" x2="457" y2="332" style="stroke:#708090;stroke-width:6px"/>
	<line x1="457" y1="332" x2="417" y2="290" style="stroke:#708090;stroke-width:6px"/>
	<line x1="417" y1="290" x2="438" y2="236" style="stroke:#708090;stroke-width:6px"/>
	<line x1="305" y1="247" x2="325" y2="306" style="stroke:#708090;stroke-width:6px"/>
	<line x1="325" y1="306" x2="370" y2="308" style="stroke:#708090;stroke-width:6px"/>
	<line x1="390" y1="348" x2="396" y2="390" style="stroke:#708090;stroke-width:6px"/>
	<line x1="396" y1="390" x2="373" y2="425" style="stroke:#708090;stroke-width:6px"/>
	<line x1="373" y1="425" x2="337" y2="428" style="stroke:#708090;stroke-width:6px"/>
	<line x1="463" y1="390" x2="513" y2="392" style="stroke:#708090;stroke-width:6px"/>
	<line x1="513" y1="392" x2="575" y2="380" style="stroke:#708090;stroke-width:6px"/>
	<line x1="553" y1="452" x2="608" y2="416" style="stroke:#708090;stroke-width:6px"/>
	<line x1="514" y1="449" x2="553" y2="452" style="stroke:#708090;stroke-width:6px"/>
	<line x1="514" y1="449" x2="528" y2="488" style="stroke:#708090;stroke-width:6px"/>
	<line x1="553" y1="452" x2="528" y2="488" style="stroke:#708090;stroke-width:6px"/>
	<line x1="528" y1="488" x2="500" y2="514" style="stroke:#708090;stroke-width:6px"/>
	<line x1="500" y1="514" x2="457" y2="515" style="stroke:#708090;stroke-width:6px"/>
	<line x1="457" y1="515" x2="433" y2="490" style="stroke:#708090;stroke-width:6px"/>
	<line x1="433" y1="490" x2="412" y2="454" style="stroke:#708090;stroke-width:6px"/>
	<line x1="296" y1="482" x2="298" y2="427" style="stroke:#708090;stroke-width:6px"/>
	<line x1="333" y1="494" x2="367" y2="475" style="stroke:#708090;stroke-width:6px"/>
	<line x1="386" y1="508" x2="392" y2="546" style="stroke:#708090;stroke-width:6px"/>
	<line x1="392" y1="546" x2="381" y2="579" style="stroke:#708090;stroke-width:6px"/>
	<line x1="300" y1="588" x2="273" y2="553" style="stroke:#708090;stroke-width:6px"/>
	<circle cx="497" cy="61" r="12" style="fill:#ff2400;stroke:#000000;stroke-width:0.3px"/>
	<circle cx="530" cy="90" r="12" style="fill:#6495ed;stroke:#000000;stroke-width:0.3px"/>
	<circle cx="540" cy="135" r="12" style="fill:#ffff31;stroke:#000000;stroke-width:0.3px"/>
	<circle cx="515" cy="180" r="12" style="fill:#ff2400;stroke:#000000;stroke-width:0.3px"/>
	<circle cx="426" cy="87" r="12" style="fill:#ff2400;stroke:#000000;stroke-width:0.3px"/>
	<circle cx="415" cy="130" r="12" style="fill:#6495ed;stroke:#000000;stroke-width:0.3px"/>
	<circle cx="440" cy="175" r="12" style="fill:#ffff31;stroke:#000000;stroke-width:0.3px"/>
	<circle cx="605" cy="140" r="12" style="fill:#ffff31;stroke:#000000;stroke-width:0.3px"/>
	<circle cx="645" cy="150" r="12" style="fill:#6495ed;stroke:#000000;stroke-width:0.3px"/>
	<circle cx="682" cy="194" r="12" style="fill:#6495ed;stroke:#000000;stroke-width:0.3px"/>
	<circle cx="660" cy="240" r="12" style="fill:#ff2400;stroke:#000000;stroke-width:0.3px"/>
	<circle cx="560" cy="197" r="12" style="fill:#ff2400;stroke:#000000;stroke-width:0.3px"/>
	<circle cx="300" cy="147" r="12" style="fill:#ffff31;stroke:#000000;stroke-width:0.3px"/>
	<circle cx="390" cy="195" r="12" style="fill:#6495ed;stroke:#000000;stroke-width:0.3px"/>
	<circle cx="372" cy="238" r="12" style="fill:#6495ed;stroke:#000000;stroke-width:0.3px"/>
	<circle cx="305" cy="247" r="12" style="fill:#ff2400;stroke:#000000;stroke-width:0.3px"/>
	<circle cx="438" cy="236" r="12" style="fill:#ffff31;stroke:#000000;stroke-width:0.3px"/>
	<circle cx="483" cy="230" r="12" style="fill:#ff2400;stroke:#000000;stroke-width:0.3px"/>
	<circle cx="525" cy="257" r="12" style="fill:#6495ed;stroke:#000000;stroke-width:0.3px"/>
	<circle cx="509" cy="330" r="12" style="fill:#ffff31;stroke:#000000;stroke-width:0.3px"/>
	<circle cx="457" cy="332" r="12" style="fill:#ff2400;stroke:#000000;stroke-width:0.3px"/>
	<circle cx="417" cy="290" r="12" style="fill:#6495ed;stroke:#000000;stroke-width:0.3px"/>
	<circle cx="585" cy="320" r="12" style="fill:#ffff31;stroke:#000000;stroke-width:0.3px"/>
	<circle cx="575" cy="380" r="12" style="fill:#ff2400;stroke:#000000;stroke-width:0.3px"/>
	<circle cx="608" cy="416" r="12" style="fill:#6495ed;stroke:#000000;stroke-width:0.3px"/>
	<circle cx="325" cy="306" r="12" style="fill:#ff2400;stroke:#000000;stroke-width:0.3px"/>
	<circle cx="370" cy="308" r="12" style="fill:#ffff31;stroke:#000000;stroke-width:0.3px"/>
	<circle cx="390" cy="348" r="12" style="fill:#ffff31;stroke:#000000;stroke-width:0.3px"/>
	<circle cx="396" cy="390" r="12" style="fill:#6495ed;stroke:#000000;stroke-width:0.3px"/>
	<circle cx="373" cy="425" r="12" style="fill:#6495ed;stroke:#000000;stroke-width:0.3px"/>
	<circle cx="337" cy="428" r="12" style="fill:#ffff31;stroke:#000000;stroke-width:0.3px"/>
	<circle cx="298" cy="427" r="12" style="fill:#ff2400;stroke:#000000;stroke-width:0.3px"/>
	<circle cx="281" cy="385" r="12" style="fill:#ff2400;stroke:#000000;stroke-width:0.3px"/>
	<circle cx="281" cy="337" r="12" style="fill:#ff2400;stroke:#000000;stroke-width:0.3px"/>
	<circle cx="463" cy="390" r="12" style="fill:#ffff31;stroke:#000000;stroke-width:0.3px"/>
	<circle cx="513" cy="392" r="12" style="fill:#6495ed;stroke:#000000;stroke-width:0.3px"/>
	<circle cx="515" cy="449" r="12" style="fill:#ffff31;stroke:#000000;stroke-width:0.3px"/>
	<circle cx="553" cy="452" r="12" style="fill:#6495ed;stroke:#000000;stroke-width:0.3px"/>
	<circle cx="528" cy="488" r="12" style="fill:#ffff31;stroke:#000000;stroke-width:0.3px"/>
	<circle cx="500" cy="514" r="12" style="fill:#6495ed;stroke:#000000;stroke-width:0.3px"/>
	<circle cx="457" cy="515" r="12" style="fill:#ffff31;stroke:#000000;stroke-width:0.3px"/>
	<circle cx="433" cy="490" r="12" style="fill:#ff2400;stroke:#000000;stroke-width:0.3px"/>
	<circle cx="412" cy="454" r="12" style="fill:#6495ed;stroke:#000000;stroke-width:0.3px"/>
	<circle cx="296" cy="482" r="12" style="fill:#6495ed;stroke:#000000;stroke-width:0.3px"/>
	<circle cx="333" cy="494" r="12" style="fill:#ff2400;stroke:#000000;stroke-width:0.3px"/>
	<circle cx="367" cy="475" r="12" style="fill:#ffff31;stroke:#000000;stroke-width:0.3px"/>
	<circle cx="386" cy="508" r="12" style="fill:#ffff31;stroke:#000000;stroke-width:0.3px"/>
	<circle cx="392" cy="546" r="12" style="fill:#6495ed;stroke:#000000;stroke-width:0.3px"/>
	<circle cx="381" cy="579" r="12" style="fill:#ff2400;stroke:#000000;stroke-width:0.3px"/>
	<circle cx="343" cy="600" r="12" style="fill:#6495ed;stroke:#000000;stroke-width:0.3px"/>
	<circle cx="300" cy="588" r="12" style="fill:#ff2400;stroke:#000000;stroke-width:0.3px"/>
	<circle cx="273" cy="553" r="12" style="fill:#ff2400;stroke:#000000;stroke-width:0.3px"/>
	<circle cx="269" cy="517" r="12" style="fill:#ffff31;stroke:#000000;stroke-width:0.3px"/>
	<path style="stroke:#000000;stroke-width:0.1px" d="m 468.39,105.67 q 0.26,0 0.44,0.04 0.18,0.02 0.32,0.1 0.14,0.06 0.28,0.2 0.14,0.12 0.3,0.32 l 16.58,21.58 q -0.04,-0.52 -0.08,-1 -0.02,-0.5 -0.02,-0.94 v -20.3 h 3.4 v 28.66 h -1.94 q -0.46,0 -0.78,-0.16 -0.3,-0.16 -0.6,-0.54 l -16.58,-21.58 q 0.04,0.5 0.06,0.98 0.02,0.48 0.02,0.88 v 20.42 h -3.4 v -28.66 z" />
	<path style="stroke:#000000;stroke-width:0.1px" d="m 634.42,369.43 q 0,3.22 -1.02,5.86 -1.02,2.64 -2.88,4.52 -1.86,1.88 -4.48,2.92 -2.60,1.02 -5.76,1.02 h -10.70 v -28.66 h 10.70 q 3.16,0 5.76,1.04 2.62,1.02 4.48,2.92 1.86,1.88 2.88,4.52 1.02,2.64 1.02,5.86 z m -3.98,0 q 0,-2.64 -0.72,-4.72 -0.72,-2.08 -2.04,-3.52 -1.32,-1.44 -3.20,-2.20 -1.88,-0.76 -4.20,-0.76 h -6.82 v 22.38 h 6.82 q 2.32,0 4.20,-0.76 1.88,-0.76 3.20,-2.18 1.32,-1.44 2.04,-3.52 0.72,-2.08 0.72,-4.72 z" />
	<path style="stroke:#000000;stroke-width:0.1px" d="m 485.71,276.43 q -0.18,0.30 -0.40,0.46 -0.20,0.14 -0.50,0.14 -0.34,0 -0.80,-0.34 -0.46,-0.34 -1.16,-0.74 -0.68,-0.42 -1.66,-0.76 -0.96,-0.34 -2.34,-0.34 -1.30,0 -2.30,0.36 -0.98,0.34 -1.66,0.94 -0.66,0.60 -1.00,1.42 -0.34,0.80 -0.34,1.74 0,1.20 0.58,2.00 0.60,0.78 1.56,1.34 0.98,0.56 2.20,0.98 1.24,0.40 2.52,0.84 1.30,0.44 2.52,1.00 1.24,0.54 2.20,1.38 0.98,0.84 1.56,2.06 0.60,1.22 0.60,3.00 0,1.88 -0.64,3.54 -0.64,1.64 -1.88,2.86 -1.22,1.22 -3.02,1.92 -1.78,0.70 -4.06,0.70 -2.80,0 -5.08,-1.00 -2.28,-1.02 -3.90,-2.74 l 1.12,-1.84 q 0.16,-0.22 0.38,-0.36 0.24,-0.16 0.52,-0.16 0.26,0 0.58,0.22 0.34,0.20 0.76,0.52 0.42,0.32 0.96,0.70 0.54,0.38 1.22,0.70 0.70,0.32 1.58,0.54 0.88,0.20 1.98,0.20 1.38,0 2.46,-0.38 1.08,-0.38 1.82,-1.06 0.76,-0.7 1.16,-1.66 0.40,-0.96 0.40,-2.14 0,-1.30 -0.60,-2.12 -0.58,-0.84 -1.54,-1.40 -0.96,-0.56 -2.20,-0.94 -1.24,-0.40 -2.52,-0.80 -1.28,-0.42 -2.52,-0.96 -1.24,-0.54 -2.20,-1.40 -0.96,-0.86 -1.56,-2.14 -0.58,-1.30 -0.58,-3.20 0,-1.52 0.58,-2.94 0.60,-1.42 1.72,-2.52 1.14,-1.1 2.78,-1.76 1.66,-0.66 3.80,-0.66 2.40,0 4.36,0.76 1.98,0.76 3.48,2.20 z" />
	<path style="stroke:#000000;stroke-width:0.1px" d="m 323.90,217.47 v -28.66 h 9.14 q 2.64,0 4.54,0.52 1.92,0.52 3.14,1.48 1.24,0.96 1.82,2.36 0.58,1.38 0.58,3.12 0,1.06 -0.34,2.04 -0.32,0.98 -0.98,1.82 -0.66,0.84 -1.68,1.50 -1.00,0.66 -2.36,1.08 3.14,0.62 4.74,2.26 1.60,1.64 1.60,4.32 0,1.82 -0.68,3.32 -0.66,1.50 -1.96,2.58 -1.28,1.08 -3.16,1.68 -1.88,0.58 -4.28,0.58 z m 3.86,-13.06 v 9.98 h 6.20 q 1.66,0 2.86,-0.38 1.20,-0.38 1.96,-1.06 0.78,-0.70 1.14,-1.64 0.36,-0.96 0.36,-2.10 0,-2.22 -1.58,-3.50 -1.58,-1.30 -4.74,-1.30 z m 0,-2.76 h 5.12 q 1.64,0 2.84,-0.36 1.22,-0.36 2.00,-1.00 0.80,-0.64 1.18,-1.54 0.38,-0.92 0.38,-2.00 0,-2.54 -1.52,-3.70 -1.52,-1.18 -4.72,-1.18 h -5.28 z" />
	<path style="stroke:#000000;stroke-width:0.1px" d="m 343.89,377.83 q 0.32,0 0.56,0.26 l 1.54,1.66 q -1.76,2.04 -4.28,3.18 -2.50,1.14 -6.06,1.14 -3.08,0 -5.60,-1.06 -2.52,-1.08 -4.30,-3.00 -1.78,-1.94 -2.76,-4.64 -0.98,-2.70 -0.98,-5.94 0,-3.24 1.02,-5.94 1.02,-2.70 2.86,-4.64 1.86,-1.94 4.44,-3.00 2.58,-1.08 5.70,-1.08 3.06,0 5.40,0.98 2.34,0.98 4.12,2.66 l -1.28,1.78 q -0.12,0.20 -0.32,0.34 -0.18,0.12 -0.50,0.12 -0.36,0 -0.88,-0.38 -0.52,-0.40 -1.36,-0.88 -0.84,-0.48 -2.10,-0.86 -1.26,-0.40 -3.10,-0.40 -2.22,0 -4.06,0.78 -1.84,0.76 -3.18,2.22 -1.32,1.46 -2.06,3.56 -0.74,2.10 -0.74,4.74 0,2.68 0.76,4.78 0.78,2.10 2.10,3.56 1.34,1.44 3.14,2.20 1.82,0.76 3.92,0.76 1.28,0 2.30,-0.14 1.04,-0.16 1.90,-0.48 0.88,-0.32 1.62,-0.80 0.76,-0.50 1.50,-1.18 0.34,-0.30 0.68,-0.30 z" />
	<path style="stroke:#000000;stroke-width:0.1px" d="m 333.19,539.66 q 0.24,0.48 0.46,1.02 0.22,0.52 0.44,1.04 0.20,-0.54 0.42,-1.06 0.22,-0.54 0.48,-1.02 l 9.72,-17.62 q 0.24,-0.46 0.52,-0.56 0.30,-0.10 0.82,-0.10 h 2.86 v 28.66 h -3.40 v -21.06 q 0,-0.42 0.02,-0.90 0.02,-0.48 0.06,-0.98 l -9.82,17.92 q -0.46,0.90 -1.40,0.90 h -0.56 q -0.94,0 -1.40,-0.9 l -10.04,-17.98 q 0.06,0.52 0.08,1.02 0.04,0.50 0.04,0.92 v 21.06 h -3.40 v -28.66 h 2.86 q 0.52,0 0.80,0.10 0.28,0.10 0.54,0.56 z" />
	<path style="stroke:#000000;stroke-width:0.1px" d="m 622.01,214.22 q 1.78,0 3.18,-0.60 1.40,-0.60 2.36,-1.68 0.98,-1.08 1.48,-2.58 0.52,-1.50 0.52,-3.30 v -17.42 h 3.86 v 17.42 q 0,2.48 -0.80,4.60 -0.78,2.12 -2.26,3.68 -1.46,1.54 -3.58,2.42 -2.12,0.88 -4.76,0.88 -2.64,0 -4.76,-0.88 -2.12,-0.88 -3.60,-2.42 -1.48,-1.56 -2.28,-3.68 -0.78,-2.12 -0.78,-4.60 v -17.42 h 3.86 v 17.40 q 0,1.80 0.50,3.30 0.52,1.50 1.48,2.58 0.98,1.08 2.38,1.70 1.42,0.60 3.20,0.60 z" />
	<path style="stroke:#000000;stroke-width:0.1px" d="m 473.73,463.63 h 12.40 v 3.26 h -16.26 v -28.66 h 3.86 z" />
	<rect x="10" y="10" width="200" height="100" style="fill:none;stroke:#000000;stroke-width:1px" />
	<path
		d="m 113.53,27.68 -4.85,7.41 11.20,7.23 7.80,18.09 c 0.77,-0.35 1.86,-0.95 3.06,-1.79 1.79,-1.23 3.79,-2.91 5.65,-4.81 1.86,-1.90 3.51,-3.97 4.57,-5.97 0.91,-1.76 1.37,-3.44 1.26,-4.88 l -17.77,-8.18 z"
		style="fill:none;stroke:#000000;stroke-width:1px"
	/>
	<path
		d="M 108.82,38.18 C 97.20,54.26 89.29,69.78 77.84,87.69 c 0,0 0,0 0.04,0.07 0.04,0.14 0.21,0.49 0.49,0.81 0.56,0.70 1.58,1.58 2.70,2.32 1.09,0.70 2.32,1.30 3.20,1.51 0.46,0.11 0.81,0.14 0.95,0.11 0.04,0 0.04,0 0.07,0 3.09,-4.74 4.46,-6.85 6.74,-15.42 l 0.04,-0.18 0.11,-0.14 C 100.64,63.11 104.04,54.82 113.84,41.44 Z"
		style="fill:none;stroke:#000000;stroke-width:1px"
	/>
	<rect x="750" y="10" width="200" height="100" style="fill:none;stroke:#000000;stroke-width:1px" />
	<path
		d="M 844.92,74.61 V 53.26 h -9.49 -9.49 V 48.21 43.19 h 9.49 9.49 l 0.03,-9.53 0.03,-9.53 4.99,-0.03 4.99,-0.03 0.03,9.53 0.03,9.53 9.53,0.03 9.53,0.03 v 5.02 5.02 h -9.56 -9.56 v 21.36 21.36 h -5.02 -5.02 z"
		style="fill:none;stroke:#000000;stroke-width:1px"
    />
	<circle
		cx="30"
		cy="650"
		r="20"
		style="fill:none;stroke:#000000;stroke-width:1px"
    />
	<circle
		cx="30"
		cy="610"
		r="15"
		style="fill:none;stroke:#000000;stroke-width:1px"
	/>
	<circle
		cx="30"
		cy="575"
		r="15"
		style="fill:none;stroke:#000000;stroke-width:1px"
	/>
	<g transform="translate(51.83,563.00)">
		<circle
			cx="10"
			cy="12"
			r="10"
			style="fill:#ffd700;stroke:#000000;stroke-width:0.3px"
		/>
		<path
			d="m 11.02,4.19 v 6.77 h 6.77 v 2.07 H 11.02 V 19.8 H 8.98 V 13.03 H 2.21 V 10.97 H 8.98 V 4.19 Z"
			style="fill:#008000;stroke:#000000;stroke-width:0.3px"
		/>
	</g>
	<circle
		cx="30"
		cy="540"
		r="15"
		style="fill:none;stroke:#000000;stroke-width:1px"
	/>
	<g transform="translate(51.83,528.00)">
		<circle
			cx="10"
			cy="12"
			r="10"
			style="fill:#ffd700;stroke:#000000;stroke-width:0.3px"
		/>
		<path
			d="m 11.02,4.19 v 6.77 h 6.77 v 2.07 H 11.02 V 19.8 H 8.98 V 13.03 H 2.21 V 10.97 H 8.98 V 4.19 Z"
			style="fill:#008000;stroke:#000000;stroke-width:0.3px"
		/>
	</g>
	<circle
		cx="30"
		cy="505"
		r="15"
		style="fill:none;stroke:#000000;stroke-width:1px"
	/>
	<g transform="translate(51.83,493.00)">
		<circle
			cx="10"
			cy="12"
			r="10"
			style="fill:#ffd700;stroke:#000000;stroke-width:0.3px"
		/>
		<path
			d="m 11.02,4.19 v 6.77 h 6.77 v 2.07 H 11.02 V 19.8 H 8.98 V 13.03 H 2.21 V 10.97 H 8.98 V 4.19 Z"
			style="fill:#008000;stroke:#000000;stroke-width:0.3px"
		/>
	</g>
	<circle
		cx="30"
		cy="470"
		r="15"
		style="fill:none;stroke:#000000;stroke-width:1px"
	/>
	<g transform="translate(51.83,458.00)">
		<circle
			cx="10"
			cy="12"
			r="10"
			style="fill:#ffd700;stroke:#000000;stroke-width:0.3px"
		/>
		<path
			d="m 11.02,4.19 v 6.77 h 6.77 v 2.07 H 11.02 V 19.8 H 8.98 V 13.03 H 2.21 V 10.97 H 8.98 V 4.19 Z"
			style="fill:#008000;stroke:#000000;stroke-width:0.3px"
		/>
	</g>
	<g transform="translate(73.83,458.00)">
		<circle
			cx="10"
			cy="12"
			r="10"
			style="fill:#ffd700;stroke:#000000;stroke-width:0.3px"
		/>
		<path
			d="m 11.02,4.19 v 6.77 h 6.77 v 2.07 H 11.02 V 19.8 H 8.98 V 13.03 H 2.21 V 10.97 H 8.98 V 4.19 Z"
			style="fill:#008000;stroke:#000000;stroke-width:0.3px"
		/>
	</g>
	<circle
		cx="30"
		cy="435"
		r="15"
		style="fill:none;stroke:#000000;stroke-width:1px"
	/>
	<g transform="translate(51.83,423.00)">
		<circle
			cx="10"
			cy="12"
			r="10"
			style="fill:#ffd700;stroke:#000000;stroke-width:0.3px"
		/>
		<path
			d="m 11.02,4.19 v 6.77 h 6.77 v 2.07 H 11.02 V 19.8 H 8.98 V 13.03 H 2.21 V 10.97 H 8.98 V 4.19 Z"
			style="fill:#008000;stroke:#000000;stroke-width:0.3px"
		/>
	</g>
	<g transform="translate(73.83,423.00)">
		<circle
			cx="10"
			cy="12"
			r="10"
			style="fill:#ffd700;stroke:#000000;stroke-width:0.3px"
		/>
		<path
			d="m 11.02,4.19 v 6.77 h 6.77 v 2.07 H 11.02 V 19.8 H 8.98 V 13.03 H 2.21 V 10.97 H 8.98 V 4.19 Z"
			style="fill:#008000;stroke:#000000;stroke-width:0.3px"
		/>
	</g>
	<circle
		cx="30"
		cy="400"
		r="15"
		style="fill:none;stroke:#000000;stroke-width:1px"
	/>
	<g transform="translate(51.83, 388.00)">
		<path
			d="m 10,2.91 c -0.94,0 -2.77,4.6 -3.53,5.15 -0.76,0.55 -5.7,0.87 -5.99,1.77 -0.29,0.89 3.52,4.05 3.81,4.94 0.29,0.89 -0.93,5.69 -0.17,6.25 0.75,0.55 4.94,-2.1 5.88,-2.1 0.94,0 5.13,2.64 5.88,2.09 0.76,-0.55 -0.46,-5.35 -0.17,-6.24 C 16,13.88 19.81,10.72 19.52,9.83 19.23,8.93 14.29,8.61 13.53,8.06 12.77,7.51 10.94,2.91 10,2.91 Z"
       		style="fill:#ffd700;stroke:#000000;stroke-width:0.3px"
		/>
	</g>
	<circle
		cx="30"
		cy="365"
		r="15"
		style="fill:none;stroke:#000000;stroke-width:1px"
	/>
	<circle
		cx="61.83"
		cy="365.00"
		r="11.55"
		style="fill:none;stroke:#000000;stroke-width:1px"
	/>
	<path
		d="m 61.83,354.69 c 1.35,1.62 2.16,3.7 2.16,5.97 0,0.88 -0.12,1.72 -0.35,2.53 -1.19,-0.22 -2.41,-0.22 -3.62,0 -0.22,-0.8 -0.35,-1.65 -0.35,-2.53 0,-2.27 0.81,-4.35 2.16,-5.97 z m -0.02,9.07 c 0.54,0 1.08,0.05 1.61,0.14 -0.37,1 -0.91,1.93 -1.58,2.74 -0.67,-0.81 -1.21,-1.73 -1.58,-2.73 0.52,-0.09 1.04,-0.13 1.56,-0.13 z m -2.29,0.29 c 0.41,1.16 1.03,2.21 1.81,3.13 -1.7,1.74 -4.06,2.82 -6.69,2.82 -0.54,0 -1.07,-0.05 -1.58,-0.13 0.73,-1.97 2.13,-3.72 4.09,-4.85 0.76,-0.44 1.55,-0.76 2.36,-0.96 z m 4.62,0 c 2.35,0.6 4.47,2.11 5.78,4.38 0.27,0.47 0.49,0.95 0.67,1.43 -0.51,0.08 -1.04,0.13 -1.58,0.13 -2.62,0 -4.99,-1.08 -6.69,-2.82 0.78,-0.92 1.4,-1.98 1.81,-3.13 z m 7.41,6.37 -0.22,-0.71 c -0.2,-0.56 -0.46,-1.11 -0.76,-1.65 -1.4,-2.43 -3.67,-4.06 -6.2,-4.71 0.24,-0.86 0.36,-1.76 0.36,-2.69 0,-2.49 -0.9,-4.76 -2.4,-6.52 l -0.5,-0.54 -0.5,0.54 c -1.49,1.76 -2.4,4.04 -2.4,6.52 0,0.93 0.13,1.83 0.36,2.68 -0.86,0.22 -1.7,0.56 -2.51,1.03 -2.15,1.24 -3.67,3.16 -4.45,5.34 l -0.22,0.71 0.72,0.16 c 0.59,0.11 1.19,0.16 1.81,0.16 2.81,0 5.35,-1.15 7.18,-3.01 1.83,1.86 4.37,3.01 7.18,3.01 0.62,0 1.22,-0.06 1.81,-0.16 z"
		style="fill:#6495ed;stroke:#000000;stoke-width:0.3px"
	/>
	<circle
		cx="30"
		cy="330"
		r="15"
		style="fill:none;stroke:#000000;stroke-width:1px"
	/>
	<g>
		<rect x="670" y="590" width="40" height="40" style="fill:none;stroke:#000000;stroke-width:1px" />
		<rect x="710" y="590" width="40" height="40" style="fill:none;stroke:#000000;stroke-width:1px" />
		<rect x="750" y="590" width="40" height="40" style="fill:none;stroke:#000000;stroke-width:1px" />
		<rect x="790" y="590" width="40" height="40" style="fill:none;stroke:#000000;stroke-width:1px" />
		<rect x="830" y="590" width="40" height="40" style="fill:none;stroke:#000000;stroke-width:1px" />
		<rect x="870" y="590" width="40" height="40" style="fill:none;stroke:#000000;stroke-width:1px" />
		<rect x="910" y="590" width="40" height="40" style="fill:none;stroke:#000000;stroke-width:1px" />
		<rect x="670" y="630" width="40" height="40" style="fill:none;stroke:#000000;stroke-width:1px" />
		<rect x="710" y="630" width="40" height="40" style="fill:none;stroke:#000000;stroke-width:1px" />
		<rect x="750" y="630" width="40" height="40" style="fill:none;stroke:#000000;stroke-width:1px" />
		<rect x="790" y="630" width="40" height="40" style="fill:none;stroke:#000000;stroke-width:1px" />
		<rect x="830" y="630" width="40" height="40" style="fill:none;stroke:#000000;stroke-width:1px" />
		<rect x="870" y="630" width="40" height="40" style="fill:none;stroke:#000000;stroke-width:1px" />
		<rect x="910" y="630" width="40" height="40" style="fill:none;stroke:#000000;stroke-width:1px" />
		<polygon
			style="fill:#d0f0c0;stroke:#000000;stroke-width:1px"
			points="690.00,624.00 702.12,617.00 702.12,603.00 690.00,596.00 677.88,603.00 677.88,617.00"
		/>
		<path
			d="m 681.71,637.21 c -1.18,0.38 -2.11,0.80 -3.25,1.63 -0.15,0.15 -0.30,0.30 -0.45,0.43 0.01,0.04 0.04,0.08 0.08,0.15 0.07,0.12 0.19,0.27 0.34,0.42 -0.23,0.38 -0.45,0.76 -0.64,1.13 -0.26,-0.20 -0.48,-0.43 -0.65,-0.69 -0.52,0.65 -0.98,1.33 -1.39,2.07 0.03,0.11 0.11,0.23 0.26,0.39 0.18,0.19 0.46,0.39 0.79,0.56 -0.14,0.42 -0.26,0.83 -0.35,1.24 -0.50,-0.22 -0.96,-0.52 -1.33,-0.90 -0.39,0.94 -0.71,1.93 -0.90,2.95 0.08,0.18 0.24,0.33 0.49,0.48 0.34,0.23 0.84,0.42 1.37,0.53 0,0.43 0.01,0.86 0.05,1.29 -0.77,-0.11 -1.52,-0.35 -2.12,-0.76 0,0 -0.01,0 -0.01,0 -0.10,1.06 -0.05,2.09 0.07,3.11 0.16,0.23 0.42,0.41 0.80,0.54 0.50,0.18 1.18,0.23 1.88,0.16 0.14,0.41 0.29,0.82 0.46,1.22 -0.95,0.14 -1.92,0.11 -2.75,-0.18 -0.03,-0.01 -0.04,-0.01 -0.07,-0.03 0.27,1.05 0.65,2.05 1.14,3.00 0.24,0.19 0.57,0.29 0.99,0.31 0.63,0.04 1.43,-0.12 2.20,-0.43 0.24,0.35 0.52,0.71 0.80,1.03 -0.99,0.45 -2.05,0.72 -3.04,0.67 0.68,0.99 1.47,1.89 2.36,2.69 0.29,0.10 0.63,0.10 1.05,0.01 0.65,-0.12 1.41,-0.50 2.11,-1.02 0,0 0,0 0,0 0.35,0.27 0.71,0.53 1.07,0.76 -0.82,0.67 -1.74,1.20 -2.68,1.44 0.79,0.53 1.63,0.99 2.53,1.37 0.34,0.03 0.69,-0.07 1.10,-0.26 0.52,-0.26 1.07,-0.69 1.56,-1.24 1.16,0.46 2.35,0.76 3.56,0.87 l 0.12,-1.26 c -0.96,-0.10 -1.93,-0.33 -2.88,-0.68 0.46,-0.75 0.79,-1.56 0.87,-2.27 0.08,-0.61 0,-1.09 -0.26,-1.45 -0.54,-0.11 -1.07,-0.27 -1.58,-0.48 -0.01,0.43 -0.11,0.88 -0.29,1.29 -0.26,0.61 -0.64,1.21 -1.11,1.74 -0.38,-0.22 -0.73,-0.46 -1.09,-0.72 0.45,-0.49 0.82,-1.01 1.02,-1.51 0.26,-0.63 0.29,-1.11 0.04,-1.54 -0.53,-0.34 -1.02,-0.73 -1.47,-1.17 -0.12,0.29 -0.29,0.57 -0.48,0.82 -0.38,0.49 -0.86,0.92 -1.40,1.28 -0.27,-0.31 -0.54,-0.64 -0.79,-0.99 0.48,-0.31 0.90,-0.68 1.18,-1.05 0.34,-0.45 0.49,-0.84 0.43,-1.22 -0.34,-0.45 -0.64,-0.92 -0.91,-1.43 -0.16,0.18 -0.34,0.35 -0.52,0.49 -0.46,0.35 -1.01,0.63 -1.59,0.82 -0.18,-0.38 -0.34,-0.77 -0.48,-1.18 0.50,-0.16 0.95,-0.38 1.29,-0.64 0.38,-0.29 0.60,-0.57 0.64,-0.90 -0.20,-0.53 -0.37,-1.10 -0.50,-1.69 -0.12,0.08 -0.26,0.14 -0.38,0.19 -0.52,0.20 -1.07,0.30 -1.64,0.33 -0.05,-0.42 -0.08,-0.84 -0.08,-1.26 0.48,-0.03 0.91,-0.10 1.25,-0.24 0.31,-0.11 0.52,-0.24 0.64,-0.41 -0.07,-0.67 -0.10,-1.33 -0.05,-2.02 -0.04,0.01 -0.08,0.01 -0.14,0.01 -0.45,0.05 -0.91,0.01 -1.39,-0.08 0.10,-0.41 0.22,-0.82 0.35,-1.22 0.33,0.05 0.64,0.08 0.90,0.05 0.18,-0.03 0.31,-0.05 0.41,-0.10 0.10,-0.61 0.23,-1.20 0.41,-1.77 -0.29,-0.05 -0.57,-0.14 -0.83,-0.26 0.19,-0.37 0.39,-0.75 0.63,-1.11 0.16,0.07 0.31,0.11 0.45,0.14 0.08,0.01 0.14,0.01 0.19,0.01 0.12,-0.31 0.27,-0.61 0.43,-0.91 0.39,-0.80 0.83,-1.64 1.14,-2.57 z m 16.54,0 c 0.31,0.92 0.75,1.77 1.16,2.57 0.15,0.30 0.30,0.60 0.42,0.92 0.05,0 0.11,-0.01 0.19,-0.01 0.14,-0.03 0.29,-0.07 0.45,-0.14 0.23,0.37 0.43,0.75 0.64,1.11 -0.27,0.12 -0.54,0.22 -0.83,0.26 0.18,0.57 0.31,1.16 0.41,1.18 0.10,0.04 0.23,0.08 0.41,0.10 0.26,0.03 0.57,0.01 0.90,-0.05 0.14,0.41 0.24,0.82 0.34,1.22 -0.46,0.10 -0.94,0.14 -1.37,0.10 -0.04,0 -0.10,-0.01 -0.14,-0.01 0.04,0.68 0.01,1.36 -0.05,2.02 0.12,0.16 0.33,0.30 0.64,0.42 0.34,0.14 0.77,0.22 1.25,0.23 0,0.42 -0.03,0.86 -0.07,1.26 -0.57,-0.03 -1.14,-0.12 -1.64,-0.33 -0.14,-0.05 -0.27,-0.12 -0.39,-0.19 -0.12,0.58 -0.30,1.14 -0.50,1.69 0.05,0.33 0.26,0.60 0.64,0.90 0.33,0.26 0.79,0.48 1.29,0.64 -0.14,0.41 -0.30,0.80 -0.48,1.18 -0.58,-0.19 -1.13,-0.46 -1.58,-0.82 -0.19,-0.15 -0.37,-0.31 -0.52,-0.49 -0.27,0.50 -0.58,0.98 -0.91,1.43 -0.05,0.38 0.10,0.77 0.43,1.22 0.29,0.37 0.69,0.73 1.18,1.06 -0.24,0.34 -0.52,0.68 -0.80,0.99 -0.54,-0.37 -1.02,-0.79 -1.39,-1.28 -0.19,-0.26 -0.35,-0.53 -0.48,-0.82 -0.45,0.43 -0.95,0.83 -1.47,1.17 -0.24,0.42 -0.22,0.92 0.04,1.55 0.20,0.49 0.56,1.02 1.01,1.51 -0.34,0.26 -0.69,0.50 -1.06,0.72 -0.48,-0.53 -0.87,-1.13 -1.11,-1.74 -0.18,-0.41 -0.27,-0.86 -0.29,-1.29 -0.50,0.20 -1.03,0.37 -1.59,0.48 -0.26,0.35 -0.34,0.83 -0.26,1.45 0.10,0.69 0.41,1.51 0.88,2.27 -0.95,0.35 -1.92,0.58 -2.88,0.68 l 0.12,1.26 c 1.21,-0.11 2.41,-0.41 3.56,-0.87 0.49,0.54 1.05,0.98 1.56,1.24 0.41,0.20 0.77,0.30 1.10,0.26 0.90,-0.37 1.74,-0.83 2.53,-1.37 -0.94,-0.24 -1.86,-0.76 -2.68,-1.44 0.37,-0.23 0.73,-0.49 1.07,-0.76 0.69,0.52 1.45,0.88 2.11,1.02 0.41,0.08 0.75,0.08 1.03,-0.01 0.90,-0.80 1.69,-1.70 2.36,-2.69 -0.99,0.07 -2.07,-0.20 -3.06,-0.67 0.29,-0.33 0.54,-0.68 0.80,-1.03 0.76,0.31 1.56,0.48 2.20,0.43 0.43,-0.03 0.76,-0.12 0.99,-0.31 0.49,-0.95 0.87,-1.96 1.14,-3.00 -0.03,0.01 -0.04,0.01 -0.07,0.03 -0.84,0.29 -1.81,0.33 -2.75,0.18 0.18,-0.39 0.33,-0.80 0.46,-1.22 0.69,0.07 1.37,0.01 1.88,-0.16 0.39,-0.14 0.65,-0.30 0.82,-0.54 0.14,-1.01 0.16,-2.05 0.07,-3.11 0,0 0,0 -0.01,0 -0.61,0.39 -1.35,0.64 -2.12,0.76 0.04,-0.42 0.05,-0.86 0.05,-1.29 0.53,-0.11 1.03,-0.30 1.37,-0.38 0.23,-0.35 0.39,-0.50 0.48,-0.68 -0.19,-1.02 -0.50,-2.01 -0.90,-2.95 -0.37,0.38 -0.83,0.68 -1.33,0.90 -0.10,-0.41 -0.22,-0.82 -0.35,-1.24 0.33,-0.16 0.61,-0.37 0.79,-0.56 0.15,-0.16 0.23,-0.29 0.26,-0.39 -0.41,-0.73 -0.87,-1.41 -1.39,-2.07 -0.18,0.26 -0.39,0.49 -0.65,0.69 -0.19,-0.37 -0.39,-0.75 -0.64,-1.13 0.14,-0.14 0.27,-0.30 0.34,-0.42 0.04,-0.07 0.07,-0.11 0.08,-0.15 -0.15,-0.14 -0.30,-0.29 -0.45,-0.43 -1.14,-0.83 -2.07,-1.25 -3.25,-1.63 z"
			style="fill:#008000;stroke:#000000;stroke-width:0.3px"
		/>
		<g>
			<path
				d="m 716.92,615.89 h 3.07 v -9.77 q 0,-0.42 0.03,-0.89 l -2.55,2.19 q -0.13,0.11 -0.26,0.14 -0.13,0.02 -0.24,0 -0.11,-0.02 -0.21,-0.08 -0.09,-0.06 -0.14,-0.13 l -0.56,-0.77 4.27,-3.69 h 1.45 v 13.00 h 2.82 v 1.36 h -7.68 z"
				style="fill:#000000;stroke:#000000;stroke-width:0.3px"
			/>
			<path
				d="m 727.27,610.50 h 4.94 v 1.51 h -4.94 z"
				style="fill:#000000;stroke:#000000;stroke-width:0.3px"
			/>
			<path
				d="m 739.35,602.76 q 0.91,0 1.70,0.27 0.79,0.27 1.37,0.79 0.58,0.51 0.91,1.25 0.33,0.74 0.33,1.68 0,0.80 -0.24,1.49 -0.24,0.68 -0.65,1.30 -0.41,0.62 -0.95,1.21 -0.53,0.59 -1.13,1.19 l -3.78,3.86 q 0.40,-0.11 0.81,-0.17 0.41,-0.07 0.79,-0.07 h 4.80 q 0.29,0 0.46,0.17 0.17,0.17 0.17,0.44 v 1.08 h -9.56 v -0.61 q 0,-0.19 0.08,-0.39 0.08,-0.20 0.25,-0.37 l 4.59,-4.61 q 0.57,-0.58 1.04,-1.11 0.47,-0.54 0.80,-1.08 0.33,-0.54 0.51,-1.09 0.18,-0.56 0.18,-1.19 0,-0.63 -0.20,-1.10 -0.20,-0.48 -0.55,-0.79 -0.34,-0.31 -0.81,-0.46 -0.47,-0.16 -1.01,-0.16 -0.55,0 -1.01,0.16 -0.46,0.16 -0.82,0.45 -0.35,0.28 -0.59,0.67 -0.24,0.39 -0.34,0.86 -0.12,0.35 -0.33,0.47 -0.20,0.11 -0.57,0.06 l -0.93,-0.16 q 0.14,-0.98 0.54,-1.73 0.41,-0.76 1.02,-1.27 0.62,-0.51 1.41,-0.77 0.79,-0.27 1.71,-0.27 z"
				style="fill:#000000;stroke:#000000;stroke-width:0.3px"
			/>
		</g>
		<g>
			<path
				d="m 760.52,602.67 q 0.91,0 1.68,0.26 0.77,0.26 1.32,0.74 0.56,0.48 0.87,1.16 0.31,0.68 0.31,1.51 0,0.68 -0.18,1.22 -0.17,0.53 -0.50,0.94 -0.32,0.40 -0.78,0.68 -0.46,0.28 -1.03,0.45 1.40,0.37 2.10,1.24 0.71,0.87 0.71,2.18 0,0.99 -0.38,1.78 -0.37,0.79 -1.02,1.35 -0.65,0.55 -1.52,0.85 -0.86,0.29 -1.85,0.29 -1.14,0 -1.95,-0.28 -0.81,-0.29 -1.37,-0.79 -0.56,-0.50 -0.92,-1.18 -0.36,-0.69 -0.61,-1.49 l 0.77,-0.32 q 0.30,-0.13 0.58,-0.07 0.29,0.06 0.42,0.33 0.13,0.28 0.32,0.67 0.20,0.39 0.54,0.75 0.34,0.36 0.86,0.61 0.53,0.25 1.34,0.25 0.75,0 1.31,-0.24 0.57,-0.25 0.94,-0.64 0.38,-0.39 0.57,-0.87 0.19,-0.48 0.19,-0.95 0,-0.58 -0.15,-1.06 -0.15,-0.48 -0.56,-0.83 -0.41,-0.35 -1.13,-0.55 -0.71,-0.20 -1.83,-0.20 v -1.29 q 0.92,-0.01 1.56,-0.20 0.65,-0.19 1.05,-0.52 0.41,-0.33 0.59,-0.79 0.19,-0.46 0.19,-1.02 0,-0.62 -0.20,-1.08 -0.19,-0.46 -0.53,-0.76 -0.34,-0.30 -0.81,-0.45 -0.46,-0.15 -1.00,-0.15 -0.54,0 -1.01,0.16 -0.46,0.16 -0.82,0.45 -0.35,0.28 -0.59,0.67 -0.24,0.39 -0.34,0.86 -0.13,0.35 -0.33,0.47 -0.19,0.11 -0.56,0.06 l -0.93,-0.16 q 0.14,-0.98 0.54,-1.73 0.40,-0.76 1.01,-1.27 0.62,-0.51 1.41,-0.77 0.80,-0.27 1.72,-0.27 z"
				style="fill:#000000;stroke:#000000;stroke-width:0.3px"
			/>
			<path
				d="m 767.39,610.41 h 4.94 v 1.51 h -4.94 z"
				style="fill:#000000;stroke:#000000;stroke-width:0.3px"
			/>
			<path
				d="m 782.43,611.99 h 2.17 v 1.02 q 0,0.16 -0.10,0.27 -0.09,0.11 -0.29,0.11 h -1.78 v 3.77 h -1.56 v -3.77 h -6.36 q -0.20,0 -0.35,-0.11 -0.14,-0.12 -0.18,-0.29 l -0.18,-0.91 6.97,-9.25 h 1.66 z m -1.56,-5.91 q 0,-0.26 0.01,-0.56 0.02,-0.31 0.07,-0.63 l -5.22,7.1 h 5.14 z"
				style="fill:#000000;stroke:#000000;stroke-width:0.3px"
			/>
		</g>
		<path
			d="m 814.13,603.54 q 0,0.38 -0.24,0.63 -0.23,0.24 -0.80,0.24 h -4.50 l -0.66,3.76 q 0.57,-0.13 1.07,-0.18 0.51,-0.06 0.99,-0.06 1.12,0 1.98,0.33 0.86,0.33 1.43,0.91 0.58,0.58 0.87,1.37 0.30,0.79 0.30,1.72 0,1.14 -0.40,2.06 -0.39,0.92 -1.09,1.58 -0.69,0.65 -1.63,1.00 -0.94,0.35 -2.03,0.35 -0.63,0 -1.21,-0.13 -0.58,-0.12 -1.09,-0.33 -0.50,-0.21 -0.93,-0.48 -0.43,-0.27 -0.76,-0.57 l 0.55,-0.76 q 0.18,-0.26 0.47,-0.26 0.20,0 0.45,0.16 0.25,0.15 0.61,0.34 0.36,0.19 0.84,0.35 0.49,0.15 1.16,0.15 0.75,0 1.35,-0.24 0.60,-0.24 1.03,-0.68 0.43,-0.45 0.66,-1.07 0.23,-0.62 0.23,-1.39 0,-0.67 -0.20,-1.21 -0.19,-0.54 -0.59,-0.92 -0.39,-0.38 -0.98,-0.59 -0.59,-0.21 -1.38,-0.21 -0.54,0 -1.13,0.09 -0.58,0.09 -1.19,0.29 l -1.12,-0.33 1.15,-6.70 h 6.79 z"
			style="fill:#000000;stroke:#000000;stroke-width:0.3px"
		/>
		<path
			d="m 848.84,608.13 q -0.20,0.24 -0.37,0.47 -0.17,0.23 -0.34,0.45 0.51,-0.35 1.12,-0.54 0.62,-0.20 1.34,-0.20 0.87,0 1.64,0.29 0.77,0.28 1.34,0.83 0.58,0.54 0.92,1.34 0.34,0.79 0.34,1.81 0,0.99 -0.36,1.84 -0.36,0.85 -1.01,1.48 -0.64,0.63 -1.55,0.99 -0.90,0.36 -1.99,0.36 -1.08,0 -1.96,-0.34 -0.88,-0.35 -1.50,-0.98 -0.61,-0.64 -0.95,-1.54 -0.33,-0.91 -0.33,-2.03 0,-0.94 0.41,-2.00 0.42,-1.07 1.33,-2.28 l 3.64,-4.89 q 0.14,-0.18 0.38,-0.30 0.25,-0.13 0.57,-0.13 h 1.58 z m -1.95,4.54 q 0,0.69 0.20,1.26 0.20,0.57 0.58,0.98 0.39,0.41 0.94,0.64 0.56,0.22 1.27,0.22 0.72,0 1.30,-0.23 0.59,-0.23 1,-0.64 0.42,-0.41 0.64,-0.97 0.23,-0.56 0.23,-1.22 0,-0.70 -0.22,-1.26 -0.22,-0.57 -0.63,-0.96 -0.40,-0.40 -0.96,-0.61 -0.56,-0.21 -1.23,-0.21 -0.72,0 -1.3,0.25 -0.58,0.24 -0.99,0.66 -0.40,0.41 -0.62,0.96 -0.21,0.54 -0.21,1.13 z"
			style="fill:#000000;stroke:#000000;stroke-width:0.3px"
		/>
		<path
			d="m 894.86,602.83 v 0.80 q 0,0.34 -0.08,0.56 -0.07,0.22 -0.14,0.37 l -5.94,11.97 q -0.13,0.26 -0.36,0.45 -0.23,0.18 -0.61,0.18 h -1.28 l 6.02,-11.82 q 0.13,-0.25 0.26,-0.46 0.14,-0.21 0.31,-0.40 h -7.48 q -0.17,0 -0.30,-0.13 -0.13,-0.14 -0.13,-0.31 v -1.21 z"
			style="fill:#000000;stroke:#000000;stroke-width:0.3px"
		/>
		<path
			d="m 930.00,617.32 q -1.07,0 -1.96,-0.28 -0.89,-0.29 -1.53,-0.82 -0.64,-0.53 -0.99,-1.28 -0.35,-0.76 -0.35,-1.7 0,-1.38 0.72,-2.27 0.72,-0.9 2.06,-1.28 -1.13,-0.42 -1.71,-1.25 -0.57,-0.84 -0.57,-2 0,-0.79 0.31,-1.48 0.31,-0.69 0.88,-1.2 0.57,-0.51 1.36,-0.8 0.8,-0.29 1.78,-0.29 0.97,0 1.77,0.29 0.8,0.29 1.37,0.8 0.57,0.51 0.88,1.2 0.31,0.69 0.31,1.48 0,1.16 -0.58,2 -0.58,0.83 -1.7,1.25 1.34,0.38 2.06,1.28 0.72,0.89 0.72,2.27 0,0.94 -0.36,1.7 -0.35,0.75 -0.99,1.28 -0.63,0.53 -1.52,0.82 -0.89,0.28 -1.96,0.28 z m 0,-1.42 q 0.7,0 1.25,-0.19 0.56,-0.2 0.94,-0.55 0.39,-0.36 0.59,-0.85 0.21,-0.5 0.21,-1.1 0,-0.74 -0.25,-1.26 -0.24,-0.53 -0.66,-0.86 -0.41,-0.33 -0.95,-0.48 -0.54,-0.16 -1.13,-0.16 -0.59,0 -1.13,0.16 -0.54,0.15 -0.96,0.48 -0.41,0.33 -0.66,0.86 -0.24,0.52 -0.24,1.26 0,0.6 0.2,1.1 0.21,0.49 0.59,0.85 0.39,0.35 0.94,0.55 0.56,0.19 1.26,0.19 z m 0,-6.88 q 0.7,0 1.19,-0.21 0.5,-0.22 0.81,-0.57 0.31,-0.36 0.45,-0.82 0.14,-0.46 0.14,-0.95 0,-0.5 -0.17,-0.94 -0.16,-0.44 -0.49,-0.77 -0.32,-0.33 -0.81,-0.52 -0.48,-0.19 -1.12,-0.19 -0.64,0 -1.13,0.19 -0.48,0.19 -0.81,0.52 -0.32,0.33 -0.49,0.77 -0.16,0.44 -0.16,0.94 0,0.49 0.14,0.95 0.14,0.46 0.45,0.82 0.31,0.35 0.8,0.57 0.5,0.21 1.2,0.21 z"
			style="fill:#000000;stroke:#000000;stroke-width:0.3px"
		/>
		<path
			d="m 735.20,650.01 q 0,1.88 -0.41,3.26 -0.40,1.37 -1.10,2.27 -0.70,0.90 -1.66,1.34 -0.95,0.44 -2.04,0.44 -1.10,0 -2.05,-0.44 -0.94,-0.44 -1.64,-1.34 -0.70,-0.90 -1.10,-2.27 -0.40,-1.38 -0.40,-3.26 0,-1.88 0.40,-3.26 0.40,-1.38 1.10,-2.28 0.70,-0.91 1.64,-1.35 0.95,-0.44 2.05,-0.44 1.09,0 2.04,0.44 0.96,0.44 1.66,1.35 0.70,0.90 1.10,2.28 0.41,1.38 0.41,3.26 z m -1.85,0 q 0,-1.64 -0.28,-2.75 -0.27,-1.12 -0.74,-1.80 -0.46,-0.68 -1.07,-0.97 -0.61,-0.30 -1.27,-0.30 -0.66,0 -1.27,0.30 -0.61,0.29 -1.07,0.97 -0.46,0.68 -0.74,1.80 -0.27,1.11 -0.27,2.75 0,1.64 0.27,2.75 0.28,1.11 0.74,1.79 0.46,0.68 1.07,0.98 0.61,0.29 1.27,0.29 0.66,0 1.27,-0.29 0.61,-0.30 1.07,-0.98 0.47,-0.68 0.74,-1.79 0.28,-1.11 0.28,-2.75 z"
			style="fill:#000000;stroke:#000000;stroke-width:0.3px"
		/>
		<path
			d="m 766.59,655.82 h 3.07 v -9.77 q 0,-0.42 0.03,-0.89 l -2.55,2.19 q -0.13,0.11 -0.26,0.14 -0.13,0.02 -0.24,0 -0.11,-0.02 -0.21,-0.08 -0.09,-0.06 -0.14,-0.13 l -0.56,-0.77 4.27,-3.69 h 1.45 v 13.00 h 2.82 v 1.36 h -7.68 z"
			style="fill:#000000;stroke:#000000;stroke-width:0.3px"
		/>
		<path
			d="m 810.31,642.67 q 0.91,0 1.68,0.26 0.77,0.26 1.32,0.74 0.56,0.48 0.87,1.16 0.31,0.68 0.31,1.51 0,0.68 -0.18,1.22 -0.17,0.53 -0.50,0.94 -0.32,0.40 -0.78,0.68 -0.46,0.28 -1.03,0.45 1.40,0.37 2.10,1.24 0.71,0.87 0.71,2.18 0,0.99 -0.38,1.78 -0.37,0.79 -1.02,1.35 -0.65,0.55 -1.52,0.85 -0.86,0.29 -1.85,0.29 -1.14,0 -1.95,-0.28 -0.81,-0.29 -1.37,-0.79 -0.56,-0.50 -0.92,-1.18 -0.36,-0.69 -0.61,-1.49 l 0.77,-0.32 q 0.30,-0.13 0.58,-0.07 0.29,0.06 0.42,0.33 0.13,0.28 0.32,0.67 0.20,0.39 0.54,0.75 0.34,0.36 0.86,0.61 0.53,0.25 1.34,0.25 0.75,0 1.31,-0.24 0.57,-0.25 0.94,-0.64 0.38,-0.39 0.57,-0.87 0.19,-0.48 0.19,-0.95 0,-0.58 -0.15,-1.06 -0.15,-0.48 -0.56,-0.83 -0.41,-0.35 -1.13,-0.55 -0.71,-0.20 -1.83,-0.20 v -1.29 q 0.92,-0.01 1.56,-0.20 0.65,-0.19 1.05,-0.52 0.41,-0.33 0.59,-0.79 0.19,-0.46 0.19,-1.02 0,-0.62 -0.20,-1.08 -0.19,-0.46 -0.53,-0.76 -0.34,-0.30 -0.81,-0.45 -0.46,-0.15 -1.00,-0.15 -0.54,0 -1.01,0.16 -0.46,0.16 -0.82,0.45 -0.35,0.28 -0.59,0.67 -0.24,0.39 -0.34,0.86 -0.13,0.35 -0.33,0.47 -0.19,0.11 -0.56,0.06 l -0.93,-0.16 q 0.14,-0.98 0.54,-1.73 0.40,-0.76 1.01,-1.27 0.62,-0.51 1.41,-0.77 0.80,-0.27 1.72,-0.27 z"
			style="fill:#000000;stroke:#000000;stroke-width:0.3px"
		/>
		<path
			d="m 854.13,643.54 q 0,0.38 -0.24,0.63 -0.23,0.24 -0.80,0.24 h -4.50 l -0.66,3.76 q 0.57,-0.13 1.07,-0.18 0.51,-0.06 0.99,-0.06 1.12,0 1.98,0.33 0.86,0.33 1.43,0.91 0.58,0.58 0.87,1.37 0.3,0.79 0.3,1.72 0,1.14 -0.4,2.06 -0.39,0.92 -1.09,1.58 -0.69,0.65 -1.63,1 -0.94,0.35 -2.03,0.35 -0.63,0 -1.21,-0.13 -0.58,-0.12 -1.09,-0.33 -0.5,-0.21 -0.93,-0.48 -0.43,-0.27 -0.76,-0.57 l 0.55,-0.76 q 0.18,-0.26 0.47,-0.26 0.2,0 0.45,0.16 0.25,0.15 0.61,0.34 0.36,0.19 0.84,0.35 0.49,0.15 1.16,0.15 0.75,0 1.35,-0.24 0.6,-0.24 1.03,-0.68 0.43,-0.45 0.66,-1.07 0.23,-0.62 0.23,-1.39 0,-0.67 -0.2,-1.21 -0.19,-0.54 -0.59,-0.92 -0.39,-0.38 -0.98,-0.59 -0.59,-0.21 -1.38,-0.21 -0.54,0 -1.13,0.09 -0.58,0.09 -1.19,0.29 l -1.12,-0.33 1.15,-6.7 h 6.79 z"
			style="fill:#000000;stroke:#000000;stroke-width:0.3px"
		/>
		<path
			d="m 894.86,642.83 v 0.8 q 0,0.34 -0.08,0.56 -0.07,0.22 -0.14,0.37 l -5.94,11.97 q -0.13,0.26 -0.36,0.45 -0.23,0.18 -0.61,0.18 h -1.28 l 6.02,-11.82 q 0.13,-0.25 0.26,-0.46 0.14,-0.21 0.31,-0.4 h -7.48 q -0.17,0 -0.3,-0.13 -0.13,-0.14 -0.13,-0.31 v -1.21 z"
			style="fill:#000000;stroke:#000000;stroke-width:0.3px"
		/>
		<g>
			<path
				d="m 920.38,655.81 h 3.07 v -9.77 q 0,-0.42 0.03,-0.89 l -2.55,2.19 q -0.13,0.11 -0.26,0.14 -0.13,0.02 -0.24,0 -0.11,-0.02 -0.21,-0.08 -0.09,-0.06 -0.14,-0.13 l -0.56,-0.77 4.27,-3.69 h 1.45 v 13 h 2.82 v 1.36 h -7.68 z"
				style="fill:#000000;stroke:#000000;stroke-width:0.3px"
			/>
			<path
				d="m 940.48,650.01 q 0,1.88 -0.41,3.26 -0.4,1.37 -1.1,2.27 -0.7,0.9 -1.66,1.34 -0.95,0.44 -2.04,0.44 -1.1,0 -2.05,-0.44 -0.94,-0.44 -1.64,-1.34 -0.7,-0.9 -1.1,-2.27 -0.4,-1.38 -0.4,-3.26 0,-1.88 0.4,-3.26 0.4,-1.38 1.1,-2.28 0.7,-0.91 1.64,-1.35 0.95,-0.44 2.05,-0.44 1.09,0 2.04,0.44 0.96,0.44 1.66,1.35 0.7,0.9 1.1,2.28 0.41,1.38 0.41,3.26 z m -1.85,0 q 0,-1.64 -0.28,-2.75 -0.27,-1.12 -0.74,-1.8 -0.46,-0.68 -1.07,-0.97 -0.61,-0.3 -1.27,-0.3 -0.66,0 -1.27,0.3 -0.61,0.29 -1.07,0.97 -0.46,0.68 -0.74,1.8 -0.27,1.11 -0.27,2.75 0,1.64 0.27,2.75 0.28,1.11 0.74,1.79 0.46,0.68 1.07,0.98 0.61,0.29 1.27,0.29 0.66,0 1.27,-0.29 0.61,-0.3 1.07,-0.98 0.47,-0.68 0.74,-1.79 0.28,-1.11 0.28,-2.75 z"
				style="fill:#000000;stroke:#000000;stroke-width:0.3px"
			/>
		</g>
	</g>
</svg>
