<svg xmlns="http://www.w3.org/2000/svg" width="960" height="680" viewbox="0 0 960 680">
	<rect x="0" y="0" width="960" height="680" style="fill:#bcd4e6;stroke:#000000;stoke-width:2px"/>
	<polygon style="fill:#d0f0c0;stroke:#000000;stroke-width:2px" points="430.00,203.14 382.00,286.28 286.00,286.28 238.00,203.14 286.00,120.00 382.00,120.00"/>
	<polygon style="fill:#d0f0c0;stroke:#000000;stroke-width:2px" points="430.00,369.42 382.00,452.55 286.00,452.55 238.00,369.42 286.00,286.28 382.00,286.28"/>
	<polygon style="fill:#d0f0c0;stroke:#000000;stroke-width:2px" points="430.00,535.69 382.00,618.83 286.00,618.83 238.00,535.69 286.00,452.55 382.00,452.55"/>
	<polygon style="fill:#d0f0c0;stroke:#000000;stroke-width:2px" points="574.00,120.00 526.00,203.14 430.00,203.14 382.00,120.00 430.00,36.86 526.00,36.86"/>
	<polygon style="fill:#d0f0c0;stroke:#000000;stroke-width:2px" points="574.00,286.28 526.00,369.42 430.00,369.42 382.00,286.28 430.00,203.14 526.00,203.14"/>
	<polygon style="fill:#d0f0c0;stroke:#000000;stroke-width:2px" points="574.00,452.55 526.00,535.69 430.00,535.69 382.00,452.55 430.00,369.42 526.00,369.42"/>
	<polygon style="fill:#d0f0c0;stroke:#000000;stroke-width:2px" points="718.00,203.14 670.00,286.28 574.00,286.28 526.00,203.14 574.00,120.00 670.00,120.00"/>
	<polygon style="fill:#d0f0c0;stroke:#000000;stroke-width:2px" points="718.00,369.42 670.00,452.55 574.00,452.55 526.00,369.42 574.00,286.28 670.00,286.28"/>
	<line x1="497" y1="61" x2="530" y2="90" style="stroke:#708090;stroke-width:6px"/>
	<line x1="530" y1="90" x2="540" y2="135" style="stroke:#708090;stroke-width:6px"/>
	<line x1="540" y1="135" x2="515" y2="180" style="stroke:#708090;stroke-width:6px"/>
	<line x1="426" y1="87" x2="415" y2="130" style="stroke:#708090;stroke-width:6px"/>
	<line x1="515" y1="180" x2="560" y2="197" style="stroke:#708090;stroke-width:6px"/>
	<line x1="605" y1="140" x2="645" y2="150" style="stroke:#708090;stroke-width:6px"/>
	<line x1="682" y1="194" x2="660" y2="240" style="stroke:#708090;stroke-width:6px"/>
	<line x1="415" y1="130" x2="300" y2="147" style="stroke:#708090;stroke-width:6px"/>
	<line x1="300" y1="147" x2="305" y2="247" style="stroke:#708090;stroke-width:6px"/>
	<line x1="440" y1="175" x2="390" y2="195" style="stroke:#708090;stroke-width:6px"/>
	<line x1="438" y1="236" x2="483" y2="230" style="stroke:#708090;stroke-width:6px"/>
	<line x1="483" y1="230" x2="525" y2="257" style="stroke:#708090;stroke-width:6px"/>
	<line x1="525" y1="257" x2="509" y2="330" style="stroke:#708090;stroke-width:6px"/>
	<line x1="509" y1="330" x2="457" y2="332" style="stroke:#708090;stroke-width:6px"/>
	<line x1="457" y1="332" x2="417" y2="290" style="stroke:#708090;stroke-width:6px"/>
	<line x1="417" y1="290" x2="438" y2="236" style="stroke:#708090;stroke-width:6px"/>
	<line x1="305" y1="247" x2="325" y2="306" style="stroke:#708090;stroke-width:6px"/>
	<line x1="325" y1="306" x2="370" y2="308" style="stroke:#708090;stroke-width:6px"/>
	<line x1="390" y1="348" x2="396" y2="390" style="stroke:#708090;stroke-width:6px"/>
	<line x1="396" y1="390" x2="373" y2="425" style="stroke:#708090;stroke-width:6px"/>
	<line x1="373" y1="425" x2="337" y2="428" style="stroke:#708090;stroke-width:6px"/>
	<line x1="463" y1="390" x2="513" y2="392" style="stroke:#708090;stroke-width:6px"/>
	<line x1="513" y1="392" x2="575" y2="380" style="stroke:#708090;stroke-width:6px"/>
	<line x1="553" y1="452" x2="608" y2="416" style="stroke:#708090;stroke-width:6px"/>
	<line x1="514" y1="449" x2="553" y2="452" style="stroke:#708090;stroke-width:6px"/>
	<line x1="514" y1="449" x2="528" y2="488" style="stroke:#708090;stroke-width:6px"/>
	<line x1="553" y1="452" x2="528" y2="488" style="stroke:#708090;stroke-width:6px"/>
	<line x1="528" y1="488" x2="500" y2="514" style="stroke:#708090;stroke-width:6px"/>
	<line x1="500" y1="514" x2="457" y2="515" style="stroke:#708090;stroke-width:6px"/>
	<line x1="457" y1="515" x2="433" y2="490" style="stroke:#708090;stroke-width:6px"/>
	<line x1="433" y1="490" x2="412" y2="454" style="stroke:#708090;stroke-width:6px"/>
	<line x1="296" y1="482" x2="298" y2="427" style="stroke:#708090;stroke-width:6px"/>
	<line x1="333" y1="494" x2="367" y2="475" style="stroke:#708090;stroke-width:6px"/>
	<line x1="386" y1="508" x2="392" y2="546" style="stroke:#708090;stroke-width:6px"/>
	<line x1="392" y1="546" x2="381" y2="579" style="stroke:#708090;stroke-width:6px"/>
	<line x1="300" y1="588" x2="273" y2="553" style="stroke:#708090;stroke-width:6px"/>
	<circle cx="497" cy="61" r="12" style="fill:#ff2400;stroke:#000000;stroke-width:0.3px"/>
	<circle cx="530" cy="90" r="12" style="fill:#6495ed;stroke:#000000;stroke-width:0.3px"/>
	<circle cx="540" cy="135" r="12" style="fill:#ffff31;stroke:#000000;stroke-width:0.3px"/>
	<circle cx="515" cy="180" r="12" style="fill:#ff2400;stroke:#000000;stroke-width:0.3px"/>
	<circle cx="426" cy="87" r="12" style="fill:#ff2400;stroke:#000000;stroke-width:0.3px"/>
	<circle cx="415" cy="130" r="12" style="fill:#6495ed;stroke:#000000;stroke-width:0.3px"/>
	<circle cx="440" cy="175" r="12" style="fill:#ffff31;stroke:#000000;stroke-width:0.3px"/>
	<circle cx="605" cy="140" r="12" style="fill:#ffff31;stroke:#000000;stroke-width:0.3px"/>
	<circle cx="645" cy="150" r="12" style="fill:#6495ed;stroke:#000000;stroke-width:0.3px"/>
	<circle cx="682" cy="194" r="12" style="fill:#6495ed;stroke:#000000;stroke-width:0.3px"/>
	<circle cx="660" cy="240" r="12" style="fill:#ff2400;stroke:#000000;stroke-width:0.3px"/>
	<circle cx="560" cy="197" r="12" style="fill:#ff2400;stroke:#000000;stroke-width:0.3px"/>
	<circle cx="300" cy="147" r="12" style="fill:#ffff31;stroke:#000000;stroke-width:0.3px"/>
	<circle cx="390" cy="195" r="12" style="fill:#6495ed;stroke:#000000;stroke-width:0.3px"/>
	<circle cx="372" cy="238" r="12" style="fill:#6495ed;stroke:#000000;stroke-width:0.3px"/>
	<circle cx="305" cy="247" r="12" style="fill:#ff2400;stroke:#000000;stroke-width:0.3px"/>
	<circle cx="438" cy="236" r="12" style="fill:#ffff31;stroke:#000000;stroke-width:0.3px"/>
	<circle cx="483" cy="230" r="12" style="fill:#ff2400;stroke:#000000;stroke-width:0.3px"/>
	<circle cx="525" cy="257" r="12" style="fill:#6495ed;stroke:#000000;stroke-width:0.3px"/>
	<circle cx="509" cy="330" r="12" style="fill:#ffff31;stroke:#000000;stroke-width:0.3px"/>
	<circle cx="457" cy="332" r="12" style="fill:#ff2400;stroke:#000000;stroke-width:0.3px"/>
	<circle cx="417" cy="290" r="12" style="fill:#6495ed;stroke:#000000;stroke-width:0.3px"/>
	<circle cx="585" cy="320" r="12" style="fill:#ffff31;stroke:#000000;stroke-width:0.3px"/>
	<circle cx="575" cy="380" r="12" style="fill:#ff2400;stroke:#000000;stroke-width:0.3px"/>
	<circle cx="608" cy="416" r="12" style="fill:#6495ed;stroke:#000000;stroke-width:0.3px"/>
	<circle cx="325" cy="306" r="12" style="fill:#ff2400;stroke:#000000;stroke-width:0.3px"/>
	<circle cx="370" cy="308" r="12" style="fill:#ffff31;stroke:#000000;stroke-width:0.3px"/>
	<circle cx="390" cy="348" r="12" style="fill:#ffff31;stroke:#000000;stroke-width:0.3px"/>
	<circle cx="396" cy="390" r="12" style="fill:#6495ed;stroke:#000000;stroke-width:0.3px"/>
	<circle cx="373" cy="425" r="12" style="fill:#6495ed;stroke:#000000;stroke-width:0.3px"/>
	<circle cx="337" cy="428" r="12" style="fill:#ffff31;stroke:#000000;stroke-width:0.3px"/>
	<circle cx="298" cy="427" r="12" style="fill:#ff2400;stroke:#000000;stroke-width:0.3px"/>
	<circle cx="281" cy="385" r="12" style="fill:#ff2400;stroke:#000000;stroke-width:0.3px"/>
	<circle cx="281" cy="337" r="12" style="fill:#ff2400;stroke:#000000;stroke-width:0.3px"/>
	<circle cx="463" cy="390" r="12" style="fill:#ffff31;stroke:#000000;stroke-width:0.3px"/>
	<circle cx="513" cy="392" r="12" style="fill:#6495ed;stroke:#000000;stroke-width:0.3px"/>
	<circle cx="515" cy="449" r="12" style="fill:#ffff31;stroke:#000000;stroke-width:0.3px"/>
	<circle cx="553" cy="452" r="12" style="fill:#6495ed;stroke:#000000;stroke-width:0.3px"/>
	<circle cx="528" cy="488" r="12" style="fill:#ffff31;stroke:#000000;stroke-width:0.3px"/>
	<circle cx="500" cy="514" r="12" style="fill:#6495ed;stroke:#000000;stroke-width:0.3px"/>
	<circle cx="457" cy="515" r="12" style="fill:#ffff31;stroke:#000000;stroke-width:0.3px"/>
	<circle cx="433" cy="490" r="12" style="fill:#ff2400;stroke:#000000;stroke-width:0.3px"/>
	<circle cx="412" cy="454" r="12" style="fill:#6495ed;stroke:#000000;stroke-width:0.3px"/>
	<circle cx="296" cy="482" r="12" style="fill:#6495ed;stroke:#000000;stroke-width:0.3px"/>
	<circle cx="333" cy="494" r="12" style="fill:#ff2400;stroke:#000000;stroke-width:0.3px"/>
	<circle cx="367" cy="475" r="12" style="fill:#ffff31;stroke:#000000;stroke-width:0.3px"/>
	<circle cx="386" cy="508" r="12" style="fill:#ffff31;stroke:#000000;stroke-width:0.3px"/>
	<circle cx="392" cy="546" r="12" style="fill:#6495ed;stroke:#000000;stroke-width:0.3px"/>
	<circle cx="381" cy="579" r="12" style="fill:#ff2400;stroke:#000000;stroke-width:0.3px"/>
	<circle cx="343" cy="600" r="12" style="fill:#6495ed;stroke:#000000;stroke-width:0.3px"/>
	<circle cx="300" cy="588" r="12" style="fill:#ff2400;stroke:#000000;stroke-width:0.3px"/>
	<circle cx="273" cy="553" r="12" style="fill:#ff2400;stroke:#000000;stroke-width:0.3px"/>
	<circle cx="269" cy="517" r="12" style="fill:#ffff31;stroke:#000000;stroke-width:0.3px"/>
	<path style="stroke:#000000;stroke-width:0.1px" d="m 468.39,105.67 q 0.26,0 0.44,0.04 0.18,0.02 0.32,0.1 0.14,0.06 0.28,0.2 0.14,0.12 0.3,0.32 l 16.58,21.58 q -0.04,-0.52 -0.08,-1 -0.02,-0.5 -0.02,-0.94 v -20.3 h 3.4 v 28.66 h -1.94 q -0.46,0 -0.78,-0.16 -0.3,-0.16 -0.6,-0.54 l -16.58,-21.58 q 0.04,0.5 0.06,0.98 0.02,0.48 0.02,0.88 v 20.42 h -3.4 v -28.66 z" />
	<path style="stroke:#000000;stroke-width:0.1px" d="m 634.42,369.43 q 0,3.22 -1.02,5.86 -1.02,2.64 -2.88,4.52 -1.86,1.88 -4.48,2.92 -2.60,1.02 -5.76,1.02 h -10.70 v -28.66 h 10.70 q 3.16,0 5.76,1.04 2.62,1.02 4.48,2.92 1.86,1.88 2.88,4.52 1.02,2.64 1.02,5.86 z m -3.98,0 q 0,-2.64 -0.72,-4.72 -0.72,-2.08 -2.04,-3.52 -1.32,-1.44 -3.20,-2.20 -1.88,-0.76 -4.20,-0.76 h -6.82 v 22.38 h 6.82 q 2.32,0 4.20,-0.76 1.88,-0.76 3.20,-2.18 1.32,-1.44 2.04,-3.52 0.72,-2.08 0.72,-4.72 z" />
	<path style="stroke:#000000;stroke-width:0.1px" d="m 485.71,276.43 q -0.18,0.30 -0.40,0.46 -0.20,0.14 -0.50,0.14 -0.34,0 -0.80,-0.34 -0.46,-0.34 -1.16,-0.74 -0.68,-0.42 -1.66,-0.76 -0.96,-0.34 -2.34,-0.34 -1.30,0 -2.30,0.36 -0.98,0.34 -1.66,0.94 -0.66,0.60 -1.00,1.42 -0.34,0.80 -0.34,1.74 0,1.20 0.58,2.00 0.60,0.78 1.56,1.34 0.98,0.56 2.20,0.98 1.24,0.40 2.52,0.84 1.30,0.44 2.52,1.00 1.24,0.54 2.20,1.38 0.98,0.84 1.56,2.06 0.60,1.22 0.60,3.00 0,1.88 -0.64,3.54 -0.64,1.64 -1.88,2.86 -1.22,1.22 -3.02,1.92 -1.78,0.70 -4.06,0.70 -2.80,0 -5.08,-1.00 -2.28,-1.02 -3.90,-2.74 l 1.12,-1.84 q 0.16,-0.22 0.38,-0.36 0.24,-0.16 0.52,-0.16 0.26,0 0.58,0.22 0.34,0.20 0.76,0.52 0.42,0.32 0.96,0.70 0.54,0.38 1.22,0.70 0.70,0.32 1.58,0.54 0.88,0.20 1.98,0.20 1.38,0 2.46,-0.38 1.08,-0.38 1.82,-1.06 0.76,-0.7 1.16,-1.66 0.40,-0.96 0.40,-2.14 0,-1.30 -0.60,-2.12 -0.58,-0.84 -1.54,-1.40 -0.96,-0.56 -2.20,-0.94 -1.24,-0.40 -2.52,-0.80 -1.28,-0.42 -2.52,-0.96 -1.24,-0.54 -2.20,-1.40 -0.96,-0.86 -1.56,-2.14 -0.58,-1.30 -0.58,-3.20 0,-1.52 0.58,-2.94 0.60,-1.42 1.72,-2.52 1.14,-1.1 2.78,-1.76 1.66,-0.66 3.80,-0.66 2.40,0 4.36,0.76 1.98,0.76 3.48,2.20 z" />
	<path style="stroke:#000000;stroke-width:0.1px" d="m 323.90,217.47 v -28.66 h 9.14 q 2.64,0 4.54,0.52 1.92,0.52 3.14,1.48 1.24,0.96 1.82,2.36 0.58,1.38 0.58,3.12 0,1.06 -0.34,2.04 -0.32,0.98 -0.98,1.82 -0.66,0.84 -1.68,1.50 -1.00,0.66 -2.36,1.08 3.14,0.62 4.74,2.26 1.60,1.64 1.60,4.32 0,1.82 -0.68,3.32 -0.66,1.50 -1.96,2.58 -1.28,1.08 -3.16,1.68 -1.88,0.58 -4.28,0.58 z m 3.86,-13.06 v 9.98 h 6.20 q 1.66,0 2.86,-0.38 1.20,-0.38 1.96,-1.06 0.78,-0.70 1.14,-1.64 0.36,-0.96 0.36,-2.10 0,-2.22 -1.58,-3.50 -1.58,-1.30 -4.74,-1.30 z m 0,-2.76 h 5.12 q 1.64,0 2.84,-0.36 1.22,-0.36 2.00,-1.00 0.80,-0.64 1.18,-1.54 0.38,-0.92 0.38,-2.00 0,-2.54 -1.52,-3.70 -1.52,-1.18 -4.72,-1.18 h -5.28 z" />
	<path style="stroke:#000000;stroke-width:0.1px" d="m 343.89,377.83 q 0.32,0 0.56,0.26 l 1.54,1.66 q -1.76,2.04 -4.28,3.18 -2.50,1.14 -6.06,1.14 -3.08,0 -5.60,-1.06 -2.52,-1.08 -4.30,-3.00 -1.78,-1.94 -2.76,-4.64 -0.98,-2.70 -0.98,-5.94 0,-3.24 1.02,-5.94 1.02,-2.70 2.86,-4.64 1.86,-1.94 4.44,-3.00 2.58,-1.08 5.70,-1.08 3.06,0 5.40,0.98 2.34,0.98 4.12,2.66 l -1.28,1.78 q -0.12,0.20 -0.32,0.34 -0.18,0.12 -0.50,0.12 -0.36,0 -0.88,-0.38 -0.52,-0.40 -1.36,-0.88 -0.84,-0.48 -2.10,-0.86 -1.26,-0.40 -3.10,-0.40 -2.22,0 -4.06,0.78 -1.84,0.76 -3.18,2.22 -1.32,1.46 -2.06,3.56 -0.74,2.10 -0.74,4.74 0,2.68 0.76,4.78 0.78,2.10 2.10,3.56 1.34,1.44 3.14,2.20 1.82,0.76 3.92,0.76 1.28,0 2.30,-0.14 1.04,-0.16 1.90,-0.48 0.88,-0.32 1.62,-0.80 0.76,-0.50 1.50,-1.18 0.34,-0.30 0.68,-0.30 z" />
	<path style="stroke:#000000;stroke-width:0.1px" d="m 333.19,539.66 q 0.24,0.48 0.46,1.02 0.22,0.52 0.44,1.04 0.20,-0.54 0.42,-1.06 0.22,-0.54 0.48,-1.02 l 9.72,-17.62 q 0.24,-0.46 0.52,-0.56 0.30,-0.10 0.82,-0.10 h 2.86 v 28.66 h -3.40 v -21.06 q 0,-0.42 0.02,-0.90 0.02,-0.48 0.06,-0.98 l -9.82,17.92 q -0.46,0.90 -1.40,0.90 h -0.56 q -0.94,0 -1.40,-0.9 l -10.04,-17.98 q 0.06,0.52 0.08,1.02 0.04,0.50 0.04,0.92 v 21.06 h -3.40 v -28.66 h 2.86 q 0.52,0 0.80,0.10 0.28,0.10 0.54,0.56 z" />
	<path style="stroke:#000000;stroke-width:0.1px" d="m 622.01,214.22 q 1.78,0 3.18,-0.60 1.40,-0.60 2.36,-1.68 0.98,-1.08 1.48,-2.58 0.52,-1.50 0.52,-3.30 v -17.42 h 3.86 v 17.42 q 0,2.48 -0.80,4.60 -0.78,2.12 -2.26,3.68 -1.46,1.54 -3.58,2.42 -2.12,0.88 -4.76,0.88 -2.64,0 -4.76,-0.88 -2.12,-0.88 -3.60,-2.42 -1.48,-1.56 -2.28,-3.68 -0.78,-2.12 -0.78,-4.60 v -17.42 h 3.86 v 17.40 q 0,1.80 0.50,3.30 0.52,1.50 1.48,2.58 0.98,1.08 2.38,1.70 1.42,0.60 3.20,0.60 z" />
	<path style="stroke:#000000;stroke-width:0.1px" d="m 473.73,463.63 h 12.40 v 3.26 h -16.26 v -28.66 h 3.86 z" />
</svg>
