<svg xmlns="http://www.w3.org/2000/svg" width="960" height="680" viewbox="0 0 960 680">
	<rect x="0" y="0" width="960" height="680" style="fill:#bcd4e6;stroke:#000000;stoke-width:2px"/>
	<polygon style="fill:#d0f0c0;stroke:#000000;stroke-width:2px" points="430.00,203.14 382.00,286.28 286.00,286.28 238.00,203.14 286.00,120.00 382.00,120.00"/>
	<polygon style="fill:#d0f0c0;stroke:#000000;stroke-width:2px" points="430.00,369.42 382.00,452.55 286.00,452.55 238.00,369.42 286.00,286.28 382.00,286.28"/>
	<polygon style="fill:#d0f0c0;stroke:#000000;stroke-width:2px" points="430.00,535.69 382.00,618.83 286.00,618.83 238.00,535.69 286.00,452.55 382.00,452.55"/>
	<polygon style="fill:#d0f0c0;stroke:#000000;stroke-width:2px" points="574.00,120.00 526.00,203.14 430.00,203.14 382.00,120.00 430.00,36.86 526.00,36.86"/>
	<polygon style="fill:#d0f0c0;stroke:#000000;stroke-width:2px" points="574.00,286.28 526.00,369.42 430.00,369.42 382.00,286.28 430.00,203.14 526.00,203.14"/>
	<polygon style="fill:#d0f0c0;stroke:#000000;stroke-width:2px" points="574.00,452.55 526.00,535.69 430.00,535.69 382.00,452.55 430.00,369.42 526.00,369.42"/>
	<polygon style="fill:#d0f0c0;stroke:#000000;stroke-width:2px" points="718.00,203.14 670.00,286.28 574.00,286.28 526.00,203.14 574.00,120.00 670.00,120.00"/>
	<polygon style="fill:#d0f0c0;stroke:#000000;stroke-width:2px" points="718.00,369.42 670.00,452.55 574.00,452.55 526.00,369.42 574.00,286.28 670.00,286.28"/>
	<line x1="497" y1="61" x2="530" y2="90" style="stroke:#708090;stroke-width:6px"/>
	<line x1="530" y1="90" x2="540" y2="135" style="stroke:#708090;stroke-width:6px"/>
	<line x1="540" y1="135" x2="515" y2="180" style="stroke:#708090;stroke-width:6px"/>
	<line x1="426" y1="87" x2="415" y2="130" style="stroke:#708090;stroke-width:6px"/>
	<line x1="515" y1="180" x2="560" y2="197" style="stroke:#708090;stroke-width:6px"/>
	<line x1="605" y1="140" x2="645" y2="150" style="stroke:#708090;stroke-width:6px"/>
	<line x1="682" y1="194" x2="660" y2="240" style="stroke:#708090;stroke-width:6px"/>
	<line x1="415" y1="130" x2="300" y2="147" style="stroke:#708090;stroke-width:6px"/>
	<line x1="300" y1="147" x2="305" y2="247" style="stroke:#708090;stroke-width:6px"/>
	<line x1="440" y1="175" x2="390" y2="195" style="stroke:#708090;stroke-width:6px"/>
	<line x1="438" y1="236" x2="483" y2="230" style="stroke:#708090;stroke-width:6px"/>
	<line x1="483" y1="230" x2="525" y2="257" style="stroke:#708090;stroke-width:6px"/>
	<line x1="525" y1="257" x2="509" y2="330" style="stroke:#708090;stroke-width:6px"/>
	<line x1="509" y1="330" x2="457" y2="332" style="stroke:#708090;stroke-width:6px"/>
	<line x1="457" y1="332" x2="417" y2="290" style="stroke:#708090;stroke-width:6px"/>
	<line x1="417" y1="290" x2="438" y2="236" style="stroke:#708090;stroke-width:6px"/>
	<line x1="305" y1="247" x2="325" y2="306" style="stroke:#708090;stroke-width:6px"/>
	<line x1="325" y1="306" x2="370" y2="308" style="stroke:#708090;stroke-width:6px"/>
	<line x1="390" y1="348" x2="396" y2="390" style="stroke:#708090;stroke-width:6px"/>
	<line x1="396" y1="390" x2="373" y2="425" style="stroke:#708090;stroke-width:6px"/>
	<line x1="373" y1="425" x2="337" y2="428" style="stroke:#708090;stroke-width:6px"/>
	<line x1="463" y1="390" x2="513" y2="392" style="stroke:#708090;stroke-width:6px"/>
	<line x1="513" y1="392" x2="575" y2="380" style="stroke:#708090;stroke-width:6px"/>
	<line x1="553" y1="452" x2="608" y2="416" style="stroke:#708090;stroke-width:6px"/>
	<line x1="514" y1="449" x2="553" y2="452" style="stroke:#708090;stroke-width:6px"/>
	<line x1="514" y1="449" x2="528" y2="488" style="stroke:#708090;stroke-width:6px"/>
	<line x1="553" y1="452" x2="528" y2="488" style="stroke:#708090;stroke-width:6px"/>
	<line x1="528" y1="488" x2="500" y2="514" style="stroke:#708090;stroke-width:6px"/>
	<line x1="500" y1="514" x2="457" y2="515" style="stroke:#708090;stroke-width:6px"/>
	<line x1="457" y1="515" x2="433" y2="490" style="stroke:#708090;stroke-width:6px"/>
	<line x1="433" y1="490" x2="412" y2="454" style="stroke:#708090;stroke-width:6px"/>
	<line x1="296" y1="482" x2="298" y2="427" style="stroke:#708090;stroke-width:6px"/>
	<line x1="333" y1="494" x2="367" y2="475" style="stroke:#708090;stroke-width:6px"/>
	<line x1="386" y1="508" x2="392" y2="546" style="stroke:#708090;stroke-width:6px"/>
	<line x1="392" y1="546" x2="381" y2="579" style="stroke:#708090;stroke-width:6px"/>
	<line x1="300" y1="588" x2="273" y2="553" style="stroke:#708090;stroke-width:6px"/>
	<circle cx="497" cy="61" r="12" style="fill:#ff2400;stroke:#000000;stroke-width:0.3px"/>
	<circle cx="530" cy="90" r="12" style="fill:#6495ed;stroke:#000000;stroke-width:0.3px"/>
	<circle cx="540" cy="135" r="12" style="fill:#ffff31;stroke:#000000;stroke-width:0.3px"/>
	<circle cx="515" cy="180" r="12" style="fill:#ff2400;stroke:#000000;stroke-width:0.3px"/>
	<circle cx="426" cy="87" r="12" style="fill:#ff2400;stroke:#000000;stroke-width:0.3px"/>
	<circle cx="415" cy="130" r="12" style="fill:#6495ed;stroke:#000000;stroke-width:0.3px"/>
	<circle cx="440" cy="175" r="12" style="fill:#ffff31;stroke:#000000;stroke-width:0.3px"/>
	<circle cx="605" cy="140" r="12" style="fill:#ffff31;stroke:#000000;stroke-width:0.3px"/>
	<circle cx="645" cy="150" r="12" style="fill:#6495ed;stroke:#000000;stroke-width:0.3px"/>
	<circle cx="682" cy="194" r="12" style="fill:#6495ed;stroke:#000000;stroke-width:0.3px"/>
	<circle cx="660" cy="240" r="12" style="fill:#ff2400;stroke:#000000;stroke-width:0.3px"/>
	<circle cx="560" cy="197" r="12" style="fill:#ff2400;stroke:#000000;stroke-width:0.3px"/>
	<circle cx="300" cy="147" r="12" style="fill:#ffff31;stroke:#000000;stroke-width:0.3px"/>
	<circle cx="390" cy="195" r="12" style="fill:#6495ed;stroke:#000000;stroke-width:0.3px"/>
	<circle cx="372" cy="238" r="12" style="fill:#6495ed;stroke:#000000;stroke-width:0.3px"/>
	<circle cx="305" cy="247" r="12" style="fill:#ff2400;stroke:#000000;stroke-width:0.3px"/>
	<circle cx="438" cy="236" r="12" style="fill:#ffff31;stroke:#000000;stroke-width:0.3px"/>
	<circle cx="483" cy="230" r="12" style="fill:#ff2400;stroke:#000000;stroke-width:0.3px"/>
	<circle cx="525" cy="257" r="12" style="fill:#6495ed;stroke:#000000;stroke-width:0.3px"/>
	<circle cx="509" cy="330" r="12" style="fill:#ffff31;stroke:#000000;stroke-width:0.3px"/>
	<circle cx="457" cy="332" r="12" style="fill:#ff2400;stroke:#000000;stroke-width:0.3px"/>
	<circle cx="417" cy="290" r="12" style="fill:#6495ed;stroke:#000000;stroke-width:0.3px"/>
	<circle cx="585" cy="320" r="12" style="fill:#ffff31;stroke:#000000;stroke-width:0.3px"/>
	<circle cx="575" cy="380" r="12" style="fill:#ff2400;stroke:#000000;stroke-width:0.3px"/>
	<circle cx="608" cy="416" r="12" style="fill:#6495ed;stroke:#000000;stroke-width:0.3px"/>
	<circle cx="325" cy="306" r="12" style="fill:#ff2400;stroke:#000000;stroke-width:0.3px"/>
	<circle cx="370" cy="308" r="12" style="fill:#ffff31;stroke:#000000;stroke-width:0.3px"/>
	<circle cx="390" cy="348" r="12" style="fill:#ffff31;stroke:#000000;stroke-width:0.3px"/>
	<circle cx="396" cy="390" r="12" style="fill:#6495ed;stroke:#000000;stroke-width:0.3px"/>
	<circle cx="373" cy="425" r="12" style="fill:#6495ed;stroke:#000000;stroke-width:0.3px"/>
	<circle cx="337" cy="428" r="12" style="fill:#ffff31;stroke:#000000;stroke-width:0.3px"/>
	<circle cx="298" cy="427" r="12" style="fill:#ff2400;stroke:#000000;stroke-width:0.3px"/>
	<circle cx="281" cy="385" r="12" style="fill:#ff2400;stroke:#000000;stroke-width:0.3px"/>
	<circle cx="281" cy="337" r="12" style="fill:#ff2400;stroke:#000000;stroke-width:0.3px"/>
	<circle cx="463" cy="390" r="12" style="fill:#ffff31;stroke:#000000;stroke-width:0.3px"/>
	<circle cx="513" cy="392" r="12" style="fill:#6495ed;stroke:#000000;stroke-width:0.3px"/>
	<circle cx="515" cy="449" r="12" style="fill:#ffff31;stroke:#000000;stroke-width:0.3px"/>
	<circle cx="553" cy="452" r="12" style="fill:#6495ed;stroke:#000000;stroke-width:0.3px"/>
	<circle cx="528" cy="488" r="12" style="fill:#ffff31;stroke:#000000;stroke-width:0.3px"/>
	<circle cx="500" cy="514" r="12" style="fill:#6495ed;stroke:#000000;stroke-width:0.3px"/>
	<circle cx="457" cy="515" r="12" style="fill:#ffff31;stroke:#000000;stroke-width:0.3px"/>
	<circle cx="433" cy="490" r="12" style="fill:#ff2400;stroke:#000000;stroke-width:0.3px"/>
	<circle cx="412" cy="454" r="12" style="fill:#6495ed;stroke:#000000;stroke-width:0.3px"/>
	<circle cx="296" cy="482" r="12" style="fill:#6495ed;stroke:#000000;stroke-width:0.3px"/>
	<circle cx="333" cy="494" r="12" style="fill:#ff2400;stroke:#000000;stroke-width:0.3px"/>
	<circle cx="367" cy="475" r="12" style="fill:#ffff31;stroke:#000000;stroke-width:0.3px"/>
	<circle cx="386" cy="508" r="12" style="fill:#ffff31;stroke:#000000;stroke-width:0.3px"/>
	<circle cx="392" cy="546" r="12" style="fill:#6495ed;stroke:#000000;stroke-width:0.3px"/>
	<circle cx="381" cy="579" r="12" style="fill:#ff2400;stroke:#000000;stroke-width:0.3px"/>
	<circle cx="343" cy="600" r="12" style="fill:#6495ed;stroke:#000000;stroke-width:0.3px"/>
	<circle cx="300" cy="588" r="12" style="fill:#ff2400;stroke:#000000;stroke-width:0.3px"/>
	<circle cx="273" cy="553" r="12" style="fill:#ff2400;stroke:#000000;stroke-width:0.3px"/>
	<circle cx="269" cy="517" r="12" style="fill:#ffff31;stroke:#000000;stroke-width:0.3px"/>
	<path style="stroke:#000000;stroke-width:0.1px" d="m 613.69,358.08 v 22.68 h 4.77 q 6.04,0 8.83,-2.73 2.81,-2.73 2.81,-8.63 0,-5.86 -2.81,-8.57 -2.79,-2.73 -8.83,-2.73 z m -3.95,-3.24 h 8.11 q 8.48,0 12.44,3.54 3.96,3.52 3.96,11.02 0,7.54 -3.98,11.07 -3.98,3.54 -12.42,3.54 h -8.11 z" />
	<path style="stroke:#000000;stroke-width:0.1px" d="m 486.51,272.64 v 3.85 q -2.25,-1.07 -4.24,-1.60 -1.99,-0.53 -3.85,-0.53 -3.22,0 -4.08,1.25 -1.74,1.25 -1.74,3.55 0,1.93 1.15,2.93 1.17,0.98 4.41,1.58 l 2.38,0.49 q 4.41,0.84 6.50,2.97 2.11,2.11 2.11,5.66 0,4.24 -2.85,6.43 -2.83,2.19 -8.32,2.19 -2.07,0 -4.41,-0.47 -2.32,-0.47 -4.82,-1.39 v -4.06 q 2.40,1.35 4.71,2.03 2.30,0.68 4.53,0.68 3.38,0 5.21,-1.33 1.84,-1.33 1.84,-3.79 0,-2.15 -1.33,-3.36 -1.31,-1.21 -4.32,-1.82 l -2.40,-0.47 q -4.41,-0.88 -6.39,-2.75 -1.97,-1.88 -1.97,-5.21 0,-3.87 2.71,-6.09 2.73,-2.23 7.52,-2.23 2.05,0 4.18,0.37 2.13,0.37 4.36,1.11 z" />
	<path style="stroke:#000000;stroke-width:0.1px" d="m 610.84,188.28 h 3.96 v 17.71 q 0,4.69 1.70,6.76 1.70,2.05 5.51,2.05 3.79,0 5.49,-2.05 1.70,-2.07 1.70,-6.76 v -17.71 h 3.96 v 18.20 q 0,5.70 -2.83,8.61 -2.81,2.91 -8.32,2.91 -5.53,0 -8.36,-2.91 -2.81,-2.91 -2.81,-8.61 z" />
	<path style="stroke:#000000;stroke-width:0.1px" d="m 327.60,203.79 v 10.68 h 6.33 q 3.18,0 4.71,-1.31 1.54,-1.33 1.54,-4.04 0,-2.73 -1.54,-4.02 -1.52,-1.31 -4.71,-1.31 z m 0,-11.99 v 8.79 h 5.84 q 2.89,0 4.30,-1.07 1.43,-1.09 1.43,-3.32 0,-2.21 -1.43,-3.30 -1.41,-1.09 -4.30,-1.09 z m -3.94,-3.24 h 10.08 q 4.51,0 6.95,1.88 2.44,1.88 2.44,5.33 0,2.68 -1.25,4.26 -1.25,1.58 -3.67,1.97 2.91,0.63 4.51,2.62 1.62,1.97 1.62,4.94 0,3.91 -2.66,6.04 -2.66,2.13 -7.56,2.13 H 323.66 Z" />
	<path style="stroke:#000000;stroke-width:0.1px" d="m 345.76,357.06 v 4.16 q -1.99,-1.86 -4.26,-2.77 -2.25,-0.92 -4.79,-0.92 -5.00,0 -7.66,3.07 -2.66,3.05 -2.66,8.83 0,5.76 2.66,8.83 2.66,3.05 7.66,3.05 2.54,0 4.79,-0.92 2.27,-0.92 4.26,-2.77 v 4.12 q -2.07,1.41 -4.39,2.11 -2.30,0.70 -4.88,0.70 -6.62,0 -10.43,-4.04 -3.81,-4.06 -3.81,-11.07 0,-7.03 3.81,-11.07 3.81,-4.06 10.43,-4.06 2.62,0 4.92,0.70 2.32,0.68 4.36,2.07 z" />
	<path style="stroke:#000000;stroke-width:0.1px" d="m 320.66,521.11 h 5.88 l 7.44,19.84 7.48,-19.84 h 5.88 v 29.16 h -3.85 v -25.61 l -7.52,20 h -3.96 l -7.52,-20.00 v 25.61 h -3.83 z" />
	<path style="stroke:#000000;stroke-width:0.1px" d="m 466.96,105.42 h 5.31 l 12.93,24.39 v -24.39 h 3.83 v 29.16 h -5.31 l -12.93,-24.39 v 24.39 h -3.83 z" />
	<path style="stroke:#000000;stroke-width:0.1px" d="m 468.93,437.97 h 3.95 v 25.84 h 14.20 v 3.32 h -18.14 z" />
</svg>
