<svg xmlns="http://www.w3.org/2000/svg" height="148" width="100" viewbox="0 0 100 148">
	<rect x="0" y="0" height="148" width="100" style="fill:#ffff31;stroke:#000000;stroke-width:0.5px"/>
	<g transform="translate(39,43)">
		<path d="M 5.91,1.18 C 5.04,1.46 4.36,1.77 3.52,2.38 3.41,2.49 3.30,2.60 3.19,2.70 c 0.01,0.03 0.03,0.06 0.06,0.11 0.05,0.09 0.14,0.20 0.25,0.31 C 3.33,3.40 3.17,3.68 3.03,3.95 2.84,3.80 2.68,3.63 2.55,3.44 2.17,3.92 1.83,4.42 1.53,4.96 c 0.02,0.08 0.08,0.17 0.19,0.29 C 1.85,5.39 2.06,5.54 2.30,5.66 2.20,5.97 2.11,6.27 2.04,6.57 1.67,6.41 1.33,6.19 1.06,5.91 0.77,6.60 0.54,7.33 0.40,8.08 0.46,8.21 0.58,8.32 0.76,8.43 1.01,8.60 1.38,8.74 1.77,8.82 1.77,9.14 1.78,9.45 1.81,9.77 1.24,9.69 0.69,9.51 0.25,9.21 c 0,0 -0.01,0 -0.01,0 -0.07,0.78 -0.04,1.54 0.05,2.29 0.12,0.17 0.31,0.30 0.59,0.40 0.37,0.13 0.87,0.17 1.38,0.12 0.10,0.30 0.21,0.60 0.34,0.90 -0.70,0.10 -1.41,0.08 -2.02,-0.13 -0.02,-0.01 -0.03,-0.01 -0.05,-0.02 0.20,0.77 0.48,1.51 0.84,2.21 0.18,0.14 0.42,0.21 0.73,0.23 0.46,0.03 1.05,-0.09 1.62,-0.32 0.18,0.26 0.38,0.52 0.59,0.76 -0.73,0.33 -1.51,0.53 -2.24,0.49 0.50,0.73 1.08,1.39 1.74,1.98 0.21,0.07 0.46,0.07 0.77,0.01 0.48,-0.09 1.04,-0.37 1.55,-0.75 0,0 0,0 0,0 0.26,0.20 0.52,0.39 0.79,0.56 -0.60,0.49 -1.28,0.88 -1.97,1.06 0.58,0.39 1.20,0.73 1.86,1.01 0.25,0.02 0.51,-0.05 0.81,-0.19 0.38,-0.19 0.79,-0.51 1.15,-0.91 0.85,0.34 1.73,0.56 2.62,0.64 l 0.09,-0.93 c -0.71,-0.07 -1.42,-0.24 -2.12,-0.50 0.34,-0.55 0.58,-1.15 0.64,-1.67 0.06,-0.45 0,-0.80 -0.19,-1.07 -0.40,-0.08 -0.79,-0.20 -1.16,-0.35 -0.01,0.32 -0.08,0.65 -0.21,0.95 -0.19,0.45 -0.47,0.89 -0.82,1.28 C 7.34,17.10 7.08,16.92 6.82,16.73 7.15,16.37 7.42,15.99 7.57,15.62 7.76,15.16 7.78,14.80 7.60,14.49 7.21,14.24 6.85,13.95 6.52,13.63 6.43,13.84 6.31,14.05 6.17,14.23 5.89,14.59 5.54,14.91 5.14,15.17 4.94,14.94 4.74,14.70 4.56,14.44 4.91,14.21 5.22,13.94 5.43,13.67 5.68,13.34 5.79,13.05 5.75,12.77 5.50,12.44 5.28,12.09 5.08,11.72 4.96,11.85 4.83,11.98 4.70,12.08 4.36,12.34 3.96,12.54 3.53,12.68 3.40,12.40 3.28,12.11 3.18,11.81 3.55,11.69 3.88,11.53 4.13,11.34 4.41,11.13 4.57,10.92 4.60,10.68 4.45,10.29 4.33,9.87 4.23,9.44 4.14,9.50 4.04,9.54 3.95,9.58 3.57,9.73 3.16,9.80 2.74,9.82 2.70,9.51 2.68,9.20 2.68,8.89 3.03,8.87 3.35,8.82 3.60,8.71 3.83,8.63 3.98,8.53 4.07,8.41 4.02,7.92 4.00,7.43 4.03,6.92 c -0.03,0.01 -0.06,0.01 -0.10,0.01 C 3.60,6.97 3.26,6.94 2.91,6.87 2.98,6.57 3.07,6.27 3.17,5.97 3.41,6.01 3.64,6.03 3.83,6.01 3.96,5.99 4.06,5.97 4.13,5.94 4.20,5.49 4.30,5.06 4.43,4.64 4.22,4.60 4.01,4.54 3.82,4.45 3.96,4.18 4.11,3.90 4.28,3.63 c 0.12,0.05 0.23,0.08 0.33,0.10 0.06,0.01 0.10,0.01 0.14,0.01 C 4.84,3.51 4.95,3.29 5.07,3.07 5.36,2.48 5.68,1.86 5.91,1.18 Z m 12.17,0 c 0.23,0.68 0.55,1.30 0.85,1.89 0.11,0.22 0.22,0.44 0.31,0.68 0.04,0 0.08,-0.01 0.14,-0.01 0.10,-0.02 0.21,-0.05 0.33,-0.10 0.17,0.27 0.32,0.55 0.47,0.82 -0.20,0.09 -0.40,0.16 -0.61,0.19 0.13,0.42 0.23,0.85 0.30,1.30 0.07,0.03 0.17,0.06 0.30,0.07 0.19,0.02 0.42,0.01 0.66,-0.04 0.10,0.30 0.18,0.60 0.25,0.90 -0.34,0.07 -0.69,0.10 -1.01,0.07 -0.03,0 -0.07,-0.01 -0.10,-0.01 0.03,0.50 0.01,1.00 -0.04,1.49 0.09,0.12 0.24,0.22 0.47,0.31 0.25,0.10 0.57,0.16 0.92,0.17 0,0.31 -0.02,0.63 -0.05,0.93 -0.42,-0.02 -0.84,-0.09 -1.21,-0.24 -0.10,-0.04 -0.20,-0.09 -0.29,-0.14 -0.09,0.43 -0.22,0.84 -0.37,1.24 0.04,0.24 0.19,0.44 0.47,0.66 0.24,0.19 0.58,0.35 0.95,0.47 -0.10,0.30 -0.22,0.59 -0.35,0.87 -0.43,-0.14 -0.83,-0.34 -1.16,-0.60 -0.14,-0.11 -0.27,-0.23 -0.38,-0.36 -0.20,0.37 -0.43,0.72 -0.67,1.05 -0.04,0.28 0.07,0.57 0.32,0.90 0.21,0.27 0.51,0.54 0.87,0.78 -0.18,0.25 -0.38,0.50 -0.59,0.73 -0.40,-0.27 -0.75,-0.58 -1.02,-0.94 -0.14,-0.19 -0.26,-0.39 -0.35,-0.60 -0.33,0.32 -0.70,0.61 -1.08,0.86 -0.18,0.31 -0.16,0.68 0.03,1.14 0.15,0.36 0.41,0.75 0.74,1.11 -0.25,0.19 -0.51,0.37 -0.78,0.53 -0.35,-0.39 -0.64,-0.83 -0.82,-1.28 -0.13,-0.30 -0.20,-0.63 -0.21,-0.95 -0.37,0.15 -0.76,0.27 -1.17,0.35 -0.19,0.26 -0.25,0.61 -0.19,1.07 0.07,0.51 0.30,1.11 0.65,1.67 -0.70,0.26 -1.41,0.43 -2.12,0.50 l 0.09,0.93 c 0.89,-0.08 1.77,-0.30 2.62,-0.64 0.36,0.40 0.77,0.72 1.15,0.91 0.30,0.15 0.57,0.22 0.81,0.19 0.66,-0.27 1.28,-0.61 1.86,-1.01 -0.69,-0.18 -1.37,-0.56 -1.97,-1.06 0.27,-0.17 0.54,-0.36 0.79,-0.56 0.51,0.38 1.07,0.65 1.55,0.75 0.30,0.06 0.55,0.06 0.76,-0.01 0.66,-0.59 1.24,-1.25 1.74,-1.98 -0.73,0.05 -1.52,-0.15 -2.25,-0.49 0.21,-0.24 0.40,-0.50 0.59,-0.76 0.56,0.23 1.15,0.35 1.62,0.32 0.32,-0.02 0.56,-0.09 0.73,-0.23 0.36,-0.70 0.64,-1.44 0.84,-2.21 -0.02,0.01 -0.03,0.01 -0.05,0.02 -0.62,0.21 -1.33,0.24 -2.02,0.13 0.13,-0.29 0.24,-0.59 0.34,-0.90 0.51,0.05 1.01,0.01 1.38,-0.12 0.29,-0.10 0.48,-0.22 0.60,-0.40 0.10,-0.74 0.12,-1.51 0.05,-2.29 0,0 0,0 -0.01,0 -0.45,0.29 -0.99,0.47 -1.56,0.56 0.03,-0.31 0.04,-0.63 0.04,-0.95 0.39,-0.08 0.76,-0.22 1.01,-0.28 C 23.42,8.32 23.54,8.21 23.60,8.08 23.46,7.33 23.23,6.60 22.94,5.91 22.67,6.19 22.33,6.41 21.96,6.57 21.89,6.27 21.80,5.97 21.70,5.66 21.94,5.54 22.15,5.39 22.28,5.25 22.39,5.13 22.45,5.04 22.47,4.96 22.17,4.42 21.83,3.92 21.45,3.44 21.32,3.63 21.16,3.80 20.97,3.95 20.83,3.68 20.68,3.40 20.50,3.12 c 0.10,-0.10 0.20,-0.22 0.25,-0.31 0.03,-0.05 0.05,-0.08 0.06,-0.11 C 20.70,2.60 20.59,2.49 20.48,2.38 19.64,1.77 18.96,1.46 18.09,1.18 Z" style="fill:#008000;stroke:#000000;stroke-width:0.3px"/>
		<path d="m 10.31,11.36 h 5.16 v 1.25 H 8.53 V 11.36 q 0.84,-0.87 2.29,-2.34 1.46,-1.47 1.83,-1.90 0.71,-0.80 0.99,-1.35 0.29,-0.56 0.29,-1.09 0,-0.87 -0.62,-1.42 -0.61,-0.55 -1.59,-0.55 -0.70,0 -1.47,0.24 Q 9.48,3.20 8.60,3.69 V 2.20 q 0.89,-0.36 1.67,-0.54 0.78,-0.18 1.42,-0.18 1.70,0 2.71,0.85 1.01,0.85 1.01,2.27 0,0.67 -0.26,1.28 -0.25,0.60 -0.92,1.42 -0.18,0.21 -1.16,1.23 -0.98,1.01 -2.77,2.83 z" style="fill:#000000;stroke:#000000;stroke-width:0.3px"/>
	</g>
	<g transform="translate(27,80)">
		<path d="m 10.0,4.52 c 1.35,1.62 2.16,3.70 2.16,5.97 0,0.88 -0.12,1.72 -0.35,2.53 -1.19,-0.22 -2.41,-0.22 -3.62,0 -0.22,-0.80 -0.35,-1.65 -0.35,-2.53 0,-2.27 0.81,-4.35 2.16,-5.97 z m -0.02,9.07 c 0.54,0 1.08,0.05 1.61,0.14 -0.37,1.0 -0.91,1.93 -1.58,2.74 -0.67,-0.81 -1.21,-1.73 -1.58,-2.73 0.52,-0.09 1.04,-0.13 1.56,-0.13 z m -2.29,0.29 c 0.41,1.16 1.03,2.21 1.81,3.13 -1.70,1.74 -4.06,2.82 -6.69,2.82 -0.54,0 -1.07,-0.05 -1.58,-0.13 0.73,-1.97 2.13,-3.72 4.09,-4.85 0.76,-0.44 1.55,-0.76 2.36,-0.96 z m 4.62,0 c 2.35,0.60 4.47,2.11 5.78,4.38 0.27,0.47 0.49,0.95 0.67,1.43 -0.51,0.08 -1.04,0.13 -1.58,0.13 -2.62,0 -4.99,-1.08 -6.69,-2.82 0.78,-0.92 1.40,-1.98 1.81,-3.13 z m 7.41,6.37 -0.22,-0.71 c -0.20,-0.56 -0.46,-1.11 -0.76,-1.65 -1.40,-2.43 -3.67,-4.06 -6.20,-4.71 0.24,-0.86 0.36,-1.76 0.36,-2.69 0,-2.49 -0.90,-4.76 -2.40,-6.52 L 10.0,3.43 9.50,3.97 C 8.01,5.73 7.10,8.01 7.10,10.49 c 0,0.93 0.13,1.83 0.36,2.68 -0.86,0.22 -1.70,0.56 -2.51,1.03 -2.15,1.24 -3.67,3.16 -4.45,5.34 l -0.22,0.71 0.72,0.16 c 0.59,0.11 1.19,0.16 1.81,0.16 2.81,0 5.35,-1.15 7.18,-3.01 1.83,1.86 4.37,3.01 7.18,3.01 0.62,0 1.22,-0.06 1.81,-0.16 z" style="fill:#6495ed;stroke:#000000;stroke-width:0.45px"/>
	</g>
	<g transform="translate(52,80)">
		<polygon points="20.0,10.0 15.0,18.66, 5.00,18.66 0.00,10.00 5.00,1.34 15.00,1.34" style="fill:#d0f0c0;stroke:#000000;stroke-width:0.3px"/>
		<path d="M 14.41,5.37 V 6.93 Q 13.66,6.24 12.81,5.89 11.97,5.55 11.02,5.55 q -1.87,0 -2.87,1.15 -1.00,1.14 -1.00,3.31 0,2.16 1.00,3.31 1.00,1.14 2.87,1.14 0.95,0 1.79,-0.34 0.85,-0.34 1.60,-1.04 v 1.54541 q -0.78,0.53 -1.65,0.79 -0.86,0.26 -1.83,0.26 -2.48,0 -3.91,-1.52 -1.43,-1.52 -1.43,-4.15 0,-2.64 1.43,-4.15 1.43,-1.52 3.91,-1.52 0.98,0 1.85,0.26 0.87,0.26 1.63,0.78 z" style="fill:#000000;stroke:#000000;stroke-width:0.3px"/>
	</g>
</svg>
