<svg xmlns="http://www.w3.org/2000/svg" height="148" width="100" viewbox="0 0 100 148">
	<rect x="0" y="0" height="148" width="100" style="fill:#ffff31;stroke:#000000;stroke-width:0.5px"/>
	<g transform="translate(39,43)">
		<path d="M 5.91,1.18 C 5.04,1.46 4.36,1.77 3.52,2.38 3.41,2.49 3.30,2.60 3.19,2.70 c 0.01,0.03 0.03,0.06 0.06,0.11 0.05,0.09 0.14,0.20 0.25,0.31 C 3.33,3.40 3.17,3.68 3.03,3.95 2.84,3.80 2.68,3.63 2.55,3.44 2.17,3.92 1.83,4.42 1.53,4.96 c 0.02,0.08 0.08,0.17 0.19,0.29 C 1.85,5.39 2.06,5.54 2.30,5.66 2.20,5.97 2.11,6.27 2.04,6.57 1.67,6.41 1.33,6.19 1.06,5.91 0.77,6.60 0.54,7.33 0.40,8.08 0.46,8.21 0.58,8.32 0.76,8.43 1.01,8.60 1.38,8.74 1.77,8.82 1.77,9.14 1.78,9.45 1.81,9.77 1.24,9.69 0.69,9.51 0.25,9.21 c 0,0 -0.01,0 -0.01,0 -0.07,0.78 -0.04,1.54 0.05,2.29 0.12,0.17 0.31,0.30 0.59,0.40 0.37,0.13 0.87,0.17 1.38,0.12 0.10,0.30 0.21,0.60 0.34,0.90 -0.70,0.10 -1.41,0.08 -2.02,-0.13 -0.02,-0.01 -0.03,-0.01 -0.05,-0.02 0.20,0.77 0.48,1.51 0.84,2.21 0.18,0.14 0.42,0.21 0.73,0.23 0.46,0.03 1.05,-0.09 1.62,-0.32 0.18,0.26 0.38,0.52 0.59,0.76 -0.73,0.33 -1.51,0.53 -2.24,0.49 0.50,0.73 1.08,1.39 1.74,1.98 0.21,0.07 0.46,0.07 0.77,0.01 0.48,-0.09 1.04,-0.37 1.55,-0.75 0,0 0,0 0,0 0.26,0.20 0.52,0.39 0.79,0.56 -0.60,0.49 -1.28,0.88 -1.97,1.06 0.58,0.39 1.20,0.73 1.86,1.01 0.25,0.02 0.51,-0.05 0.81,-0.19 0.38,-0.19 0.79,-0.51 1.15,-0.91 0.85,0.34 1.73,0.56 2.62,0.64 l 0.09,-0.93 c -0.71,-0.07 -1.42,-0.24 -2.12,-0.50 0.34,-0.55 0.58,-1.15 0.64,-1.67 0.06,-0.45 0,-0.80 -0.19,-1.07 -0.40,-0.08 -0.79,-0.20 -1.16,-0.35 -0.01,0.32 -0.08,0.65 -0.21,0.95 -0.19,0.45 -0.47,0.89 -0.82,1.28 C 7.34,17.10 7.08,16.92 6.82,16.73 7.15,16.37 7.42,15.99 7.57,15.62 7.76,15.16 7.78,14.80 7.60,14.49 7.21,14.24 6.85,13.95 6.52,13.63 6.43,13.84 6.31,14.05 6.17,14.23 5.89,14.59 5.54,14.91 5.14,15.17 4.94,14.94 4.74,14.70 4.56,14.44 4.91,14.21 5.22,13.94 5.43,13.67 5.68,13.34 5.79,13.05 5.75,12.77 5.50,12.44 5.28,12.09 5.08,11.72 4.96,11.85 4.83,11.98 4.70,12.08 4.36,12.34 3.96,12.54 3.53,12.68 3.40,12.40 3.28,12.11 3.18,11.81 3.55,11.69 3.88,11.53 4.13,11.34 4.41,11.13 4.57,10.92 4.60,10.68 4.45,10.29 4.33,9.87 4.23,9.44 4.14,9.50 4.04,9.54 3.95,9.58 3.57,9.73 3.16,9.80 2.74,9.82 2.70,9.51 2.68,9.20 2.68,8.89 3.03,8.87 3.35,8.82 3.60,8.71 3.83,8.63 3.98,8.53 4.07,8.41 4.02,7.92 4.00,7.43 4.03,6.92 c -0.03,0.01 -0.06,0.01 -0.10,0.01 C 3.60,6.97 3.26,6.94 2.91,6.87 2.98,6.57 3.07,6.27 3.17,5.97 3.41,6.01 3.64,6.03 3.83,6.01 3.96,5.99 4.06,5.97 4.13,5.94 4.20,5.49 4.30,5.06 4.43,4.64 4.22,4.60 4.01,4.54 3.82,4.45 3.96,4.18 4.11,3.90 4.28,3.63 c 0.12,0.05 0.23,0.08 0.33,0.10 0.06,0.01 0.10,0.01 0.14,0.01 C 4.84,3.51 4.95,3.29 5.07,3.07 5.36,2.48 5.68,1.86 5.91,1.18 Z m 12.17,0 c 0.23,0.68 0.55,1.30 0.85,1.89 0.11,0.22 0.22,0.44 0.31,0.68 0.04,0 0.08,-0.01 0.14,-0.01 0.10,-0.02 0.21,-0.05 0.33,-0.10 0.17,0.27 0.32,0.55 0.47,0.82 -0.20,0.09 -0.40,0.16 -0.61,0.19 0.13,0.42 0.23,0.85 0.30,1.30 0.07,0.03 0.17,0.06 0.30,0.07 0.19,0.02 0.42,0.01 0.66,-0.04 0.10,0.30 0.18,0.60 0.25,0.90 -0.34,0.07 -0.69,0.10 -1.01,0.07 -0.03,0 -0.07,-0.01 -0.10,-0.01 0.03,0.50 0.01,1.00 -0.04,1.49 0.09,0.12 0.24,0.22 0.47,0.31 0.25,0.10 0.57,0.16 0.92,0.17 0,0.31 -0.02,0.63 -0.05,0.93 -0.42,-0.02 -0.84,-0.09 -1.21,-0.24 -0.10,-0.04 -0.20,-0.09 -0.29,-0.14 -0.09,0.43 -0.22,0.84 -0.37,1.24 0.04,0.24 0.19,0.44 0.47,0.66 0.24,0.19 0.58,0.35 0.95,0.47 -0.10,0.30 -0.22,0.59 -0.35,0.87 -0.43,-0.14 -0.83,-0.34 -1.16,-0.60 -0.14,-0.11 -0.27,-0.23 -0.38,-0.36 -0.20,0.37 -0.43,0.72 -0.67,1.05 -0.04,0.28 0.07,0.57 0.32,0.90 0.21,0.27 0.51,0.54 0.87,0.78 -0.18,0.25 -0.38,0.50 -0.59,0.73 -0.40,-0.27 -0.75,-0.58 -1.02,-0.94 -0.14,-0.19 -0.26,-0.39 -0.35,-0.60 -0.33,0.32 -0.70,0.61 -1.08,0.86 -0.18,0.31 -0.16,0.68 0.03,1.14 0.15,0.36 0.41,0.75 0.74,1.11 -0.25,0.19 -0.51,0.37 -0.78,0.53 -0.35,-0.39 -0.64,-0.83 -0.82,-1.28 -0.13,-0.30 -0.20,-0.63 -0.21,-0.95 -0.37,0.15 -0.76,0.27 -1.17,0.35 -0.19,0.26 -0.25,0.61 -0.19,1.07 0.07,0.51 0.30,1.11 0.65,1.67 -0.70,0.26 -1.41,0.43 -2.12,0.50 l 0.09,0.93 c 0.89,-0.08 1.77,-0.30 2.62,-0.64 0.36,0.40 0.77,0.72 1.15,0.91 0.30,0.15 0.57,0.22 0.81,0.19 0.66,-0.27 1.28,-0.61 1.86,-1.01 -0.69,-0.18 -1.37,-0.56 -1.97,-1.06 0.27,-0.17 0.54,-0.36 0.79,-0.56 0.51,0.38 1.07,0.65 1.55,0.75 0.30,0.06 0.55,0.06 0.76,-0.01 0.66,-0.59 1.24,-1.25 1.74,-1.98 -0.73,0.05 -1.52,-0.15 -2.25,-0.49 0.21,-0.24 0.40,-0.50 0.59,-0.76 0.56,0.23 1.15,0.35 1.62,0.32 0.32,-0.02 0.56,-0.09 0.73,-0.23 0.36,-0.70 0.64,-1.44 0.84,-2.21 -0.02,0.01 -0.03,0.01 -0.05,0.02 -0.62,0.21 -1.33,0.24 -2.02,0.13 0.13,-0.29 0.24,-0.59 0.34,-0.90 0.51,0.05 1.01,0.01 1.38,-0.12 0.29,-0.10 0.48,-0.22 0.60,-0.40 0.10,-0.74 0.12,-1.51 0.05,-2.29 0,0 0,0 -0.01,0 -0.45,0.29 -0.99,0.47 -1.56,0.56 0.03,-0.31 0.04,-0.63 0.04,-0.95 0.39,-0.08 0.76,-0.22 1.01,-0.28 C 23.42,8.32 23.54,8.21 23.60,8.08 23.46,7.33 23.23,6.60 22.94,5.91 22.67,6.19 22.33,6.41 21.96,6.57 21.89,6.27 21.80,5.97 21.70,5.66 21.94,5.54 22.15,5.39 22.28,5.25 22.39,5.13 22.45,5.04 22.47,4.96 22.17,4.42 21.83,3.92 21.45,3.44 21.32,3.63 21.16,3.80 20.97,3.95 20.83,3.68 20.68,3.40 20.50,3.12 c 0.10,-0.10 0.20,-0.22 0.25,-0.31 0.03,-0.05 0.05,-0.08 0.06,-0.11 C 20.70,2.60 20.59,2.49 20.48,2.38 19.64,1.77 18.96,1.46 18.09,1.18 Z" style="fill:#008000;stroke:#000000;stroke-width:0.3px"/>
		<path d="M 12.95,2.96 9.22,8.80 H 12.95 Z M 12.56,1.67 h 1.86 v 7.13 h 1.56 v 1.23 h -1.56 v 2.58 H 12.95 V 10.03 H 8.02 V 8.60 z" style="fill:#000000;stroke:#000000;stroke-width:0.3px"/>
	</g>
	<g>
		<path style="stroke:#000000;stroke-width:0.1px" d="m 24.64,20.04 v 5.34 h 3.16 q 1.59,0 2.35,-0.65 0.77,-0.66 0.77,-2.02 0,-1.37 -0.77,-2.01 -0.76,-0.65 -2.35,-0.65 z m 0,-6.00 v 4.39 h 2.92 q 1.44,0 2.15,-0.54 0.71,-0.55 0.71,-1.66 0,-1.10 -0.71,-1.65 -0.70,-0.55 -2.15,-0.55 z m -1.97,-1.62 h 5.04 q 2.26,0 3.48,0.94 1.22,0.94 1.22,2.67 0,1.34 -0.63,2.13 -0.63,0.79 -1.84,0.99 1.45,0.31 2.26,1.31 0.81,0.99 0.81,2.47 0,1.95 -1.33,3.02 -1.33,1.06 -3.78,1.06 h -5.23 z" />
		<path style="stroke:#000000;stroke-width:0.1px" d="m 42.65,17.74 q -0.30,-0.18 -0.66,-0.25 -0.35,-0.09 -0.78,-0.09 -1.52,0 -2.34,1.00 -0.81,0.99 -0.81,2.84 v 5.76 h -1.81 v -10.94 h 1.81 v 1.70 q 0.57,-1.00 1.47,-1.47 0.91,-0.49 2.21,-0.49 0.19,0 0.41,0.03 0.22,0.02 0.50,0.07 z" />
		<path style="stroke:#000000;stroke-width:0.1px" d="m 44.53,16.06 h 1.80 v 10.94 H 44.53 Z m 0,-4.26 h 1.80 v 2.28 H 44.53 Z" />
		<path style="stroke:#000000;stroke-width:0.1px" d="m 57.29,21.40 q 0,-1.95 -0.81,-3.03 -0.80,-1.07 -2.26,-1.07 -1.45,0 -2.26,1.07 -0.80,1.07 -0.80,3.03 0,1.94 0.80,3.02 0.81,1.07 2.26,1.07 1.46,0 2.26,-1.07 0.81,-1.07 0.81,-3.02 z m 1.80,4.24 q 0,2.79 -1.24,4.15 -1.24,1.37 -3.80,1.37 -0.95,0 -1.79,-0.15 Q 51.42,30.88 50.63,30.58 v -1.75 q 0.79,0.43 1.56,0.63 0.77,0.21 1.57,0.21 1.77,0 2.65,-0.93 0.88,-0.92 0.88,-2.78 v -0.89 q -0.56,0.97 -1.43,1.45 -0.87,0.48 -2.08,0.48 -2.01,0 -3.24,-1.53 -1.23,-1.53 -1.23,-4.06 0,-2.54 1.23,-4.07 1.23,-1.53 3.24,-1.53 1.21,0 2.08,0.48 0.87,0.48 1.43,1.45 V 16.06 h 1.80 z" />
		<path style="stroke:#000000;stroke-width:0.1px" d="m 62.78,16.06 h 1.80 v 10.94 h -1.80 z m 0,-4.26 h 1.80 v 2.28 h -1.80 z" />
		<path style="stroke:#000000;stroke-width:0.1px" d="m 75.54,17.72 v -5.92 h 1.80 V 27.00 h -1.80 v -1.64 q -0.57,0.98 -1.44,1.46 -0.86,0.47 -2.07,0.47 -1.98,0 -3.23,-1.58 -1.24,-1.58 -1.24,-4.16 0,-2.58 1.24,-4.16 1.25,-1.58 3.23,-1.58 1.21,0 2.07,0.48 0.87,0.47 1.44,1.45 z m -6.12,3.82 q 0,1.98 0.81,3.12 0.82,1.12 2.25,1.12 1.43,0 2.25,-1.12 0.82,-1.13 0.82,-3.12 0,-1.98 -0.82,-3.11 -0.82,-1.13 -2.25,-1.13 -1.43,0 -2.25,1.13 -0.81,1.12 -0.81,3.11 z" />
	</g>
</svg>
