<svg xmlns="http://www.w3.org/2000/svg" height="148" width="100" viewbox="0 0 100 148">
	<rect x="0" y="0" height="148" width="100" style="fill:#ffff31;stroke:#000000;stroke-width:0.5px"/>
	<g>
		<path style="stroke:#000000;stroke-width:0.1px" d="m 23.20,12.42 h 9.22 v 1.66 h -7.25 v 4.32 h 6.94 v 1.66 h -6.94 v 5.28 h 7.42 v 1.66 h -9.39 z" />
		<path style="stroke:#000000;stroke-width:0.1px" d="m 42.73,16.38 v 1.70 q -0.76,-0.39 -1.58,-0.59 -0.82,-0.20 -1.70,-0.20 -1.34,0 -2.01,0.41 -0.66,0.41 -0.66,1.23 0,0.63 0.48,0.99 0.48,0.35 1.92,0.67 l 0.62,0.14 q 1.91,0.41 2.71,1.16 0.81,0.74 0.81,2.08 0,1.52 -1.21,2.41 -1.20,0.89 -3.31,0.89 -0.88,0 -1.84,-0.18 -0.95,-0.17 -2.00,-0.51 v -1.86 q 1.00,0.52 1.96,0.78 0.97,0.25 1.91,0.25 1.27,0 1.95,-0.43 0.68,-0.44 0.68,-1.23 0,-0.73 -0.50,-1.12 -0.49,-0.39 -2.16,-0.75 l -0.63,-0.15 q -1.67,-0.35 -2.41,-1.07 -0.74,-0.73 -0.74,-2.00 0,-1.54 1.09,-2.38 1.09,-0.84 3.11,-0.84 1.00,0 1.88,0.15 0.88,0.15 1.62,0.44 z" />
		<path style="stroke:#000000;stroke-width:0.1px" d="m 47.96,12.96 v 3.11 h 3.70 v 1.40 h -3.70 v 5.94 q 0,1.34 0.36,1.72 0.37,0.38 1.49,0.38 h 1.85 v 1.50 h -1.85 q -2.08,0 -2.87,-0.77 -0.79,-0.78 -0.79,-2.83 v -5.94 h -1.32 V 16.06 h 1.32 v -3.11 z" />
		<path style="stroke:#000000;stroke-width:0.1px" d="m 60.361328,17.740738 q -0.302734,-0.175781 -0.664062,-0.253906 -0.351563,-0.08789 -0.78125,-0.08789 -1.523438,0 -2.34375,0.996094 -0.810547,0.986328 -0.810547,2.841797 v 5.761718 h -1.806641 v -10.9375 h 1.806641 v 1.699219 q 0.566406,-0.996094 1.474609,-1.474609 0.908203,-0.488281 2.207031,-0.488281 0.185547,0 0.410157,0.0293 0.224609,0.01953 0.498046,0.06836 z" />
		<path style="stroke:#000000;stroke-width:0.1px" d="m 62.25,16.06 h 1.80 v 10.94 h -1.80 z m 0,-4.26 h 1.80 v 2.28 h -1.80 z" />
		<path style="stroke:#000000;stroke-width:0.1px" d="m 75.00,17.72 v -5.92 h 1.80 V 27.00 H 75.00 v -1.64 q -0.57,0.98 -1.44,1.46 -0.86,0.47 -2.07,0.47 -1.98,0 -3.23,-1.58 -1.24,-1.58 -1.24,-4.16 0,-2.58 1.24,-4.16 1.25,-1.58 3.23,-1.58 1.21,0 2.07,0.48 0.87,0.47 1.44,1.45 z m -6.12,3.82 q 0,1.98 0.81,3.12 0.82,1.12 2.25,1.12 1.43,0 2.25,-1.12 Q 75.00,23.52 75.00,21.54 q 0,-1.98 -0.82,-3.11 -0.82,-1.13 -2.25,-1.13 -1.43,0 -2.25,1.13 -0.81,1.12 -0.81,3.11 z" />
	</g>
</svg>
