<svg xmlns="http://www.w3.org/2000/svg" height="148" width="100" viewbox="0 0 100 148">
	<rect x="0" y="0" height="148" width="100" style="fill:#ff2400;stroke:#000000;stroke-width:0.5px"/>
	<g transform="translate(31,39)">
		<path d="m 4.72,25.30 H 9.63 V 9.66 q 0,-0.67 0.05,-1.42 L 5.60,11.74 Q 5.39,11.92 5.18,11.97 4.98,12.00 4.80,11.97 4.62,11.94 4.46,11.84 4.32,11.74 4.24,11.63 L 3.34,10.40 10.18,4.50 h 2.32 V 25.30 h 4.51 v 2.18 H 4.72 Z" style="fill:#000000;stroke:#000000;stroke-width:0.3px"/>
	</g>
	<g transform="translate(48,39)">
		<path d="m 4.72,25.30 H 9.63 V 9.66 q 0,-0.67 0.05,-1.42 L 5.60,11.74 Q 5.39,11.92 5.18,11.97 4.98,12.00 4.80,11.97 4.62,11.94 4.46,11.84 4.32,11.74 4.24,11.63 L 3.34,10.40 10.18,4.50 h 2.32 V 25.30 h 4.51 v 2.18 H 4.72 Z" style="fill:#000000;stroke:#000000;stroke-width:0.3px"/>
	</g>
	<g transform="translate(39,80)">
		<path d="m 11.0,2.77 -1.38,2.11 3.19,2.06 2.22,5.15 c 0.22,-0.10 0.53,-0.27 0.87,-0.51 0.51,-0.35 1.08,-0.83 1.61,-1.37 0.53,-0.54 1.00,-1.13 1.30,-1.70 0.26,-0.50 0.39,-0.98 0.36,-1.39 L 14.11,4.79 Z" style="fill:#708090;stroke:#000000;stroke-width:0.3px"/>
		<path d="M 9.66,5.76 C 6.35,10.34 4.10,14.76 0.84,19.86 c 0,0 0,0 0.01,0.02 0.01,0.04 0.06,0.14 0.14,0.23 0.16,0.20 0.45,0.45 0.77,0.66 0.31,0.20 0.66,0.37 0.91,0.43 0.13,0.03 0.23,0.04 0.27,0.03 0.01,0 0.01,0 0.02,0 0.88,-1.35 1.27,-1.95 1.92,-4.39 l 0.01,-0.05 0.03,-0.04 c 2.41,-3.89 3.38,-6.25 6.17,-10.06 z" style="fill:#a0522d;stroke:#000000;stroke-width:0.3px"/>
	</g>
</svg>
