<svg xmlns="http://www.w3.org/2000/svg" height="148" width="100" viewbox="0 0 100 148">
	<rect x="0" y="0" height="148" width="100" style="fill:#f8eb58;stroke:#000000;stroke-width:0.5px"/>
	<line x1="0" y1="74" x2="100" y2="74" style="stroke:#000000;stroke-width:1px"/>
	<line x1="0" y1="111" x2="100" y2="111" style="stroke:#000000;stroke-width:1px"/>
	<g transform="translate(2,2)">
		<path d="m 4.72,25.30 H 9.63 V 9.66 q 0,-0.67 0.05,-1.42 L 5.60,11.74 Q 5.39,11.92 5.18,11.97 4.98,12.00 4.80,11.97 4.62,11.94 4.46,11.84 4.32,11.74 4.24,11.63 L 3.34,10.40 10.18,4.50 h 2.32 V 25.30 h 4.51 v 2.18 H 4.72 Z" style="fill:#000000;stroke:#000000;stroke-width:0.3px"/>
	</g>
	<g transform="translate(19,2)">
		<path d="m 18.02,4.54 v 1.28 q 0,0.54 -0.13,0.90 -0.11,0.35 -0.22,0.59 L 8.16,26.46 Q 7.95,26.88 7.58,27.18 7.22,27.47 6.61,27.47 H 4.56 L 14.19,8.56 q 0.21,-0.40 0.42,-0.74 0.22,-0.34 0.50,-0.64 H 3.14 q -0.27,0 -0.48,-0.21 -0.21,-0.22 -0.21,-0.50 v -1.94 z" style="fill:#000000;stroke:#000000;stroke-width:0.3px"/>
	</g>
	<g transform="translate(27,43)">
		<path d="m 10.0,4.52 c 1.35,1.62 2.16,3.70 2.16,5.97 0,0.88 -0.12,1.72 -0.35,2.53 -1.19,-0.22 -2.41,-0.22 -3.62,0 -0.22,-0.80 -0.35,-1.65 -0.35,-2.53 0,-2.27 0.81,-4.35 2.16,-5.97 z m -0.02,9.07 c 0.54,0 1.08,0.05 1.61,0.14 -0.37,1.0 -0.91,1.93 -1.58,2.74 -0.67,-0.81 -1.21,-1.73 -1.58,-2.73 0.52,-0.09 1.04,-0.13 1.56,-0.13 z m -2.29,0.29 c 0.41,1.16 1.03,2.21 1.81,3.13 -1.70,1.74 -4.06,2.82 -6.69,2.82 -0.54,0 -1.07,-0.05 -1.58,-0.13 0.73,-1.97 2.13,-3.72 4.09,-4.85 0.76,-0.44 1.55,-0.76 2.36,-0.96 z m 4.62,0 c 2.35,0.60 4.47,2.11 5.78,4.38 0.27,0.47 0.49,0.95 0.67,1.43 -0.51,0.08 -1.04,0.13 -1.58,0.13 -2.62,0 -4.99,-1.08 -6.69,-2.82 0.78,-0.92 1.40,-1.98 1.81,-3.13 z m 7.41,6.37 -0.22,-0.71 c -0.20,-0.56 -0.46,-1.11 -0.76,-1.65 -1.40,-2.43 -3.67,-4.06 -6.20,-4.71 0.24,-0.86 0.36,-1.76 0.36,-2.69 0,-2.49 -0.90,-4.76 -2.40,-6.52 L 10.0,3.43 9.50,3.97 C 8.01,5.73 7.10,8.01 7.10,10.49 c 0,0.93 0.13,1.83 0.36,2.68 -0.86,0.22 -1.70,0.56 -2.51,1.03 -2.15,1.24 -3.67,3.16 -4.45,5.34 l -0.22,0.71 0.72,0.16 c 0.59,0.11 1.19,0.16 1.81,0.16 2.81,0 5.35,-1.15 7.18,-3.01 1.83,1.86 4.37,3.01 7.18,3.01 0.62,0 1.22,-0.06 1.81,-0.16 z" style="fill:#5d6cf3;stroke:#000000;stroke-width:0.45px"/>
	</g>
	<g transform="translate(52,43)">
		<circle cx="10" cy="12" r="10" style="fill:#ffd700;stroke:#000000;stroke-width:0.3px"/>
		<path d="M 19.08,2.26 12.04,11.74 19.45,21.74 H 15.67 L 10.0,14.09 4.33,21.74 H 0.55 L 8.12,11.55 1.19,2.26 h 3.78 l 5.17,6.94 5.17,-6.94 z" style="fill:#000000;stroke:#000000;stroke-width:0.3px"/>
	</g>
	<g transform="translate(27,80)">
		<circle cx="10" cy="12" r="10" style="fill:#ffd700;stroke:#000000;stroke-width:0.3px"/>
		<path d="m 11.02,4.19 v 6.77 h 6.77 v 2.07 h -6.77 v 6.77 H 8.98 V 13.03 H 2.21 V 10.97 H 8.98 V 4.19 z" style="fill:#008000;stroke:#000000;stroke-width:0.3px"/>
	</g>
	<g transform="translate(52,80)">
		<path d="m 12.65,10.76 2.73,-2.74 -1.10,-1.09 -1.10,-1.09 3.28,0 3.28,0 0.01,3.27 0.01,3.27 -1.09,-1.08 -1.09,-1.08 -2.72,2.74 -2.72,2.74 -0.63,-0.62 c -0.35,-0.34 -0.84,-0.83 -1.10,-1.08 L 9.92,13.51 z" style="fill:#000000;stroke:#000000;stroke-width:0.3px"/>
		<path d="m 10.0,4.52 c 1.35,1.62 2.16,3.70 2.16,5.97 0,0.88 -0.12,1.72 -0.35,2.53 -1.19,-0.22 -2.41,-0.22 -3.62,0 -0.22,-0.80 -0.35,-1.65 -0.35,-2.53 0,-2.27 0.81,-4.35 2.16,-5.97 z m -0.02,9.07 c 0.54,0 1.08,0.05 1.61,0.14 -0.37,1.0 -0.91,1.93 -1.58,2.74 -0.67,-0.81 -1.21,-1.73 -1.58,-2.73 0.52,-0.09 1.04,-0.13 1.56,-0.13 z m -2.29,0.29 c 0.41,1.16 1.03,2.21 1.81,3.13 -1.70,1.74 -4.06,2.82 -6.69,2.82 -0.54,0 -1.07,-0.05 -1.58,-0.13 0.73,-1.97 2.13,-3.72 4.09,-4.85 0.76,-0.44 1.55,-0.76 2.36,-0.96 z m 4.62,0 c 2.35,0.60 4.47,2.11 5.78,4.38 0.27,0.47 0.49,0.95 0.67,1.43 -0.51,0.08 -1.04,0.13 -1.58,0.13 -2.62,0 -4.99,-1.08 -6.69,-2.82 0.78,-0.92 1.40,-1.98 1.81,-3.13 z m 7.41,6.37 -0.22,-0.71 c -0.20,-0.56 -0.46,-1.11 -0.76,-1.65 -1.40,-2.43 -3.67,-4.06 -6.20,-4.71 0.24,-0.86 0.36,-1.76 0.36,-2.69 0,-2.49 -0.90,-4.76 -2.40,-6.52 L 10.0,3.43 9.50,3.97 C 8.01,5.73 7.10,8.01 7.10,10.49 c 0,0.93 0.13,1.83 0.36,2.68 -0.86,0.22 -1.70,0.56 -2.51,1.03 -2.15,1.24 -3.67,3.16 -4.45,5.34 l -0.22,0.71 0.72,0.16 c 0.59,0.11 1.19,0.16 1.81,0.16 2.81,0 5.35,-1.15 7.18,-3.01 1.83,1.86 4.37,3.01 7.18,3.01 0.62,0 1.22,-0.06 1.81,-0.16 z" style="fill:#5d6cf3;stroke:#000000;stroke-width:0.45px"/>
		<circle cx="14.11" cy="16.54" r="5.25" style="fill:#ffd700;stroke:#000000;stroke-width:0.3px"/>
		<path d="m 15.95,13.69 q 0,0.17 -0.10,0.28 -0.10,0.10 -0.35,0.10 H 13.50 l -0.29,1.66 q 0.25,-0.06 0.47,-0.08 0.23,-0.03 0.44,-0.03 0.49,0 0.88,0.15 0.38,0.15 0.63,0.40 0.26,0.26 0.38,0.60 0.13,0.35 0.13,0.76 0,0.50 -0.18,0.91 -0.17,0.41 -0.48,0.70 -0.30,0.29 -0.72,0.44 -0.41,0.15 -0.90,0.15 -0.28,0 -0.54,-0.06 -0.25,-0.05 -0.48,-0.15 -0.22,-0.09 -0.41,-0.21 -0.19,-0.12 -0.34,-0.25 l 0.24,-0.34 q 0.08,-0.11 0.21,-0.11 0.09,0 0.20,0.07 0.11,0.07 0.27,0.15 0.16,0.08 0.37,0.15 0.22,0.07 0.51,0.07 0.33,0 0.60,-0.10 0.27,-0.10 0.46,-0.30 0.19,-0.20 0.29,-0.47 0.10,-0.27 0.10,-0.61 0,-0.30 -0.09,-0.54 -0.08,-0.24 -0.26,-0.41 -0.17,-0.17 -0.43,-0.26 -0.26,-0.09 -0.61,-0.09 -0.24,0 -0.50,0.04 -0.26,0.04 -0.52,0.13 l -0.50,-0.15 0.51,-2.96 h 3.00 z" style="fill:#000000;stroke:#000000;stroke-width:0.3px"/>
	</g>
	<g transform="translate(14,117)">
		<rect x="0" y="4" height="12" width="20" style="fill:#c2b280;stroke:#000000;stroke-width:0.3px"/>
		<line x1="0" y1="4" x2="10" y2="10" style="stroke:#000000;stroke-width:0.3px"/>
		<line x1="10" y1="10" x2="20" y2="4" style="stroke:#000000;stroke-width:0.3px"/>
		<path d="m 10.34,13.81 C 10.07,13.78 9.90,13.69 9.67,13.48 9.34,13.16 9.02,13.08 8.35,13.14 8.16,13.16 8.13,13.16 8.03,13.14 7.70,13.09 7.45,12.89 7.35,12.59 7.32,12.52 7.32,12.48 7.32,12.39 7.32,12.19 7.37,12.06 7.53,11.88 7.76,11.62 7.86,11.35 7.85,11.07 7.83,10.76 7.69,10.49 7.39,10.21 7.23,10.06 7.19,10.00 7.18,9.87 7.16,9.62 7.38,9.33 7.69,9.18 7.79,9.14 7.87,9.11 8.05,9.07 8.31,9.01 8.58,8.90 8.92,8.72 c 0.59,-0.31 0.70,-0.35 0.97,-0.42 0.34,-0.09 0.61,-0.08 0.81,0.02 0.05,0.03 0.14,0.11 0.34,0.30 0.44,0.44 0.53,0.48 0.97,0.50 0.28,0.01 0.34,0.02 0.46,0.08 0.21,0.10 0.32,0.31 0.30,0.54 -0.01,0.12 -0.04,0.21 -0.15,0.44 -0.18,0.38 -0.22,0.58 -0.15,0.80 0.01,0.04 0.05,0.11 0.08,0.15 0.18,0.26 0.20,0.31 0.22,0.46 0.01,0.08 0.01,0.11 0,0.19 -0.05,0.24 -0.20,0.42 -0.44,0.52 -0.17,0.07 -0.25,0.12 -0.34,0.20 -0.14,0.13 -0.23,0.27 -0.25,0.54 -0.04,0.10 -0.09,0.19 -0.10,0.22 -0.17,0.28 -0.51,0.48 -0.90,0.53 -0.12,0.01 -0.15,0.01 -0.28,0 z m 1.76,-0.26 c -0.08,-0.04 -0.12,-0.09 -0.14,-0.19 -0.04,-0.16 0.08,-0.36 0.27,-0.46 0.06,-0.03 0.08,-0.03 0.19,-0.03 0.14,0 0.17,0.01 0.24,0.08 0.05,0.05 0.07,0.09 0.07,0.16 0,0.09 -0.04,0.18 -0.15,0.28 -0.12,0.12 -0.25,0.19 -0.37,0.19 -0.05,0 -0.09,-0.01 -0.12,-0.02 z" style="fill:#ff0000;stroke:#ff0000;stroke-width:0.3px"/>
	</g>
	<g transform="translate(39,117)">
		<rect x="0" y="4" height="12" width="20" style="fill:#c2b280;stroke:#000000;stroke-width:0.3px"/>
		<line x1="0" y1="4" x2="10" y2="10" style="stroke:#000000;stroke-width:0.3px"/>
		<line x1="10" y1="10" x2="20" y2="4" style="stroke:#000000;stroke-width:0.3px"/>
		<path d="m 10.34,13.81 C 10.07,13.78 9.90,13.69 9.67,13.48 9.34,13.16 9.02,13.08 8.35,13.14 8.16,13.16 8.13,13.16 8.03,13.14 7.70,13.09 7.45,12.89 7.35,12.59 7.32,12.52 7.32,12.48 7.32,12.39 7.32,12.19 7.37,12.06 7.53,11.88 7.76,11.62 7.86,11.35 7.85,11.07 7.83,10.76 7.69,10.49 7.39,10.21 7.23,10.06 7.19,10.00 7.18,9.87 7.16,9.62 7.38,9.33 7.69,9.18 7.79,9.14 7.87,9.11 8.05,9.07 8.31,9.01 8.58,8.90 8.92,8.72 c 0.59,-0.31 0.70,-0.35 0.97,-0.42 0.34,-0.09 0.61,-0.08 0.81,0.02 0.05,0.03 0.14,0.11 0.34,0.30 0.44,0.44 0.53,0.48 0.97,0.50 0.28,0.01 0.34,0.02 0.46,0.08 0.21,0.10 0.32,0.31 0.30,0.54 -0.01,0.12 -0.04,0.21 -0.15,0.44 -0.18,0.38 -0.22,0.58 -0.15,0.80 0.01,0.04 0.05,0.11 0.08,0.15 0.18,0.26 0.20,0.31 0.22,0.46 0.01,0.08 0.01,0.11 0,0.19 -0.05,0.24 -0.20,0.42 -0.44,0.52 -0.17,0.07 -0.25,0.12 -0.34,0.20 -0.14,0.13 -0.23,0.27 -0.25,0.54 -0.04,0.10 -0.09,0.19 -0.10,0.22 -0.17,0.28 -0.51,0.48 -0.90,0.53 -0.12,0.01 -0.15,0.01 -0.28,0 z m 1.76,-0.26 c -0.08,-0.04 -0.12,-0.09 -0.14,-0.19 -0.04,-0.16 0.08,-0.36 0.27,-0.46 0.06,-0.03 0.08,-0.03 0.19,-0.03 0.14,0 0.17,0.01 0.24,0.08 0.05,0.05 0.07,0.09 0.07,0.16 0,0.09 -0.04,0.18 -0.15,0.28 -0.12,0.12 -0.25,0.19 -0.37,0.19 -0.05,0 -0.09,-0.01 -0.12,-0.02 z" style="fill:#ff0000;stroke:#ff0000;stroke-width:0.3px"/>
	</g>
	<g transform="translate(64,117)">
		<rect x="0" y="4" height="12" width="20" style="fill:#c2b280;stroke:#000000;stroke-width:0.3px"/>
		<line x1="0" y1="4" x2="10" y2="10" style="stroke:#000000;stroke-width:0.3px"/>
		<line x1="10" y1="10" x2="20" y2="4" style="stroke:#000000;stroke-width:0.3px"/>
		<path d="m 10.34,13.81 C 10.07,13.78 9.90,13.69 9.67,13.48 9.34,13.16 9.02,13.08 8.35,13.14 8.16,13.16 8.13,13.16 8.03,13.14 7.70,13.09 7.45,12.89 7.35,12.59 7.32,12.52 7.32,12.48 7.32,12.39 7.32,12.19 7.37,12.06 7.53,11.88 7.76,11.62 7.86,11.35 7.85,11.07 7.83,10.76 7.69,10.49 7.39,10.21 7.23,10.06 7.19,10.00 7.18,9.87 7.16,9.62 7.38,9.33 7.69,9.18 7.79,9.14 7.87,9.11 8.05,9.07 8.31,9.01 8.58,8.90 8.92,8.72 c 0.59,-0.31 0.70,-0.35 0.97,-0.42 0.34,-0.09 0.61,-0.08 0.81,0.02 0.05,0.03 0.14,0.11 0.34,0.30 0.44,0.44 0.53,0.48 0.97,0.50 0.28,0.01 0.34,0.02 0.46,0.08 0.21,0.10 0.32,0.31 0.30,0.54 -0.01,0.12 -0.04,0.21 -0.15,0.44 -0.18,0.38 -0.22,0.58 -0.15,0.80 0.01,0.04 0.05,0.11 0.08,0.15 0.18,0.26 0.20,0.31 0.22,0.46 0.01,0.08 0.01,0.11 0,0.19 -0.05,0.24 -0.20,0.42 -0.44,0.52 -0.17,0.07 -0.25,0.12 -0.34,0.20 -0.14,0.13 -0.23,0.27 -0.25,0.54 -0.04,0.10 -0.09,0.19 -0.10,0.22 -0.17,0.28 -0.51,0.48 -0.90,0.53 -0.12,0.01 -0.15,0.01 -0.28,0 z m 1.76,-0.26 c -0.08,-0.04 -0.12,-0.09 -0.14,-0.19 -0.04,-0.16 0.08,-0.36 0.27,-0.46 0.06,-0.03 0.08,-0.03 0.19,-0.03 0.14,0 0.17,0.01 0.24,0.08 0.05,0.05 0.07,0.09 0.07,0.16 0,0.09 -0.04,0.18 -0.15,0.28 -0.12,0.12 -0.25,0.19 -0.37,0.19 -0.05,0 -0.09,-0.01 -0.12,-0.02 z" style="fill:#ff0000;stroke:#ff0000;stroke-width:0.3px"/>
	</g>
</svg>
