<svg xmlns="http://www.w3.org/2000/svg" height="148" width="100" viewbox="0 0 100 148">
	<rect x="0" y="0" height="148" width="100" style="fill:#5d6cf3;stroke:#000000;stroke-width:0.5px"/>
	<line x1="0" y1="74" x2="100" y2="74" style="stroke:#000000;stroke-width:1px"/>
	<line x1="0" y1="111" x2="100" y2="111" style="stroke:#000000;stroke-width:1px"/>
	<g transform="translate(2,2)">
		<path d="m 4.72,25.30 H 9.63 V 9.66 q 0,-0.67 0.05,-1.42 L 5.60,11.74 Q 5.39,11.92 5.18,11.97 4.98,12.00 4.80,11.97 4.62,11.94 4.46,11.84 4.32,11.74 4.24,11.63 L 3.34,10.40 10.18,4.50 h 2.32 V 25.30 h 4.51 v 2.18 H 4.72 Z" style="fill:#000000;stroke:#000000;stroke-width:0.3px"/>
	</g>
	<g transform="translate(19,2)">
		<path d="m 11.90,18.34 q 0.35,-0.46 0.66,-0.88 0.30,-0.42 0.58,-0.83 -0.88,0.70 -1.98,1.07 -1.10,0.37 -2.34,0.37 -1.30,0 -2.46,-0.43 Q 5.20,17.20 4.32,16.37 3.44,15.52 2.91,14.30 2.40,13.07 2.40,11.49 q 0,-1.50 0.56,-2.82 0.56,-1.31 1.57,-2.29 1.01,-0.98 2.40,-1.54 1.39,-0.56 3.06,-0.56 1.65,0 2.99,0.54 1.34,0.54 2.30,1.52 0.96,0.98 1.47,2.34 Q 17.28,10.05 17.28,11.70 q 0,0.99 -0.19,1.89 -0.18,0.88 -0.53,1.74 -0.34,0.85 -0.83,1.70 -0.50,0.83 -1.12,1.71 L 9.02,26.80 q -0.21,0.30 -0.59,0.50 -0.38,0.18 -0.88,0.18 H 4.93 Z m 2.64,-6.98 q 0,-1.07 -0.35,-1.94 -0.34,-0.88 -0.94,-1.49 -0.61,-0.61 -1.46,-0.93 -0.83,-0.34 -1.84,-0.34 -1.06,0 -1.92,0.35 -0.86,0.34 -1.49,0.94 -0.62,0.61 -0.96,1.46 Q 5.25,10.27 5.25,11.28 q 0,1.09 0.30,1.95 0.32,0.85 0.90,1.44 0.59,0.59 1.42,0.90 0.85,0.30 1.89,0.30 1.15,0 2.03,-0.37 0.90,-0.38 1.50,-1.01 0.61,-0.62 0.93,-1.44 0.32,-0.82 0.32,-1.70 z" style="fill:#000000;stroke:#000000;stroke-width:0.3px"/>
	</g>
	<g transform="translate(27,43)">
		<path d="m 10.0,4.52 c 1.35,1.62 2.16,3.70 2.16,5.97 0,0.88 -0.12,1.72 -0.35,2.53 -1.19,-0.22 -2.41,-0.22 -3.62,0 -0.22,-0.80 -0.35,-1.65 -0.35,-2.53 0,-2.27 0.81,-4.35 2.16,-5.97 z m -0.02,9.07 c 0.54,0 1.08,0.05 1.61,0.14 -0.37,1.0 -0.91,1.93 -1.58,2.74 -0.67,-0.81 -1.21,-1.73 -1.58,-2.73 0.52,-0.09 1.04,-0.13 1.56,-0.13 z m -2.29,0.29 c 0.41,1.16 1.03,2.21 1.81,3.13 -1.70,1.74 -4.06,2.82 -6.69,2.82 -0.54,0 -1.07,-0.05 -1.58,-0.13 0.73,-1.97 2.13,-3.72 4.09,-4.85 0.76,-0.44 1.55,-0.76 2.36,-0.96 z m 4.62,0 c 2.35,0.60 4.47,2.11 5.78,4.38 0.27,0.47 0.49,0.95 0.67,1.43 -0.51,0.08 -1.04,0.13 -1.58,0.13 -2.62,0 -4.99,-1.08 -6.69,-2.82 0.78,-0.92 1.40,-1.98 1.81,-3.13 z m 7.41,6.37 -0.22,-0.71 c -0.20,-0.56 -0.46,-1.11 -0.76,-1.65 -1.40,-2.43 -3.67,-4.06 -6.20,-4.71 0.24,-0.86 0.36,-1.76 0.36,-2.69 0,-2.49 -0.90,-4.76 -2.40,-6.52 L 10.0,3.43 9.50,3.97 C 8.01,5.73 7.10,8.01 7.10,10.49 c 0,0.93 0.13,1.83 0.36,2.68 -0.86,0.22 -1.70,0.56 -2.51,1.03 -2.15,1.24 -3.67,3.16 -4.45,5.34 l -0.22,0.71 0.72,0.16 c 0.59,0.11 1.19,0.16 1.81,0.16 2.81,0 5.35,-1.15 7.18,-3.01 1.83,1.86 4.37,3.01 7.18,3.01 0.62,0 1.22,-0.06 1.81,-0.16 z" style="fill:#5d6cf3;stroke:#000000;stroke-width:0.45px"/>
	</g>
	<g transform="translate(52,43)">
		<circle cx="10" cy="12" r="10" style="fill:#ffd700;stroke:#000000;stroke-width:0.3px"/>
		<path d="M 19.08,2.26 12.04,11.74 19.45,21.74 H 15.67 L 10.0,14.09 4.33,21.74 H 0.55 L 8.12,11.55 1.19,2.26 h 3.78 l 5.17,6.94 5.17,-6.94 z" style="fill:#000000;stroke:#000000;stroke-width:0.3px"/>
	</g>
	<g transform="translate(27,80)">
		<circle cx="10" cy="12" r="10" style="fill:#ffd700;stroke:#000000;stroke-width:0.3px"/>
		<path d="m 11.02,4.19 v 6.77 h 6.77 v 2.07 h -6.77 v 6.77 H 8.98 V 13.03 H 2.21 V 10.97 H 8.98 V 4.19 z" style="fill:#008000;stroke:#000000;stroke-width:0.3px"/>
	</g>
	<g transform="translate(52,80)">
		<path d="m 12.65,10.76 2.73,-2.74 -1.10,-1.09 -1.10,-1.09 3.28,0 3.28,0 0.01,3.27 0.01,3.27 -1.09,-1.08 -1.09,-1.08 -2.72,2.74 -2.72,2.74 -0.63,-0.62 c -0.35,-0.34 -0.84,-0.83 -1.10,-1.08 L 9.92,13.51 z" style="fill:#000000;stroke:#000000;stroke-width:0.3px"/>
		<path d="m 10.0,4.52 c 1.35,1.62 2.16,3.70 2.16,5.97 0,0.88 -0.12,1.72 -0.35,2.53 -1.19,-0.22 -2.41,-0.22 -3.62,0 -0.22,-0.80 -0.35,-1.65 -0.35,-2.53 0,-2.27 0.81,-4.35 2.16,-5.97 z m -0.02,9.07 c 0.54,0 1.08,0.05 1.61,0.14 -0.37,1.0 -0.91,1.93 -1.58,2.74 -0.67,-0.81 -1.21,-1.73 -1.58,-2.73 0.52,-0.09 1.04,-0.13 1.56,-0.13 z m -2.29,0.29 c 0.41,1.16 1.03,2.21 1.81,3.13 -1.70,1.74 -4.06,2.82 -6.69,2.82 -0.54,0 -1.07,-0.05 -1.58,-0.13 0.73,-1.97 2.13,-3.72 4.09,-4.85 0.76,-0.44 1.55,-0.76 2.36,-0.96 z m 4.62,0 c 2.35,0.60 4.47,2.11 5.78,4.38 0.27,0.47 0.49,0.95 0.67,1.43 -0.51,0.08 -1.04,0.13 -1.58,0.13 -2.62,0 -4.99,-1.08 -6.69,-2.82 0.78,-0.92 1.40,-1.98 1.81,-3.13 z m 7.41,6.37 -0.22,-0.71 c -0.20,-0.56 -0.46,-1.11 -0.76,-1.65 -1.40,-2.43 -3.67,-4.06 -6.20,-4.71 0.24,-0.86 0.36,-1.76 0.36,-2.69 0,-2.49 -0.90,-4.76 -2.40,-6.52 L 10.0,3.43 9.50,3.97 C 8.01,5.73 7.10,8.01 7.10,10.49 c 0,0.93 0.13,1.83 0.36,2.68 -0.86,0.22 -1.70,0.56 -2.51,1.03 -2.15,1.24 -3.67,3.16 -4.45,5.34 l -0.22,0.71 0.72,0.16 c 0.59,0.11 1.19,0.16 1.81,0.16 2.81,0 5.35,-1.15 7.18,-3.01 1.83,1.86 4.37,3.01 7.18,3.01 0.62,0 1.22,-0.06 1.81,-0.16 z" style="fill:#5d6cf3;stroke:#000000;stroke-width:0.45px"/>
		<circle cx="14.11" cy="16.54" r="5.25" style="fill:#ffd700;stroke:#000000;stroke-width:0.3px"/>
		<path d="m 15.95,13.69 q 0,0.17 -0.10,0.28 -0.10,0.10 -0.35,0.10 H 13.50 l -0.29,1.66 q 0.25,-0.06 0.47,-0.08 0.23,-0.03 0.44,-0.03 0.49,0 0.88,0.15 0.38,0.15 0.63,0.40 0.26,0.26 0.38,0.60 0.13,0.35 0.13,0.76 0,0.50 -0.18,0.91 -0.17,0.41 -0.48,0.70 -0.30,0.29 -0.72,0.44 -0.41,0.15 -0.90,0.15 -0.28,0 -0.54,-0.06 -0.25,-0.05 -0.48,-0.15 -0.22,-0.09 -0.41,-0.21 -0.19,-0.12 -0.34,-0.25 l 0.24,-0.34 q 0.08,-0.11 0.21,-0.11 0.09,0 0.20,0.07 0.11,0.07 0.27,0.15 0.16,0.08 0.37,0.15 0.22,0.07 0.51,0.07 0.33,0 0.60,-0.10 0.27,-0.10 0.46,-0.30 0.19,-0.20 0.29,-0.47 0.10,-0.27 0.10,-0.61 0,-0.30 -0.09,-0.54 -0.08,-0.24 -0.26,-0.41 -0.17,-0.17 -0.43,-0.26 -0.26,-0.09 -0.61,-0.09 -0.24,0 -0.50,0.04 -0.26,0.04 -0.52,0.13 l -0.50,-0.15 0.51,-2.96 h 3.00 z" style="fill:#000000;stroke:#000000;stroke-width:0.3px"/>
	</g>
	<g transform="translate(14,117)">
		<path d="M 8.41,16.56 V 9.88 H 5.44 2.47 V 8.30 6.73 h 2.97 2.97 l 0.01,-2.98 0.01,-2.98 1.56,-0.01 1.56,-0.01 0.01,2.98 0.01,2.98 2.98,0.01 2.98,0.01 v 1.57 1.57 h -2.99 -2.99 v 6.68 6.68 H 9.98 8.41 Z" style="fill:#a0522d;stroke:#000000;stroke-width:0.3px"/>
	</g>
	<g transform="translate(39,117)">
		<path d="M 8.41,16.56 V 9.88 H 5.44 2.47 V 8.30 6.73 h 2.97 2.97 l 0.01,-2.98 0.01,-2.98 1.56,-0.01 1.56,-0.01 0.01,2.98 0.01,2.98 2.98,0.01 2.98,0.01 v 1.57 1.57 h -2.99 -2.99 v 6.68 6.68 H 9.98 8.41 Z" style="fill:#a0522d;stroke:#000000;stroke-width:0.3px"/>
	</g>
	<g transform="translate(64,117)">
		<path d="M 8.41,16.56 V 9.88 H 5.44 2.47 V 8.30 6.73 h 2.97 2.97 l 0.01,-2.98 0.01,-2.98 1.56,-0.01 1.56,-0.01 0.01,2.98 0.01,2.98 2.98,0.01 2.98,0.01 v 1.57 1.57 h -2.99 -2.99 v 6.68 6.68 H 9.98 8.41 Z" style="fill:#a0522d;stroke:#000000;stroke-width:0.3px"/>
	</g>
</svg>
