<svg xmlns="http://www.w3.org/2000/svg" height="148" width="100" viewbox="0 0 100 148">
	<rect x="0" y="0" height="148" width="100" style="fill:#ffff31;stroke:#000000;stroke-width:0.5px"/>
	<g>
		<path style="stroke:#000000;stroke-width:0.1px" d="m 23.20,12.42 h 9.22 v 1.66 h -7.25 v 4.32 h 6.94 v 1.66 h -6.94 v 5.28 h 7.42 v 1.66 h -9.39 z" />
		<path style="stroke:#000000;stroke-width:0.1px" d="m 42.73,16.38 v 1.70 q -0.76,-0.39 -1.58,-0.59 -0.82,-0.20 -1.70,-0.20 -1.34,0 -2.01,0.41 -0.66,0.41 -0.66,1.23 0,0.63 0.48,0.99 0.48,0.35 1.92,0.67 l 0.62,0.14 q 1.91,0.41 2.71,1.16 0.81,0.74 0.81,2.08 0,1.52 -1.21,2.41 -1.20,0.89 -3.31,0.89 -0.88,0 -1.84,-0.18 -0.95,-0.17 -2.00,-0.51 v -1.86 q 1.00,0.52 1.96,0.78 0.97,0.25 1.91,0.25 1.27,0 1.95,-0.43 0.68,-0.44 0.68,-1.23 0,-0.73 -0.50,-1.12 -0.49,-0.39 -2.16,-0.75 l -0.63,-0.15 q -1.67,-0.35 -2.41,-1.07 -0.74,-0.73 -0.74,-2.00 0,-1.54 1.09,-2.38 1.09,-0.84 3.11,-0.84 1.00,0 1.88,0.15 0.88,0.15 1.62,0.44 z" />
		<path style="stroke:#000000;stroke-width:0.1px" d="m 47.96,12.96 v 3.11 h 3.70 v 1.40 h -3.70 v 5.94 q 0,1.34 0.36,1.72 0.37,0.38 1.49,0.38 h 1.85 v 1.50 h -1.85 q -2.08,0 -2.87,-0.77 -0.79,-0.78 -0.79,-2.83 v -5.94 h -1.32 V 16.06 h 1.32 v -3.11 z" />
		<path style="stroke:#000000;stroke-width:0.1px" d="m 60.361328,17.740738 q -0.302734,-0.175781 -0.664062,-0.253906 -0.351563,-0.08789 -0.78125,-0.08789 -1.523438,0 -2.34375,0.996094 -0.810547,0.986328 -0.810547,2.841797 v 5.761718 h -1.806641 v -10.9375 h 1.806641 v 1.699219 q 0.566406,-0.996094 1.474609,-1.474609 0.908203,-0.488281 2.207031,-0.488281 0.185547,0 0.410157,0.0293 0.224609,0.01953 0.498046,0.06836 z" />
		<path style="stroke:#000000;stroke-width:0.1px" d="m 62.25,16.06 h 1.80 v 10.94 h -1.80 z m 0,-4.26 h 1.80 v 2.28 h -1.80 z" />
		<path style="stroke:#000000;stroke-width:0.1px" d="m 75.00,17.72 v -5.92 h 1.80 V 27.00 H 75.00 v -1.64 q -0.57,0.98 -1.44,1.46 -0.86,0.47 -2.07,0.47 -1.98,0 -3.23,-1.58 -1.24,-1.58 -1.24,-4.16 0,-2.58 1.24,-4.16 1.25,-1.58 3.23,-1.58 1.21,0 2.07,0.48 0.87,0.47 1.44,1.45 z m -6.12,3.82 q 0,1.98 0.81,3.12 0.82,1.12 2.25,1.12 1.43,0 2.25,-1.12 Q 75.00,23.52 75.00,21.54 q 0,-1.98 -0.82,-3.11 -0.82,-1.13 -2.25,-1.13 -1.43,0 -2.25,1.13 -0.81,1.12 -0.81,3.11 z" />
	</g>
	<line x1="0" y1="111" x2="100" y2="111" style="stroke:#000000;stroke-width:1px"/>
	<rect
		x="29.38"
		y="119"
		height="20.29"
		width="13.71"
		style="fill:#708090;stroke:#000000;stroke-width:1px"
	/>
	<path
		style="fill:#000000;stroke:#000000;stroke-width:0.1px"
		d="M 33.30,128.84 24.97,116.77 h 4.18 q 0.54,0 0.78,0.17 0.24,0.17 0.44,0.49 l 6.06,9.28 q 0.22,-0.68 0.64,-1.37 l 5.33,-7.82 q 0.22,-0.34 0.46,-0.54 0.27,-0.22 0.64,-0.22 h 4.01 l -8.33,11.82 8.67,12.92 h -4.18 q -0.54,0 -0.86,-0.27 -0.29,-0.29 -0.49,-0.64 l -6.23,-9.70 q -0.17,0.71 -0.51,1.27 l -5.77,8.43 q -0.24,0.34 -0.54,0.64 -0.27,0.27 -0.76,0.27 h -3.88 z"
	/>
	<path
		style="fill:#000000;stroke:#000000;stroke-width:0.1px"
		d="m 66.37,127.27 h 1.85 v 0.86 q 0,0.13 -0.09,0.23 -0.07,0.10 -0.24,0.10 h -1.52 v 3.21 h -1.32 v -3.21 h -5.41 q -0.17,0 -0.30,-0.10 -0.12,-0.10 -0.16,-0.24 l -0.16,-0.78 5.93,-7.88 h 1.41 z m -1.32,-5.03 q 0,-0.22 0.01,-0.47 0.01,-0.27 0.06,-0.53 l -4.44,6.04 h 4.38 z"
	/>
	<path
		style="fill:#008000;stroke:#000000;stroke-width:0.1px"
		d="m 57.76,120.64 c -0.85,0.27 -1.51,0.57 -2.33,1.17 -0.11,0.11 -0.22,0.22 -0.33,0.32 0.01,0.02 0.02,0.06 0.06,0.11 0.05,0.09 0.13,0.19 0.24,0.30 -0.17,0.27 -0.32,0.55 -0.46,0.81 -0.18,-0.15 -0.34,-0.32 -0.47,-0.50 -0.38,0.47 -0.70,0.96 -1.00,1.48 0.02,0.07 0.07,0.17 0.18,0.28 0.12,0.13 0.33,0.28 0.57,0.40 -0.10,0.30 -0.18,0.60 -0.26,0.89 -0.36,-0.16 -0.69,-0.38 -0.96,-0.64 -0.28,0.67 -0.51,1.39 -0.64,2.11 0.06,0.12 0.17,0.23 0.35,0.34 0.24,0.17 0.61,0.30 0.98,0.38 0,0.32 0.01,0.62 0.04,0.92 -0.56,-0.07 -1.09,-0.26 -1.52,-0.55 0,0 -0.01,0 -0.01,0 -0.07,0.77 -0.04,1.51 0.05,2.24 0.12,0.17 0.30,0.29 0.57,0.39 0.36,0.12 0.85,0.17 1.35,0.12 0.10,0.29 0.21,0.58 0.33,0.88 -0.68,0.10 -1.37,0.07 -1.97,-0.12 -0.02,-0.01 -0.02,-0.01 -0.05,-0.02 0.19,0.75 0.47,1.47 0.81,2.15 0.17,0.13 0.41,0.21 0.72,0.22 0.45,0.02 1.02,-0.09 1.58,-0.32 0.17,0.26 0.38,0.51 0.57,0.74 -0.72,0.33 -1.47,0.52 -2.19,0.47 0.49,0.72 1.06,1.36 1.70,1.93 0.21,0.07 0.45,0.07 0.75,0.01 0.47,-0.09 1.02,-0.36 1.51,-0.73 0,0 0,0 0,0 0.26,0.19 0.51,0.38 0.77,0.55 -0.58,0.47 -1.25,0.86 -1.92,1.03 0.57,0.38 1.17,0.72 1.81,0.98 0.24,0.02 0.50,-0.05 0.79,-0.18 0.38,-0.18 0.77,-0.50 1.12,-0.89 0.83,0.33 1.69,0.55 2.55,0.62 l 0.09,-0.91 c -0.69,-0.07 -1.39,-0.23 -2.07,-0.49 0.33,-0.53 0.57,-1.12 0.62,-1.63 0.06,-0.44 0,-0.78 -0.18,-1.05 -0.39,-0.07 -0.77,-0.19 -1.13,-0.34 -0.01,0.32 -0.07,0.63 -0.21,0.92 -0.18,0.44 -0.46,0.86 -0.80,1.25 -0.27,-0.16 -0.52,-0.33 -0.78,-0.52 0.33,-0.35 0.58,-0.72 0.73,-1.08 0.18,-0.45 0.21,-0.80 0.02,-1.11 -0.38,-0.24 -0.73,-0.52 -1.06,-0.84 -0.09,0.21 -0.21,0.41 -0.34,0.58 -0.27,0.35 -0.62,0.67 -1.01,0.91 -0.19,-0.22 -0.39,-0.46 -0.57,-0.72 0.34,-0.22 0.64,-0.49 0.85,-0.75 0.24,-0.33 0.35,-0.61 0.32,-0.88 -0.24,-0.33 -0.46,-0.67 -0.66,-1.02 -0.12,0.12 -0.24,0.25 -0.38,0.35 -0.33,0.26 -0.72,0.45 -1.14,0.58 -0.12,-0.27 -0.24,-0.56 -0.34,-0.85 0.36,-0.12 0.68,-0.27 0.92,-0.46 0.27,-0.21 0.43,-0.41 0.46,-0.64 -0.15,-0.38 -0.27,-0.79 -0.36,-1.22 -0.09,0.06 -0.18,0.10 -0.27,0.13 -0.38,0.15 -0.77,0.22 -1.18,0.23 -0.04,-0.30 -0.06,-0.61 -0.06,-0.91 0.34,-0.02 0.66,-0.07 0.90,-0.17 0.22,-0.07 0.38,-0.17 0.46,-0.29 -0.05,-0.47 -0.07,-0.96 -0.04,-1.46 -0.02,0.01 -0.06,0.01 -0.10,0.01 -0.32,0.04 -0.66,0.01 -1.00,-0.06 0.07,-0.29 0.16,-0.58 0.25,-0.88 0.23,0.04 0.46,0.06 0.64,0.04 0.12,-0.02 0.22,-0.04 0.29,-0.07 0.07,-0.44 0.17,-0.86 0.29,-1.26 -0.21,-0.04 -0.41,-0.10 -0.60,-0.18 0.13,-0.27 0.28,-0.53 0.45,-0.80 0.12,0.05 0.22,0.07 0.33,0.10 0.06,0.01 0.10,0.01 0.13,0.01 0.09,-0.22 0.19,-0.44 0.32,-0.66 0.28,-0.57 0.60,-1.18 0.81,-1.85 z m 11.87,0 c 0.22,0.67 0.53,1.26 0.83,1.85 0.11,0.22 0.22,0.43 0.30,0.67 0.04,0 0.07,-0.01 0.13,-0.01 0.10,-0.02 0.21,-0.05 0.33,-0.10 0.17,0.27 0.32,0.53 0.46,0.80 -0.19,0.09 -0.39,0.16 -0.60,0.18 0.12,0.41 0.22,0.83 0.29,1.26 0.07,0.02 0.17,0.06 0.29,0.07 0.18,0.02 0.41,0.01 0.64,-0.04 0.10,0.29 0.17,0.58 0.24,0.88 -0.33,0.07 -0.67,0.10 -0.98,0.07 -0.02,0 -0.07,-0.01 -0.10,-0.01 0.02,0.49 0.01,0.97 -0.04,1.46 0.09,0.12 0.23,0.22 0.46,0.30 0.24,0.10 0.56,0.16 0.90,0.17 0,0.30 -0.02,0.62 -0.05,0.91 -0.41,-0.02 -0.81,-0.09 -1.18,-0.23 -0.10,-0.04 -0.19,-0.09 -0.28,-0.13 -0.09,0.43 -0.22,0.81 -0.36,1.22 0.04,0.23 0.18,0.43 0.46,0.64 0.23,0.18 0.57,0.34 0.92,0.46 -0.10,0.29 -0.22,0.57 -0.34,0.85 -0.43,-0.13 -0.81,-0.33 -1.13,-0.58 -0.13,-0.11 -0.27,-0.22 -0.38,-0.35 -0.19,0.36 -0.43,0.70 -0.66,1.02 -0.04,0.27 0.07,0.56 0.32,0.88 0.21,0.27 0.50,0.52 0.85,0.77 -0.17,0.24 -0.38,0.49 -0.57,0.72 -0.39,-0.27 -0.73,-0.57 -1.00,-0.91 -0.13,-0.18 -0.26,-0.38 -0.34,-0.58 -0.33,0.32 -0.68,0.60 -1.06,0.84 -0.17,0.30 -0.16,0.67 0.02,1.12 0.15,0.35 0.40,0.73 0.72,1.08 -0.24,0.18 -0.50,0.36 -0.77,0.52 -0.34,-0.38 -0.62,-0.81 -0.80,-1.25 -0.12,-0.29 -0.19,-0.62 -0.21,-0.92 -0.36,0.15 -0.74,0.27 -1.14,0.34 -0.18,0.26 -0.24,0.60 -0.18,1.05 0.07,0.50 0.29,1.08 0.63,1.63 -0.68,0.26 -1.37,0.43 -2.07,0.49 l 0.09,0.91 c 0.86,-0.07 1.73,-0.29 2.55,-0.62 0.35,0.39 0.75,0.70 1.12,0.89 0.29,0.15 0.56,0.22 0.79,0.18 0.64,-0.27 1.25,-0.60 1.81,-0.98 -0.67,-0.17 -1.34,-0.55 -1.92,-1.03 0.27,-0.17 0.52,-0.35 0.77,-0.55 0.50,0.38 1.05,0.63 1.51,0.73 0.29,0.06 0.53,0.06 0.74,-0.01 0.64,-0.57 1.22,-1.22 1.70,-1.93 -0.72,0.05 -1.48,-0.15 -2.20,-0.47 0.21,-0.23 0.39,-0.49 0.57,-0.74 0.55,0.22 1.12,0.34 1.58,0.32 0.32,-0.02 0.55,-0.09 0.72,-0.22 0.35,-0.68 0.62,-1.41 0.81,-2.15 -0.02,0.01 -0.02,0.01 -0.05,0.02 -0.61,0.21 -1.30,0.23 -1.97,0.12 0.12,-0.28 0.23,-0.57 0.33,-0.88 0.50,0.05 0.98,0.01 1.35,-0.12 0.28,-0.10 0.47,-0.22 0.58,-0.39 0.10,-0.72 0.12,-1.47 0.05,-2.22 0,0 0,0 -0.01,0 -0.44,0.28 -0.97,0.46 -1.52,0.55 0.02,-0.30 0.04,-0.62 0.04,-0.92 0.38,-0.07 0.74,-0.22 0.98,-0.27 0.17,-0.26 0.28,-0.36 0.34,-0.49 -0.13,-0.73 -0.36,-1.45 -0.64,-2.11 -0.27,0.27 -0.60,0.49 -0.96,0.64 -0.07,-0.29 -0.16,-0.58 -0.26,-0.89 0.23,-0.12 0.44,-0.27 0.57,-0.40 0.11,-0.12 0.17,-0.21 0.18,-0.28 -0.29,-0.52 -0.62,-1.02 -1.00,-1.48 -0.12,0.18 -0.28,0.35 -0.47,0.50 -0.13,-0.27 -0.28,-0.53 -0.46,-0.81 0.10,-0.10 0.19,-0.22 0.24,-0.30 0.02,-0.05 0.05,-0.07 0.06,-0.11 -0.11,-0.10 -0.22,-0.21 -0.33,-0.32 -0.81,-0.60 -1.48,-0.90 -2.33,-1.17 z"
	/>
	<polygon
		style="fill:#d0f0c0;stroke:#000000;stroke-width:1px"
		points="50.00,102.00, 77.71,86.00 77.71,54.00 50.00,38.0 22.29,54.00 22.29,86.00"
	/>
	<path
		style="fill:#a0522d;stroke:#000000;stroke-width:0.5px"
		d="m 38.92,51.65 a 8.47,8.47 0 0 0 -8.71,8.47 8.47,8.47 0 1 0 16.94,0 8.47,8.47 0 0 0 -8.23,-8.47 z m -0.20,0.40 0.39,0.23 v 0.46 l -0.39,0.22 -0.39,-0.22 v -0.46 z m 0.15,1.29 a 6.77,6.77 0 0 1 6.58,6.77 6.78,6.78 0 0 1 -13.56,0 6.77,6.77 0 0 1 6.97,-6.77 z m -0.51,0.88 a 5.90,5.90 0 0 0 -2.88,0.93 v 9.92 a 5.90,5.90 0 0 0 2.88,0.93 z m 0.78,0.02 v 11.75 a 5.90,5.90 0 0 0 2.81,-0.97 v -9.82 a 5.90,5.90 0 0 0 -2.81,-0.97 z m -4.43,1.52 a 5.90,5.90 0 0 0 -1.93,4.36 5.90,5.90 0 0 0 1.93,4.36 z m -2.69,0.07 0.39,0.23 v 0.46 L 32.03,56.74 31.64,56.51 V 56.05 Z m 13.27,0 0.39,0.23 v 0.46 L 45.30,56.74 44.91,56.51 V 56.05 Z m -2.57,0 v 8.57 a 5.90,5.90 0 0 0 1.85,-4.29 5.90,5.90 0 0 0 -1.85,-4.28 z m 2.56,7.65 0.39,0.22 v 0.46 l -0.39,0.23 -0.39,-0.23 v -0.46 z m -13.24,0.04 0.39,0.23 v 0.46 l -0.40,0.23 -0.39,-0.23 v -0.46 l 0.39,-0.22 z m 6.62,3.76 0.39,0.23 v 0.46 l -0.40,0.23 -0.39,-0.23 v -0.46 l 0.39,-0.23 z"
	/>
	<path
		style="fill:#a0522d;stroke:#000000;stroke-width:0.5px"
		d="m 49.28,73.08 a 8.47,8.47 0 0 0 -8.71,8.47 8.47,8.47 0 1 0 16.94,0 8.47,8.47 0 0 0 -8.23,-8.47 z m -0.20,0.40 0.39,0.23 v 0.46 l -0.39,0.22 -0.39,-0.22 v -0.46 z m 0.15,1.29 a 6.77,6.77 0 0 1 6.58,6.77 6.78,6.78 0 0 1 -13.56,0 6.77,6.77 0 0 1 6.97,-6.77 z m -0.51,0.88 a 5.90,5.90 0 0 0 -2.88,0.93 v 9.92 a 5.90,5.90 0 0 0 2.88,0.93 z m 0.78,0.02 v 11.75 a 5.90,5.90 0 0 0 2.81,-0.97 v -9.82 a 5.90,5.90 0 0 0 -2.81,-0.97 z m -4.43,1.52 a 5.90,5.90 0 0 0 -1.93,4.36 5.90,5.90 0 0 0 1.93,4.36 z m -2.69,0.07 0.39,0.23 v 0.46 l -0.39,0.23 -0.39,-0.23 v -0.46 z m 13.27,0 0.39,0.23 v 0.46 l -0.39,0.23 -0.39,-0.23 v -0.46 z m -2.57,0 v 8.57 a 5.90,5.90 0 0 0 1.85,-4.29 5.90,5.90 0 0 0 -1.85,-4.28 z m 2.56,7.65 0.39,0.22 v 0.46 l -0.39,0.23 -0.39,-0.23 v -0.46 z m -13.24,0.04 0.39,0.23 v 0.46 l -0.40,0.23 -0.39,-0.23 v -0.46 l 0.39,-0.22 z m 6.62,3.76 0.39,0.23 v 0.46 l -0.40,0.23 -0.39,-0.23 v -0.46 l 0.39,-0.23 z"
	/>
	<path
		style="fill:#a0522d;stroke:#000000;stroke-width:0.5px"
		d="m 63.29,53.51 a 8.47,8.47 0 0 0 -8.71,8.47 8.47,8.47 0 1 0 16.94,0 8.47,8.47 0 0 0 -8.23,-8.47 z m -0.20,0.40 0.39,0.23 v 0.46 l -0.39,0.22 -0.39,-0.22 v -0.46 z m 0.15,1.29 a 6.77,6.77 0 0 1 6.58,6.77 6.78,6.78 0 0 1 -13.56,0 6.77,6.77 0 0 1 6.97,-6.77 z m -0.51,0.88 a 5.90,5.90 0 0 0 -2.88,0.93 v 9.92 a 5.90,5.90 0 0 0 2.88,0.93 z m 0.78,0.02 v 11.75 a 5.90,5.90 0 0 0 2.81,-0.97 v -9.82 a 5.90,5.90 0 0 0 -2.81,-0.97 z m -4.43,1.52 a 5.90,5.90 0 0 0 -1.93,4.36 5.90,5.90 0 0 0 1.93,4.36 z m -2.69,0.07 0.39,0.23 v 0.46 l -0.39,0.23 -0.39,-0.23 v -0.46 z m 13.27,0 0.39,0.23 v 0.46 l -0.39,0.23 -0.39,-0.23 v -0.46 z m -2.57,0 v 8.57 a 5.90,5.90 0 0 0 1.85,-4.29 5.90,5.90 0 0 0 -1.85,-4.28 z m 2.56,7.65 0.39,0.22 v 0.46 l -0.39,0.23 -0.39,-0.23 v -0.46 z m -13.24,0.04 0.39,0.23 v 0.46 l -0,0.23 -0.39,-0.23 v -0.46 l 0.39,-0.22 z m 6.62,3.76 0.39,0.23 v 0.46 l -0.40,0.23 -0.39,-0.23 v -0.46 l 0.40,-0.23 z"
	/>
</svg>
