<svg xmlns="http://www.w3.org/2000/svg" height="148" width="100" viewbox="0 0 100 148">
	<rect x="0" y="0" height="148" width="100" style="fill:#ff2400;stroke:#000000;stroke-width:0.5px"/>
	<line x1="0" y1="74" x2="100" y2="74" style="stroke:#000000;stroke-width:1px"/>
	<line x1="0" y1="111" x2="100" y2="111" style="stroke:#000000;stroke-width:1px"/>
	<g transform="translate(2,2)">
		<path d="m 4.72,25.30 H 9.63 V 9.66 q 0,-0.67 0.05,-1.42 L 5.60,11.74 Q 5.39,11.92 5.18,11.97 4.98,12.00 4.80,11.97 4.62,11.94 4.46,11.84 4.32,11.74 4.24,11.63 L 3.34,10.40 10.18,4.50 h 2.32 V 25.30 h 4.51 v 2.18 H 4.72 Z" style="fill:#000000;stroke:#000000;stroke-width:0.3px"/>
	</g>
	<g transform="translate(19,2)">
		<path d="m 16.43,5.79 q 0,0.61 -0.38,1.01 -0.37,0.38 -1.28,0.38 h -7.20 L 6.51,13.20 q 0.91,-0.21 1.71,-0.29 0.82,-0.10 1.58,-0.10 1.79,0 3.17,0.53 1.38,0.53 2.29,1.46 0.93,0.93 1.39,2.19 0.48,1.26 0.48,2.75 0,1.82 -0.64,3.30 -0.62,1.47 -1.74,2.53 -1.10,1.04 -2.61,1.60 -1.50,0.56 -3.25,0.56 -1.01,0 -1.94,-0.21 Q 6.03,27.33 5.22,26.99 4.42,26.66 3.73,26.22 3.04,25.79 2.51,25.31 l 0.88,-1.22 Q 3.68,23.68 4.14,23.68 q 0.32,0 0.72,0.26 0.40,0.24 0.98,0.54 0.58,0.30 1.34,0.56 0.78,0.24 1.86,0.24 1.20,0 2.16,-0.38 0.96,-0.38 1.65,-1.09 0.69,-0.72 1.06,-1.71 0.37,-0.99 0.37,-2.22 0,-1.07 -0.32,-1.94 -0.30,-0.86 -0.94,-1.47 -0.62,-0.61 -1.57,-0.94 -0.94,-0.34 -2.21,-0.34 -0.86,0 -1.81,0.14 -0.93,0.14 -1.90,0.46 L 3.73,15.26 5.57,4.54 h 10.86 z" style="fill:#000000;stroke:#000000;stroke-width:0.3px"/>
	</g>
	<g transform="translate(39,43)">
		<path d="m 10.0,4.52 c 1.35,1.62 2.16,3.70 2.16,5.97 0,0.88 -0.12,1.72 -0.35,2.53 -1.19,-0.22 -2.41,-0.22 -3.62,0 -0.22,-0.80 -0.35,-1.65 -0.35,-2.53 0,-2.27 0.81,-4.35 2.16,-5.97 z m -0.02,9.07 c 0.54,0 1.08,0.05 1.61,0.14 -0.37,1.0 -0.91,1.93 -1.58,2.74 -0.67,-0.81 -1.21,-1.73 -1.58,-2.73 0.52,-0.09 1.04,-0.13 1.56,-0.13 z m -2.29,0.29 c 0.41,1.16 1.03,2.21 1.81,3.13 -1.70,1.74 -4.06,2.82 -6.69,2.82 -0.54,0 -1.07,-0.05 -1.58,-0.13 0.73,-1.97 2.13,-3.72 4.09,-4.85 0.76,-0.44 1.55,-0.76 2.36,-0.96 z m 4.62,0 c 2.35,0.60 4.47,2.11 5.78,4.38 0.27,0.47 0.49,0.95 0.67,1.43 -0.51,0.08 -1.04,0.13 -1.58,0.13 -2.62,0 -4.99,-1.08 -6.69,-2.82 0.78,-0.92 1.40,-1.98 1.81,-3.13 z m 7.41,6.37 -0.22,-0.71 c -0.20,-0.56 -0.46,-1.11 -0.76,-1.65 -1.40,-2.43 -3.67,-4.06 -6.20,-4.71 0.24,-0.86 0.36,-1.76 0.36,-2.69 0,-2.49 -0.90,-4.76 -2.40,-6.52 L 10.0,3.43 9.50,3.97 C 8.01,5.73 7.10,8.01 7.10,10.49 c 0,0.93 0.13,1.83 0.36,2.68 -0.86,0.22 -1.70,0.56 -2.51,1.03 -2.15,1.24 -3.67,3.16 -4.45,5.34 l -0.22,0.71 0.72,0.16 c 0.59,0.11 1.19,0.16 1.81,0.16 2.81,0 5.35,-1.15 7.18,-3.01 1.83,1.86 4.37,3.01 7.18,3.01 0.62,0 1.22,-0.06 1.81,-0.16 z" style="fill:#6495ed;stroke:#000000;stroke-width:0.45px"/>
	</g>
	<g transform="translate(27,80)">
		<circle cx="10" cy="12" r="10" style="fill:#ffd700;stroke:#000000;stroke-width:0.3px"/>
		<path d="m 11.02,4.19 v 6.77 h 6.77 v 2.07 h -6.77 v 6.77 H 8.98 V 13.03 H 2.21 V 10.97 H 8.98 V 4.19 z" style="fill:#008000;stroke:#000000;stroke-width:0.3px"/>
	</g>
	<g transform="translate(52,80)">
		<path d="m 12.65,10.76 2.73,-2.74 -1.10,-1.09 -1.10,-1.09 3.28,0 3.28,0 0.01,3.27 0.01,3.27 -1.09,-1.08 -1.09,-1.08 -2.72,2.74 -2.72,2.74 -0.63,-0.62 c -0.35,-0.34 -0.84,-0.83 -1.10,-1.08 L 9.92,13.51 z" style="fill:#000000;stroke:#000000;stroke-width:0.3px"/>
		<path d="m 10.0,4.52 c 1.35,1.62 2.16,3.70 2.16,5.97 0,0.88 -0.12,1.72 -0.35,2.53 -1.19,-0.22 -2.41,-0.22 -3.62,0 -0.22,-0.80 -0.35,-1.65 -0.35,-2.53 0,-2.27 0.81,-4.35 2.16,-5.97 z m -0.02,9.07 c 0.54,0 1.08,0.05 1.61,0.14 -0.37,1.0 -0.91,1.93 -1.58,2.74 -0.67,-0.81 -1.21,-1.73 -1.58,-2.73 0.52,-0.09 1.04,-0.13 1.56,-0.13 z m -2.29,0.29 c 0.41,1.16 1.03,2.21 1.81,3.13 -1.70,1.74 -4.06,2.82 -6.69,2.82 -0.54,0 -1.07,-0.05 -1.58,-0.13 0.73,-1.97 2.13,-3.72 4.09,-4.85 0.76,-0.44 1.55,-0.76 2.36,-0.96 z m 4.62,0 c 2.35,0.60 4.47,2.11 5.78,4.38 0.27,0.47 0.49,0.95 0.67,1.43 -0.51,0.08 -1.04,0.13 -1.58,0.13 -2.62,0 -4.99,-1.08 -6.69,-2.82 0.78,-0.92 1.40,-1.98 1.81,-3.13 z m 7.41,6.37 -0.22,-0.71 c -0.20,-0.56 -0.46,-1.11 -0.76,-1.65 -1.40,-2.43 -3.67,-4.06 -6.20,-4.71 0.24,-0.86 0.36,-1.76 0.36,-2.69 0,-2.49 -0.90,-4.76 -2.40,-6.52 L 10.0,3.43 9.50,3.97 C 8.01,5.73 7.10,8.01 7.10,10.49 c 0,0.93 0.13,1.83 0.36,2.68 -0.86,0.22 -1.70,0.56 -2.51,1.03 -2.15,1.24 -3.67,3.16 -4.45,5.34 l -0.22,0.71 0.72,0.16 c 0.59,0.11 1.19,0.16 1.81,0.16 2.81,0 5.35,-1.15 7.18,-3.01 1.83,1.86 4.37,3.01 7.18,3.01 0.62,0 1.22,-0.06 1.81,-0.16 z" style="fill:#6495ed;stroke:#000000;stroke-width:0.45px"/>
		<circle cx="14.11" cy="16.54" r="5.25" style="fill:#ffd700;stroke:#000000;stroke-width:0.3px"/>
		<path d="m 15.95,13.69 q 0,0.17 -0.10,0.28 -0.10,0.10 -0.35,0.10 H 13.50 l -0.29,1.66 q 0.25,-0.06 0.47,-0.08 0.23,-0.03 0.44,-0.03 0.49,0 0.88,0.15 0.38,0.15 0.63,0.40 0.26,0.26 0.38,0.60 0.13,0.35 0.13,0.76 0,0.50 -0.18,0.91 -0.17,0.41 -0.48,0.70 -0.30,0.29 -0.72,0.44 -0.41,0.15 -0.90,0.15 -0.28,0 -0.54,-0.06 -0.25,-0.05 -0.48,-0.15 -0.22,-0.09 -0.41,-0.21 -0.19,-0.12 -0.34,-0.25 l 0.24,-0.34 q 0.08,-0.11 0.21,-0.11 0.09,0 0.20,0.07 0.11,0.07 0.27,0.15 0.16,0.08 0.37,0.15 0.22,0.07 0.51,0.07 0.33,0 0.60,-0.10 0.27,-0.10 0.46,-0.30 0.19,-0.20 0.29,-0.47 0.10,-0.27 0.10,-0.61 0,-0.30 -0.09,-0.54 -0.08,-0.24 -0.26,-0.41 -0.17,-0.17 -0.43,-0.26 -0.26,-0.09 -0.61,-0.09 -0.24,0 -0.50,0.04 -0.26,0.04 -0.52,0.13 l -0.50,-0.15 0.51,-2.96 h 3.00 z" style="fill:#000000;stroke:#000000;stroke-width:0.3px"/>
	</g>
	<g transform="translate(14,117)">
		<path d="m 11.0,2.77 -1.38,2.11 3.19,2.06 2.22,5.15 c 0.22,-0.10 0.53,-0.27 0.87,-0.51 0.51,-0.35 1.08,-0.83 1.61,-1.37 0.53,-0.54 1.00,-1.13 1.30,-1.70 0.26,-0.50 0.39,-0.98 0.36,-1.39 L 14.11,4.79 Z" style="fill:#708090;stroke:#000000;stroke-width:0.3px"/>
		<path d="M 9.66,5.76 C 6.35,10.34 4.10,14.76 0.84,19.86 c 0,0 0,0 0.01,0.02 0.01,0.04 0.06,0.14 0.14,0.23 0.16,0.20 0.45,0.45 0.77,0.66 0.31,0.20 0.66,0.37 0.91,0.43 0.13,0.03 0.23,0.04 0.27,0.03 0.01,0 0.01,0 0.02,0 0.88,-1.35 1.27,-1.95 1.92,-4.39 l 0.01,-0.05 0.03,-0.04 c 2.41,-3.89 3.38,-6.25 6.17,-10.06 z" style="fill:#a0522d;stroke:#000000;stroke-width:0.3px"/>
	</g>
	<g transform="translate(39,117)">
		<path d="m 11.0,2.77 -1.38,2.11 3.19,2.06 2.22,5.15 c 0.22,-0.10 0.53,-0.27 0.87,-0.51 0.51,-0.35 1.08,-0.83 1.61,-1.37 0.53,-0.54 1.00,-1.13 1.30,-1.70 0.26,-0.50 0.39,-0.98 0.36,-1.39 L 14.11,4.79 Z" style="fill:#708090;stroke:#000000;stroke-width:0.3px"/>
		<path d="M 9.66,5.76 C 6.35,10.34 4.10,14.76 0.84,19.86 c 0,0 0,0 0.01,0.02 0.01,0.04 0.06,0.14 0.14,0.23 0.16,0.20 0.45,0.45 0.77,0.66 0.31,0.20 0.66,0.37 0.91,0.43 0.13,0.03 0.23,0.04 0.27,0.03 0.01,0 0.01,0 0.02,0 0.88,-1.35 1.27,-1.95 1.92,-4.39 l 0.01,-0.05 0.03,-0.04 c 2.41,-3.89 3.38,-6.25 6.17,-10.06 z" style="fill:#a0522d;stroke:#000000;stroke-width:0.3px"/>
	</g>
	<g transform="translate(64,117)">
		<path d="m 11.0,2.77 -1.38,2.11 3.19,2.06 2.22,5.15 c 0.22,-0.10 0.53,-0.27 0.87,-0.51 0.51,-0.35 1.08,-0.83 1.61,-1.37 0.53,-0.54 1.00,-1.13 1.30,-1.70 0.26,-0.50 0.39,-0.98 0.36,-1.39 L 14.11,4.79 Z" style="fill:#708090;stroke:#000000;stroke-width:0.3px"/>
		<path d="M 9.66,5.76 C 6.35,10.34 4.10,14.76 0.84,19.86 c 0,0 0,0 0.01,0.02 0.01,0.04 0.06,0.14 0.14,0.23 0.16,0.20 0.45,0.45 0.77,0.66 0.31,0.20 0.66,0.37 0.91,0.43 0.13,0.03 0.23,0.04 0.27,0.03 0.01,0 0.01,0 0.02,0 0.88,-1.35 1.27,-1.95 1.92,-4.39 l 0.01,-0.05 0.03,-0.04 c 2.41,-3.89 3.38,-6.25 6.17,-10.06 z" style="fill:#a0522d;stroke:#000000;stroke-width:0.3px"/>
	</g>
</svg>
