<svg xmlns="http://www.w3.org/2000/svg" height="148" width="100" viewbox="0 0 100 148">
	<rect x="0" y="0" height="148" width="100" style="fill:#6495ed;stroke:#000000;stroke-width:0.5px"/>
	<rect x="5" y="29" height="18" width="18" style="fill:#ffff31;stroke:#000000;stroke-width:0.3px" />
	<rect x="23" y="29" height="18" width="18" style="fill:#ff2400;stroke:#000000;stroke-width:0.3px" />
	<rect x="41" y="29" height="18" width="18" style="fill:#6495ed;stroke:#000000;stroke-width:0.3px" />
	<rect x="59" y="29" height="18" width="18" style="fill:#ffff31;stroke:#000000;stroke-width:0.3px" />
	<rect x="77" y="29" height="18" width="18" style="fill:#ff2400;stroke:#000000;stroke-width:0.3px" />
	<rect x="5" y="47" height="18" width="18" style="fill:#6495ed;stroke:#000000;stroke-width:0.3px" />
	<rect x="23" y="47" height="18" width="18" style="fill:#ffff31;stroke:#000000;stroke-width:0.3px" />
	<rect x="41" y="47" height="18" width="18" style="fill:#ff2400;stroke:#000000;stroke-width:0.3px" />
	<rect x="59" y="47" height="18" width="18" style="fill:#6495ed;stroke:#000000;stroke-width:0.3px" />
	<rect x="77" y="47" height="18" width="18" style="fill:#ffff31;stroke:#000000;stroke-width:0.3px" />
	<rect x="5" y="65" height="18" width="18" style="fill:#ff2400;stroke:#000000;stroke-width:0.3px" />
	<rect x="23" y="65" height="18" width="18" style="fill:#6495ed;stroke:#000000;stroke-width:0.3px" />
	<rect x="41" y="65" height="18" width="18" style="fill:#fffff0;stroke:#000000;stroke-width:0.3px" />
	<rect x="59" y="65" height="18" width="18" style="fill:#ffff31;stroke:#000000;stroke-width:0.3px" />
	<rect x="77" y="65" height="18" width="18" style="fill:#ff2400;stroke:#000000;stroke-width:0.3px" />
	<rect x="5" y="83" height="18" width="18" style="fill:#6495ed;stroke:#000000;stroke-width:0.3px" />
	<rect x="23" y="83" height="18" width="18" style="fill:#ffff31;stroke:#000000;stroke-width:0.3px" />
	<rect x="41" y="83" height="18" width="18" style="fill:#ff2400;stroke:#000000;stroke-width:0.3px" />
	<rect x="59" y="83" height="18" width="18" style="fill:#6495ed;stroke:#000000;stroke-width:0.3px" />
	<rect x="77" y="83" height="18" width="18" style="fill:#fffff0;stroke:#000000;stroke-width:0.3px" />
	<rect x="5" y="101" height="18" width="18" style="fill:#fffff0;stroke:#000000;stroke-width:0.3px" />
	<rect x="23" y="101" height="18" width="18" style="fill:#fffff0;stroke:#000000;stroke-width:0.3px" />
	<rect x="41" y="101" height="18" width="18" style="fill:#ffff31;stroke:#000000;stroke-width:0.3px" />
	<rect x="59" y="101" height="18" width="18" style="fill:#ff2400;stroke:#000000;stroke-width:0.3px" />
	<rect x="77" y="101" height="18" width="18" style="fill:#6495ed;stroke:#000000;stroke-width:0.3px" />
	<path
		style="fill:#000000;stroke:#000000;stroke-width:0.3px"
		d="m 11.613,42.074 h 2.149 v -6.839 q 0,-0.294 0.021,-0.623 l -1.785,1.533 q -0.091,0.077 -0.182,0.098 -0.091,0.014 -0.168,0 -0.077,-0.014 -0.147,-0.056 -0.063,-0.042 -0.098,-0.091 l -0.392,-0.539 2.989,-2.583 h 1.015 v 9.1 h 1.974 v 0.952 h -5.376 z"
	/>
	<path
		style="fill:#000000;stroke:#000000;stroke-width:0.3px"
		d="m 32.133,32.928499 q 0.637,0 1.19,0.189 0.553,0.189 0.959,0.553 0.406,0.357 0.637,0.875 0.231,0.518 0.231,1.176 0,0.56 -0.168,1.043 -0.168,0.476 -0.455,0.91 -0.287,0.434 -0.665,0.847 -0.371,0.413 -0.791,0.833 l -2.646,2.702 q 0.28,-0.077 0.567,-0.119 0.287,-0.049 0.553,-0.049 h 3.36 q 0.203,0 0.322,0.119 0.119,0.119 0.119,0.308 v 0.756 h -6.692 v -0.427 q 0,-0.133 0.056,-0.273 0.056,-0.14 0.175,-0.259 l 3.213,-3.227 q 0.399,-0.406 0.728,-0.777 0.329,-0.378 0.56,-0.756 0.231,-0.378 0.357,-0.763 0.126,-0.392 0.126,-0.833 0,-0.441 -0.14,-0.77 -0.14,-0.336 -0.385,-0.553 -0.238,-0.217 -0.567,-0.322 -0.329,-0.112 -0.707,-0.112 -0.385,0 -0.707,0.112 -0.322,0.112 -0.574,0.315 -0.245,0.196 -0.413,0.469 -0.168,0.273 -0.238,0.602 -0.084,0.245 -0.231,0.329 -0.14,0.077 -0.399,0.042 l -0.651,-0.112 q 0.098,-0.686 0.378,-1.211 0.287,-0.532 0.714,-0.889 0.434,-0.357 0.987,-0.539 0.553,-0.189 1.197,-0.189 z"
	/>
	<path
		style="fill:#000000;stroke:#000000;stroke-width:0.3px"
		d="m 50.217,32.872499 q 0.637,0 1.176,0.182 0.539,0.182 0.924,0.518 0.392,0.336 0.609,0.812 0.217,0.476 0.217,1.057 0,0.476 -0.126,0.854 -0.119,0.371 -0.35,0.658 -0.224,0.28 -0.546,0.476 -0.322,0.196 -0.721,0.315 0.98,0.259 1.47,0.868 0.497,0.609 0.497,1.526 0,0.693 -0.266,1.246 -0.259,0.553 -0.714,0.945 -0.455,0.385 -1.064,0.595 -0.602,0.203 -1.295,0.203 -0.798,0 -1.365,-0.196 -0.567,-0.203 -0.959,-0.553 -0.392,-0.35 -0.644,-0.826 -0.252,-0.483 -0.427,-1.043 l 0.539,-0.224 q 0.21,-0.091 0.406,-0.049 0.203,0.042 0.294,0.231 0.091,0.196 0.224,0.469 0.14,0.273 0.378,0.525 0.238,0.252 0.602,0.427 0.371,0.175 0.938,0.175 0.525,0 0.917,-0.168 0.399,-0.175 0.658,-0.448 0.266,-0.273 0.399,-0.609 0.133,-0.336 0.133,-0.665 0,-0.406 -0.105,-0.742 -0.105,-0.336 -0.392,-0.581 -0.287,-0.245 -0.791,-0.385 -0.497,-0.14 -1.281,-0.14 v -0.903 q 0.644,-0.007 1.092,-0.14 0.455,-0.133 0.735,-0.364 0.287,-0.231 0.413,-0.553 0.133,-0.322 0.133,-0.714 0,-0.434 -0.14,-0.756 -0.133,-0.322 -0.371,-0.532 -0.238,-0.21 -0.567,-0.315 -0.322,-0.105 -0.7,-0.105 -0.378,0 -0.707,0.112 -0.322,0.112 -0.574,0.315 -0.245,0.196 -0.413,0.469 -0.168,0.273 -0.238,0.602 -0.091,0.245 -0.231,0.329 -0.133,0.077 -0.392,0.042 l -0.651,-0.112 q 0.098,-0.686 0.378,-1.211 0.28,-0.532 0.707,-0.889 0.434,-0.357 0.987,-0.539 0.56,-0.189 1.204,-0.189 z"
	/>
	<path
		style="fill:#000000;stroke:#000000;stroke-width:0.3px"
		d="m 70.260996,39.396499 h 1.519 v 0.714 q 0,0.112 -0.07,0.189 -0.063,0.077 -0.203,0.077 h -1.246 v 2.639 h -1.092 v -2.639 h -4.452 q -0.14,0 -0.245,-0.077 -0.098,-0.084 -0.126,-0.203 l -0.126,-0.637 4.879,-6.475 h 1.162 z m -1.092,-4.137 q 0,-0.182 0.007,-0.392 0.014,-0.217 0.049,-0.441 l -3.654,4.97 h 3.598 z"
	/>
	<path
		style="fill:#000000;stroke:#000000;stroke-width:0.3px"
		d="m 88.890996,33.474499 q 0,0.266 -0.168,0.441 -0.161,0.168 -0.56,0.168 h -3.15 l -0.462,2.632 q 0.399,-0.091 0.749,-0.126 0.357,-0.042 0.693,-0.042 0.784,0 1.386,0.231 0.602,0.231 1.001,0.637 0.406,0.406 0.609,0.959 0.21,0.553 0.21,1.204 0,0.798 -0.28,1.442 -0.273,0.644 -0.763,1.106 -0.483,0.455 -1.141,0.7 -0.658,0.245 -1.421,0.245 -0.441,0 -0.847,-0.091 -0.406,-0.084 -0.763,-0.231 -0.35,-0.147 -0.651,-0.336 -0.301,-0.189 -0.532,-0.399 l 0.385,-0.532 q 0.126,-0.182 0.329,-0.182 0.14,0 0.315,0.112 0.175,0.105 0.427,0.238 0.252,0.133 0.588,0.245 0.343,0.105 0.812,0.105 0.525,0 0.945,-0.168 0.42,-0.168 0.721,-0.476 0.301,-0.315 0.462,-0.749 0.161,-0.434 0.161,-0.973 0,-0.469 -0.14,-0.847 -0.133,-0.378 -0.413,-0.644 -0.273,-0.266 -0.686,-0.413 -0.413,-0.147 -0.966,-0.147 -0.378,0 -0.791,0.063 -0.406,0.063 -0.833,0.203 l -0.784,-0.231 0.805,-4.69 h 4.753 z"
	/>
	<path
		style="fill:#000000;stroke:#000000;stroke-width:0.3px"
		d="m 13.1845,54.687499 q -0.14,0.168 -0.259,0.329 -0.119,0.161 -0.238,0.315 0.357,-0.245 0.784,-0.378 0.434,-0.14 0.938,-0.14 0.609,0 1.148,0.203 0.539,0.196 0.938,0.581 0.406,0.378 0.644,0.938 0.238,0.553 0.238,1.267 0,0.693 -0.252,1.288 -0.252,0.595 -0.707,1.036 -0.448,0.441 -1.085,0.693 -0.63,0.252 -1.393,0.252 -0.756,0 -1.372,-0.238 -0.616,-0.245 -1.05,-0.686 -0.427,-0.448 -0.665,-1.078 -0.231,-0.637 -0.231,-1.421 0,-0.658 0.287,-1.4 0.294,-0.749 0.931,-1.596 l 2.548,-3.423 q 0.098,-0.126 0.266,-0.21 0.175,-0.091 0.399,-0.091 h 1.106 z m -1.365,3.178 q 0,0.483 0.14,0.882 0.14,0.399 0.406,0.686 0.273,0.287 0.658,0.448 0.392,0.154 0.889,0.154 0.504,0 0.91,-0.161 0.413,-0.161 0.7,-0.448 0.294,-0.287 0.448,-0.679 0.161,-0.392 0.161,-0.854 0,-0.49 -0.154,-0.882 -0.154,-0.399 -0.441,-0.672 -0.28,-0.28 -0.672,-0.427 -0.392,-0.147 -0.861,-0.147 -0.504,0 -0.91,0.175 -0.406,0.168 -0.693,0.462 -0.28,0.287 -0.434,0.672 -0.147,0.378 -0.147,0.791 z"
	/>
	<path
		style="fill:#000000;stroke:#000000;stroke-width:0.3px"
		d="m 35.405499,50.984499 v 0.56 q 0,0.238 -0.056,0.392 -0.049,0.154 -0.098,0.259 l -4.158,8.379 q -0.091,0.182 -0.252,0.315 -0.161,0.126 -0.427,0.126 h -0.896 l 4.214,-8.274 q 0.091,-0.175 0.182,-0.322 0.098,-0.147 0.217,-0.28 h -5.236 q -0.119,0 -0.21,-0.091 -0.091,-0.098 -0.091,-0.217 v -0.847 z"
	/>
	<path
		style="fill:#000000;stroke:#000000;stroke-width:0.3px"
		d="m 50.000001,61.127499 q -0.749,0 -1.372,-0.196 -0.623,-0.203 -1.071,-0.574 -0.448,-0.371 -0.693,-0.896 -0.245,-0.532 -0.245,-1.19 0,-0.966 0.504,-1.589 0.504,-0.63 1.442,-0.896 -0.791,-0.294 -1.197,-0.875 -0.399,-0.588 -0.399,-1.4 0,-0.553 0.217,-1.036 0.217,-0.483 0.616,-0.84 0.399,-0.357 0.952,-0.56 0.56,-0.203 1.246,-0.203 0.679,0 1.239,0.203 0.56,0.203 0.959,0.56 0.399,0.357 0.616,0.84 0.217,0.483 0.217,1.036 0,0.812 -0.406,1.4 -0.406,0.581 -1.19,0.875 0.938,0.266 1.442,0.896 0.504,0.623 0.504,1.589 0,0.658 -0.252,1.19 -0.245,0.525 -0.693,0.896 -0.441,0.371 -1.064,0.574 -0.623,0.196 -1.372,0.196 z m 0,-0.994 q 0.49,0 0.875,-0.133 0.392,-0.14 0.658,-0.385 0.273,-0.252 0.413,-0.595 0.147,-0.35 0.147,-0.77 0,-0.518 -0.175,-0.882 -0.168,-0.371 -0.462,-0.602 -0.287,-0.231 -0.665,-0.336 -0.378,-0.112 -0.791,-0.112 -0.413,0 -0.791,0.112 -0.378,0.105 -0.672,0.336 -0.287,0.231 -0.462,0.602 -0.168,0.364 -0.168,0.882 0,0.42 0.14,0.77 0.147,0.343 0.413,0.595 0.273,0.245 0.658,0.385 0.392,0.133 0.882,0.133 z m 0,-4.816 q 0.49,0 0.833,-0.147 0.35,-0.154 0.567,-0.399 0.217,-0.252 0.315,-0.574 0.098,-0.322 0.098,-0.665 0,-0.35 -0.119,-0.658 -0.112,-0.308 -0.343,-0.539 -0.224,-0.231 -0.567,-0.364 -0.336,-0.133 -0.784,-0.133 -0.448,0 -0.791,0.133 -0.336,0.133 -0.567,0.364 -0.224,0.231 -0.343,0.539 -0.112,0.308 -0.112,0.658 0,0.343 0.098,0.665 0.098,0.322 0.315,0.574 0.217,0.245 0.56,0.399 0.35,0.147 0.84,0.147 z"
	/>
	<path
		style="fill:#000000;stroke:#000000;stroke-width:0.3px"
		d="m 68.903,57.074499 q 0.154,-0.203 0.287,-0.385 0.133,-0.182 0.252,-0.364 -0.385,0.308 -0.868,0.469 -0.483,0.161 -1.022,0.161 -0.567,0 -1.078,-0.189 -0.504,-0.189 -0.889,-0.553 -0.385,-0.371 -0.616,-0.903 -0.224,-0.539 -0.224,-1.232 0,-0.658 0.245,-1.232 0.245,-0.574 0.686,-1.001 0.441,-0.427 1.05,-0.672 0.609,-0.245 1.337,-0.245 0.721,0 1.309,0.238 0.588,0.238 1.008,0.665 0.42,0.427 0.644,1.022 0.231,0.595 0.231,1.316 0,0.434 -0.084,0.826 -0.077,0.385 -0.231,0.763 -0.147,0.371 -0.364,0.742 -0.217,0.364 -0.49,0.749 l -2.443,3.528 q -0.091,0.133 -0.259,0.217 -0.168,0.077 -0.385,0.077 h -1.148 z m 1.155,-3.052 q 0,-0.469 -0.154,-0.847 -0.147,-0.385 -0.413,-0.651 -0.266,-0.266 -0.637,-0.406 -0.364,-0.147 -0.805,-0.147 -0.462,0 -0.84,0.154 -0.378,0.147 -0.651,0.413 -0.273,0.266 -0.42,0.637 -0.147,0.371 -0.147,0.812 0,0.476 0.133,0.854 0.14,0.371 0.392,0.63 0.259,0.259 0.623,0.392 0.371,0.133 0.826,0.133 0.504,0 0.889,-0.161 0.392,-0.168 0.658,-0.441 0.266,-0.273 0.406,-0.63 0.14,-0.357 0.14,-0.742 z"
	/>
	<g>
		<path
			style="fill:#000000;stroke:#000000;stroke-width:0.3px"
			d="m 79.266003,60.067001 h 2.149 v -6.839 q 0,-0.294 0.021,-0.623 l -1.785,1.533 q -0.091,0.077 -0.182,0.098 -0.091,0.014 -0.168,0 -0.077,-0.014 -0.147,-0.056 -0.063,-0.042 -0.098,-0.091 l -0.392,-0.539 2.989,-2.583 h 1.015 v 9.1 h 1.974 v 0.952 h -5.376 z"
		/>
		<path
			style="fill:#000000;stroke:#000000;stroke-width:0.3px"
			d="m 93.336002,56.007001 q 0,1.316 -0.287,2.282 -0.28,0.959 -0.77,1.589 -0.49,0.63 -1.162,0.938 -0.665,0.308 -1.428,0.308 -0.77,0 -1.435,-0.308 -0.658,-0.308 -1.148,-0.938 -0.49,-0.63 -0.77,-1.589 -0.28,-0.966 -0.28,-2.282 0,-1.316 0.28,-2.282 0.28,-0.966 0.77,-1.596 0.49,-0.637 1.148,-0.945 0.665,-0.308 1.435,-0.308 0.763,0 1.428,0.308 0.672,0.308 1.162,0.945 0.49,0.63 0.77,1.596 0.287,0.966 0.287,2.282 z m -1.295,0 q 0,-1.148 -0.196,-1.925 -0.189,-0.784 -0.518,-1.26 -0.322,-0.476 -0.749,-0.679 -0.427,-0.21 -0.889,-0.21 -0.462,0 -0.889,0.21 -0.427,0.203 -0.749,0.679 -0.322,0.476 -0.518,1.26 -0.189,0.777 -0.189,1.925 0,1.148 0.189,1.925 0.196,0.777 0.518,1.253 0.322,0.476 0.749,0.686 0.427,0.203 0.889,0.203 0.462,0 0.889,-0.203 0.427,-0.21 0.749,-0.686 0.329,-0.476 0.518,-1.253 0.196,-0.777 0.196,-1.925 z"
		/>
	</g>
	<g>
		<path
			style="fill:#000000;stroke:#000000;stroke-width:0.3px"
			d="m 7.5530005,78.074001 h 2.149 v -6.839 q 0,-0.294 0.021,-0.623 l -1.785,1.533 q -0.091,0.077 -0.182,0.098 -0.091,0.014 -0.168,0 -0.077,-0.014 -0.147,-0.056 -0.063,-0.042 -0.098,-0.091 l -0.392,-0.539 2.989,-2.583 H 10.955 v 9.1 h 1.974 v 0.952 H 7.5530005 Z"
		/>
		<path
			style="fill:#000000;stroke:#000000;stroke-width:0.3px"
			d="m 15.672999,78.074001 h 2.149 v -6.839 q 0,-0.294 0.021,-0.623 l -1.785,1.533 q -0.091,0.077 -0.182,0.098 -0.091,0.014 -0.168,0 -0.077,-0.014 -0.147,-0.056 -0.063,-0.042 -0.098,-0.091 l -0.392,-0.539 2.989,-2.583 h 1.015 v 9.1 h 1.974 v 0.952 h -5.376 z"
		/>
	</g>
	<g>
		<path
			style="fill:#000000;stroke:#000000;stroke-width:0.3px"
			d="m 25.441,78.119503 h 2.149 v -6.839 q 0,-0.294 0.021,-0.623 l -1.785,1.533 q -0.091,0.077 -0.182,0.098 -0.091,0.014 -0.168,0 -0.077,-0.014 -0.147,-0.056 -0.063,-0.042 -0.098,-0.091 l -0.392,-0.539 2.989,-2.583 h 1.015 v 9.1 h 1.974 v 0.952 h -5.376 z"
		/>
		<path
			style="fill:#000000;stroke:#000000;stroke-width:0.3px"
			d="m 35.947999,68.928503 q 0.637,0 1.19,0.189 0.553,0.189 0.959,0.553 0.406,0.357 0.637,0.875 0.231,0.518 0.231,1.176 0,0.56 -0.168,1.043 -0.168,0.476 -0.455,0.91 -0.287,0.434 -0.665,0.847 -0.371,0.413 -0.791,0.833 l -2.646,2.702 q 0.28,-0.077 0.567,-0.119 0.287,-0.049 0.553,-0.049 h 3.36 q 0.203,0 0.322,0.119 0.119,0.119 0.119,0.308 v 0.756 h -6.692 v -0.427 q 0,-0.133 0.056,-0.273 0.056,-0.14 0.175,-0.259 l 3.213,-3.227 q 0.399,-0.406 0.728,-0.777 0.329,-0.378 0.56,-0.756 0.231,-0.378 0.357,-0.763 0.126,-0.392 0.126,-0.833 0,-0.441 -0.14,-0.77 -0.14,-0.336 -0.385,-0.553 -0.238,-0.217 -0.567,-0.322 -0.329,-0.112 -0.707,-0.112 -0.385,0 -0.707,0.112 -0.322,0.112 -0.574,0.315 -0.245,0.196 -0.413,0.469 -0.168,0.273 -0.238,0.602 -0.084,0.245 -0.231,0.329 -0.14,0.077 -0.399,0.042 l -0.651,-0.112 q 0.098,-0.686 0.378,-1.211 0.287,-0.532 0.714,-0.889 0.434,-0.357 0.987,-0.539 0.553,-0.189 1.197,-0.189 z"
		/>
	</g>
	<g>
		<path
			style="fill:#000000;stroke:#000000;stroke-width:0.3px"
			d="m 43.448002,78.063503 h 2.149 v -6.839 q 0,-0.294 0.021,-0.623 l -1.785,1.533 q -0.091,0.077 -0.182,0.098 -0.091,0.014 -0.168,0 -0.077,-0.014 -0.147,-0.056 -0.063,-0.042 -0.098,-0.091 l -0.392,-0.539 2.989,-2.583 h 1.015 v 9.1 h 1.974 v 0.952 h -5.376 z"
		/>
		<path
			style="fill:#000000;stroke:#000000;stroke-width:0.3px"
			d="m 54.004001,68.872503 q 0.637,0 1.176,0.182 0.539,0.182 0.924,0.518 0.392,0.336 0.609,0.812 0.217,0.476 0.217,1.057 0,0.476 -0.126,0.854 -0.119,0.371 -0.35,0.658 -0.224,0.28 -0.546,0.476 -0.322,0.196 -0.721,0.315 0.98,0.259 1.47,0.868 0.497,0.609 0.497,1.526 0,0.693 -0.266,1.246 -0.259,0.553 -0.714,0.945 -0.455,0.385 -1.064,0.595 -0.602,0.203 -1.295,0.203 -0.798,0 -1.365,-0.196 -0.567,-0.203 -0.959,-0.553 -0.392,-0.35 -0.644,-0.826 -0.252,-0.483 -0.427,-1.043 l 0.539,-0.224 q 0.21,-0.091 0.406,-0.049 0.203,0.042 0.294,0.231 0.091,0.196 0.224,0.469 0.14,0.273 0.378,0.525 0.238,0.252 0.602,0.427 0.371,0.175 0.938,0.175 0.525,0 0.917,-0.168 0.399,-0.175 0.658,-0.448 0.266,-0.273 0.399,-0.609 0.133,-0.336 0.133,-0.665 0,-0.406 -0.105,-0.742 -0.105,-0.336 -0.392,-0.581 -0.287,-0.245 -0.791,-0.385 -0.497,-0.14 -1.281,-0.14 v -0.903 q 0.644,-0.007 1.092,-0.14 0.455,-0.133 0.735,-0.364 0.287,-0.231 0.413,-0.553 0.133,-0.322 0.133,-0.714 0,-0.434 -0.14,-0.756 -0.133,-0.322 -0.371,-0.532 -0.238,-0.21 -0.567,-0.315 -0.322,-0.105 -0.7,-0.105 -0.378,0 -0.707,0.112 -0.322,0.112 -0.574,0.315 -0.245,0.196 -0.413,0.469 -0.168,0.273 -0.238,0.602 -0.091,0.245 -0.231,0.329 -0.133,0.077 -0.392,0.042 l -0.651,-0.112 q 0.098,-0.686 0.378,-1.211 0.28,-0.532 0.707,-0.889 0.434,-0.357 0.987,-0.539 0.56,-0.189 1.204,-0.189 z"
		/>
	</g>
	<g>
		<path
			style="fill:#000000;stroke:#000000;stroke-width:0.3px"
			d="m 61.255497,78.074001 h 2.149 v -6.839 q 0,-0.294 0.021,-0.623 l -1.785,1.533 q -0.091,0.077 -0.182,0.098 -0.091,0.014 -0.168,0 -0.077,-0.014 -0.147,-0.056 -0.063,-0.042 -0.098,-0.091 l -0.392,-0.539 2.989,-2.583 h 1.015 v 9.1 h 1.974 v 0.952 h -5.376 z"
		/>
		<path
			style="fill:#000000;stroke:#000000;stroke-width:0.3px"
			d="m 73.827496,75.407001 h 1.519 v 0.714 q 0,0.112 -0.07,0.189 -0.063,0.077 -0.203,0.077 h -1.246 v 2.639 h -1.092 v -2.639 h -4.452 q -0.14,0 -0.245,-0.077 -0.098,-0.084 -0.126,-0.203 l -0.126,-0.637 4.879,-6.475 h 1.162 z m -1.092,-4.137 q 0,-0.182 0.007,-0.392 0.014,-0.217 0.049,-0.441 l -3.654,4.97 h 3.598 z"
		/>
	</g>
	<g>
		<path
			style="fill:#000000;stroke:#000000;stroke-width:0.3px"
			d="m 79.524998,78.018001 h 2.149 v -6.839 q 0,-0.294 0.021,-0.623 l -1.785,1.533 q -0.091,0.077 -0.182,0.098 -0.091,0.014 -0.168,0 -0.077,-0.014 -0.147,-0.056 -0.063,-0.042 -0.098,-0.091 l -0.392,-0.539 2.989,-2.583 h 1.015 v 9.1 h 1.974 v 0.952 h -5.376 z"
		/>
		<path
			style="fill:#000000;stroke:#000000;stroke-width:0.3px"
			d="m 92.768997,69.485001 q 0,0.266 -0.168,0.441 -0.161,0.168 -0.56,0.168 h -3.15 l -0.462,2.632 q 0.399,-0.091 0.749,-0.126 0.357,-0.042 0.693,-0.042 0.784,0 1.386,0.231 0.602,0.231 1.001,0.637 0.406,0.406 0.609,0.959 0.21,0.553 0.21,1.204 0,0.798 -0.28,1.442 -0.273,0.644 -0.763,1.106 -0.483,0.455 -1.141,0.7 -0.658,0.245 -1.421,0.245 -0.441,0 -0.847,-0.091 -0.406,-0.084 -0.763,-0.231 -0.35,-0.147 -0.651,-0.336 -0.301,-0.189 -0.532,-0.399 l 0.385,-0.532 q 0.126,-0.182 0.329,-0.182 0.14,0 0.315,0.112 0.175,0.105 0.427,0.238 0.252,0.133 0.588,0.245 0.343,0.105 0.812,0.105 0.525,0 0.945,-0.168 0.42,-0.168 0.721,-0.476 0.301,-0.315 0.462,-0.749 0.161,-0.434 0.161,-0.973 0,-0.469 -0.14,-0.847 -0.133,-0.378 -0.413,-0.644 -0.273,-0.266 -0.686,-0.413 -0.413,-0.147 -0.966,-0.147 -0.378,0 -0.791,0.063 -0.406,0.063 -0.833,0.203 l -0.784,-0.231 0.805,-4.69 h 4.753 z"
		/>
	</g>
	<g>
		<path
			style="fill:#000000;stroke:#000000;stroke-width:0.3px"
			d="m 7.3605003,96.018001 h 2.149 v -6.839 q 0,-0.294 0.021,-0.623 l -1.785,1.533 q -0.091,0.077 -0.182,0.098 -0.091,0.014 -0.168,0 -0.077,-0.014 -0.147,-0.056 -0.063,-0.042 -0.098,-0.091 l -0.392,-0.539 2.989,-2.583 H 10.7625 v 9.1 h 1.974 v 0.952 H 7.3605003 Z"
		/>
		<path
			style="fill:#000000;stroke:#000000;stroke-width:0.3px"
			d="m 17.048499,90.698001 q -0.14,0.168 -0.259,0.329 -0.119,0.161 -0.238,0.315 0.357,-0.245 0.784,-0.378 0.434,-0.14 0.938,-0.14 0.609,0 1.148,0.203 0.539,0.196 0.938,0.581 0.406,0.378 0.644,0.938 0.238,0.553 0.238,1.267 0,0.693 -0.252,1.288 -0.252,0.595 -0.707,1.036 -0.448,0.441 -1.085,0.693 -0.63,0.252 -1.393,0.252 -0.756,0 -1.372,-0.238 -0.616,-0.245 -1.05,-0.686 -0.427,-0.448 -0.665,-1.078 -0.231,-0.637 -0.231,-1.421 0,-0.658 0.287,-1.4 0.294,-0.749 0.931,-1.596 l 2.548,-3.423 q 0.098,-0.126 0.266,-0.21 0.175,-0.091 0.399,-0.091 h 1.106 z m -1.365,3.178 q 0,0.483 0.14,0.882 0.14,0.399 0.406,0.686 0.273,0.287 0.658,0.448 0.392,0.154 0.889,0.154 0.504,0 0.91,-0.161 0.413,-0.161 0.7,-0.448 0.294,-0.287 0.448,-0.679 0.161,-0.392 0.161,-0.854 0,-0.49 -0.154,-0.882 -0.154,-0.399 -0.441,-0.672 -0.28,-0.28 -0.672,-0.427 -0.392,-0.147 -0.861,-0.147 -0.504,0 -0.91,0.175 -0.406,0.168 -0.693,0.462 -0.28,0.287 -0.434,0.672 -0.147,0.378 -0.147,0.791 z"
		/>
	</g>
	<g>
		<path
			style="fill:#000000;stroke:#000000;stroke-width:0.3px"
			d="m 25.3325,96.074001 h 2.149 v -6.839 q 0,-0.294 0.021,-0.623 l -1.785,1.533 q -0.091,0.077 -0.182,0.098 -0.091,0.014 -0.168,0 -0.077,-0.014 -0.147,-0.056 -0.063,-0.042 -0.098,-0.091 l -0.392,-0.539 2.989,-2.583 h 1.015 v 9.1 h 1.974 v 0.952 h -5.376 z"
		/>
		<path
			style="fill:#000000;stroke:#000000;stroke-width:0.3px"
			d="m 39.269499,86.995001 v 0.56 q 0,0.238 -0.056,0.392 -0.049,0.154 -0.098,0.259 l -4.158,8.379 q -0.091,0.182 -0.252,0.315 -0.161,0.126 -0.427,0.126 h -0.896 l 4.214,-8.274 q 0.091,-0.175 0.182,-0.322 0.098,-0.147 0.217,-0.28 h -5.236 q -0.119,0 -0.21,-0.091 -0.091,-0.098 -0.091,-0.217 v -0.847 z"
		/>
	</g>
	<g>
		<path
			style="fill:#000000;stroke:#000000;stroke-width:0.3px"
			d="m 43.3955,96.063503 h 2.149 v -6.839 q 0,-0.294 0.021,-0.623 l -1.785,1.533 q -0.091,0.077 -0.182,0.098 -0.091,0.014 -0.168,0 -0.077,-0.014 -0.147,-0.056 -0.063,-0.042 -0.098,-0.091 l -0.392,-0.539 2.989,-2.583 h 1.015 v 9.1 h 1.974 v 0.952 h -5.376 z"
		/>
		<path
			style="fill:#000000;stroke:#000000;stroke-width:0.3px"
			d="m 53.825499,97.127503 q -0.749,0 -1.372,-0.196 -0.623,-0.203 -1.071,-0.574 -0.448,-0.371 -0.693,-0.896 -0.245,-0.532 -0.245,-1.19 0,-0.966 0.504,-1.589 0.504,-0.63 1.442,-0.896 -0.791,-0.294 -1.197,-0.875 -0.399,-0.588 -0.399,-1.4 0,-0.553 0.217,-1.036 0.217,-0.483 0.616,-0.84 0.399,-0.357 0.952,-0.56 0.56,-0.203 1.246,-0.203 0.679,0 1.239,0.203 0.56,0.203 0.959,0.56 0.399,0.357 0.616,0.84 0.217,0.483 0.217,1.036 0,0.812 -0.406,1.4 -0.406,0.581 -1.19,0.875 0.938,0.266 1.442,0.896 0.504,0.623 0.504,1.589 0,0.658 -0.252,1.19 -0.245,0.525 -0.693,0.896 -0.441,0.371 -1.064,0.574 -0.623,0.196 -1.372,0.196 z m 0,-0.994 q 0.49,0 0.875,-0.133 0.392,-0.14 0.658,-0.385 0.273,-0.252 0.413,-0.595 0.147,-0.35 0.147,-0.77 0,-0.518 -0.175,-0.882 -0.168,-0.371 -0.462,-0.602 -0.287,-0.231 -0.665,-0.336 -0.378,-0.112 -0.791,-0.112 -0.413,0 -0.791,0.112 -0.378,0.105 -0.672,0.336 -0.287,0.231 -0.462,0.602 -0.168,0.364 -0.168,0.882 0,0.42 0.14,0.77 0.147,0.343 0.413,0.595 0.273,0.245 0.658,0.385 0.392,0.133 0.882,0.133 z m 0,-4.816 q 0.49,0 0.833,-0.147 0.35,-0.154 0.567,-0.399 0.217,-0.252 0.315,-0.574 0.098,-0.322 0.098,-0.665 0,-0.35 -0.119,-0.658 -0.112,-0.308 -0.343,-0.539 -0.224,-0.231 -0.567,-0.364 -0.336,-0.133 -0.784,-0.133 -0.448,0 -0.791,0.133 -0.336,0.133 -0.567,0.364 -0.224,0.231 -0.343,0.539 -0.112,0.308 -0.112,0.658 0,0.343 0.098,0.665 0.098,0.322 0.315,0.574 0.217,0.245 0.56,0.399 0.35,0.147 0.84,0.147 z"
		/>
	</g>
	<g>
		<path
			style="fill:#000000;stroke:#000000;stroke-width:0.3px"
			d="m 61.493504,96.119503 h 2.149 v -6.839 q 0,-0.294 0.021,-0.623 l -1.785,1.533 q -0.091,0.077 -0.182,0.098 -0.091,0.014 -0.168,0 -0.077,-0.014 -0.147,-0.056 -0.063,-0.042 -0.098,-0.091 l -0.392,-0.539 2.989,-2.583 h 1.015 v 9.1 h 1.974 v 0.952 h -5.376 z"
		/>
		<path
			style="fill:#000000;stroke:#000000;stroke-width:0.3px"
			d="m 72.756503,93.074503 q 0.154,-0.203 0.287,-0.385 0.133,-0.182 0.252,-0.364 -0.385,0.308 -0.868,0.469 -0.483,0.161 -1.022,0.161 -0.567,0 -1.078,-0.189 -0.504,-0.189 -0.889,-0.553 -0.385,-0.371 -0.616,-0.903 -0.224,-0.539 -0.224,-1.232 0,-0.658 0.245,-1.232 0.245,-0.574 0.686,-1.001 0.441,-0.427 1.05,-0.672 0.609,-0.245 1.337,-0.245 0.721,0 1.309,0.238 0.588,0.238 1.008,0.665 0.42,0.427 0.644,1.022 0.231,0.595 0.231,1.316 0,0.434 -0.084,0.826 -0.077,0.385 -0.231,0.763 -0.147,0.371 -0.364,0.742 -0.217,0.364 -0.49,0.749 l -2.443,3.528 q -0.091,0.133 -0.259,0.217 -0.168,0.077 -0.385,0.077 h -1.148 z m 1.155,-3.052 q 0,-0.469 -0.154,-0.847 -0.147,-0.385 -0.413,-0.651 -0.266,-0.266 -0.637,-0.406 -0.364,-0.147 -0.805,-0.147 -0.462,0 -0.84,0.154 -0.378,0.147 -0.651,0.413 -0.273,0.266 -0.42,0.637 -0.147,0.371 -0.147,0.812 0,0.476 0.133,0.854 0.14,0.371 0.392,0.63 0.259,0.259 0.623,0.392 0.371,0.133 0.826,0.133 0.504,0 0.889,-0.161 0.392,-0.168 0.658,-0.441 0.266,-0.273 0.406,-0.63 0.14,-0.357 0.14,-0.742 z"
		/>
	</g>
	<g>
		<path
			style="fill:#000000;stroke:#000000;stroke-width:0.3px"
			d="m 81.897998,86.875997 q 0.637,0 1.19,0.189 0.553,0.189 0.959,0.553 0.406,0.357 0.637,0.875 0.231,0.518 0.231,1.176 0,0.56 -0.168,1.043 -0.168,0.476 -0.455,0.91 -0.287,0.434 -0.665,0.847 -0.371,0.413 -0.791,0.833 l -2.646,2.702 q 0.28,-0.077 0.567,-0.119 0.287,-0.049 0.553,-0.049 h 3.36 q 0.203,0 0.322,0.119 0.119,0.119 0.119,0.308 v 0.756 h -6.692 v -0.427 q 0,-0.133 0.056,-0.273 0.056,-0.14 0.175,-0.259 l 3.213,-3.227 q 0.399,-0.406 0.728,-0.777 0.329,-0.378 0.56,-0.756 0.231,-0.378 0.357,-0.763 0.126,-0.392 0.126,-0.833 0,-0.441 -0.14,-0.77 -0.14,-0.336 -0.385,-0.553 -0.238,-0.217 -0.567,-0.322 -0.329,-0.112 -0.707,-0.112 -0.385,0 -0.707,0.112 -0.322,0.112 -0.574,0.315 -0.245,0.196 -0.413,0.469 -0.168,0.273 -0.238,0.602 -0.084,0.245 -0.231,0.329 -0.14,0.077 -0.399,0.042 l -0.651,-0.112 q 0.098,-0.686 0.378,-1.211 0.287,-0.532 0.714,-0.889 0.434,-0.357 0.987,-0.539 0.553,-0.189 1.197,-0.189 z"
		/>
		<path
			style="fill:#000000;stroke:#000000;stroke-width:0.3px"
			d="m 93.580997,92.006997 q 0,1.316 -0.287,2.282 -0.28,0.959 -0.77,1.589 -0.49,0.63 -1.162,0.938 -0.665,0.308 -1.428,0.308 -0.77,0 -1.435,-0.308 -0.658,-0.308 -1.148,-0.938 -0.49,-0.63 -0.77,-1.589 -0.28,-0.966 -0.28,-2.282 0,-1.316 0.28,-2.282 0.28,-0.966 0.77,-1.596 0.49,-0.637 1.148,-0.945 0.665,-0.308 1.435,-0.308 0.763,0 1.428,0.308 0.672,0.308 1.162,0.945 0.49,0.63 0.77,1.596 0.287,0.966 0.287,2.282 z m -1.295,0 q 0,-1.148 -0.196,-1.925 -0.189,-0.784 -0.518,-1.26 -0.322,-0.476 -0.749,-0.679 -0.427,-0.21 -0.889,-0.21 -0.462,0 -0.889,0.21 -0.427,0.203 -0.749,0.679 -0.322,0.476 -0.518,1.26 -0.189,0.777 -0.189,1.925 0,1.148 0.189,1.925 0.196,0.777 0.518,1.253 0.322,0.476 0.749,0.686 0.427,0.203 0.889,0.203 0.462,0 0.889,-0.203 0.427,-0.21 0.749,-0.686 0.329,-0.476 0.518,-1.253 0.196,-0.777 0.196,-1.925 z"
		/>
	</g>
	<g>
		<path
			style="fill:#000000;stroke:#000000;stroke-width:0.3px"
			d="m 10.185,104.9285 q 0.637,0 1.19,0.189 0.553,0.189 0.959,0.553 0.406,0.357 0.637,0.875 0.231,0.518 0.231,1.176 0,0.56 -0.168,1.043 -0.168,0.476 -0.455,0.91 -0.287,0.434 -0.665,0.847 -0.371,0.413 -0.791,0.833 l -2.6459997,2.702 q 0.28,-0.077 0.567,-0.119 0.287,-0.049 0.553,-0.049 H 12.957 q 0.203,0 0.322,0.119 0.119,0.119 0.119,0.308 v 0.756 H 6.7060003 v -0.427 q 0,-0.133 0.056,-0.273 0.056,-0.14 0.175,-0.259 L 10.15,110.8855 q 0.399,-0.406 0.728,-0.777 0.329,-0.378 0.56,-0.756 0.231,-0.378 0.357,-0.763 0.126,-0.392 0.126,-0.833 0,-0.441 -0.14,-0.77 -0.14,-0.336 -0.385,-0.553 -0.238,-0.217 -0.567,-0.322 -0.329,-0.112 -0.707,-0.112 -0.3849997,0 -0.7069997,0.112 -0.322,0.112 -0.574,0.315 -0.245,0.196 -0.413,0.469 -0.168,0.273 -0.238,0.602 -0.084,0.245 -0.231,0.329 -0.14,0.077 -0.399,0.042 l -0.651,-0.112 q 0.098,-0.686 0.378,-1.211 0.287,-0.532 0.714,-0.889 0.434,-0.357 0.987,-0.539 0.553,-0.189 1.1969997,-0.189 z"
		/>
		<path
			style="fill:#000000;stroke:#000000;stroke-width:0.3px"
			d="m 15.917999,114.1195 h 2.149 v -6.839 q 0,-0.294 0.021,-0.623 l -1.785,1.533 q -0.091,0.077 -0.182,0.098 -0.091,0.014 -0.168,0 -0.077,-0.014 -0.147,-0.056 -0.063,-0.042 -0.098,-0.091 l -0.392,-0.539 2.989,-2.583 h 1.015 v 9.1 h 1.974 v 0.952 h -5.376 z"
		/>
	</g>
	<g>
		<path
			style="fill:#000000;stroke:#000000;stroke-width:0.3px"
			d="m 28.073001,104.9285 q 0.637,0 1.19,0.189 0.553,0.189 0.959,0.553 0.406,0.357 0.637,0.875 0.231,0.518 0.231,1.176 0,0.56 -0.168,1.043 -0.168,0.476 -0.455,0.91 -0.287,0.434 -0.665,0.847 -0.371,0.413 -0.791,0.833 l -2.646,2.702 q 0.28,-0.077 0.567,-0.119 0.287,-0.049 0.553,-0.049 h 3.36 q 0.203,0 0.322,0.119 0.119,0.119 0.119,0.308 v 0.756 h -6.692 v -0.427 q 0,-0.133 0.056,-0.273 0.056,-0.14 0.175,-0.259 l 3.213,-3.227 q 0.399,-0.406 0.728,-0.777 0.329,-0.378 0.56,-0.756 0.231,-0.378 0.357,-0.763 0.126,-0.392 0.126,-0.833 0,-0.441 -0.14,-0.77 -0.14,-0.336 -0.385,-0.553 -0.238,-0.217 -0.567,-0.322 -0.329,-0.112 -0.707,-0.112 -0.385,0 -0.707,0.112 -0.322,0.112 -0.574,0.315 -0.245,0.196 -0.413,0.469 -0.168,0.273 -0.238,0.602 -0.084,0.245 -0.231,0.329 -0.14,0.077 -0.399,0.042 l -0.651,-0.112 q 0.098,-0.686 0.378,-1.211 0.287,-0.532 0.714,-0.889 0.434,-0.357 0.987,-0.539 0.553,-0.189 1.197,-0.189 z"
		/>
		<path
			style="fill:#000000;stroke:#000000;stroke-width:0.3px"
			d="m 36.193,104.9285 q 0.637,0 1.19,0.189 0.553,0.189 0.959,0.553 0.406,0.357 0.637,0.875 0.231,0.518 0.231,1.176 0,0.56 -0.168,1.043 -0.168,0.476 -0.455,0.91 -0.287,0.434 -0.665,0.847 -0.371,0.413 -0.791,0.833 l -2.646,2.702 q 0.28,-0.077 0.567,-0.119 0.287,-0.049 0.553,-0.049 h 3.36 q 0.203,0 0.322,0.119 0.119,0.119 0.119,0.308 v 0.756 h -6.692 v -0.427 q 0,-0.133 0.056,-0.273 0.056,-0.14 0.175,-0.259 l 3.213,-3.227 q 0.399,-0.406 0.728,-0.777 0.329,-0.378 0.56,-0.756 0.231,-0.378 0.357,-0.763 0.126,-0.392 0.126,-0.833 0,-0.441 -0.14,-0.77 -0.14,-0.336 -0.385,-0.553 -0.238,-0.217 -0.567,-0.322 -0.329,-0.112 -0.707,-0.112 -0.385,0 -0.707,0.112 -0.322,0.112 -0.574,0.315 -0.245,0.196 -0.413,0.469 -0.168,0.273 -0.238,0.602 -0.084,0.245 -0.231,0.329 -0.14,0.077 -0.399,0.042 l -0.651,-0.112 q 0.098,-0.686 0.378,-1.211 0.287,-0.532 0.714,-0.889 0.434,-0.357 0.987,-0.539 0.553,-0.189 1.197,-0.189 z"
		/>
	</g>
	<g>
		<path
			style="fill:#000000;stroke:#000000;stroke-width:0.3px"
			d="m 46.080001,104.8725 q 0.637,0 1.19,0.189 0.553,0.189 0.959,0.553 0.406,0.357 0.637,0.875 0.231,0.518 0.231,1.176 0,0.56 -0.168,1.043 -0.168,0.476 -0.455,0.91 -0.287,0.434 -0.665,0.847 -0.371,0.413 -0.791,0.833 l -2.646,2.702 q 0.28,-0.077 0.567,-0.119 0.287,-0.049 0.553,-0.049 h 3.36 q 0.203,0 0.322,0.119 0.119,0.119 0.119,0.308 v 0.756 h -6.692 v -0.427 q 0,-0.133 0.056,-0.273 0.056,-0.14 0.175,-0.259 l 3.213,-3.227 q 0.399,-0.406 0.728,-0.777 0.329,-0.378 0.56,-0.756 0.231,-0.378 0.357,-0.763 0.126,-0.392 0.126,-0.833 0,-0.441 -0.14,-0.77 -0.14,-0.336 -0.385,-0.553 -0.238,-0.217 -0.567,-0.322 -0.329,-0.112 -0.707,-0.112 -0.385,0 -0.707,0.112 -0.322,0.112 -0.574,0.315 -0.245,0.196 -0.413,0.469 -0.168,0.273 -0.238,0.602 -0.084,0.245 -0.231,0.329 -0.14,0.077 -0.399,0.042 l -0.651,-0.112 q 0.098,-0.686 0.378,-1.211 0.287,-0.532 0.714,-0.889 0.434,-0.357 0.987,-0.539 0.553,-0.189 1.197,-0.189 z"
		/>
		<path
			style="fill:#000000;stroke:#000000;stroke-width:0.3px"
			d="m 54.249,104.8725 q 0.637,0 1.176,0.182 0.539,0.182 0.924,0.518 0.392,0.336 0.609,0.812 0.217,0.476 0.217,1.057 0,0.476 -0.126,0.854 -0.119,0.371 -0.35,0.658 -0.224,0.28 -0.546,0.476 -0.322,0.196 -0.721,0.315 0.98,0.259 1.47,0.868 0.497,0.609 0.497,1.526 0,0.693 -0.266,1.246 -0.259,0.553 -0.714,0.945 -0.455,0.385 -1.064,0.595 -0.602,0.203 -1.295,0.203 -0.798,0 -1.365,-0.196 -0.567,-0.203 -0.959,-0.553 -0.392,-0.35 -0.644,-0.826 -0.252,-0.483 -0.427,-1.043 l 0.539,-0.224 q 0.21,-0.091 0.406,-0.049 0.203,0.042 0.294,0.231 0.091,0.196 0.224,0.469 0.14,0.273 0.378,0.525 0.238,0.252 0.602,0.427 0.371,0.175 0.938,0.175 0.525,0 0.917,-0.168 0.399,-0.175 0.658,-0.448 0.266,-0.273 0.399,-0.609 0.133,-0.336 0.133,-0.665 0,-0.406 -0.105,-0.742 -0.105,-0.336 -0.392,-0.581 -0.287,-0.245 -0.791,-0.385 -0.497,-0.14 -1.281,-0.14 v -0.903 q 0.644,-0.007 1.092,-0.14 0.455,-0.133 0.735,-0.364 0.287,-0.231 0.413,-0.553 0.133,-0.322 0.133,-0.714 0,-0.434 -0.14,-0.756 -0.133,-0.322 -0.371,-0.532 -0.238,-0.21 -0.567,-0.315 -0.322,-0.105 -0.7,-0.105 -0.378,0 -0.707,0.112 -0.322,0.112 -0.574,0.315 -0.245,0.196 -0.413,0.469 -0.168,0.273 -0.238,0.602 -0.091,0.245 -0.231,0.329 -0.133,0.077 -0.392,0.042 l -0.651,-0.112 q 0.098,-0.686 0.378,-1.211 0.28,-0.532 0.707,-0.889 0.434,-0.357 0.987,-0.539 0.56,-0.189 1.204,-0.189 z"
		/>
	</g>
	<g>
		<path
			style="fill:#000000;stroke:#000000;stroke-width:0.3px"
			d="m 63.8875,104.9285 q 0.637,0 1.19,0.189 0.553,0.189 0.959,0.553 0.406,0.357 0.637,0.875 0.231,0.518 0.231,1.176 0,0.56 -0.168,1.043 -0.168,0.476 -0.455,0.91 -0.287,0.434 -0.665,0.847 -0.371,0.413 -0.791,0.833 l -2.646,2.702 q 0.28,-0.077 0.567,-0.119 0.287,-0.049 0.553,-0.049 h 3.36 q 0.203,0 0.322,0.119 0.119,0.119 0.119,0.308 v 0.756 h -6.692 v -0.427 q 0,-0.133 0.056,-0.273 0.056,-0.14 0.175,-0.259 l 3.213,-3.227 q 0.399,-0.406 0.728,-0.777 0.329,-0.378 0.56,-0.756 0.231,-0.378 0.357,-0.763 0.126,-0.392 0.126,-0.833 0,-0.441 -0.14,-0.77 -0.14,-0.336 -0.385,-0.553 -0.238,-0.217 -0.567,-0.322 -0.329,-0.112 -0.707,-0.112 -0.385,0 -0.707,0.112 -0.322,0.112 -0.574,0.315 -0.245,0.196 -0.413,0.469 -0.168,0.273 -0.238,0.602 -0.084,0.245 -0.231,0.329 -0.14,0.077 -0.399,0.042 l -0.651,-0.112 q 0.098,-0.686 0.378,-1.211 0.287,-0.532 0.714,-0.889 0.434,-0.357 0.987,-0.539 0.553,-0.189 1.197,-0.189 z"
		/>
		<path
			style="fill:#000000;stroke:#000000;stroke-width:0.3px"
			d="m 74.072499,111.4525 h 1.519 v 0.714 q 0,0.112 -0.07,0.189 -0.063,0.077 -0.203,0.077 h -1.246 v 2.639 h -1.092 v -2.639 h -4.452 q -0.14,0 -0.245,-0.077 -0.098,-0.084 -0.126,-0.203 l -0.126,-0.637 4.879,-6.475 h 1.162 z m -1.092,-4.137 q 0,-0.182 0.007,-0.392 0.014,-0.217 0.049,-0.441 l -3.654,4.97 h 3.598 z"
		/>
	</g>
	<g>
		<path
			style="fill:#000000;stroke:#000000;stroke-width:0.3px"
			d="m 82.157,104.8725 q 0.637,0 1.19,0.189 0.553,0.189 0.959,0.553 0.406,0.357 0.637,0.875 0.231,0.518 0.231,1.176 0,0.56 -0.168,1.043 -0.168,0.476 -0.455,0.91 -0.287,0.434 -0.665,0.847 -0.371,0.413 -0.791,0.833 l -2.646,2.702 q 0.28,-0.077 0.567,-0.119 0.287,-0.049 0.553,-0.049 h 3.36 q 0.203,0 0.322,0.119 0.119,0.119 0.119,0.308 v 0.756 h -6.692 v -0.427 q 0,-0.133 0.056,-0.273 0.056,-0.14 0.175,-0.259 l 3.213,-3.227 q 0.399,-0.406 0.728,-0.777 0.329,-0.378 0.56,-0.756 0.231,-0.378 0.357,-0.763 0.126,-0.392 0.126,-0.833 0,-0.441 -0.14,-0.77 -0.14,-0.336 -0.385,-0.553 -0.238,-0.217 -0.567,-0.322 -0.329,-0.112 -0.707,-0.112 -0.385,0 -0.707,0.112 -0.322,0.112 -0.574,0.315 -0.245,0.196 -0.413,0.469 -0.168,0.273 -0.238,0.602 -0.084,0.245 -0.231,0.329 -0.14,0.077 -0.399,0.042 l -0.651,-0.112 q 0.098,-0.686 0.378,-1.211 0.287,-0.532 0.714,-0.889 0.434,-0.357 0.987,-0.539 0.553,-0.189 1.197,-0.189 z"
		/>
		<path
			style="fill:#000000;stroke:#000000;stroke-width:0.3px"
			d="m 93.013999,105.5305 q 0,0.266 -0.168,0.441 -0.161,0.168 -0.56,0.168 h -3.15 l -0.462,2.632 q 0.399,-0.091 0.749,-0.126 0.357,-0.042 0.693,-0.042 0.784,0 1.386,0.231 0.602,0.231 1.001,0.637 0.406,0.406 0.609,0.959 0.21,0.553 0.21,1.204 0,0.798 -0.28,1.442 -0.273,0.644 -0.763,1.106 -0.483,0.455 -1.141,0.7 -0.658,0.245 -1.421,0.245 -0.441,0 -0.847,-0.091 -0.406,-0.084 -0.763,-0.231 -0.35,-0.147 -0.651,-0.336 -0.301,-0.189 -0.532,-0.399 l 0.385,-0.532 q 0.126,-0.182 0.329,-0.182 0.14,0 0.315,0.112 0.175,0.105 0.427,0.238 0.252,0.133 0.588,0.245 0.343,0.105 0.812,0.105 0.525,0 0.945,-0.168 0.42,-0.168 0.721,-0.476 0.301,-0.315 0.462,-0.749 0.161,-0.434 0.161,-0.973 0,-0.469 -0.14,-0.847 -0.133,-0.378 -0.413,-0.644 -0.273,-0.266 -0.686,-0.413 -0.413,-0.147 -0.966,-0.147 -0.378,0 -0.791,0.063 -0.406,0.063 -0.833,0.203 l -0.784,-0.231 0.805,-4.69 h 4.753 z"
		/>
	</g>
</svg>