<svg xmlns="http://www.w3.org/2000/svg" height="148" width="100" viewbox="0 0 100 148">
	<rect x="0" y="0" height="148" width="100" style="fill:#ff2400;stroke:#000000;stroke-width:0.5px"/>
	<g transform="translate(31,39)">
		<path d="m 4.72,25.30 H 9.63 V 9.66 q 0,-0.67 0.05,-1.42 L 5.60,11.74 Q 5.39,11.92 5.18,11.97 4.98,12.00 4.80,11.97 4.62,11.94 4.46,11.84 4.32,11.74 4.24,11.63 L 3.34,10.40 10.18,4.50 h 2.32 V 25.30 h 4.51 v 2.18 H 4.72 Z" style="fill:#000000;stroke:#000000;stroke-width:0.3px"/>
	</g>
	<g transform="translate(48,39)">
		<path d="m 10.29,4.29 q 1.46,0 2.69,0.42 1.23,0.42 2.11,1.18 0.90,0.77 1.39,1.86 0.50,1.09 0.50,2.42 0,1.09 -0.29,1.95 -0.27,0.85 -0.80,1.50 -0.51,0.64 -1.25,1.09 -0.74,0.45 -1.65,0.72 2.24,0.59 3.36,1.98 1.14,1.39 1.14,3.49 0,1.58 -0.61,2.85 -0.59,1.26 -1.63,2.16 -1.04,0.88 -2.43,1.36 -1.38,0.46 -2.96,0.46 -1.82,0 -3.12,-0.45 Q 5.44,26.82 4.54,26.02 3.65,25.22 3.07,24.13 2.50,23.02 2.10,21.74 l 1.23,-0.51 q 0.48,-0.21 0.93,-0.11 0.46,0.10 0.67,0.53 0.21,0.45 0.51,1.07 0.32,0.62 0.86,1.20 0.54,0.58 1.38,0.98 0.85,0.40 2.14,0.40 1.20,0 2.10,-0.38 0.91,-0.40 1.50,-1.02 0.61,-0.62 0.91,-1.39 0.30,-0.77 0.30,-1.52 0,-0.93 -0.24,-1.70 -0.24,-0.77 -0.90,-1.33 -0.66,-0.56 -1.81,-0.88 -1.14,-0.32 -2.93,-0.32 v -2.06 q 1.47,-0.02 2.50,-0.32 1.04,-0.30 1.68,-0.83 0.66,-0.53 0.94,-1.26 0.30,-0.74 0.30,-1.63 0,-0.99 -0.32,-1.73 -0.30,-0.74 -0.85,-1.22 -0.54,-0.48 -1.30,-0.72 -0.74,-0.24 -1.60,-0.24 -0.86,0 -1.62,0.26 -0.74,0.26 -1.31,0.72 -0.56,0.45 -0.94,1.07 Q 5.87,9.41 5.71,10.16 5.50,10.72 5.18,10.91 4.88,11.09 4.29,11.01 L 2.80,10.75 q 0.22,-1.57 0.86,-2.77 0.64,-1.22 1.62,-2.03 0.99,-0.82 2.26,-1.23 1.28,-0.43 2.75,-0.43 z" style="fill:#000000;stroke:#000000;stroke-width:0.3px"/>
	</g>
	<g transform="translate(39,80)">
		<path d="m 11.0,2.77 -1.38,2.11 3.19,2.06 2.22,5.15 c 0.22,-0.10 0.53,-0.27 0.87,-0.51 0.51,-0.35 1.08,-0.83 1.61,-1.37 0.53,-0.54 1.00,-1.13 1.30,-1.70 0.26,-0.50 0.39,-0.98 0.36,-1.39 L 14.11,4.79 Z" style="fill:#708090;stroke:#000000;stroke-width:0.3px"/>
		<path d="M 9.66,5.76 C 6.35,10.34 4.10,14.76 0.84,19.86 c 0,0 0,0 0.01,0.02 0.01,0.04 0.06,0.14 0.14,0.23 0.16,0.20 0.45,0.45 0.77,0.66 0.31,0.20 0.66,0.37 0.91,0.43 0.13,0.03 0.23,0.04 0.27,0.03 0.01,0 0.01,0 0.02,0 0.88,-1.35 1.27,-1.95 1.92,-4.39 l 0.01,-0.05 0.03,-0.04 c 2.41,-3.89 3.38,-6.25 6.17,-10.06 z" style="fill:#a0522d;stroke:#000000;stroke-width:0.3px"/>
	</g>
</svg>
