<svg xmlns="http://www.w3.org/2000/svg" height="148" width="100" viewbox="0 0 100 148">
	<rect x="0" y="0" height="148" width="100" style="fill:#ff2400;stroke:#000000;stroke-width:0.5px"/>
	<g transform="translate(39,39)">
		<path d="m 11.90,18.34 q 0.35,-0.46 0.66,-0.88 0.30,-0.42 0.58,-0.83 -0.88,0.70 -1.98,1.07 -1.10,0.37 -2.34,0.37 -1.30,0 -2.46,-0.43 Q 5.20,17.20 4.32,16.37 3.44,15.52 2.91,14.30 2.40,13.07 2.40,11.49 q 0,-1.50 0.56,-2.82 0.56,-1.31 1.57,-2.29 1.01,-0.98 2.40,-1.54 1.39,-0.56 3.06,-0.56 1.65,0 2.99,0.54 1.34,0.54 2.30,1.52 0.96,0.98 1.47,2.34 Q 17.28,10.05 17.28,11.70 q 0,0.99 -0.19,1.89 -0.18,0.88 -0.53,1.74 -0.34,0.85 -0.83,1.70 -0.50,0.83 -1.12,1.71 L 9.02,26.80 q -0.21,0.30 -0.59,0.50 -0.38,0.18 -0.88,0.18 H 4.93 Z m 2.64,-6.98 q 0,-1.07 -0.35,-1.94 -0.34,-0.88 -0.94,-1.49 -0.61,-0.61 -1.46,-0.93 -0.83,-0.34 -1.84,-0.34 -1.06,0 -1.92,0.35 -0.86,0.34 -1.49,0.94 -0.62,0.61 -0.96,1.46 Q 5.25,10.27 5.25,11.28 q 0,1.09 0.30,1.95 0.32,0.85 0.90,1.44 0.59,0.59 1.42,0.90 0.85,0.30 1.89,0.30 1.15,0 2.03,-0.37 0.90,-0.38 1.50,-1.01 0.61,-0.62 0.93,-1.44 0.32,-0.82 0.32,-1.70 z" style="fill:#000000;stroke:#000000;stroke-width:0.3px"/>
	</g>
	<g transform="translate(39,80)">
		<path d="m 11.0,2.77 -1.38,2.11 3.19,2.06 2.22,5.15 c 0.22,-0.10 0.53,-0.27 0.87,-0.51 0.51,-0.35 1.08,-0.83 1.61,-1.37 0.53,-0.54 1.00,-1.13 1.30,-1.70 0.26,-0.50 0.39,-0.98 0.36,-1.39 L 14.11,4.79 Z" style="fill:#708090;stroke:#000000;stroke-width:0.3px"/>
		<path d="M 9.66,5.76 C 6.35,10.34 4.10,14.76 0.84,19.86 c 0,0 0,0 0.01,0.02 0.01,0.04 0.06,0.14 0.14,0.23 0.16,0.20 0.45,0.45 0.77,0.66 0.31,0.20 0.66,0.37 0.91,0.43 0.13,0.03 0.23,0.04 0.27,0.03 0.01,0 0.01,0 0.02,0 0.88,-1.35 1.27,-1.95 1.92,-4.39 l 0.01,-0.05 0.03,-0.04 c 2.41,-3.89 3.38,-6.25 6.17,-10.06 z" style="fill:#a0522d;stroke:#000000;stroke-width:0.3px"/>
	</g>
</svg>
