<svg xmlns="http://www.w3.org/2000/svg" height="45" width="45" viewbox="0 0 45 45">
    <rect
        x="0"
        y="0"
        width="45"
        height="45"
        style="fill:#fffff0;stroke:#000000;stroke-width:0.6px"
    />
    <path
        d="M 14.93,23.57 V 2.08 h 6.86 q 1.98,0 3.41,0.39 1.44,0.39 2.36,1.11 0.93,0.72 1.37,1.77 0.44,1.04 0.44,2.34 0,0.80 -0.26,1.53 -0.24,0.74 -0.74,1.37 -0.50,0.63 -1.26,1.13 -0.75,0.50 -1.77,0.81 2.36,0.47 3.56,1.70 1.20,1.23 1.20,3.24 0,1.37 -0.51,2.49 -0.50,1.13 -1.47,1.94 -0.96,0.81 -2.37,1.26 -1.41,0.44 -3.21,0.44 z m 2.90,-9.80 v 7.49 h 4.65 q 1.25,0 2.15,-0.29 0.90,-0.29 1.47,-0.80 0.59,-0.53 0.86,-1.23 0.27,-0.72 0.27,-1.58 0,-1.67 -1.19,-2.63 -1.19,-0.98 -3.56,-0.98 z m 0,-2.07 h 3.84 q 1.23,0 2.13,-0.27 0.92,-0.27 1.50,-0.75 0.60,-0.48 0.89,-1.16 0.29,-0.69 0.29,-1.50 0,-1.91 -1.14,-2.78 -1.14,-0.89 -3.54,-0.89 h -3.96 z"
        style="fill:#000000;stroke:#000000;stroke-width:0.3px"
    />
    <path
        d="m 16.54,28.41 c 0.99,1.19 1.59,2.72 1.59,4.40 0,0.65 -0.09,1.27 -0.26,1.86 -0.88,-0.16 -1.77,-0.16 -2.67,0 -0.16,-0.59 -0.26,-1.21 -0.26,-1.86 0,-1.67 0.60,-3.20 1.59,-4.40 z m -0.01,6.68 c 0.40,0 0.80,0.04 1.19,0.10 -0.27,0.74 -0.67,1.42 -1.16,2.02 -0.49,-0.60 -0.89,-1.27 -1.16,-2.01 0.38,-0.07 0.77,-0.10 1.15,-0.10 z m -1.69,0.21 c 0.30,0.85 0.76,1.63 1.33,2.30 -1.25,1.28 -2.99,2.08 -4.93,2.08 -0.40,0 -0.79,-0.04 -1.16,-0.10 0.54,-1.45 1.57,-2.74 3.01,-3.57 0.56,-0.32 1.14,-0.56 1.74,-0.71 z m 3.40,0 c 1.73,0.44 3.29,1.55 4.26,3.23 0.20,0.35 0.36,0.70 0.49,1.05 -0.38,0.06 -0.77,0.10 -1.16,0.10 -1.93,0 -3.67,-0.80 -4.93,-2.08 0.57,-0.68 1.03,-1.46 1.33,-2.30 z m 5.46,4.69 -0.16,-0.52 c -0.15,-0.41 -0.34,-0.82 -0.56,-1.21 -1.03,-1.79 -2.70,-2.99 -4.57,-3.47 0.18,-0.63 0.27,-1.30 0.27,-1.98 0,-1.83 -0.66,-3.50 -1.77,-4.80 l -0.37,-0.40 -0.37,0.40 c -1.10,1.30 -1.77,2.97 -1.77,4.80 0,0.68 0.10,1.35 0.27,1.97 -0.63,0.16 -1.25,0.41 -1.85,0.76 -1.58,0.91 -2.70,2.33 -3.28,3.93 L 9.38,39.99 9.91,40.11 c 0.43,0.08 0.88,0.12 1.33,0.12 2.07,0 3.94,-0.85 5.29,-2.22 1.35,1.37 3.22,2.22 5.29,2.22 0.46,0 0.90,-0.04 1.33,-0.12 z"
        style="fill:#6495ed;stroke:#000000;stroke-width:0.3px"
    />
    <path
        d="m 6.15,28.67 q 0.64,0 1.19,0.19 0.55,0.19 0.96,0.55 0.41,0.36 0.64,0.88 0.23,0.52 0.23,1.18 0,0.56 -0.17,1.04 -0.17,0.48 -0.46,0.91 -0.29,0.43 -0.67,0.85 -0.37,0.41 -0.79,0.83 l -2.65,2.70 q 0.28,-0.08 0.57,-0.12 0.29,-0.05 0.55,-0.05 h 3.36 q 0.20,0 0.32,0.12 0.12,0.12 0.12,0.31 v 0.76 h -6.69 v -0.43 q 0,-0.13 0.06,-0.27 0.06,-0.14 0.18,-0.26 l 3.21,-3.23 q 0.40,-0.41 0.73,-0.78 0.33,-0.38 0.56,-0.76 0.23,-0.38 0.36,-0.76 0.13,-0.39 0.13,-0.83 0,-0.44 -0.14,-0.77 -0.14,-0.34 -0.39,-0.55 -0.24,-0.22 -0.57,-0.32 -0.33,-0.11 -0.71,-0.11 -0.39,0 -0.71,0.11 -0.32,0.11 -0.57,0.32 -0.25,0.20 -0.41,0.47 -0.17,0.27 -0.24,0.60 -0.08,0.25 -0.23,0.33 -0.14,0.08 -0.40,0.04 l -0.65,-0.11 q 0.10,-0.69 0.38,-1.21 0.29,-0.53 0.71,-0.89 0.43,-0.36 0.99,-0.54 0.55,-0.19 1.20,-0.19 z"
        style="fill:#000000;stroke:#000000;stroke-width:0.3px"
    />
    <path
        d="m 33.62676,25.659982 q 0.637,0 1.176,0.182 0.539,0.182 0.924,0.518 0.392,0.336 0.609,0.812 0.217,0.476 0.217,1.057 0,0.476 -0.126,0.854 -0.119,0.371 -0.35,0.658 -0.224,0.28 -0.546,0.476 -0.322,0.196 -0.721,0.315 0.98,0.259 1.47,0.868 0.497,0.609 0.497,1.526 0,0.693 -0.266,1.246 -0.259,0.553 -0.714,0.945 -0.455,0.385 -1.064,0.595 -0.602,0.203 -1.295,0.203 -0.798,0 -1.365,-0.196 -0.567,-0.203 -0.959,-0.553 -0.392,-0.35 -0.644,-0.826 -0.252,-0.483 -0.427,-1.043 l 0.539,-0.224 q 0.21,-0.091 0.406,-0.049 0.203,0.042 0.294,0.231 0.091,0.196 0.224,0.469 0.14,0.273 0.378,0.525 0.238,0.252 0.602,0.427 0.371,0.175 0.938,0.175 0.525,0 0.917,-0.168 0.399,-0.175 0.658,-0.448 0.266,-0.273 0.399,-0.609 0.133,-0.336 0.133,-0.665 0,-0.406 -0.105,-0.742 -0.105,-0.336 -0.392,-0.581 -0.287,-0.245 -0.791,-0.385 -0.497,-0.14 -1.281,-0.14 v -0.903 q 0.644,-0.007 1.092,-0.14 0.455,-0.133 0.735,-0.364 0.287,-0.231 0.413,-0.553 0.133,-0.322 0.133,-0.714 0,-0.434 -0.14,-0.756 -0.133,-0.322 -0.371,-0.532 -0.238,-0.21 -0.567,-0.315 -0.322,-0.105 -0.7,-0.105 -0.378,0 -0.707,0.112 -0.322,0.112 -0.574,0.315 -0.245,0.196 -0.413,0.469 -0.168,0.273 -0.238,0.602 -0.091,0.245 -0.231,0.329 -0.133,0.077 -0.392,0.042 l -0.651,-0.112 q 0.098,-0.686 0.378,-1.211 0.28,-0.532 0.707,-0.889 0.434,-0.357 0.987,-0.539 0.56,-0.189 1.204,-0.189 z"
        style="fill:#000000;stroke:#000000;stroke-width:0.3px"
    />
    <path
        d="m 28.55,26.72 c -0.70,0.22 -1.24,0.47 -1.92,0.96 -0.09,0.09 -0.18,0.18 -0.27,0.26 0.01,0.02 0.02,0.05 0.05,0.09 0.04,0.07 0.11,0.16 0.20,0.25 -0.14,0.22 -0.26,0.45 -0.38,0.67 -0.15,-0.12 -0.28,-0.26 -0.39,-0.41 -0.31,0.39 -0.58,0.79 -0.82,1.22 0.02,0.06 0.06,0.14 0.15,0.23 0.10,0.11 0.27,0.23 0.47,0.33 -0.08,0.25 -0.15,0.49 -0.21,0.73 -0.30,-0.13 -0.57,-0.31 -0.79,-0.53 -0.23,0.55 -0.42,1.14 -0.53,1.74 0.05,0.10 0.14,0.19 0.29,0.28 0.20,0.14 0.50,0.25 0.81,0.31 0,0.26 0.01,0.51 0.03,0.76 -0.46,-0.06 -0.90,-0.21 -1.25,-0.45 0,0 -0.01,0 -0.01,0 -0.06,0.63 -0.03,1.24 0.04,1.84 0.10,0.14 0.25,0.24 0.47,0.32 0.30,0.10 0.70,0.14 1.11,0.10 0.08,0.24 0.17,0.48 0.27,0.72 -0.56,0.08 -1.13,0.06 -1.62,-0.10 -0.02,-0.01 -0.02,-0.01 -0.04,-0.02 0.16,0.62 0.39,1.21 0.67,1.77 0.14,0.11 0.34,0.17 0.59,0.18 0.37,0.02 0.84,-0.07 1.30,-0.26 0.14,0.21 0.31,0.42 0.47,0.61 -0.59,0.27 -1.21,0.43 -1.80,0.39 0.40,0.59 0.87,1.12 1.40,1.59 0.17,0.06 0.37,0.06 0.62,0.01 0.39,-0.07 0.84,-0.30 1.24,-0.60 0,0 0,0 0,0 0.21,0.16 0.42,0.31 0.63,0.45 -0.48,0.39 -1.03,0.71 -1.58,0.85 0.47,0.31 0.96,0.59 1.49,0.81 0.20,0.02 0.41,-0.04 0.65,-0.15 0.31,-0.15 0.63,-0.41 0.92,-0.73 0.68,0.27 1.39,0.45 2.10,0.51 l 0.07,-0.75 c -0.57,-0.06 -1.14,-0.19 -1.70,-0.40 0.27,-0.44 0.47,-0.92 0.51,-1.34 0.05,-0.36 0,-0.64 -0.15,-0.86 -0.32,-0.06 -0.63,-0.16 -0.93,-0.28 -0.01,0.26 -0.06,0.52 -0.17,0.76 -0.15,0.36 -0.38,0.71 -0.66,1.03 -0.22,-0.13 -0.43,-0.27 -0.64,-0.43 0.27,-0.29 0.48,-0.59 0.60,-0.89 0.15,-0.37 0.17,-0.66 0.02,-0.91 -0.31,-0.20 -0.60,-0.43 -0.87,-0.69 -0.07,0.17 -0.17,0.34 -0.28,0.48 -0.22,0.29 -0.51,0.55 -0.83,0.75 -0.16,-0.18 -0.32,-0.38 -0.47,-0.59 0.28,-0.18 0.53,-0.40 0.70,-0.62 0.20,-0.27 0.29,-0.50 0.26,-0.72 -0.20,-0.27 -0.38,-0.55 -0.54,-0.84 -0.10,0.10 -0.20,0.21 -0.31,0.29 -0.27,0.21 -0.59,0.37 -0.94,0.48 -0.10,-0.22 -0.20,-0.46 -0.28,-0.70 0.30,-0.10 0.56,-0.22 0.76,-0.38 0.22,-0.17 0.35,-0.34 0.38,-0.53 -0.12,-0.31 -0.22,-0.65 -0.30,-1.00 -0.07,0.05 -0.15,0.08 -0.22,0.11 -0.31,0.12 -0.63,0.18 -0.97,0.19 -0.03,-0.25 -0.05,-0.50 -0.05,-0.75 0.28,-0.02 0.54,-0.06 0.74,-0.14 0.18,-0.06 0.31,-0.14 0.38,-0.24 -0.04,-0.39 -0.06,-0.79 -0.03,-1.20 -0.02,0.01 -0.05,0.01 -0.08,0.01 -0.26,0.03 -0.54,0.01 -0.82,-0.05 0.06,-0.24 0.13,-0.48 0.21,-0.72 0.19,0.03 0.38,0.05 0.53,0.03 0.10,-0.02 0.18,-0.03 0.24,-0.06 0.06,-0.36 0.14,-0.71 0.24,-1.04 -0.17,-0.03 -0.34,-0.08 -0.49,-0.15 0.11,-0.22 0.23,-0.44 0.37,-0.66 0.10,0.04 0.18,0.06 0.27,0.08 0.05,0.01 0.08,0.01 0.11,0.01 0.07,-0.18 0.16,-0.36 0.26,-0.54 0.23,-0.47 0.49,-0.97 0.67,-1.52 z m 9.77,0 c 0.18,0.55 0.44,1.04 0.68,1.52 0.09,0.18 0.18,0.35 0.25,0.55 0.03,0 0.06,-0.01 0.11,-0.01 0.08,-0.02 0.17,-0.04 0.27,-0.08 0.14,0.22 0.26,0.44 0.38,0.66 -0.16,0.07 -0.32,0.13 -0.49,0.15 0.10,0.34 0.18,0.68 0.24,1.04 0.06,0.02 0.14,0.05 0.24,0.06 0.15,0.02 0.34,0.01 0.53,-0.03 0.08,0.24 0.14,0.48 0.20,0.72 -0.27,0.06 -0.55,0.08 -0.81,0.06 -0.02,0 -0.06,-0.01 -0.08,-0.01 0.02,0.40 0.01,0.80 -0.03,1.20 0.07,0.10 0.19,0.18 0.38,0.25 0.20,0.08 0.46,0.13 0.74,0.14 0,0.25 -0.02,0.51 -0.04,0.75 -0.34,-0.02 -0.67,-0.07 -0.97,-0.19 -0.08,-0.03 -0.16,-0.07 -0.23,-0.11 -0.07,0.35 -0.18,0.67 -0.30,1.00 0.03,0.19 0.15,0.35 0.38,0.53 0.19,0.15 0.47,0.28 0.76,0.38 -0.08,0.24 -0.18,0.47 -0.28,0.70 -0.35,-0.11 -0.67,-0.27 -0.93,-0.48 -0.11,-0.09 -0.22,-0.18 -0.31,-0.29 -0.16,0.30 -0.35,0.58 -0.54,0.84 -0.03,0.22 0.06,0.46 0.26,0.72 0.17,0.22 0.41,0.43 0.70,0.63 -0.14,0.20 -0.31,0.40 -0.47,0.59 -0.32,-0.22 -0.60,-0.47 -0.82,-0.75 -0.11,-0.15 -0.21,-0.31 -0.28,-0.48 -0.27,0.26 -0.56,0.49 -0.87,0.69 -0.14,0.25 -0.13,0.55 0.02,0.92 0.12,0.29 0.33,0.60 0.59,0.89 -0.20,0.15 -0.41,0.30 -0.63,0.43 -0.28,-0.31 -0.51,-0.67 -0.66,-1.03 -0.10,-0.24 -0.16,-0.51 -0.17,-0.76 -0.30,0.12 -0.61,0.22 -0.94,0.28 -0.15,0.21 -0.20,0.49 -0.15,0.86 0.06,0.41 0.24,0.89 0.52,1.34 -0.56,0.21 -1.13,0.35 -1.70,0.40 l 0.07,0.75 c 0.71,-0.06 1.42,-0.24 2.10,-0.51 0.29,0.32 0.62,0.58 0.92,0.73 0.24,0.12 0.46,0.18 0.65,0.15 0.53,-0.22 1.03,-0.49 1.49,-0.81 -0.55,-0.14 -1.10,-0.45 -1.58,-0.85 0.22,-0.14 0.43,-0.29 0.63,-0.45 0.41,0.31 0.86,0.52 1.24,0.60 0.24,0.05 0.44,0.05 0.61,-0.01 0.53,-0.47 1.00,-1.00 1.40,-1.59 -0.59,0.04 -1.22,-0.12 -1.81,-0.39 0.17,-0.19 0.32,-0.40 0.47,-0.61 0.45,0.18 0.92,0.28 1.30,0.26 0.26,-0.02 0.45,-0.07 0.59,-0.18 0.29,-0.56 0.51,-1.16 0.67,-1.77 -0.02,0.01 -0.02,0.01 -0.04,0.02 -0.50,0.17 -1.07,0.19 -1.62,0.10 0.10,-0.23 0.19,-0.47 0.27,-0.72 0.41,0.04 0.81,0.01 1.11,-0.10 0.23,-0.08 0.39,-0.18 0.48,-0.32 0.08,-0.59 0.10,-1.21 0.04,-1.83 0,0 0,0 -0.01,0 -0.36,0.23 -0.80,0.38 -1.25,0.45 0.02,-0.25 0.03,-0.51 0.03,-0.76 0.31,-0.06 0.61,-0.18 0.81,-0.22 0.14,-0.21 0.23,-0.30 0.28,-0.40 -0.11,-0.60 -0.30,-1.19 -0.53,-1.74 -0.22,0.22 -0.49,0.40 -0.79,0.53 -0.06,-0.24 -0.13,-0.48 -0.21,-0.73 0.19,-0.10 0.36,-0.22 0.47,-0.33 0.09,-0.10 0.14,-0.17 0.15,-0.23 -0.24,-0.43 -0.51,-0.84 -0.82,-1.22 -0.10,0.15 -0.23,0.29 -0.39,0.41 -0.11,-0.22 -0.23,-0.44 -0.38,-0.67 0.08,-0.08 0.16,-0.18 0.20,-0.25 0.02,-0.04 0.04,-0.06 0.05,-0.09 -0.09,-0.08 -0.18,-0.17 -0.27,-0.26 -0.67,-0.49 -1.22,-0.74 -1.92,-0.96 z"
        style="fill:#008000;stroke:#000000;stroke-width:0.3px"
    />
</svg>