<svg xmlns="http://www.w3.org/2000/svg" height="50" width="50" viewbox="0 0 50 50">
	<path
		style="fill:#cccccc;stroke:#000000;stroke-width:0.5px"
		d="m 39.62,11.10 v 11.01 h -2.49 V 4.80 a 1.87,1.87 0 0 0 -1.87,-1.87 h -1.30 a 1.87,1.87 0 0 0 -1.87,1.87 V 22.11 H 29.62 V 2.17 A 1.87,1.87 0 0 0 27.75,0.31 H 26.46 A 1.87,1.87 0 0 0 24.59,2.17 V 22.11 H 22.11 V 5.49 A 1.87,1.87 0 0 0 20.24,3.62 H 18.94 A 1.87,1.87 0 0 0 17.07,5.49 V 34.30 L 10.10,28.72 a 2.55,2.55 0 0 0 -3.36,0.14 l -0.61,0.58 a 2.55,2.55 0 0 0 -0.22,3.46 L 17.07,46.62 a 7.87,7.87 0 0 0 6.23,3.07 h 6.65 A 14.70,14.70 0 0 0 44.66,34.99 V 11.10 a 1.87,1.87 0 0 0 -1.87,-1.87 h -1.30 a 1.87,1.87 0 0 0 -1.87,1.87 z"
	/>
</svg>
