<svg xmlns="http://www.w3.org/2000/svg" height="50" width="50" viewbox="0 0 50 50">
	<path
		style="fill:#cccccc;stroke:#000000;stroke-width:0.5px"
		d="m 10.38,11.10 v 11.01 h 2.49 V 4.80 a 1.87,1.87 0 0 1 1.87,-1.87 h 1.30 a 1.87,1.87 0 0 1 1.87,1.87 v 17.31 h 2.47 V 2.17 a 1.87,1.87 0 0 1 1.87,-1.86 h 1.29 a 1.87,1.87 0 0 1 1.87,1.86 v 19.94 h 2.48 V 5.49 a 1.87,1.87 0 0 1 1.87,-1.87 h 1.30 a 1.87,1.87 0 0 1 1.87,1.87 V 34.30 l 6.97,-5.58 a 2.55,2.55 0 0 1 3.36,0.14 l 0.61,0.58 a 2.55,2.55 0 0 1 0.22,3.46 l -11.16,13.72 a 7.87,7.87 0 0 1 -6.23,3.07 h -6.65 A 14.7,14.7 0 0 1 5.34,34.99 V 11.10 a 1.87,1.87 0 0 1 1.87,-1.87 h 1.30 a 1.87,1.87 0 0 1 1.87,1.87 z"
	/>
</svg>
