<svg xmlns="http://www.w3.org/2000/svg" height="30" width="30" viewbox="0 0 30 30">
    <path
     d="m 15.00,1.41 c -1.40,0 -4.14,6.87 -5.27,7.69 -1.14,0.82 -8.52,1.30 -8.95,2.64 -0.43,1.33 5.26,6.05 5.69,7.38 C 6.90,20.46 5.08,27.63 6.21,28.47 7.34,29.29 13.60,25.33 15.00,25.33 c 1.40,0 7.66,3.94 8.79,3.12 1.14,-0.82 -0.69,-7.99 -0.25,-9.32 0.43,-1.33 6.13,-6.05 5.69,-7.38 C 28.79,10.41 21.41,9.93 20.27,9.11 19.14,8.29 16.40,1.41 15.00,1.41 Z"
     style="fill:#ffd700;stroke:#000000;stroke-width:0.6px"
     id="path251" />
</svg>