<svg xmlns="http://www.w3.org/2000/svg" height="30" width="30" viewbox="0 0 30 30">
    <path
        d="M 15.49,0.84 A 14.25,14.25 0 0 0 0.84,15.09 a 14.25,14.25 0 1 0 28.49,0 A 14.25,14.25 0 0 0 15.49,0.84 Z M 15.15,1.52 15.81,1.90 V 2.67 L 15.16,3.04 14.50,2.67 V 1.90 Z m 0.26,2.17 a 11.39,11.39 0 0 1 11.06,11.39 11.40,11.40 0 0 1 -22.80,0 A 11.39,11.39 0 0 1 15.39,3.69 Z M 14.56,5.17 A 9.93,9.93 0 0 0 9.71,6.73 V 23.42 a 9.93,9.93 0 0 0 4.84,1.57 z m 1.31,0.03 V 24.97 a 9.93,9.93 0 0 0 4.72,-1.63 V 6.83 A 9.93,9.93 0 0 0 15.87,5.20 Z M 8.42,7.75 A 9.93,9.93 0 0 0 5.17,15.09 9.93,9.93 0 0 0 8.42,22.42 Z M 3.90,7.87 4.55,8.25 V 9.02 L 3.90,9.40 3.24,9.02 V 8.25 Z m 22.32,0 0.66,0.38 V 9.02 L 26.22,9.40 25.56,9.02 V 8.25 Z m -4.32,0 V 22.29 a 9.93,9.93 0 0 0 3.11,-7.21 9.93,9.93 0 0 0 -3.11,-7.20 z m 4.30,12.86 0.66,0.37 v 0.77 l -0.66,0.38 -0.66,-0.38 v -0.77 z m -22.27,0.06 0.66,0.38 v 0.78 L 3.92,22.33 3.26,21.95 V 21.18 L 3.92,20.81 Z m 11.14,6.32 0.66,0.38 v 0.78 l -0.68,0.38 -0.66,-0.38 v -0.77 l 0.66,-0.38 z"
        style="fill:#a0522d;stroke:#000000;stoke-width:0.6px"
    />
</svg>
