<svg xmlns="http://www.w3.org/2000/svg" height="30" width="30" viewbox="0 0 30 30">
    <rect
        x="0"
        y="0"
        width="30"
        height="30"
        style="fill:#ff2400;stroke:#000000;stroke-width:0.6px"
	/>
    <path
        d="m 16.46,1.77 -1.99,3.04 4.60,2.97 3.20,7.43 c 0.32,-0.14 0.76,-0.39 1.25,-0.74 0.74,-0.50 1.56,-1.20 2.32,-1.98 0.76,-0.78 1.44,-1.63 1.87,-2.45 0.37,-0.72 0.56,-1.41 0.52,-2.00 L 20.95,4.68 Z"
        style="fill:#708090;stroke:#000000;stroke-width:0.6px"
    />
    <path
        d="M 14.53,6.08 C 9.76,12.68 6.51,19.06 1.81,26.41 c 0,0 0,0 0.01,0.03 0.01,0.06 0.09,0.20 0.20,0.33 0.23,0.29 0.65,0.65 1.11,0.95 0.45,0.29 0.95,0.53 1.31,0.62 0.19,0.04 0.33,0.06 0.39,0.04 0.01,0 0.01,0 0.03,0 1.27,-1.95 1.83,-2.81 2.77,-6.33 l 0.01,-0.07 0.04,-0.06 C 11.17,16.32 12.57,12.91 16.59,7.42 Z"
        style="fill:#a0522d;stroke:#000000;stroke-width:0.6px"
    />
</svg>
