<svg
    xmlns="http://www.w3.org/2000/svg"
    width="400px"
    height="400px"
    viewbox="0 0 400 400"
>
    <g transform="rotate(90,40,40)">
        <rect
            x="0"
            y="0"
            width="80"
            height="80"
            style="fill:#aaaaaa;stroke-width:2px;stroke:#555555"
        />
        <path
            d="m 36.49,65.38 c -10.12,-0.63 -15.97,-4.46 -17.85,-11.66 -0.93,-4.34 -0.76,-8.68 0.20,-12.53 1.07,-4.25 3.22,-8.24 6.03,-11.19 1.57,-1.64 2.99,-2.69 4.74,-3.89 -1.78,-2.55 -3.18,-5.79 -3.34,-8.48 -0.20,-1.53 0.31,-2.25 1.45,-3 0.50,-0.15 23.96,-0.17 24.49,-0.02 1.25,0.56 1.44,1.51 1.51,2.45 -0.32,3.60 -1.62,6.46 -3.39,9.04 2.89,1.99 5.79,4.84 7.49,7.47 4.40,8.01 6.08,17.44 1.37,24.73 -0.63,0.95 -2.23,2.61 -3.18,3.28 -3.11,2.22 -7.24,3.44 -12.86,3.78 -1.85,0.11 -4.8,0.11 -6.67,-0.01 z m 6.47,-4.33 c 10.01,-0.59 15.13,-5.47 14.62,-14.49 -0.44,-6.54 -3.32,-12.17 -8.08,-15.79 -0.61,-0.47 -1.11,-0.78 -2.51,-1.56 -0.73,-0.42 -1.3,-0.99 -1.55,-1.56 -0.19,-0.43 -0.21,-0.64 -0.18,-1.32 0.05,-1 0.28,-1.46 1.12,-2.34 0.83,-0.87 1.49,-1.78 1.94,-2.69 0.39,-0.78 0.76,-1.76 0.81,-2.19 l 0.03,-0.25 -9.29,-0.03 -9.29,-0.03 0.07,0.32 c 0.13,0.6 0.63,1.88 0.99,2.52 0.41,0.72 1.32,1.89 1.94,2.48 0.23,0.22 0.54,0.62 0.68,0.9 0.23,0.43 0.26,0.62 0.27,1.44 0,0.86 -0.02,0.99 -0.28,1.41 -0.36,0.59 -0.78,0.96 -1.63,1.43 -1.1,0.6 -2.23,1.37 -3.19,2.18 -3.82,3.2 -6.38,8.18 -7.1,13.76 -1.06,14.87 11.63,16.18 20.61,15.79 z m -9.5,-6.8 c -1.42,-0.34 -1.67,-1.81 -0.47,-2.74 1.53,-1.75 2.23,-3.48 2.43,-5.52 h -1.02 c -0.73,0 -1.11,-0.05 -1.36,-0.16 -0.75,-0.36 -1.04,-1.34 -0.61,-2.07 0.8035,-0.81047 1.2903,-0.75512 2.32,-0.76 v -1.62 c 0,-1.93 0.15,-2.65 0.82,-4.05 1.02,-2.14 2.71,-3.11 5.13,-2.95 2.5,0.17 4.31,1.64 5.15,4.19 0.51,1.54 0.19,2.5 -0.9,2.75 -0.81,0.19 -1.59,-0.35 -1.8,-1.24 -0.27,-1.16 -0.93,-2.1 -1.74,-2.5 -1.53,-0.57 -2.80,0.38 -3.49,1.64 -0.23,0.67 -0.27,2.81 -0.06,3.41 l 0.13,0.37 c 1.44,-0.01 3.04,-0.03 4.37,0.18 1.04,0.55 1.02,2.14 -0.04,2.64 -1.57,0.14 -3.21,0.17 -3.94,0.85 0,0.76 -0.4,2.42 -0.84,3.49 2.52,0.09 5.78,1.51 7.86,0.34 0.72,-0.42 1.31,-0.37 1.86,0.14 0.37,0.34 0.41,0.44 0.46,0.94 0.04,0.45 0.01,0.62 -0.17,0.91 -0.44,0.72 -2.13,1.48 -3.57,1.61 -1.66,0.05 -2.94,-0.37 -4.46,-0.81 -2.11,-0.03 -4.34,0.89 -6.06,0.95 z"
            style="fill:#000000;stroke:none"
        />
    </g>
    <g transform="translate(0,80) rotate(90,40,40)">
        <rect
            x="0"
            y="0"
            width="80"
            height="80"
            style="fill:#ff2200;stroke-width:2px;stroke:#555555"
        />
        <text
            x="40"
            y="40"
            text-anchor="middle"
            style="dominant-baseline:middle;font:16px sans-serif"
        >RED</text>
    </g>
    <g transform="translate(0,160) rotate(90,40,40)">
        <rect
            x="0"
            y="0"
            width="80"
            height="80"
            style="fill:#00ff33;stroke-width:2px;stroke:#555555"
        />
        <text
            x="40"
            y="40"
            text-anchor="middle"
            style="dominant-baseline:middle;font:16px sans-serif"
        >GREEN</text>
    </g>
    <g transform="translate(0,240) rotate(90,40,40)">
        <rect
            x="0"
            y="0"
            width="80"
            height="80"
            style="fill:#0099ff;stroke-width:2px;stroke:#555555"
        />
        <text
            x="40"
            y="40"
            text-anchor="middle"
            style="dominant-baseline:middle;font:16px sans-serif"
        >BLUE</text>
    </g>
    <g transform="translate(0,320)">
        <rect
            x="0"
            y="0"
            width="80"
            height="80"
            style="fill:#faed27;stroke-width:2px;stroke:#555555"
        />
        <text
            x="40"
            y="40"
            text-anchor="middle"
            style="dominant-baseline:middle;font:16px sans-serif"
        >YELLOW</text>
    </g>
    <g transform="translate(80,320)">
        <rect
            x="0"
            y="0"
            width="80"
            height="80"
            style="fill:#ffffff;stroke-width:2px;stroke:#555555"
        />
        <text
            x="40"
            y="40"
            text-anchor="middle"
            style="dominant-baseline:middle;font:16px sans-serif;fill:#000000"
        >EVENT</text>
    </g>
    <g transform="translate(160,320)">
        <rect
            x="0"
            y="0"
            width="80"
            height="80"
            style="fill:#0099ff;stroke-width:2px;stroke:#555555"
        />
        <text
            x="40"
            y="40"
            text-anchor="middle"
            style="dominant-baseline:middle;font:16px sans-serif"
        >BLUE</text>
    </g>
    <g transform="translate(240,320)">
        <rect
            x="0"
            y="0"
            width="80"
            height="80"
            style="fill:#00ff33;stroke-width:2px;stroke:#555555"
        />
        <text
            x="40"
            y="40"
            text-anchor="middle"
            style="dominant-baseline:middle;font:16px sans-serif"
        >GREEN</text>
    </g>
    <g transform="translate(320,320)">
        <rect
            x="0"
            y="0"
            width="80"
            height="80"
            style="fill:#ff2200;stroke-width:2px;stroke:#555555"
        />
        <text
            x="40"
            y="40"
            text-anchor="middle"
            style="dominant-baseline:middle;font:16px sans-serif"
        >RED</text>
    </g>
</svg>