<svg
    xmlns="http://www.w3.org/2000/svg"
    height="100"
    width="100"
    viewbox="0 0 100 100"
>
    <rect
        x="0"
        y="0"
        width="100"
        height="100"
        style="fill:#ba55d3;stroke:#000000;stroke-width:0.5px"
    />
    <path
        d="m 50.1,4.5 c -11.0,0 -22.1,1.5 -28.1,4.3 V 39.7 C 28.7,36.9 39.4,35.6 50.1,35.6 c 10.7,0 21.3,1.3 28.1,4.1 V 8.8 C 72.1,6.0 61.1,4.5 50.1,4.5 Z m 0,1.7 4.6,9.1 10.0,1.6 -7.2,7.2 1.6,10.0 -9.1,-4.6 -9.1,4.6 1.6,-10.0 -7.2,-7.2 10.0,-1.6 z m -12.8,17.4 0.5,2.3 -10.5,2.1 -0.5,-2.3 z m 25.6,0 10.5,2.1 -0.5,2.3 -10.5,-2.1 z M 26.1,40.8 c -0.8,0.2 -1.6,0.5 -2.4,0.8 v 20.9 h 2.4 z m 47.9,0 v 21.7 h 2.4 V 41.5 c -0.7,-0.3 -1.5,-0.5 -2.4,-0.8 z"
        style="fill:#000000;stroke:none"
    />
    <path
        id="g"
        d="m 36.1,85.1 q -1.1,0.8 -2.3,1.2 -1.2,0.4 -2.7,0.4 -1.7,0 -3.1,-0.5 -1.4,-0.5 -2.4,-1.5 -1.0,-1.0 -1.5,-2.3 -0.5,-1.4 -0.5,-3.0 0,-1.6 0.5,-3.0 0.5,-1.4 1.5,-2.3 1.0,-1.0 2.3,-1.5 1.4,-0.5 3.0,-0.5 0.9,0 1.6,0.1 0.7,0.1 1.4,0.4 0.6,0.2 1.2,0.6 0.5,0.3 1.0,0.8 l -0.6,0.9 q -0.1,0.2 -0.3,0.3 -0.2,0.1 -0.5,-0.1 -0.2,-0.1 -0.6,-0.3 -0.3,-0.2 -0.8,-0.4 -0.4,-0.2 -1.1,-0.3 -0.6,-0.1 -1.4,-0.1 -1.2,0 -2.2,0.4 -1.0,0.4 -1.7,1.1 -0.7,0.7 -1.1,1.8 -0.4,1.0 -0.4,2.3 0,1.4 0.4,2.4 0.4,1.1 1.1,1.8 0.7,0.7 1.7,1.1 1.0,0.4 2.3,0.4 0.5,0 0.9,-0.1 0.4,-0.1 0.8,-0.2 0.4,-0.1 0.8,-0.3 0.4,-0.2 0.8,-0.4 v -3.2 h -2.2 q -0.2,0 -0.3,-0.1 -0.1,-0.1 -0.1,-0.3 v -1.1 h 4.4 z"
        style="fill:#000000;stroke:none"
    />
    <path
        id="o"
        d="m 52.3,79.4 q 0,1.6 -0.5,3.0 -0.5,1.3 -1.4,2.3 -0.9,1.0 -2.2,1.5 -1.3,0.5 -2.9,0.5 -1.6,0 -2.9,-0.5 -1.3,-0.5 -2.2,-1.5 -0.9,-1.0 -1.4,-2.3 -0.5,-1.4 -0.5,-3.0 0,-1.6 0.5,-3.0 0.5,-1.4 1.4,-2.3 0.9,-1.0 2.2,-1.5 1.3,-0.5 2.9,-0.5 1.6,0 2.9,0.5 1.3,0.5 2.2,1.5 0.9,1.0 1.4,2.3 0.5,1.3 0.5,3.0 z m -2.0,0 q 0,-1.3 -0.4,-2.4 -0.4,-1.1 -1.0,-1.8 -0.7,-0.7 -1.6,-1.1 -0.9,-0.4 -2.1,-0.4 -1.2,0 -2.1,0.4 -0.9,0.4 -1.6,1.1 -0.7,0.7 -1.0,1.8 -0.4,1.1 -0.4,2.4 0,1.3 0.4,2.4 0.4,1.0 1.0,1.8 0.7,0.7 1.6,1.1 0.9,0.4 2.1,0.4 1.2,0 2.1,-0.4 0.9,-0.4 1.6,-1.1 0.7,-0.7 1.0,-1.8 0.4,-1.1 0.4,-2.4 z"
        style="fill:#000000;stroke:none"
    />
    <path
        id="a"
        d="m 66.4,86.5 h -1.5 q -0.3,0 -0.4,-0.1 -0.2,-0.1 -0.2,-0.3 l -1.3,-3.5 h -6.4 l -1.3,3.5 q -0.1,0.2 -0.2,0.3 -0.2,0.1 -0.4,0.1 h -1.5 l 5.7,-14.3 h 2.0 z m -9.4,-5.3 h 5.4 l -2.3,-5.8 q -0.1,-0.3 -0.2,-0.6 -0.1,-0.3 -0.2,-0.7 -0.1,0.4 -0.2,0.7 -0.1,0.3 -0.2,0.6 z"
        style="fill:#000000;stroke:none"
    />
    <path
        id="l"
        d="m 70.2,84.9 h 6.2 v 1.6 h -8.1 v -14.3 h 1.9 z"
        style="fill:#000000;stroke:none"
    />
</svg>