<svg
    xmlns="http://www.w3.org/2000/svg"
    height="100"
    width="100"
    viewbox="0 0 100 100"
>
    <rect
        x="0"
        y="0"
        width="100"
        height="100"
        style="fill:#bc8f8f;stroke:#000000;stroke-width:0.5px"
    />
    <path
        id="moneybag"
        d="m 49.6,7.5 c 0.2,-0.2 0.6,-0.2 0.9,0 l 2.0,2.0 c 1.2,1.2 3.0,1.6 4.6,0.9 L 61.5,8.7 C 62.1,8.5 62.6,9.1 62.3,9.6 l -4.9,9.0 H 51.9 51.8 47.6 47.5 42.5 L 37.6,9.6 c -0.3,-0.5 0.2,-1.1 0.8,-0.9 l 4.5,1.8 c 1.6,0.6 3.4,0.3 4.6,-0.9 z m -4.3,14.7 h -2.9 l -9.0,11.8 c -1.5,1.9 -2.3,4.3 -2.3,6.7 0,6.1 4.9,11.0 11.0,11.0 h 16.1 c 6.1,0 11.0,-4.9 11.0,-11.0 0,-2.4 -0.8,-4.8 -2.3,-6.7 L 57.7,22.3 H 54.4 l 3.4,9.8 c 0.3,1.0 -0.2,2.0 -1.1,2.3 -1.0,0.3 -2.0,-0.2 -2.3,-1.1 L 50.5,22.3 H 49.0 L 44.4,41.7 c -0.2,1.0 -1.2,1.6 -2.2,1.4 -1.0,-0.2 -1.6,-1.2 -1.4,-2.2 z m -10.8,-10.9 4.8,8.9 -8.9,11.5 c -2.0,2.6 -3.0,5.7 -3.0,8.9 0,8.1 6.5,14.6 14.6,14.6 h 16.1 c 8.1,0 14.6,-6.5 14.6,-14.6 0,-3.2 -1.1,-6.4 -3.0,-8.9 L 60.7,20.3 65.6,11.3 C 67.5,7.8 63.9,3.8 60.2,5.3 L 55.7,7.1 C 55.5,7.2 55.2,7.2 55.1,7.0 L 53.0,5.0 c -1.7,-1.7 -4.4,-1.7 -6.1,0 L 44.9,7.0 C 44.8,7.1 44.5,7.2 44.3,7.1 L 39.8,5.3 c -3.7,-1.5 -7.3,2.5 -5.4,6.0 z"
        style="fill:#000000;fill-rule:evenodd;stroke:none"
    />
    <path
        id="d-1"
        d="m 15.2,79.3 q 0,1.6 -0.5,2.9 -0.5,1.3 -1.4,2.3 -0.9,0.9 -2.2,1.5 -1.3,0.5 -2.9,0.5 h -5.4 v -14.3 h 5.4 q 1.6,0 2.9,0.5 1.3,0.5 2.2,1.5 0.9,0.9 1.4,2.3 0.5,1.3 0.5,2.9 z m -2.0,0 q 0,-1.3 -0.4,-2.4 -0.4,-1.0 -1.0,-1.8 -0.7,-0.7 -1.6,-1.1 -0.9,-0.4 -2.1,-0.4 h -3.4 v 11.2 h 3.4 q 1.2,0 2.1,-0.4 0.9,-0.4 1.6,-1.1 0.7,-0.7 1.0,-1.8 0.4,-1.0 0.4,-2.4 z"
        style="fill:#000000;stroke:none"
    />
    <path
        id="i-1"
        d="m 20.0,86.5 h -1.9 v -14.3 h 1.9 z"
        style="fill:#000000;stroke:none"
    />
    <path
        id="v"
        d="m 21.8,72.2 h 1.6 q 0.3,0 0.4,0.1 0.2,0.1 0.2,0.3 l 4.0,10.1 q 0.1,0.3 0.3,0.7 0.1,0.4 0.2,0.8 0.1,-0.4 0.2,-0.8 0.1,-0.4 0.3,-0.7 l 4.0,-10.1 q 0.1,-0.2 0.2,-0.3 0.2,-0.2 0.4,-0.2 h 1.6 l -5.8,14.3 h -1.7 z"
        style="fill:#000000;stroke:none"
    />
    <path
        id="i-2"
        d="m 39.1,86.5 h -1.9 v -14.3 h 1.9 z"
        style="fill:#000000;stroke:none"
    />
    <path
        id="d-2"
        d="m 55.2,79.3 q 0,1.6 -0.5,2.9 -0.5,1.3 -1.4,2.3 -0.9,0.9 -2.2,1.5 -1.3,0.5 -2.9,0.5 h -5.4 v -14.3 h 5.4 q 1.6,0 2.9,0.5 1.3,0.5 2.2,1.5 0.9,0.9 1.4,2.3 0.5,1.3 0.5,2.9 z m -2.0,0 q 0,-1.3 -0.4,-2.4 -0.4,-1.0 -1.0,-1.8 -0.7,-0.7 -1.6,-1.1 -0.9,-0.4 -2.1,-0.4 h -3.4 v 11.2 h 3.4 q 1.2,0 2.1,-0.4 0.9,-0.4 1.6,-1.1 0.7,-0.7 1.0,-1.8 0.4,-1.0 0.4,-2.4 z"
        style="fill:#000000;stroke:none"
    />
    <path
        id="e"
        d="m 66.8,72.2 v 1.6 h -6.9 v 4.8 h 5.6 v 1.5 h -5.6 v 4.9 h 6.9 l 0,1.6 h -8.8 v -14.3 z"
        style="fill:#000000;stroke:none"
    />
    <path
        id="n"
        d="m 70.5,72.2 q 0.1,0 0.2,0 0.1,0 0.2,0.1 0.1,0 0.1,0.1 0.1,0.1 0.2,0.2 l 8.3,10.8 q 0,-0.3 0,-0.5 0,-0.3 0,-0.5 v -10.2 h 1.7 v 14.3 h -1.0 q -0.2,0 -0.4,-0.1 -0.2,-0.1 -0.3,-0.3 l -8.3,-10.8 q 0,0.3 0,0.5 0,0.2 0,0.4 v 10.2 h -1.7 v -14.3 z"
        style="fill:#000000;stroke:none"
    />
    <path
        id="d-3"
        d="m 97.2,79.3 q 0,1.6 -0.5,2.9 -0.5,1.3 -1.4,2.3 -0.9,0.9 -2.2,1.5 -1.3,0.5 -2.9,0.5 h -5.4 v -14.3 h 5.4 q 1.6,0 2.9,0.5 1.3,0.5 2.2,1.5 0.9,0.9 1.4,2.3 0.5,1.3 0.5,2.9 z m -2.0,0 q 0,-1.3 -0.4,-2.4 -0.4,-1.0 -1.0,-1.8 -0.7,-0.7 -1.6,-1.1 -0.9,-0.4 -2.1,-0.4 h -3.4 v 11.2 h 3.4 q 1.2,0 2.1,-0.4 0.9,-0.4 1.6,-1.1 0.7,-0.7 1.0,-1.8 0.4,-1.0 0.4,-2.4 z"
        style="fill:#000000;stroke:none"
    />
</svg>