<?xml version="1.0" ?>
<svg xmlns="http://www.w3.org/2000/svg" width="1440" height="990" viewbox="0 0 1440 990">
    <rect x="0" y="0" width="90" height="90" style="fill:#fcefde;stroke:#000000;stroke-width:1px"/>
    <rect x="0" y="90" width="90" height="90" style="fill:#fcefde;stroke:#000000;stroke-width:1px"/>
    <rect x="0" y="180" width="90" height="90" style="fill:#fcefde;stroke:#000000;stroke-width:1px"/>
    <rect x="0" y="270" width="90" height="90" style="fill:#67a7c4;stroke:#000000;stroke-width:1px"/>
    <rect x="0" y="360" width="90" height="90" style="fill:#fcefde;stroke:#000000;stroke-width:1px"/>
    <rect x="0" y="450" width="90" height="90" style="fill:#fcefde;stroke:#000000;stroke-width:1px"/>
    <rect x="0" y="540" width="90" height="90" style="fill:#67a7c4;stroke:#000000;stroke-width:1px"/>
    <rect x="0" y="630" width="90" height="90" style="fill:#fcefde;stroke:#000000;stroke-width:1px"/>
    <rect x="0" y="720" width="90" height="90" style="fill:#fcefde;stroke:#000000;stroke-width:1px"/>
    <rect x="0" y="810" width="90" height="90" style="fill:#fcefde;stroke:#000000;stroke-width:1px"/>
    <rect x="0" y="900" width="90" height="90" style="fill:#fcefde;stroke:#000000;stroke-width:1px"/>
    <rect x="90" y="0" width="90" height="90" style="fill:#fcefde;stroke:#000000;stroke-width:1px"/>
    <rect x="90" y="90" width="90" height="90" style="fill:#fcefde;stroke:#000000;stroke-width:1px"/>
    <rect x="90" y="180" width="90" height="90" style="fill:#fcefde;stroke:#000000;stroke-width:1px"/>
    <rect x="90" y="270" width="90" height="90" style="fill:#67a7c4;stroke:#000000;stroke-width:1px"/>
    <rect x="90" y="360" width="90" height="90" style="fill:#fcefde;stroke:#000000;stroke-width:1px"/>
    <rect x="90" y="450" width="90" height="90" style="fill:#fcefde;stroke:#000000;stroke-width:1px"/>
    <rect x="90" y="540" width="90" height="90" style="fill:#67a7c4;stroke:#000000;stroke-width:1px"/>
    <rect x="90" y="630" width="90" height="90" style="fill:#fcefde;stroke:#000000;stroke-width:1px"/>
    <rect x="90" y="720" width="90" height="90" style="fill:#fcefde;stroke:#000000;stroke-width:1px"/>
    <rect x="90" y="810" width="90" height="90" style="fill:#fcefde;stroke:#000000;stroke-width:1px"/>
    <rect x="90" y="900" width="90" height="90" style="fill:#fcefde;stroke:#000000;stroke-width:1px"/>
    <rect x="180" y="0" width="90" height="90" style="fill:#fcefde;stroke:#000000;stroke-width:1px"/>
    <rect x="180" y="90" width="90" height="90" style="fill:#fcefde;stroke:#000000;stroke-width:1px"/>
    <rect x="180" y="180" width="90" height="90" style="fill:#fcefde;stroke:#000000;stroke-width:1px"/>
    <rect x="180" y="270" width="90" height="90" style="fill:#67a7c4;stroke:#000000;stroke-width:1px"/>
    <rect x="180" y="360" width="90" height="90" style="fill:#fcefde;stroke:#000000;stroke-width:1px"/>
    <rect x="180" y="450" width="90" height="90" style="fill:#fcefde;stroke:#000000;stroke-width:1px"/>
    <rect x="180" y="540" width="90" height="90" style="fill:#67a7c4;stroke:#000000;stroke-width:1px"/>
    <rect x="180" y="630" width="90" height="90" style="fill:#fcefde;stroke:#000000;stroke-width:1px"/>
    <rect x="180" y="720" width="90" height="90" style="fill:#fcefde;stroke:#000000;stroke-width:1px"/>
    <rect x="180" y="810" width="90" height="90" style="fill:#fcefde;stroke:#000000;stroke-width:1px"/>
    <rect x="180" y="900" width="90" height="90" style="fill:#fcefde;stroke:#000000;stroke-width:1px"/>
    <rect x="270" y="0" width="90" height="90" style="fill:#fcefde;stroke:#000000;stroke-width:1px"/>
    <rect x="270" y="90" width="90" height="90" style="fill:#fcefde;stroke:#000000;stroke-width:1px"/>
    <rect x="270" y="180" width="90" height="90" style="fill:#67a7c4;stroke:#000000;stroke-width:1px"/>
    <rect x="270" y="270" width="90" height="90" style="fill:#67a7c4;stroke:#000000;stroke-width:1px"/>
    <rect x="270" y="360" width="90" height="90" style="fill:#fcefde;stroke:#000000;stroke-width:1px"/>
    <rect x="270" y="450" width="90" height="90" style="fill:#fcefde;stroke:#000000;stroke-width:1px"/>
    <rect x="270" y="540" width="90" height="90" style="fill:#67a7c4;stroke:#000000;stroke-width:1px"/>
    <rect x="270" y="630" width="90" height="90" style="fill:#67a7c4;stroke:#000000;stroke-width:1px"/>
    <rect x="270" y="720" width="90" height="90" style="fill:#fcefde;stroke:#000000;stroke-width:1px"/>
    <rect x="270" y="810" width="90" height="90" style="fill:#fcefde;stroke:#000000;stroke-width:1px"/>
    <rect x="270" y="900" width="90" height="90" style="fill:#fcefde;stroke:#000000;stroke-width:1px"/>
    <rect x="360" y="0" width="90" height="90" style="fill:#67a7c4;stroke:#000000;stroke-width:1px"/>
    <rect x="360" y="90" width="90" height="90" style="fill:#67a7c4;stroke:#000000;stroke-width:1px"/>
    <rect x="360" y="180" width="90" height="90" style="fill:#67a7c4;stroke:#000000;stroke-width:1px"/>
    <rect x="360" y="270" width="90" height="90" style="fill:#fcefde;stroke:#000000;stroke-width:1px"/>
    <rect x="360" y="360" width="90" height="90" style="fill:#fcefde;stroke:#000000;stroke-width:1px"/>
    <rect x="360" y="450" width="90" height="90" style="fill:#fcefde;stroke:#000000;stroke-width:1px"/>
    <rect x="360" y="540" width="90" height="90" style="fill:#fcefde;stroke:#000000;stroke-width:1px"/>
    <rect x="360" y="630" width="90" height="90" style="fill:#67a7c4;stroke:#000000;stroke-width:1px"/>
    <rect x="360" y="720" width="90" height="90" style="fill:#fcefde;stroke:#000000;stroke-width:1px"/>
    <rect x="360" y="810" width="90" height="90" style="fill:#fcefde;stroke:#000000;stroke-width:1px"/>
    <rect x="360" y="900" width="90" height="90" style="fill:#fcefde;stroke:#000000;stroke-width:1px"/>
    <rect x="450" y="0" width="90" height="90" style="fill:#67a7c4;stroke:#000000;stroke-width:1px"/>
    <rect x="450" y="90" width="90" height="90" style="fill:#fcefde;stroke:#000000;stroke-width:1px"/>
    <rect x="450" y="180" width="90" height="90" style="fill:#fcefde;stroke:#000000;stroke-width:1px"/>
    <rect x="450" y="270" width="90" height="90" style="fill:#fcefde;stroke:#000000;stroke-width:1px"/>
    <rect x="450" y="360" width="90" height="90" style="fill:#fcefde;stroke:#000000;stroke-width:1px"/>
    <rect x="450" y="450" width="90" height="90" style="fill:#fcefde;stroke:#000000;stroke-width:1px"/>
    <rect x="450" y="540" width="90" height="90" style="fill:#fcefde;stroke:#000000;stroke-width:1px"/>
    <rect x="450" y="630" width="90" height="90" style="fill:#67a7c4;stroke:#000000;stroke-width:1px"/>
    <rect x="450" y="720" width="90" height="90" style="fill:#fcefde;stroke:#000000;stroke-width:1px"/>
    <rect x="450" y="810" width="90" height="90" style="fill:#fcefde;stroke:#000000;stroke-width:1px"/>
    <rect x="450" y="900" width="90" height="90" style="fill:#fcefde;stroke:#000000;stroke-width:1px"/>
    <rect x="540" y="0" width="90" height="90" style="fill:#67a7c4;stroke:#000000;stroke-width:1px"/>
    <rect x="540" y="90" width="90" height="90" style="fill:#fcefde;stroke:#000000;stroke-width:1px"/>
    <rect x="540" y="180" width="90" height="90" style="fill:#fcefde;stroke:#000000;stroke-width:1px"/>
    <rect x="540" y="270" width="90" height="90" style="fill:#fcefde;stroke:#000000;stroke-width:1px"/>
    <rect x="540" y="360" width="90" height="90" style="fill:#fcefde;stroke:#000000;stroke-width:1px"/>
    <rect x="540" y="450" width="90" height="90" style="fill:#fcefde;stroke:#000000;stroke-width:1px"/>
    <rect x="540" y="540" width="90" height="90" style="fill:#fcefde;stroke:#000000;stroke-width:1px"/>
    <rect x="540" y="630" width="90" height="90" style="fill:#67a7c4;stroke:#000000;stroke-width:1px"/>
    <rect x="540" y="720" width="90" height="90" style="fill:#67a7c4;stroke:#000000;stroke-width:1px"/>
    <rect x="540" y="810" width="90" height="90" style="fill:#fcefde;stroke:#000000;stroke-width:1px"/>
    <rect x="540" y="900" width="90" height="90" style="fill:#fcefde;stroke:#000000;stroke-width:1px"/>
    <rect x="630" y="0" width="90" height="90" style="fill:#67a7c4;stroke:#000000;stroke-width:1px"/>
    <rect x="630" y="90" width="90" height="90" style="fill:#fcefde;stroke:#000000;stroke-width:1px"/>
    <rect x="630" y="180" width="90" height="90" style="fill:#fcefde;stroke:#000000;stroke-width:1px"/>
    <rect x="630" y="270" width="90" height="90" style="fill:#fcefde;stroke:#000000;stroke-width:1px"/>
    <rect x="630" y="360" width="90" height="90" style="fill:#fcefde;stroke:#000000;stroke-width:1px"/>
    <rect x="630" y="450" width="90" height="90" style="fill:#fcefde;stroke:#000000;stroke-width:1px"/>
    <rect x="630" y="540" width="90" height="90" style="fill:#fcefde;stroke:#000000;stroke-width:1px"/>
    <rect x="630" y="630" width="90" height="90" style="fill:#fcefde;stroke:#000000;stroke-width:1px"/>
    <rect x="630" y="720" width="90" height="90" style="fill:#67a7c4;stroke:#000000;stroke-width:1px"/>
    <rect x="630" y="810" width="90" height="90" style="fill:#fcefde;stroke:#000000;stroke-width:1px"/>
    <rect x="630" y="900" width="90" height="90" style="fill:#fcefde;stroke:#000000;stroke-width:1px"/>
    <rect x="720" y="0" width="90" height="90" style="fill:#67a7c4;stroke:#000000;stroke-width:1px"/>
    <rect x="720" y="90" width="90" height="90" style="fill:#fcefde;stroke:#000000;stroke-width:1px"/>
    <rect x="720" y="180" width="90" height="90" style="fill:#fcefde;stroke:#000000;stroke-width:1px"/>
    <rect x="720" y="270" width="90" height="90" style="fill:#fcefde;stroke:#000000;stroke-width:1px"/>
    <rect x="720" y="360" width="90" height="90" style="fill:#fcefde;stroke:#000000;stroke-width:1px"/>
    <rect x="720" y="450" width="90" height="90" style="fill:#fcefde;stroke:#000000;stroke-width:1px"/>
    <rect x="720" y="540" width="90" height="90" style="fill:#fcefde;stroke:#000000;stroke-width:1px"/>
    <rect x="720" y="630" width="90" height="90" style="fill:#fcefde;stroke:#000000;stroke-width:1px"/>
    <rect x="720" y="720" width="90" height="90" style="fill:#67a7c4;stroke:#000000;stroke-width:1px"/>
    <rect x="720" y="810" width="90" height="90" style="fill:#fcefde;stroke:#000000;stroke-width:1px"/>
    <rect x="720" y="900" width="90" height="90" style="fill:#fcefde;stroke:#000000;stroke-width:1px"/>
    <rect x="810" y="0" width="90" height="90" style="fill:#fcefde;stroke:#000000;stroke-width:1px"/>
    <rect x="810" y="90" width="90" height="90" style="fill:#fcefde;stroke:#000000;stroke-width:1px"/>
    <rect x="810" y="180" width="90" height="90" style="fill:#fcefde;stroke:#000000;stroke-width:1px"/>
    <rect x="810" y="270" width="90" height="90" style="fill:#fcefde;stroke:#000000;stroke-width:1px"/>
    <rect x="810" y="360" width="90" height="90" style="fill:#fcefde;stroke:#000000;stroke-width:1px"/>
    <rect x="810" y="450" width="90" height="90" style="fill:#fcefde;stroke:#000000;stroke-width:1px"/>
    <rect x="810" y="540" width="90" height="90" style="fill:#fcefde;stroke:#000000;stroke-width:1px"/>
    <rect x="810" y="630" width="90" height="90" style="fill:#fcefde;stroke:#000000;stroke-width:1px"/>
    <rect x="810" y="720" width="90" height="90" style="fill:#67a7c4;stroke:#000000;stroke-width:1px"/>
    <rect x="810" y="810" width="90" height="90" style="fill:#fcefde;stroke:#000000;stroke-width:1px"/>
    <rect x="810" y="900" width="90" height="90" style="fill:#fcefde;stroke:#000000;stroke-width:1px"/>
    <rect x="900" y="0" width="90" height="90" style="fill:#fcefde;stroke:#000000;stroke-width:1px"/>
    <rect x="900" y="90" width="90" height="90" style="fill:#fcefde;stroke:#000000;stroke-width:1px"/>
    <rect x="900" y="180" width="90" height="90" style="fill:#fcefde;stroke:#000000;stroke-width:1px"/>
    <rect x="900" y="270" width="90" height="90" style="fill:#fcefde;stroke:#000000;stroke-width:1px"/>
    <rect x="900" y="360" width="90" height="90" style="fill:#fcefde;stroke:#000000;stroke-width:1px"/>
    <rect x="900" y="450" width="90" height="90" style="fill:#fcefde;stroke:#000000;stroke-width:1px"/>
    <rect x="900" y="540" width="90" height="90" style="fill:#fcefde;stroke:#000000;stroke-width:1px"/>
    <rect x="900" y="630" width="90" height="90" style="fill:#fcefde;stroke:#000000;stroke-width:1px"/>
    <rect x="900" y="720" width="90" height="90" style="fill:#67a7c4;stroke:#000000;stroke-width:1px"/>
    <rect x="900" y="810" width="90" height="90" style="fill:#fcefde;stroke:#000000;stroke-width:1px"/>
    <rect x="900" y="900" width="90" height="90" style="fill:#fcefde;stroke:#000000;stroke-width:1px"/>
    <rect x="990" y="0" width="90" height="90" style="fill:#fcefde;stroke:#000000;stroke-width:1px"/>
    <rect x="990" y="90" width="90" height="90" style="fill:#fcefde;stroke:#000000;stroke-width:1px"/>
    <rect x="990" y="180" width="90" height="90" style="fill:#fcefde;stroke:#000000;stroke-width:1px"/>
    <rect x="990" y="270" width="90" height="90" style="fill:#fcefde;stroke:#000000;stroke-width:1px"/>
    <rect x="990" y="360" width="90" height="90" style="fill:#fcefde;stroke:#000000;stroke-width:1px"/>
    <rect x="990" y="450" width="90" height="90" style="fill:#fcefde;stroke:#000000;stroke-width:1px"/>
    <rect x="990" y="540" width="90" height="90" style="fill:#fcefde;stroke:#000000;stroke-width:1px"/>
    <rect x="990" y="630" width="90" height="90" style="fill:#fcefde;stroke:#000000;stroke-width:1px"/>
    <rect x="990" y="720" width="90" height="90" style="fill:#67a7c4;stroke:#000000;stroke-width:1px"/>
    <rect x="990" y="810" width="90" height="90" style="fill:#fcefde;stroke:#000000;stroke-width:1px"/>
    <rect x="990" y="900" width="90" height="90" style="fill:#fcefde;stroke:#000000;stroke-width:1px"/>
    <rect x="1080" y="0" width="90" height="90" style="fill:#67a7c4;stroke:#000000;stroke-width:1px"/>
    <rect x="1080" y="90" width="90" height="90" style="fill:#67a7c4;stroke:#000000;stroke-width:1px"/>
    <rect x="1080" y="180" width="90" height="90" style="fill:#67a7c4;stroke:#000000;stroke-width:1px"/>
    <rect x="1080" y="270" width="90" height="90" style="fill:#fcefde;stroke:#000000;stroke-width:1px"/>
    <rect x="1080" y="360" width="90" height="90" style="fill:#fcefde;stroke:#000000;stroke-width:1px"/>
    <rect x="1080" y="450" width="90" height="90" style="fill:#fcefde;stroke:#000000;stroke-width:1px"/>
    <rect x="1080" y="540" width="90" height="90" style="fill:#67a7c4;stroke:#000000;stroke-width:1px"/>
    <rect x="1080" y="630" width="90" height="90" style="fill:#67a7c4;stroke:#000000;stroke-width:1px"/>
    <rect x="1080" y="720" width="90" height="90" style="fill:#67a7c4;stroke:#000000;stroke-width:1px"/>
    <rect x="1080" y="810" width="90" height="90" style="fill:#fcefde;stroke:#000000;stroke-width:1px"/>
    <rect x="1080" y="900" width="90" height="90" style="fill:#fcefde;stroke:#000000;stroke-width:1px"/>
    <rect x="1170" y="0" width="90" height="90" style="fill:#fcefde;stroke:#000000;stroke-width:1px"/>
    <rect x="1170" y="90" width="90" height="90" style="fill:#fcefde;stroke:#000000;stroke-width:1px"/>
    <rect x="1170" y="180" width="90" height="90" style="fill:#67a7c4;stroke:#000000;stroke-width:1px"/>
    <rect x="1170" y="270" width="90" height="90" style="fill:#67a7c4;stroke:#000000;stroke-width:1px"/>
    <rect x="1170" y="360" width="90" height="90" style="fill:#fcefde;stroke:#000000;stroke-width:1px"/>
    <rect x="1170" y="450" width="90" height="90" style="fill:#fcefde;stroke:#000000;stroke-width:1px"/>
    <rect x="1170" y="540" width="90" height="90" style="fill:#67a7c4;stroke:#000000;stroke-width:1px"/>
    <rect x="1170" y="630" width="90" height="90" style="fill:#fcefde;stroke:#000000;stroke-width:1px"/>
    <rect x="1170" y="720" width="90" height="90" style="fill:#fcefde;stroke:#000000;stroke-width:1px"/>
    <rect x="1170" y="810" width="90" height="90" style="fill:#fcefde;stroke:#000000;stroke-width:1px"/>
    <rect x="1170" y="900" width="90" height="90" style="fill:#fcefde;stroke:#000000;stroke-width:1px"/>
    <rect x="1260" y="0" width="90" height="90" style="fill:#fcefde;stroke:#000000;stroke-width:1px"/>
    <rect x="1260" y="90" width="90" height="90" style="fill:#fcefde;stroke:#000000;stroke-width:1px"/>
    <rect x="1260" y="180" width="90" height="90" style="fill:#fcefde;stroke:#000000;stroke-width:1px"/>
    <rect x="1260" y="270" width="90" height="90" style="fill:#67a7c4;stroke:#000000;stroke-width:1px"/>
    <rect x="1260" y="360" width="90" height="90" style="fill:#67a7c4;stroke:#000000;stroke-width:1px"/>
    <rect x="1260" y="450" width="90" height="90" style="fill:#67a7c4;stroke:#000000;stroke-width:1px"/>
    <rect x="1260" y="540" width="90" height="90" style="fill:#67a7c4;stroke:#000000;stroke-width:1px"/>
    <rect x="1260" y="630" width="90" height="90" style="fill:#fcefde;stroke:#000000;stroke-width:1px"/>
    <rect x="1260" y="720" width="90" height="90" style="fill:#fcefde;stroke:#000000;stroke-width:1px"/>
    <rect x="1260" y="810" width="90" height="90" style="fill:#fcefde;stroke:#000000;stroke-width:1px"/>
    <rect x="1260" y="900" width="90" height="90" style="fill:#fcefde;stroke:#000000;stroke-width:1px"/>
    <rect x="1350" y="0" width="90" height="90" style="fill:#fcefde;stroke:#000000;stroke-width:1px"/>
    <rect x="1350" y="90" width="90" height="90" style="fill:#fcefde;stroke:#000000;stroke-width:1px"/>
    <rect x="1350" y="180" width="90" height="90" style="fill:#fcefde;stroke:#000000;stroke-width:1px"/>
    <rect x="1350" y="270" width="90" height="90" style="fill:#67a7c4;stroke:#000000;stroke-width:1px"/>
    <rect x="1350" y="360" width="90" height="90" style="fill:#67a7c4;stroke:#000000;stroke-width:1px"/>
    <rect x="1350" y="450" width="90" height="90" style="fill:#fcefde;stroke:#000000;stroke-width:1px"/>
    <rect x="1350" y="540" width="90" height="90" style="fill:#fcefde;stroke:#000000;stroke-width:1px"/>
    <rect x="1350" y="630" width="90" height="90" style="fill:#fcefde;stroke:#000000;stroke-width:1px"/>
    <rect x="1350" y="720" width="90" height="90" style="fill:#fcefde;stroke:#000000;stroke-width:1px"/>
    <rect x="1350" y="810" width="90" height="90" style="fill:#fcefde;stroke:#000000;stroke-width:1px"/>
    <rect x="1350" y="900" width="90" height="90" style="fill:#fcefde;stroke:#000000;stroke-width:1px"/>
</svg>
