<svg
    xmlns="http://www.w3.org/2000/svg" 
    height="180"
    width="180"
    viewbox="0 0 180 180"
>
    <rect
        x="0"
        y="0"
        width="180"
        height="180"
        style="fill:none;stroke:#222222;stroke-width:1px"
    />
    <polygon
        points="0,0 0,180 180,0"
        style="fill:#000000"
    />
    <polygon
        points="180,0 180,180 0,180"
        style="fill:#0000ff"
    />
    <path
        style="fill:#eeeeee;stroke:none"
        d="M 90.0,11.1 A 38.9,38.9 0 0 0 51.1,49.9 38.9,38.9 0 0 0 59.6,74.1 L 90.0,21.5 120.4,74.1 A 38.9,38.9 0 0 0 128.9,49.9 38.9,38.9 0 0 0 90.0,11.1 Z m 0.0,22.9 -13.8,23.9 H 103.8 Z M 72.6,64.1 63.4,80.1 H 86.9 V 64.1 Z m 20.5,0 V 80.1 H 116.6 L 107.4,64.1 Z M 59.8,86.4 50.6,102.3 H 129.4 L 120.2,86.4 Z m -12.8,22.2 -9.2,16.0 h 49.1 v -16.0 z m 46.2,0 v 16.0 h 49.1 l -9.2,-16.0 z M 34.2,130.8 24.9,146.7 H 155.1 l -9.2,-16.0 z m -12.8,22.2 -9.2,16.0 h 74.8 v -16.0 z m 71.8,0 v 16.0 H 167.9 l -9.2,-16.0 z"
    />
</svg>