<svg
    xmlns="http://www.w3.org/2000/svg" 
    height="90"
    width="90"
    viewbox="0 0 90 90"
>
    <rect
        x="0"
        y="0"
        width="90"
        height="90"
        style="fill:#8b4513;stroke:#222222;stroke-width:1px"
    />
    <path
        style="fill:#eeeeee;stroke:none"
        d="M 17.7,4.5 9.1,4.7 14.5,11.4 19.6,9.6 Z m 54.6,0.0 -1.9,5.1 5.1,1.9 5.3,-6.7 z m -50.6,1.5 2.0,5.5 -5.5,2.0 47.6,22.2 3.5,-7.6 z m 46.5,0 -19.4,9.0 9.9,4.6 13.0,-6.1 -5.5,-2.0 z m -37.0,17.3 -10.6,4.9 3.5,7.6 16.9,-7.9 z m 43.8,0.5 -8.9,19.2 2.4,2.7 L 78.6,23.8 Z m -60.1,0.0 -3.6,0.1 10.1,21.8 2.3,-2.7 z m 63.5,8.1 -5.6,11.9 -6.2,15.4 -10.1,6.0 c -0.6,1.3 -1.2,2.5 -2.0,3.6 -2.3,3.2 -5.7,5.4 -9.5,5.4 -3.8,0 -7.2,-2.1 -9.5,-5.4 -0.8,-1.1 -1.5,-2.3 -2.1,-3.7 L 23.4,59.2 18.3,46.5 11.6,32.0 6.2,35.5 14.5,63.1 29.2,80.7 v 4.8 H 60.9 V 80.7 L 75.5,63.1 83.8,35.5 Z M 45.0,42.3 c -2.6,0.0 -5.0,1.4 -6.9,4.0 -1.9,2.6 -3.1,6.2 -3.1,10.3 0,4.1 1.2,7.8 3.1,10.3 1.9,2.6 4.3,4.0 6.9,4.0 2.6,0 5.0,-1.4 6.9,-4.0 1.9,-2.6 3.1,-6.2 3.1,-10.3 0.0,-4.1 -1.2,-7.8 -3.1,-10.3 -1.9,-2.6 -4.3,-4.0 -6.9,-4.0 z"
    />
</svg>