<svg
    xmlns="http://www.w3.org/2000/svg" 
    height="90"
    width="90"
    viewbox="0 0 90 90"
>
    <rect
        x="0"
        y="0"
        width="90"
        height="90"
        style="fill:#000000;stroke:#222222;stroke-width:1px"
    />
    <path
        style="fill:#eeeeee;stroke:none"
        d="M 17.9,4.2 4.7,15.2 H 31.1 L 17.9,4.2 Z M 71.3,10.1 58.1,21.1 H 84.5 L 71.3,10.1 Z M 40.0,13.2 19.8,30.0 H 60.1 Z M 7.7,18.5 V 30.0 H 14.6 L 28.1,18.7 v -0.2 z m 4.3,2.6 h 3.0 v 3.3 h -3.0 z m 49.1,3.3 v 2.0 l 4.3,3.6 v -3.0 h 3.0 v 3.3 h -2.5 l 0.0,0.0 3.5,3.0 h -8.2 v 2.6 h 14.5 v -7.2 h 3.3 v 7.2 h 2.6 V 24.5 Z m -36.0,8.9 v 3.7 l 4.5,-3.7 z m 5.2,0 19.5,16.2 5.0,-4.2 V 33.4 Z m 13.8,2.6 h 6.6 v 6.3 H 44.1 Z M 29.9,37.4 3.2,59.7 H 56.7 L 29.9,37.4 Z m 36.7,2.5 -14.2,11.9 5.9,4.9 H 86.8 L 66.6,39.9 Z m -4.3,20.2 0.0,0.0 3.5,2.9 H 52.5 V 77.4 H 63.7 V 65.6 h 9.3 v 11.8 h 8.5 V 60.0 H 62.3 Z m -51.6,3.0 v 22.8 h 23.4 v -14.3 h 9.3 v 14.3 h 5.9 V 63.0 h -38.5 z m 5.6,5.6 h 9.3 v 9.3 H 16.3 Z"
    />
</svg>