<svg
    xmlns="http://www.w3.org/2000/svg" 
    height="90"
    width="90"
    viewbox="0 0 90 90"
>
    <rect
        x="0"
        y="0"
        width="90"
        height="90"
        style="fill:#ff0000;stroke:#000000;stroke-width:1px"
    />
    <path
        style="fill:#eeeeee;stroke:none"
        d="M 85.9,6.3 84.1,11.7 H 57.7 L 55.9,6.3 Z m -51.8,0 -1.8,5.4 H 5.9 L 4.1,6.3 Z m 46.8,8.6 5.4,54.3 H 79.0 L 79.0,31.5 73.1,18.4 67.2,31.5 67.1,69.3 H 63.9 v -37.4 h -4.7 l 1.7,-16.9 z m -51.8,0 1.7,16.9 h -4.7 v 37.4 H 22.9 L 22.8,31.5 16.9,18.4 11.0,31.5 11.0,69.3 H 3.6 L 9.0,15.0 Z m 43.9,10.6 1.7,3.4 h -3.4 z m -56.1,0 1.7,3.4 H 15.3 Z M 75.8,32.2 V 69.3 H 70.4 V 32.2 Z m -56.1,0 V 69.3 H 14.2 V 32.2 Z m 41.0,2.9 v 5.4 H 29.4 v -5.4 z m 0,8.6 V 69.3 H 55.3 V 49.1 H 34.7 V 69.3 H 29.4 V 43.7 Z M 86.5,72.5 V 83.7 H 60.5 L 56.0,72.5 Z m -34.0,0 1.5,3.8 H 36.0 l 1.5,-3.8 z m -18.6,0 -4.5,11.2 H 3.5 V 72.5 Z m 21.4,7.0 1.7,4.1 H 33.0 l 1.7,-4.1 z"
    />
</svg>