<svg
    xmlns="http://www.w3.org/2000/svg" 
    height="90"
    width="90"
    viewbox="0 0 90 90"
>
    <rect
        x="0"
        y="0"
        width="90"
        height="90"
        style="fill:#d4af37;stroke:#222222;stroke-width:1px"
    />
    <path
        style="fill:#eeeeee;stroke:none"
        d="m 10.0,4.5 2.0,2.0 0.0,0.0 42.7,42.7 0.9,-4.6 0.2,-0.9 0.9,-0.3 4.1,-1.4 1.6,-0.5 0.6,1.5 12.2,31.6 1.4,3.6 -3.6,-1.4 -31.6,-12.1 -1.5,-0.6 0.6,-1.6 1.5,-4.2 0.3,-0.9 0.9,-0.2 5.3,-1.1 -43.0,-43.0 0.0,0.0 -2.8,-2.8 v 4.8 L 19.4,31.6 C 13.7,32.3 7.6,30.4 3.4,24.1 2.4,32.3 8.4,37.1 15.7,40.5 c 25.9,12.1 11.3,28.0 -3.8,12.4 4.3,24.3 50.4,41.3 68.6,28.1 14.7,-10.7 5.1,-57.6 -22.6,-64.8 6.5,4.7 0.7,7.2 -6.5,6.3 6.1,3.4 9.8,7.8 5.1,11.9 C 51.9,38.4 45.1,30.8 44.2,24.1 42.8,13.5 41.8,7.9 27.8,8.5 33.5,12.9 34.4,18.0 32.7,22.3 L 14.8,4.5 h -4.8 z m 50.4,41.1 -1.6,0.6 -2.2,10.6 -0.2,1.1 -1.1,0.2 -10.6,2.2 -0.6,1.7 L 70.6,72.0 60.4,45.5 Z"
    />
</svg>