<svg
    xmlns="http://www.w3.org/2000/svg" 
    height="90"
    width="90"
    viewbox="0 0 90 90"
>
    <rect
        x="0"
        y="0"
        width="90"
        height="90"
        style="fill:#0000ff;stroke:#000000;stroke-width:1px"
    />
    <path
        style="fill:#eeeeee;stroke:none"
        d="M 21.3,5.1 7.4,13.0 H 35.3 Z M 10.7,16.2 C 9.5,17.5 8.6,19.3 7.9,21.5 H 34.7 c -0.7,-2.2 -1.6,-4.0 -2.7,-5.3 z m -3.6,8.5 c -0.2,1.1 -0.4,2.1 -0.6,3.2 -0.6,4.6 -0.7,9.5 -0.7,13.5 h 5.3 v -6.9 h 3.2 v 6.9 h 5.3 v -6.9 h 3.2 v 6.9 h 5.3 v -6.9 h 3.2 v 6.9 h 5.3 c 0.0,-4.0 -0.1,-8.9 -0.7,-13.5 -0.1,-1.1 -0.3,-2.2 -0.6,-3.2 z M 5.8,44.6 v 40.3 H 15.6 V 63.0 c 0,-2.8 2.8,-4.3 5.7,-4.3 2.8,0 5.7,1.4 5.7,4.3 v 9.3 l 1.3,-0.9 c 0.5,0.4 1.1,0.9 1.5,1.2 1.9,-2.5 4.2,-5.0 6.9,-7.3 V 44.6 Z m 43.9,4.7 c -1.4,0.6 -1.7,2.8 -1.7,4.1 0.1,0.9 0.3,4.4 1.7,4.1 1.5,-0.3 1.7,-2.8 1.7,-4.1 -0.1,-0.9 -0.2,-4.0 -1.7,-4.1 z m 8.7,0.5 c -1.4,0.6 -1.7,2.8 -1.7,4.1 0.1,0.9 0.3,4.4 1.7,4.1 1.5,-0.3 1.7,-2.8 1.7,-4.1 -0.1,-0.9 -0.2,-4.0 -1.7,-4.1 z m 6.7,0.4 c -1.4,0.6 -1.7,2.8 -1.7,4.1 0.1,0.9 0.3,4.4 1.7,4.1 1.5,-0.3 1.7,-2.8 1.7,-4.1 -0.1,-0.9 -0.2,-4.0 -1.7,-4.1 z m 10.1,0.1 c -1.4,0.6 -1.7,2.8 -1.7,4.1 0.1,0.9 0.3,4.4 1.7,4.1 1.5,-0.3 1.7,-2.8 1.7,-4.1 -0.1,-0.9 -0.2,-4.0 -1.7,-4.1 z m 7.2,0.4 c -1.4,0.6 -1.7,2.8 -1.7,4.1 0.1,0.9 0.3,4.4 1.7,4.1 1.5,-0.3 1.7,-2.8 1.7,-4.1 -0.1,-0.9 -0.2,-4.0 -1.7,-4.1 z m -30.7,9.4 c -1.1,0.6 -2.1,0.8 -3.2,0.4 0.1,1.4 0.1,2.8 0.2,4.3 1.1,1.0 2.2,2.0 3.2,3.0 0.1,-2.6 0.0,-5.3 -0.2,-7.8 z m 4.5,0.4 c -0.4,4.2 -0.1,8.7 0.3,13.0 1.4,2.0 2.7,3.9 3.8,5.9 -0.5,-6.0 -1.4,-12.7 -1.0,-18.3 -1.1,0.3 -2.4,0.0 -3.2,-0.6 z m 6.6,0.4 c -0.4,3.3 -0.3,6.9 -0.1,10.5 0.3,5.2 0.8,9.8 1.0,13.5 h 3.2 c -0.1,-3.9 -0.7,-8.6 -1.0,-13.7 -0.2,-3.4 -0.2,-6.8 0.1,-9.7 -1.1,0.3 -2.4,-0.1 -3.2,-0.7 z m 14.7,0.1 c -1.1,0.6 -2.1,1.0 -3.2,0.6 0.7,7.4 -0.6,16.9 -1.1,23.3 h 3.2 c 0.4,-6.3 1.9,-15.8 1.0,-23.9 z m 2.9,0.5 c -0.5,7.7 0.3,17.1 0.3,23.4 h 3.2 C 83.9,78.5 83.2,69.1 83.6,61.9 82.5,62.3 81.3,62.0 80.4,61.5 Z m -37.2,3.1 c -4.5,2.8 -8.1,6.4 -10.9,10.1 3.7,3.3 5.5,6.2 7.5,10.2 H 59.6 C 55.8,77.9 50.9,69.8 43.2,64.6 Z M 28.2,75.3 c -4.7,3.3 -6.3,6.4 -7.8,9.6 h 15.5 C 34.1,81.9 32.3,78.8 28.2,75.3 Z"
    />
</svg>