<svg
    xmlns="http://www.w3.org/2000/svg" 
    height="90"
    width="90"
    viewbox="0 0 90 90"
>
    <rect
        x="0"
        y="0"
        width="90"
        height="90"
        style="fill:#33aa33;stroke:#000000;stroke-width:1px"
    />
    <path
        style="fill:#eeeeee;stroke:none"
        d="m 45.0,4.1 c -4.1,0 -8.2,0.5 -11.1,1.5 -1.5,0.5 -2.6,1.1 -3.3,1.7 -0.7,0.6 -0.9,1.0 -0.9,1.6 l 0.0,1.6 H 7.3 v 2.5 H 82.7 v -2.5 H 60.3 l 0.0,-1.6 C 60.3,8.3 60.0,7.9 59.4,7.3 58.7,6.7 57.5,6.1 56.1,5.6 53.2,4.7 49.1,4.1 45.0,4.1 Z M 6.8,16.1 5.0,32.5 H 19.2 L 22.7,17.4 21.6,32.5 H 35.9 L 38.9,17.3 38.3,32.5 H 51.6 L 50.8,17.4 54.1,32.5 H 68.4 L 67.3,17.4 70.8,32.5 H 85.0 L 83.2,16.1 Z m -2.2,19.6 -0.1,0.8 c 2.5,3.7 4.8,5.2 6.8,5.2 2.0,0 4.4,-1.6 7.0,-5.4 l 0.1,-0.5 z m 16.8,0 -0.1,0.8 c 2.6,3.7 4.9,5.2 6.8,5.2 2.0,0 4.3,-1.6 7.0,-5.4 l 0.1,-0.6 z m 16.8,0 0.0,0.8 c 2.6,3.7 4.9,5.2 6.8,5.2 1.9,0 4.3,-1.5 6.8,-5.2 l 0.0,-0.8 H 38.2 Z m 16.5,0 0.1,0.5 c 2.6,3.9 5.0,5.4 7.0,5.4 1.9,0.0 4.2,-1.5 6.8,-5.2 l -0.1,-0.8 H 54.7 Z m 16.8,0 0.1,0.5 c 2.6,3.9 5.0,5.4 7.0,5.4 1.9,0 4.2,-1.5 6.8,-5.2 l -0.1,-0.8 H 71.6 Z m -51.8,3.9 c -2.6,3.3 -5.4,5.2 -8.4,5.2 -2.5,0 -4.7,-1.2 -6.8,-3.4 V 85.9 H 60.3 V 49.4 h 20.0 v 36.5 h 5.3 V 41.4 c -2.1,2.2 -4.4,3.4 -6.8,3.4 -3.1,0 -5.8,-1.9 -8.4,-5.2 -2.6,3.3 -5.3,5.2 -8.4,5.2 -3.1,0.0 -5.9,-1.9 -8.4,-5.2 -2.6,3.3 -5.4,5.2 -8.4,5.2 -3.1,0 -5.8,-1.9 -8.4,-5.2 -2.6,3.3 -5.4,5.2 -8.4,5.2 -3.1,0 -5.8,-1.9 -8.4,-5.2 z M 9.7,49.4 H 55.0 V 80.6 H 9.7 Z m 3.2,3.2 V 77.5 H 51.8 V 52.5 Z m 50.5,0 v 12.5 l 13.7,0.1 V 52.5 Z M 15.5,55.2 H 38.0 C 19.0,56.6 17.6,59.4 15.5,75.0 Z m 47.9,13.0 v 2.5 l 13.7,0.1 v -2.5 l -13.7,-0.1 z m 0.0,5.6 V 85.9 H 77.1 V 73.9 l -13.7,-0.1 z"
    />
</svg>