<svg
    xmlns="http://www.w3.org/2000/svg"
    width="100px"
    height="140px"
    viewbox="0 0 100 140"
>
    <rect
        x="0.5"
        y="0.5"
        width="99px"
        height="139px"
        rx="4px"
        ry="4px"
        style="fill:#202020;stroke-width:1px;stroke:#101010"
    />
    <g id="elephant">
        <path
            style="fill:#ffffff;stroke:none"
            d="m 73.5,56.7 c 0,0.7 -0.6,1.2 -1.2,1.2 -0.7,0 -1.2,-0.6 -1.2,-1.2 0,-0.7 0.6,-1.2 1.2,-1.2 0.7,0 1.2,0.6 1.2,1.2"
        />
        <path
            style="fill:#ffffff;stroke:none"
            d="m 80.7,83.4 c 1.0,-2.3 1.6,-4.7 2.0,-7.2 2.0,0.3 4.0,0.6 6.1,0.6 0.5,0 0.8,-0.4 0.8,-0.8 0,-0.5 -0.4,-0.8 -0.8,-0.8 -2.0,0 -4.0,-0.2 -5.9,-0.6 0,-0.6 0.1,-1.1 0.1,-1.6 0.9,0.1 1.8,0.2 2.7,0.2 1.1,0 2.2,-0.1 3.3,-0.4 0.2,-0.1 0.4,-0.2 0.5,-0.4 0.1,-0.2 0.1,-0.4 0.1,-0.6 -0.1,-0.2 -0.2,-0.4 -0.4,-0.5 -0.2,-0.1 -0.4,-0.1 -0.6,-0.1 -1.8,0.4 -3.7,0.4 -5.6,0.1 C 82.9,60.4 77.5,51.6 75.3,48.4 73.9,46.4 67.3,46.5 65.1,46.6 63.4,45.9 61.7,45.5 60.0,45.5 56.0,45.3 50.8,45.7 48.2,48.7 H 32.7 c -3.6,0 -7.2,0.8 -10.4,2.5 -2.2,1.1 -4.1,2.8 -5.6,4.8 -1.0,0 -2.1,0.3 -2.9,0.9 -2.2,1.7 -3.4,5.5 -3.5,11.2 0,0.2 0.1,0.4 0.2,0.6 0.2,0.2 0.4,0.2 0.6,0.2 0.2,0 0.4,-0.1 0.6,-0.2 0.2,-0.2 0.2,-0.4 0.2,-0.6 0.1,-6.4 1.6,-8.9 2.8,-9.9 0.2,-0.2 0.5,-0.4 0.8,-0.5 -0.4,0.9 -0.8,1.9 -1.0,2.8 -1.0,5.0 -0.1,8.3 1.1,10.4 l -1.5,22.7 c 0,0.2 0.1,0.5 0.2,0.6 0.2,0.2 0.4,0.3 0.6,0.3 h 20.2 c 0.4,0 0.8,-0.3 0.8,-0.7 0.2,-1.1 -0.2,-2.2 -0.9,-3.0 -0.9,-1.2 -1.5,-2.6 -1.6,-4.1 -0.4,-2.6 0.5,-5.3 2.5,-7.0 2.9,0.4 5.9,0.4 8.9,0.1 0.3,2.2 0.4,5.1 0,5.9 -0.9,1.7 -0.7,5.6 -0.7,6.1 h 0 c 0,0.4 0.4,0.8 0.8,0.8 h 6.5 v 1.3 c 0,0.2 0.1,0.4 0.2,0.6 0.2,0.2 0.4,0.2 0.6,0.2 h 11.2 c 0.2,0 0.5,-0.1 0.6,-0.3 0.2,-0.2 0.2,-0.4 0.2,-0.7 0,-0.2 -0.3,-1.4 -0.6,-2.7 1.3,0.9 2.8,1.6 4.3,1.9 0.6,0.1 1.2,0.2 1.9,0.2 3.2,0 7.6,-1.7 10.8,-9.6 z M 59.9,47.1 c 3.8,0.2 5.4,1.2 6.1,2.1 0.4,0.5 0.7,1.2 0.6,1.8 -0.1,0.5 0.2,0.9 0.7,1.0 0.5,0.1 0.9,-0.2 1.0,-0.7 0.1,-1.1 -0.3,-2.2 -1.0,-3.1 l 0,-0.1 c 3.2,0 6.2,0.4 6.8,1.2 2.3,3.2 8.3,13.2 7.3,24.8 -4.9,-1.2 -8.4,-3.5 -10.3,-6.8 l -0.1,-0.1 v 0 c -0.2,-0.3 -0.5,-0.5 -0.9,-0.4 -1.1,0.3 -2.2,0.4 -3.3,0.4 -0.8,-2.3 -1.4,-5.5 -0.4,-6.4 v 0 c 0.3,-0.3 0.4,-0.8 0.1,-1.2 -0.3,-0.3 -0.8,-0.4 -1.2,-0.1 -1.8,1.6 -0.9,5.5 -0.2,7.5 -6.7,-0.5 -13.2,-4.7 -15.6,-10.9 -1.1,-2.7 -1.1,-4.8 0,-6.3 1.5,-2.2 5.3,-3.2 10.6,-3.0 z m 8.6,21.7 c 0.4,0 0.9,-0.1 1.3,-0.2 0.1,0.1 0.2,0.2 0.2,0.4 v 0 c 0,0 0,0.1 0,0.1 2.2,3.3 2.1,5.5 1.9,6.5 -3.3,-1.9 -5.9,-1.3 -7.6,-0.4 -0.2,0.1 -0.4,0.2 -0.6,0.3 1.1,-3.5 2.7,-5.9 4.7,-6.7 z M 31.9,87.0 c 0.5,2.9 1.3,4.0 2.0,4.8 v 0 c 0.3,0.3 0.5,0.7 0.6,1.1 h -8.3 c -0.6,-1.5 -1.5,-4.6 -1.3,-6.3 0.2,-2.2 4.2,-7.5 6.6,-8.5 h 0 c 0.8,0.6 1.7,1.1 2.7,1.2 -1.8,2.1 -2.7,4.9 -2.2,7.6 z m 13.9,3.9 c 0,-1.5 0.1,-3.6 0.5,-4.4 0.8,-1.4 0.4,-5.1 0.2,-6.9 1.7,-0.3 3.4,-0.8 4.9,-1.5 v 12.9 z m 7.3,2.1 0,-16.4 c 0,-0.3 -0.2,-0.6 -0.5,-0.7 -0.3,-0.1 -0.6,-0.1 -0.9,0.1 -1.9,1.2 -4.1,2.0 -6.3,2.2 -3.2,0.4 -6.4,0.4 -9.5,0 -0.9,-0.1 -1.8,-0.3 -2.6,-0.6 1.1,-0.7 2.5,-2.3 2.8,-5.8 0,-0.5 -0.3,-0.9 -0.7,-0.9 -0.5,0 -0.9,0.3 -0.9,0.7 -0.4,4.4 -2.7,4.9 -2.8,4.9 -3.3,0.5 -8.2,7.2 -8.4,10.1 -0.2,2.0 0.7,4.9 1.2,6.5 h -8.5 l 1.3,-20.0 c 0.4,0.4 0.9,0.8 1.4,1.1 0.4,0.2 0.9,0 1.1,-0.4 0.1,-0.2 0.1,-0.4 0.1,-0.6 -0.1,-0.2 -0.2,-0.4 -0.4,-0.5 -0.2,-0.1 -4.9,-2.7 -3.14,-11.5 0.7,-3.5 3.0,-6.3 6.8,-8.3 h 0 c 3.0,-1.5 6.3,-2.3 9.6,-2.3 H 47.2 c -0.7,1.8 -0.6,4.1 0.5,6.7 2.8,7.0 10.2,11.7 17.8,11.9 -2.1,2.2 -3.4,5.8 -4.0,8.7 v 0 c -1.4,1.8 -2.2,4.1 -2.3,6.3 0.1,1.6 0.7,3.0 1.7,4.2 0,0.2 0.1,0.3 0.1,0.5 0.7,1.3 1.1,2.7 1.4,4.2 z m 15.2,-1.7 c -4.3,-0.9 -7.5,-4.9 -7.4,-7.2 l 0,0 c 0.1,-1.8 0.7,-3.6 1.7,-5.1 0.2,-0.1 0.4,-0.3 0.4,-0.5 0.6,-0.7 1.3,-1.3 2.1,-1.8 2.0,-1.0 4.3,-0.7 6.7,0.8 1.2,0.9 1.6,3.2 1.0,5.3 h 0 c -0.2,0.8 -0.7,1.5 -1.3,2.0 -0.6,0.5 -1.4,0.8 -2.3,0.8 -2.4,0 -3.0,-1.6 -3.1,-2.3 v 0 c -0.2,-0.7 -0.1,-1.5 0.2,-2.2 0.3,-0.7 0.8,-1.2 1.5,-1.6 1.2,-0.5 1.5,0 1.6,0.2 h 0 c 0.2,0.4 0.3,0.9 0.2,1.4 -0.1,0.5 -0.3,0.9 -0.6,1.3 -0.4,0.3 -0.4,0.8 -0.1,1.2 0.3,0.4 0.8,0.4 1.2,0.1 0.6,-0.6 1.1,-1.4 1.2,-2.3 0.1,-0.9 0,-1.8 -0.4,-2.6 -0.7,-1.2 -2.1,-1.5 -3.7,-0.8 v 0 c -1.0,0.5 -1.8,1.3 -2.3,2.3 -0.5,1.0 -0.6,2.2 -0.4,3.3 0.2,1.1 0.8,2.0 1.7,2.7 0.9,0.7 2.0,1.0 3.0,0.9 h 0 c 1.2,0 2.3,-0.4 3.2,-1.1 0.9,-0.7 1.6,-1.7 1.9,-2.9 0.8,-2.5 0.3,-5.1 -1.1,-6.6 0.5,-1.3 0.5,-2.7 0.1,-4.1 2.3,1.6 4.9,2.7 7.6,3.3 -0.3,2.4 -1.0,4.7 -1.9,6.9 -2.6,6.4 -6.5,9.4 -10.9,8.5 z"
        />
    </g>
    <path
        id="number-top-left"
        style="fill:#ffffff;stroke:none"
        d="M 23.0,5.9 Q 23.0,6.7 22.5,7.2 22.0,7.7 20.9,7.7 h -9.0 l -1.3,7.4 q 1.1,-0.3 2.1,-0.4 1.0,-0.1 2.0,-0.1 2.2,0 4.0,0.7 1.7,0.7 2.9,1.8 1.2,1.2 1.7,2.7 0.6,1.6 0.6,3.4 0,2.3 -0.8,4.1 -0.8,1.8 -2.2,3.2 -1.4,1.3 -3.3,2.0 -1.9,0.7 -4.1,0.7 -1.3,0 -2.4,-0.3 Q 9.9,32.7 8.9,32.2 7.9,31.8 7.0,31.2 6.1,30.7 5.5,30.1 l 1.1,-1.5 q 0.4,-0.5 0.9,-0.5 0.4,0 0.9,0.3 0.5,0.3 1.2,0.7 0.7,0.4 1.7,0.7 1.0,0.3 2.3,0.3 1.5,0 2.7,-0.5 1.2,-0.5 2.1,-1.4 0.9,-0.9 1.3,-2.1 0.5,-1.2 0.5,-2.8 0,-1.3 -0.4,-2.4 -0.4,-1.1 -1.2,-1.8 -0.8,-0.8 -2,-1.2 -1.2,-0.4 -2.8,-0.4 -1.1,0 -2.3,0.2 -1.2,0.2 -2.4,0.6 L 6.9,17.6 9.2,4.2 h 13.6 z"
    />
    <path
        id="number-bottom-right"
        style="fill:#ffffff;stroke:none"
        d="m 77.0,134.1 q 0,-0.8 0.5,-1.3 0.5,-0.5 1.6,-0.5 h 9.0 l 1.3,-7.5 q -1.1,0.3 -2.1,0.4 -1.0,0.1 -2.0,0.1 -2.2,0 -4.0,-0.7 -1.7,-0.7 -2.9,-1.8 -1.2,-1.2 -1.7,-2.7 -0.6,-1.6 -0.6,-3.4 0,-2.3 0.8,-4.1 0.8,-1.8 2.2,-3.2 1.4,-1.3 3.3,-2.0 1.9,-0.7 4.1,-0.7 1.3,0 2.4,0.3 1.2,0.2 2.2,0.7 1.0,0.4 1.9,1.0 0.9,0.5 1.5,1.1 l -1.1,1.5 q -0.4,0.5 -0.9,0.5 -0.4,0 -0.9,-0.3 -0.5,-0.3 -1.2,-0.7 -0.7,-0.4 -1.7,-0.7 -1.0,-0.3 -2.3,-0.3 -1.5,0 -2.7,0.5 -1.2,0.5 -2.1,1.4 -0.9,0.9 -1.3,2.1 -0.5,1.2 -0.5,2.8 0,1.3 0.4,2.4 0.4,1.1 1.2,1.8 0.8,0.8 2.0,1.2 1.2,0.4 2.8,0.4 1.1,0 2.3,-0.2 1.2,-0.2 2.4,-0.6 l 2.2,0.7 -2.3,13.4 H 77.0 Z"
    />
</svg>
