<svg
    xmlns="http://www.w3.org/2000/svg"
    width="100px"
    height="140px"
    viewbox="0 0 100 140"
>
    <rect
        x="0.5"
        y="0.5"
        width="99px"
        height="139px"
        rx="4px"
        ry="4px"
        style="fill:#808080;stroke-width:1px;stroke:#101010"
    />
    <g id="rhino">
        <path
            style="fill:#000000;stroke:none"
            d="m 36.2,92.3 h 0.9 c -0.1,-0.9 -0.6,-1.7 -1.4,-2.2 -0.4,-0.2 -0.6,-0.6 -0.6,-1.1 l 1.1,-8.5 c 0.1,-0.6 0.6,-1.0 1.2,-0.9 0.6,0.1 1.0,0.6 0.9,1.2 l -1.0,7.8 c 2.0,1.6 2.0,4.6 2.0,4.8 0,0.3 -0.1,0.6 -0.3,0.8 -0.2,0.2 -0.5,0.3 -0.8,0.3 h -2.1 c -0.6,0 -1.1,-0.5 -1.1,-1.1 0,-0.6 0.5,-1.1 1.1,-1.1 z"
        />
        <path
            style="fill:#000000;stroke:none"
            d="m 45.8,81.7 c 0.3,-0.1 0.6,0 0.8,0.1 0.2,0.2 0.4,0.4 0.5,0.7 0.4,1.7 1.0,3.4 1.8,5.1 0.1,0.1 0.1,0.3 0.1,0.5 v 5.3 c 0,0.6 -0.5,1.1 -1.1,1.1 -0.6,0 -1.1,-0.5 -1.1,-1.1 v -5.1 c -0.8,-1.7 -1.4,-3.5 -1.9,-5.3 -0.1,-0.6 0.2,-1.1 0.8,-1.3 z"
        />
        <path
            style="fill:#000000;stroke:none"
            d="m 36.3,77.6 c 0.2,-0.5 0.8,-0.8 1.4,-0.6 2.2,0.9 4.6,1.4 7.0,1.4 0.7,0 1.4,0 2.1,-0.1 0.3,0 0.6,0.1 0.8,0.3 0.2,0.2 0.3,0.5 0.3,0.7 0,0.3 -0.1,0.6 -0.3,0.8 -0.2,0.2 -0.5,0.3 -0.7,0.3 -0.7,0 -1.4,0.1 -2.2,0.1 -2.7,0 -5.4,-0.5 -7.8,-1.6 -0.3,-0.1 -0.5,-0.3 -0.6,-0.6 -0.1,-0.3 -0.1,-0.6 0,-0.8 z"
        />
        <path
            style="fill:#000000;stroke:none"
            d="m 50.0,70.9 c 0.1,-0.6 0.7,-0.9 1.2,-0.8 0.6,0.1 0.9,0.7 0.8,1.2 -0.5,2.7 -0.9,5.5 -1.0,8.2 L 53.9,78.5 c 0.2,-0.1 0.4,-0.1 0.6,0 l 5.0,1.1 c 0.1,-0.2 0.1,-0.3 0.2,-0.5 3.0,-7.1 1.0,-20.5 1.0,-20.7 v 0 c 0,-0.3 0,-0.6 0.2,-0.8 0.2,-0.2 0.4,-0.4 0.7,-0.4 0.3,0 0.6,0 0.8,0.2 0.2,0.2 0.4,0.4 0.4,0.7 0.7,5.0 0.9,10.0 0.5,15.1 1.2,-0.7 2.2,-1.3 2.7,-1.7 H 65.9 c 0,-3.3 -0.3,-6.6 -1.0,-9.8 -0.1,-0.6 0.2,-1.1 0.8,-1.3 0.6,-0.1 1.1,0.2 1.3,0.8 0.7,3.4 1.1,6.9 1.1,10.4 l 7.8,6.8 c 1.3,0 2.6,-0.6 3.5,-1.5 0.9,-0.9 1.4,-2.2 1.4,-3.5 -2.9,-4.2 -5.4,-8.7 -7.5,-13.3 -1.2,0.9 -2.7,1.3 -4.2,1.3 -0.6,0 -1.1,-0.5 -1.1,-1.1 0,-0.6 0.5,-1.1 1.1,-1.1 1.4,0 2.8,-0.6 3.8,-1.6 1.0,-1.0 1.6,-2.3 1.6,-3.8 v -3.1 c -1.2,0.2 -2.3,0.9 -3.0,1.8 -0.8,0.9 -1.2,2.1 -1.2,3.4 0,0.6 -0.5,1.1 -1.1,1.1 -0.6,0 -1.1,-0.5 -1.1,-1.1 0,-2.0 0.8,-3.9 2.2,-5.3 1.4,-1.4 3.3,-2.2 5.3,-2.2 0.3,0 0.6,0.1 0.8,0.3 0.2,0.2 0.3,0.5 0.3,0.8 v 4.2 c 0,1.7 -0.6,3.3 -1.6,4.6 1.0,2.4 2.2,4.7 3.4,7.0 l 3.8,-3.8 c 0.3,-0.3 0.8,-0.4 1.2,-0.2 0.4,0.2 0.6,0.6 0.6,1.1 l -1.1,10.6 c 0,2.6 -1.6,7.3 -7.4,7.3 -0.3,0 -0.5,-0.1 -0.7,-0.3 l -7.9,-6.9 c -0.8,0.5 -2.3,1.4 -4.1,2.5 -0.3,1.4 -0.7,2.8 -1.2,4.1 -2.3,5.5 -2.3,7.9 -2.2,8.5 0.9,0.7 3.3,2.7 3.3,4.9 v 0 c 0,0.3 -0.1,0.6 -0.3,0.8 -0.2,0.2 -0.5,0.3 -0.8,0.3 h -9.6 c -0.3,0 -0.6,-0.1 -0.8,-0.3 -0.2,-0.2 -0.3,-0.5 -0.3,-0.8 V 88.3 c -0.5,-1.0 -2.1,-4.7 -2.1,-7.7 0.1,-3.3 0.5,-6.5 1.1,-9.8 z m 29.5,-3.4 c 0.6,1.0 1.1,1.9 1.6,2.6 l 0.5,-4.7 z M 53.1,87.6 c 0.1,0.1 0.1,0.3 0.1,0.5 v 4.2 H 60.2 C 59.6,91.4 58.8,90.6 57.9,90.0 57.7,89.9 57.6,89.7 57.5,89.6 57.4,89.2 56.6,87.2 58.7,81.6 l -4.4,-1.0 -3.2,1.1 c 0.4,2.0 1.0,4.0 1.9,5.9 z"
        />
        <path
            style="fill:#000000;stroke:none"
            d="M 18.2,77.0 V 62.6 c 0,-0.3 0.1,-0.6 0.3,-0.8 l 3.1,-3.1 c 0.4,-4.4 1.6,-7.4 3.7,-8.9 2.6,-1.9 5.8,-1.0 7.7,-0.4 v 0 c 0.4,0.1 0.8,0.2 1.2,0.3 0.9,-0.2 1.7,-0.6 2.4,-1.2 1.4,-1.2 3.2,-1.9 5.1,-2.0 1.4,0 2.7,0.6 3.7,1.5 1.3,1.2 3.0,1.8 4.8,1.7 3.2,-0.1 6.3,-0.9 9.1,-2.5 1.8,-1.0 3.7,-1.6 5.8,-1.8 1.7,0 3.4,0.9 5.0,2.7 0.2,0.2 0.3,0.5 0.3,0.8 0,0.3 -0.1,0.5 -0.4,0.7 -0.2,0.2 -0.5,0.3 -0.8,0.3 -0.3,0 -0.5,-0.1 -0.7,-0.4 -0.8,-1.1 -2.1,-1.9 -3.5,-2.0 -1.7,0.2 -3.4,0.7 -4.9,1.6 -3.1,1.7 -6.5,2.6 -10.0,2.7 -2.2,0.1 -4.4,-0.7 -6.1,-2.1 -0.6,-0.6 -1.5,-1.0 -2.4,-1.1 -1.4,0.2 -2.8,0.7 -3.9,1.7 -1.0,0.9 -2.2,1.4 -3.6,1.5 -0.6,-0.1 -1.2,-0.2 -1.8,-0.4 -1.7,-0.5 -4.1,-1.3 -5.8,0 -1.9,1.4 -3.0,5.2 -3.0,11.0 -0.1,5.6 0.5,11.2 1.8,16.7 l 2.1,-0.7 v 0 c 0.2,-0.1 0.4,-0.1 0.6,0 l 3.6,1.0 v 0 c 1.6,-1.3 2.4,-3.2 2.4,-5.3 0,-4.1 -2.1,-12.4 -2.1,-12.5 -0.1,-0.6 0.2,-1.1 0.8,-1.3 0.6,-0.1 1.1,0.2 1.3,0.8 0.1,0.4 2.2,8.7 2.2,13.0 0,2.7 -1.2,5.2 -3.2,6.9 l -0.9,7.4 c 2.0,1.6 2.0,4.6 2.0,4.8 0,0.3 -0.1,0.6 -0.3,0.8 -0.2,0.2 -0.5,0.3 -0.8,0.3 h -8.5 c -0.5,0 -0.9,-0.4 -1.0,-0.9 L 22.4,88.3 c 0,-0.1 0,-0.2 0,-0.4 l 1.0,-7.2 c -0.4,-1.3 -2.1,-7.6 -2.1,-18.1 0,-0.2 0,-0.4 0,-0.6 l -1.1,1.1 v 14.0 c 0.8,0.8 2.1,2.3 2.1,3.6 0,1.5 -1.9,3.4 -2.5,4.0 -0.4,0.4 -1.1,0.4 -1.5,0 -0.6,-0.5 -2.5,-2.4 -2.5,-4.0 0,-1.3 1.4,-2.9 2.1,-3.6 z m 7.2,15.3 h 6.4 c -0.1,-0.9 -0.6,-1.7 -1.4,-2.2 -0.4,-0.2 -0.6,-0.6 -0.6,-1.1 l 0.9,-7.5 -3.0,-0.8 -2.3,0.8 -0.9,6.6 z M 19.2,82.3 c 0.5,-0.5 0.8,-1.0 1.1,-1.6 -0.2,-0.6 -0.6,-1.2 -1.1,-1.6 -0.5,0.5 -0.8,1.0 -1.1,1.6 0.2,0.6 0.6,1.2 1.1,1.6 z"
        />
        <path
            style="fill:#000000;stroke:none"
            d="m 73.4,63.6 h -2.1 v 2.1 h 2.1 z"
        />
    </g>
    <path
        id="number-top-left"
        style="fill:#000000;stroke:none"
        d="m 15.0,4.0 q 1.8,0 3.4,0.5 1.6,0.5 2.7,1.6 1.2,1 1.8,2.5 0.7,1.5 0.7,3.4 0,1.6 -0.5,3 -0.5,1.4 -1.3,2.6 -0.8,1.2 -1.9,2.4 -1.1,1.2 -2.3,2.4 L 10.0,30.1 q 0.8,-0.2 1.6,-0.3 0.8,-0.1 1.6,-0.1 h 9.6 q 0.6,0 0.9,0.3 0.3,0.3 0.3,0.9 v 2.2 H 5.1 v -1.2 q 0,-0.4 0.2,-0.8 0.2,-0.4 0.5,-0.7 L 15.0,21.2 q 1.1,-1.2 2.1,-2.2 0.9,-1.1 1.6,-2.2 0.7,-1.1 1.0,-2.2 0.4,-1.1 0.4,-2.4 0,-1.3 -0.4,-2.2 Q 19.3,9 18.6,8.4 17.9,7.8 17,7.5 16.1,7.2 15,7.2 13.9,7.2 13,7.5 12.1,7.8 11.4,8.4 10.7,9 10.2,9.7 9.5,10.4 9.3,11.3 9.1,12 8.6,12.2 8.2,12.4 7.5,12.3 L 5.6,12.0 Q 5.9,10.0 6.7,8.5 7.5,7 8.7,6.0 9.9,5 11.5,4.5 13.1,4 14.9,4.0 Z"
    />
    <path
        id="number-bottom-right"
        style="fill:#000000;stroke:none"
        d="m 85.0,136.0 q -1.8,0 -3.4,-0.5 -1.6,-0.5 -2.7,-1.6 -1.2,-1 -1.8,-2.5 -0.7,-1.5 -0.7,-3.4 0,-1.6 0.5,-3 0.5,-1.4 1.3,-2.6 0.8,-1.2 1.9,-2.4 1.1,-1.2 2.3,-2.4 l 7.6,-7.7 q -0.8,0.2 -1.6,0.3 -0.8,0.1 -1.6,0.1 h -9.6 q -0.6,0 -0.9,-0.3 -0.5,-0.3 -0.5,-0.8 V 107.0 h 19.1 v 1.2 q 0,0.4 -0.2,0.8 -0.2,0.4 -0.5,0.7 l -9.2,9.2 q -1.1,1.2 -2.1,2.2 -0.9,1.1 -1.6,2.2 -0.7,1.1 -1.0,2.2 -0.4,1.1 -0.4,2.4 0,1.3 0.4,2.2 0.4,1 1.1,1.6 0.7,0.6 1.6,0.9 0.9,0.3 2,0.3 1.1,0 2,-0.3 0.9,-0.3 1.6,-0.9 0.7,-0.6 1.2,-1.3 0.5,-0.8 0.7,-1.7 0.2,-0.7 0.7,-0.9 0.4,-0.2 1.1,-0.1 l 1.9,0.3 q -0.3,2 -1.1,3.5 -0.8,1.5 -2,2.5 -1.2,1 -2.8,1.5 -1.6,0.5 -3.4,0.5 z"
    />
</svg>
