<svg
    xmlns="http://www.w3.org/2000/svg"
    width="100px"
    height="140px"
    viewbox="0 0 100 140"
>
    <rect
        x="0.5"
        y="0.5"
        width="99px"
        height="139px"
        rx="4px"
        ry="4px"
        style="fill:#509050;stroke-width:1px;stroke:#101010"
    />
    <g id="safari">
        <g id="giraffe1">
            <path
                style="fill:#000000;stroke:none"
                d="m 47.6,32.1 v 0 l -3.1,-5.2 -2.5,1.5 2.8,4.7 c 0.9,-0.4 1.9,-0.8 2.9,-0.9 z"
            />
            <path
                style="fill:#000000;stroke:none"
                d="m 7.7,43.7 h 0 c 0.1,0 0.1,0 0.2,0 l 5.6,-1.1 10.1,24.4 c 0.4,0.9 0.6,1.8 0.6,2.8 v 12.0 c 1.0,0 2.0,0.2 2.9,0.5 0.1,-2.7 1.0,-5.3 2.5,-7.6 0.3,-0.4 0.4,-0.9 0.4,-1.5 0,-0.7 -0.3,-1.4 -0.8,-1.9 l -0.3,-0.3 2.1,-2.1 0.3,0.3 c 1.0,1.0 1.6,2.4 1.6,3.9 0,1.0 -0.2,1.9 -0.7,2.7 h 10.4 c -0.6,-1.2 -0.9,-2.6 -0.9,-4.0 0,-1.5 0.3,-2.9 1.0,-4.2 l 0.6,-1.3 2.6,1.3 -0.6,1.3 c -0.4,0.9 -0.7,1.9 -0.7,2.9 0,2.0 1.0,4.0 2.6,5.2 1.1,0.8 2.0,1.9 2.5,3.2 l 3.7,0 v -8.8 c 0,-5.7 -4.6,-10.3 -10.3,-10.3 h -8.0 c -2.9,0 -5.5,-1.7 -6.7,-4.3 L 21.2,41.1 v -8.5 c 0,-0.9 -0.4,-1.8 -1.0,-2.5 -0.5,-0.5 -1.2,-0.9 -1.9,-1.0 v 5.8 h -1.5 c -2.3,0 -4.4,1.1 -5.6,3.0 L 10.4,39.1 7.2,40.2 C 6.8,40.3 6.5,40.7 6.5,41.1 v 1.4 c 0,0.3 0.1,0.6 0.4,0.9 0.2,0.2 0.5,0.4 0.8,0.4 z m 41.3,24.3 0.4,-0.4 2.1,2.1 -0.4,0.4 c -0.4,0.4 -0.6,0.9 -0.6,1.5 0,0.6 0.2,1.1 0.6,1.5 l 0.4,0.4 -2.1,2.1 -0.4,-0.4 c -0.9,-0.9 -1.5,-2.2 -1.5,-3.5 0,-1.3 0.5,-2.6 1.5,-3.5 z m -13.2,-3.8 c 0,1.6 1.3,2.9 2.9,2.9 v 2.9 c -3.2,0 -5.9,-2.6 -5.9,-5.9 z M 28.5,61.3 v 2.9 c -3.2,0 -5.9,-2.6 -5.9,-5.9 h 2.9 c 0,1.6 1.3,2.9 2.9,2.9 z M 18.2,46.7 c 3.2,0 5.9,2.6 5.9,5.9 H 21.2 c 0,-1.6 -1.3,-2.9 -2.9,-2.9 z"
            />
        </g>
        <g id="giraffe2">
             <path
                style="fill:#000000;stroke:none"
                d="m 15.3,32.1 v 0 l -3.1,-5.2 -2.5,1.5 2.8,4.7 c 0.9,-0.4 1.9,-0.8 2.9,-0.9 z"
            />
            <path
                style="fill:#000000;stroke:none"
                d="M 75.4,61.3 H 67.5 c -2.9,0 -5.5,-1.7 -6.7,-4.3 L 53.4,41.1 v -8.5 c 0,-0.9 -0.4,-1.8 -1.0,-2.5 -0.5,-0.5 -1.2,-0.9 -1.9,-1.0 v 5.8 h -1.5 c -2.3,0 -4.4,1.1 -5.6,3.0 l -0.8,1.2 -3.2,1.1 c -0.4,0.1 -0.7,0.5 -0.7,0.9 v 1.4 c 0,0.7 0.5,1.2 1.2,1.2 0.1,0 0.2,0 0.2,0 l 5.5,-1.1 10.1,24.4 c 0.4,0.9 0.6,1.8 0.6,2.8 V 80.4 h 3.0 c 0.2,-1.7 0.8,-3.3 1.8,-4.7 l 0.6,-0.9 c 0.3,-0.4 0.4,-0.9 0.4,-1.5 0,-0.7 -0.3,-1.4 -0.8,-1.9 l -0.3,-0.3 2.1,-2.1 0.3,0.3 c 1.0,1.0 1.7,2.4 1.6,3.9 0,1.0 -0.2,1.9 -0.7,2.7 h 10.4 c -0.6,-1.2 -0.9,-2.6 -0.9,-4.0 0,-1.5 0.3,-2.9 1.0,-4.2 l 0.6,-1.3 2.6,1.3 -0.6,1.3 c -0.4,0.9 -0.7,1.9 -0.7,2.9 0,2.0 1.0,4.0 2.6,5.2 2.0,1.5 3.3,4.0 3.3,6.5 v 12.8 h 1.5 c 0.8,0 1.5,-0.7 1.5,-1.5 V 71.6 C 85.7,66.0 81.1,61.3 75.4,61.3 Z M 50.5,49.6 v -2.9 c 3.2,0 5.9,2.6 5.9,5.9 H 53.4 C 53.4,50.9 52.1,49.6 50.5,49.6 Z M 60.8,64.3 c -3.2,0 -5.9,-2.6 -5.9,-5.9 h 2.9 c 0,1.6 1.3,2.9 2.9,2.9 z m 10.3,5.9 c -3.2,0 -5.9,-2.6 -5.9,-5.9 h 2.9 c 0,1.6 1.3,2.9 2.9,2.9 z m 12.3,2.9 0.4,0.4 -2.1,2.1 -0.4,-0.4 c -0.9,-0.9 -1.5,-2.2 -1.5,-3.5 0,-1.3 0.5,-2.6 1.5,-3.5 l 0.4,-0.4 2.1,2.1 -0.4,0.4 c -0.4,0.4 -0.6,0.9 -0.6,1.5 0,0.6 0.2,1.1 0.6,1.5 z"
            />
            <path
                style="fill:#000000;stroke:none"
                d="m 86.8,64.9 c 0.8,1.3 1.3,2.8 1.6,4.3 2.0,1.7 3.1,4.2 3.1,6.9 v 8.7 h 2.9 v -8.7 c 0,-5.0 -3.1,-9.4 -7.7,-11.2 z"
            />
       </g>
       <g id="jeep">
            <path
                style="fill:#000000;stroke:none"
                d="m 70.9,108.3 h 3.1 v -2.9 h -4.4 c 0.6,0.9 1.1,1.8 1.3,2.9 z"
            />
            <path
                style="fill:#000000;stroke:none"
                d="m 37.3,105.3 c -2.4,0 -4.4,2.0 -4.4,4.4 0,2.4 2.0,4.4 4.4,4.4 2.4,0 4.4,-2.0 4.4,-4.4 0,-2.4 -2.0,-4.4 -4.4,-4.4 z m 0,5.9 c -0.8,0 -1.5,-0.7 -1.5,-1.5 0,-0.8 0.7,-1.5 1.5,-1.5 0.8,0 1.5,0.7 1.5,1.5 0,0.8 -0.7,1.5 -1.5,1.5 z"
            />
            <path
                style="fill:#000000;stroke:none"
                d="m 63.7,105.3 c -2.4,0 -4.4,2.0 -4.4,4.4 0,2.4 2.0,4.4 4.4,4.4 2.4,0 4.4,-2.0 4.4,-4.4 0,-2.4 -2.0,-4.4 -4.4,-4.4 z m 0,5.9 c -0.8,0 -1.5,-0.7 -1.5,-1.5 0,-0.8 0.7,-1.5 1.5,-1.5 0.8,0 1.5,0.7 1.5,1.5 0,0.8 -0.7,1.5 -1.5,1.5 z"
            />
            <path
                style="fill:#000000;stroke:none"
                d="m 44.5,108.3 h 12.0 c 0.2,-1.1 0.7,-2.1 1.3,-2.9 H 43.2 c 0.6,0.9 1.1,1.8 1.3,2.9 z"
            />
            <path
                style="fill:#000000;stroke:none"
                d="m 27.0,108.3 h 3.1 c 0.2,-1.1 0.7,-2.1 1.3,-2.9 h -4.4 z"
            />
            <path
                style="fill:#000000;stroke:none"
                d="m 27.0,99.5 h 2.9 v 2.9 h -2.9 z"
            />
            <path
                style="fill:#000000;stroke:none"
                d="m 27.0,99.5 h 2.9 v 2.9 h -2.9 z"
            />
            <path
                style="fill:#000000;stroke:none"
                d="m 38.8,90.7 h 2.9 v 2.9 h -2.9 z"
            />
            <path
                style="fill:#000000;stroke:none"
                d="m 76.9,90.7 h 2.9 v 8.8 h -2.9 z"
            />
            <path
                style="fill:#000000;stroke:none"
                d="m 68.1,93.0 c 0,-0.2 -0.1,-0.3 -0.2,-0.4 L 64.6,89.2 62.2,89.2 v 4.4 h 5.3 c 0.3,0 0.6,-0.3 0.6,-0.6 z"
            />
            <path
                style="fill:#000000;stroke:none"
                d="m 53.4,89.2 h 5.9 v 4.4 h -5.9 z"
            />
            <path
                style="fill:#000000;stroke:none"
                d="m 46.7,89.2 -2.1,2.1 v 2.3 h 5.9 v -4.4 z"
            />
            <path
                style="fill:#000000;stroke:none"
                d="M 65.7,83.3 H 47.5 c -1.3,0 -2.6,0.6 -3.4,1.7 l -2.2,2.8 c 0.6,0 1.2,0.2 1.6,0.6 l 1.2,-1.2 c 0.6,-0.6 1.3,-0.9 2.1,-0.9 h 17.9 c 0.8,0 1.5,0.3 2.1,0.9 l 3.4,3.4 c 0.7,0.7 1.0,1.6 1.0,2.5 0,2.0 -1.6,3.5 -3.5,3.5 H 38.8 c -1.6,0 -2.9,-1.3 -2.9,-2.9 h -4.4 c -1.9,0 -3.5,1.2 -4.1,2.9 h 2.7 c 1.6,0 2.9,1.3 2.9,2.9 v 2.9 H 74.0 V 89.8 l -5.2,-5.2 c -0.8,-0.8 -1.9,-1.3 -3.1,-1.3 z"
            />
        </g>
        <g id="scenery">
            <path
                style="fill:#000000;stroke:none"
                d="M 32.0,90.7 31.5,89.6 c -1.5,-3.0 -4.5,-4.8 -7.8,-4.8 -2.9,0 -5.6,1.5 -7.2,3.8 1.3,0.8 2.4,2.0 2.9,3.6 l 0.3,0.9 -2.8,0.9 -0.3,-0.9 c -0.5,-1.5 -1.9,-2.5 -3.4,-2.5 -1.6,0 -2.9,1.0 -3.4,2.5 l -0.5,1.5 -0.5,0.3 c -1.3,0.7 -2.1,2.0 -2.1,3.4 0,0.6 0.5,1.1 1.1,1.1 H 24.1 v -1.5 c 0,-4.0 3.3,-7.3 7.3,-7.3 z"
            />
        </g>
    </g>
</svg>
