<svg
    xmlns="http://www.w3.org/2000/svg"
    width="103px"
    height="160px"
    viewbox="0 0 103 160"
>
    <rect
        x="0.5"
        y="0.5"
        width="102px"
        height="159px"
        rx="4px"
        ry="4px"
        style="fill:#ffdd00;stroke-width:1px;stroke:#101010"
    />
    <g transform="translate(20,30)">
        <text
            text-anchor="middle"
            style="dominant-baseline:middle;font:40px sans-serif;fill:#000000"
        >2</text>
    </g>
    <g transform="translate(82,130) rotate(180)">
        <text
            text-anchor="middle"
            style="dominant-baseline:middle;font:40px sans-serif;fill:#000000"
        >2</text>
    </g>
    <path
        style="fill:#000000;stroke:none"
        d="m 34.83,58.14 c -0.48,0 -0.95,0.06 -1.41,0.2 -1.66,0.5 -2.83,1.19 -3.71,2.36 -0.87,1.17 -1.5,2.94 -1.77,5.68 -0.07,0.76 0.23,2.1 0.88,3.54 0.65,1.44 1.62,3 2.72,4.39 l 0.28,0.35 -0.07,0.45 c -0.35,2.06 -0.41,5.79 -0.02,7.86 0.09,0.5 0.65,1.65 1.55,3 0.89,1.34 2.1,2.95 3.43,4.68 2.65,3.45 5.79,7.4 7.98,11.03 0,0 0.03,0.06 0.24,0.1 0.2,0.04 0.52,0.03 0.81,-0.04 0.27,-0.06 0.51,-0.2 0.61,-0.28 -1.12,-4.77 -1.83,-9.56 -4.27,-14.25 l -1.15,-2.21 2.38,0.75 c 2.47,0.78 5.57,1.01 8.39,0.88 2.82,-0.13 5.4,-0.64 6.73,-1.18 l 0.64,-0.26 0.48,0.5 c 4.94,5.15 8.39,11.21 12.88,16.10 0.01,0.01 -0.01,0.01 0.1,0.01 0.12,0 0.34,-0.08 0.53,-0.21 0.19,-0.13 0.35,-0.32 0.42,-0.48 0.07,-0.15 0.07,-0.23 0.03,-0.36 -2.33,-6.33 -3.49,-12.55 -7.07,-18.54 l -0.24,-0.4 0.14,-0.44 c 0.78,-2.39 2.04,-4.89 4.9,-6.89 l 0.51,-0.36 0.55,0.29 c 1.31,0.7 2.18,0.67 2.93,0.22 1.5,-0.9 2.76,-2.73 3.27,-4.32 l -1.62,-0.97 -0.11,-0.42 c -0.46,-1.82 -0.94,-2.91 -1.67,-3.74 -0.72,-0.82 -1.78,-1.47 -3.54,-2.23 l -0.73,-0.31 0.12,-0.79 c 0.1,-0.63 0,-1.31 -0.13,-2.03 -4.14,3.42 -6.04,7.36 -9.89,11.45 l -0.36,0.38 -0.52,-0.07 c -6.61,-0.93 -16.34,-0.6 -22.69,0.16 -0.69,0.08 -1.28,-0.13 -1.86,-0.42 -0.58,-0.29 -1.14,-0.7 -1.65,-1.2 -1.02,-0.98 -1.93,-2.27 -1.83,-3.8 0.07,-1.07 0.3,-1.94 0.8,-2.63 0.49,-0.68 1.27,-1.07 2.03,-1.17 1.52,-0.19 3.07,0.43 4.81,1.14 3.46,1.42 7.54,3.31 10.63,2.48 1.2,-0.32 3.5,-2.29 5.07,-4.32 0.78,-1.01 1.42,-2.04 1.75,-2.8 0.15,-0.34 0.23,-0.62 0.26,-0.79 -0.05,-0.01 -0.13,-0.01 -0.26,0 -0.3,0.02 -0.8,0.15 -1.43,0.43 -1.25,0.55 -3,1.64 -5.1,3.07 -1.37,0.92 -2.97,0.95 -4.45,0.58 -1.48,-0.36 -2.94,-1.1 -4.41,-1.83 -2.2,-1.1 -4.37,-2.15 -6.34,-2.29 a 6.13,6.13 0 0 0 -0.48,-0.01 z m 39.24,8.35 1.12,2.53 -2.57,-0.39 z m -43.22,19.56 c -1.62,5.61 -4.06,11.1 -6.36,15.20 0,0 0,0 0,0 a 0.07,0.07 0 0 1 0.01,0.02 c 0.02,0.06 0.14,0.22 0.32,0.34 0.17,0.12 0.4,0.2 0.56,0.22 0.15,0.02 0.2,-0.01 0.21,-0.01 3.85,-2.83 6.71,-6.32 9.54,-9.78 l -0.07,-0.09 c -1.31,-1.73 -2.54,-3.36 -3.5,-4.79 -0.25,-0.39 -0.49,-0.75 -0.71,-1.11 z m -6.36,15.20 c -0.01,-0.01 -0.01,0.01 0,0 z m 34.01,-13.66 c -0.81,0.27 -1.77,0.5 -2.84,0.68 -1.42,4.58 -3.81,8.90 -5.97,12.86 l -0.01,0.02 -0.01,0.02 c -0.03,0.05 -0.02,0.02 0,0.08 0.02,0.06 0.11,0.2 0.25,0.3 0.28,0.2 0.55,0.27 0.82,0.02 v 0 0 c 3.69,-3.16 6.78,-6.96 9.75,-11.70 -0.64,-0.78 -1.3,-1.54 -1.99,-2.28 z"
    />
</svg>