<svg
    xmlns="http://www.w3.org/2000/svg"
    width="103px"
    height="160px"
    viewbox="0 0 103 160"
>
    <rect
        x="0.5"
        y="0.5"
        width="102px"
        height="159px"
        rx="4px"
        ry="4px"
        style="fill:#ff5000;stroke-width:1px;stroke:#101010"
    />
    <g transform="translate(20,30)">
        <text
            text-anchor="middle"
            style="dominant-baseline:middle;font:40px sans-serif;fill:#ffffff"
        >1</text>
    </g>
    <g transform="translate(82,130) rotate(180)">
        <text
            text-anchor="middle"
            style="dominant-baseline:middle;font:40px sans-serif;fill:#ffffff"
        >1</text>
    </g>
    <path
        style="fill:#ffffff;stroke:none"
        d="m 36.34,53.15 c -1.21,0.05 -2.5,0.37 -3.78,0.63 l 7.33,7.7 -2.54,0.02 c -3.45,0.02 -8.88,0.72 -12.15,2.62 l 3.72,6.05 -4.76,2.47 v 6.64 l 5.46,3.09 -5.46,4.7 v 3.78 c 3.31,-0.14 7.11,0.07 10.45,-1.04 l 3.74,-1.25 -2.56,3 c -2.19,2.58 -3.48,6.46 -5.94,10.28 3.74,-0.28 7.43,-0.89 11.35,-3.02 l 1.88,-1.02 -1.14,9.05 c 3.09,-1.43 6.11,-3.39 8.35,-5.75 2.66,-2.81 4.19,-5.92 3.91,-8.53 l -0.01,-0.09 c -2.17,-1.49 -3.78,-3.66 -4.6,-6.35 -0.99,-3.26 -0.69,-7.31 0.78,-11.86 -3.1,-0.47 -5.46,-1.72 -6.72,-3.53 -1.45,-2.08 -1.67,-4.6 -0.91,-6.69 0.76,-2.08 2.61,-3.77 5.09,-3.92 2.41,-0.14 5.22,1.18 8.21,4.23 1.33,0.48 2.55,0.94 3.65,1.4 0.29,-2.51 -0.17,-4.46 -1.22,-6.2 -0.98,-1.65 -2.72,-3.11 -4.82,-4.54 l 0.5,5.04 -1.92,-1.29 c -4.34,-2.9 -10.61,-5.85 -15.89,-5.6 v -0.03 z m 11.77,9.15 c -0.05,0 -0.1,0 -0.15,0 v 0 c -1.59,0.09 -2.64,1.07 -3.16,2.48 -0.52,1.41 -0.38,3.21 0.65,4.68 1.03,1.48 2.95,2.72 6.28,2.91 l 1.48,0.08 -0.51,1.39 c -1.74,4.75 -1.91,8.67 -1.01,11.64 0.9,2.96 2.82,5.02 5.55,6.16 v 0 l 12.74,4.51 c 0.66,-1.39 1.37,-2.79 2.11,-4.19 -0.59,0.26 -1.24,0.4 -1.92,0.4 -2.64,0 -4.78,-2.14 -4.78,-4.78 0,-2.64 2.14,-4.78 4.78,-4.78 2.42,0 4.42,1.8 4.74,4.14 1.25,-2.12 2.57,-4.22 3.93,-6.3 l -12.11,-6.14 -0.56,-0.67 c -0.46,-1.59 -1.35,-2.74 -3.1,-3.91 -1.74,-1.17 -4.34,-2.3 -7.95,-3.59 l -0.24,-0.09 -0.18,-0.19 c -2.73,-2.88 -5.01,-3.79 -6.59,-3.76 z m 13.96,10.55 c 0.97,0 1.72,0.75 1.72,1.72 0,0.97 -0.75,1.72 -1.72,1.72 -0.97,0 -1.72,-0.75 -1.72,-1.72 0,-0.97 0.75,-1.72 1.72,-1.72 z"
    />
</svg>