<svg
    xmlns="http://www.w3.org/2000/svg"
    width="100px"
    height="140px"
    viewbox="0 0 100 140"
>
    <rect
        x="0.5"
        y="0.5"
        width="99px"
        height="139px"
        rx="4px"
        ry="4px"
        style="fill:#eeeeee;stroke-width:1px;stroke:#101010"
    />
    <g id="zebra">
        <path
            style="fill:#000000;stroke:none"
            d="m 18.0,86.1 c 0.7,0.4 1.6,0.1 1.9,-0.6 1.0,-1.5 0.2,-6.2 -0.4,-9.1 h 0 c 0.1,-2.1 0.4,-4.2 0.9,-6.3 0.1,-0.2 0.2,-0.5 0.3,-0.8 1.4,4.0 2.2,7.6 1.9,8.3 -0.8,1.0 -1.2,2.3 -1.0,3.6 v 0.1 c 0,0 0,0.1 0,0.1 0.2,1.5 0.6,3.0 1.2,4.5 0.6,1.2 0.6,2.6 0.1,3.8 -0.3,0.8 -0.4,1.6 -0.4,2.4 0,1.7 0.5,3.3 1.5,4.6 0.2,0.3 0.6,0.4 0.9,0.4 h 5.3 c 0.6,0 1.1,-0.5 1.2,-1.1 v -0.2 h 3.5 c 0.2,0 0.4,0 0.5,-0.1 0.5,-0.2 0.8,-0.7 0.9,-1.2 0.2,-1.6 -2.0,-4.2 -2.8,-4.8 -0.3,-0.5 0.2,-3.5 2.2,-6.3 1.3,-2.0 2.2,-4.3 2.5,-6.6 0.7,0.2 1.5,0.4 2.2,0.6 h 0 c 1.6,0.3 3.3,0.4 4.9,0.4 h 0.1 c 1.3,0 2.6,-0.1 3.9,-0.3 0.8,3.1 1.3,6.2 1.5,9.4 0,2.5 -0.2,5.0 -0.8,7.5 -0.1,0.4 0,0.7 0.2,1.0 0.2,0.3 0.6,0.5 1.0,0.5 h 2.5 c 0,0.3 0.1,0.6 0.3,0.8 0.2,0.3 0.6,0.5 0.9,0.5 h 5.3 c 0.6,0 1.1,-0.4 1.2,-1.0 0.5,-2.3 0.1,-4.2 -1.3,-5.6 h 0 c -0.1,-0.4 -0.1,-0.9 0,-1.3 l 2.0,-12.1 C 62.6,76.8 63.3,76.6 64.3,76.1 h 0 c 0.7,-0.3 1.3,-0.8 1.8,-1.5 0,0 0,-0.1 0.1,-0.1 0.7,-1.1 1.2,-2.2 1.6,-3.4 0.4,-1.2 0.9,-2.3 1.6,-3.4 1.1,-2.0 1.9,-4.1 2.4,-6.2 1.0,0.4 2.2,0.4 3.2,-0.1 0.9,1.0 2.0,1.8 3.2,2.2 0.9,0.3 2.0,0.2 2.8,-0.4 1.5,-1.1 2.1,-3.4 2.1,-5.3 0,-1.7 -1.3,-3.1 -2.6,-4.4 -1.0,-1.0 -2.1,-2.1 -2.2,-3.2 v 0 c -0.1,-1.2 -0.7,-2.3 -1.7,-3.0 v -2.9 c 0,-0.4 -0.2,-0.8 -0.6,-1.0 -0.3,-0.2 -0.8,-0.3 -1.2,-0.1 l -0.3,0.1 c -0.2,-0.3 -0.5,-0.6 -0.8,-0.7 -0.6,-0.1 -1.1,0.2 -1.4,0.7 0,0 -0.1,0.2 -0.2,0.4 -1.4,-0.4 -4.1,-0.3 -8.8,2.5 -4.7,2.8 -8.1,9.4 -8.9,11.2 -1.7,0.8 -3.6,1.3 -5.4,1.6 -3.6,0.5 -6.5,-0.6 -9.6,-1.7 -2.8,-1.0 -5.6,-2.1 -9.3,-2.0 l 0,0 c -2.1,0 -4.1,0.8 -5.8,2.1 -0.1,0.1 -0.2,0.2 -0.3,0.3 -1.7,1.6 -2.9,3.6 -3.4,5.9 -0.3,0.6 -1.4,2.9 -2.3,5.3 -0.6,2.2 -0.9,4.4 -1.1,6.6 -0.1,0.2 -0.1,0.4 -0.1,0.7 0,0.5 -0.1,1.0 -0.1,1.5 -0.5,7.4 0.3,7.7 0.9,8.1 z m 7.1,-26.0 c 5.8,1.8 8.8,3.5 9.3,7.0 0,0.1 0,0.2 0.1,0.2 0.3,0.8 0.2,1.7 -0.2,2.4 C 31.5,66.9 27.8,65.0 23.1,64.0 c 0.4,-1.5 1.1,-2.8 2.1,-3.9 z M 24.5,79.2 c 0.4,-0.5 0.8,-1.7 0.3,-4.5 2.5,0.1 4.4,1.3 5.9,3.7 v 0 c -0.3,0.6 -0.5,1.1 -0.9,1.6 -0.1,0.2 -0.2,0.5 -0.4,0.7 h 0 c -1.7,-0.6 -3.5,-0.8 -5.4,-0.7 0.1,-0.3 0.2,-0.5 0.4,-0.7 z m 0.6,5.9 v 0 c -0.3,-0.9 -0.6,-1.8 -0.9,-2.7 1.4,-0.1 2.9,0.1 4.3,0.5 -0.3,1.0 -0.6,2.0 -0.8,3.0 -0.8,-0.2 -1.6,-0.2 -2.3,0 -0.1,-0.3 -0.2,-0.5 -0.3,-0.8 z m 7.6,-13.5 v 0 l 0,0 c -0.1,0.1 -0.1,0.2 -0.1,0.2 0,0.1 -0.1,0.2 -0.1,0.3 -0.1,1.1 -0.4,2.3 -0.7,3.4 -1.8,-2.3 -4.6,-3.5 -7.5,-3.4 -0.6,-2.0 -1.2,-4.0 -2.0,-5.9 4.5,1.0 7.9,2.7 10.4,5.3 z m -7.1,23.1 c -0.4,-0.8 -0.6,-1.7 -0.6,-2.6 0,-0.6 0.1,-1.2 0.3,-1.8 0.2,-0.7 0.4,-1.4 0.4,-2.2 0.5,-0.2 1.0,-0.2 1.5,0 -0.1,1.1 -0.2,1.9 -0.2,2.0 0,0.3 0.1,0.6 0.3,0.8 0.9,1.0 1.5,2.2 1.7,3.6 z m 8.2,-12.8 c -2.1,2.8 -3.9,7.7 -1.9,9.5 v 0 c 0.6,0.6 1.2,1.2 1.6,2.0 h -2.3 c -0.3,-1.3 -0.9,-2.5 -1.7,-3.5 0.1,-1.4 0.6,-5.7 2.4,-8.7 1.2,-2.0 2.0,-4.2 2.6,-6.5 0.5,0.4 1.0,0.7 1.5,1.0 -0.2,1.4 -0.7,4.3 -2.2,6.2 z M 44.9,61.8 c 1.1,4.5 1.0,9.1 -0.3,13.5 -0.8,0 -1.6,-0.1 -2.3,-0.2 0.8,-4.4 0.3,-9.1 -1.5,-14.4 1.3,0.5 2.7,0.8 4.1,1.1 z m 24.3,-0.2 c -0.3,1.0 -0.6,2.1 -1.0,3.0 -1.3,-1.0 -3.0,-2.7 -3.1,-4.4 0,-1.9 -0.4,-3.9 -1.1,-5.6 1.0,-0.8 2.0,-1.7 2.8,-2.4 h 0 c -0.2,3.3 0.6,6.6 2.4,9.4 z m -7.2,-5.4 c 0.5,1.3 0.7,2.7 0.7,4.1 0,3.0 2.8,5.5 4.4,6.6 -0.6,1.1 -1.2,2.3 -1.6,3.5 -0.3,0.7 -0.5,1.4 -0.8,2.0 -1.0,-0.7 -2.5,-2.4 -3.0,-6.4 -0.5,-4.3 -1.6,-6.7 -2.4,-7.9 1.0,-0.6 1.9,-1.2 2.8,-1.8 z m -4.8,3.0 c 0.6,0.9 1.6,2.9 2.1,7.0 0.5,4.5 2.4,6.8 3.8,7.9 -0.8,0.4 -1.4,0.6 -1.8,0.7 -1.1,-1.0 -2.0,-2.8 -2.6,-5.5 h 0 c -0.1,-0.6 -0.6,-1.0 -1.2,-1.0 -0.6,0 -1.1,0.5 -1.1,1.1 -0.2,1.6 -1.2,3.2 -2.8,4.9 -0.4,0.1 -0.9,0.2 -1.3,0.2 2.6,-5.0 3.5,-9.8 2.7,-14.4 0.8,-0.3 1.5,-0.7 2.3,-1.1 z m 2.2,19.5 h 0 c -0.7,-0.5 -1.4,-0.7 -2.2,-0.7 -0.5,0 -1.0,0.2 -1.4,0.5 -0.2,-1.1 -0.3,-2.0 -0.4,-2.6 h 0 c 0.8,-0.8 1.5,-1.7 2.0,-2.6 0.5,1.3 1.4,2.5 2.4,3.4 z m -3.2,2.7 c 0.4,-0.6 0.8,-0.9 1.2,-1.0 0.4,0 1.0,0.3 1.6,1.0 l -0.6,3.8 h 0 c -0.6,-0.2 -1.1,-0.2 -1.7,0 -0.1,-1.3 -0.3,-2.6 -0.5,-3.8 z m -2.8,5.4 0,0 c -0.2,-3.3 -0.7,-6.5 -1.5,-9.7 l 1.2,-0.2 c 0.5,3.0 1.5,10.3 1.5,12.5 0,1.3 -0.1,2.7 -0.4,4.0 h -1.4 c 0.4,-2.2 0.6,-4.4 0.5,-6.6 z m 5.9,7.9 h -2.8 c 0.3,-1.7 0.5,-3.5 0.5,-5.3 0,-0.4 0,-1.0 -0.1,-1.7 0.3,-0.2 0.7,-0.2 1.0,0 l -0.2,1.2 c -0.1,0.9 -0.1,1.8 0.1,2.6 0.1,0.2 0.2,0.4 0.4,0.6 0.7,0.7 1.1,1.6 1.0,2.6 z M 79.6,61.4 c -0.2,0.1 -0.4,0.1 -0.6,0 -0.8,-0.3 -1.6,-0.8 -2.2,-1.5 l 2.8,-3.6 c 0.5,0.4 0.9,1.0 1.0,1.7 0,1.7 -0.6,3.0 -1.1,3.3 z M 78.0,54.6 74.5,59.0 C 72.9,59.8 72.4,59.3 72.0,58.7 l 0,0 c -0.3,-0.4 -0.8,-0.6 -1.2,-0.5 -0.2,0 -0.3,0.1 -0.4,0.2 -1.0,-2.7 -1.3,-5.6 -0.8,-8.4 0.2,-0.1 0.4,-0.3 0.6,-0.4 0.8,-0.4 1.6,-1.0 2.3,-1.7 0.1,0.5 0.6,0.8 1.0,0.9 0.4,0 0.9,0.1 1.3,0.3 0,0 0.1,0 0.1,0.1 0.6,0.3 1.0,0.9 1.0,1.5 0.3,1.5 1.0,2.8 2.1,3.8 z M 64.6,48.7 c 2.8,-1.7 4.7,-2.3 5.9,-2.3 h 0 c -0.5,0.5 -1.0,0.8 -1.5,1.1 -0.5,0.3 -0.9,0.6 -1.3,0.9 -0.6,0.5 -1.2,1.0 -2.0,1.7 -2.3,2.1 -4.7,4.0 -7.3,5.7 1.4,-2.4 3.6,-5.4 6.3,-7.0 z M 49.3,61.8 c 1.1,-0.2 2.2,-0.4 3.3,-0.8 0.6,4.4 -0.5,9.1 -3.4,14.0 -0.7,0.1 -1.4,0.2 -2.0,0.2 1.2,-4.3 1.3,-8.9 0.3,-13.3 0.6,0 1.2,-0.1 1.8,-0.1 z m -19.2,-3.8 c 2.8,-0.1 5.2,0.7 7.7,1.6 2.2,5.6 2.9,10.6 2.1,15.0 -1.6,-0.4 -3.2,-1.2 -4.4,-2.3 0,0 0,-0.1 0,-0.1 1.4,-1.5 1.9,-3.7 1.3,-5.7 -0.7,-4.5 -4.3,-6.6 -9.0,-8.2 0.7,-0.2 1.5,-0.4 2.3,-0.4 z"
        />
        <path
            style="fill:#000000;stroke:none"
            d="m 73.9,51.0 c -0.6,0 -1.2,0.4 -1.4,0.9 -0.2,0.6 -0.1,1.2 0.3,1.7 0.4,0.4 1.1,0.6 1.7,0.3 0.6,-0.2 0.9,-0.8 0.9,-1.4 0,-0.8 -0.7,-1.5 -1.5,-1.5 z"
        />
    </g>
    <path
        id="number-top-right"
        style="fill:#000000;stroke:none"
        d="m 93.6,5.9 q 0,0.8 -0.5,1.3 -0.5,0.5 -1.6,0.5 h -9 L 81.2,15.1 q 1.1,-0.3 2.1,-0.4 1.0,-0.1 2.0,-0.1 2.2,0 4.0,0.7 1.7,0.7 2.9,1.8 1.2,1.2 1.7,2.7 0.6,1.6 0.6,3.4 0,2.3 -0.8,4.1 -0.8,1.8 -2.2,3.2 -1.4,1.3 -3.3,2.0 -1.9,0.7 -4.1,0.7 -1.3,0 -2.4,-0.3 -1.2,-0.2 -2.2,-0.7 -1.0,-0.4 -1.9,-1.0 -0.9,-0.5 -1.5,-1.1 l 1.1,-1.5 q 0.4,-0.5 0.9,-0.5 0.4,0 0.9,0.3 0.5,0.3 1.2,0.7 0.7,0.4 1.7,0.7 1.0,0.3 2.3,0.3 1.5,0 2.7,-0.5 1.2,-0.5 2.1,-1.4 0.9,-0.9 1.3,-2.1 0.5,-1.2 0.5,-2.8 0,-1.3 -0.4,-2.4 -0.4,-1.1 -1.2,-1.8 -0.8,-0.8 -2.0,-1.2 -1.2,-0.4 -2.8,-0.4 -1.1,0 -2.3,0.2 -1.2,0.2 -2.4,0.6 l -2.2,-0.7 2.3,-13.4 h 13.6 z"
    />
    <path
        id="number-bottom-left"
        style="fill:#000000;stroke:none"
        d="m 6.4,134.1 q 0,-0.8 0.5,-1.3 0.5,-0.5 1.6,-0.5 h 9 l 1.3,-7.5 q -1.1,0.3 -2.1,0.4 -1.0,0.1 -2.0,0.1 -2.2,0 -4.0,-0.7 -1.7,-0.7 -2.9,-1.8 -1.2,-1.2 -1.7,-2.7 -0.6,-1.6 -0.6,-3.4 0,-2.3 0.8,-4.1 0.8,-1.8 2.2,-3.2 1.4,-1.3 3.3,-2.0 1.9,-0.7 4.1,-0.7 1.3,0 2.4,0.3 1.2,0.2 2.2,0.7 1,0.4 1.9,1.0 0.9,0.5 1.5,1.1 l -1.1,1.5 q -0.4,0.5 -0.9,0.5 -0.4,0 -0.9,-0.3 -0.5,-0.3 -1.2,-0.7 -0.7,-0.4 -1.7,-0.7 -1.0,-0.3 -2.3,-0.3 -1.5,0 -2.7,0.5 -1.2,0.5 -2.1,1.4 -0.9,0.9 -1.3,2.1 -0.5,1.2 -0.5,2.8 0,1.3 0.4,2.4 0.4,1.1 1.2,1.8 0.8,0.8 2.0,1.2 1.2,0.4 2.8,0.4 1.1,0 2.3,-0.2 1.2,-0.2 2.4,-0.6 l 2.2,0.7 -2.3,13.4 H 6.4 Z"
    />
</svg>
