<svg
    xmlns="http://www.w3.org/2000/svg"
    width="103px"
    height="160px"
    viewbox="0 0 103 160"
>
    <rect
        x="0.5"
        y="0.5"
        width="102px"
        height="159px"
        rx="4px"
        ry="4px"
        style="fill:#eeeeee;stroke-width:1px;stroke:#101010"
    />
    <g transform="translate(20,30)">
        <text
            text-anchor="middle"
            style="dominant-baseline:middle;font:40px sans-serif;fill:#000000"
        >2</text>
    </g>
    <g transform="translate(82,130) rotate(180)">
        <text
            text-anchor="middle"
            style="dominant-baseline:middle;font:40px sans-serif;fill:#000000"
        >2</text>
    </g>
    <path
        style="fill:#000000;stroke:none"
        d="m 47.35,107.86 c -0.7,-0.31 -5.61,-2.07 -6.19,-2.21 -0.38,-0.09 -0.68,-0.35 -0.42,-0.35 0.47,-6.43 -6.81,-10.92 -8.46,-15.90 -1.18,-4.76 0.33,-9.75 2.11,-13.38 0.57,-1.15 0.68,-1.5 0.55,-1.64 -1.3,-0.26 -2.14,-0.13 -3.61,-0.1 0.2,-1.24 0.85,-2.41 1.52,-3.42 1.82,-0.88 2.38,0.91 2.92,2.41 0.11,0.48 0.09,0.96 -0.08,1.98 -1.16,7.21 2.82,13.55 6.15,17.58 3.65,4.92 7.78,9.54 7.82,15.23 -0.79,0.11 -1.64,-0.05 -2.31,-0.21 z m 3.05,-6.08 c -0.04,-0.06 -0.4,-1.11 -0.8,-2.32 -3.91,-9.93 -18.1,-20.38 -8.03,-31.28 1.15,-1.19 1.26,-0.89 0.75,2.11 -0.22,1.3 -0.31,2.41 -0.31,4.13 -0.23,4.81 3.52,8.53 5.82,10.96 3.17,3.33 4.32,4.98 4.99,7.19 0.81,3.44 -0.67,7.26 -2.41,9.22 z m 2.27,-12.38 c -0.04,-0.14 -0.14,-0.67 -0.21,-1.18 -1.3,-6.17 -6.78,-9.13 -8.16,-14.96 -0.51,-3.18 0.36,-7.63 2.63,-9.11 0.1,0.1 0.21,0.78 0.26,1.55 0.14,2.23 0.9,4.04 3.12,7.5 2.2,3.42 3.11,5.44 3.4,7.56 0.3,2.15 0.12,5.72 -0.39,7.81 -0.24,0.98 -0.5,1.31 -0.65,0.83 z m 13.9,-9.71 c -1.41,-1.5 -3.38,-3.13 -2.54,-4.93 2.14,0.03 4.94,-2.04 2.6,-3.67 -2.32,0.41 -2.77,0.39 -2.43,-1.87 0.16,-2.51 -0.39,-5.18 -2.28,-6.53 -1.15,-0.76 -1.9,-0.65 -3.07,-0.32 -0.85,3.17 1.6,5.71 2.14,8.48 1.39,3.56 2.32,4.98 -2.32,4.08 -1.9,-0.7 -3.66,-2.41 -2.58,-3.99 1.56,-1.83 1.19,-3.32 0.23,-5.15 -2.08,-3.62 -0.71,-8.71 1.1,-11.52 0.39,-0.35 0.68,-0.49 1.02,-0.49 0.94,0 1.37,0.95 1.37,3.03 0.01,2.15 0.43,2.89 2.62,4.55 2.27,1.69 3.68,3.9 4.22,6.7 1,2.46 1.86,1.91 3.69,3.26 0.78,1.23 1.3,2.94 1.33,4.39 0,1.29 -0.57,1.59 -1.57,2.27 -1.26,0.97 -2.32,2.25 -3.56,1.7 z m -12.77,-2.12 c -0.62,-2.16 -1.5,-4.5 -2.35,-6.29 -1.32,-2.73 -1.8,-4.21 -1.96,-6 -0.12,-2.4 1.31,-4.01 1.3,-6.02 -0.31,-2.46 -1.53,-4.22 -0.75,-6.29 0.94,-1.41 2.99,-1.44 3.93,-0.05 0.85,1.45 0.75,3.45 0.51,4.95 -0.66,-0.58 -1.08,-1.27 -1.67,-1.91 0.01,2.24 1.11,4.43 0.69,6.23 -0.47,2.02 -0.44,2.36 0.52,5.5 1.32,4.36 1.48,5.38 1.11,7.38 -0.26,1.43 -1.06,2.94 -1.33,2.51 z m -19.72,-8.14 c 0.6,-1.15 2.22,-2.99 3.04,-1.95 0.43,0.56 1.037,2.11 1.11,2.81 -0.6,1.27 -3.2,-0.06 -4.15,-0.86 z m 5.18,-1.99 c -1.13,-0.39 -1.58,-1.06 -1.76,-1.7 0.26,-0.64 2.98,-3.26 4.49,-4.34 2.97,-2.13 6.15,-3.71 7.24,-3.6 0.76,0.13 0.45,0.71 0.45,1.47 0,1.45 -0.32,2.68 -0.74,2.84 -0.58,-0.22 -0.99,-0.59 -1.52,-0.92 -0.6,1.27 -0.83,2.41 -1.98,2.01 -2.03,-0.36 -1.43,0.61 -1.67,2.12 -8.59,0.37 0.38,4.46 -4.5,2.12 z m 21.32,-0.55 c -0.72,-0.72 -0.92,-2.4 -0.37,-3.02 0.33,-0.36 0.52,-0.35 1.05,0.1 0.92,0.77 1.32,2.22 0.77,2.77 -0.4,0.4 -1.13,0.48 -1.45,0.15 z"
    />
</svg>