<svg
    xmlns="http://www.w3.org/2000/svg"
    width="100px"
    height="140px"
    viewbox="0 0 100 140"
>
    <rect
        x="0.5"
        y="0.5"
        width="99px"
        height="139px"
        rx="4px"
        ry="4px"
        style="fill:#ffdd00;stroke-width:1px;stroke:#101010"
    />
    <g id="leopard">
        <path
            style="fill:#000000;stroke:none"
            d="m 14.7,57.9 v -4.4 c 0,-2.6 1.1,-5.2 2.9,-7.0 1.9,-1.9 4.4,-2.9 7.0,-2.9 h 21.0 c 1.2,0 2.3,0.6 2.9,1.7 0.6,1.0 0.6,2.3 0,3.3 -0.6,1.0 -1.7,1.7 -2.9,1.7 H 24.6 c -0.9,0 -1.7,0.4 -2.3,1.0 -0.6,0.6 -1.0,1.5 -1.0,2.3 v 4.4 c 0,1.1 0.6,2.2 1.5,2.8 2.5,-3.2 6.5,-5.0 11.7,-5.0 7.1,0 20.4,1.8 22.9,2.2 1.0,-0.6 3.7,-2.2 5.8,-2.2 2.1,0 4.9,1.6 5.8,2.2 h 3.1 c 0.4,-1.9 1.6,-3.3 3.2,-3.3 0.6,0 1.2,0.2 1.7,0.6 0.5,-0.4 1.1,-0.6 1.7,-0.6 1.9,0 3.3,1.9 3.3,4.4 0,0.8 -0.2,1.6 -0.5,2.3 l 1.3,1.3 c 0.2,0.2 0.3,0.5 0.3,0.8 v 1.9 l 2.0,3.0 v 0 c 0.2,0.3 0.2,0.7 0.1,1.0 l -2.2,5.5 c -0.1,0.3 -0.3,0.5 -0.6,0.6 -0.3,0.1 -0.6,0.1 -0.9,0 l -6.4,-3.2 h -4.7 c -0.9,1.1 -2.0,2.0 -3.2,2.8 -0.2,0.2 -0.5,0.2 -0.8,0.2 -0.3,-0.1 -0.5,-0.2 -0.7,-0.5 -0.2,-0.2 -0.2,-0.5 -0.2,-0.8 0.1,-0.3 0.2,-0.5 0.5,-0.7 1.2,-0.7 2.2,-1.7 3.1,-2.7 0.2,-0.3 0.5,-0.4 0.9,-0.4 h 2.8 c -1.0,-1.2 -1.6,-2.8 -1.7,-4.4 0,-0.6 0.5,-1.1 1.1,-1.1 0.6,0 1.1,0.5 1.1,1.1 0,2.5 2.4,4.3 2.8,4.6 l 5.5,2.7 1.5,-3.9 -1.9,-2.8 C 81.0,66.0 80.9,65.8 80.9,65.6 V 63.8 l -2.7,-2.7 c -0.2,0.6 -0.6,1.1 -1.1,1.5 -0.5,0.4 -1.1,0.6 -1.8,0.7 -1.6,0 -2.8,-1.4 -3.2,-3.3 h -3.4 c -0.2,0 -0.4,-0.1 -0.6,-0.2 -0.8,-0.6 -3.4,-2.0 -4.9,-2.0 -1.5,0 -4.1,1.5 -4.9,2.0 -0.2,0.2 -0.5,0.2 -0.8,0.2 -0.2,0 -15.5,-2.2 -23.0,-2.2 -7.5,0 -12.1,4.2 -12.1,11.0 0,0 0,0.1 0,0.1 l -1.1,9.9 c 0,0.2 -0.1,0.4 -0.2,0.6 l -4.2,5.2 v 9.6 h 4.3 C 21.0,93.3 20.5,92.5 19.7,92.0 19.3,91.8 19.1,91.4 19.1,91.0 v -4.4 c 0,-0.3 0.1,-0.6 0.3,-0.8 l 9.8,-9.8 c 1.1,-2.1 1.5,-4.5 0.9,-6.8 -0.1,-0.6 0.2,-1.2 0.8,-1.3 0.6,-0.1 1.2,0.2 1.3,0.8 0.7,2.9 0.3,6.0 -1.3,8.6 0,0.1 -0.1,0.1 -0.1,0.2 l -9.6,9.6 v 3.3 c 2.2,1.6 2.2,4.9 2.2,5.0 0,0.3 -0.1,0.6 -0.3,0.8 -0.2,0.2 -0.5,0.3 -0.8,0.3 h -6.6 c -0.3,0 -0.6,-0.1 -0.8,-0.3 -0.2,-0.2 -0.3,-0.5 -0.3,-0.8 V 84.4 c 0,-0.3 0.1,-0.5 0.2,-0.7 l 4.2,-5.3 1.1,-9.6 c 0,-0.7 0.1,-1.4 0.2,-2.0 -1.7,-0.8 -3.1,-2.1 -4.1,-3.6 -1.0,-1.6 -1.5,-3.4 -1.5,-5.3 z m 65.2,1.1 c 0,-1.3 -0.7,-2.2 -1.1,-2.2 -0.1,0 -0.3,0.1 -0.4,0.2 0.2,0.5 0.3,1.0 0.3,1.5 l 1.1,1.1 v 0 c 0,-0.2 0.1,-0.4 0.1,-0.6 z m -4.4,2.2 c 0.5,0 1.1,-0.9 1.1,-2.2 0,-1.3 -0.7,-2.2 -1.1,-2.2 -0.5,0 -1.1,0.9 -1.1,2.2 0,1.3 0.7,2.2 1.1,2.2 z m -54.6,3.4 c 0.2,-0.7 0.5,-1.4 0.8,-2.1 -1.6,-1.0 -2.6,-2.8 -2.6,-4.7 v -4.4 c 0,-1.5 0.6,-2.9 1.6,-3.9 1.0,-1.0 2.4,-1.6 3.9,-1.6 h 21.0 c 0.6,0 1.1,-0.5 1.1,-1.1 0,-0.6 -0.5,-1.1 -1.1,-1.1 h -21.0 c -2.0,0 -4.0,0.8 -5.5,2.3 -1.4,1.4 -2.3,3.4 -2.3,5.5 v 4.4 c 0,1.4 0.4,2.7 1.1,3.9 0.7,1.2 1.7,2.2 2.9,2.8 z"
        />
        <path
            style="fill:#000000;stroke:none"
            d="m 23.5,86.6 c 0,-0.3 0.1,-0.6 0.3,-0.8 l 6.6,-6.6 c 0.2,-0.2 0.5,-0.3 0.8,-0.3 0.3,0 0.6,0.1 0.8,0.3 0.2,0.2 0.3,0.5 0.3,0.8 0,0.3 -0.1,0.6 -0.3,0.8 l -6.3,6.3 v 3.3 c 2.2,1.6 2.2,4.9 2.2,5.0 v 0 c 0,0.6 -0.5,1.1 -1.1,1.1 h 0 c -0.6,0 -1.1,-0.5 -1.1,-1.1 0,0 -0.1,-2.6 -1.6,-3.4 -0.4,-0.2 -0.6,-0.6 -0.7,-1.0 z"
        />
        <path
            style="fill:#000000;stroke:none"
            d="M 63.3,91.0 V 79.9 c 0,-0.4 0.2,-0.8 0.6,-1.0 0.8,-0.4 1.4,-1.0 1.9,-1.8 0.3,-0.5 1.0,-0.7 1.5,-0.4 0.5,0.3 0.7,1.0 0.4,1.5 -0.5,0.9 -1.3,1.7 -2.2,2.3 v 9.7 0 c 1.0,0.5 1.8,1.2 2.4,2.1 0.6,0.9 0.9,2.0 0.9,3.0 0,0.6 -0.5,1.1 -1.1,1.1 -0.6,0 -1.1,-0.5 -1.1,-1.1 0,-0.8 -0.3,-1.5 -0.8,-2.1 -0.5,-0.6 -1.1,-1.1 -1.8,-1.3 -0.5,-0.1 -0.8,-0.6 -0.8,-1.0 z"
        />
        <path
            style="fill:#000000;stroke:none"
            d="m 33.6,76.2 c 4.7,0.9 9.4,1.4 14.2,1.5 1.1,0 2.1,0 3.2,-0.1 0.6,0 1.1,0.4 1.2,1.0 0,0.6 -0.4,1.1 -1.0,1.2 -1.1,0.1 -2.3,0.1 -3.4,0.1 -4.9,-0.1 -9.8,-0.6 -14.6,-1.6 -0.6,-0.1 -1.0,-0.7 -0.9,-1.3 0.1,-0.6 0.7,-1.0 1.3,-0.9 z"
        />
        <path
            style="fill:#000000;stroke:none"
            d="m 54.4,73.3 c 0.6,0 1.1,0.4 1.2,1.0 l 1.0,19.9 h 5.4 C 61.5,93.2 60.7,92.4 59.6,92.0 59.1,91.9 58.8,91.5 58.8,91.0 V 79.9 c 0,-0.4 0.2,-0.8 0.6,-1.0 3.6,-1.8 2.7,-7.6 2.7,-7.7 h 0 c -0.1,-0.6 0.3,-1.2 0.9,-1.3 0.6,-0.1 1.2,0.3 1.3,0.9 0,0.3 1.1,6.9 -3.3,9.7 v 9.7 0 c 1.0,0.5 1.8,1.2 2.4,2.1 0.6,0.9 0.9,2.0 0.9,3.0 0,0.3 -0.1,0.6 -0.3,0.8 -0.2,0.2 -0.5,0.3 -0.8,0.3 H 55.5 c -0.6,0 -1.1,-0.5 -1.1,-1.0 L 53.3,74.5 c 0,-0.6 0.4,-1.1 1.0,-1.2 z"
        />
        <path
            style="fill:#000000;stroke:none"
            d="m 78.7,64.5 h -2.2 v 2.2 h 2.2 z"
        />
        <path
            style="fill:#000000;stroke:none"
            d="m 58.8,77.7 h -1.1 c -0.6,0 -1.1,-0.5 -1.1,-1.1 0,-0.6 0.5,-1.1 1.1,-1.1 h 1.1 c 0.6,0 1.1,0.5 1.1,1.1 0,0.6 -0.5,1.1 -1.1,1.1 z"
        />
        <path
            style="fill:#000000;stroke:none"
            d="m 24.6,72.2 h 2.2 c 0.6,0 1.1,0.5 1.1,1.1 0,0.6 -0.5,1.1 -1.1,1.1 h -2.2 c -0.6,0 -1.1,-0.5 -1.1,-1.1 0,-0.6 0.5,-1.1 1.1,-1.1 z"
        />
        <path
            style="fill:#000000;stroke:none"
            d="m 25.7,77.7 c 0,0.3 -0.1,0.6 -0.3,0.8 -0.2,0.2 -0.5,0.3 -0.8,0.3 h -1.1 c -0.6,0 -1.1,-0.5 -1.1,-1.1 0,-0.6 0.5,-1.1 1.1,-1.1 h 1.1 c 0.3,0 0.6,0.1 0.8,0.3 0.2,0.2 0.3,0.5 0.3,0.8 z"
        />
        <path
            style="fill:#000000;stroke:none"
            d="m 64.4,62.3 c 0,-0.3 0.1,-0.6 0.3,-0.8 0.2,-0.2 0.5,-0.3 0.8,-0.3 h 2.2 c 0.6,0 1.1,0.5 1.1,1.1 0,0.6 -0.5,1.1 -1.1,1.1 h -2.2 c -0.3,0 -0.6,-0.1 -0.8,-0.3 -0.2,-0.2 -0.3,-0.5 -0.3,-0.8 z"
        />
        <path
            style="fill:#000000;stroke:none"
            d="m 35.6,61.2 h 2.2 c 0.6,0 1.1,0.5 1.1,1.1 0,0.6 -0.5,1.1 -1.1,1.1 h -2.2 c -0.6,0 -1.1,-0.5 -1.1,-1.1 0,-0.6 0.5,-1.1 1.1,-1.1 z"
        />
        <path
            style="fill:#000000;stroke:none"
            d="m 37.9,68.9 c 0,0.3 -0.1,0.6 -0.3,0.8 -0.2,0.2 -0.5,0.3 -0.8,0.3 h -2.2 c -0.6,0 -1.1,-0.5 -1.1,-1.1 0,-0.6 0.5,-1.1 1.1,-1.1 h 2.2 c 0.3,0 0.6,0.1 0.8,0.3 0.2,0.2 0.3,0.5 0.3,0.8 z"
        />
        <path
            style="fill:#000000;stroke:none"
            d="m 47.8,71.1 h 2.2 c 0.6,0 1.1,0.5 1.1,1.1 0,0.6 -0.5,1.1 -1.1,1.1 h -2.2 c -0.6,0 -1.1,-0.5 -1.1,-1.1 0,-0.6 0.5,-1.1 1.1,-1.1 z"
        />
        <path
            style="fill:#000000;stroke:none"
            d="m 58.8,64.5 h -2.2 c -0.6,0 -1.1,-0.5 -1.1,-1.1 0,-0.6 0.5,-1.1 1.1,-1.1 h 2.2 c 0.6,0 1.1,0.5 1.1,1.1 0,0.6 -0.5,1.1 -1.1,1.1 z"
        />
        <path
            style="fill:#000000;stroke:none"
            d="m 50.0,67.8 c 0,-0.3 0.1,-0.6 0.3,-0.8 0.2,-0.2 0.5,-0.3 0.8,-0.3 h 2.2 c 0.6,0 1.1,0.5 1.1,1.1 0,0.6 -0.5,1.1 -1.1,1.1 h -2.2 c -0.3,0 -0.6,-0.1 -0.8,-0.3 -0.2,-0.2 -0.3,-0.5 -0.3,-0.8 z"
        />
        <path
            style="fill:#000000;stroke:none"
            d="m 27.9,63.4 h 2.2 c 0.6,0 1.1,0.5 1.1,1.1 0,0.6 -0.5,1.1 -1.1,1.1 h -2.2 c -0.6,0 -1.1,-0.5 -1.1,-1.1 0,-0.6 0.5,-1.1 1.1,-1.1 z"
        />
        <path
            style="fill:#000000;stroke:none"
            d="m 43.4,67.8 h -2.2 c -0.6,0 -1.1,-0.5 -1.1,-1.1 0,-0.6 0.5,-1.1 1.1,-1.1 h 2.2 c 0.6,0 1.1,0.5 1.1,1.1 0,0.6 -0.5,1.1 -1.1,1.1 z"
        />
        <path
            style="fill:#000000;stroke:none"
            d="m 64.4,67.8 h -2.2 c -0.6,0 -1.1,-0.5 -1.1,-1.1 0,-0.6 0.5,-1.1 1.1,-1.1 h 2.2 c 0.6,0 1.1,0.5 1.1,1.1 0,0.6 -0.5,1.1 -1.1,1.1 z"
        />
        <path
            style="fill:#000000;stroke:none"
            d="m 47.8,61.2 h 2.2 c 0.6,0 1.1,0.5 1.1,1.1 0,0.6 -0.5,1.1 -1.1,1.1 h -2.2 c -0.6,0 -1.1,-0.5 -1.1,-1.1 0,-0.6 0.5,-1.1 1.1,-1.1 z"
        />
        <path
            style="fill:#000000;stroke:none"
            d="m 43.4,75.5 h -2.2 c -0.6,0 -1.1,-0.5 -1.1,-1.1 0,-0.6 0.5,-1.1 1.1,-1.1 h 2.2 c 0.6,0 1.1,0.5 1.1,1.1 0,0.6 -0.5,1.1 -1.1,1.1 z"
        />
    </g>
    <path
        id="number-top-right"
        style="fill:#000000;stroke:none"
        d="m 93.6,5.9 q 0,0.8 -0.5,1.3 -0.5,0.5 -1.6,0.5 h -9 L 81.2,15.1 q 1.1,-0.3 2.1,-0.4 1.0,-0.1 2.0,-0.1 2.2,0 4.0,0.7 1.7,0.7 2.9,1.8 1.2,1.2 1.7,2.7 0.6,1.6 0.6,3.4 0,2.3 -0.8,4.1 -0.8,1.8 -2.2,3.2 -1.4,1.3 -3.3,2.0 -1.9,0.7 -4.1,0.7 -1.3,0 -2.4,-0.3 -1.2,-0.2 -2.2,-0.7 -1.0,-0.4 -1.9,-1.0 -0.9,-0.5 -1.5,-1.1 l 1.1,-1.5 q 0.4,-0.5 0.9,-0.5 0.4,0 0.9,0.3 0.5,0.3 1.2,0.7 0.7,0.4 1.7,0.7 1.0,0.3 2.3,0.3 1.5,0 2.7,-0.5 1.2,-0.5 2.1,-1.4 0.9,-0.9 1.3,-2.1 0.5,-1.2 0.5,-2.8 0,-1.3 -0.4,-2.4 -0.4,-1.1 -1.2,-1.8 -0.8,-0.8 -2.0,-1.2 -1.2,-0.4 -2.8,-0.4 -1.1,0 -2.3,0.2 -1.2,0.2 -2.4,0.6 l -2.2,-0.7 2.3,-13.4 h 13.6 z"
    />
    <path
        id="number-bottom-left"
        style="fill:#000000;stroke:none"
        d="m 6.4,134.1 q 0,-0.8 0.5,-1.3 0.5,-0.5 1.6,-0.5 h 9 l 1.3,-7.5 q -1.1,0.3 -2.1,0.4 -1.0,0.1 -2.0,0.1 -2.2,0 -4.0,-0.7 -1.7,-0.7 -2.9,-1.8 -1.2,-1.2 -1.7,-2.7 -0.6,-1.6 -0.6,-3.4 0,-2.3 0.8,-4.1 0.8,-1.8 2.2,-3.2 1.4,-1.3 3.3,-2.0 1.9,-0.7 4.1,-0.7 1.3,0 2.4,0.3 1.2,0.2 2.2,0.7 1,0.4 1.9,1.0 0.9,0.5 1.5,1.1 l -1.1,1.5 q -0.4,0.5 -0.9,0.5 -0.4,0 -0.9,-0.3 -0.5,-0.3 -1.2,-0.7 -0.7,-0.4 -1.7,-0.7 -1.0,-0.3 -2.3,-0.3 -1.5,0 -2.7,0.5 -1.2,0.5 -2.1,1.4 -0.9,0.9 -1.3,2.1 -0.5,1.2 -0.5,2.8 0,1.3 0.4,2.4 0.4,1.1 1.2,1.8 0.8,0.8 2.0,1.2 1.2,0.4 2.8,0.4 1.1,0 2.3,-0.2 1.2,-0.2 2.4,-0.6 l 2.2,0.7 -2.3,13.4 H 6.4 Z"
    />
</svg>
