<svg
    xmlns="http://www.w3.org/2000/svg"
    width="100px"
    height="140px"
    viewbox="0 0 100 140"
>
    <rect
        x="0.5"
        y="0.5"
        width="99px"
        height="139px"
        rx="4px"
        ry="4px"
        style="fill:#ff5000;stroke-width:1px;stroke:#101010"
    />
    <g id="lion">
        <path
            style="fill:#000000;stroke:none"
            d="m 89.5,55.8 c -0.2,-1.6 -1.5,-1.9 -1.9,-2.0 -0.9,-0.2 -1.7,-0.8 -2.6,-1.6 -0.3,-0.2 -0.6,-0.5 -0.8,-0.7 -0.2,-0.2 -0.5,-0.4 -0.7,-0.7 0.7,-2.2 0.4,-3.9 -0.7,-5.0 -3.1,-3.1 -11.7,-0.4 -12.0,-0.3 -1.8,0.6 -3.3,1.5 -4.9,2.8 -0.3,0.2 -0.5,0.5 -0.4,0.9 0,0.2 0.1,0.3 0.2,0.5 -1.9,1.1 -3.4,2.6 -4.6,4.4 -0.2,0.3 -0.2,0.8 0,1.1 0.1,0.2 0.3,0.3 0.5,0.3 -0.1,0.1 -0.2,0.3 -0.3,0.4 -0.8,1.3 -1.3,2.8 -1.6,4.7 -0.1,0.8 -0.2,1.6 -0.2,2.4 -2.6,1.1 -6.2,2.5 -9.4,3.2 -2.9,0.6 -7.7,0.3 -11.1,0.1 -2.7,-0.2 -5.4,0.6 -7.4,2.2 -2.1,-0.3 -4.2,-0.3 -6.0,0.9 -1.3,0.9 -2.1,2.2 -2.8,3.4 l -1.2,2.0 c -0.5,0.8 -0.9,1.5 -1.5,1.8 -0.3,0.1 -0.5,0.2 -0.9,0.2 -0.4,-1.2 -1.5,-1.9 -3.3,-1.9 -2.9,0 -5.0,1.2 -5.0,2.8 0,1.6 2.1,2.8 5.0,2.8 2.1,0 3.1,-0.6 3.4,-1.9 0.5,0 1.1,-0.1 1.6,-0.4 1.1,-0.6 1.8,-1.7 2.3,-2.5 L 24.0,73.8 c 0.6,-1.1 1.3,-2.1 2.2,-2.8 0.9,-0.6 2.1,-0.8 3.3,-0.7 -0.4,0.5 -0.7,0.9 -1.0,1.5 -1.6,3.0 -1.9,6.0 -1.9,8.1 0,0.7 -0.5,1.4 -1.2,1.5 l -1.0,0.2 c -2.0,0.5 -3.6,1.9 -4.4,3.8 l -1.8,4.6 c -0.5,1.3 -0.3,2.7 0.5,3.9 0.8,1.1 2.1,1.8 3.4,1.8 h 5.0 c 0.9,0 1.7,-0.5 2.1,-1.3 0.4,-0.8 0.3,-1.8 -0.2,-2.5 -0.7,-0.9 -1.7,-1.5 -3.0,-1.6 -0.2,0 -0.4,-0.1 -0.5,-0.3 -0.1,-0.1 -0.1,-0.3 0,-0.5 l 0.5,-1.2 c 0.2,-0.4 0.5,-0.7 1.0,-0.7 4.3,-0.4 7.9,-1.3 10.7,-2.6 0.1,0.1 0.3,0.3 0.4,0.5 0.2,0.3 0.5,0.7 0.8,1.0 1.4,1.4 1.7,1.9 1.4,2.9 -0.4,1.5 0.1,3.1 1.3,4.1 l 1.8,1.6 c 0.6,0.6 1.5,0.9 2.3,0.9 l 4.7,0 c 0.9,0 1.6,-0.4 2.1,-1.1 0.5,-0.7 0.6,-1.6 0.3,-2.3 C 52.1,90.4 50.5,89.4 48.2,89.4 c -0.2,0 -0.5,-0.1 -0.6,-0.3 -0.1,-0.2 -0.2,-0.4 -0.1,-0.7 0.7,-2.4 1.1,-3.7 1.6,-5.6 1.6,0.2 3.2,0.3 4.9,0.3 0.9,0 1.8,0 2.7,-0.1 0.2,1.8 0.4,2.9 0.5,4.2 l 0.2,1.6 c 0.2,1.3 0.2,2.5 0.1,3.8 -0.1,0.8 0.2,1.6 0.8,2.1 0.5,0.6 1.3,0.9 2.1,0.9 l 6.0,0 c 0.9,0 1.7,-0.5 2.1,-1.3 0.4,-0.8 0.3,-1.7 -0.2,-2.4 -0.7,-1.0 -1.8,-1.6 -3.1,-1.9 -0.3,-0.1 -0.4,-0.3 -0.5,-0.4 -0.1,-0.1 -0.1,-0.3 0,-0.6 0.3,-0.6 0.9,-2.0 1.3,-3.2 0.8,0.6 1.6,1.2 2.4,1.7 1.2,0.8 2.2,1.9 2.8,3.2 l 1.3,2.9 c 0.6,1.2 1.8,2.0 3.1,2.0 h 5.4 c 1.0,0 2.0,-0.6 2.5,-1.5 0.5,-0.9 0.5,-2.0 0,-2.9 -0.9,-1.5 -2.6,-2.3 -4.8,-2.2 -0.5,0 -1.0,-0.3 -1.1,-0.9 L 76.1,82.4 c -0.4,-1.7 -0.1,-3.5 0.9,-4.9 0.5,-0.7 0.7,-1.3 0.9,-1.7 0.1,0 0.2,-0.1 0.3,-0.1 1.2,-0.9 1.3,-4.7 1.2,-7.8 0.1,-0.5 0.2,-0.8 0.3,-1.1 0,-0.1 0.1,-0.3 0.1,-0.4 0.5,-1.0 1.1,-2.1 1.4,-2.7 0.2,0 0.3,0.1 0.5,0.2 0.5,0.1 0.9,0.3 1.4,0.4 1.3,0.2 2.4,-0.1 3.2,-0.8 0.8,-0.7 1.0,-1.7 1.1,-2.5 0,-0.3 0,-0.5 0,-0.7 v -0.3 c 0,0 0,-0.1 0,-0.2 0.6,-0.3 1.2,-0.8 1.4,-1.3 0.1,-0.3 0.2,-0.5 0.4,-0.8 0.1,-0.2 0.2,-0.4 0.3,-0.6 0.1,-0.3 0.1,-0.6 0.1,-1.0 z M 17.0,78.4 c 0,0 -0.3,0.2 -1.5,0.2 -1.9,0 -3.1,-0.7 -3.1,-0.9 0.1,-0.3 1.2,-0.9 3.1,-0.9 1.6,0 1.6,0.5 1.6,1.2 0,0.4 0,0.5 -0.1,0.5 z m 31.2,12.9 c 2.2,0 2.7,1.2 2.9,1.6 0.1,0.3 0,0.5 -0.1,0.6 -0.1,0.1 -0.2,0.3 -0.6,0.3 H 45.7 c -0.4,0 -0.8,-0.1 -1.1,-0.4 l -1.8,-1.6 c -0.6,-0.5 -0.9,-1.4 -0.7,-2.2 0.6,-2.1 -0.5,-3.4 -1.9,-4.8 -0.2,-0.2 -0.4,-0.5 -0.6,-0.8 -0.1,-0.1 -0.1,-0.2 -0.2,-0.3 1.1,-0.7 2.0,-1.5 2.8,-2.4 1.5,0.4 3.2,0.8 5.1,1.1 -0.5,1.8 -0.9,3.0 -1.5,5.3 -0.2,0.8 -0.1,1.7 0.4,2.3 0.5,0.7 1.3,1.1 2.1,1.0 z m 16.4,0.6 c 0.9,0.2 1.6,0.6 2.0,1.2 0.1,0.2 0.1,0.4 0,0.5 0,0.1 -0.2,0.3 -0.4,0.3 h -6.0 c -0.3,0 -0.5,-0.1 -0.7,-0.3 -0.2,-0.2 -0.3,-0.5 -0.3,-0.7 0.1,-1.4 0.1,-2.8 -0.1,-4.2 l -0.2,-1.6 c -0.2,-1.2 -0.3,-2.4 -0.5,-4.2 1.2,-0.2 2.5,-0.4 3.7,-0.8 0.5,0.9 1.2,1.7 2.0,2.4 -0.3,1.1 -1.0,2.8 -1.4,3.7 -0.3,0.7 -0.3,1.5 0,2.3 0.3,0.7 1.0,1.2 1.8,1.4 z M 75.4,76.3 c -1.3,1.8 -1.7,4.2 -1.2,6.5 l 1.4,5.8 c 0.3,1.4 1.6,2.4 3.0,2.3 1.5,0 2.5,0.4 3.1,1.3 0.3,0.4 0.1,0.8 0,1.03 -0.1,0.2 -0.3,0.5 -0.9,0.5 h -5.4 c -0.6,0 -1.2,-0.4 -1.4,-0.9 l -1.3,-2.9 c -0.8,-1.6 -2.0,-3.0 -3.5,-4.0 -2.8,-1.8 -4.8,-3.7 -5.7,-5.4 0,0 0,0 0,0 0,0 0.1,-0.1 -0.1,-0.2 l 0,0 c 0,0 -0.1,-0.1 -0.1,-0.1 0,0 0,0 0,0 0,0 -0.1,-0 -0.1,-0.1 0,0 0,0 -0.1,0 0,0 -0.1,0 -0.1,0 0,0 -0.1,0 -0.1,0 0,0 0,0 -0.1,0 h -0.1 0 0 0 c -0.2,0 -0.3,0.1 -0.6,0.1 -4.5,1.3 -9.2,1.3 -13.4,0.7 h 0 c -0.1,0 -0.2,0 -0.3,0 -1.8,-0.3 -3.6,-0.6 -5.1,-1.0 0.1,-0.2 0.2,-0.3 0.3,-0.5 0.2,-0.5 0,-1.0 -0.4,-1.3 -0.5,-0.2 -1.0,0 -1.3,0.4 -0.2,0.5 -0.5,0.9 -0.8,1.3 -2.9,3.8 -9.2,5.2 -14.2,5.7 -1.2,0.1 -2.1,0.8 -2.6,1.9 l -0.5,1.2 c -0.3,0.7 -0.2,1.5 0.2,2.2 0.4,0.7 1.1,1.1 1.9,1.2 0.8,0.1 1.4,0.4 1.8,0.9 0.2,0.2 0.1,0.4 0,0.5 0,0.1 -0.2,0.3 -0.5,0.3 h -5.0 c -0.8,0 -1.5,-0.4 -1.9,-1.0 -0.4,-0.6 -0.5,-1.4 -0.3,-2.1 l 1.8,-4.6 c 0.5,-1.3 1.6,-2.3 3.0,-2.6 l 1.0,-0.2 c 1.6,-0.4 2.7,-1.8 2.7,-3.4 0,-1.8 0.3,-4.6 1.7,-7.2 1.6,-2.9 4.8,-4.7 8.2,-4.4 3.5,0.3 8.5,0.5 11.7,-0.1 3.2,-0.7 6.4,-1.9 9.2,-3.1 v 0.7 c 0,0.4 0.3,0.8 0.7,0.9 0.6,0.2 1.2,0 1.7,-0.2 0,0 0.1,0 0.2,0 0.5,1.1 1.6,3.2 3.9,4.6 0.4,0.2 0.9,0.1 1.2,-0.2 0.1,-0.1 0.2,-0.3 0.3,-0.4 0.8,1.4 2.3,3.4 5.8,3.9 0.4,0.1 0.8,-0.2 1.0,-0.5 0.6,0.8 1.4,1.2 1.9,1.6 h 0 c -0.1,0.3 -0.3,0.7 -0.6,1.1 z M 86.8,58.2 c 0.1,0.1 0.1,0.2 0.2,0.3 0,-0.1 -0.1,-0.2 -0.2,-0.3 z m 0.6,-1.7 c -0.2,0.3 -0.3,0.6 -0.4,0.9 -0.1,0.1 -0.4,0.3 -0.6,0.4 -0.7,-0.3 -1.8,-0.4 -2.2,-0.4 -0.3,0 -1.1,0 -1.4,0.7 -0.2,0.4 0,0.9 0.3,1.3 0.4,0.4 1.5,0.8 2.4,1.0 -0.1,0.7 -0.2,1.1 -0.5,1.3 -0.3,0.2 -0.7,0.5 -1.6,0.4 -0.4,-0.1 -0.8,-0.2 -1.2,-0.3 -0.3,-0.1 -0.5,-0.2 -0.8,-0.2 -2.3,-0.6 -3.8,-1.2 -4.3,-1.8 -0.3,-0.3 -0.3,-0.6 -0.2,-1.3 0,-0.4 0.1,-0.8 0,-1.3 -0.1,-0.5 -0.6,-0.9 -1.1,-0.8 -0.5,0.1 -0.9,0.6 -0.8,1.1 0,0.2 0,0.5 0,0.8 -0.2,2.1 0.4,3.4 4.3,4.6 -0.5,0.8 -1.0,1.8 -1.3,2.5 0,0.1 0,0.1 -0.1,0.2 0,0.1 -0.1,0.3 -0.1,0.4 -0.1,0.3 -0.2,0.8 -0.3,1.4 0,0.1 0,0.1 0,0.2 0.1,2.5 0,5.0 -0.3,6.0 0,0 -0.1,0 -0.1,-0.1 -0.7,-0.5 -1.7,-1.1 -2.1,-2.3 -0.1,-0.4 -0.4,-0.6 -0.8,-0.7 -0.4,0 -0.8,0.2 -0.9,0.5 l -0.5,1.0 c -2.6,-0.6 -3.4,-2.3 -4.1,-3.5 -0.3,-0.6 -0.6,-1.1 -1.0,-1.4 -0.3,-0.2 -0.7,-0.2 -1.1,0 -0.3,0.2 -0.5,0.6 -0.4,0.9 0,0.1 0,0.3 -0.1,0.5 -2.0,-1.5 -2.6,-3.7 -2.6,-3.7 -0.1,-0.4 -0.4,-0.6 -0.8,-0.7 -0.6,-0.1 -1.0,0.1 -1.4,0.2 l 0,-2.7 c 0,0 0,0.1 0,-0.1 0,-0.3 0.1,-0.6 0.1,-0.9 0.3,-1.6 0.7,-2.9 1.3,-4.0 0.3,-0.5 0.7,-0.9 1.0,-1.4 0.2,-0.2 0.3,-0.4 0.5,-0.7 0.2,-0.3 0.2,-0.6 0.1,-0.9 -0.1,-0.2 -0.3,-0.4 -0.5,-0.5 1.3,-1.3 2.9,-2.4 4.7,-3.1 0.2,-0.1 0.4,-0.3 0.5,-0.5 0.1,-0.2 0.1,-0.5 0,-0.7 -0.1,-0.2 -0.2,-0.4 -0.4,-0.5 0.8,-0.5 1.7,-0.9 2.5,-1.2 2.5,-0.8 8.3,-2.0 10.1,-0.2 0.6,0.6 0.7,1.7 0.2,3.3 -0.1,0.4 -0.2,1.1 0.6,1.8 0.2,0.2 0.5,0.4 0.7,0.6 0.3,0.3 0.6,0.5 0.9,0.8 1.0,0.8 2.1,1.6 3.4,1.9 0.5,0.1 0.5,0.2 0.6,0.5 v 0 c -0.1,0.2 -0.1,0.3 -0.2,0.5 z"
        />
        <path
            style="fill:#000000;stroke:none"
            d="m 80.987624,52.915579 c -0.284317,-0.01598 -0.584616,-0.03141 -0.868948,-0.06337 -0.537235,-0.04739 -0.742757,0.900347 -0.268335,1.216628 0.568634,0.379095 1.248042,0.584617 1.895966,0.568635 0.442457,-0.01598 0.647993,-0.742757 0.31573,-1.121851 -0.300299,-0.363113 -0.679393,-0.584067 -1.074469,-0.600049 z"
        />
        <path
            style="fill:#000000;stroke:none"
            d="m 74.304279,48.207051 c -0.774171,-0.06337 -1.501003,0.142158 -2.053669,0.61603 -1.153265,0.995124 -1.248042,2.859676 -0.220954,4.328799 0.189554,0.268335 0.473871,0.395076 0.774171,0.395076 0.189554,0 0.379094,-0.06337 0.537234,-0.173572 0.426476,-0.300299 0.521253,-0.884915 0.236936,-1.311405 -0.473871,-0.663412 -0.505821,-1.468982 -0.09477,-1.816691 0.15814,-0.142159 0.395076,-0.205522 0.663412,-0.173573 0.363112,0.03141 0.695375,0.220954 0.932311,0.505822 0.331713,0.410508 0.916329,0.473871 1.326823,0.142158 0.410508,-0.331713 0.45789,-0.916329 0.142159,-1.326823 -0.585167,-0.680494 -1.390751,-1.106984 -2.243675,-1.185765 z"
        />
    </g>
    <path
        id="number-top-right"
        style="fill:#000000;stroke:none"
        d="m 91.7,22.6 h 4.3 v 2.0 q 0,0.3 -0.2,0.5 -0.2,0.2 -0.6,0.2 h -3.6 v 7.5 H 88.6 V 25.4 H 75.9 q -0.4,0 -0.7,-0.2 -0.3,-0.2 -0.4,-0.6 L 74.5,22.8 88.4,4.3 h 3.3 z M 88.6,10.8 q 0,-0.5 0,-1.1 0,-0.6 0.1,-1.3 L 78.3,22.6 H 88.6 Z"
    />
    <path
        id="number-bottom-left"
        style="fill:#000000;stroke:none"
        d="M 8.3,117.4 H 3.9 v -2.0 q 0,-0.3 0.2,-0.5 0.2,-0.2 0.6,-0.2 h 3.6 v -7.5 h 3.1 v 7.5 h 12.7 q 0.4,0 0.7,0.2 0.3,0.2 0.4,0.6 l 0.4,1.8 -13.9,18.5 H 8.3 Z m 3.1,11.8 q 0,0.5 0,1.1 0,0.6 -0.1,1.3 l 10.4,-14.2 H 11.4 Z"
    />
</svg>
