<svg
    xmlns="http://www.w3.org/2000/svg"
    width="103px"
    height="160px"
    viewbox="0 0 103 160"
>
    <rect
        x="0.5"
        y="0.5"
        width="102px"
        height="159px"
        rx="4px"
        ry="4px"
        style="fill:#509050;stroke-width:1px;stroke:#101010"
    />
    <text
        x="51.5"
        y="20"
        text-anchor="middle"
        style="dominant-baseline:middle;font:15px sans-serif;fill:#000000;stroke:#202020;stroke-width:0.25px"
    >WILDLIFE</text>
    <text
        x="51.5"
        y="40"
        text-anchor="middle"
        style="dominant-baseline:middle;font:15px sans-serif;fill:#000000;stroke:#202020;stroke-width:0.25px"
    >SAFARI</text>
    <path
        style="fill:#000000;stroke:none"
        d="m 46.02,122.69 c -0.48,-0.21 -3.92,-1.44 -4.32,-1.54 -0.26,-0.06 -0.47,-0.24 -0.29,-0.24 0.32,-4.49 -4.76,-7.63 -5.91,-11.11 -0.82,-3.32 0.23,-6.81 1.47,-9.35 0.39,-0.80 0.47,-1.04 0.38,-1.14 -0.90,-0.18 -1.49,-0.09 -2.52,-0.06 0.13,-0.86 0.59,-1.68 1.06,-2.39 1.27,-0.61 1.66,0.63 2.04,1.68 0.07,0.33 0.06,0.67 -0.05,1.38 -0.81,5.04 1.97,9.47 4.29,12.29 2.55,3.43 5.43,6.66 5.46,10.64 -0.55,0.07 -1.14,-0.03 -1.61,-0.14 z m 2.13,-4.25 c -0.02,-0.04 -0.27,-0.77 -0.55,-1.62 -2.73,-6.94 -12.65,-14.24 -5.61,-21.86 0.80,-0.83 0.88,-0.62 0.52,1.47 -0.15,0.90 -0.21,1.68 -0.21,2.88 -0.16,3.36 2.46,5.96 4.06,7.66 2.21,2.32 3.02,3.48 3.48,5.02 0.56,2.40 -0.46,5.07 -1.68,6.44 z m 1.58,-8.65 c -0.02,-0.09 -0.09,-0.46 -0.14,-0.82 -0.90,-4.31 -4.74,-6.38 -5.70,-10.45 -0.35,-2.22 0.25,-5.33 1.83,-6.36 0.06,0.06 0.14,0.54 0.18,1.08 0.09,1.55 0.62,2.82 2.18,5.24 1.53,2.39 2.17,3.80 2.37,5.28 0.20,1.50 0.08,3.99 -0.27,5.46 -0.16,0.68 -0.34,0.91 -0.45,0.58 z m 9.71,-6.78 c -0.98,-1.04 -2.36,-2.18 -1.77,-3.44 1.49,0.02 3.45,-1.42 1.81,-2.56 -1.62,0.28 -1.93,0.27 -1.69,-1.30 0.11,-1.75 -0.27,-3.62 -1.59,-4.56 -0.80,-0.53 -1.32,-0.45 -2.14,-0.22 -0.59,2.21 1.11,3.99 1.49,5.92 0.97,2.48 1.62,3.48 -1.62,2.85 -1.32,-0.48 -2.55,-1.68 -1.80,-2.78 1.09,-1.27 0.83,-2.32 0.16,-3.60 -1.45,-2.53 -0.49,-6.08 0.76,-8.05 0.27,-0.24 0.47,-0.34 0.71,-0.34 0.65,0.00 0.95,0.66 0.95,2.11 0.00,1.50 0.30,2.02 1.83,3.18 1.58,1.18 2.57,2.72 2.95,4.68 0.69,1.71 1.30,1.33 2.57,2.27 0.54,0.85 0.90,2.05 0.92,3.06 0.00,0.90 -0.39,1.11 -1.09,1.58 -0.88,0.67 -1.62,1.57 -2.48,1.18 z m -8.92,-1.48 c -0.43,-1.51 -1.04,-3.14 -1.64,-4.39 -0.92,-1.90 -1.25,-2.94 -1.37,-4.19 -0.08,-1.67 0.91,-2.80 0.90,-4.20 -0.21,-1.71 -1.06,-2.95 -0.52,-4.39 0.65,-0.98 2.09,-1.00 2.74,-0.03 0.59,1.01 0.52,2.41 0.35,3.46 -0.46,-0.40 -0.75,-0.88 -1.16,-1.33 0.00,1.56 0.77,3.09 0.48,4.35 -0.32,1.41 -0.30,1.64 0.36,3.84 0.92,3.04 1.03,3.76 0.77,5.15 -0.18,0.99 -0.74,2.05 -0.92,1.75 z M 36.74,95.82 c 0.41,-0.80 1.55,-2.09 2.12,-1.36 0.30,0.39 0.72,1.47 0.77,1.96 -0.41,0.88 -2.23,-0.04 -2.90,-0.60 z M 40.36,94.43 c -0.79,-0.27 -1.10,-0.74 -1.23,-1.18 0.18,-0.44 2.08,-2.27 3.13,-3.03 2.07,-1.48 4.29,-2.59 5.06,-2.51 0.53,0.09 0.31,0.49 0.31,1.02 0,1.01 -0.22,1.87 -0.51,1.98 -0.40,-0.15 -0.69,-0.41 -1.06,-0.64 -0.41,0.88 -0.58,1.68 -1.38,1.40 -1.41,-0.25 -0.99,0.42 -1.16,1.48 -6.00,0.25 0.26,3.11 -3.14,1.48 z m 14.90,-0.38 c -0.50,-0.50 -0.64,-1.67 -0.25,-2.11 0.23,-0.25 0.36,-0.24 0.73,0.06 0.64,0.53 0.92,1.55 0.53,1.93 -0.27,0.27 -0.79,0.33 -1.01,0.10 z"
    />
    <path
        style="fill:#000000;stroke:none"
        d="m 96.69,54.72 c -0.76,3.90 -1.41,8.62 -2.53,12.85 -0.67,2.58 -1.53,4.99 -2.76,6.94 -1.05,1.68 -2.40,3.04 -4.13,3.78 0.97,2.11 3.53,3.88 6.24,4.39 0.28,-0.50 0.59,-1.11 0.90,-1.83 0.88,-2.05 1.78,-4.90 2.43,-8.12 1.13,-5.60 1.48,-12.33 -0.16,-18.00 z m -35.41,0.50 v 37.29 h 3.23 c 0.62,-0.73 1.09,-1.83 1.42,-3.76 2.97,0.00 4.53,-0.36 5.46,-0.89 -2.30,-2.08 -4.20,-4.81 -5.60,-8.29 0.95,1.23 2.10,2.41 3.43,3.51 3.52,5.46 8.80,8.01 15.43,8.69 0.04,-0.05 0.07,-0.10 0.13,-0.20 0.09,-0.14 0.19,-0.31 0.34,-0.49 0.14,-0.17 0.40,-0.45 0.88,-0.42 0.46,0.02 0.67,0.27 0.82,0.46 0.15,0.17 0.27,0.35 0.38,0.51 0.09,0.13 0.17,0.25 0.23,0.32 2.71,0.04 4.87,-0.27 6.25,-0.98 1.38,-0.72 2.03,-1.71 1.99,-3.46 -0.11,-1.21 -0.92,-2.26 -2.20,-3.28 -3.32,-0.51 -6.47,-2.54 -7.70,-5.41 -0.90,-0.10 -1.67,-0.67 -2.24,-1.37 -0.65,-0.81 -1.11,-1.83 -1.33,-2.81 -0.86,-1.94 -2.69,-5.11 -4.76,-7.78 -1.03,-1.34 -2.13,-2.55 -3.18,-3.43 -0.28,-0.23 -0.56,-0.44 -0.83,-0.62 l -1.19,0.56 c -0.72,-1.44 -1.04,-3.13 -1.37,-4.59 -0.23,-1.05 -0.50,-1.97 -0.78,-2.55 -1.53,1.18 -1.91,2.36 -1.87,3.60 0.04,1.38 0.75,2.88 1.41,4.19 l -1.31,0.65 c -0.10,-0.21 -0.22,-0.44 -0.33,-0.68 -0.90,1.08 -1.65,2.54 -2.16,4.15 -0.52,1.69 -0.75,3.56 -0.62,5.33 l -1.51,-1.67 c 0.06,-1.39 0.32,-2.78 0.72,-4.08 0.59,-1.94 1.53,-3.70 2.74,-5.02 0.05,-0.05 0.11,-0.11 0.16,-0.18 -0.29,-0.82 -0.53,-1.70 -0.56,-2.63 0.00,-0.26 0,-0.52 0.02,-0.79 -1.72,-1.63 -3.50,-3.08 -5.50,-3.84 z m 14.45,1.78 c -0.27,0.58 -0.54,1.49 -0.78,2.55 -0.13,0.65 -0.29,1.34 -0.47,2.04 0.26,0.18 0.53,0.39 0.79,0.60 0.49,0.41 0.99,0.88 1.48,1.39 0.44,-0.98 0.81,-2.02 0.85,-3.01 0.04,-1.21 -0.32,-2.40 -1.86,-3.58 z m 12.87,11.70 c -0.44,1.23 -0.97,2.55 -1.76,3.75 -0.62,0.93 -1.41,1.76 -2.45,2.27 -0.13,0.06 -0.29,0.13 -0.44,0.18 0.20,0.55 0.49,1.10 0.83,1.52 0.09,0.12 0.20,0.23 0.30,0.33 l 0.35,0.28 c 0.10,0.06 0.21,0.11 0.32,0.16 l 0.25,-0.06 c 0.93,-0.27 1.75,-0.76 2.48,-1.43 0.08,-0.28 0.16,-0.59 0.23,-0.91 0.36,-1.69 0.43,-3.77 -0.14,-6.11 z m -10.26,9.71 c 0.49,0.00 0.99,0.11 1.45,0.27 1.04,0.37 1.99,1.00 2.74,1.57 l -0.88,1.16 c -0.06,-0.04 -0.12,-0.09 -0.19,-0.14 -0.18,0.54 -0.70,0.95 -1.31,0.95 -0.75,0.00 -1.39,-0.62 -1.39,-1.39 0.00,-0.32 0.11,-0.61 0.30,-0.85 -0.67,-0.19 -1.25,-0.17 -1.78,0.16 l -0.81,-1.20 c 0.52,-0.34 1.10,-0.49 1.67,-0.51 0.06,0.00 0.13,0.00 0.20,0.00 z m 13.96,8.24 c 0.11,0.00 0.23,0.00 0.36,0.02 l -0.18,1.46 c -0.74,-0.09 -1.30,0.20 -1.94,1.02 l -1.16,-0.90 c 0.72,-0.92 1.69,-1.57 2.81,-1.60 0.03,0 0.07,0.00 0.11,0.00 z"
    />
    <path
        style="fill:#000000;stroke:none"
        d="m 69.71,115.02 c -0.84,0.03 -1.74,0.25 -2.64,0.44 l 5.12,5.38 -1.77,0.01 c -2.41,0.01 -6.20,0.50 -8.49,1.83 l 2.60,4.22 -3.32,1.72 v 4.64 l 3.81,2.16 -3.81,3.28 v 2.64 c 2.31,-0.09 4.97,0.04 7.30,-0.72 l 2.61,-0.87 -1.78,2.09 c -1.53,1.80 -2.43,4.51 -4.15,7.18 2.61,-0.19 5.19,-0.62 7.93,-2.11 l 1.31,-0.71 -0.79,6.32 c 2.16,-0.99 4.27,-2.37 5.83,-4.02 1.85,-1.96 2.92,-4.13 2.73,-5.96 l 0.00,-0.06 c -1.51,-1.04 -2.64,-2.55 -3.21,-4.43 -0.69,-2.27 -0.48,-5.11 0.54,-8.29 -2.16,-0.32 -3.81,-1.20 -4.69,-2.46 -1.01,-1.45 -1.16,-3.21 -0.63,-4.67 0.53,-1.45 1.82,-2.63 3.55,-2.74 1.68,-0.09 3.64,0.82 5.73,2.95 0.92,0.33 1.78,0.65 2.55,0.97 0.20,-1.75 -0.11,-3.11 -0.85,-4.33 -0.68,-1.15 -1.90,-2.17 -3.36,-3.17 l 0.34,3.52 -1.34,-0.90 c -3.03,-2.02 -7.41,-4.08 -11.10,-3.91 v -0.02 z m 8.22,6.39 c -0.03,0 -0.06,0.00 -0.10,0.00 v 0 c -1.11,0.06 -1.84,0.74 -2.20,1.73 -0.36,0.98 -0.26,2.24 0.45,3.27 0.72,1.03 2.06,1.90 4.39,2.03 l 1.03,0.05 -0.35,0.97 c -1.21,3.32 -1.33,6.06 -0.70,8.13 0.62,2.06 1.97,3.50 3.88,4.30 v 0.00 l 8.90,3.15 c 0.46,-0.97 0.95,-1.95 1.47,-2.92 -0.41,0.18 -0.86,0.27 -1.34,0.27 -1.84,0.00 -3.34,-1.49 -3.34,-3.34 0.00,-1.84 1.49,-3.34 3.34,-3.34 1.69,0.00 3.09,1.25 3.31,2.89 0.87,-1.48 1.79,-2.95 2.74,-4.40 l -8.46,-4.29 -0.39,-0.46 c -0.32,-1.11 -0.94,-1.91 -2.16,-2.73 -1.21,-0.81 -3.03,-1.60 -5.55,-2.50 l -0.16,-0.06 -0.12,-0.13 c -1.90,-2.01 -3.50,-2.64 -4.60,-2.62 z m 9.75,7.37 c 0.67,0.00 1.20,0.52 1.20,1.20 0.00,0.67 -0.52,1.20 -1.20,1.20 -0.67,0.00 -1.20,-0.52 -1.20,-1.20 0.00,-0.67 0.52,-1.20 1.20,-1.20 z"
    />
    <path
        style="fill:#000000;stroke:none"
        d="m 11.43,56.94 c -0.33,0.00 -0.66,0.04 -0.98,0.13 -1.16,0.34 -1.97,0.83 -2.59,1.64 -0.60,0.81 -1.04,2.05 -1.23,3.97 -0.04,0.53 0.16,1.46 0.61,2.47 0.45,1.00 1.13,2.09 1.90,3.06 l 0.19,0.24 -0.04,0.31 c -0.24,1.44 -0.28,4.04 -0.01,5.49 0.06,0.34 0.45,1.15 1.08,2.09 0.62,0.93 1.46,2.06 2.39,3.27 1.85,2.41 4.04,5.17 5.57,7.71 0.00,0.00 0.02,0.04 0.16,0.06 0.13,0.02 0.36,0.02 0.56,-0.02 0.18,-0.04 0.35,-0.13 0.42,-0.19 -0.78,-3.34 -1.27,-6.69 -2.98,-9.96 l -0.80,-1.54 1.66,0.52 c 1.72,0.54 3.89,0.70 5.86,0.61 1.97,-0.09 3.77,-0.44 4.70,-0.82 l 0.44,-0.18 0.33,0.34 c 3.45,3.60 5.86,7.83 9.00,11.26 0.00,0.00 0.00,0.00 0.06,0.00 0.08,0 0.23,-0.05 0.37,-0.14 0.13,-0.09 0.24,-0.22 0.29,-0.33 0.04,-0.10 0.04,-0.16 0.02,-0.25 -1.62,-4.43 -2.43,-8.78 -4.94,-12.96 l -0.16,-0.27 0.09,-0.30 c 0.54,-1.67 1.42,-3.41 3.42,-4.81 l 0.35,-0.25 0.38,0.20 c 0.91,0.48 1.52,0.46 2.04,0.15 1.04,-0.62 1.92,-1.90 2.28,-3.02 l -1.13,-0.67 -0.07,-0.29 c -0.32,-1.27 -0.65,-2.03 -1.16,-2.61 -0.50,-0.57 -1.24,-1.02 -2.47,-1.55 l -0.51,-0.21 0.08,-0.55 c 0.06,-0.44 0,-0.91 -0.09,-1.41 -2.89,2.39 -4.22,5.14 -6.91,8.00 l -0.25,0.26 -0.36,-0.04 C 24.44,65.68 17.64,65.92 13.20,66.45 c -0.48,0.05 -0.89,-0.09 -1.30,-0.29 -0.40,-0.20 -0.79,-0.48 -1.15,-0.83 -0.71,-0.68 -1.34,-1.58 -1.27,-2.65 0.04,-0.74 0.20,-1.35 0.55,-1.83 0.34,-0.47 0.88,-0.74 1.41,-0.81 1.06,-0.13 2.14,0.30 3.36,0.79 2.41,0.99 5.27,2.31 7.43,1.73 0.83,-0.22 2.44,-1.60 3.54,-3.02 0.54,-0.70 0.99,-1.42 1.22,-1.95 0.10,-0.23 0.16,-0.43 0.18,-0.55 -0.03,0.00 -0.09,0.00 -0.18,0.00 -0.20,0.01 -0.55,0.10 -0.99,0.30 -0.87,0.38 -2.09,1.14 -3.56,2.14 -0.95,0.64 -2.07,0.66 -3.11,0.40 -1.03,-0.25 -2.05,-0.76 -3.08,-1.27 -1.53,-0.76 -3.05,-1.50 -4.43,-1.60 a 4.28,4.28 0 0 0 -0.33,0.00 z m 27.43,5.83 0.78,1.76 -1.79,-0.27 z M 8.65,76.45 c -1.13,3.92 -2.83,7.76 -4.44,10.63 0.00,0.00 0.00,0.00 0.00,0.00 a 0.04,0.04 0 0 1 0.00,0.01 c 0.01,0.04 0.09,0.15 0.22,0.23 0.11,0.08 0.27,0.13 0.39,0.15 0.10,0.01 0.13,0.00 0.14,0.00 2.69,-1.98 4.69,-4.42 6.66,-6.84 l -0.04,-0.06 C 10.68,79.37 9.82,78.23 9.15,77.23 8.97,76.95 8.80,76.70 8.65,76.45 Z m -4.44,10.63 c 0.00,0.00 0.00,0.00 0.00,0.00 z M 27.98,77.53 c -0.56,0.18 -1.23,0.34 -1.98,0.47 -0.99,3.20 -2.66,6.22 -4.17,8.99 l 0.00,0.01 0.00,0.01 c -0.02,0.03 -0.01,0.01 0,0.05 0.01,0.04 0.07,0.13 0.17,0.20 0.19,0.13 0.38,0.18 0.57,0.01 v 0 0 c 2.57,-2.21 4.74,-4.87 6.81,-8.18 -0.44,-0.54 -0.90,-1.07 -1.39,-1.59 z"
    />
    <path
        style="fill:#000000;stroke:none"
        d="m 25.60,125.34 c -10.27,-0.10 -16.70,3.78 -17.19,6.80 -0.24,3.34 -0.34,6.78 -0.32,10.10 l 0.34,0.30 c 0.32,-1.24 0.52,-2.57 1.14,-3.57 0.10,2.20 0.41,4.74 0.92,6.65 -0.20,2.02 -0.17,3.89 -0.27,5.91 1.71,1.03 4.90,0.86 5.47,0.16 0.23,-1.67 0.40,-3.45 0.32,-5.55 l 0.61,-2.86 c 0.51,-1.18 2.04,-1.39 1.89,-2.57 l 1.44,-0.20 c 0.02,2.04 -1.16,2.19 -2.00,3.37 1.05,0.43 1.18,0.31 1.95,0.41 1.93,0.22 3.67,0.30 5.49,-0.66 l -0.25,-1.41 1.44,-0.25 0.25,1.40 c 0.34,1.13 0.97,8.46 1.50,8.78 1.09,0.51 4.36,0.51 4.49,-0.43 0.13,-3.71 0.31,-7.30 -0.41,-10.80 0.30,-0.33 0.59,-0.65 0.88,-0.97 -1.63,-0.82 -3.58,-2.09 -4.67,-3.39 -0.73,-1.39 -1.11,-3.13 -1.40,-4.55 -0.20,-1.04 -0.34,-2.11 -0.30,-3.04 0.02,-0.46 0.08,-0.89 0.24,-1.29 1.60,-1.63 4.58,-2.89 6.45,-3.76 -2.69,-0.58 -5.80,0.60 -8.04,1.44 z m 10.45,-0.81 c -2.41,0.88 -5.85,1.79 -7.50,3.67 -0.06,0.16 -0.12,0.45 -0.13,0.81 -0.02,0.72 0.09,1.71 0.27,2.69 0.19,0.98 0.45,1.97 0.69,2.72 0.11,0.37 0.22,0.69 0.31,0.92 1.23,1.80 3.69,3.21 5.50,3.64 l 1.17,-2.32 c -0.93,-1.21 -1.11,-2.85 -0.37,-4.08 0.39,-0.49 0.79,-0.85 1.37,-0.84 0.37,0.00 0.74,0.16 1.04,0.41 2.09,1.76 4.01,3.95 6.76,5.72 -0.01,-0.53 -0.02,-1.04 -0.02,-1.52 0.00,-0.73 -1.53,-7.92 -4.10,-11.31 -1.85,-0.46 -3.26,-0.74 -5.00,-0.52 z m 5.58,6.18 c 0.34,0.00 0.68,0.04 0.96,0.18 0.00,0.39 -0.02,0.81 -0.88,1.30 -0.36,-0.38 -0.90,-0.88 -1.45,-1.26 0.44,-0.11 0.92,-0.22 1.37,-0.23 z m -4.39,2.66 c -0.18,0.29 -0.31,0.94 -0.21,1.41 0.11,0.55 0.73,1.37 1.74,2.14 1.01,0.77 2.37,1.52 3.78,2.11 1.26,0.53 2.57,0.92 3.73,1.15 -4.03,-2.03 -6.44,-4.96 -8.80,-6.92 -0.12,-0.12 -0.19,0.00 -0.25,0.09 z m 4.77,7.04 c 0.04,1.90 -0.19,4.07 -1.38,4.85 -0.90,0.59 -2.69,0.11 -3.11,-0.88 -0.29,-0.70 1.26,-1.27 1.08,-2.01 -0.13,-0.59 -0.89,-1.16 -1.48,-1.04 -1.44,0.28 -2.83,2.33 -2.37,3.74 0.82,2.54 5.04,4.14 7.44,2.97 2.23,-1.07 2.84,-3.78 2.98,-6.58 -1.02,-0.25 -2.10,-0.61 -3.15,-1.04 z m -16.26,4.25 a 10.49,10.49 0 0 1 -0.81,0.34 l -0.70,6.29 c 0.09,0.71 1.27,1.02 2.46,1.04 z m -8.15,0.36 c -0.11,0.86 -0.18,1.76 -0.25,2.50 -0.12,1.64 -0.20,3.36 -0.20,4.17 1.53,0.96 4.43,0.37 4.30,-0.16 -0.05,-2.20 -0.48,-4.04 -1.02,-5.97 -0.97,-0.10 -1.90,-0.31 -2.83,-0.54 z"
    />
</svg>