<svg
    xmlns="http://www.w3.org/2000/svg"
    width="60px"
    height="60px"
    viewbox="0 0 60 60"
>
    <rect
        x="0.5"
        y="0.5"
        width="59"
        height="59"
        rx="1"
        ry="1"
        style="fill:#202020;stroke-width:1px;stroke:#101010"
    />
    <path
        style="fill:#ffffff;stroke:none"
        d="M 28.70,12.08 C 14.01,11.93 4.80,17.50 4.11,21.81 3.76,26.59 3.62,31.51 3.64,36.26 l 0.50,0.44 c 0.46,-1.78 0.75,-3.69 1.64,-5.11 0.15,3.15 0.59,6.79 1.32,9.52 -0.29,2.90 -0.25,5.57 -0.40,8.46 2.45,1.48 7.01,1.24 7.83,0.23 0.34,-2.40 0.58,-4.94 0.46,-7.95 l 0.88,-4.10 c 0.74,-1.69 2.93,-2.00 2.71,-3.69 l 2.07,-0.29 c 0.04,2.92 -1.67,3.14 -2.87,4.83 1.51,0.62 1.70,0.45 2.79,0.59 2.77,0.32 5.25,0.44 7.86,-0.95 l -0.36,-2.03 2.06,-0.36 0.36,2.01 c 0.49,1.63 1.39,12.11 2.15,12.57 1.56,0.74 6.24,0.74 6.43,-0.62 0.19,-5.31 0.45,-10.45 -0.59,-15.45 0.43,-0.48 0.85,-0.94 1.27,-1.40 -2.34,-1.18 -5.13,-3.00 -6.68,-4.85 -1.05,-2.00 -1.59,-4.49 -2.01,-6.52 -0.30,-1.50 -0.50,-3.02 -0.44,-4.35 0.03,-0.66 0.12,-1.28 0.35,-1.85 2.30,-2.34 6.56,-4.14 9.23,-5.39 -3.86,-0.84 -8.30,0.86 -11.50,2.07 z M 43.65,10.92 c -3.45,1.27 -8.37,2.57 -10.74,5.25 -0.09,0.23 -0.18,0.65 -0.20,1.16 -0.04,1.03 0.13,2.45 0.40,3.86 0.28,1.41 0.65,2.82 0.99,3.90 0.17,0.54 0.32,1.00 0.45,1.33 1.76,2.58 5.29,4.60 7.88,5.21 l 1.68,-3.33 c -1.34,-1.74 -1.60,-4.09 -0.53,-5.84 0.57,-0.71 1.13,-1.22 1.97,-1.21 0.53,0.01 1.07,0.23 1.49,0.59 3.00,2.52 5.74,5.65 9.67,8.19 -0.02,-0.77 -0.03,-1.50 -0.03,-2.18 0.00,-1.05 -2.19,-11.34 -5.87,-16.18 C 48.16,11.00 46.14,10.61 43.65,10.92 Z m 7.99,8.84 c 0.50,-0.01 0.98,0.07 1.38,0.27 0.01,0.57 -0.03,1.16 -1.26,1.87 -0.52,-0.55 -1.30,-1.26 -2.08,-1.81 0.63,-0.17 1.32,-0.32 1.96,-0.33 z m -6.29,3.81 c -0.26,0.42 -0.45,1.35 -0.31,2.03 0.16,0.79 1.05,1.96 2.50,3.07 1.45,1.11 3.39,2.18 5.42,3.03 1.81,0.76 3.68,1.33 5.34,1.65 -5.77,-2.91 -9.22,-7.10 -12.59,-9.90 -0.18,-0.18 -0.28,0.00 -0.36,0.13 z m 6.83,10.07 c 0.06,2.72 -0.28,5.83 -1.98,6.95 -1.29,0.85 -3.85,0.16 -4.45,-1.27 -0.42,-1.01 1.81,-1.82 1.55,-2.88 -0.20,-0.85 -1.28,-1.67 -2.13,-1.50 -2.07,0.41 -4.05,3.34 -3.40,5.36 1.18,3.64 7.21,5.93 10.65,4.26 3.19,-1.54 4.07,-5.42 4.27,-9.42 -1.47,-0.36 -3.01,-0.88 -4.51,-1.50 z m -23.27,6.09 a 15.01,15.01 0 0 1 -1.16,0.50 l -1.01,9.00 c 0.142,1.02 1.83,1.47 3.52,1.49 z m -11.67,0.52 c -0.16,1.24 -0.27,2.53 -0.36,3.59 -0.18,2.35 -0.29,4.82 -0.29,5.97 2.19,1.38 6.35,0.53 6.16,-0.23 -0.08,-3.16 -0.70,-5.78 -1.46,-8.55 -1.39,-0.15 -2.73,-0.45 -4.05,-0.78 z"
    />
</svg>