<svg
    xmlns="http://www.w3.org/2000/svg"
    width="60px"
    height="60px"
    viewbox="0 0 60 60"
>
    <rect
        x="0.5"
        y="0.5"
        width="59"
        height="59"
        rx="1"
        ry="1"
        style="fill:#808080;stroke-width:1px;stroke:#101010"
    />
    <path
        style="fill:#ffffff;stroke:none"
        d="m 54.51,2.96 c -1.10,5.59 -2.02,12.33 -3.62,18.38 -0.97,3.70 -2.20,7.14 -3.95,9.94 -1.51,2.41 -3.44,4.35 -5.91,5.41 1.40,3.03 5.05,5.55 8.93,6.28 0.41,-0.72 0.85,-1.60 1.29,-2.63 1.27,-2.94 2.56,-7.02 3.49,-11.62 1.62,-8.02 2.13,-17.65 -0.24,-25.76 z M 3.85,3.68 V 57.03 h 4.63 c 0.89,-1.05 1.57,-2.63 2.04,-5.39 4.26,0 6.49,-0.52 7.81,-1.28 -3.30,-2.98 -6.02,-6.89 -8.02,-11.86 1.36,1.76 3.01,3.45 4.92,5.03 5.04,7.82 12.59,11.47 22.08,12.44 0.06,-0.08 0.11,-0.15 0.20,-0.29 0.13,-0.21 0.28,-0.45 0.50,-0.71 0.21,-0.25 0.58,-0.65 1.27,-0.61 0.66,0.04 0.96,0.40 1.18,0.66 0.22,0.25 0.39,0.51 0.55,0.74 0.14,0.20 0.25,0.36 0.34,0.46 3.89,0.07 6.98,-0.39 8.94,-1.41 1.98,-1.04 2.91,-2.45 2.85,-4.95 -0.17,-1.74 -1.32,-3.24 -3.15,-4.70 -4.76,-0.73 -9.26,-3.64 -11.02,-7.74 -1.29,-0.15 -2.39,-0.97 -3.21,-1.97 -0.94,-1.16 -1.59,-2.62 -1.91,-4.02 -1.24,-2.78 -3.86,-7.32 -6.82,-11.14 -1.48,-1.92 -3.06,-3.66 -4.56,-4.91 -0.41,-0.34 -0.81,-0.64 -1.20,-0.89 L 19.56,15.30 C 18.52,13.24 18.06,10.82 17.59,8.73 17.26,7.22 16.87,5.90 16.47,5.07 c -2.20,1.69 -2.74,3.38 -2.68,5.16 0.07,1.98 1.08,4.13 2.02,6.00 l -1.88,0.94 c -0.15,-0.31 -0.32,-0.64 -0.48,-0.98 -1.29,1.55 -2.37,3.64 -3.09,5.95 -0.75,2.43 -1.08,5.10 -0.89,7.63 L 7.30,27.38 c 0.09,-1.99 0.46,-3.98 1.03,-5.85 0.85,-2.78 2.19,-5.30 3.92,-7.19 0.08,-0.08 0.16,-0.17 0.24,-0.26 C 12.07,12.90 11.73,11.64 11.68,10.31 11.67,9.93 11.68,9.56 11.72,9.18 9.25,6.84 6.70,4.77 3.85,3.68 Z M 24.53,6.24 c -0.40,0.83 -0.78,2.14 -1.12,3.65 -0.20,0.93 -0.42,1.92 -0.68,2.92 0.38,0.26 0.76,0.56 1.13,0.87 0.71,0.59 1.42,1.27 2.12,2.00 0.63,-1.41 1.16,-2.89 1.22,-4.31 C 27.27,9.63 26.73,7.93 24.53,6.24 Z M 42.94,22.98 c -0.64,1.77 -1.39,3.66 -2.53,5.37 -0.89,1.34 -2.02,2.53 -3.51,3.26 -0.20,0.10 -0.42,0.19 -0.64,0.26 0.29,0.79 0.71,1.58 1.20,2.18 0.14,0.18 0.29,0.34 0.44,0.48 l 0.51,0.41 c 0.15,0.10 0.31,0.17 0.46,0.23 l 0.37,-0.10 c 1.34,-0.39 2.51,-1.09 3.56,-2.05 0.12,-0.41 0.24,-0.85 0.33,-1.31 0.52,-2.42 0.62,-5.40 -0.21,-8.74 z M 28.26,36.88 c 0.71,0.01 1.42,0.17 2.08,0.40 1.50,0.53 2.85,1.44 3.92,2.25 l -1.27,1.67 c -0.09,-0.07 -0.18,-0.14 -0.28,-0.21 -0.26,0.78 -1.01,1.36 -1.88,1.36 -1.08,0.00 -1.99,-0.90 -1.99,-1.99 0.00,-0.46 0.16,-0.88 0.43,-1.23 -0.97,-0.28 -1.80,-0.25 -2.55,0.23 L 25.55,37.63 c 0.75,-0.49 1.58,-0.71 2.40,-0.74 0.10,-0.00 0.20,0.00 0.30,0.00 z m 19.98,11.79 c 0.17,0.00 0.34,0.01 0.52,0.03 l -0.26,2.09 c -1.07,-0.13 -1.87,0.29 -2.78,1.47 l -1.66,-1.29 c 1.03,-1.33 2.42,-2.25 4.02,-2.30 0.05,0.00 0.11,0.00 0.17,0.00 z"
    />
</svg>