<svg
    xmlns="http://www.w3.org/2000/svg"
    width="70px"
    height="70px"
    viewbox="0 0 70 70"
>
    <rect
        x="0.5"
        y="0.5"
        width="69"
        height="69"
        rx="1"
        ry="1"
        style="fill:#ffdd00;stroke-width:1px;stroke:#101010"
    />
    <g id="leopard">
        <path
            style="fill:#000000;stroke:none"
            d="m 4.9,24.6 v -3.8 c 0,-2.2 0.9,-4.4 2.5,-6.0 1.6,-1.6 3.7,-2.5 6.0,-2.5 H 31.2 c 1.0,0 1.9,0.5 2.4,1.4 0.5,0.9 0.5,1.9 0,2.8 -0.5,0.9 -1.4,1.4 -2.4,1.4 H 13.4 c -0.7,0 -1.5,0.3 -2.0,0.8 -0.5,0.5 -0.8,1.2 -0.8,2.0 v 3.8 c 0,1.0 0.5,1.9 1.3,2.4 2.1,-2.7 5.6,-4.3 10.0,-4.3 6.1,0 17.4,1.5 19.5,1.8 0.8,-0.5 3.1,-1.8 4.9,-1.8 1.8,0 4.2,1.4 5.0,1.9 h 2.6 c 0.3,-1.6 1.4,-2.8 2.7,-2.8 0.5,0 1.0,0.2 1.4,0.5 0.4,-0.3 0.9,-0.5 1.4,-0.5 1.6,0 2.8,1.7 2.8,3.8 0,0.7 -0.1,1.4 -0.4,2.0 l 1.1,1.1 c 0.2,0.2 0.3,0.4 0.3,0.7 v 1.6 l 1.7,2.6 v 0 c 0.2,0.3 0.2,0.6 0.1,0.9 l -1.9,4.7 c -0.1,0.2 -0.3,0.4 -0.5,0.5 -0.2,0.1 -0.5,0.1 -0.8,0 l -5.4,-2.7 H 52.4 c -0.8,0.9 -1.7,1.7 -2.7,2.4 -0.2,0.1 -0.5,0.2 -0.7,0.1 -0.2,0 -0.5,-0.2 -0.6,-0.4 -0.1,-0.2 -0.2,-0.5 -0.1,-0.7 0,-0.2 0.2,-0.5 0.4,-0.6 1.0,-0.6 1.9,-1.4 2.6,-2.3 0.2,-0.2 0.4,-0.4 0.7,-0.4 h 2.4 c -0.9,-1.1 -1.4,-2.4 -1.4,-3.8 0,-0.5 0.4,-0.9 0.9,-0.9 0.5,0 0.9,0.4 0.9,0.9 0,2.1 2.1,3.7 2.4,3.9 l 4.7,2.3 1.3,-3.3 -1.6,-2.4 C 61.4,31.6 61.3,31.4 61.3,31.2 V 29.7 L 59.1,27.5 c -0.2,0.5 -0.5,1.0 -0.9,1.3 -0.4,0.3 -1.0,0.5 -1.5,0.6 -1.3,0 -2.4,-1.2 -2.7,-2.8 h -2.9 c -0.2,0 -0.4,-0.1 -0.5,-0.2 -0.7,-0.5 -2.9,-1.7 -4.2,-1.7 -1.3,0 -3.5,1.2 -4.2,1.7 -0.2,0.1 -0.4,0.2 -0.7,0.1 -0.1,0 -13.2,-1.9 -19.6,-1.9 -6.4,0 -10.4,3.6 -10.4,9.4 0,0 0,0.1 0,0.1 l -0.9,8.5 c 0,0.2 -0.1,0.3 -0.2,0.5 L 6.8,47.6 v 8.1 h 3.6 C 10.3,54.9 9.9,54.2 9.2,53.7 8.9,53.6 8.7,53.2 8.7,52.9 v -3.8 c 0,-0.2 0.1,-0.5 0.3,-0.7 l 8.4,-8.4 c 1.0,-1.8 1.2,-3.8 0.7,-5.8 -0.1,-0.5 0.2,-1.0 0.7,-1.1 0.5,-0.1 1.0,0.2 1.1,0.7 0.6,2.5 0.2,5.1 -1.1,7.3 0,0.1 -0.1,0.1 -0.1,0.1 l -8.2,8.2 v 2.9 c 1.9,1.4 1.9,4.2 1.9,4.3 0,0.2 -0.1,0.5 -0.3,0.7 -0.2,0.2 -0.4,0.3 -0.7,0.3 H 5.8 c -0.2,0 -0.5,-0.1 -0.7,-0.3 C 5.0,57.1 4.9,56.9 4.9,56.6 v -9.4 c 0,-0.2 0.1,-0.4 0.2,-0.6 l 3.6,-4.5 0.9,-8.1 c 0,-0.6 0,-1.2 0.1,-1.7 C 8.3,31.6 7.1,30.5 6.2,29.2 5.3,27.8 4.9,26.2 4.9,24.6 Z m 55.5,0.9 c 0,-1.1 -0.6,-1.9 -0.9,-1.9 -0.1,0 -0.2,0.1 -0.3,0.1 0.2,0.4 0.3,0.9 0.3,1.3 l 0.9,0.9 v 0 c 0,-0.2 0,-0.3 0,-0.5 z m -3.8,1.9 c 0.4,0 0.9,-0.7 0.9,-1.9 0,-1.1 -0.6,-1.9 -0.9,-1.9 -0.4,0 -0.9,0.7 -0.9,1.9 0,1.1 0.6,1.9 0.9,1.9 z m -46.5,2.9 c 0.2,-0.6 0.4,-1.2 0.7,-1.8 C 9.5,27.8 8.7,26.3 8.7,24.6 v -3.8 c 0,-1.2 0.5,-2.4 1.4,-3.3 0.9,-0.9 2.1,-1.4 3.3,-1.4 h 17.9 c 0.5,0 0.9,-0.4 0.9,-0.9 0,-0.5 -0.4,-0.9 -0.9,-0.9 H 13.4 c -1.7,0 -3.4,0.7 -4.7,1.9 -1.2,1.2 -1.9,2.9 -1.9,4.7 v 3.8 c 0,1.2 0.3,2.3 0.9,3.3 0.6,1.0 1.4,1.8 2.5,2.4 z"
        />
        <path
            style="fill:#000000;stroke:none"
            d="m 12.4,49.1 c 0,-0.2 0.1,-0.5 0.3,-0.7 l 5.6,-5.6 c 0.2,-0.2 0.4,-0.3 0.7,-0.3 0.3,0 0.5,0.1 0.7,0.3 0.2,0.2 0.3,0.4 0.3,0.7 0,0.3 -0.1,0.5 -0.3,0.7 l -5.4,5.4 v 2.9 c 1.9,1.4 1.9,4.2 1.9,4.3 v 0 c 0,0.5 -0.4,0.9 -0.9,0.9 h 0 c -0.5,0 -0.9,-0.4 -0.9,-0.9 0,0 -0.1,-2.2 -1.3,-2.9 -0.3,-0.2 -0.5,-0.5 -0.6,-0.9 z"
        />
        <path
            style="fill:#000000;stroke:none"
            d="m 46.3,52.9 v -9.4 c 0,-0.4 0.2,-0.7 0.5,-0.8 0.7,-0.3 1.2,-0.9 1.6,-1.5 0.3,-0.4 0.8,-0.6 1.3,-0.3 0.4,0.3 0.6,0.8 0.3,1.3 -0.5,0.8 -1.1,1.5 -1.9,2.0 v 8.3 0 c 0.8,0.4 1.5,1.0 2.0,1.8 0.5,0.8 0.8,1.7 0.8,2.6 0,0.5 -0.4,0.9 -0.9,0.9 -0.5,0 -0.9,-0.4 -0.9,-0.9 0,-0.6 -0.3,-1.3 -0.7,-1.8 -0.4,-0.5 -0.9,-0.9 -1.5,-1.1 -0.4,-0.1 -0.6,-0.5 -0.6,-0.9 z"
        />
        <path
            style="fill:#000000;stroke:none"
            d="m 21.1,40.3 c 4.0,0.8 8.0,1.2 12.1,1.3 0.9,0 1.8,0 2.8,-0.1 0.5,0 1.0,0.3 1.0,0.9 0,0.5 -0.3,1.0 -0.9,1.0 -1.0,0.1 -1.9,0.1 -2.9,0.1 -4.2,-0.1 -8.3,-0.5 -12.4,-1.3 -0.5,-0.1 -0.9,-0.6 -0.8,-1.1 0.1,-0.5 0.6,-0.9 1.1,-0.8 z"
        />
        <path
            style="fill:#000000;stroke:none"
            d="m 38.7,37.8 c 0.5,0 1.0,0.4 1.0,0.9 l 0.9,17.0 h 4.6 C 44.8,54.8 44.1,54.1 43.2,53.8 42.8,53.6 42.5,53.3 42.5,52.9 v -9.4 c 0,-0.4 0.2,-0.7 0.5,-0.8 3.1,-1.5 2.3,-6.5 2.3,-6.5 h 0 c -0.1,-0.5 0.3,-1.0 0.8,-1.1 0.5,-0.1 1.0,0.3 1.1,0.8 0,0.2 0.9,5.9 -2.8,8.2 v 8.3 0 c 0.8,0.4 1.5,1.0 2.0,1.8 0.5,0.8 0.8,1.7 0.8,2.6 0,0.2 -0.1,0.5 -0.3,0.7 -0.2,0.2 -0.4,0.3 -0.7,0.3 h -6.6 c -0.5,0 -0.9,-0.4 -0.9,-0.9 L 37.8,38.8 c 0,-0.5 0.4,-1.0 0.9,-1.0 z"
        />
        <path
            style="fill:#000000;stroke:none"
            d="m 59.5,30.3 h -1.9 v 1.9 h 1.9 z"
        />
        <path
            style="fill:#000000;stroke:none"
            d="m 42.5,41.6 h -0.9 c -0.5,0 -0.9,-0.4 -0.9,-0.9 0,-0.5 0.4,-0.9 0.9,-0.9 h 0.9 c 0.5,0 0.9,0.4 0.9,0.9 0,0.5 -0.4,0.9 -0.9,0.9 z"
        />
        <path
            style="fill:#000000;stroke:none"
            d="m 13.4,36.9 h 1.9 c 0.5,0 0.9,0.4 0.9,0.9 0,0.5 -0.4,0.9 -0.9,0.9 h -1.9 c -0.5,0 -0.9,-0.4 -0.9,-0.9 0,-0.5 0.4,-0.9 0.9,-0.9 z"
        />
        <path
            style="fill:#000000;stroke:none"
            d="m 14.3,41.6 c 0,0.2 -0.1,0.5 -0.3,0.7 -0.2,0.2 -0.4,0.3 -0.7,0.3 h -0.9 c -0.5,0 -0.9,-0.4 -0.9,-0.9 0,-0.53 0.4,-0.9 0.9,-0.9 h 0.9 c 0.2,0 0.5,0.1 0.7,0.3 0.2,0.2 0.3,0.4 0.3,0.7 z"
        />
        <path
            style="fill:#000000;stroke:none"
            d="m 47.2,28.4 c 0,-0.2 0.1,-0.5 0.3,-0.7 0.2,-0.2 0.4,-0.3 0.7,-0.3 h 1.9 c 0.5,0 0.9,0.4 0.9,0.9 0,0.5 -0.4,0.9 -0.9,0.9 h -1.9 c -0.2,0 -0.5,-0.1 -0.7,-0.3 -0.2,-0.2 -0.3,-0.4 -0.3,-0.7 z"
        />
        <path
            style="fill:#000000;stroke:none"
            d="m 22.8,27.5 h 1.9 c 0.5,0 0.9,0.4 0.9,0.9 0,0.5 -0.4,0.9 -0.9,0.9 h -1.9 c -0.5,0 -0.9,-0.4 -0.9,-0.9 0,-0.5 0.4,-0.9 0.9,-0.9 z"
        />
        <path
            style="fill:#000000;stroke:none"
            d="m 24.6,34.1 c 0,0.2 -0.1,0.5 -0.3,0.7 -0.2,0.2 -0.4,0.3 -0.7,0.3 h -1.9 c -0.5,0 -0.9,-0.4 -0.9,-0.9 0,-0.5 0.4,-0.9 0.9,-0.9 h 1.9 c 0.2,0 0.5,0.1 0.7,0.3 0.2,0.2 0.3,0.4 0.3,0.7 z"
        />
        <path
            style="fill:#000000;stroke:none"
            d="m 33.1,35.9 h 1.9 c 0.5,0 0.9,0.4 0.9,0.9 0,0.5 -0.4,0.9 -0.9,0.9 h -1.9 c -0.5,0 -0.9,-0.4 -0.9,-0.9 0,-0.5 0.4,-0.9 0.9,-0.9 z"
        />
        <path
            style="fill:#000000;stroke:none"
            d="m 42.5,30.3 h -1.9 c -0.5,0 -0.9,-0.4 -0.9,-0.9 0,-0.5 0.4,-0.9 0.9,-0.9 h 1.9 c 0.5,0 0.9,0.4 0.9,0.9 0,0.5 -0.4,0.9 -0.9,0.9 z"
        />
        <path
            style="fill:#000000;stroke:none"
            d="m 35.0,33.1 c 0,-0.2 0.1,-0.5 0.3,-0.7 0.2,-0.2 0.4,-0.3 0.7,-0.3 h 1.9 c 0.5,0 0.9,0.4 0.9,0.9 0,0.5 -0.4,0.9 -0.9,0.9 h -1.9 c -0.2,0 -0.5,-0.1 -0.7,-0.3 -0.2,-0.2 -0.3,-0.4 -0.3,-0.7 z"
        />
        <path
            style="fill:#000000;stroke:none"
            d="m 16.2,29.4 h 1.9 c 0.5,0 0.9,0.4 0.9,0.9 0,0.5 -0.4,0.9 -0.9,0.9 h -1.9 c -0.5,0 -0.9,-0.4 -0.9,-0.9 0,-0.5 0.4,-0.9 0.9,-0.9 z"
        />
        <path
            style="fill:#000000;stroke:none"
            d="m 29.4,33.1 h -1.9 c -0.5,0 -0.9,-0.4 -0.9,-0.9 0,-0.5 0.4,-0.9 0.9,-0.9 H 29.4 c 0.5,0 0.9,0.4 0.9,0.9 0,0.5 -0.4,0.9 -0.9,0.9 z"
        />
        <path
            style="fill:#000000;stroke:none"
            d="m 47.2,33.1 h -1.9 c -0.5,0 -0.9,-0.4 -0.9,-0.9 0,-0.5 0.4,-0.9 0.9,-0.9 h 1.9 c 0.5,0 0.9,0.4 0.9,0.9 0,0.5 -0.4,0.9 -0.9,0.9 z"
        />
        <path
            style="fill:#000000;stroke:none"
            d="m 33.1,27.5 h 1.9 c 0.5,0 0.9,0.4 0.9,0.9 0,0.5 -0.4,0.9 -0.9,0.9 h -1.9 c -0.5,0 -0.9,-0.4 -0.9,-0.9 0,-0.5 0.4,-0.9 0.9,-0.9 z"
        />
        <path
            style="fill:#000000;stroke:none"
            d="m 29.4,39.7 h -1.9 c -0.5,0 -0.9,-0.4 -0.9,-0.9 0,-0.5 0.4,-0.9 0.9,-0.9 H 29.4 c 0.5,0 0.9,0.4 0.9,0.9 0,0.5 -0.4,0.9 -0.9,0.9 z"
        />
    </g>
</svg>
