<svg
    xmlns="http://www.w3.org/2000/svg"
    width="60px"
    height="60px"
    viewbox="0 0 60 60"
>
    <rect
        x="0.5"
        y="0.5"
        width="59"
        height="59"
        rx="1"
        ry="1"
        style="fill:#ff5000;stroke-width:1px;stroke:#101010"
    />
    <path
        style="fill:#ffffff;stroke:none"
        d="m 15.21,3.10 c -1.21,0.05 -2.50,0.37 -3.78,0.63 l 7.33,7.70 -2.54,0.02 c -3.45,0.02 -8.88,0.72 -12.15,2.62 l 3.72,6.05 -4.76,2.47 v 6.64 l 5.46,3.09 -5.46,4.70 v 3.78 c 3.31,-0.14 7.11,0.07 10.45,-1.04 l 3.74,-1.25 -2.56,3.00 C 12.47,44.09 11.18,47.97 8.72,51.79 12.46,51.51 16.15,50.90 20.07,48.77 l 1.88,-1.02 -1.14,9.05 c 3.09,-1.43 6.11,-3.39 8.35,-5.75 2.66,-2.81 4.19,-5.92 3.91,-8.53 l -0.01,-0.09 c -2.17,-1.49 -3.78,-3.66 -4.60,-6.35 -0.99,-3.26 -0.69,-7.31 0.78,-11.86 -3.10,-0.47 -5.46,-1.72 -6.72,-3.53 -1.45,-2.08 -1.67,-4.60 -0.91,-6.69 0.76,-2.08 2.61,-3.77 5.09,-3.92 2.41,-0.14 5.22,1.18 8.21,4.23 1.33,0.48 2.55,0.94 3.65,1.40 0.29,-2.51 -0.17,-4.46 -1.22,-6.20 C 36.36,7.86 34.62,6.40 32.52,4.97 L 33.02,10.01 31.10,8.72 C 26.76,5.82 20.49,2.87 15.21,3.12 l 0.00,-0.03 z m 11.77,9.15 c -0.05,0.00 -0.10,0 -0.15,0.00 h 0.00 c -1.59,0.09 -2.64,1.07 -3.16,2.48 -0.52,1.41 -0.38,3.21 0.65,4.68 1.03,1.48 2.95,2.72 6.28,2.91 l 1.48,0.08 -0.51,1.39 c -1.74,4.75 -1.91,8.67 -1.01,11.64 0.90,2.96 2.82,5.02 5.55,6.16 h 0.00 l 12.74,4.51 C 49.51,44.71 50.22,43.31 50.96,41.91 50.37,42.17 49.72,42.31 49.04,42.31 c -2.64,0.00 -4.78,-2.14 -4.78,-4.78 0.00,-2.64 2.14,-4.78 4.78,-4.78 2.42,0.00 4.42,1.80 4.74,4.14 1.25,-2.12 2.57,-4.22 3.93,-6.30 L 45.60,24.45 45.04,23.78 c -0.46,-1.59 -1.35,-2.74 -3.10,-3.91 -1.74,-1.17 -4.34,-2.30 -7.95,-3.59 l -0.24,-0.09 -0.18,-0.19 c -2.73,-2.88 -5.01,-3.79 -6.59,-3.76 z m 13.96,10.55 c 0.97,0 1.72,0.75 1.72,1.72 0,0.97 -0.75,1.72 -1.72,1.72 -0.97,0.00 -1.72,-0.75 -1.72,-1.72 0.00,-0.97 0.75,-1.72 1.72,-1.72 z"
    />
</svg>