<svg
    xmlns="http://www.w3.org/2000/svg"
    width="70px"
    height="70px"
    viewbox="0 0 70 70"
>
    <rect
        x="0.5"
        y="0.5"
        width="69"
        height="69"
        rx="1"
        ry="1"
        style="fill:#eeeeee;stroke-width:1px;stroke:#101010"
    />
    <g id="zebra">
        <path
            style="fill:#000000;stroke:none"
            d="m 8.1,48.6 c 0.6,0.3 1.3,0.1 1.6,-0.5 0.8,-1.2 0.2,-5.2 -0.3,-7.7 h 0 c 0.1,-1.8 0.3,-3.6 0.8,-5.3 0.1,-0.2 0.2,-0.4 0.3,-0.6 1.2,3.4 1.9,6.4 1.6,7.0 -0.7,0.9 -1.0,2.0 -0.9,3.1 v 0.1 c 0,0 0,0 0,0.1 0.2,1.3 0.5,2.6 1.0,3.8 0.5,1.0 0.5,2.2 0.1,3.2 -0.2,0.7 -0.4,1.3 -0.4,2.0 0,1.4 0.4,2.8 1.3,3.9 0.2,0.2 0.5,0.4 0.8,0.4 h 4.4 c 0.5,0 1.0,-0.4 1.0,-0.9 v -0.2 h 2.9 c 0.2,0 0.3,0 0.4,-0.1 0.4,-0.2 0.7,-0.6 0.7,-1.0 0.2,-1.4 -1.7,-3.5 -2.4,-4.1 -0.3,-0.4 0.1,-3.0 1.9,-5.3 1.1,-1.7 1.8,-3.6 2.1,-5.6 0.6,0.2 1.3,0.4 1.9,0.5 h 0 c 1.4,0.2 2.8,0.4 4.1,0.3 h 0.1 c 1.1,0 2.2,-0.1 3.3,-0.2 0.7,2.6 1.1,5.2 1.3,7.9 0,2.1 -0.2,4.2 -0.7,6.3 -0.1,0.3 0,0.6 0.2,0.9 0.2,0.2 0.5,0.4 0.8,0.4 h 2.1 c 0,0.2 0.1,0.5 0.2,0.7 0.2,0.2 0.5,0.4 0.8,0.4 h 4.5 c 0.5,0 0.9,-0.3 1.0,-0.8 0.4,-1.9 0,-3.5 -1.1,-4.8 h 0 c -0.1,-0.4 -0.1,-0.7 0,-1.1 l 1.7,-10.2 c 0.4,-0.1 1.0,-0.4 1.9,-0.8 h 0 c 0.6,-0.3 1.1,-0.7 1.5,-1.2 0,0 0,0 0,-0.1 0.6,-0.9 1.0,-1.8 1.4,-2.8 0.3,-1.0 0.8,-2.0 1.3,-2.9 0.9,-1.6 1.6,-3.4 2.0,-5.3 0.9,0.3 1.9,0.3 2.7,-0.1 0.7,0.8 1.7,1.5 2.7,1.9 0.8,0.3 1.7,0.2 2.3,-0.3 1.3,-0.9 1.7,-2.9 1.7,-4.5 0,-1.4 -1.1,-2.6 -2.2,-3.7 -0.9,-0.9 -1.8,-1.8 -1.9,-2.7 v 0 c -0.1,-1.0 -0.6,-1.9 -1.4,-2.5 v -2.4 c 0,-0.3 -0.2,-0.7 -0.5,-0.9 -0.3,-0.2 -0.7,-0.2 -1.0,-0.1 l -0.3,0.1 c -0.1,-0.3 -0.4,-0.5 -0.7,-0.6 -0.5,-0.1 -1.0,0.1 -1.1,0.6 0,0 -0.1,0.1 -0.2,0.4 -1.2,-0.4 -3.5,-0.3 -7.4,2.1 -3.9,2.4 -6.8,7.9 -7.5,9.5 -1.5,0.7 -3.0,1.1 -4.6,1.4 -3.1,0.4 -5.5,-0.5 -8.1,-1.5 -2.4,-0.9 -4.8,-1.8 -7.8,-1.7 l 0,0 c -1.8,0 -3.5,0.6 -4.9,1.8 -0.1,0.1 -0.2,0.1 -0.3,0.2 -1.4,1.3 -2.4,3.1 -2.8,5.0 C 10.0,30.4 9.1,32.3 8.3,34.3 7.8,36.1 7.5,38.0 7.4,39.9 7.3,40.0 7.3,40.2 7.3,40.4 7.3,40.9 7.3,41.3 7.3,41.7 6.8,47.9 7.5,48.3 8.1,48.6 Z M 14.1,26.7 c 4.9,1.6 7.4,2.9 7.8,5.9 0,0.1 0,0.1 0,0.2 0.2,0.7 0.2,1.4 -0.1,2.0 -2.4,-2.4 -5.5,-4.0 -9.5,-4.8 0.3,-1.2 0.9,-2.4 1.8,-3.3 z m -0.5,16.1 c 0.4,-0.4 0.7,-1.4 0.3,-3.8 2.1,0.1 3.7,1.1 5.0,3.1 v 0 c -0.2,0.5 -0.5,0.9 -0.7,1.4 -0.1,0.2 -0.2,0.4 -0.3,0.6 h 0 c -1.5,-0.5 -3.0,-0.7 -4.5,-0.6 0.1,-0.2 0.2,-0.4 0.3,-0.6 z m 0.5,4.9 v 0 c -0.3,-0.7 -0.5,-1.5 -0.8,-2.3 1.2,-0.1 2.4,0.1 3.6,0.4 -0.3,0.8 -0.5,1.7 -0.7,2.5 -0.6,-0.2 -1.3,-0.2 -1.9,0 -0.1,-0.2 -0.1,-0.4 -0.2,-0.7 z m 6.4,-11.4 v 0 l 0,0 c 0,0.1 -0.1,0.1 -0.1,0.2 0,0.1 -0.1,0.2 -0.1,0.3 -0.1,1.0 -0.3,1.9 -0.6,2.9 -1.5,-1.9 -3.9,-3.0 -6.3,-2.9 -0.5,-1.7 -1.0,-3.3 -1.7,-5.0 3.8,0.8 6.7,2.2 8.8,4.5 z m -6.0,19.5 c -0.3,-0.7 -0.5,-1.4 -0.5,-2.2 0,-0.5 0.1,-1.0 0.3,-1.5 0.2,-0.6 0.3,-1.2 0.3,-1.8 0.4,-0.1 0.9,-0.1 1.3,0 -0.1,1.0 -0.2,1.6 -0.2,1.7 0,0.2 0.1,0.5 0.3,0.7 0.8,0.8 1.3,1.9 1.4,3.0 z m 6.9,-10.8 c -1.8,2.4 -3.3,6.5 -1.6,8.0 v 0 c 0.5,0.5 1.0,1.0 1.4,1.7 h -1.9 c -0.3,-1.1 -0.8,-2.1 -1.5,-3.0 0.1,-1.2 0.5,-4.8 2.0,-7.3 1.0,-1.7 1.7,-3.5 2.2,-5.4 0.4,0.3 0.8,0.6 1.2,0.8 -0.2,1.2 -0.6,3.6 -1.8,5.2 z m 9.3,-17.0 c 0.9,3.8 0.9,7.7 -0.2,11.4 -0.7,0 -1.4,-0.1 -2.0,-0.1 0.7,-3.7 0.2,-7.7 -1.3,-12.2 1.1,0.4 2.3,0.7 3.5,0.9 z m 20.5,-0.2 c -0.2,0.9 -0.5,1.7 -0.9,2.6 -1.1,-0.9 -2.6,-2.3 -2.6,-3.7 0,-1.6 -0.3,-3.2 -0.9,-4.8 0.9,-0.7 1.7,-1.4 2.4,-2.0 h 0 c -0.2,2.8 0.5,5.6 2.0,7.9 z M 45.1,23.3 c 0.4,1.1 0.6,2.3 0.6,3.5 0,2.5 2.4,4.6 3.7,5.6 -0.5,1.0 -1.0,1.9 -1.4,3.0 -0.2,0.6 -0.5,1.2 -0.7,1.7 -0.8,-0.6 -2.1,-2.0 -2.5,-5.4 -0.4,-3.6 -1.3,-5.6 -2.0,-6.7 0.8,-0.5 1.6,-1.0 2.3,-1.5 z m -4.1,2.6 c 0.5,0.7 1.4,2.5 1.8,5.9 0.4,3.8 2.0,5.7 3.2,6.7 -0.7,0.3 -1.2,0.5 -1.5,0.6 -1.0,-0.8 -1.7,-2.4 -2.2,-4.6 h 0 c -0.1,-0.5 -0.5,-0.8 -1.0,-0.8 -0.5,0.0 -0.9,0.4 -1.0,0.9 -0.2,1.3 -1.0,2.7 -2.4,4.1 -0.4,0.1 -0.7,0.1 -1.1,0.2 2.2,-4.2 2.9,-8.3 2.3,-12.1 0.7,-0.3 1.3,-0.6 1.9,-0.9 z m 1.9,16.4 h 0 c -0.6,-0.4 -1.2,-0.6 -1.9,-0.6 -0.4,0 -0.8,0.2 -1.2,0.4 -0.1,-0.9 -0.3,-1.7 -0.3,-2.2 h 0 c 0.6,-0.7 1.2,-1.4 1.7,-2.2 0.4,1.1 1.1,2.1 2.0,2.9 z m -2.7,2.3 c 0.4,-0.5 0.7,-0.8 1.0,-0.8 0.3,0 0.8,0.3 1.4,0.9 l -0.5,3.2 h 0 c -0.5,-0.1 -1.0,-0.1 -1.4,0 -0.1,-1.1 -0.3,-2.2 -0.4,-3.2 z m -2.3,4.5 0,0 c -0.2,-2.8 -0.6,-5.5 -1.3,-8.2 l 1.0,-0.2 c 0.4,2.5 1.3,8.7 1.3,10.6 0,1.1 -0.1,2.3 -0.3,3.4 h -1.2 c 0.3,-1.8 0.5,-3.7 0.5,-5.6 z m 4.9,6.7 h -2.3 c 0.3,-1.5 0.4,-2.9 0.4,-4.4 0,-0.4 0,-0.9 -0.1,-1.5 0.3,-0.2 0.6,-0.2 0.9,0 l -0.2,1.0 c -0.1,0.7 -0.1,1.5 0.1,2.2 0,0.2 0.2,0.4 0.3,0.5 0.6,0.6 0.9,1.4 0.8,2.2 z M 59.9,27.7 c -0.1,0.1 -0.3,0.1 -0.5,0 -0.7,-0.3 -1.3,-0.7 -1.8,-1.2 l 2.4,-3.0 c 0.4,0.4 0.7,0.9 0.9,1.4 0,1.4 -0.5,2.5 -0.9,2.8 z m -1.4,-5.7 -2.9,3.7 c -1.3,0.7 -1.8,0.3 -2.1,-0.2 l 0,0 c -0.2,-0.3 -0.6,-0.5 -1.0,-0.4 -0.1,0 -0.3,0.1 -0.4,0.2 -0.9,-2.3 -1.1,-4.7 -0.7,-7.1 0.2,-0.1 0.3,-0.2 0.5,-0.3 0.7,-0.4 1.4,-0.9 1.9,-1.4 0.1,0.4 0.5,0.7 0.9,0.7 0.4,0 0.7,0.1 1.1,0.3 0,0 0.1,0 0.1,0.1 0.5,0.3 0.8,0.7 0.9,1.3 0.2,1.2 0.9,2.4 1.8,3.2 z M 47.3,17.0 c 2.4,-1.4 4.0,-1.9 5.0,-2.0 h 0 c -0.4,0.4 -0.8,0.7 -1.3,1.0 -0.4,0.2 -0.8,0.5 -1.1,0.8 -0.5,0.4 -1.0,0.9 -1.7,1.4 -1.9,1.7 -4.0,3.3 -6.2,4.8 1.2,-2.0 3.0,-4.6 5.3,-5.9 z M 34.4,28.1 c 0.9,-0.1 1.9,-0.3 2.8,-0.6 0.5,3.7 -0.5,7.7 -2.9,11.8 -0.6,0.1 -1.2,0.1 -1.7,0.2 1.0,-3.7 1.1,-7.5 0.2,-11.2 0.5,0 1.0,0 1.5,-0.1 z M 18.2,24.9 c 2.4,-0.1 4.4,0.6 6.5,1.4 1.8,4.8 2.4,8.9 1.7,12.7 -1.4,-0.3 -2.7,-1.0 -3.7,-1.9 0,0 0,0 0,-0.1 1.2,-1.3 1.6,-3.1 1.1,-4.8 -0.6,-3.8 -3.7,-5.5 -7.6,-6.9 0.6,-0.2 1.3,-0.3 1.9,-0.3 z"
        />
        <path
            style="fill:#000000;stroke:none"
            d="m 55.1,19.0 c -0.5,0 -1.0,0.3 -1.2,0.8 -0.2,0.5 -0.1,1.0 0.3,1.4 0.4,0.4 0.9,0.5 1.4,0.3 0.5,-0.2 0.8,-0.7 0.8,-1.2 0,-0.7 -0.6,-1.3 -1.3,-1.3 z"
        />
    </g>
</svg>
