<svg
    xmlns="http://www.w3.org/2000/svg"
    width="60px"
    height="60px"
    viewbox="0 0 60 60"
>
    <rect
        x="0.5"
        y="0.5"
        width="59"
        height="59"
        rx="1"
        ry="1"
        style="fill:#ffdd00;stroke-width:1px;stroke:#101010"
    />
    <path
        style="fill:#000000;stroke:none"
        d="m 13.30,8.13 c -0.48,0.00 -0.95,0.06 -1.41,0.20 -1.66,0.50 -2.83,1.19 -3.71,2.36 -0.87,1.17 -1.50,2.94 -1.77,5.68 -0.07,0.76 0.23,2.10 0.88,3.54 0.65,1.44 1.62,3.00 2.72,4.39 l 0.28,0.35 -0.07,0.45 c -0.35,2.06 -0.41,5.79 -0.02,7.86 0.09,0.50 0.65,1.65 1.55,3.00 0.89,1.34 2.10,2.95 3.43,4.68 2.65,3.45 5.79,7.40 7.98,11.04 0.00,0.00 0.03,0.06 0.24,0.10 0.20,0.04 0.52,0.03 0.81,-0.04 0.27,-0.06 0.51,-0.20 0.61,-0.28 C 23.70,46.68 22.99,41.89 20.55,37.20 l -1.15,-2.21 2.38,0.75 c 2.47,0.78 5.57,1.01 8.39,0.88 2.82,-0.13 5.40,-0.64 6.73,-1.18 l 0.64,-0.26 0.48,0.50 c 4.94,5.15 8.39,11.21 12.88,16.11 0.01,0.01 -0.01,0.01 0.10,0.01 0.12,0.00 0.34,-0.08 0.53,-0.21 0.19,-0.13 0.35,-0.32 0.42,-0.48 0.07,-0.15 0.07,-0.23 0.03,-0.36 -2.33,-6.34 -3.49,-12.56 -7.07,-18.55 l -0.24,-0.40 0.14,-0.44 c 0.78,-2.39 2.04,-4.89 4.90,-6.89 l 0.51,-0.36 0.55,0.29 c 1.31,0.70 2.18,0.67 2.93,0.22 1.50,-0.90 2.76,-2.73 3.27,-4.32 L 55.35,19.33 55.24,18.91 c -0.46,-1.82 -0.94,-2.91 -1.67,-3.74 -0.72,-0.82 -1.78,-1.47 -3.54,-2.23 l -0.73,-0.31 0.12,-0.79 c 0.10,-0.63 0.00,-1.31 -0.13,-2.03 -4.14,3.42 -6.04,7.36 -9.89,11.45 l -0.36,0.38 -0.52,-0.07 c -6.61,-0.93 -16.34,-0.60 -22.69,0.16 -0.69,0.08 -1.28,-0.13 -1.86,-0.42 -0.58,-0.29 -1.14,-0.70 -1.65,-1.20 -1.02,-0.98 -1.93,-2.27 -1.83,-3.80 0.07,-1.07 0.30,-1.94 0.80,-2.63 0.49,-0.68 1.27,-1.07 2.03,-1.17 1.52,-0.19 3.07,0.43 4.81,1.14 3.46,1.42 7.54,3.31 10.63,2.48 1.20,-0.32 3.50,-2.29 5.07,-4.32 0.78,-1.01 1.42,-2.04 1.75,-2.80 0.15,-0.34 0.23,-0.62 0.26,-0.79 -0.05,-0.01 -0.13,-0.01 -0.26,0.00 -0.30,0.02 -0.80,0.15 -1.43,0.43 -1.25,0.55 -3.00,1.64 -5.10,3.07 -1.37,0.92 -2.97,0.95 -4.45,0.58 -1.48,-0.36 -2.94,-1.10 -4.41,-1.83 -2.20,-1.10 -4.37,-2.15 -6.34,-2.29 a 6.13,6.13 0 0 0 -0.48,-0.01 z m 39.24,8.35 1.12,2.53 -2.57,-0.40 z M 9.32,36.04 C 7.70,41.65 5.26,47.14 2.96,51.25 c 0.00,0.00 0.00,0.00 0.00,0.00 a 0.07,0.07 0 0 1 0.01,0.02 c 0.02,0.06 0.14,0.22 0.32,0.34 0.17,0.12 0.40,0.20 0.56,0.22 0.15,0.02 0.20,-0.01 0.21,-0.01 3.85,-2.84 6.71,-6.33 9.54,-9.79 l -0.07,-0.09 C 12.22,40.21 10.99,38.58 10.03,37.15 9.78,36.76 9.54,36.40 9.32,36.04 Z M 2.96,51.25 c -0.01,-0.01 -0.01,0.01 0,0 z M 36.97,37.58 c -0.81,0.27 -1.77,0.50 -2.84,0.68 -1.42,4.58 -3.81,8.90 -5.97,12.87 l -0.01,0.02 -0.01,0.02 c -0.03,0.05 -0.02,0.02 0.00,0.08 0.02,0.06 0.11,0.20 0.25,0.30 0.28,0.20 0.55,0.27 0.82,0.02 l 0.00,0.00 0.00,0.00 C 32.90,48.40 35.99,44.60 38.96,39.86 38.32,39.08 37.66,38.32 36.97,37.58 Z"
    />
</svg>