<svg
    xmlns="http://www.w3.org/2000/svg"
    width="70px"
    height="70px"
    viewbox="0 0 70 70"
>
    <rect
        x="0.5"
        y="0.5"
        width="69"
        height="69"
        rx="1"
        ry="1"
        style="fill:#ff5000;stroke-width:1px;stroke:#101010"
    />
    <g id="lion">
        <path
            style="fill:#000000;stroke:none"
            d="m 68.4,23.0 c -0.2,-1.3 -1.3,-1.6 -1.6,-1.7 -0.8,-0.2 -1.4,-0.7 -2.2,-1.3 -0.2,-0.2 -0.5,-0.4 -0.7,-0.6 -0.2,-0.2 -0.4,-0.4 -0.6,-0.6 0.6,-1.8 0.3,-3.3 -0.6,-4.2 -2.6,-2.6 -9.9,-0.3 -10.2,-0.2 -1.5,0.5 -2.8,1.3 -4.2,2.4 -0.3,0.2 -0.4,0.4 -0.4,0.7 0,0.1 0.1,0.3 0.1,0.4 -1.6,1.0 -2.9,2.2 -3.9,3.7 -0.2,0.3 -0.2,0.7 0,0.9 0.1,0.1 0.3,0.2 0.4,0.3 -0.1,0.1 -0.2,0.2 -0.2,0.3 -0.7,1.1 -1.1,2.3 -1.4,3.9 -0.1,0.7 -0.2,1.4 -0.2,2.0 -2.2,0.9 -5.2,2.1 -8.0,2.7 -2.4,0.5 -6.6,0.3 -9.4,0.1 -2.3,-0.2 -4.5,0.5 -6.2,1.9 -1.8,-0.3 -3.6,-0.3 -5.1,0.7 -1.1,0.7 -1.8,1.9 -2.4,2.9 l -1.0,1.7 C 10.2,39.8 9.8,40.3 9.3,40.6 9.1,40.7 8.9,40.7 8.6,40.7 8.3,39.7 7.4,39.1 5.8,39.1 c -2.5,0 -4.3,1.0 -4.3,2.4 0,1.4 1.8,2.4 4.3,2.4 1.8,0 2.7,-0.5 2.9,-1.6 0.4,0 0.9,-0.1 1.3,-0.3 1.0,-0.5 1.5,-1.4 1.9,-2.1 l 1.0,-1.7 c 0.5,-0.9 1.1,-1.8 1.9,-2.4 0.8,-0.5 1.8,-0.7 2.8,-0.6 -0.3,0.4 -0.6,0.8 -0.8,1.2 -1.4,2.5 -1.6,5.1 -1.6,6.8 0,0.6 -0.4,1.2 -1.0,1.3 l -0.9,0.2 c -1.7,0.4 -3.1,1.6 -3.7,3.2 l -1.5,3.9 c -0.4,1.1 -0.3,2.3 0.4,3.3 0.7,1.0 1.8,1.5 2.9,1.5 h 4.2 c 0.8,0 1.5,-0.4 1.8,-1.1 0.3,-0.7 0.3,-1.5 -0.2,-2.1 -0.6,-0.8 -1.5,-1.2 -2.6,-1.4 -0.2,0 -0.3,-0.1 -0.4,-0.3 -0.1,-0.1 -0.1,-0.3 0,-0.5 l 0.4,-1.0 c 0.1,-0.3 0.5,-0.6 0.8,-0.6 3.7,-0.3 6.7,-1.1 9.1,-2.2 0.1,0.1 0.2,0.3 0.3,0.4 0.2,0.3 0.4,0.6 0.7,0.8 1.2,1.2 1.4,1.6 1.2,2.4 -0.3,1.3 0.1,2.6 1.1,3.5 l 1.6,1.3 c 0.5,0.5 1.3,0.7 2.0,0.7 l 3.9,0 c 0.7,0 1.4,-0.4 1.8,-0.9 0.4,-0.6 0.5,-1.3 0.2,-2.0 -0.6,-1.6 -2.0,-2.4 -3.9,-2.4 -0.2,0 -0.4,-0.1 -0.5,-0.3 -0.1,-0.2 -0.2,-0.4 -0.1,-0.6 0.6,-2.0 0.9,-3.1 1.4,-4.7 1.4,0.2 2.7,0.3 4.2,0.3 0.7,0 1.5,0 2.3,-0.1 0.2,1.5 0.3,2.5 0.4,3.5 l 0.2,1.3 c 0.1,1.1 0.2,2.2 0.1,3.2 -0.1,0.7 0.2,1.3 0.6,1.8 0.5,0.5 1.1,0.8 1.8,0.8 l 5.1,0 c 0.7,0 1.4,-0.4 1.8,-1.1 0.3,-0.7 0.3,-1.4 -0.1,-2.1 -0.6,-0.8 -1.5,-1.4 -2.6,-1.6 -0.3,-0.1 -0.4,-0.2 -0.4,-0.3 -0.1,-0.1 -0.1,-0.3 0,-0.5 0.2,-0.5 0.7,-1.7 1.1,-2.7 0.7,0.5 1.4,1.0 2.0,1.4 1.0,0.7 1.9,1.6 2.4,2.7 l 1.1,2.4 c 0.5,1.0 1.5,1.7 2.7,1.7 h 4.6 c 0.9,0 1.7,-0.5 2.1,-1.2 0.4,-0.8 0.4,-1.7 0,-2.4 -0.8,-1.3 -2.2,-2.0 -4.0,-1.9 -0.4,0 -0.8,-0.3 -0.9,-0.7 l -1.2,-4.9 c -0.3,-1.5 -0.1,-3.0 0.7,-4.2 0.4,-0.6 0.6,-1.1 0.8,-1.5 0.1,0 0.1,-0.1 0.2,-0.1 1.1,-0.8 1.1,-4.0 1.0,-6.6 0.1,-0.4 0.1,-0.7 0.2,-0.9 0,-0.1 0.1,-0.2 0.1,-0.3 0.4,-0.9 0.9,-1.8 1.2,-2.3 0.1,0 0.3,0.1 0.4,0.1 0.4,0.1 0.8,0.2 1.2,0.3 1.1,0.2 2.0,-0.1 2.7,-0.7 0.7,-0.6 0.8,-1.4 0.9,-2.1 0,-0.2 0,-0.4 0,-0.6 v -0.3 c 0,0 0,-0.1 0,-0.1 0.5,-0.3 1.1,-0.7 1.2,-1.1 0.1,-0.2 0.2,-0.4 0.3,-0.7 0.1,-0.2 0.2,-0.3 0.3,-0.5 0.1,-0.3 0.1,-0.5 0.1,-0.8 z M 7.1,42.1 c 0,0 -0.3,0.2 -1.3,0.2 -1.6,0 -2.6,-0.6 -2.7,-0.8 0.1,-0.2 1.0,-0.8 2.6,-0.8 1.3,0 1.3,0.4 1.3,1.0 0,0.3 0,0.4 -0.1,0.4 z M 33.5,53.0 c 1.9,0 2.3,1.0 2.4,1.4 0.1,0.2 0,0.4 -0.1,0.5 -0.1,0.1 -0.2,0.3 -0.5,0.3 h -4.0 c -0.3,0 -0.7,-0.1 -0.9,-0.3 L 28.9,53.4 c -0.5,-0.4 -0.7,-1.2 -0.6,-1.8 0.5,-1.8 -0.5,-2.9 -1.6,-4.0 -0.2,-0.2 -0.4,-0.4 -0.5,-0.7 -0.1,-0.1 -0.1,-0.1 -0.2,-0.2 0.9,-0.6 1.7,-1.2 2.4,-2.0 1.3,0.3 2.7,0.7 4.3,0.9 -0.4,1.5 -0.7,2.6 -1.3,4.5 -0.2,0.7 -0.1,1.4 0.4,2.0 0.4,0.6 1.1,0.9 1.8,0.9 z m 13.9,0.5 c 0.8,0.2 1.4,0.5 1.7,1.0 0.1,0.2 0.1,0.3 0,0.4 0,0.1 -0.1,0.2 -0.4,0.2 H 43.7 c -0.2,0 -0.4,-0.1 -0.6,-0.3 -0.2,-0.2 -0.2,-0.4 -0.2,-0.6 0.1,-1.2 0.1,-2.4 -0.1,-3.5 l -0.2,-1.3 c -0.1,-1.1 -0.2,-2.0 -0.4,-3.5 1.1,-0.1 2.1,-0.4 3.2,-0.7 0.5,0.7 1.1,1.4 1.7,2.1 -0.3,1.0 -0.8,2.4 -1.2,3.2 -0.3,0.6 -0.3,1.3 0,1.9 0.3,0.6 0.8,1.0 1.5,1.2 z m 9.1,-13.2 c -1.1,1.6 -1.5,3.5 -1.0,5.5 l 1.2,4.9 c 0.3,1.2 1.4,2.0 2.5,2.0 1.3,0 2.1,0.3 2.6,1.1 0.2,0.4 0.1,0.7 0,0.8 -0.1,0.1 -0.3,0.4 -0.7,0.4 h -4.6 c -0.5,0 -1.0,-0.3 -1.2,-0.8 l -1.1,-2.4 c -0.6,-1.4 -1.7,-2.6 -3.0,-3.4 -2.4,-1.6 -4.1,-3.2 -4.8,-4.6 0,0 0,0 0,0 0,0 -0.1,-0.1 -0.1,-0.1 l 0,0 c 0,0 -0.1,-0.1 -0.1,-0.1 0,0 0,0 0,0 0,0 -0.1,0 -0.1,-0.1 0,0 0,0 -0.1,0 0,0 -0.1,0 -0.1,0 0,0 -0.1,0 -0.1,0 0,0 0,0 -0.1,0 h -0.1 0 0 0 c -0.1,0 -0.3,0.1 -0.5,0.1 -3.8,1.1 -7.8,1.1 -11.3,0.6 h 0 c -0.1,0 -0.1,0 -0.2,0 -1.6,-0.2 -3.0,-0.5 -4.3,-0.9 0.1,-0.1 0.1,-0.3 0.2,-0.4 0.2,-0.4 0,-0.9 -0.4,-1.1 -0.4,-0.2 -0.9,0 -1.1,0.4 -0.2,0.4 -0.4,0.8 -0.7,1.1 -2.4,3.2 -7.8,4.4 -12.1,4.8 -1.0,0.1 -1.8,0.7 -2.2,1.6 l -0.4,1.0 c -0.2,0.6 -0.2,1.3 0.1,1.9 0.3,0.6 0.9,0.9 1.6,1.0 0.7,0.1 1.2,0.3 1.5,0.7 0.1,0.2 0.1,0.4 0,0.4 0,0.1 -0.1,0.3 -0.4,0.3 h -4.3 c -0.7,0 -1.2,-0.3 -1.6,-0.8 C 9.4,53.7 9.3,53.0 9.6,52.4 L 11.1,48.5 c 0.4,-1.1 1.4,-2.0 2.6,-2.2 l 0.9,-0.2 c 1.4,-0.3 2.3,-1.5 2.3,-2.9 0,-1.6 0.3,-3.9 1.5,-6.1 1.3,-2.5 4.1,-4.0 7.0,-3.7 3.0,0.2 7.2,0.5 9.9,-0.1 2.7,-0.6 5.5,-1.6 7.8,-2.6 v 0.6 c 0,0.4 0.3,0.7 0.6,0.8 0.5,0.1 1.0,0 1.4,-0.2 0,0 0.1,0 0.1,0 0.4,1.0 1.4,2.7 3.3,3.9 0.3,0.2 0.8,0.1 1.0,-0.2 0.1,-0.1 0.2,-0.2 0.3,-0.3 0.7,1.2 2.0,2.9 4.9,3.3 0.3,0.1 0.7,-0.1 0.8,-0.5 0.5,0.7 1.2,1.1 1.6,1.3 h 0 c -0.1,0.3 -0.3,0.6 -0.5,0.9 z m 9.7,-15.3 c 0.1,0.1 0.1,0.1 0.1,0.2 0,-0.1 -0.1,-0.2 -0.1,-0.2 z m 0.5,-1.5 c -0.1,0.3 -0.3,0.5 -0.4,0.8 -0.1,0.1 -0.3,0.2 -0.5,0.3 -0.6,-0.3 -1.5,-0.3 -1.9,-0.3 -0.3,0 -1.0,0 -1.2,0.6 -0.1,0.4 0,0.8 0.3,1.1 0.3,0.3 1.2,0.7 2.0,0.8 -0.1,0.6 -0.2,0.9 -0.4,1.1 -0.2,0.2 -0.6,0.5 -1.4,0.3 -0.3,-0.1 -0.7,-0.2 -1.0,-0.3 -0.2,-0.1 -0.5,-0.1 -0.7,-0.2 -1.9,-0.5 -3.2,-1.0 -3.7,-1.5 -0.3,-0.3 -0.3,-0.5 -0.2,-1.1 0,-0.3 0.1,-0.7 0,-1.1 -0.1,-0.4 -0.5,-0.7 -0.9,-0.7 -0.4,0.1 -0.7,0.5 -0.7,0.9 0,0.2 0,0.4 0,0.7 -0.2,1.7 0.3,2.9 3.6,3.9 -0.4,0.7 -0.8,1.5 -1.1,2.2 0,0.1 0,0.1 -0.1,0.2 0,0.1 -0.1,0.2 -0.1,0.3 -0.1,0.3 -0.2,0.7 -0.3,1.2 0,0.1 0,0.1 0,0.2 0.1,2.1 0,4.3 -0.2,5.1 0,0 -0.1,0 -0.1,-0.1 -0.6,-0.4 -1.4,-0.9 -1.7,-2.0 -0.1,-0.3 -0.4,-0.5 -0.7,-0.6 -0.3,0 -0.6,0.2 -0.8,0.5 l -0.4,0.9 C 52.0,36.3 51.3,34.9 50.8,33.9 50.5,33.4 50.3,32.9 49.9,32.7 c -0.3,-0.2 -0.6,-0.2 -0.9,0 -0.3,0.2 -0.4,0.5 -0.3,0.8 0,0.1 0,0.2 -0.1,0.5 -1.7,-1.3 -2.2,-3.1 -2.2,-3.1 -0.1,-0.3 -0.4,-0.5 -0.7,-0.6 -0.5,-0.1 -0.9,0.1 -1.2,0.2 l 0,-2.3 c 0,0 0,-0.1 0,-0.1 0,-0.3 0.1,-0.5 0.1,-0.8 0.2,-1.4 0.6,-2.4 1.1,-3.4 0.3,-0.4 0.6,-0.8 0.9,-1.2 0.1,-0.2 0.3,-0.4 0.4,-0.6 0.2,-0.2 0.2,-0.5 0.1,-0.8 -0.1,-0.2 -0.2,-0.3 -0.4,-0.4 1.1,-1.1 2.4,-2.0 4.0,-2.6 0.2,-0.1 0.3,-0.2 0.4,-0.4 0.1,-0.2 0.1,-0.4 0,-0.6 -0.1,-0.2 -0.2,-0.3 -0.3,-0.4 0.7,-0.4 1.4,-0.7 2.2,-1.0 2.1,-0.7 7.0,-1.7 8.5,-0.2 0.5,0.5 0.6,1.5 0.2,2.8 -0.1,0.3 -0.2,1.0 0.5,1.6 0.2,0.2 0.4,0.3 0.6,0.5 0.2,0.2 0.5,0.5 0.8,0.7 0.8,0.7 1.8,1.4 2.8,1.6 0.4,0.1 0.4,0.2 0.5,0.4 v 0 c -0.1,0.2 -0.1,0.3 -0.2,0.4 z"
        />
        <path
            style="fill:#000000;stroke:none"
            d="m 61.2,20.5 c -0.2,0 -0.5,0 -0.7,-0.1 -0.5,0 -0.6,0.8 -0.2,1.0 0.5,0.3 1.1,0.5 1.6,0.5 0.4,0 0.5,-0.6 0.3,-0.9 -0.3,-0.3 -0.6,-0.5 -0.9,-0.5 z"
        />
        <path
            style="fill:#000000;stroke:none"
            d="m 55.6,16.6 c -0.7,-0.1 -1.3,0.1 -1.7,0.5 -1.0,0.8 -1.1,2.4 -0.2,3.7 0.2,0.2 0.4,0.3 0.7,0.3 0.2,0 0.3,-0.1 0.5,-0.1 0.4,-0.3 0.4,-0.7 0.2,-1.1 -0.4,-0.6 -0.4,-1.2 -0.1,-1.5 0.1,-0.1 0.3,-0.2 0.6,-0.1 0.3,0 0.6,0.2 0.8,0.4 0.3,0.3 0.8,0.4 1.1,0.1 0.3,-0.3 0.4,-0.8 0.1,-1.1 -0.5,-0.6 -1.2,-0.9 -1.9,-1.0 z"
        />
    </g>
</svg>
