<svg
    xmlns="http://www.w3.org/2000/svg"
    width="70px"
    height="70px"
    viewbox="0 0 70 70"
>
    <rect
        x="0.5"
        y="0.5"
        width="69"
        height="69"
        rx="1"
        ry="1"
        style="fill:#202020;stroke-width:1px;stroke:#101010"
    />
    <g id="elephant">
        <path
            style="fill:#ffffff;stroke:none"
            d="m 54.8,23.8 c 0,0.6 -0.5,1.0 -1.0,1.0 -0.6,0 -1.0,-0.5 -1.0,-1.0 0,-0.6 0.5,-1.0 1.0,-1.0 0.6,0 1.0,0.5 1.0,1.0"
        />
        <path
            style="fill:#ffffff;stroke:none"
            d="m 60.9,46.3 c 0.8,-1.9 1.4,-4.0 1.7,-6.1 1.7,0.3 3.4,0.5 5.1,0.5 0.4,0 0.7,-0.3 0.7,-0.7 0,-0.4 -0.3,-0.7 -0.7,-0.7 -1.7,0 -3.3,-0.2 -5.0,-0.5 0,-0.5 0.1,-0.9 0.9,-1.4 0.8,0.1 1.5,0.2 2.3,0.2 0.9,0 1.9,-0.1 2.8,-0.3 0.2,0 0.3,-0.2 0.4,-0.3 0.1,-0.2 0.1,-0.4 0.1,-0.5 0,-0.2 -0.2,-0.3 -0.3,-0.4 -0.2,-0.1 -0.4,-0.1 -0.5,-0.1 -1.5,0.3 -3.1,0.4 -4.7,0.1 C 62.8,26.9 58.2,19.5 56.3,16.8 55.1,15.1 49.6,15.2 47.7,15.3 46.3,14.7 44.9,14.4 43.4,14.4 40.0,14.2 35.7,14.5 33.5,17.0 H 20.4 c -3.0,0 -6.0,0.7 -8.7,2.1 -1.9,1.0 -3.5,2.3 -4.7,4.0 -0.9,0 -1.7,0.2 -2.4,0.8 -1.9,1.4 -2.9,4.6 -2.9,9.4 0,0.2 0.1,0.4 0.2,0.5 0.1,0.1 0.3,0.2 0.5,0.2 0.2,0 0.4,-0.1 0.5,-0.2 0.1,-0.1 0.2,-0.3 0.2,-0.5 0.1,-5.4 1.3,-7.5 2.4,-8.3 C 5.6,24.9 5.8,24.7 6.1,24.6 5.7,25.4 5.4,26.2 5.3,27.0 4.4,31.3 5.2,34.0 6.2,35.8 L 4.9,54.9 c 0,0.2 0.1,0.4 0.2,0.5 0.1,0.1 0.3,0.2 0.5,0.2 H 22.6 c 0.4,0 0.7,-0.3 0.7,-0.6 0.1,-0.9 -0.1,-1.9 -0.8,-2.5 -0.8,-1.0 -1.3,-2.2 -1.4,-3.4 -0.4,-2.2 0.4,-4.4 2.1,-5.9 2.5,0.3 5.0,0.3 7.5,0 0.2,1.8 0.4,4.3 0,5.0 -0.8,1.5 -0.6,4.8 -0.6,5.1 h 0 c 0,0.4 0.3,0.7 0.7,0.7 h 5.4 v 1.1 c 0,0.2 0.1,0.4 0.2,0.5 0.1,0.1 0.3,0.2 0.5,0.2 h 9.4 c 0.2,0 0.4,-0.1 0.5,-0.2 0.1,-0.2 0.2,-0.4 0.1,-0.6 0,0 -0.2,-1.2 -0.5,-2.3 1.1,0.8 2.3,1.4 3.6,1.6 0.5,0.1 1.0,0.2 1.6,0.2 2.7,0 6.4,-1.4 9.1,-8.1 z M 43.3,15.7 c 3.2,0.2 4.6,1.0 5.2,1.8 0.4,0.4 0.6,1.0 0.5,1.5 -0.1,0.4 0.2,0.7 0.6,0.8 0.4,0.1 0.7,-0.2 0.8,-0.6 0.1,-0.9 -0.2,-1.9 -0.8,-2.6 l 0,0 c 2.7,0 5.2,0.4 5.7,1.0 1.9,2.7 7.0,11.1 6.1,20.9 -4.2,-1.0 -7.1,-2.9 -8.7,-5.8 l -0.1,-0.1 v 0 c -0.2,-0.3 -0.5,-0.4 -0.8,-0.3 -0.9,0.2 -1.9,0.3 -2.8,0.4 -0.7,-1.9 -1.1,-4.6 -0.3,-5.4 v 0 c 0.3,-0.3 0.3,-0.7 0,-1.0 -0.3,-0.3 -0.7,-0.3 -1.0,0 -1.5,1.4 -0.7,4.7 -0.2,6.4 -5.7,-0.4 -11.1,-4.0 -13.2,-9.2 -0.9,-2.2 -0.9,-4.0 0,-5.3 1.3,-1.8 4.4,-2.7 9.0,-2.5 z m 7.2,18.3 c 0.4,0 0.7,-0.1 1.1,-0.2 0.1,0.1 0.1,0.2 0.2,0.3 v 0 c 0,0 0,0.1 0,0.1 1.9,2.8 1.8,4.6 1.6,5.5 -2.8,-1.6 -5.0,-1.1 -6.4,-0.4 -0.2,0.1 -0.3,0.2 -0.5,0.3 1.0,-3.0 2.3,-4.9 3.9,-5.6 z M 19.7,49.3 c 0.4,2.5 1.1,3.4 1.7,4.1 v 0 c 0.2,0.3 0.4,0.6 0.5,0.9 h -7.0 c -0.5,-1.3 -1.3,-3.9 -1.1,-5.3 0.2,-1.8 3.5,-6.3 5.5,-7.1 h 0 c 0.6,0.5 1.4,0.9 2.2,1.0 -1.6,1.8 -2.2,4.1 -1.9,6.4 z m 11.7,3.2 c 0,-1.3 0.1,-3.0 0.5,-3.7 0.7,-1.2 0.4,-4.3 0.2,-5.8 1.4,-0.2 2.8,-0.7 4.2,-1.3 v 10.8 z m 6.2,1.7 0,-13.8 c 0,-0.3 -0.1,-0.5 -0.4,-0.6 -0.2,-0.1 -0.5,-0.1 -0.7,0.1 -1.6,1.0 -3.4,1.7 -5.3,1.8 -2.7,0.4 -5.4,0.4 -8.0,0 -0.8,-0.1 -1.5,-0.3 -2.2,-0.5 0.9,-0.6 2.1,-2.0 2.4,-4.9 0,-0.4 -0.2,-0.7 -0.6,-0.8 -0.4,0 -0.7,0.2 -0.8,0.6 -0.3,3.7 -2.2,4.2 -2.3,4.2 -2.8,0.4 -6.9,6.1 -7.1,8.5 -0.2,1.6 0.6,4.1 1.0,5.4 H 6.3 l 1.1,-16.9 c 0.4,0.4 0.8,0.7 1.2,0.9 0.3,0.2 0.8,0 0.9,-0.3 0.1,-0.2 0.1,-0.4 0,-0.5 C 9.6,37.3 9.4,37.1 9.3,37.1 9.1,37.0 5.1,34.8 6.6,27.3 7.3,24.4 9.2,22.0 12.3,20.3 h 0 c 2.5,-1.3 5.3,-2.0 8.1,-1.9 h 12.2 c -0.6,1.5 -0.5,3.4 0.4,5.6 2.4,5.9 8.6,9.8 15.0,10.1 -1.8,1.9 -2.8,4.9 -3.4,7.3 v 0 c -1.2,1.5 -1.8,3.4 -1.9,5.3 0.1,1.3 0.6,2.6 1.4,3.6 0,0.1 0,0.3 0.1,0.4 0.5,1.1 0.9,2.3 1.2,3.5 z m 12.8,-1.4 c -3.6,-0.7 -6.3,-4.2 -6.2,-6.0 l 0,0 c 0.1,-1.5 0.6,-3.0 1.4,-4.3 0.2,-0.1 0.3,-0.3 0.3,-0.5 0.5,-0.6 1.1,-1.1 1.8,-1.5 1.7,-0.9 3.7,-0.6 5.6,0.7 1.0,0.8 1.4,2.7 0.8,4.4 h 0 c -0.2,0.7 -0.6,1.3 -1.1,1.7 -0.5,0.4 -1.2,0.7 -1.9,0.7 -2.0,0 -2.5,-1.3 -2.6,-1.9 v 0 c -0.1,-0.6 -0.1,-1.3 0.2,-1.8 0.3,-0.6 0.7,-1.0 1.3,-1.3 1.0,-0.4 1.3,0 1.4,0.1 h 0 c 0.2,0.4 0.2,0.8 0.2,1.2 -0.1,0.4 -0.2,0.8 -0.5,1.1 -0.3,0.2 -0.4,0.7 -0.1,1.0 0.2,0.3 0.7,0.4 1.0,0.1 0.5,-0.5 0.9,-1.2 1.0,-1.9 0.1,-0.7 0,-1.5 -0.4,-2.2 -0.6,-1.0 -1.8,-1.3 -3.1,-0.7 v 0 c -0.9,0.4 -1.5,1.1 -2.0,2.0 -0.4,0.9 -0.5,1.8 -0.3,2.8 0.2,0.9 0.7,1.7 1.4,2.3 0.7,0.6 1.6,0.8 2.6,0.8 h 0 c 1.0,0 2.0,-0.4 2.7,-1.0 0.8,-0.6 1.3,-1.5 1.6,-2.4 0.7,-2.1 0.3,-4.3 -0.9,-5.6 0.4,-1.1 0.4,-2.3 0.1,-3.4 1.9,1.4 4.1,2.3 6.4,2.8 -0.3,2.0 -0.8,4.0 -1.6,5.8 -2.2,5.4 -5.5,7.9 -9.2,7.1 z"
        />
        <path
            style="fill:#ffffff;stroke:none"
            d="m 37.3,22.1 c 0.3,-0.2 0.4,-0.7 0.2,-1.0 -0.3,-0.4 -0.4,-0.8 -0.3,-1.2 0.2,-0.4 0.8,-0.6 1.2,-0.7 2.7,-0.6 7.4,0.7 8.5,4.2 v 0 c 0.1,0.3 0.4,0.5 0.7,0.5 0.1,0 0.1,0 0.2,0 0.4,-0.1 0.6,-0.5 0.5,-0.9 C 47.0,18.8 41.4,17.2 38.2,17.9 l 0,0 c -1.0,0.1 -1.8,0.7 -2.2,1.6 -0.2,0.8 -0.1,1.7 0.5,2.5 0.2,0.3 0.6,0.4 0.9,0.2 z"
        />
    </g>
</svg>
