<svg
    xmlns="http://www.w3.org/2000/svg"
    width="70px"
    height="70px"
    viewbox="0 0 70 70"
>
    <rect
        x="0.5"
        y="0.5"
        width="69"
        height="69"
        rx="1"
        ry="1"
        style="fill:#808080;stroke-width:1px;stroke:#101010"
    />
    <g id="rhino">
        <path
            style="fill:#000000;stroke:none"
            d="m 22.1,55.8 h 0.9 C 22.9,55.0 22.4,54.2 21.7,53.7 21.3,53.5 21.1,53.1 21.1,52.7 l 1.0,-7.9 c 0.1,-0.5 0.6,-0.9 1.1,-0.9 0.5,0.1 0.9,0.6 0.9,1.1 l -0.9,7.3 c 1.9,1.5 1.9,4.3 1.9,4.5 0,0.3 -0.1,0.5 -0.3,0.7 -0.2,0.2 -0.4,0.3 -0.7,0.3 h -2.0 c -0.5,0 -1.0,-0.4 -1.0,-1.0 0,-0.5 0.4,-1.0 1.0,-1.0 z"
        />
        <path
            style="fill:#000000;stroke:none"
            d="m 31.1,45.9 c 0.3,-0.1 0.5,0 0.7,0.1 0.2,0.1 0.4,0.4 0.4,0.6 0.4,1.6 0.9,3.2 1.7,4.7 0.1,0.1 0.1,0.3 0.1,0.4 v 5.0 c 0,0.5 -0.4,1.0 -1.0,1.0 -0.5,0 -1.0,-0.4 -1.0,-1.0 v -4.7 c -0.8,-1.6 -1.3,-3.3 -1.7,-5.0 -0.1,-0.5 0.2,-1.1 0.8,-1.2 z"
        />
        <path
            style="fill:#000000;stroke:none"
            d="m 22.2,42.1 c 0.2,-0.5 0.8,-0.7 1.3,-0.5 2.1,0.9 4.3,1.3 6.6,1.3 0.7,0 1.3,0 1.9,0 0.3,0 0.5,0.1 0.7,0.3 0.2,0.2 0.3,0.4 0.3,0.7 0,0.3 -0.1,0.5 -0.3,0.7 -0.2,0.2 -0.4,0.3 -0.7,0.3 -0.7,0 -1.3,0 -2.0,0 -2.5,0 -5.0,-0.5 -7.3,-1.5 -0.2,-0.1 -0.4,-0.3 -0.5,-0.5 -0.1,-0.2 -0.1,-0.5 0,-0.8 z"
        />
        <path
            style="fill:#000000;stroke:none"
            d="m 35.0,35.8 c 0.1,-0.5 0.6,-0.9 1.2,-0.8 0.5,0.1 0.9,0.6 0.8,1.2 -0.5,2.5 -0.8,5.1 -0.9,7.7 l 2.6,-0.9 c 0.2,-0.1 0.4,-0.1 0.5,0 l 4.6,1.0 c 0.1,-0.2 0.1,-0.3 0.2,-0.5 2.8,-6.6 0.9,-19.2 0.9,-19.3 v 0 c 0,-0.3 0,-0.5 0.2,-0.7 0.2,-0.2 0.4,-0.4 0.6,-0.4 0.3,0 0.5,0 0.7,0.2 0.2,0.2 0.4,0.4 0.4,0.6 0.7,4.7 0.8,9.4 0.4,14.1 1.2,-0.7 2.1,-1.3 2.6,-1.6 h 0 c 0,-3.1 -0.3,-6.1 -1.0,-9.1 -0.1,-0.5 0.2,-1.1 0.7,-1.2 0.5,-0.1 1.1,0.2 1.2,0.7 0.7,3.2 1.0,6.4 1.0,9.7 l 7.3,6.4 c 1.2,0 2.4,-0.5 3.2,-1.4 0.9,-0.9 1.3,-2.0 1.3,-3.3 -2.7,-3.9 -5.0,-8.1 -7.0,-12.4 -1.2,0.8 -2.5,1.2 -3.9,1.2 -0.5,0 -1.0,-0.4 -1.0,-1.0 0,-0.5 0.4,-1.0 1.0,-1.0 1.3,0 2.6,-0.5 3.5,-1.5 0.9,-0.9 1.5,-2.2 1.5,-3.5 v -2.9 c -1.1,0.2 -2.1,0.8 -2.8,1.7 -0.7,0.9 -1.1,2.0 -1.1,3.1 0,0.5 -0.4,1.0 -1.0,1.0 -0.5,0 -1.0,-0.4 -1.0,-1.0 0,-1.8 0.7,-3.6 2.0,-4.9 1.3,-1.3 3.1,-2.0 4.9,-2.0 0.3,0 0.5,0.1 0.7,0.3 0.2,0.2 0.3,0.4 0.3,0.7 v 4.0 c 0,1.5 -0.5,3.0 -1.5,4.3 0.9,2.2 2.0,4.4 3.2,6.5 l 3.5,-3.5 c 0.3,-0.3 0.7,-0.4 1.1,-0.2 0.4,0.2 0.6,0.6 0.6,1.0 l -1.0,9.9 c 0,2.4 -1.5,6.9 -6.9,6.9 -0.2,0 -0.5,-0.1 -0.7,-0.2 l -7.4,-6.4 c -0.8,0.5 -2.1,1.3 -3.8,2.3 -0.2,1.3 -0.6,2.6 -1.1,3.8 -2.2,5.1 -2.1,7.3 -2.0,7.9 0.9,0.6 3.1,2.5 3.1,4.6 v 0 c 0,0.3 -0.1,0.5 -0.3,0.7 -0.2,0.2 -0.4,0.3 -0.7,0.3 h -8.9 c -0.3,0 -0.5,-0.1 -0.7,-0.3 -0.2,-0.2 -0.3,-0.4 -0.3,-0.7 v -4.7 c -0.4,-0.9 -2.0,-4.4 -2.0,-7.2 0.1,-3.1 0.4,-6.1 1.0,-9.1 z m 27.5,-3.1 c 0.5,0.9 1.1,1.7 1.5,2.4 l 0.4,-4.4 z M 37.9,51.4 c 0.1,0.1 0.1,0.3 0.1,0.4 v 4.0 h 6.6 c -0.6,-0.8 -1.3,-1.6 -2.2,-2.1 -0.1,-0.1 -0.3,-0.2 -0.3,-0.4 -0.2,-0.4 -0.8,-2.2 1.0,-7.4 l -4.1,-0.9 -3.0,1.0 c 0.4,1.9 1.0,3.7 1.8,5.5 z"
        />
        <path
            style="fill:#000000;stroke:none"
            d="M 5.3,41.5 V 28.1 c 0,-0.3 0.1,-0.5 0.3,-0.7 l 2.8,-2.8 c 0.4,-4.1 1.5,-6.9 3.4,-8.3 2.4,-1.8 5.4,-0.9 7.2,-0.3 v 0 c 0.4,0.1 0.7,0.2 1.1,0.3 0.8,-0.2 1.6,-0.6 2.2,-1.1 1.3,-1.1 3.0,-1.8 4.7,-1.9 1.3,0 2.5,0.5 3.5,1.4 1.2,1.1 2.8,1.6 4.5,1.6 3.0,-0.1 5.9,-0.8 8.5,-2.3 1.6,-1.0 3.5,-1.5 5.4,-1.7 1.6,0 3.2,0.9 4.7,2.6 0.2,0.2 0.3,0.5 0.3,0.7 0,0.3 -0.1,0.5 -0.3,0.7 -0.2,0.2 -0.5,0.3 -0.7,0.3 -0.3,0 -0.5,-0.1 -0.7,-0.3 -0.8,-1.1 -1.9,-1.7 -3.2,-1.9 -1.6,0.1 -3.2,0.7 -4.5,1.5 -2.9,1.6 -6.1,2.4 -9.3,2.5 -2.1,0.1 -4.1,-0.6 -5.7,-2.0 -0.6,-0.6 -1.4,-1.0 -2.2,-1.0 -1.3,0.1 -2.6,0.7 -3.6,1.5 -0.9,0.8 -2.1,1.3 -3.3,1.4 -0.6,0 -1.2,-0.2 -1.7,-0.4 -1.6,-0.5 -3.8,-1.2 -5.4,0 -1.8,1.3 -2.8,4.9 -2.8,10.3 -0.1,5.2 0.5,10.5 1.7,15.6 l 2.0,-0.7 v 0 c 0.2,-0.1 0.4,-0.1 0.6,0 l 3.4,0.9 v 0 c 1.5,-1.2 2.3,-3.0 2.3,-4.9 0,-3.8 -1.9,-11.6 -2.0,-11.7 -0.1,-0.5 0.2,-1.1 0.7,-1.2 0.5,-0.1 1.1,0.2 1.2,0.7 0.1,0.3 2.0,8.1 2.0,12.1 0,2.5 -1.1,4.9 -3.0,6.5 l -0.9,6.9 c 1.9,1.5 1.9,4.3 1.9,4.5 0,0.3 -0.1,0.5 -0.3,0.7 -0.2,0.2 -0.4,0.3 -0.7,0.3 h -7.9 c -0.5,0 -0.9,-0.3 -1.0,-0.8 L 9.2,52.0 C 9.2,51.9 9.2,51.8 9.2,51.7 L 10.2,45.0 C 9.8,43.8 8.2,37.9 8.2,28.1 c 0,-0.2 0,-0.4 0,-0.6 L 7.2,28.5 v 13.1 c 0.7,0.7 2.0,2.2 2.0,3.4 0,1.4 -1.8,3.2 -2.3,3.7 -0.4,0.4 -1.0,0.4 -1.4,0 -0.5,-0.5 -2.3,-2.3 -2.3,-3.7 0,-1.2 1.3,-2.7 2.0,-3.4 z m 6.8,14.3 h 6.0 C 17.9,55.0 17.4,54.2 16.7,53.7 16.3,53.5 16.1,53.1 16.2,52.7 l 0.9,-7.0 -2.8,-0.8 -2.1,0.7 -0.9,6.2 z M 6.3,46.4 C 6.7,46.0 7.0,45.5 7.2,44.9 7.0,44.3 6.7,43.8 6.3,43.4 c -0.4,0.4 -0.8,1.0 -1.0,1.5 0.2,0.6 0.6,1.1 1.0,1.5 z"
        />
        <path
            style="fill:#000000;stroke:none"
            d="m 56.8,29.1 h -2.0 v 2.0 h 2.0 z"
        />
    </g>
</svg>
