<svg
    xmlns="http://www.w3.org/2000/svg" 
    width="62"
    height="87"
    viewbox="0 0 62 87"
>
    <rect
        id="card"
        x="0.5"
        y="0.5"
        rx="3"
        ry="3"
        width="61"
        height="86"
        style="
            fill:#0066ff;
            stroke:black;
            stroke-width:1px
        "
    />
    <g id="value">
        <circle
            cx="57"
            cy="12"
            r="2.5"
            style="
                fill:#ffffff;
                stroke:none
            "
        />
        <circle
            cx="57"
            cy="18"
            r="2.5"
            style="
                fill:#ffffff;
                stroke:none
            "
        />
        <circle
            cx="57"
            cy="24"
            r="2.5"
            style="
                fill:#ffffff;
                stroke:none
            "
        />
    </g>
    <path
        id="role-symbol"
        style="
            fill:#ffffff;
            stroke:#000000;
            stroke-width:0.03px
        "
        d="M 5.877,17.769 5.282,16.569 c -0.016,-0.029 -0.046,-0.047 -0.079,-0.048 l -0.039,0.009 H 4.392 C 4.335,16.309 4.111,16.177 3.890,16.234 c -0.145,0.038 -0.258,0.151 -0.296,0.295 H 2.824 l -0.039,-0.009 c -0.033,0 -0.063,0.019 -0.079,0.048 l -0.596,1.200 c -0.039,0.008 -0.067,0.043 -0.066,0.083 0,0.368 0.333,0.670 0.740,0.670 0.407,0 0.745,-0.302 0.745,-0.670 0,-0.039 -0.028,-0.073 -0.066,-0.083 L 2.933,16.705 H 3.591 c 0.033,0.158 0.157,0.282 0.315,0.316 v 1.538 c -0.285,0.035 -0.508,0.250 -0.543,0.469 H 3.170 c -0.051,0.004 -0.092,0.045 -0.096,0.096 v 0.350 c 0.005,0.048 0.047,0.084 0.096,0.079 0,0 0,0 0,0 h 1.647 c 0.048,0.005 0.091,-0.030 0.096,-0.078 0,0 0,0 0,0 v -0.350 c -0.004,-0.051 -0.045,-0.092 -0.096,-0.096 H 4.624 C 4.589,18.808 4.366,18.593 4.081,18.558 v -1.538 c 0.158,-0.033 0.282,-0.157 0.315,-0.315 h 0.657 l -0.530,1.065 c -0.038,0.009 -0.065,0.044 -0.066,0.083 0,0.368 0.333,0.670 0.745,0.670 0.412,0 0.740,-0.302 0.740,-0.670 0,-0.040 -0.027,-0.075 -0.066,-0.083 z m -3.093,0.570 c -0.276,0 -0.508,-0.188 -0.556,-0.407 h 1.117 c -0.048,0.219 -0.280,0.407 -0.561,0.407 z M 3.266,17.756 H 2.307 L 2.785,16.797 Z M 4.738,19.202 v 0.175 H 3.249 V 19.202 Z M 4.445,19.027 H 3.542 c 0.035,-0.175 0.223,-0.307 0.451,-0.307 0.228,0 0.416,0.131 0.451,0.307 z M 3.994,16.858 c -0.131,0 -0.237,-0.106 -0.237,-0.237 0,-0.131 0.106,-0.237 0.237,-0.237 0.131,0 0.237,0.106 0.237,0.237 0,0.131 -0.106,0.237 -0.237,0.237 z M 5.203,16.797 5.680,17.756 H 4.721 Z m 0,1.542 c -0.280,0 -0.513,-0.188 -0.561,-0.407 h 1.117 c -0.048,0.219 -0.280,0.407 -0.556,0.407 z"
    />
    <text
        id="role-text"
        x="4"
        y="25"
        writing-mode="tb"
        rotate="270"
        style="
            font-family:FreeMono,monospace;
            font-size:7px;
            letter-spacing:2px;
            fill:#ffffff;
            stroke:#000000;
            stroke-width:0.05px
        "
    >MERCHANT</text>
    <g id="material-symbol">
        <path
            d="m 56.711,79.913 c 0.604,-0.162 0.983,-0.127 1.224,-0.059 0.018,-0.054 0.027,-0.113 0.027,-0.176 0,-0.461 -0.520,-0.699 -0.932,-0.699 -0.409,0 -0.932,0.235 -0.932,0.699 0,0.156 0.059,0.286 0.153,0.390 0.139,-0.058 0.292,-0.110 0.460,-0.155 z"
            style="
                fill:#ffffff;
                stroke:#000000;
                stroke-width:0.05px
            "
        />
        <path
            d="m 55.689,81.579 c 0.353,-0.113 0.802,-0.170 1.341,-0.170 0.381,0 0.718,0.028 1.007,0.085 0.076,-0.055 0.141,-0.113 0.195,-0.176 0.176,-0.201 0.237,-0.443 0.173,-0.683 -0.064,-0.239 -0.238,-0.418 -0.491,-0.505 -0.283,-0.097 -0.664,-0.082 -1.133,0.044 -0.469,0.126 -0.806,0.303 -1.003,0.529 -0.176,0.201 -0.237,0.443 -0.173,0.683 0.019,0.069 0.047,0.134 0.083,0.192 z"
            style="
                fill:#ffffff;
                stroke:#000000;
                stroke-width:0.05px
            "
        />
        <path
            d="m 58.912,83.083 c 0.099,-0.127 0.151,-0.272 0.151,-0.428 0,-0.283 -0.171,-0.530 -0.482,-0.695 -0.346,-0.184 -0.867,-0.277 -1.551,-0.277 -0.684,0 -1.205,0.093 -1.551,0.277 -0.311,0.165 -0.482,0.412 -0.482,0.695 0,0.156 0.052,0.301 0.151,0.428 z"
            style="
                fill:#ffffff;
                stroke:#000000;
                stroke-width:0.05px
            "
        />
    </g>
    <text
        id="material-text"
        x="54"
        y="83"
        style="
            font-family:FreeMono,monospace;
            font-size:7px;
            text-anchor:end;
            fill:#ffffff;
            stroke:#000000;
            stroke-width:0.05px
        "
    >STONE</text>
    <text
        id="name"
        x="31"
        y="8"
        style="
            font-family:FreeMono,monospace;
            font-size:7px;
            text-anchor:middle;
            fill:#ffffff;
            stroke:#000000;
            stroke-width:0.05px
        "
    >CATACOMB</text>
    <g id="coin1">
        <circle
            cx="5.6"
            cy="82"
            r="3"
            style="
                fill:#ffffff;
                stroke:none
            "
        />
        <path
            style="
                fill:#000000;
                stroke:none
            "
            d="m 5.590,84.459 c -0.413,-0.223 -0.973,-0.464 -1.255,-0.541 -0.126,-0.034 -0.340,-0.034 -0.474,0 -0.056,0.014 -0.157,0.052 -0.224,0.084 -0.131,0.062 -0.178,0.065 -0.207,0.011 -0.038,-0.072 0.035,-0.133 0.250,-0.210 l 0.137,-0.049 0.113,-0.283 c 0.062,-0.155 0.117,-0.304 0.122,-0.329 0.005,-0.029 -0.025,-0.253 -0.080,-0.581 -0.067,-0.402 -0.085,-0.541 -0.074,-0.563 0.033,-0.061 0.138,-0.048 0.153,0.019 0.004,0.018 0.044,0.253 0.089,0.521 0.102,0.613 0.102,0.609 -0.023,0.920 -0.050,0.124 -0.094,0.234 -0.098,0.242 -0.005,0.011 0.043,0.019 0.144,0.024 0.124,0.006 0.184,0.019 0.340,0.070 0.253,0.083 0.586,0.222 0.903,0.379 l 0.261,0.129 -0.010,-0.087 c -0.015,-0.131 -0.011,-0.390 0.008,-0.509 0.009,-0.058 0.011,-0.110 0.004,-0.116 -0.007,-0.007 -0.081,-0.029 -0.166,-0.051 -0.225,-0.059 -0.308,-0.115 -0.379,-0.255 -0.028,-0.055 -0.073,-0.277 -0.073,-0.361 0,-0.061 0.051,-0.099 0.107,-0.078 0.041,0.016 0.048,0.035 0.088,0.249 0.037,0.198 0.062,0.218 0.387,0.307 0.110,0.030 0.333,0.092 0.496,0.138 0.331,0.093 0.363,0.094 0.448,0.020 0.060,-0.053 0.083,-0.124 0.071,-0.225 -0.012,-0.100 0.017,-0.233 0.058,-0.266 0.024,-0.019 0.032,-0.042 0.032,-0.088 v -0.062 l -0.084,0.010 c -0.100,0.011 -0.128,-0.005 -0.128,-0.077 0,-0.063 0.032,-0.078 0.252,-0.114 0.086,-0.014 0.157,-0.030 0.157,-0.036 0,-0.005 -0.026,-0.035 -0.058,-0.067 -0.062,-0.061 -0.076,-0.119 -0.037,-0.158 0.018,-0.018 0.224,-0.054 0.312,-0.054 0.018,0 0.032,-0.006 0.032,-0.014 0,-0.008 -0.079,-0.145 -0.175,-0.305 l -0.175,-0.291 v -0.135 -0.139 l -0.08,0.028 c -0.044,0.015 -0.092,0.028 -0.107,0.028 -0.033,0 -0.076,-0.044 -0.076,-0.079 0,-0.033 0.026,-0.082 0.045,-0.082 0.008,0 0.05,-0.014 0.096,-0.031 0.129,-0.048 0.226,-0.149 0.226,-0.235 0,-0.093 0.107,-0.135 0.155,-0.062 0.021,0.032 0.022,0.048 0.007,0.116 -0.01,0.043 -0.037,0.106 -0.062,0.139 l -0.044,0.061 0.005,0.177 0.005,0.177 0.208,0.34 c 0.117,0.192 0.208,0.356 0.208,0.376 0,0.048 -0.047,0.075 -0.153,0.086 -0.048,0.005 -0.109,0.013 -0.135,0.018 l -0.047,0.008 0.029,0.041 c 0.035,0.049 0.037,0.103 0.007,0.161 -0.023,0.045 -0.065,0.061 -0.203,0.081 -0.059,0.008 -0.067,0.013 -0.044,0.025 0.015,0.008 0.049,0.035 0.075,0.059 0.08,0.075 0.06,0.149 -0.053,0.206 l -0.071,0.0359 -0.006,0.136 c -0.005,0.102 -0.014,0.151 -0.038,0.197 -0.067,0.13 -0.191,0.216 -0.336,0.233 -0.057,0.007 -0.116,-0.005 -0.303,-0.058 -0.319,-0.091 -0.287,-0.093 -0.308,0.019 -0.026,0.136 -0.024,0.413 0.003,0.519 0.012,0.048 0.042,0.119 0.066,0.157 0.024,0.039 0.043,0.086 0.043,0.105 0,0.033 -0.048,0.081 -0.08,0.079 -0.008,0 -0.13,-0.063 -0.27,-0.138 z m -1,-1.874 c -0.032,-0.015 -0.079,-0.049 -0.105,-0.076 -0.075,-0.0793 -0.092,-0.138 -0.092,-0.32 0,-0.157 -0.002,-0.163 -0.043,-0.216 -0.024,-0.03 -0.051,-0.085 -0.062,-0.124 -0.01,-0.038 -0.025,-0.067 -0.034,-0.064 -0.008,0.003 -0.089,0.025 -0.178,0.047 -0.16,0.041 -0.164,0.041 -0.193,0.014 -0.034,-0.031 -0.039,-0.079 -0.012,-0.114 0.01,-0.013 0.087,-0.042 0.172,-0.066 0.144,-0.039 0.153,-0.044 0.15,-0.078 -0.028,-0.273 -0.015,-0.332 0.101,-0.459 0.115,-0.126 0.163,-0.125 0.229,0.004 0.057,0.112 0.08,0.218 0.068,0.303 -0.008,0.056 -0.007,0.068 0.01,0.062 0.011,-0.004 0.074,-0.025 0.14,-0.047 0.119,-0.04 0.12,-0.04 0.104,-0.079 -0.009,-0.022 -0.016,-0.088 -0.016,-0.149 0,-0.13 0.038,-0.222 0.14,-0.328 0.107,-0.112 0.177,-0.081 0.252,0.11 0.032,0.081 0.038,0.115 0.031,0.175 -0.008,0.071 -0.008,0.074 0.022,0.065 0.04,-0.013 0.275,-0.121 0.275,-0.126 0,-0.002 -0.013,-0.039 -0.029,-0.081 -0.061,-0.161 -0.023,-0.358 0.094,-0.479 0.033,-0.035 0.072,-0.064 0.084,-0.064 0.07,0 0.176,0.174 0.204,0.336 0.009,0.052 0.018,0.097 0.02,0.099 0.004,0.006 0.21,-0.114 0.218,-0.128 0.004,-0.006 -0.005,-0.0272 -0.02,-0.046 -0.015,-0.019 -0.043,-0.064 -0.062,-0.1 -0.089,-0.169 -0.006,-0.496 0.126,-0.496 0.037,0 0.185,0.158 0.222,0.237 0.018,0.038 0.033,0.099 0.0348,0.136 0.002,0.049 0.008,0.065 0.022,0.059 0.024,-0.009 0.18,-0.126 0.18,-0.135 0,-0.004 -0.016,-0.028 -0.036,-0.054 -0.067,-0.087 -0.101,-0.184 -0.101,-0.288 0,-0.081 0.008,-0.112 0.05,-0.197 0.046,-0.091 0.055,-0.101 0.1,-0.105 0.043,-0.004 0.059,0.005 0.129,0.078 0.11,0.113 0.154,0.214 0.147,0.333 -0.003,0.05 -0.01,0.101 -0.017,0.113 -0.009,0.019 0.004,0.022 0.091,0.017 0.139,-0.008 0.228,0.024 0.33,0.117 0.06,0.055 0.08,0.083 0.08,0.113 0,0.037 -0.038,0.088 -0.066,0.088 -0.007,0 -0.023,0.009 -0.035,0.02 -0.078,0.067 -0.283,0.091 -0.39,0.046 -0.031,-0.013 -0.084,-0.05 -0.118,-0.084 l -0.061,-0.06 -0.085,0.064 c -0.047,0.035 -0.09,0.068 -0.097,0.074 -0.007,0.006 0.013,0.024 0.044,0.04 0.098,0.051 0.224,0.212 0.224,0.286 0,0.065 -0.177,0.123 -0.323,0.106 -0.117,-0.014 -0.243,-0.097 -0.298,-0.196 -0.002,-0.004 -0.174,0.0936 -0.196,0.11 -0.004,0.003 0.005,0.013 0.021,0.021 0.093,0.052 0.227,0.225 0.227,0.294 0,0.069 -0.211,0.127 -0.355,0.097 -0.102,-0.021 -0.197,-0.083 -0.243,-0.156 l -0.036,-0.058 -0.135,0.059 c -0.075,0.033 -0.135,0.063 -0.135,0.067 0,0.004 0.031,0.027 0.068,0.05 0.073,0.047 0.18,0.195 0.18,0.251 0,0.043 -0.03,0.072 -0.098,0.095 -0.074,0.024 -0.247,0.025 -0.316,0 -0.072,-0.025 -0.163,-0.107 -0.2,-0.179 -0.016,-0.031 -0.033,-0.055 -0.039,-0.056 -0.006,0 -0.078,0.024 -0.16,0.053 l -0.15,0.053 0.064,0.06 c 0.075,0.07 0.109,0.132 0.135,0.242 0.016,0.068 0.016,0.085 -0.003,0.113 -0.029,0.044 -0.079,0.054 -0.183,0.038 l -0.087,-0.014 v 0.134 c 0,0.123 0.003,0.136 0.035,0.167 0.027,0.026 0.058,0.035 0.135,0.041 0.054,0.004 0.108,0.014 0.118,0.022 0.03,0.023 0.023,0.11 -0.01,0.127 -0.046,0.025 -0.192,0.017 -0.256,-0.013 z m 0.048,-0.676 c -0.048,-0.072 -0.186,-0.155 -0.186,-0.111 0,0.05 0.117,0.143 0.181,0.143 0.025,0 0.025,-0.003 0.006,-0.032 z m 0.725,-0.291 c -0.037,-0.041 -0.109,-0.071 -0.174,-0.071 -0.048,0 -0.051,0.002 -0.036,0.03 0.022,0.041 0.094,0.071 0.173,0.071 h 0.064 l -0.028,-0.031 z m -0.963,-0.118 c 0.024,-0.034 0.03,-0.157 0.009,-0.208 -0.011,-0.028 -0.012,-0.027 -0.03,0.005 -0.032,0.06 -0.044,0.122 -0.035,0.179 0.01,0.064 0.023,0.069 0.055,0.023 z m 0.657,-0.214 c 0.022,-0.043 0.017,-0.184 -0.007,-0.199 -0.014,-0.009 -0.058,0.1 -0.058,0.143 0,0.048 0.016,0.098 0.03,0.098 0.007,0 0.022,-0.019 0.034,-0.042 z m 0.968,0.024 c -0.011,-0.032 -0.119,-0.0835 -0.176,-0.084 -0.067,0 -0.066,0.021 0.005,0.069 0.054,0.037 0.183,0.0477 0.172,0.015 z m -0.302,-0.388 c 0.018,-0.059 -0.003,-0.178 -0.031,-0.178 -0.026,0 -0.046,0.079 -0.038,0.15 0.013,0.115 0.039,0.126 0.069,0.028 z m 0.872,0.052 c -0.014,-0.047 -0.23,-0.114 -0.23,-0.072 0,0.015 0.059,0.069 0.088,0.08 0.045,0.017 0.149,0.011 0.143,-0.008 z m -0.325,-0.348 c 0.02,-0.032 0.009,-0.116 -0.024,-0.173 -0.018,-0.033 -0.039,-0.059 -0.045,-0.059 -0.021,0 -0.013,0.148 0.012,0.199 0.024,0.051 0.041,0.061 0.057,0.034 z m 0.877,-0.043 c 0.046,-0.018 0.036,-0.033 -0.042,-0.057 -0.063,-0.02 -0.171,-0.008 -0.171,0.02 0,0.044 0.134,0.067 0.213,0.037 z m -0.388,-0.376 c 0,-0.072 -0.047,-0.172 -0.073,-0.156 -0.024,0.015 -0.016,0.112 0.015,0.18 0.035,0.077 0.058,0.068 0.058,-0.024 z m -2.967,1.453 c -0.03,-0.023 -0.092,-0.206 -0.131,-0.387 -0.044,-0.201 -0.044,-0.5 0,-0.68 0.059,-0.239 0.182,-0.462 0.359,-0.648 0.249,-0.262 0.616,-0.46 0.97,-0.522 0.151,-0.027 0.46,-0.03 0.63,-0.006 0.253,0.035 0.543,0.125 0.772,0.24 0.105,0.053 0.131,0.087 0.103,0.138 -0.033,0.062 -0.062,0.062 -0.192,0.002 -0.173,-0.081 -0.392,-0.154 -0.576,-0.193 -0.192,-0.04 -0.56,-0.048 -0.728,-0.014 -0.491,0.098 -0.889,0.381 -1.087,0.774 -0.148,0.294 -0.157,0.716 -0.023,1.11 0.044,0.13 0.045,0.15 0.01,0.181 -0.032,0.029 -0.076,0.031 -0.108,0.006 z m 3.45,-0.199 c -0.036,-0.013 -0.062,-0.066 -0.05,-0.1 0.004,-0.012 0.019,-0.035 0.034,-0.051 0.069,-0.077 0.09,-0.211 0.05,-0.309 -0.032,-0.077 -0.028,-0.117 0.016,-0.146 0.034,-0.022 0.042,-0.023 0.076,-0.004 0.09,0.05 0.126,0.302 0.064,0.44 -0.039,0.087 -0.099,0.167 -0.133,0.175 -0.014,0.004 -0.04,0.002 -0.058,-0.005 z m -3.126,-0.568 c -0.073,-0.073 -0.008,-0.437 0.0989,-0.558 0.051,-0.058 0.145,-0.006 0.131,0.072 -0.004,0.0224 -0.026,0.083 -0.048,0.136 -0.037,0.086 -0.045,0.14 -0.05,0.324 0,0.021 -0.047,0.056 -0.074,0.056 -0.015,0 -0.041,-0.013 -0.057,-0.029 z m 0.388,-0.052 c -0.033,-0.033 -0.041,-0.101 -0.036,-0.284 0.005,-0.152 0.008,-0.165 0.04,-0.192 0.034,-0.028 0.079,-0.026 0.111,0.004 0.008,0.008 0.015,0.11 0.017,0.228 0.002,0.173 -0.002,0.22 -0.02,0.24 -0.027,0.032 -0.081,0.033 -0.111,0.003 z m 0.955,-0.584 c -0.082,-0.058 -0.196,-0.094 -0.298,-0.094 -0.071,0 -0.098,-0.006 -0.116,-0.027 -0.03,-0.033 -0.031,-0.075 -0.003,-0.113 0.018,-0.024 0.037,-0.028 0.135,-0.026 0.134,0.003 0.253,0.04 0.366,0.115 0.062,0.041 0.077,0.059 0.077,0.092 0,0.047 -0.04,0.09 -0.081,0.089 -0.0154,0 -0.051,-0.017 -0.079,-0.037 z m 2.31,-0.021 c 0,-0.028 0.003,-0.04 0.007,-0.026 0.004,0.014 0.004,0.037 0,0.051 -0.004,0.014 -0.007,0.002 -0.007,-0.026 z m -1.915,-0.229 c -0.107,-0.072 -0.22,-0.109 -0.351,-0.115 -0.06,-0.003 -0.114,-0.005 -0.12,-0.006 -0.022,-0.003 -0.056,-0.049 -0.056,-0.075 0,-0.015 0.013,-0.041 0.029,-0.057 0.059,-0.059 0.324,-0.028 0.494,0.057 0.158,0.08 0.208,0.146 0.159,0.208 -0.036,0.046 -0.074,0.043 -0.156,-0.012 z"
        />
    </g>
    <g id="coin2">
        <circle
            cx="12.1"
            cy="82"
            r="3"
            style="
                fill:#ffffff;
                stroke:none
            "
        />
        <path
            style="
                fill:#000000;
                stroke:none
            "
            d="m 12.090,84.459 c -0.413,-0.223 -0.973,-0.464 -1.255,-0.541 -0.126,-0.034 -0.340,-0.034 -0.474,0 -0.056,0.014 -0.157,0.052 -0.224,0.084 -0.131,0.062 -0.178,0.065 -0.207,0.011 -0.038,-0.072 0.035,-0.133 0.250,-0.210 l 0.137,-0.049 0.113,-0.283 c 0.062,-0.155 0.117,-0.304 0.122,-0.329 0.005,-0.029 -0.025,-0.253 -0.080,-0.581 -0.067,-0.402 -0.085,-0.541 -0.074,-0.563 0.033,-0.061 0.138,-0.048 0.153,0.019 0.004,0.018 0.044,0.253 0.089,0.521 0.102,0.613 0.102,0.609 -0.023,0.920 -0.050,0.124 -0.094,0.234 -0.098,0.242 -0.005,0.011 0.043,0.019 0.144,0.024 0.124,0.006 0.184,0.019 0.340,0.070 0.253,0.083 0.586,0.222 0.903,0.379 l 0.261,0.129 -0.010,-0.087 c -0.015,-0.131 -0.011,-0.390 0.008,-0.509 0.009,-0.058 0.011,-0.110 0.004,-0.116 -0.007,-0.007 -0.081,-0.029 -0.166,-0.051 -0.225,-0.059 -0.308,-0.115 -0.379,-0.255 -0.028,-0.055 -0.073,-0.277 -0.073,-0.361 0,-0.061 0.051,-0.099 0.107,-0.078 0.041,0.016 0.048,0.035 0.088,0.249 0.037,0.198 0.062,0.218 0.387,0.307 0.110,0.030 0.333,0.092 0.496,0.138 0.331,0.093 0.363,0.094 0.448,0.020 0.060,-0.053 0.083,-0.124 0.071,-0.225 -0.012,-0.100 0.017,-0.233 0.058,-0.266 0.024,-0.019 0.032,-0.042 0.032,-0.088 v -0.062 l -0.084,0.010 c -0.100,0.011 -0.128,-0.005 -0.128,-0.077 0,-0.063 0.032,-0.078 0.252,-0.114 0.086,-0.014 0.157,-0.030 0.157,-0.036 0,-0.005 -0.026,-0.035 -0.058,-0.067 -0.062,-0.061 -0.076,-0.119 -0.037,-0.158 0.018,-0.018 0.224,-0.054 0.312,-0.054 0.018,0 0.032,-0.006 0.032,-0.014 0,-0.008 -0.079,-0.145 -0.175,-0.305 l -0.175,-0.291 v -0.135 -0.139 l -0.08,0.028 c -0.044,0.015 -0.092,0.028 -0.107,0.028 -0.033,0 -0.076,-0.044 -0.076,-0.079 0,-0.033 0.026,-0.082 0.045,-0.082 0.008,0 0.05,-0.014 0.096,-0.031 0.129,-0.048 0.226,-0.149 0.226,-0.235 0,-0.093 0.107,-0.135 0.155,-0.062 0.021,0.032 0.022,0.048 0.007,0.116 -0.01,0.043 -0.037,0.106 -0.062,0.139 l -0.044,0.061 0.005,0.177 0.005,0.177 0.208,0.34 c 0.117,0.192 0.208,0.356 0.208,0.376 0,0.048 -0.047,0.075 -0.153,0.086 -0.048,0.005 -0.109,0.013 -0.135,0.018 l -0.047,0.008 0.029,0.041 c 0.035,0.049 0.037,0.103 0.007,0.161 -0.023,0.045 -0.065,0.061 -0.203,0.081 -0.059,0.008 -0.067,0.013 -0.044,0.025 0.015,0.008 0.049,0.035 0.075,0.059 0.08,0.075 0.06,0.149 -0.053,0.206 l -0.071,0.0359 -0.006,0.136 c -0.005,0.102 -0.014,0.151 -0.038,0.197 -0.067,0.13 -0.191,0.216 -0.336,0.233 -0.057,0.007 -0.116,-0.005 -0.303,-0.058 -0.319,-0.091 -0.287,-0.093 -0.308,0.019 -0.026,0.136 -0.024,0.413 0.003,0.519 0.012,0.048 0.042,0.119 0.066,0.157 0.024,0.039 0.043,0.086 0.043,0.105 0,0.033 -0.048,0.081 -0.08,0.079 -0.008,0 -0.13,-0.063 -0.27,-0.138 z m -1,-1.874 c -0.032,-0.015 -0.079,-0.049 -0.105,-0.076 -0.075,-0.0793 -0.092,-0.138 -0.092,-0.32 0,-0.157 -0.002,-0.163 -0.043,-0.216 -0.024,-0.03 -0.051,-0.085 -0.062,-0.124 -0.01,-0.038 -0.025,-0.067 -0.034,-0.064 -0.008,0.003 -0.089,0.025 -0.178,0.047 -0.16,0.041 -0.164,0.041 -0.193,0.014 -0.034,-0.031 -0.039,-0.079 -0.012,-0.114 0.01,-0.013 0.087,-0.042 0.172,-0.066 0.144,-0.039 0.153,-0.044 0.15,-0.078 -0.028,-0.273 -0.015,-0.332 0.101,-0.459 0.115,-0.126 0.163,-0.125 0.229,0.004 0.057,0.112 0.08,0.218 0.068,0.303 -0.008,0.056 -0.007,0.068 0.01,0.062 0.011,-0.004 0.074,-0.025 0.14,-0.047 0.119,-0.04 0.12,-0.04 0.104,-0.079 -0.009,-0.022 -0.016,-0.088 -0.016,-0.149 0,-0.13 0.038,-0.222 0.14,-0.328 0.107,-0.112 0.177,-0.081 0.252,0.11 0.032,0.081 0.038,0.115 0.031,0.175 -0.008,0.071 -0.008,0.074 0.022,0.065 0.04,-0.013 0.275,-0.121 0.275,-0.126 0,-0.002 -0.013,-0.039 -0.029,-0.081 -0.061,-0.161 -0.023,-0.358 0.094,-0.479 0.033,-0.035 0.072,-0.064 0.084,-0.064 0.07,0 0.176,0.174 0.204,0.336 0.009,0.052 0.018,0.097 0.02,0.099 0.004,0.006 0.21,-0.114 0.218,-0.128 0.004,-0.006 -0.005,-0.0272 -0.02,-0.046 -0.015,-0.019 -0.043,-0.064 -0.062,-0.1 -0.089,-0.169 -0.006,-0.496 0.126,-0.496 0.037,0 0.185,0.158 0.222,0.237 0.018,0.038 0.033,0.099 0.0348,0.136 0.002,0.049 0.008,0.065 0.022,0.059 0.024,-0.009 0.18,-0.126 0.18,-0.135 0,-0.004 -0.016,-0.028 -0.036,-0.054 -0.067,-0.087 -0.101,-0.184 -0.101,-0.288 0,-0.081 0.008,-0.112 0.05,-0.197 0.046,-0.091 0.055,-0.101 0.1,-0.105 0.043,-0.004 0.059,0.005 0.129,0.078 0.11,0.113 0.154,0.214 0.147,0.333 -0.003,0.05 -0.01,0.101 -0.017,0.113 -0.009,0.019 0.004,0.022 0.091,0.017 0.139,-0.008 0.228,0.024 0.33,0.117 0.06,0.055 0.08,0.083 0.08,0.113 0,0.037 -0.038,0.088 -0.066,0.088 -0.007,0 -0.023,0.009 -0.035,0.02 -0.078,0.067 -0.283,0.091 -0.39,0.046 -0.031,-0.013 -0.084,-0.05 -0.118,-0.084 l -0.061,-0.06 -0.085,0.064 c -0.047,0.035 -0.09,0.068 -0.097,0.074 -0.007,0.006 0.013,0.024 0.044,0.04 0.098,0.051 0.224,0.212 0.224,0.286 0,0.065 -0.177,0.123 -0.323,0.106 -0.117,-0.014 -0.243,-0.097 -0.298,-0.196 -0.002,-0.004 -0.174,0.0936 -0.196,0.11 -0.004,0.003 0.005,0.013 0.021,0.021 0.093,0.052 0.227,0.225 0.227,0.294 0,0.069 -0.211,0.127 -0.355,0.097 -0.102,-0.021 -0.197,-0.083 -0.243,-0.156 l -0.036,-0.058 -0.135,0.059 c -0.075,0.033 -0.135,0.063 -0.135,0.067 0,0.004 0.031,0.027 0.068,0.05 0.073,0.047 0.18,0.195 0.18,0.251 0,0.043 -0.03,0.072 -0.098,0.095 -0.074,0.024 -0.247,0.025 -0.316,0 -0.072,-0.025 -0.163,-0.107 -0.2,-0.179 -0.016,-0.031 -0.033,-0.055 -0.039,-0.056 -0.006,0 -0.078,0.024 -0.16,0.053 l -0.15,0.053 0.064,0.06 c 0.075,0.07 0.109,0.132 0.135,0.242 0.016,0.068 0.016,0.085 -0.003,0.113 -0.029,0.044 -0.079,0.054 -0.183,0.038 l -0.087,-0.014 v 0.134 c 0,0.123 0.003,0.136 0.035,0.167 0.027,0.026 0.058,0.035 0.135,0.041 0.054,0.004 0.108,0.014 0.118,0.022 0.03,0.023 0.023,0.11 -0.01,0.127 -0.046,0.025 -0.192,0.017 -0.256,-0.013 z m 0.048,-0.676 c -0.048,-0.072 -0.186,-0.155 -0.186,-0.111 0,0.05 0.117,0.143 0.181,0.143 0.025,0 0.025,-0.003 0.006,-0.032 z m 0.725,-0.291 c -0.037,-0.041 -0.109,-0.071 -0.174,-0.071 -0.048,0 -0.051,0.002 -0.036,0.03 0.022,0.041 0.094,0.071 0.173,0.071 h 0.064 l -0.028,-0.031 z m -0.963,-0.118 c 0.024,-0.034 0.03,-0.157 0.009,-0.208 -0.011,-0.028 -0.012,-0.027 -0.03,0.005 -0.032,0.06 -0.044,0.122 -0.035,0.179 0.01,0.064 0.023,0.069 0.055,0.023 z m 0.657,-0.214 c 0.022,-0.043 0.017,-0.184 -0.007,-0.199 -0.014,-0.009 -0.058,0.1 -0.058,0.143 0,0.048 0.016,0.098 0.03,0.098 0.007,0 0.022,-0.019 0.034,-0.042 z m 0.968,0.024 c -0.011,-0.032 -0.119,-0.0835 -0.176,-0.084 -0.067,0 -0.066,0.021 0.005,0.069 0.054,0.037 0.183,0.0477 0.172,0.015 z m -0.302,-0.388 c 0.018,-0.059 -0.003,-0.178 -0.031,-0.178 -0.026,0 -0.046,0.079 -0.038,0.15 0.013,0.115 0.039,0.126 0.069,0.028 z m 0.872,0.052 c -0.014,-0.047 -0.23,-0.114 -0.23,-0.072 0,0.015 0.059,0.069 0.088,0.08 0.045,0.017 0.149,0.011 0.143,-0.008 z m -0.325,-0.348 c 0.02,-0.032 0.009,-0.116 -0.024,-0.173 -0.018,-0.033 -0.039,-0.059 -0.045,-0.059 -0.021,0 -0.013,0.148 0.012,0.199 0.024,0.051 0.041,0.061 0.057,0.034 z m 0.877,-0.043 c 0.046,-0.018 0.036,-0.033 -0.042,-0.057 -0.063,-0.02 -0.171,-0.008 -0.171,0.02 0,0.044 0.134,0.067 0.213,0.037 z m -0.388,-0.376 c 0,-0.072 -0.047,-0.172 -0.073,-0.156 -0.024,0.015 -0.016,0.112 0.015,0.18 0.035,0.077 0.058,0.068 0.058,-0.024 z m -2.967,1.453 c -0.03,-0.023 -0.092,-0.206 -0.131,-0.387 -0.044,-0.201 -0.044,-0.5 0,-0.68 0.059,-0.239 0.182,-0.462 0.359,-0.648 0.249,-0.262 0.616,-0.46 0.97,-0.522 0.151,-0.027 0.46,-0.03 0.63,-0.006 0.253,0.035 0.543,0.125 0.772,0.24 0.105,0.053 0.131,0.087 0.103,0.138 -0.033,0.062 -0.062,0.062 -0.192,0.002 -0.173,-0.081 -0.392,-0.154 -0.576,-0.193 -0.192,-0.04 -0.56,-0.048 -0.728,-0.014 -0.491,0.098 -0.889,0.381 -1.087,0.774 -0.148,0.294 -0.157,0.716 -0.023,1.11 0.044,0.13 0.045,0.15 0.01,0.181 -0.032,0.029 -0.076,0.031 -0.108,0.006 z m 3.45,-0.199 c -0.036,-0.013 -0.062,-0.066 -0.05,-0.1 0.004,-0.012 0.019,-0.035 0.034,-0.051 0.069,-0.077 0.09,-0.211 0.05,-0.309 -0.032,-0.077 -0.028,-0.117 0.016,-0.146 0.034,-0.022 0.042,-0.023 0.076,-0.004 0.09,0.05 0.126,0.302 0.064,0.44 -0.039,0.087 -0.099,0.167 -0.133,0.175 -0.014,0.004 -0.04,0.002 -0.058,-0.005 z m -3.126,-0.568 c -0.073,-0.073 -0.008,-0.437 0.0989,-0.558 0.051,-0.058 0.145,-0.006 0.131,0.072 -0.004,0.0224 -0.026,0.083 -0.048,0.136 -0.037,0.086 -0.045,0.14 -0.05,0.324 0,0.021 -0.047,0.056 -0.074,0.056 -0.015,0 -0.041,-0.013 -0.057,-0.029 z m 0.388,-0.052 c -0.033,-0.033 -0.041,-0.101 -0.036,-0.284 0.005,-0.152 0.008,-0.165 0.04,-0.192 0.034,-0.028 0.079,-0.026 0.111,0.004 0.008,0.008 0.015,0.11 0.017,0.228 0.002,0.173 -0.002,0.22 -0.02,0.24 -0.027,0.032 -0.081,0.033 -0.111,0.003 z m 0.955,-0.584 c -0.082,-0.058 -0.196,-0.094 -0.298,-0.094 -0.071,0 -0.098,-0.006 -0.116,-0.027 -0.03,-0.033 -0.031,-0.075 -0.003,-0.113 0.018,-0.024 0.037,-0.028 0.135,-0.026 0.134,0.003 0.253,0.04 0.366,0.115 0.062,0.041 0.077,0.059 0.077,0.092 0,0.047 -0.04,0.09 -0.081,0.089 -0.0154,0 -0.051,-0.017 -0.079,-0.037 z m 2.31,-0.021 c 0,-0.028 0.003,-0.04 0.007,-0.026 0.004,0.014 0.004,0.037 0,0.051 -0.004,0.014 -0.007,0.002 -0.007,-0.026 z m -1.915,-0.229 c -0.107,-0.072 -0.22,-0.109 -0.351,-0.115 -0.06,-0.003 -0.114,-0.005 -0.12,-0.006 -0.022,-0.003 -0.056,-0.049 -0.056,-0.075 0,-0.015 0.013,-0.041 0.029,-0.057 0.059,-0.059 0.324,-0.028 0.494,0.057 0.158,0.08 0.208,0.146 0.159,0.208 -0.036,0.046 -0.074,0.043 -0.156,-0.012 z"
        />
    </g>
    <g id="coin3">
        <circle
            cx="18.6"
            cy="82"
            r="3"
            style="
                fill:#ffffff;
                stroke:none
            "
        />
        <path
            style="
                fill:#000000;
                stroke:none
            "
            d="m 18.590,84.459 c -0.413,-0.223 -0.973,-0.464 -1.255,-0.541 -0.126,-0.034 -0.340,-0.034 -0.474,0 -0.056,0.014 -0.157,0.052 -0.224,0.084 -0.131,0.062 -0.178,0.065 -0.207,0.011 -0.038,-0.072 0.035,-0.133 0.250,-0.210 l 0.137,-0.049 0.113,-0.283 c 0.062,-0.155 0.117,-0.304 0.122,-0.329 0.005,-0.029 -0.025,-0.253 -0.080,-0.581 -0.067,-0.402 -0.085,-0.541 -0.074,-0.563 0.033,-0.061 0.138,-0.048 0.153,0.019 0.004,0.018 0.044,0.253 0.089,0.521 0.102,0.613 0.102,0.609 -0.023,0.920 -0.050,0.124 -0.094,0.234 -0.098,0.242 -0.005,0.011 0.043,0.019 0.144,0.024 0.124,0.006 0.184,0.019 0.340,0.070 0.253,0.083 0.586,0.222 0.903,0.379 l 0.261,0.129 -0.010,-0.087 c -0.015,-0.131 -0.011,-0.390 0.008,-0.509 0.009,-0.058 0.011,-0.110 0.004,-0.116 -0.007,-0.007 -0.081,-0.029 -0.166,-0.051 -0.225,-0.059 -0.308,-0.115 -0.379,-0.255 -0.028,-0.055 -0.073,-0.277 -0.073,-0.361 0,-0.061 0.051,-0.099 0.107,-0.078 0.041,0.016 0.048,0.035 0.088,0.249 0.037,0.198 0.062,0.218 0.387,0.307 0.110,0.030 0.333,0.092 0.496,0.138 0.331,0.093 0.363,0.094 0.448,0.020 0.060,-0.053 0.083,-0.124 0.071,-0.225 -0.012,-0.100 0.017,-0.233 0.058,-0.266 0.024,-0.019 0.032,-0.042 0.032,-0.088 v -0.062 l -0.084,0.010 c -0.100,0.011 -0.128,-0.005 -0.128,-0.077 0,-0.063 0.032,-0.078 0.252,-0.114 0.086,-0.014 0.157,-0.030 0.157,-0.036 0,-0.005 -0.026,-0.035 -0.058,-0.067 -0.062,-0.061 -0.076,-0.119 -0.037,-0.158 0.018,-0.018 0.224,-0.054 0.312,-0.054 0.018,0 0.032,-0.006 0.032,-0.014 0,-0.008 -0.079,-0.145 -0.175,-0.305 l -0.175,-0.291 v -0.135 -0.139 l -0.08,0.028 c -0.044,0.015 -0.092,0.028 -0.107,0.028 -0.033,0 -0.076,-0.044 -0.076,-0.079 0,-0.033 0.026,-0.082 0.045,-0.082 0.008,0 0.05,-0.014 0.096,-0.031 0.129,-0.048 0.226,-0.149 0.226,-0.235 0,-0.093 0.107,-0.135 0.155,-0.062 0.021,0.032 0.022,0.048 0.007,0.116 -0.01,0.043 -0.037,0.106 -0.062,0.139 l -0.044,0.061 0.005,0.177 0.005,0.177 0.208,0.34 c 0.117,0.192 0.208,0.356 0.208,0.376 0,0.048 -0.047,0.075 -0.153,0.086 -0.048,0.005 -0.109,0.013 -0.135,0.018 l -0.047,0.008 0.029,0.041 c 0.035,0.049 0.037,0.103 0.007,0.161 -0.023,0.045 -0.065,0.061 -0.203,0.081 -0.059,0.008 -0.067,0.013 -0.044,0.025 0.015,0.008 0.049,0.035 0.075,0.059 0.08,0.075 0.06,0.149 -0.053,0.206 l -0.071,0.0359 -0.006,0.136 c -0.005,0.102 -0.014,0.151 -0.038,0.197 -0.067,0.13 -0.191,0.216 -0.336,0.233 -0.057,0.007 -0.116,-0.005 -0.303,-0.058 -0.319,-0.091 -0.287,-0.093 -0.308,0.019 -0.026,0.136 -0.024,0.413 0.003,0.519 0.012,0.048 0.042,0.119 0.066,0.157 0.024,0.039 0.043,0.086 0.043,0.105 0,0.033 -0.048,0.081 -0.08,0.079 -0.008,0 -0.13,-0.063 -0.27,-0.138 z m -1,-1.874 c -0.032,-0.015 -0.079,-0.049 -0.105,-0.076 -0.075,-0.0793 -0.092,-0.138 -0.092,-0.32 0,-0.157 -0.002,-0.163 -0.043,-0.216 -0.024,-0.03 -0.051,-0.085 -0.062,-0.124 -0.01,-0.038 -0.025,-0.067 -0.034,-0.064 -0.008,0.003 -0.089,0.025 -0.178,0.047 -0.16,0.041 -0.164,0.041 -0.193,0.014 -0.034,-0.031 -0.039,-0.079 -0.012,-0.114 0.01,-0.013 0.087,-0.042 0.172,-0.066 0.144,-0.039 0.153,-0.044 0.15,-0.078 -0.028,-0.273 -0.015,-0.332 0.101,-0.459 0.115,-0.126 0.163,-0.125 0.229,0.004 0.057,0.112 0.08,0.218 0.068,0.303 -0.008,0.056 -0.007,0.068 0.01,0.062 0.011,-0.004 0.074,-0.025 0.14,-0.047 0.119,-0.04 0.12,-0.04 0.104,-0.079 -0.009,-0.022 -0.016,-0.088 -0.016,-0.149 0,-0.13 0.038,-0.222 0.14,-0.328 0.107,-0.112 0.177,-0.081 0.252,0.11 0.032,0.081 0.038,0.115 0.031,0.175 -0.008,0.071 -0.008,0.074 0.022,0.065 0.04,-0.013 0.275,-0.121 0.275,-0.126 0,-0.002 -0.013,-0.039 -0.029,-0.081 -0.061,-0.161 -0.023,-0.358 0.094,-0.479 0.033,-0.035 0.072,-0.064 0.084,-0.064 0.07,0 0.176,0.174 0.204,0.336 0.009,0.052 0.018,0.097 0.02,0.099 0.004,0.006 0.21,-0.114 0.218,-0.128 0.004,-0.006 -0.005,-0.0272 -0.02,-0.046 -0.015,-0.019 -0.043,-0.064 -0.062,-0.1 -0.089,-0.169 -0.006,-0.496 0.126,-0.496 0.037,0 0.185,0.158 0.222,0.237 0.018,0.038 0.033,0.099 0.0348,0.136 0.002,0.049 0.008,0.065 0.022,0.059 0.024,-0.009 0.18,-0.126 0.18,-0.135 0,-0.004 -0.016,-0.028 -0.036,-0.054 -0.067,-0.087 -0.101,-0.184 -0.101,-0.288 0,-0.081 0.008,-0.112 0.05,-0.197 0.046,-0.091 0.055,-0.101 0.1,-0.105 0.043,-0.004 0.059,0.005 0.129,0.078 0.11,0.113 0.154,0.214 0.147,0.333 -0.003,0.05 -0.01,0.101 -0.017,0.113 -0.009,0.019 0.004,0.022 0.091,0.017 0.139,-0.008 0.228,0.024 0.33,0.117 0.06,0.055 0.08,0.083 0.08,0.113 0,0.037 -0.038,0.088 -0.066,0.088 -0.007,0 -0.023,0.009 -0.035,0.02 -0.078,0.067 -0.283,0.091 -0.39,0.046 -0.031,-0.013 -0.084,-0.05 -0.118,-0.084 l -0.061,-0.06 -0.085,0.064 c -0.047,0.035 -0.09,0.068 -0.097,0.074 -0.007,0.006 0.013,0.024 0.044,0.04 0.098,0.051 0.224,0.212 0.224,0.286 0,0.065 -0.177,0.123 -0.323,0.106 -0.117,-0.014 -0.243,-0.097 -0.298,-0.196 -0.002,-0.004 -0.174,0.0936 -0.196,0.11 -0.004,0.003 0.005,0.013 0.021,0.021 0.093,0.052 0.227,0.225 0.227,0.294 0,0.069 -0.211,0.127 -0.355,0.097 -0.102,-0.021 -0.197,-0.083 -0.243,-0.156 l -0.036,-0.058 -0.135,0.059 c -0.075,0.033 -0.135,0.063 -0.135,0.067 0,0.004 0.031,0.027 0.068,0.05 0.073,0.047 0.18,0.195 0.18,0.251 0,0.043 -0.03,0.072 -0.098,0.095 -0.074,0.024 -0.247,0.025 -0.316,0 -0.072,-0.025 -0.163,-0.107 -0.2,-0.179 -0.016,-0.031 -0.033,-0.055 -0.039,-0.056 -0.006,0 -0.078,0.024 -0.16,0.053 l -0.15,0.053 0.064,0.06 c 0.075,0.07 0.109,0.132 0.135,0.242 0.016,0.068 0.016,0.085 -0.003,0.113 -0.029,0.044 -0.079,0.054 -0.183,0.038 l -0.087,-0.014 v 0.134 c 0,0.123 0.003,0.136 0.035,0.167 0.027,0.026 0.058,0.035 0.135,0.041 0.054,0.004 0.108,0.014 0.118,0.022 0.03,0.023 0.023,0.11 -0.01,0.127 -0.046,0.025 -0.192,0.017 -0.256,-0.013 z m 0.048,-0.676 c -0.048,-0.072 -0.186,-0.155 -0.186,-0.111 0,0.05 0.117,0.143 0.181,0.143 0.025,0 0.025,-0.003 0.006,-0.032 z m 0.725,-0.291 c -0.037,-0.041 -0.109,-0.071 -0.174,-0.071 -0.048,0 -0.051,0.002 -0.036,0.03 0.022,0.041 0.094,0.071 0.173,0.071 h 0.064 l -0.028,-0.031 z m -0.963,-0.118 c 0.024,-0.034 0.03,-0.157 0.009,-0.208 -0.011,-0.028 -0.012,-0.027 -0.03,0.005 -0.032,0.06 -0.044,0.122 -0.035,0.179 0.01,0.064 0.023,0.069 0.055,0.023 z m 0.657,-0.214 c 0.022,-0.043 0.017,-0.184 -0.007,-0.199 -0.014,-0.009 -0.058,0.1 -0.058,0.143 0,0.048 0.016,0.098 0.03,0.098 0.007,0 0.022,-0.019 0.034,-0.042 z m 0.968,0.024 c -0.011,-0.032 -0.119,-0.0835 -0.176,-0.084 -0.067,0 -0.066,0.021 0.005,0.069 0.054,0.037 0.183,0.0477 0.172,0.015 z m -0.302,-0.388 c 0.018,-0.059 -0.003,-0.178 -0.031,-0.178 -0.026,0 -0.046,0.079 -0.038,0.15 0.013,0.115 0.039,0.126 0.069,0.028 z m 0.872,0.052 c -0.014,-0.047 -0.23,-0.114 -0.23,-0.072 0,0.015 0.059,0.069 0.088,0.08 0.045,0.017 0.149,0.011 0.143,-0.008 z m -0.325,-0.348 c 0.02,-0.032 0.009,-0.116 -0.024,-0.173 -0.018,-0.033 -0.039,-0.059 -0.045,-0.059 -0.021,0 -0.013,0.148 0.012,0.199 0.024,0.051 0.041,0.061 0.057,0.034 z m 0.877,-0.043 c 0.046,-0.018 0.036,-0.033 -0.042,-0.057 -0.063,-0.02 -0.171,-0.008 -0.171,0.02 0,0.044 0.134,0.067 0.213,0.037 z m -0.388,-0.376 c 0,-0.072 -0.047,-0.172 -0.073,-0.156 -0.024,0.015 -0.016,0.112 0.015,0.18 0.035,0.077 0.058,0.068 0.058,-0.024 z m -2.967,1.453 c -0.03,-0.023 -0.092,-0.206 -0.131,-0.387 -0.044,-0.201 -0.044,-0.5 0,-0.68 0.059,-0.239 0.182,-0.462 0.359,-0.648 0.249,-0.262 0.616,-0.46 0.97,-0.522 0.151,-0.027 0.46,-0.03 0.63,-0.006 0.253,0.035 0.543,0.125 0.772,0.24 0.105,0.053 0.131,0.087 0.103,0.138 -0.033,0.062 -0.062,0.062 -0.192,0.002 -0.173,-0.081 -0.392,-0.154 -0.576,-0.193 -0.192,-0.04 -0.56,-0.048 -0.728,-0.014 -0.491,0.098 -0.889,0.381 -1.087,0.774 -0.148,0.294 -0.157,0.716 -0.023,1.11 0.044,0.13 0.045,0.15 0.01,0.181 -0.032,0.029 -0.076,0.031 -0.108,0.006 z m 3.45,-0.199 c -0.036,-0.013 -0.062,-0.066 -0.05,-0.1 0.004,-0.012 0.019,-0.035 0.034,-0.051 0.069,-0.077 0.09,-0.211 0.05,-0.309 -0.032,-0.077 -0.028,-0.117 0.016,-0.146 0.034,-0.022 0.042,-0.023 0.076,-0.004 0.09,0.05 0.126,0.302 0.064,0.44 -0.039,0.087 -0.099,0.167 -0.133,0.175 -0.014,0.004 -0.04,0.002 -0.058,-0.005 z m -3.126,-0.568 c -0.073,-0.073 -0.008,-0.437 0.0989,-0.558 0.051,-0.058 0.145,-0.006 0.131,0.072 -0.004,0.0224 -0.026,0.083 -0.048,0.136 -0.037,0.086 -0.045,0.14 -0.05,0.324 0,0.021 -0.047,0.056 -0.074,0.056 -0.015,0 -0.041,-0.013 -0.057,-0.029 z m 0.388,-0.052 c -0.033,-0.033 -0.041,-0.101 -0.036,-0.284 0.005,-0.152 0.008,-0.165 0.04,-0.192 0.034,-0.028 0.079,-0.026 0.111,0.004 0.008,0.008 0.015,0.11 0.017,0.228 0.002,0.173 -0.002,0.22 -0.02,0.24 -0.027,0.032 -0.081,0.033 -0.111,0.003 z m 0.955,-0.584 c -0.082,-0.058 -0.196,-0.094 -0.298,-0.094 -0.071,0 -0.098,-0.006 -0.116,-0.027 -0.03,-0.033 -0.031,-0.075 -0.003,-0.113 0.018,-0.024 0.037,-0.028 0.135,-0.026 0.134,0.003 0.253,0.04 0.366,0.115 0.062,0.041 0.077,0.059 0.077,0.092 0,0.047 -0.04,0.09 -0.081,0.089 -0.0154,0 -0.051,-0.017 -0.079,-0.037 z m 2.31,-0.021 c 0,-0.028 0.003,-0.04 0.007,-0.026 0.004,0.014 0.004,0.037 0,0.051 -0.004,0.014 -0.007,0.002 -0.007,-0.026 z m -1.915,-0.229 c -0.107,-0.072 -0.22,-0.109 -0.351,-0.115 -0.06,-0.003 -0.114,-0.005 -0.12,-0.006 -0.022,-0.003 -0.056,-0.049 -0.056,-0.075 0,-0.015 0.013,-0.041 0.029,-0.057 0.059,-0.059 0.324,-0.028 0.494,0.057 0.158,0.08 0.208,0.146 0.159,0.208 -0.036,0.046 -0.074,0.043 -0.156,-0.012 z"
        />
    </g>
    <text
        id="text"
        x="33"
        y="50"
        style="
            font-family:FreeMono,monospace;
            font-size:3px;
            text-anchor:middle;
            fill:#ffffff;
            stroke:#000000;
            stroke-width:0.02px
        "
    >
        <tspan x="33" y="50">Upon completion, the</tspan>
        <tspan x="33" y="54">game ends immediately.</tspan>
        <tspan x="33" y="58">Score as usual.</tspan>
    </text>
</svg>