<svg
    xmlns="http://www.w3.org/2000/svg" 
    width="62"
    height="87"
    viewbox="0 0 62 87"
>
    <rect
        id="card"
        x="0.5"
        y="0.5"
        rx="3"
        ry="3"
        width="61"
        height="86"
        style="
            fill:#995522;
            stroke:black;
            stroke-width:1px
        "
    />
    <g id="value">
        <circle
            cx="57"
            cy="12"
            r="2.5"
            style="
                fill:#ffffff;
                stroke:none
            "
        />
    </g>
    <path
        id="role-symbol"
        d="m 5.514,19.951 c -0.009,-0.004 -0.156,-0.161 -0.327,-0.350 -0.341,-0.377 -0.346,-0.385 -0.324,-0.504 0.025,-0.133 0.114,-0.527 0.127,-0.558 0.021,-0.052 0.115,-0.135 0.346,-0.302 0.203,-0.148 0.220,-0.157 0.274,-0.157 0.310,0.120 0.672,0.426 0.890,0.686 -0.214,0.285 -0.805,0.956 -0.986,1.185 z m 0.074,-0.627 c 0.116,-0.205 0.166,-0.272 0.328,-0.438 0.087,-0.089 0.131,-0.142 0.131,-0.161 0,-0.018 -0.027,-0.053 -0.078,-0.101 -0.114,-0.106 -0.165,-0.139 -0.201,-0.130 -0.021,0.005 -0.108,0.110 -0.286,0.344 -0.141,0.185 -0.260,0.350 -0.264,0.366 -0.011,0.043 0.010,0.076 0.117,0.185 0.136,0.138 0.138,0.138 0.253,-0.066 z m -1.066,-0.345 0.009,-0.087 -0.085,-0.011 -0.085,-0.011 0.004,-0.090 0.004,-0.090 -0.041,-0.007 c -0.023,-0.004 -0.061,-0.008 -0.085,-0.010 l -0.044,-0.003 0.004,-0.088 0.004,-0.088 -0.083,-0.008 c -0.046,-0.004 -0.085,-0.009 -0.086,-0.011 -0.002,-0.002 0.000,-0.041 0.006,-0.087 l 0.009,-0.084 -0.086,-0.009 -0.086,-0.009 0.007,-0.085 c 0.008,-0.096 0.010,-0.094 -0.103,-0.101 l -0.056,-0.003 0.004,-0.089 0.004,-0.089 -0.087,-0.009 -0.087,-0.009 0.005,-0.043 c 0.017,-0.140 0.020,-0.126 -0.030,-0.135 -0.025,-0.004 -0.065,-0.008 -0.088,-0.008 l -0.042,0.000 0.008,-0.086 c 0.009,-0.097 0.006,-0.101 -0.080,-0.101 -0.083,0.000 -0.086,-0.004 -0.078,-0.101 l 0.007,-0.086 -0.036,0.000 c -0.020,0.000 -0.058,-0.004 -0.084,-0.008 l -0.048,-0.008 0.006,-0.084 0.006,-0.084 -0.045,-0.007 c -0.025,-0.004 -0.064,-0.008 -0.086,-0.008 L 2.933,17.146 2.941,17.054 2.950,16.962 2.868,16.957 C 2.823,16.954 2.784,16.949 2.782,16.946 c -0.003,-0.003 -0.001,-0.043 0.003,-0.088 l 0.007,-0.083 -0.086,-0.009 -0.086,-0.009 0.008,-0.085 0.008,-0.085 -0.053,-0.007 C 2.554,16.576 2.516,16.572 2.499,16.570 2.469,16.567 2.468,16.565 2.472,16.476 l 0.004,-0.090 -0.054,0.000 c -0.030,0.000 -0.067,-0.004 -0.084,-0.008 -0.028,-0.008 -0.029,-0.012 -0.024,-0.092 l 0.006,-0.084 -0.087,-0.009 -0.087,-0.009 0.008,-0.085 0.008,-0.085 -0.041,-0.007 c -0.023,-0.004 -0.061,-0.008 -0.085,-0.010 l -0.044,-0.003 v -0.093 -0.093 l -0.044,-0.003 c -0.024,-0.002 -0.062,-0.006 -0.086,-0.010 l -0.042,-0.007 0.008,-0.085 0.008,-0.085 -0.082,-0.009 c -0.045,-0.005 -0.082,-0.013 -0.082,-0.017 0.114,-0.121 0.465,-0.516 0.573,-0.477 1.539,1.314 1.931,1.659 3.312,2.859 l -0.043,0.014 c -0.404,0.096 -0.729,0.497 -0.697,0.805 -0.030,0.135 -0.056,0.248 -0.059,0.251 -0.003,0.002 -0.060,0.008 -0.128,0.013 l -0.123,0.009 z"
        style="fill:#ffffff;stroke:#000000;stroke-width:0.01px"
    />
    <text
        id="role-text"
        x="4"
        y="25"
        writing-mode="tb"
        rotate="270"
        style="
            font-family:FreeMono,monospace;
            font-size:7px;
            letter-spacing:2px;
            fill:#ffffff;
            stroke:#000000;
            stroke-width:0.05px
        "
    >CRAFTSMAN</text>
    <path
        id="material-symbol"
        d="m 56.269,83.557 c -0.354,-0.053 -1.119,-0.191 -1.243,-0.582 -0.027,-0.098 -0.027,-3.747 0.000,-3.845 0.035,-0.127 0.279,-0.349 0.383,-0.349 0.187,0.047 0.034,0.196 -0.019,0.234 -0.796,0.723 2.020,0.876 2.498,0.467 0.141,-0.071 0.232,-0.153 0.250,-0.223 -0.102,-0.517 -1.228,-0.504 -1.474,-0.506 -0.429,-0.003 -0.468,-0.006 -0.491,-0.038 -0.034,-0.046 -0.032,-0.071 0.011,-0.123 0.260,-0.022 0.640,-0.074 1.005,-0.027 0.593,0.077 1.018,0.275 1.131,0.524 0.089,0.361 -0.017,0.543 0.044,0.965 0.131,-0.067 0.229,-0.135 0.348,-0.110 0.273,0.059 0.742,0.531 0.805,0.810 0.019,0.083 0.017,0.107 -0.007,0.153 -0.016,0.030 -0.282,0.307 -0.591,0.616 l -0.562,0.561 c -0.028,0.250 0.053,0.735 -0.036,0.938 -0.112,0.247 -0.538,0.446 -1.118,0.522 -0.193,0.025 -0.772,0.035 -0.932,0.016 z m 0.836,-0.214 c 0.364,-0.039 0.760,-0.163 0.926,-0.290 0.188,-0.272 0.117,-0.413 0.117,-0.764 l -0.122,0.121 -0.122,0.121 c -0.036,0.337 -0.208,0.245 -0.206,-0.074 0.533,-0.529 0.952,-0.959 1.460,-1.483 -0.119,-0.068 -0.204,-0.130 -0.307,-0.211 -0.085,0.079 -0.233,0.254 -0.323,0.198 -0.101,-0.158 0.075,-0.227 0.162,-0.347 -0.089,-0.100 -0.159,-0.287 -0.240,-0.367 -0.114,0.060 -0.399,0.264 -0.480,0.187 -0.059,-0.141 0.076,-0.191 0.177,-0.258 -0.026,-0.155 0.042,-0.455 -0.014,-0.588 -0.008,0.004 -0.073,0.037 -0.145,0.074 -0.479,0.248 -1.360,0.328 -2.057,0.187 l -0.159,-0.032 c -0.006,0.156 0.033,0.541 -0.112,0.545 -0.178,-0.107 -0.113,-0.376 -0.115,-0.617 -0.107,-0.051 -0.213,-0.105 -0.320,-0.156 -0.008,-0.003 -0.014,0.736 -0.014,1.642 0.000,1.367 0.004,1.659 0.026,1.711 0.063,0.151 0.389,0.298 0.836,0.376 0.441,0.055 0.140,-0.195 0.272,-0.350 0.040,-0.045 0.091,-0.043 0.137,0.003 0.063,0.141 0.037,0.219 0.037,0.393 0.195,0.000 0.394,0.000 0.584,-0.021 z m -1.553,-1.055 c 0.007,-0.107 -0.052,-0.432 0.114,-0.417 0.097,0.010 0.108,0.055 0.103,0.424 -0.020,0.100 0.050,0.373 -0.108,0.377 -0.152,-0.030 -0.108,-0.362 -0.109,-0.383 z m 1.521,0.039 c -0.036,-0.114 -0.059,-0.322 0.032,-0.391 0.170,-0.132 0.166,0.353 0.124,0.413 -0.039,0.039 -0.124,0.027 -0.156,-0.022 z m -0.728,-1.032 c -0.039,-0.098 -0.057,-0.460 0.005,-0.520 0.045,-0.041 0.089,-0.039 0.134,0.007 0.047,0.103 0.076,0.398 0.008,0.501 -0.034,0.049 -0.105,0.054 -0.147,0.012 z m 0.993,-0.491 c -0.041,-0.105 -0.062,-0.437 0.007,-0.508 0.047,-0.047 0.097,-0.048 0.137,-0.003 0.044,0.049 0.046,0.472 0.002,0.516 -0.039,0.039 -0.107,0.037 -0.145,-0.005 z m 1.971,-0.028 c 0,-0.051 -0.158,-0.268 -0.280,-0.386 -0.127,-0.123 -0.319-0.252 -0.355,-0.240 0.019,0.186 0.323,0.480 0.488,0.582 0.130,0.077 0.148,0.082 0.148,0.045 z M 56.399,79.503 c -0.262,-0.050 -0.401,-0.145 -0.401,-0.273 0.000,-0.188 0.253,-0.298 0.683,-0.298 0.416,0.000 0.690,0.114 0.690,0.287 0.000,0.122 -0.103,0.209 -0.316,0.267 -0.139,0.038 -0.499,0.048 -0.656,0.018 z m 0.473,-0.198 c 0.074,-0.010 0.167,-0.031 0.206,-0.048 l 0.071,-0.030 -0.047,-0.025 c -0.161,-0.086 -0.628,-0.088 -0.826,-0.004 l -0.063,0.027 0.068,0.030 c 0.133,0.058 0.373,0.078 0.591,0.050 z m -1.123,-0.502 c -0.060,-0.067 -0.014,-0.172 0.075,-0.172 0.047,0.000 0.099,0.056 0.100,0.106 0,0.086 -0.117,0.129 -0.175,0.065 z"
        style="
            fill:#ffffff;
            stroke:#000000;
            stroke-width:0.05px
        "
    />
    <text
        id="material-text"
        x="54"
        y="83"
        style="
            font-family:FreeMono,monospace;
            font-size:7px;
            text-anchor:end;
            fill:#ffffff;
            stroke:#000000;
            stroke-width:0.05px
        "
    >WOOD</text>
    <text
        id="name"
        x="31"
        y="8"
        style="
            font-family:FreeMono,monospace;
            font-size:7px;
            text-anchor:middle;
            fill:#ffffff;
            stroke:#000000;
            stroke-width:0.05px
        "
    >PALISADE</text>
    <g id="coin1">
        <circle
            cx="18.6"
            cy="82"
            r="3"
            style="
                fill:#ffffff;
                stroke:none
            "
        />
        <path
            style="
                fill:#000000;
                stroke:none
            "
            d="m 18.590,84.459 c -0.413,-0.223 -0.973,-0.464 -1.255,-0.541 -0.126,-0.034 -0.340,-0.034 -0.474,0 -0.056,0.014 -0.157,0.052 -0.224,0.084 -0.131,0.062 -0.178,0.065 -0.207,0.011 -0.038,-0.072 0.035,-0.133 0.250,-0.210 l 0.137,-0.049 0.113,-0.283 c 0.062,-0.155 0.117,-0.304 0.122,-0.329 0.005,-0.029 -0.025,-0.253 -0.080,-0.581 -0.067,-0.402 -0.085,-0.541 -0.074,-0.563 0.033,-0.061 0.138,-0.048 0.153,0.019 0.004,0.018 0.044,0.253 0.089,0.521 0.102,0.613 0.102,0.609 -0.023,0.920 -0.050,0.124 -0.094,0.234 -0.098,0.242 -0.005,0.011 0.043,0.019 0.144,0.024 0.124,0.006 0.184,0.019 0.340,0.070 0.253,0.083 0.586,0.222 0.903,0.379 l 0.261,0.129 -0.010,-0.087 c -0.015,-0.131 -0.011,-0.390 0.008,-0.509 0.009,-0.058 0.011,-0.110 0.004,-0.116 -0.007,-0.007 -0.081,-0.029 -0.166,-0.051 -0.225,-0.059 -0.308,-0.115 -0.379,-0.255 -0.028,-0.055 -0.073,-0.277 -0.073,-0.361 0,-0.061 0.051,-0.099 0.107,-0.078 0.041,0.016 0.048,0.035 0.088,0.249 0.037,0.198 0.062,0.218 0.387,0.307 0.110,0.030 0.333,0.092 0.496,0.138 0.331,0.093 0.363,0.094 0.448,0.020 0.060,-0.053 0.083,-0.124 0.071,-0.225 -0.012,-0.100 0.017,-0.233 0.058,-0.266 0.024,-0.019 0.032,-0.042 0.032,-0.088 v -0.062 l -0.084,0.010 c -0.100,0.011 -0.128,-0.005 -0.128,-0.077 0,-0.063 0.032,-0.078 0.252,-0.114 0.086,-0.014 0.157,-0.030 0.157,-0.036 0,-0.005 -0.026,-0.035 -0.058,-0.067 -0.062,-0.061 -0.076,-0.119 -0.037,-0.158 0.018,-0.018 0.224,-0.054 0.312,-0.054 0.018,0 0.032,-0.006 0.032,-0.014 0,-0.008 -0.079,-0.145 -0.175,-0.305 l -0.175,-0.291 v -0.135 -0.139 l -0.08,0.028 c -0.044,0.015 -0.092,0.028 -0.107,0.028 -0.033,0 -0.076,-0.044 -0.076,-0.079 0,-0.033 0.026,-0.082 0.045,-0.082 0.008,0 0.05,-0.014 0.096,-0.031 0.129,-0.048 0.226,-0.149 0.226,-0.235 0,-0.093 0.107,-0.135 0.155,-0.062 0.021,0.032 0.022,0.048 0.007,0.116 -0.01,0.043 -0.037,0.106 -0.062,0.139 l -0.044,0.061 0.005,0.177 0.005,0.177 0.208,0.34 c 0.117,0.192 0.208,0.356 0.208,0.376 0,0.048 -0.047,0.075 -0.153,0.086 -0.048,0.005 -0.109,0.013 -0.135,0.018 l -0.047,0.008 0.029,0.041 c 0.035,0.049 0.037,0.103 0.007,0.161 -0.023,0.045 -0.065,0.061 -0.203,0.081 -0.059,0.008 -0.067,0.013 -0.044,0.025 0.015,0.008 0.049,0.035 0.075,0.059 0.08,0.075 0.06,0.149 -0.053,0.206 l -0.071,0.0359 -0.006,0.136 c -0.005,0.102 -0.014,0.151 -0.038,0.197 -0.067,0.13 -0.191,0.216 -0.336,0.233 -0.057,0.007 -0.116,-0.005 -0.303,-0.058 -0.319,-0.091 -0.287,-0.093 -0.308,0.019 -0.026,0.136 -0.024,0.413 0.003,0.519 0.012,0.048 0.042,0.119 0.066,0.157 0.024,0.039 0.043,0.086 0.043,0.105 0,0.033 -0.048,0.081 -0.08,0.079 -0.008,0 -0.13,-0.063 -0.27,-0.138 z m -1,-1.874 c -0.032,-0.015 -0.079,-0.049 -0.105,-0.076 -0.075,-0.0793 -0.092,-0.138 -0.092,-0.32 0,-0.157 -0.002,-0.163 -0.043,-0.216 -0.024,-0.03 -0.051,-0.085 -0.062,-0.124 -0.01,-0.038 -0.025,-0.067 -0.034,-0.064 -0.008,0.003 -0.089,0.025 -0.178,0.047 -0.16,0.041 -0.164,0.041 -0.193,0.014 -0.034,-0.031 -0.039,-0.079 -0.012,-0.114 0.01,-0.013 0.087,-0.042 0.172,-0.066 0.144,-0.039 0.153,-0.044 0.15,-0.078 -0.028,-0.273 -0.015,-0.332 0.101,-0.459 0.115,-0.126 0.163,-0.125 0.229,0.004 0.057,0.112 0.08,0.218 0.068,0.303 -0.008,0.056 -0.007,0.068 0.01,0.062 0.011,-0.004 0.074,-0.025 0.14,-0.047 0.119,-0.04 0.12,-0.04 0.104,-0.079 -0.009,-0.022 -0.016,-0.088 -0.016,-0.149 0,-0.13 0.038,-0.222 0.14,-0.328 0.107,-0.112 0.177,-0.081 0.252,0.11 0.032,0.081 0.038,0.115 0.031,0.175 -0.008,0.071 -0.008,0.074 0.022,0.065 0.04,-0.013 0.275,-0.121 0.275,-0.126 0,-0.002 -0.013,-0.039 -0.029,-0.081 -0.061,-0.161 -0.023,-0.358 0.094,-0.479 0.033,-0.035 0.072,-0.064 0.084,-0.064 0.07,0 0.176,0.174 0.204,0.336 0.009,0.052 0.018,0.097 0.02,0.099 0.004,0.006 0.21,-0.114 0.218,-0.128 0.004,-0.006 -0.005,-0.0272 -0.02,-0.046 -0.015,-0.019 -0.043,-0.064 -0.062,-0.1 -0.089,-0.169 -0.006,-0.496 0.126,-0.496 0.037,0 0.185,0.158 0.222,0.237 0.018,0.038 0.033,0.099 0.0348,0.136 0.002,0.049 0.008,0.065 0.022,0.059 0.024,-0.009 0.18,-0.126 0.18,-0.135 0,-0.004 -0.016,-0.028 -0.036,-0.054 -0.067,-0.087 -0.101,-0.184 -0.101,-0.288 0,-0.081 0.008,-0.112 0.05,-0.197 0.046,-0.091 0.055,-0.101 0.1,-0.105 0.043,-0.004 0.059,0.005 0.129,0.078 0.11,0.113 0.154,0.214 0.147,0.333 -0.003,0.05 -0.01,0.101 -0.017,0.113 -0.009,0.019 0.004,0.022 0.091,0.017 0.139,-0.008 0.228,0.024 0.33,0.117 0.06,0.055 0.08,0.083 0.08,0.113 0,0.037 -0.038,0.088 -0.066,0.088 -0.007,0 -0.023,0.009 -0.035,0.02 -0.078,0.067 -0.283,0.091 -0.39,0.046 -0.031,-0.013 -0.084,-0.05 -0.118,-0.084 l -0.061,-0.06 -0.085,0.064 c -0.047,0.035 -0.09,0.068 -0.097,0.074 -0.007,0.006 0.013,0.024 0.044,0.04 0.098,0.051 0.224,0.212 0.224,0.286 0,0.065 -0.177,0.123 -0.323,0.106 -0.117,-0.014 -0.243,-0.097 -0.298,-0.196 -0.002,-0.004 -0.174,0.0936 -0.196,0.11 -0.004,0.003 0.005,0.013 0.021,0.021 0.093,0.052 0.227,0.225 0.227,0.294 0,0.069 -0.211,0.127 -0.355,0.097 -0.102,-0.021 -0.197,-0.083 -0.243,-0.156 l -0.036,-0.058 -0.135,0.059 c -0.075,0.033 -0.135,0.063 -0.135,0.067 0,0.004 0.031,0.027 0.068,0.05 0.073,0.047 0.18,0.195 0.18,0.251 0,0.043 -0.03,0.072 -0.098,0.095 -0.074,0.024 -0.247,0.025 -0.316,0 -0.072,-0.025 -0.163,-0.107 -0.2,-0.179 -0.016,-0.031 -0.033,-0.055 -0.039,-0.056 -0.006,0 -0.078,0.024 -0.16,0.053 l -0.15,0.053 0.064,0.06 c 0.075,0.07 0.109,0.132 0.135,0.242 0.016,0.068 0.016,0.085 -0.003,0.113 -0.029,0.044 -0.079,0.054 -0.183,0.038 l -0.087,-0.014 v 0.134 c 0,0.123 0.003,0.136 0.035,0.167 0.027,0.026 0.058,0.035 0.135,0.041 0.054,0.004 0.108,0.014 0.118,0.022 0.03,0.023 0.023,0.11 -0.01,0.127 -0.046,0.025 -0.192,0.017 -0.256,-0.013 z m 0.048,-0.676 c -0.048,-0.072 -0.186,-0.155 -0.186,-0.111 0,0.05 0.117,0.143 0.181,0.143 0.025,0 0.025,-0.003 0.006,-0.032 z m 0.725,-0.291 c -0.037,-0.041 -0.109,-0.071 -0.174,-0.071 -0.048,0 -0.051,0.002 -0.036,0.03 0.022,0.041 0.094,0.071 0.173,0.071 h 0.064 l -0.028,-0.031 z m -0.963,-0.118 c 0.024,-0.034 0.03,-0.157 0.009,-0.208 -0.011,-0.028 -0.012,-0.027 -0.03,0.005 -0.032,0.06 -0.044,0.122 -0.035,0.179 0.01,0.064 0.023,0.069 0.055,0.023 z m 0.657,-0.214 c 0.022,-0.043 0.017,-0.184 -0.007,-0.199 -0.014,-0.009 -0.058,0.1 -0.058,0.143 0,0.048 0.016,0.098 0.03,0.098 0.007,0 0.022,-0.019 0.034,-0.042 z m 0.968,0.024 c -0.011,-0.032 -0.119,-0.0835 -0.176,-0.084 -0.067,0 -0.066,0.021 0.005,0.069 0.054,0.037 0.183,0.0477 0.172,0.015 z m -0.302,-0.388 c 0.018,-0.059 -0.003,-0.178 -0.031,-0.178 -0.026,0 -0.046,0.079 -0.038,0.15 0.013,0.115 0.039,0.126 0.069,0.028 z m 0.872,0.052 c -0.014,-0.047 -0.23,-0.114 -0.23,-0.072 0,0.015 0.059,0.069 0.088,0.08 0.045,0.017 0.149,0.011 0.143,-0.008 z m -0.325,-0.348 c 0.02,-0.032 0.009,-0.116 -0.024,-0.173 -0.018,-0.033 -0.039,-0.059 -0.045,-0.059 -0.021,0 -0.013,0.148 0.012,0.199 0.024,0.051 0.041,0.061 0.057,0.034 z m 0.877,-0.043 c 0.046,-0.018 0.036,-0.033 -0.042,-0.057 -0.063,-0.02 -0.171,-0.008 -0.171,0.02 0,0.044 0.134,0.067 0.213,0.037 z m -0.388,-0.376 c 0,-0.072 -0.047,-0.172 -0.073,-0.156 -0.024,0.015 -0.016,0.112 0.015,0.18 0.035,0.077 0.058,0.068 0.058,-0.024 z m -2.967,1.453 c -0.03,-0.023 -0.092,-0.206 -0.131,-0.387 -0.044,-0.201 -0.044,-0.5 0,-0.68 0.059,-0.239 0.182,-0.462 0.359,-0.648 0.249,-0.262 0.616,-0.46 0.97,-0.522 0.151,-0.027 0.46,-0.03 0.63,-0.006 0.253,0.035 0.543,0.125 0.772,0.24 0.105,0.053 0.131,0.087 0.103,0.138 -0.033,0.062 -0.062,0.062 -0.192,0.002 -0.173,-0.081 -0.392,-0.154 -0.576,-0.193 -0.192,-0.04 -0.56,-0.048 -0.728,-0.014 -0.491,0.098 -0.889,0.381 -1.087,0.774 -0.148,0.294 -0.157,0.716 -0.023,1.11 0.044,0.13 0.045,0.15 0.01,0.181 -0.032,0.029 -0.076,0.031 -0.108,0.006 z m 3.45,-0.199 c -0.036,-0.013 -0.062,-0.066 -0.05,-0.1 0.004,-0.012 0.019,-0.035 0.034,-0.051 0.069,-0.077 0.09,-0.211 0.05,-0.309 -0.032,-0.077 -0.028,-0.117 0.016,-0.146 0.034,-0.022 0.042,-0.023 0.076,-0.004 0.09,0.05 0.126,0.302 0.064,0.44 -0.039,0.087 -0.099,0.167 -0.133,0.175 -0.014,0.004 -0.04,0.002 -0.058,-0.005 z m -3.126,-0.568 c -0.073,-0.073 -0.008,-0.437 0.0989,-0.558 0.051,-0.058 0.145,-0.006 0.131,0.072 -0.004,0.0224 -0.026,0.083 -0.048,0.136 -0.037,0.086 -0.045,0.14 -0.05,0.324 0,0.021 -0.047,0.056 -0.074,0.056 -0.015,0 -0.041,-0.013 -0.057,-0.029 z m 0.388,-0.052 c -0.033,-0.033 -0.041,-0.101 -0.036,-0.284 0.005,-0.152 0.008,-0.165 0.04,-0.192 0.034,-0.028 0.079,-0.026 0.111,0.004 0.008,0.008 0.015,0.11 0.017,0.228 0.002,0.173 -0.002,0.22 -0.02,0.24 -0.027,0.032 -0.081,0.033 -0.111,0.003 z m 0.955,-0.584 c -0.082,-0.058 -0.196,-0.094 -0.298,-0.094 -0.071,0 -0.098,-0.006 -0.116,-0.027 -0.03,-0.033 -0.031,-0.075 -0.003,-0.113 0.018,-0.024 0.037,-0.028 0.135,-0.026 0.134,0.003 0.253,0.04 0.366,0.115 0.062,0.041 0.077,0.059 0.077,0.092 0,0.047 -0.04,0.09 -0.081,0.089 -0.0154,0 -0.051,-0.017 -0.079,-0.037 z m 2.31,-0.021 c 0,-0.028 0.003,-0.04 0.007,-0.026 0.004,0.014 0.004,0.037 0,0.051 -0.004,0.014 -0.007,0.002 -0.007,-0.026 z m -1.915,-0.229 c -0.107,-0.072 -0.22,-0.109 -0.351,-0.115 -0.06,-0.003 -0.114,-0.005 -0.12,-0.006 -0.022,-0.003 -0.056,-0.049 -0.056,-0.075 0,-0.015 0.013,-0.041 0.029,-0.057 0.059,-0.059 0.324,-0.028 0.494,0.057 0.158,0.08 0.208,0.146 0.159,0.208 -0.036,0.046 -0.074,0.043 -0.156,-0.012 z"
        />
    </g>
    <text
        id="text"
        x="33"
        y="50"
        style="
            font-family:FreeMono,monospace;
            font-size:3px;
            text-anchor:middle;
            fill:#ffffff;
            stroke:#000000;
            stroke-width:0.02px
        "
    >
        <tspan x="33" y="62">Immune to</tspan>
        <tspan x="33" y="66"><tspan style="fill:#bb0000">LEGIONARY</tspan>.</tspan>
    </text>
</svg>