<svg
    xmlns="http://www.w3.org/2000/svg" 
    width="62"
    height="87"
    viewbox="0 0 62 87"
>
    <rect
        id="card"
        x="0.5"
        y="0.5"
        rx="3"
        ry="3"
        width="61"
        height="86"
        style="
            fill:#9900ff;
            stroke:black;
            stroke-width:1px
        "
    />
    <g id="value">
        <circle
            cx="57"
            cy="12"
            r="2.5"
            style="
                fill:#ffffff;
                stroke:none
            "
        />
        <circle
            cx="57"
            cy="18"
            r="2.5"
            style="
                fill:#ffffff;
                stroke:none
            "
        />
        <circle
            cx="57"
            cy="24"
            r="2.5"
            style="
                fill:#ffffff;
                stroke:none
            "
        />
    </g>
    <path
        id="role-symbol"
        style="
            fill:#ffffff;
            stroke:#000000;
            stroke-width:0.03px
        "
        d="M 2.132,19.111 c 0.801,-0.001 1.007,-0.883 1.008,-1.424 C 2.759,17.510 2.376,17.115 2.235,16.783 2.071,16.216 2.113,15.992 2.113,15.404 h 3.271 c -0.002,0.465 0.021,1.021 -0.122,1.380 -0.227,0.409 -0.519,0.733 -0.905,0.904 0.168,0.868 0.330,1.423 1.027,1.424 v 0.799 H 2.132 Z m 2.966,0.266 H 2.399 v 0.266 H 5.099 Z M 4.661,19.237 C 4.364,18.998 4.122,18.641 4.094,18.313 l -0.012,-0.181 c -0.222,0.017 -0.463,0.027 -0.651,-0.006 l -0.011,0.167 c -0.084,0.442 -0.281,0.732 -0.590,0.951 0.609,-0.020 1.223,0.028 1.831,-0.007 z m 0.433,-2.864 c -0.888,0.002 -1.777,-0.010 -2.665,0.000 0.711,1.315 1.928,1.321 2.665,0.000 z m 0.024,-0.685 h -2.739 c 0.017,0.123 -0.027,0.269 0.013,0.387 0.957,0.016 1.687,0.007 2.716,0.003 0.003,-0.130 0.007,-0.260 0.011,-0.390 z"  
    />
    <text
        id="role-text"
        x="4"
        y="25"
        writing-mode="tb"
        rotate="270"
        style="
            font-family:FreeMono,monospace;
            font-size:7px;
            letter-spacing:2px;
            fill:#ffffff;
            stroke:#000000;
            stroke-width:0.05px
        "
    >PATRON</text>
    <path
        id="material-symbol"
        d="m 56.109,81.730 v -1.391 c 0.133,-0.069 0.250,-0.165 0.360,-0.238 h 0.788 0.788 c 0.104,0.111 0.218,0.154 0.335,0.237 v 2.782 h -0.499 v -1.244 -1.244 c -0.066,-0.085 -0.175,-0.087 -0.228,0.03 v 2.459 h -0.296 v -1.236 -1.236 c -0.071,-0.109 -0.173,-0.113 -0.229,0.000 v 1.236 1.236 H 56.836 L 56.830,81.867 56.824,80.613 c -0.056,-0.080 -0.153,-0.091 -0.206,0.004 l -0.006,1.252 -0.006,1.252 h -0.5 c -0.0021,-0.462 0.002,-0.934 0.003,-1.391 z M 55.131,79.632 C 55.158,79.229 55.309,79.109 55.646,78.933 h 1.601 1.601 c 0.413,0.083 0.490,0.413 0.496,0.681 0.022,0.382 -0.241,0.530 -0.430,0.607 -0.291,0.101 -0.596,0.008 -0.767,-0.233 -0.037,-0.053 -0.090,-0.120 -0.116,-0.148 l -0.048,-0.052 c -0.178,-0.345 -1.479,-0.311 -1.587,0.147 -0.08,0.129 -0.203,0.233 -0.342,0.287 -0.118,0.068 -0.267,0.027 -0.379,0.038 -0.367,-0.043 -0.548,-0.357 -0.544,-0.628 z M 56.045,79.976 c 0.313,-0.511 -0.137,-0.507 -0.266,-0.455 -0.112,0.169 0.122,0.074 0.264,0.195 -0.150,0.264 -0.424,0.140 -0.525,-0.002 -0.149,-0.257 0.081,-0.440 0.284,-0.430 h 1.442 1.442 c 0.383,-0.045 0.369,0.463 0.207,0.513 -0.278,0.186 -0.598,0.080 -0.332,-0.101 0.394,-0.131 -0.021,-0.279 -0.161,-0.169 -0.227,0.189 0.031,0.433 0.149,0.503 h 0.262 c 0.324,0.019 0.287,-0.261 0.305,-0.419 0.038,-0.304 -0.292,-0.507 -0.455,-0.488 h -1.419 -1.419 c -0.355,-0.0148 -0.477,0.329 -0.466,0.487 -0.005,0.231 0.098,0.315 0.306,0.422 0.163,0.072 0.286,0.042 0.382,-0.056 z m 0.511,-0.021 c 0.372,-0.348 0.984,-0.367 1.378,0.001 l -0.012,0.032 H 57.246 56.570 Z"
        style="
            fill:#ffffff;
            stroke:#000000;
            stroke-width:0.05px
        "
    />
    <text
        id="material-text"
        x="54"
        y="83"
        style="
            font-family:FreeMono,monospace;
            font-size:7px;
            text-anchor:end;
            fill:#ffffff;
            stroke:#000000;
            stroke-width:0.05px
        "
    >MARBLE</text>
    <text
        id="name"
        x="31"
        y="8"
        style="
            font-family:FreeMono,monospace;
            font-size:7px;
            text-anchor:middle;
            fill:#ffffff;
            stroke:#000000;
            stroke-width:0.05px
        "
    >STAIRWAY</text>
    <g id="coin1">
        <circle
            cx="5.6"
            cy="82"
            r="3"
            style="
                fill:#ffffff;
                stroke:none
            "
        />
        <path
            style="
                fill:#000000;
                stroke:none
            "
            d="m 5.590,84.459 c -0.413,-0.223 -0.973,-0.464 -1.255,-0.541 -0.126,-0.034 -0.340,-0.034 -0.474,0 -0.056,0.014 -0.157,0.052 -0.224,0.084 -0.131,0.062 -0.178,0.065 -0.207,0.011 -0.038,-0.072 0.035,-0.133 0.250,-0.210 l 0.137,-0.049 0.113,-0.283 c 0.062,-0.155 0.117,-0.304 0.122,-0.329 0.005,-0.029 -0.025,-0.253 -0.080,-0.581 -0.067,-0.402 -0.085,-0.541 -0.074,-0.563 0.033,-0.061 0.138,-0.048 0.153,0.019 0.004,0.018 0.044,0.253 0.089,0.521 0.102,0.613 0.102,0.609 -0.023,0.920 -0.050,0.124 -0.094,0.234 -0.098,0.242 -0.005,0.011 0.043,0.019 0.144,0.024 0.124,0.006 0.184,0.019 0.340,0.070 0.253,0.083 0.586,0.222 0.903,0.379 l 0.261,0.129 -0.010,-0.087 c -0.015,-0.131 -0.011,-0.390 0.008,-0.509 0.009,-0.058 0.011,-0.110 0.004,-0.116 -0.007,-0.007 -0.081,-0.029 -0.166,-0.051 -0.225,-0.059 -0.308,-0.115 -0.379,-0.255 -0.028,-0.055 -0.073,-0.277 -0.073,-0.361 0,-0.061 0.051,-0.099 0.107,-0.078 0.041,0.016 0.048,0.035 0.088,0.249 0.037,0.198 0.062,0.218 0.387,0.307 0.110,0.030 0.333,0.092 0.496,0.138 0.331,0.093 0.363,0.094 0.448,0.020 0.060,-0.053 0.083,-0.124 0.071,-0.225 -0.012,-0.100 0.017,-0.233 0.058,-0.266 0.024,-0.019 0.032,-0.042 0.032,-0.088 v -0.062 l -0.084,0.010 c -0.100,0.011 -0.128,-0.005 -0.128,-0.077 0,-0.063 0.032,-0.078 0.252,-0.114 0.086,-0.014 0.157,-0.030 0.157,-0.036 0,-0.005 -0.026,-0.035 -0.058,-0.067 -0.062,-0.061 -0.076,-0.119 -0.037,-0.158 0.018,-0.018 0.224,-0.054 0.312,-0.054 0.018,0 0.032,-0.006 0.032,-0.014 0,-0.008 -0.079,-0.145 -0.175,-0.305 l -0.175,-0.291 v -0.135 -0.139 l -0.08,0.028 c -0.044,0.015 -0.092,0.028 -0.107,0.028 -0.033,0 -0.076,-0.044 -0.076,-0.079 0,-0.033 0.026,-0.082 0.045,-0.082 0.008,0 0.05,-0.014 0.096,-0.031 0.129,-0.048 0.226,-0.149 0.226,-0.235 0,-0.093 0.107,-0.135 0.155,-0.062 0.021,0.032 0.022,0.048 0.007,0.116 -0.01,0.043 -0.037,0.106 -0.062,0.139 l -0.044,0.061 0.005,0.177 0.005,0.177 0.208,0.34 c 0.117,0.192 0.208,0.356 0.208,0.376 0,0.048 -0.047,0.075 -0.153,0.086 -0.048,0.005 -0.109,0.013 -0.135,0.018 l -0.047,0.008 0.029,0.041 c 0.035,0.049 0.037,0.103 0.007,0.161 -0.023,0.045 -0.065,0.061 -0.203,0.081 -0.059,0.008 -0.067,0.013 -0.044,0.025 0.015,0.008 0.049,0.035 0.075,0.059 0.08,0.075 0.06,0.149 -0.053,0.206 l -0.071,0.0359 -0.006,0.136 c -0.005,0.102 -0.014,0.151 -0.038,0.197 -0.067,0.13 -0.191,0.216 -0.336,0.233 -0.057,0.007 -0.116,-0.005 -0.303,-0.058 -0.319,-0.091 -0.287,-0.093 -0.308,0.019 -0.026,0.136 -0.024,0.413 0.003,0.519 0.012,0.048 0.042,0.119 0.066,0.157 0.024,0.039 0.043,0.086 0.043,0.105 0,0.033 -0.048,0.081 -0.08,0.079 -0.008,0 -0.13,-0.063 -0.27,-0.138 z m -1,-1.874 c -0.032,-0.015 -0.079,-0.049 -0.105,-0.076 -0.075,-0.0793 -0.092,-0.138 -0.092,-0.32 0,-0.157 -0.002,-0.163 -0.043,-0.216 -0.024,-0.03 -0.051,-0.085 -0.062,-0.124 -0.01,-0.038 -0.025,-0.067 -0.034,-0.064 -0.008,0.003 -0.089,0.025 -0.178,0.047 -0.16,0.041 -0.164,0.041 -0.193,0.014 -0.034,-0.031 -0.039,-0.079 -0.012,-0.114 0.01,-0.013 0.087,-0.042 0.172,-0.066 0.144,-0.039 0.153,-0.044 0.15,-0.078 -0.028,-0.273 -0.015,-0.332 0.101,-0.459 0.115,-0.126 0.163,-0.125 0.229,0.004 0.057,0.112 0.08,0.218 0.068,0.303 -0.008,0.056 -0.007,0.068 0.01,0.062 0.011,-0.004 0.074,-0.025 0.14,-0.047 0.119,-0.04 0.12,-0.04 0.104,-0.079 -0.009,-0.022 -0.016,-0.088 -0.016,-0.149 0,-0.13 0.038,-0.222 0.14,-0.328 0.107,-0.112 0.177,-0.081 0.252,0.11 0.032,0.081 0.038,0.115 0.031,0.175 -0.008,0.071 -0.008,0.074 0.022,0.065 0.04,-0.013 0.275,-0.121 0.275,-0.126 0,-0.002 -0.013,-0.039 -0.029,-0.081 -0.061,-0.161 -0.023,-0.358 0.094,-0.479 0.033,-0.035 0.072,-0.064 0.084,-0.064 0.07,0 0.176,0.174 0.204,0.336 0.009,0.052 0.018,0.097 0.02,0.099 0.004,0.006 0.21,-0.114 0.218,-0.128 0.004,-0.006 -0.005,-0.0272 -0.02,-0.046 -0.015,-0.019 -0.043,-0.064 -0.062,-0.1 -0.089,-0.169 -0.006,-0.496 0.126,-0.496 0.037,0 0.185,0.158 0.222,0.237 0.018,0.038 0.033,0.099 0.0348,0.136 0.002,0.049 0.008,0.065 0.022,0.059 0.024,-0.009 0.18,-0.126 0.18,-0.135 0,-0.004 -0.016,-0.028 -0.036,-0.054 -0.067,-0.087 -0.101,-0.184 -0.101,-0.288 0,-0.081 0.008,-0.112 0.05,-0.197 0.046,-0.091 0.055,-0.101 0.1,-0.105 0.043,-0.004 0.059,0.005 0.129,0.078 0.11,0.113 0.154,0.214 0.147,0.333 -0.003,0.05 -0.01,0.101 -0.017,0.113 -0.009,0.019 0.004,0.022 0.091,0.017 0.139,-0.008 0.228,0.024 0.33,0.117 0.06,0.055 0.08,0.083 0.08,0.113 0,0.037 -0.038,0.088 -0.066,0.088 -0.007,0 -0.023,0.009 -0.035,0.02 -0.078,0.067 -0.283,0.091 -0.39,0.046 -0.031,-0.013 -0.084,-0.05 -0.118,-0.084 l -0.061,-0.06 -0.085,0.064 c -0.047,0.035 -0.09,0.068 -0.097,0.074 -0.007,0.006 0.013,0.024 0.044,0.04 0.098,0.051 0.224,0.212 0.224,0.286 0,0.065 -0.177,0.123 -0.323,0.106 -0.117,-0.014 -0.243,-0.097 -0.298,-0.196 -0.002,-0.004 -0.174,0.0936 -0.196,0.11 -0.004,0.003 0.005,0.013 0.021,0.021 0.093,0.052 0.227,0.225 0.227,0.294 0,0.069 -0.211,0.127 -0.355,0.097 -0.102,-0.021 -0.197,-0.083 -0.243,-0.156 l -0.036,-0.058 -0.135,0.059 c -0.075,0.033 -0.135,0.063 -0.135,0.067 0,0.004 0.031,0.027 0.068,0.05 0.073,0.047 0.18,0.195 0.18,0.251 0,0.043 -0.03,0.072 -0.098,0.095 -0.074,0.024 -0.247,0.025 -0.316,0 -0.072,-0.025 -0.163,-0.107 -0.2,-0.179 -0.016,-0.031 -0.033,-0.055 -0.039,-0.056 -0.006,0 -0.078,0.024 -0.16,0.053 l -0.15,0.053 0.064,0.06 c 0.075,0.07 0.109,0.132 0.135,0.242 0.016,0.068 0.016,0.085 -0.003,0.113 -0.029,0.044 -0.079,0.054 -0.183,0.038 l -0.087,-0.014 v 0.134 c 0,0.123 0.003,0.136 0.035,0.167 0.027,0.026 0.058,0.035 0.135,0.041 0.054,0.004 0.108,0.014 0.118,0.022 0.03,0.023 0.023,0.11 -0.01,0.127 -0.046,0.025 -0.192,0.017 -0.256,-0.013 z m 0.048,-0.676 c -0.048,-0.072 -0.186,-0.155 -0.186,-0.111 0,0.05 0.117,0.143 0.181,0.143 0.025,0 0.025,-0.003 0.006,-0.032 z m 0.725,-0.291 c -0.037,-0.041 -0.109,-0.071 -0.174,-0.071 -0.048,0 -0.051,0.002 -0.036,0.03 0.022,0.041 0.094,0.071 0.173,0.071 h 0.064 l -0.028,-0.031 z m -0.963,-0.118 c 0.024,-0.034 0.03,-0.157 0.009,-0.208 -0.011,-0.028 -0.012,-0.027 -0.03,0.005 -0.032,0.06 -0.044,0.122 -0.035,0.179 0.01,0.064 0.023,0.069 0.055,0.023 z m 0.657,-0.214 c 0.022,-0.043 0.017,-0.184 -0.007,-0.199 -0.014,-0.009 -0.058,0.1 -0.058,0.143 0,0.048 0.016,0.098 0.03,0.098 0.007,0 0.022,-0.019 0.034,-0.042 z m 0.968,0.024 c -0.011,-0.032 -0.119,-0.0835 -0.176,-0.084 -0.067,0 -0.066,0.021 0.005,0.069 0.054,0.037 0.183,0.0477 0.172,0.015 z m -0.302,-0.388 c 0.018,-0.059 -0.003,-0.178 -0.031,-0.178 -0.026,0 -0.046,0.079 -0.038,0.15 0.013,0.115 0.039,0.126 0.069,0.028 z m 0.872,0.052 c -0.014,-0.047 -0.23,-0.114 -0.23,-0.072 0,0.015 0.059,0.069 0.088,0.08 0.045,0.017 0.149,0.011 0.143,-0.008 z m -0.325,-0.348 c 0.02,-0.032 0.009,-0.116 -0.024,-0.173 -0.018,-0.033 -0.039,-0.059 -0.045,-0.059 -0.021,0 -0.013,0.148 0.012,0.199 0.024,0.051 0.041,0.061 0.057,0.034 z m 0.877,-0.043 c 0.046,-0.018 0.036,-0.033 -0.042,-0.057 -0.063,-0.02 -0.171,-0.008 -0.171,0.02 0,0.044 0.134,0.067 0.213,0.037 z m -0.388,-0.376 c 0,-0.072 -0.047,-0.172 -0.073,-0.156 -0.024,0.015 -0.016,0.112 0.015,0.18 0.035,0.077 0.058,0.068 0.058,-0.024 z m -2.967,1.453 c -0.03,-0.023 -0.092,-0.206 -0.131,-0.387 -0.044,-0.201 -0.044,-0.5 0,-0.68 0.059,-0.239 0.182,-0.462 0.359,-0.648 0.249,-0.262 0.616,-0.46 0.97,-0.522 0.151,-0.027 0.46,-0.03 0.63,-0.006 0.253,0.035 0.543,0.125 0.772,0.24 0.105,0.053 0.131,0.087 0.103,0.138 -0.033,0.062 -0.062,0.062 -0.192,0.002 -0.173,-0.081 -0.392,-0.154 -0.576,-0.193 -0.192,-0.04 -0.56,-0.048 -0.728,-0.014 -0.491,0.098 -0.889,0.381 -1.087,0.774 -0.148,0.294 -0.157,0.716 -0.023,1.11 0.044,0.13 0.045,0.15 0.01,0.181 -0.032,0.029 -0.076,0.031 -0.108,0.006 z m 3.45,-0.199 c -0.036,-0.013 -0.062,-0.066 -0.05,-0.1 0.004,-0.012 0.019,-0.035 0.034,-0.051 0.069,-0.077 0.09,-0.211 0.05,-0.309 -0.032,-0.077 -0.028,-0.117 0.016,-0.146 0.034,-0.022 0.042,-0.023 0.076,-0.004 0.09,0.05 0.126,0.302 0.064,0.44 -0.039,0.087 -0.099,0.167 -0.133,0.175 -0.014,0.004 -0.04,0.002 -0.058,-0.005 z m -3.126,-0.568 c -0.073,-0.073 -0.008,-0.437 0.0989,-0.558 0.051,-0.058 0.145,-0.006 0.131,0.072 -0.004,0.0224 -0.026,0.083 -0.048,0.136 -0.037,0.086 -0.045,0.14 -0.05,0.324 0,0.021 -0.047,0.056 -0.074,0.056 -0.015,0 -0.041,-0.013 -0.057,-0.029 z m 0.388,-0.052 c -0.033,-0.033 -0.041,-0.101 -0.036,-0.284 0.005,-0.152 0.008,-0.165 0.04,-0.192 0.034,-0.028 0.079,-0.026 0.111,0.004 0.008,0.008 0.015,0.11 0.017,0.228 0.002,0.173 -0.002,0.22 -0.02,0.24 -0.027,0.032 -0.081,0.033 -0.111,0.003 z m 0.955,-0.584 c -0.082,-0.058 -0.196,-0.094 -0.298,-0.094 -0.071,0 -0.098,-0.006 -0.116,-0.027 -0.03,-0.033 -0.031,-0.075 -0.003,-0.113 0.018,-0.024 0.037,-0.028 0.135,-0.026 0.134,0.003 0.253,0.04 0.366,0.115 0.062,0.041 0.077,0.059 0.077,0.092 0,0.047 -0.04,0.09 -0.081,0.089 -0.0154,0 -0.051,-0.017 -0.079,-0.037 z m 2.31,-0.021 c 0,-0.028 0.003,-0.04 0.007,-0.026 0.004,0.014 0.004,0.037 0,0.051 -0.004,0.014 -0.007,0.002 -0.007,-0.026 z m -1.915,-0.229 c -0.107,-0.072 -0.22,-0.109 -0.351,-0.115 -0.06,-0.003 -0.114,-0.005 -0.12,-0.006 -0.022,-0.003 -0.056,-0.049 -0.056,-0.075 0,-0.015 0.013,-0.041 0.029,-0.057 0.059,-0.059 0.324,-0.028 0.494,0.057 0.158,0.08 0.208,0.146 0.159,0.208 -0.036,0.046 -0.074,0.043 -0.156,-0.012 z"
        />
    </g>
    <g id="coin2">
        <circle
            cx="12.1"
            cy="82"
            r="3"
            style="
                fill:#ffffff;
                stroke:none
            "
        />
        <path
            style="
                fill:#000000;
                stroke:none
            "
            d="m 12.090,84.459 c -0.413,-0.223 -0.973,-0.464 -1.255,-0.541 -0.126,-0.034 -0.340,-0.034 -0.474,0 -0.056,0.014 -0.157,0.052 -0.224,0.084 -0.131,0.062 -0.178,0.065 -0.207,0.011 -0.038,-0.072 0.035,-0.133 0.250,-0.210 l 0.137,-0.049 0.113,-0.283 c 0.062,-0.155 0.117,-0.304 0.122,-0.329 0.005,-0.029 -0.025,-0.253 -0.080,-0.581 -0.067,-0.402 -0.085,-0.541 -0.074,-0.563 0.033,-0.061 0.138,-0.048 0.153,0.019 0.004,0.018 0.044,0.253 0.089,0.521 0.102,0.613 0.102,0.609 -0.023,0.920 -0.050,0.124 -0.094,0.234 -0.098,0.242 -0.005,0.011 0.043,0.019 0.144,0.024 0.124,0.006 0.184,0.019 0.340,0.070 0.253,0.083 0.586,0.222 0.903,0.379 l 0.261,0.129 -0.010,-0.087 c -0.015,-0.131 -0.011,-0.390 0.008,-0.509 0.009,-0.058 0.011,-0.110 0.004,-0.116 -0.007,-0.007 -0.081,-0.029 -0.166,-0.051 -0.225,-0.059 -0.308,-0.115 -0.379,-0.255 -0.028,-0.055 -0.073,-0.277 -0.073,-0.361 0,-0.061 0.051,-0.099 0.107,-0.078 0.041,0.016 0.048,0.035 0.088,0.249 0.037,0.198 0.062,0.218 0.387,0.307 0.110,0.030 0.333,0.092 0.496,0.138 0.331,0.093 0.363,0.094 0.448,0.020 0.060,-0.053 0.083,-0.124 0.071,-0.225 -0.012,-0.100 0.017,-0.233 0.058,-0.266 0.024,-0.019 0.032,-0.042 0.032,-0.088 v -0.062 l -0.084,0.010 c -0.100,0.011 -0.128,-0.005 -0.128,-0.077 0,-0.063 0.032,-0.078 0.252,-0.114 0.086,-0.014 0.157,-0.030 0.157,-0.036 0,-0.005 -0.026,-0.035 -0.058,-0.067 -0.062,-0.061 -0.076,-0.119 -0.037,-0.158 0.018,-0.018 0.224,-0.054 0.312,-0.054 0.018,0 0.032,-0.006 0.032,-0.014 0,-0.008 -0.079,-0.145 -0.175,-0.305 l -0.175,-0.291 v -0.135 -0.139 l -0.08,0.028 c -0.044,0.015 -0.092,0.028 -0.107,0.028 -0.033,0 -0.076,-0.044 -0.076,-0.079 0,-0.033 0.026,-0.082 0.045,-0.082 0.008,0 0.05,-0.014 0.096,-0.031 0.129,-0.048 0.226,-0.149 0.226,-0.235 0,-0.093 0.107,-0.135 0.155,-0.062 0.021,0.032 0.022,0.048 0.007,0.116 -0.01,0.043 -0.037,0.106 -0.062,0.139 l -0.044,0.061 0.005,0.177 0.005,0.177 0.208,0.34 c 0.117,0.192 0.208,0.356 0.208,0.376 0,0.048 -0.047,0.075 -0.153,0.086 -0.048,0.005 -0.109,0.013 -0.135,0.018 l -0.047,0.008 0.029,0.041 c 0.035,0.049 0.037,0.103 0.007,0.161 -0.023,0.045 -0.065,0.061 -0.203,0.081 -0.059,0.008 -0.067,0.013 -0.044,0.025 0.015,0.008 0.049,0.035 0.075,0.059 0.08,0.075 0.06,0.149 -0.053,0.206 l -0.071,0.0359 -0.006,0.136 c -0.005,0.102 -0.014,0.151 -0.038,0.197 -0.067,0.13 -0.191,0.216 -0.336,0.233 -0.057,0.007 -0.116,-0.005 -0.303,-0.058 -0.319,-0.091 -0.287,-0.093 -0.308,0.019 -0.026,0.136 -0.024,0.413 0.003,0.519 0.012,0.048 0.042,0.119 0.066,0.157 0.024,0.039 0.043,0.086 0.043,0.105 0,0.033 -0.048,0.081 -0.08,0.079 -0.008,0 -0.13,-0.063 -0.27,-0.138 z m -1,-1.874 c -0.032,-0.015 -0.079,-0.049 -0.105,-0.076 -0.075,-0.0793 -0.092,-0.138 -0.092,-0.32 0,-0.157 -0.002,-0.163 -0.043,-0.216 -0.024,-0.03 -0.051,-0.085 -0.062,-0.124 -0.01,-0.038 -0.025,-0.067 -0.034,-0.064 -0.008,0.003 -0.089,0.025 -0.178,0.047 -0.16,0.041 -0.164,0.041 -0.193,0.014 -0.034,-0.031 -0.039,-0.079 -0.012,-0.114 0.01,-0.013 0.087,-0.042 0.172,-0.066 0.144,-0.039 0.153,-0.044 0.15,-0.078 -0.028,-0.273 -0.015,-0.332 0.101,-0.459 0.115,-0.126 0.163,-0.125 0.229,0.004 0.057,0.112 0.08,0.218 0.068,0.303 -0.008,0.056 -0.007,0.068 0.01,0.062 0.011,-0.004 0.074,-0.025 0.14,-0.047 0.119,-0.04 0.12,-0.04 0.104,-0.079 -0.009,-0.022 -0.016,-0.088 -0.016,-0.149 0,-0.13 0.038,-0.222 0.14,-0.328 0.107,-0.112 0.177,-0.081 0.252,0.11 0.032,0.081 0.038,0.115 0.031,0.175 -0.008,0.071 -0.008,0.074 0.022,0.065 0.04,-0.013 0.275,-0.121 0.275,-0.126 0,-0.002 -0.013,-0.039 -0.029,-0.081 -0.061,-0.161 -0.023,-0.358 0.094,-0.479 0.033,-0.035 0.072,-0.064 0.084,-0.064 0.07,0 0.176,0.174 0.204,0.336 0.009,0.052 0.018,0.097 0.02,0.099 0.004,0.006 0.21,-0.114 0.218,-0.128 0.004,-0.006 -0.005,-0.0272 -0.02,-0.046 -0.015,-0.019 -0.043,-0.064 -0.062,-0.1 -0.089,-0.169 -0.006,-0.496 0.126,-0.496 0.037,0 0.185,0.158 0.222,0.237 0.018,0.038 0.033,0.099 0.0348,0.136 0.002,0.049 0.008,0.065 0.022,0.059 0.024,-0.009 0.18,-0.126 0.18,-0.135 0,-0.004 -0.016,-0.028 -0.036,-0.054 -0.067,-0.087 -0.101,-0.184 -0.101,-0.288 0,-0.081 0.008,-0.112 0.05,-0.197 0.046,-0.091 0.055,-0.101 0.1,-0.105 0.043,-0.004 0.059,0.005 0.129,0.078 0.11,0.113 0.154,0.214 0.147,0.333 -0.003,0.05 -0.01,0.101 -0.017,0.113 -0.009,0.019 0.004,0.022 0.091,0.017 0.139,-0.008 0.228,0.024 0.33,0.117 0.06,0.055 0.08,0.083 0.08,0.113 0,0.037 -0.038,0.088 -0.066,0.088 -0.007,0 -0.023,0.009 -0.035,0.02 -0.078,0.067 -0.283,0.091 -0.39,0.046 -0.031,-0.013 -0.084,-0.05 -0.118,-0.084 l -0.061,-0.06 -0.085,0.064 c -0.047,0.035 -0.09,0.068 -0.097,0.074 -0.007,0.006 0.013,0.024 0.044,0.04 0.098,0.051 0.224,0.212 0.224,0.286 0,0.065 -0.177,0.123 -0.323,0.106 -0.117,-0.014 -0.243,-0.097 -0.298,-0.196 -0.002,-0.004 -0.174,0.0936 -0.196,0.11 -0.004,0.003 0.005,0.013 0.021,0.021 0.093,0.052 0.227,0.225 0.227,0.294 0,0.069 -0.211,0.127 -0.355,0.097 -0.102,-0.021 -0.197,-0.083 -0.243,-0.156 l -0.036,-0.058 -0.135,0.059 c -0.075,0.033 -0.135,0.063 -0.135,0.067 0,0.004 0.031,0.027 0.068,0.05 0.073,0.047 0.18,0.195 0.18,0.251 0,0.043 -0.03,0.072 -0.098,0.095 -0.074,0.024 -0.247,0.025 -0.316,0 -0.072,-0.025 -0.163,-0.107 -0.2,-0.179 -0.016,-0.031 -0.033,-0.055 -0.039,-0.056 -0.006,0 -0.078,0.024 -0.16,0.053 l -0.15,0.053 0.064,0.06 c 0.075,0.07 0.109,0.132 0.135,0.242 0.016,0.068 0.016,0.085 -0.003,0.113 -0.029,0.044 -0.079,0.054 -0.183,0.038 l -0.087,-0.014 v 0.134 c 0,0.123 0.003,0.136 0.035,0.167 0.027,0.026 0.058,0.035 0.135,0.041 0.054,0.004 0.108,0.014 0.118,0.022 0.03,0.023 0.023,0.11 -0.01,0.127 -0.046,0.025 -0.192,0.017 -0.256,-0.013 z m 0.048,-0.676 c -0.048,-0.072 -0.186,-0.155 -0.186,-0.111 0,0.05 0.117,0.143 0.181,0.143 0.025,0 0.025,-0.003 0.006,-0.032 z m 0.725,-0.291 c -0.037,-0.041 -0.109,-0.071 -0.174,-0.071 -0.048,0 -0.051,0.002 -0.036,0.03 0.022,0.041 0.094,0.071 0.173,0.071 h 0.064 l -0.028,-0.031 z m -0.963,-0.118 c 0.024,-0.034 0.03,-0.157 0.009,-0.208 -0.011,-0.028 -0.012,-0.027 -0.03,0.005 -0.032,0.06 -0.044,0.122 -0.035,0.179 0.01,0.064 0.023,0.069 0.055,0.023 z m 0.657,-0.214 c 0.022,-0.043 0.017,-0.184 -0.007,-0.199 -0.014,-0.009 -0.058,0.1 -0.058,0.143 0,0.048 0.016,0.098 0.03,0.098 0.007,0 0.022,-0.019 0.034,-0.042 z m 0.968,0.024 c -0.011,-0.032 -0.119,-0.0835 -0.176,-0.084 -0.067,0 -0.066,0.021 0.005,0.069 0.054,0.037 0.183,0.0477 0.172,0.015 z m -0.302,-0.388 c 0.018,-0.059 -0.003,-0.178 -0.031,-0.178 -0.026,0 -0.046,0.079 -0.038,0.15 0.013,0.115 0.039,0.126 0.069,0.028 z m 0.872,0.052 c -0.014,-0.047 -0.23,-0.114 -0.23,-0.072 0,0.015 0.059,0.069 0.088,0.08 0.045,0.017 0.149,0.011 0.143,-0.008 z m -0.325,-0.348 c 0.02,-0.032 0.009,-0.116 -0.024,-0.173 -0.018,-0.033 -0.039,-0.059 -0.045,-0.059 -0.021,0 -0.013,0.148 0.012,0.199 0.024,0.051 0.041,0.061 0.057,0.034 z m 0.877,-0.043 c 0.046,-0.018 0.036,-0.033 -0.042,-0.057 -0.063,-0.02 -0.171,-0.008 -0.171,0.02 0,0.044 0.134,0.067 0.213,0.037 z m -0.388,-0.376 c 0,-0.072 -0.047,-0.172 -0.073,-0.156 -0.024,0.015 -0.016,0.112 0.015,0.18 0.035,0.077 0.058,0.068 0.058,-0.024 z m -2.967,1.453 c -0.03,-0.023 -0.092,-0.206 -0.131,-0.387 -0.044,-0.201 -0.044,-0.5 0,-0.68 0.059,-0.239 0.182,-0.462 0.359,-0.648 0.249,-0.262 0.616,-0.46 0.97,-0.522 0.151,-0.027 0.46,-0.03 0.63,-0.006 0.253,0.035 0.543,0.125 0.772,0.24 0.105,0.053 0.131,0.087 0.103,0.138 -0.033,0.062 -0.062,0.062 -0.192,0.002 -0.173,-0.081 -0.392,-0.154 -0.576,-0.193 -0.192,-0.04 -0.56,-0.048 -0.728,-0.014 -0.491,0.098 -0.889,0.381 -1.087,0.774 -0.148,0.294 -0.157,0.716 -0.023,1.11 0.044,0.13 0.045,0.15 0.01,0.181 -0.032,0.029 -0.076,0.031 -0.108,0.006 z m 3.45,-0.199 c -0.036,-0.013 -0.062,-0.066 -0.05,-0.1 0.004,-0.012 0.019,-0.035 0.034,-0.051 0.069,-0.077 0.09,-0.211 0.05,-0.309 -0.032,-0.077 -0.028,-0.117 0.016,-0.146 0.034,-0.022 0.042,-0.023 0.076,-0.004 0.09,0.05 0.126,0.302 0.064,0.44 -0.039,0.087 -0.099,0.167 -0.133,0.175 -0.014,0.004 -0.04,0.002 -0.058,-0.005 z m -3.126,-0.568 c -0.073,-0.073 -0.008,-0.437 0.0989,-0.558 0.051,-0.058 0.145,-0.006 0.131,0.072 -0.004,0.0224 -0.026,0.083 -0.048,0.136 -0.037,0.086 -0.045,0.14 -0.05,0.324 0,0.021 -0.047,0.056 -0.074,0.056 -0.015,0 -0.041,-0.013 -0.057,-0.029 z m 0.388,-0.052 c -0.033,-0.033 -0.041,-0.101 -0.036,-0.284 0.005,-0.152 0.008,-0.165 0.04,-0.192 0.034,-0.028 0.079,-0.026 0.111,0.004 0.008,0.008 0.015,0.11 0.017,0.228 0.002,0.173 -0.002,0.22 -0.02,0.24 -0.027,0.032 -0.081,0.033 -0.111,0.003 z m 0.955,-0.584 c -0.082,-0.058 -0.196,-0.094 -0.298,-0.094 -0.071,0 -0.098,-0.006 -0.116,-0.027 -0.03,-0.033 -0.031,-0.075 -0.003,-0.113 0.018,-0.024 0.037,-0.028 0.135,-0.026 0.134,0.003 0.253,0.04 0.366,0.115 0.062,0.041 0.077,0.059 0.077,0.092 0,0.047 -0.04,0.09 -0.081,0.089 -0.0154,0 -0.051,-0.017 -0.079,-0.037 z m 2.31,-0.021 c 0,-0.028 0.003,-0.04 0.007,-0.026 0.004,0.014 0.004,0.037 0,0.051 -0.004,0.014 -0.007,0.002 -0.007,-0.026 z m -1.915,-0.229 c -0.107,-0.072 -0.22,-0.109 -0.351,-0.115 -0.06,-0.003 -0.114,-0.005 -0.12,-0.006 -0.022,-0.003 -0.056,-0.049 -0.056,-0.075 0,-0.015 0.013,-0.041 0.029,-0.057 0.059,-0.059 0.324,-0.028 0.494,0.057 0.158,0.08 0.208,0.146 0.159,0.208 -0.036,0.046 -0.074,0.043 -0.156,-0.012 z"
        />
    </g>
    <g id="coin3">
        <circle
            cx="18.6"
            cy="82"
            r="3"
            style="
                fill:#ffffff;
                stroke:none
            "
        />
        <path
            style="
                fill:#000000;
                stroke:none
            "
            d="m 18.590,84.459 c -0.413,-0.223 -0.973,-0.464 -1.255,-0.541 -0.126,-0.034 -0.340,-0.034 -0.474,0 -0.056,0.014 -0.157,0.052 -0.224,0.084 -0.131,0.062 -0.178,0.065 -0.207,0.011 -0.038,-0.072 0.035,-0.133 0.250,-0.210 l 0.137,-0.049 0.113,-0.283 c 0.062,-0.155 0.117,-0.304 0.122,-0.329 0.005,-0.029 -0.025,-0.253 -0.080,-0.581 -0.067,-0.402 -0.085,-0.541 -0.074,-0.563 0.033,-0.061 0.138,-0.048 0.153,0.019 0.004,0.018 0.044,0.253 0.089,0.521 0.102,0.613 0.102,0.609 -0.023,0.920 -0.050,0.124 -0.094,0.234 -0.098,0.242 -0.005,0.011 0.043,0.019 0.144,0.024 0.124,0.006 0.184,0.019 0.340,0.070 0.253,0.083 0.586,0.222 0.903,0.379 l 0.261,0.129 -0.010,-0.087 c -0.015,-0.131 -0.011,-0.390 0.008,-0.509 0.009,-0.058 0.011,-0.110 0.004,-0.116 -0.007,-0.007 -0.081,-0.029 -0.166,-0.051 -0.225,-0.059 -0.308,-0.115 -0.379,-0.255 -0.028,-0.055 -0.073,-0.277 -0.073,-0.361 0,-0.061 0.051,-0.099 0.107,-0.078 0.041,0.016 0.048,0.035 0.088,0.249 0.037,0.198 0.062,0.218 0.387,0.307 0.110,0.030 0.333,0.092 0.496,0.138 0.331,0.093 0.363,0.094 0.448,0.020 0.060,-0.053 0.083,-0.124 0.071,-0.225 -0.012,-0.100 0.017,-0.233 0.058,-0.266 0.024,-0.019 0.032,-0.042 0.032,-0.088 v -0.062 l -0.084,0.010 c -0.100,0.011 -0.128,-0.005 -0.128,-0.077 0,-0.063 0.032,-0.078 0.252,-0.114 0.086,-0.014 0.157,-0.030 0.157,-0.036 0,-0.005 -0.026,-0.035 -0.058,-0.067 -0.062,-0.061 -0.076,-0.119 -0.037,-0.158 0.018,-0.018 0.224,-0.054 0.312,-0.054 0.018,0 0.032,-0.006 0.032,-0.014 0,-0.008 -0.079,-0.145 -0.175,-0.305 l -0.175,-0.291 v -0.135 -0.139 l -0.08,0.028 c -0.044,0.015 -0.092,0.028 -0.107,0.028 -0.033,0 -0.076,-0.044 -0.076,-0.079 0,-0.033 0.026,-0.082 0.045,-0.082 0.008,0 0.05,-0.014 0.096,-0.031 0.129,-0.048 0.226,-0.149 0.226,-0.235 0,-0.093 0.107,-0.135 0.155,-0.062 0.021,0.032 0.022,0.048 0.007,0.116 -0.01,0.043 -0.037,0.106 -0.062,0.139 l -0.044,0.061 0.005,0.177 0.005,0.177 0.208,0.34 c 0.117,0.192 0.208,0.356 0.208,0.376 0,0.048 -0.047,0.075 -0.153,0.086 -0.048,0.005 -0.109,0.013 -0.135,0.018 l -0.047,0.008 0.029,0.041 c 0.035,0.049 0.037,0.103 0.007,0.161 -0.023,0.045 -0.065,0.061 -0.203,0.081 -0.059,0.008 -0.067,0.013 -0.044,0.025 0.015,0.008 0.049,0.035 0.075,0.059 0.08,0.075 0.06,0.149 -0.053,0.206 l -0.071,0.0359 -0.006,0.136 c -0.005,0.102 -0.014,0.151 -0.038,0.197 -0.067,0.13 -0.191,0.216 -0.336,0.233 -0.057,0.007 -0.116,-0.005 -0.303,-0.058 -0.319,-0.091 -0.287,-0.093 -0.308,0.019 -0.026,0.136 -0.024,0.413 0.003,0.519 0.012,0.048 0.042,0.119 0.066,0.157 0.024,0.039 0.043,0.086 0.043,0.105 0,0.033 -0.048,0.081 -0.08,0.079 -0.008,0 -0.13,-0.063 -0.27,-0.138 z m -1,-1.874 c -0.032,-0.015 -0.079,-0.049 -0.105,-0.076 -0.075,-0.0793 -0.092,-0.138 -0.092,-0.32 0,-0.157 -0.002,-0.163 -0.043,-0.216 -0.024,-0.03 -0.051,-0.085 -0.062,-0.124 -0.01,-0.038 -0.025,-0.067 -0.034,-0.064 -0.008,0.003 -0.089,0.025 -0.178,0.047 -0.16,0.041 -0.164,0.041 -0.193,0.014 -0.034,-0.031 -0.039,-0.079 -0.012,-0.114 0.01,-0.013 0.087,-0.042 0.172,-0.066 0.144,-0.039 0.153,-0.044 0.15,-0.078 -0.028,-0.273 -0.015,-0.332 0.101,-0.459 0.115,-0.126 0.163,-0.125 0.229,0.004 0.057,0.112 0.08,0.218 0.068,0.303 -0.008,0.056 -0.007,0.068 0.01,0.062 0.011,-0.004 0.074,-0.025 0.14,-0.047 0.119,-0.04 0.12,-0.04 0.104,-0.079 -0.009,-0.022 -0.016,-0.088 -0.016,-0.149 0,-0.13 0.038,-0.222 0.14,-0.328 0.107,-0.112 0.177,-0.081 0.252,0.11 0.032,0.081 0.038,0.115 0.031,0.175 -0.008,0.071 -0.008,0.074 0.022,0.065 0.04,-0.013 0.275,-0.121 0.275,-0.126 0,-0.002 -0.013,-0.039 -0.029,-0.081 -0.061,-0.161 -0.023,-0.358 0.094,-0.479 0.033,-0.035 0.072,-0.064 0.084,-0.064 0.07,0 0.176,0.174 0.204,0.336 0.009,0.052 0.018,0.097 0.02,0.099 0.004,0.006 0.21,-0.114 0.218,-0.128 0.004,-0.006 -0.005,-0.0272 -0.02,-0.046 -0.015,-0.019 -0.043,-0.064 -0.062,-0.1 -0.089,-0.169 -0.006,-0.496 0.126,-0.496 0.037,0 0.185,0.158 0.222,0.237 0.018,0.038 0.033,0.099 0.0348,0.136 0.002,0.049 0.008,0.065 0.022,0.059 0.024,-0.009 0.18,-0.126 0.18,-0.135 0,-0.004 -0.016,-0.028 -0.036,-0.054 -0.067,-0.087 -0.101,-0.184 -0.101,-0.288 0,-0.081 0.008,-0.112 0.05,-0.197 0.046,-0.091 0.055,-0.101 0.1,-0.105 0.043,-0.004 0.059,0.005 0.129,0.078 0.11,0.113 0.154,0.214 0.147,0.333 -0.003,0.05 -0.01,0.101 -0.017,0.113 -0.009,0.019 0.004,0.022 0.091,0.017 0.139,-0.008 0.228,0.024 0.33,0.117 0.06,0.055 0.08,0.083 0.08,0.113 0,0.037 -0.038,0.088 -0.066,0.088 -0.007,0 -0.023,0.009 -0.035,0.02 -0.078,0.067 -0.283,0.091 -0.39,0.046 -0.031,-0.013 -0.084,-0.05 -0.118,-0.084 l -0.061,-0.06 -0.085,0.064 c -0.047,0.035 -0.09,0.068 -0.097,0.074 -0.007,0.006 0.013,0.024 0.044,0.04 0.098,0.051 0.224,0.212 0.224,0.286 0,0.065 -0.177,0.123 -0.323,0.106 -0.117,-0.014 -0.243,-0.097 -0.298,-0.196 -0.002,-0.004 -0.174,0.0936 -0.196,0.11 -0.004,0.003 0.005,0.013 0.021,0.021 0.093,0.052 0.227,0.225 0.227,0.294 0,0.069 -0.211,0.127 -0.355,0.097 -0.102,-0.021 -0.197,-0.083 -0.243,-0.156 l -0.036,-0.058 -0.135,0.059 c -0.075,0.033 -0.135,0.063 -0.135,0.067 0,0.004 0.031,0.027 0.068,0.05 0.073,0.047 0.18,0.195 0.18,0.251 0,0.043 -0.03,0.072 -0.098,0.095 -0.074,0.024 -0.247,0.025 -0.316,0 -0.072,-0.025 -0.163,-0.107 -0.2,-0.179 -0.016,-0.031 -0.033,-0.055 -0.039,-0.056 -0.006,0 -0.078,0.024 -0.16,0.053 l -0.15,0.053 0.064,0.06 c 0.075,0.07 0.109,0.132 0.135,0.242 0.016,0.068 0.016,0.085 -0.003,0.113 -0.029,0.044 -0.079,0.054 -0.183,0.038 l -0.087,-0.014 v 0.134 c 0,0.123 0.003,0.136 0.035,0.167 0.027,0.026 0.058,0.035 0.135,0.041 0.054,0.004 0.108,0.014 0.118,0.022 0.03,0.023 0.023,0.11 -0.01,0.127 -0.046,0.025 -0.192,0.017 -0.256,-0.013 z m 0.048,-0.676 c -0.048,-0.072 -0.186,-0.155 -0.186,-0.111 0,0.05 0.117,0.143 0.181,0.143 0.025,0 0.025,-0.003 0.006,-0.032 z m 0.725,-0.291 c -0.037,-0.041 -0.109,-0.071 -0.174,-0.071 -0.048,0 -0.051,0.002 -0.036,0.03 0.022,0.041 0.094,0.071 0.173,0.071 h 0.064 l -0.028,-0.031 z m -0.963,-0.118 c 0.024,-0.034 0.03,-0.157 0.009,-0.208 -0.011,-0.028 -0.012,-0.027 -0.03,0.005 -0.032,0.06 -0.044,0.122 -0.035,0.179 0.01,0.064 0.023,0.069 0.055,0.023 z m 0.657,-0.214 c 0.022,-0.043 0.017,-0.184 -0.007,-0.199 -0.014,-0.009 -0.058,0.1 -0.058,0.143 0,0.048 0.016,0.098 0.03,0.098 0.007,0 0.022,-0.019 0.034,-0.042 z m 0.968,0.024 c -0.011,-0.032 -0.119,-0.0835 -0.176,-0.084 -0.067,0 -0.066,0.021 0.005,0.069 0.054,0.037 0.183,0.0477 0.172,0.015 z m -0.302,-0.388 c 0.018,-0.059 -0.003,-0.178 -0.031,-0.178 -0.026,0 -0.046,0.079 -0.038,0.15 0.013,0.115 0.039,0.126 0.069,0.028 z m 0.872,0.052 c -0.014,-0.047 -0.23,-0.114 -0.23,-0.072 0,0.015 0.059,0.069 0.088,0.08 0.045,0.017 0.149,0.011 0.143,-0.008 z m -0.325,-0.348 c 0.02,-0.032 0.009,-0.116 -0.024,-0.173 -0.018,-0.033 -0.039,-0.059 -0.045,-0.059 -0.021,0 -0.013,0.148 0.012,0.199 0.024,0.051 0.041,0.061 0.057,0.034 z m 0.877,-0.043 c 0.046,-0.018 0.036,-0.033 -0.042,-0.057 -0.063,-0.02 -0.171,-0.008 -0.171,0.02 0,0.044 0.134,0.067 0.213,0.037 z m -0.388,-0.376 c 0,-0.072 -0.047,-0.172 -0.073,-0.156 -0.024,0.015 -0.016,0.112 0.015,0.18 0.035,0.077 0.058,0.068 0.058,-0.024 z m -2.967,1.453 c -0.03,-0.023 -0.092,-0.206 -0.131,-0.387 -0.044,-0.201 -0.044,-0.5 0,-0.68 0.059,-0.239 0.182,-0.462 0.359,-0.648 0.249,-0.262 0.616,-0.46 0.97,-0.522 0.151,-0.027 0.46,-0.03 0.63,-0.006 0.253,0.035 0.543,0.125 0.772,0.24 0.105,0.053 0.131,0.087 0.103,0.138 -0.033,0.062 -0.062,0.062 -0.192,0.002 -0.173,-0.081 -0.392,-0.154 -0.576,-0.193 -0.192,-0.04 -0.56,-0.048 -0.728,-0.014 -0.491,0.098 -0.889,0.381 -1.087,0.774 -0.148,0.294 -0.157,0.716 -0.023,1.11 0.044,0.13 0.045,0.15 0.01,0.181 -0.032,0.029 -0.076,0.031 -0.108,0.006 z m 3.45,-0.199 c -0.036,-0.013 -0.062,-0.066 -0.05,-0.1 0.004,-0.012 0.019,-0.035 0.034,-0.051 0.069,-0.077 0.09,-0.211 0.05,-0.309 -0.032,-0.077 -0.028,-0.117 0.016,-0.146 0.034,-0.022 0.042,-0.023 0.076,-0.004 0.09,0.05 0.126,0.302 0.064,0.44 -0.039,0.087 -0.099,0.167 -0.133,0.175 -0.014,0.004 -0.04,0.002 -0.058,-0.005 z m -3.126,-0.568 c -0.073,-0.073 -0.008,-0.437 0.0989,-0.558 0.051,-0.058 0.145,-0.006 0.131,0.072 -0.004,0.0224 -0.026,0.083 -0.048,0.136 -0.037,0.086 -0.045,0.14 -0.05,0.324 0,0.021 -0.047,0.056 -0.074,0.056 -0.015,0 -0.041,-0.013 -0.057,-0.029 z m 0.388,-0.052 c -0.033,-0.033 -0.041,-0.101 -0.036,-0.284 0.005,-0.152 0.008,-0.165 0.04,-0.192 0.034,-0.028 0.079,-0.026 0.111,0.004 0.008,0.008 0.015,0.11 0.017,0.228 0.002,0.173 -0.002,0.22 -0.02,0.24 -0.027,0.032 -0.081,0.033 -0.111,0.003 z m 0.955,-0.584 c -0.082,-0.058 -0.196,-0.094 -0.298,-0.094 -0.071,0 -0.098,-0.006 -0.116,-0.027 -0.03,-0.033 -0.031,-0.075 -0.003,-0.113 0.018,-0.024 0.037,-0.028 0.135,-0.026 0.134,0.003 0.253,0.04 0.366,0.115 0.062,0.041 0.077,0.059 0.077,0.092 0,0.047 -0.04,0.09 -0.081,0.089 -0.0154,0 -0.051,-0.017 -0.079,-0.037 z m 2.31,-0.021 c 0,-0.028 0.003,-0.04 0.007,-0.026 0.004,0.014 0.004,0.037 0,0.051 -0.004,0.014 -0.007,0.002 -0.007,-0.026 z m -1.915,-0.229 c -0.107,-0.072 -0.22,-0.109 -0.351,-0.115 -0.06,-0.003 -0.114,-0.005 -0.12,-0.006 -0.022,-0.003 -0.056,-0.049 -0.056,-0.075 0,-0.015 0.013,-0.041 0.029,-0.057 0.059,-0.059 0.324,-0.028 0.494,0.057 0.158,0.08 0.208,0.146 0.159,0.208 -0.036,0.046 -0.074,0.043 -0.156,-0.012 z"
        />
    </g>
    <text
        id="text"
        x="33"
        y="50"
        style="
            font-family:FreeMono,monospace;
            font-size:3px;
            text-anchor:middle;
            fill:#ffffff;
            stroke:#000000;
            stroke-width:0.02px
        "
    >
        <tspan x="33" y="50">When performing an</tspan>
        <tspan x="33" y="54"><tspan style="fill:#777777">ARCHITECT</tspan> action, you</tspan>
        <tspan x="33" y="58">may additionally add a</tspan>
        <tspan x="33" y="62">material to an opponent's</tspan>
        <tspan x="33" y="66">completed structure to</tspan>
        <tspan x="33" y="70">make its function available</tspan>
        <tspan x="33" y="74">to all players.</tspan>
    </text>
</svg>